<svg width="2000" height="2000" viewBox="0 0 2000 2000" fill="none" xmlns="http://www.w3.org/2000/svg">
<path d="M1757.6 1550.49H268.703C267.956 1550.49 267.24 1550.19 266.713 1549.66C266.185 1549.13 265.888 1548.42 265.888 1547.67C265.888 1546.93 266.185 1546.21 266.713 1545.68C267.24 1545.15 267.956 1544.86 268.703 1544.86H1757.6C1758.35 1544.86 1759.06 1545.15 1759.59 1545.68C1760.12 1546.21 1760.41 1546.93 1760.41 1547.67C1760.41 1548.42 1760.12 1549.13 1759.59 1549.66C1759.06 1550.19 1758.35 1550.49 1757.6 1550.49Z" fill="#313131"/>
<path d="M1456.99 919.459C1456.99 919.459 1639.16 997.369 1665.68 1047.22C1696.24 1104.64 1649.92 1539.86 1527.61 1561.43C1405.29 1583 1007.9 1600.14 1007.9 1600.14V1547.67L934.272 1495.03L993.628 1351.32C993.628 1351.32 867.125 1451.39 809.751 1303.31C752.376 1155.24 735.128 995.748 735.128 995.748L880.5 951.433L947.647 1122.34C947.647 1122.34 1071.97 879.333 1130.35 860.035C1178.61 844.138 1320.74 885.007 1320.74 885.007L1327.81 954.969L1456.99 919.459Z" fill="white"/>
<path d="M1007.9 1602.95C1007.55 1602.96 1007.19 1602.89 1006.86 1602.75C1006.52 1602.62 1006.22 1602.42 1005.97 1602.17C1005.69 1601.91 1005.47 1601.59 1005.32 1601.24C1005.17 1600.89 1005.09 1600.52 1005.09 1600.14V1549.07L932.651 1497.28C932.132 1496.91 931.753 1496.38 931.577 1495.77C931.401 1495.16 931.438 1494.51 931.682 1493.92L987.233 1359.29C969.422 1371.16 925.13 1396 881.266 1384.06C849.134 1375.3 824.162 1348.48 806.958 1304.33C750.44 1157.92 732.426 997.64 732.426 996.042C732.356 995.39 732.515 994.734 732.877 994.187C733.239 993.64 733.78 993.237 734.407 993.047L879.757 948.733C880.436 948.53 881.166 948.589 881.803 948.897C882.441 949.206 882.94 949.741 883.202 950.399L948.098 1115.54C967.44 1078.3 1075.01 875.393 1129.57 857.424C1178.09 841.415 1315.76 880.685 1321.62 882.351C1322.16 882.508 1322.64 882.824 1322.99 883.257C1323.35 883.691 1323.57 884.223 1323.62 884.783L1330.38 951.412L1456.34 916.758C1456.95 916.576 1457.61 916.624 1458.18 916.893C1465.66 920.09 1641.57 995.704 1668.25 1045.9C1691.24 1089.11 1671.76 1350.04 1605.65 1485.62C1582.66 1532.74 1556.59 1559.2 1528.17 1564.2C1407 1585.55 1012.09 1602.77 1008.02 1602.95H1007.9ZM937.74 1494.04L1009.55 1545.38C1009.9 1545.63 1010.2 1545.97 1010.4 1546.36C1010.6 1546.75 1010.71 1547.19 1010.72 1547.63V1597.17C1047.31 1595.55 1411.84 1578.95 1527.11 1558.64C1553.66 1553.96 1578.34 1528.56 1600.49 1483.14C1629.11 1424.48 1652.44 1332.9 1664.65 1231.93C1675.05 1145.04 1674.49 1069.63 1663.27 1048.53C1638.5 1001.92 1470.75 928.467 1456.88 922.432L1328.53 957.694C1328.13 957.809 1327.72 957.835 1327.31 957.77C1326.91 957.705 1326.52 957.55 1326.18 957.317C1325.85 957.085 1325.56 956.779 1325.36 956.424C1325.15 956.069 1325.03 955.672 1324.99 955.263L1318.1 887.238C1301.37 882.554 1175.19 848.26 1131.21 862.739C1074.69 881.428 951.408 1121.24 950.169 1123.63C949.924 1124.11 949.543 1124.51 949.074 1124.79C948.604 1125.06 948.065 1125.19 947.522 1125.17C946.979 1125.14 946.455 1124.96 946.014 1124.64C945.573 1124.32 945.233 1123.88 945.035 1123.38L878.789 954.88L738.168 997.663C740.555 1017.93 759.514 1166.07 812.273 1302.21C828.688 1344.59 852.376 1370.28 882.685 1378.54C935.398 1392.91 991.218 1349.47 991.781 1349.02C992.269 1348.64 992.872 1348.43 993.493 1348.43C994.113 1348.43 994.716 1348.64 995.204 1349.02C995.702 1349.4 996.062 1349.92 996.229 1350.52C996.396 1351.12 996.36 1351.76 996.127 1352.33L937.74 1494.04Z" fill="#313131"/>
<path d="M1252.38 839.048V410.046H1251.97C1164.99 404.147 1071.16 400.927 973.362 400.927C890.521 400.927 810.539 403.178 735.128 407.524H735.623V836.819H735.353C810.696 832.54 890.588 830.221 973.362 830.221C1071.31 830.221 1165.28 833.464 1252.38 839.363V839.048Z" fill="white"/>
<path d="M1252.38 842.201H1252.2C1162.94 836.144 1069.13 833.014 973.363 833.014C892.48 833.014 812.588 835.266 735.894 839.589H735.489C734.744 839.62 734.016 839.356 733.464 838.854C732.912 838.353 732.58 837.654 732.539 836.909C732.515 836.436 732.608 835.964 732.809 835.536V409.101C732.504 408.681 732.32 408.185 732.278 407.667C732.235 407.15 732.335 406.63 732.568 406.166C732.8 405.701 733.155 405.309 733.595 405.033C734.035 404.756 734.542 404.606 735.061 404.598C812.048 400.229 892.255 398 973.453 398C1069.2 398 1163 401.062 1252.26 407.12H1252.69C1253.4 407.171 1254.06 407.488 1254.54 408.006C1255.02 408.524 1255.28 409.205 1255.28 409.912V839.386C1255.29 839.758 1255.22 840.126 1255.08 840.47C1254.94 840.815 1254.73 841.127 1254.47 841.39C1254.21 841.653 1253.89 841.86 1253.55 841.999C1253.21 842.138 1252.84 842.207 1252.47 842.201H1252.38ZM973.363 827.429C1068.18 827.429 1161.09 830.447 1249.56 836.436V412.681C1161.11 406.737 1068.21 403.674 973.363 403.674C893.381 403.674 814.367 405.926 738.439 410.092V833.847C814.367 829.591 893.403 827.429 973.363 827.429Z" fill="#313131"/>
<path d="M1119.73 667.758H1119.54C1076.09 664.808 1030.42 663.254 983.81 663.254C944.427 663.254 905.517 664.335 868.206 666.452H868.003C867.269 666.471 866.557 666.205 866.015 665.709C865.473 665.214 865.145 664.527 865.098 663.795C865.075 663.533 865.075 663.269 865.098 663.007V455.689C864.958 455.368 864.874 455.025 864.851 454.676C864.82 453.934 865.081 453.21 865.577 452.659C866.074 452.107 866.767 451.772 867.508 451.726C905.044 449.587 944.067 448.506 983.742 448.506C1030.4 448.506 1076.06 450.015 1119.66 453.009C1120.39 453.047 1121.09 453.356 1121.61 453.876C1122.13 454.396 1122.43 455.09 1122.47 455.824V664.988C1122.48 665.372 1122.4 665.752 1122.25 666.105C1122.1 666.458 1121.87 666.775 1121.59 667.037C1121.08 667.497 1120.42 667.753 1119.73 667.758ZM983.81 657.67C1029.48 657.67 1074.24 659.111 1116.91 661.926V458.414C1074.13 455.576 1029.43 454.135 983.81 454.135C945.35 454.135 907.251 455.171 870.795 457.175V660.71C907.364 658.706 945.35 657.67 983.833 657.67H983.81Z" fill="#313131"/>
<path d="M867.756 660.057L961.338 517.274L1013.49 604.192L1062.53 562.579L1119.75 664.944L867.756 660.057Z" fill="#21A2FF"/>
<path d="M1119.73 667.759C1119.23 667.756 1118.74 667.621 1118.3 667.368C1117.87 667.115 1117.52 666.753 1117.27 666.318L1061.72 566.948L1015.29 606.331C1014.98 606.593 1014.62 606.785 1014.23 606.894C1013.84 607.002 1013.44 607.026 1013.04 606.962C1012.64 606.892 1012.25 606.737 1011.92 606.508C1011.58 606.279 1011.29 605.981 1011.08 605.633L961.248 522.567L870.12 661.589C869.922 661.909 869.663 662.187 869.356 662.405C869.05 662.624 868.703 662.779 868.335 662.86C867.968 662.942 867.588 662.95 867.218 662.882C866.847 662.815 866.494 662.673 866.18 662.467C865.865 662.261 865.595 661.993 865.385 661.681C865.176 661.368 865.031 661.017 864.959 660.648C864.888 660.278 864.891 659.898 864.969 659.53C865.047 659.162 865.198 658.813 865.413 658.504L958.996 515.744C959.251 515.338 959.607 515.007 960.03 514.782C960.452 514.556 960.927 514.446 961.405 514.46C961.883 514.474 962.349 514.606 962.762 514.846C963.175 515.086 963.521 515.426 963.769 515.834L1014.21 599.891L1060.71 560.553C1061.02 560.288 1061.4 560.095 1061.8 559.989C1062.2 559.883 1062.62 559.866 1063.02 559.939C1063.43 560.012 1063.82 560.173 1064.16 560.412C1064.5 560.65 1064.78 560.96 1064.99 561.319L1122.2 663.683C1122.39 664.005 1122.5 664.36 1122.55 664.727C1122.59 665.094 1122.56 665.467 1122.46 665.823C1122.36 666.18 1122.19 666.512 1121.96 666.802C1121.73 667.092 1121.45 667.333 1121.12 667.511C1120.69 667.715 1120.2 667.801 1119.73 667.759Z" fill="#313131"/>
<path d="M1026.53 535.897C1036.81 535.897 1045.15 527.56 1045.15 517.275C1045.15 506.991 1036.81 498.653 1026.53 498.653C1016.24 498.653 1007.9 506.991 1007.9 517.275C1007.9 527.56 1016.24 535.897 1026.53 535.897Z" fill="#FFA620"/>
<path d="M1026.53 538.712C1022.29 538.712 1018.14 537.455 1014.62 535.099C1011.09 532.744 1008.34 529.396 1006.72 525.479C1005.1 521.562 1004.67 517.252 1005.5 513.093C1006.33 508.935 1008.37 505.115 1011.37 502.117C1014.37 499.12 1018.19 497.078 1022.34 496.251C1026.5 495.424 1030.81 495.848 1034.73 497.471C1038.65 499.093 1041.99 501.841 1044.35 505.366C1046.71 508.891 1047.96 513.036 1047.96 517.275C1047.96 522.959 1045.7 528.408 1041.68 532.427C1037.66 536.446 1032.21 538.706 1026.53 538.712ZM1026.53 501.468C1023.41 501.468 1020.36 502.393 1017.77 504.125C1015.18 505.857 1013.16 508.318 1011.96 511.198C1010.77 514.079 1010.46 517.248 1011.07 520.305C1011.67 523.363 1013.18 526.172 1015.38 528.376C1017.58 530.58 1020.39 532.082 1023.45 532.69C1026.51 533.298 1029.68 532.986 1032.56 531.793C1035.44 530.6 1037.9 528.579 1039.63 525.987C1041.36 523.395 1042.29 520.348 1042.29 517.23C1042.29 513.05 1040.63 509.041 1037.67 506.085C1034.72 503.129 1030.71 501.468 1026.53 501.468Z" fill="#313131"/>
<path d="M800.338 708.717C799.592 708.735 798.869 708.455 798.328 707.94C797.788 707.425 797.474 706.716 797.456 705.97C797.438 705.223 797.717 704.5 798.233 703.96C798.748 703.419 799.457 703.105 800.203 703.088C801.532 703.088 935.015 696.49 1186.85 703.088C1187.22 703.096 1187.58 703.178 1187.92 703.327C1188.26 703.477 1188.56 703.692 1188.82 703.959C1189.08 704.227 1189.28 704.542 1189.41 704.887C1189.54 705.232 1189.61 705.6 1189.6 705.97C1189.59 706.341 1189.52 706.708 1189.37 707.049C1189.22 707.39 1189.01 707.698 1188.74 707.954C1188.47 708.211 1188.15 708.41 1187.8 708.541C1187.46 708.672 1187.09 708.732 1186.71 708.717C935.105 702.142 801.802 708.717 800.496 708.717H800.338Z" fill="#313131"/>
<path d="M800.542 749.002C799.795 749.02 799.072 748.741 798.532 748.225C797.991 747.71 797.677 747.001 797.66 746.255C797.642 745.508 797.921 744.785 798.436 744.245C798.951 743.704 799.66 743.391 800.407 743.373C801.713 743.373 935.218 736.775 1187.05 743.373C1187.42 743.381 1187.79 743.463 1188.12 743.613C1188.46 743.763 1188.76 743.978 1189.02 744.246C1189.27 744.514 1189.47 744.829 1189.6 745.174C1189.73 745.519 1189.79 745.886 1189.78 746.255C1189.78 746.627 1189.7 746.996 1189.56 747.338C1189.41 747.681 1189.2 747.99 1188.93 748.247C1188.66 748.504 1188.34 748.703 1187.99 748.833C1187.64 748.963 1187.27 749.02 1186.9 749.002C935.308 742.404 802.005 749.002 800.677 749.002H800.542Z" fill="#313131"/>
<path d="M800.542 789.263C799.795 789.281 799.072 789.001 798.532 788.486C797.991 787.971 797.677 787.262 797.66 786.516C797.642 785.769 797.921 785.046 798.436 784.506C798.951 783.965 799.66 783.651 800.407 783.633C801.713 783.633 935.218 777.036 1187.05 783.633C1187.42 783.642 1187.79 783.724 1188.12 783.874C1188.46 784.024 1188.76 784.239 1189.02 784.507C1189.27 784.775 1189.47 785.09 1189.6 785.435C1189.73 785.78 1189.79 786.147 1189.78 786.516C1189.78 786.889 1189.71 787.259 1189.56 787.603C1189.42 787.947 1189.2 788.257 1188.93 788.515C1188.66 788.773 1188.34 788.972 1187.99 789.101C1187.64 789.229 1187.27 789.284 1186.9 789.263C935.308 782.688 802.005 789.263 800.677 789.263H800.542Z" fill="#313131"/>
<path d="M151.814 984.759C151.814 926.619 322.541 875.978 574.871 849.655H574.646V420.293H573.971C322.136 446.683 151.814 497.28 151.814 555.397V984.759Z" fill="white"/>
<path d="M151.815 987.574C151.068 987.574 150.352 987.277 149.824 986.75C149.297 986.222 149 985.506 149 984.759V555.42C149 496.875 307.748 445.445 573.678 417.568H574.376C574.78 417.515 575.19 417.55 575.579 417.67C575.968 417.791 576.326 417.994 576.628 418.266C576.918 418.533 577.149 418.857 577.308 419.217C577.467 419.577 577.55 419.967 577.551 420.36V848.551C577.664 848.793 577.732 849.052 577.754 849.317C577.83 850.057 577.609 850.797 577.141 851.375C576.672 851.953 575.994 852.322 575.255 852.402C449.472 865.53 343.798 884.737 269.671 907.93C194.485 931.46 154.832 958.009 154.832 984.737C154.836 985.126 154.759 985.512 154.607 985.87C154.454 986.228 154.229 986.55 153.946 986.817C153.662 987.084 153.326 987.289 152.959 987.419C152.593 987.549 152.203 987.602 151.815 987.574ZM571.832 423.423C447.356 436.573 342.875 455.668 269.288 478.703C194.26 502.211 154.629 528.737 154.629 555.42V965.867C184.915 915.473 336.03 871.969 571.832 847.133V423.423Z" fill="#313131"/>
<path d="M182.754 859.876C182.754 824.051 261.97 792.865 379.038 776.562L378.723 508.447C261.88 524.705 182.821 559.517 182.821 595.297L182.754 859.876Z" fill="#FFA620"/>
<path d="M182.753 862.693C182.383 862.696 182.015 862.625 181.673 862.484C181.33 862.344 181.018 862.137 180.756 861.875C180.494 861.613 180.287 861.301 180.147 860.959C180.006 860.616 179.936 860.248 179.939 859.878V595.366C179.939 557.672 257.781 522.5 378.249 505.724C378.647 505.673 379.051 505.707 379.435 505.824C379.819 505.941 380.174 506.137 380.476 506.401C380.778 506.665 381.021 506.99 381.188 507.355C381.356 507.719 381.444 508.115 381.447 508.516L381.762 775.865V776.203C381.865 776.943 381.673 777.694 381.226 778.292C380.779 778.891 380.114 779.289 379.375 779.401C261.609 795.748 185.523 827.318 185.523 859.878C185.523 860.617 185.233 861.326 184.714 861.852C184.196 862.379 183.492 862.681 182.753 862.693ZM375.818 511.759C263.636 527.814 185.568 562.04 185.568 595.366V842.652C204.888 813.56 273.048 788.723 376.133 774.177L375.818 511.759Z" fill="#313131"/>
<path d="M151.814 984.759C151.814 1010.97 186.536 1035.67 247.806 1057.29H247.558V627.858L248.256 628.106C186.694 606.444 151.814 581.698 151.814 555.42V984.759Z" fill="white"/>
<path d="M247.806 1060.1C247.484 1060.1 247.164 1060.05 246.861 1059.94C181.92 1037.02 149 1011.73 149 984.759V555.419C149 554.673 149.297 553.957 149.824 553.429C150.352 552.901 151.068 552.604 151.815 552.604C152.561 552.604 153.277 552.901 153.805 553.429C154.333 553.957 154.629 554.673 154.629 555.419C154.629 579.355 187.032 603.449 248.324 625.223H248.504L249.202 625.471C249.903 625.721 250.476 626.237 250.796 626.908C251.117 627.579 251.159 628.349 250.914 629.051C250.788 629.388 250.606 629.7 250.373 629.974V1056.16C250.634 1056.83 250.634 1057.58 250.373 1058.26C250.182 1058.79 249.835 1059.25 249.376 1059.58C248.918 1059.91 248.371 1060.09 247.806 1060.1ZM154.629 574.446V984.759C154.629 1008.22 185.771 1031.84 244.699 1053.21V629.884C196.512 612.613 166.383 594.059 154.629 574.446Z" fill="#313131"/>
<path d="M430.175 770.752C429.43 770.746 428.718 770.448 428.191 769.921C427.665 769.395 427.366 768.682 427.36 767.937V679.016C427.355 678.331 427.603 677.667 428.055 677.152C428.508 676.637 429.134 676.307 429.815 676.224L548.527 660.304C548.928 660.251 549.337 660.283 549.725 660.4C550.113 660.516 550.472 660.714 550.778 660.98C551.077 661.245 551.316 661.571 551.479 661.936C551.642 662.301 551.726 662.697 551.724 663.096V751.635C551.72 752.314 551.473 752.97 551.026 753.482C550.58 753.995 549.965 754.33 549.292 754.427L430.58 770.707L430.175 770.752ZM432.945 681.471V764.785L546.027 749.271V666.384L432.945 681.471Z" fill="#313131"/>
<path d="M487.28 747.043C486.88 747.044 486.484 746.961 486.119 746.798C485.754 746.635 485.428 746.396 485.163 746.097L458.345 715.923C457.912 715.358 457.71 714.649 457.779 713.94C457.848 713.231 458.184 712.574 458.718 712.103C459.252 711.632 459.945 711.38 460.657 711.4C461.37 711.419 462.048 711.708 462.555 712.208L486.604 739.342L512.251 687.552C512.583 686.88 513.168 686.367 513.877 686.126C514.586 685.886 515.362 685.937 516.034 686.268C516.706 686.599 517.219 687.184 517.459 687.894C517.7 688.603 517.649 689.379 517.318 690.051L489.801 745.534C489.585 745.957 489.265 746.32 488.871 746.587C488.478 746.855 488.023 747.019 487.55 747.065L487.28 747.043Z" fill="#313131"/>
<path d="M412.003 521.35C411.317 521.353 410.653 521.106 410.136 520.655C409.62 520.203 409.286 519.579 409.197 518.898C409.109 518.218 409.272 517.529 409.656 516.96C410.04 516.392 410.618 515.983 411.282 515.811C453.265 505.715 495.906 498.582 538.888 494.464C539.257 494.429 539.628 494.466 539.982 494.574C540.336 494.682 540.664 494.859 540.95 495.094C541.235 495.329 541.472 495.619 541.645 495.945C541.819 496.272 541.927 496.629 541.962 496.997C541.998 497.366 541.96 497.737 541.852 498.091C541.744 498.445 541.567 498.773 541.332 499.059C541.097 499.344 540.808 499.581 540.481 499.754C540.155 499.928 539.797 500.036 539.429 500.071C496.735 504.156 454.38 511.237 412.678 521.26C412.458 521.318 412.231 521.348 412.003 521.35Z" fill="#313131"/>
<path d="M412.003 568.863C411.317 568.866 410.653 568.619 410.136 568.168C409.62 567.716 409.286 567.091 409.197 566.411C409.109 565.731 409.272 565.042 409.656 564.473C410.04 563.904 410.618 563.496 411.282 563.323C453.265 553.228 495.906 546.095 538.888 541.977C539.632 541.905 540.373 542.132 540.95 542.607C541.526 543.082 541.89 543.767 541.962 544.51C542.034 545.254 541.807 545.995 541.332 546.572C540.857 547.148 540.172 547.512 539.429 547.584C496.735 551.669 454.38 558.749 412.678 568.773C412.458 568.831 412.231 568.861 412.003 568.863Z" fill="#313131"/>
<path d="M412.003 617.095C411.317 617.099 410.653 616.851 410.136 616.4C409.62 615.948 409.286 615.324 409.197 614.644C409.109 613.963 409.272 613.274 409.656 612.705C410.04 612.137 410.618 611.728 411.282 611.556C453.263 601.447 495.904 594.314 538.888 590.209C539.257 590.174 539.628 590.211 539.982 590.319C540.336 590.427 540.664 590.604 540.95 590.839C541.235 591.075 541.472 591.364 541.645 591.69C541.819 592.017 541.927 592.374 541.962 592.742C541.998 593.111 541.96 593.482 541.852 593.836C541.744 594.19 541.567 594.519 541.332 594.804C541.097 595.089 540.808 595.326 540.481 595.499C540.155 595.673 539.797 595.781 539.429 595.816C496.733 599.888 454.377 606.969 412.678 617.005C412.456 617.053 412.23 617.083 412.003 617.095Z" fill="#313131"/>
<path d="M1847.15 984.759C1847.15 926.619 1676.42 875.978 1424.09 849.655H1424.3V420.293H1424.97C1676.81 446.683 1847.15 497.28 1847.15 555.397V984.759Z" fill="white"/>
<path d="M1847.15 987.574C1846.4 987.574 1845.69 987.277 1845.16 986.749C1844.63 986.222 1844.34 985.506 1844.34 984.759C1844.34 958.031 1804.59 931.483 1729.5 907.952C1655.35 884.804 1549.81 865.597 1424.09 852.447H1423.71C1423 852.325 1422.35 851.942 1421.91 851.371C1421.46 850.8 1421.25 850.084 1421.3 849.362C1421.3 849.204 1421.3 849.047 1421.3 848.912V420.293C1421.3 419.899 1421.39 419.51 1421.55 419.151C1421.71 418.791 1421.94 418.47 1422.23 418.206C1422.53 417.943 1422.87 417.744 1423.25 417.623C1423.62 417.501 1424.02 417.46 1424.41 417.501H1425.08C1691.01 445.377 1849.79 496.897 1849.79 555.352V984.759C1849.79 985.475 1849.52 986.165 1849.03 986.688C1848.54 987.211 1847.87 987.528 1847.15 987.574ZM1427.11 847.11C1662.91 871.879 1814.03 915.451 1844.34 965.844V555.42C1844.34 528.737 1804.68 502.211 1729.65 478.703C1656.18 455.668 1551.61 436.573 1427.11 423.423V847.11Z" fill="#313131"/>
<path d="M1847.15 987.574C1846.4 987.574 1845.69 987.277 1845.16 986.749C1844.63 986.222 1844.34 985.506 1844.34 984.759C1844.34 958.031 1804.59 931.483 1729.5 907.952C1655.35 884.804 1549.81 865.597 1424.09 852.447H1423.71C1423 852.325 1422.35 851.942 1421.91 851.371C1421.46 850.8 1421.25 850.084 1421.3 849.362C1421.3 849.204 1421.3 849.047 1421.3 848.912V420.293C1421.3 419.899 1421.39 419.51 1421.55 419.151C1421.71 418.791 1421.94 418.47 1422.23 418.206C1422.53 417.943 1422.87 417.744 1423.25 417.623C1423.62 417.501 1424.02 417.46 1424.41 417.501H1425.08C1691.01 445.377 1849.79 496.897 1849.79 555.352V984.759C1849.79 985.475 1849.52 986.165 1849.03 986.688C1848.54 987.211 1847.87 987.528 1847.15 987.574ZM1427.11 847.11C1662.91 871.879 1814.03 915.451 1844.34 965.844V555.42C1844.34 528.737 1804.68 502.211 1729.65 478.703C1656.18 455.668 1551.61 436.573 1427.11 423.423V847.11Z" fill="#313131"/>
<path d="M1847.15 987.574C1846.4 987.574 1845.69 987.277 1845.16 986.749C1844.63 986.222 1844.34 985.506 1844.34 984.759C1844.34 958.031 1804.59 931.483 1729.5 907.952C1655.35 884.804 1549.81 865.597 1424.09 852.447H1423.71C1423 852.325 1422.35 851.942 1421.91 851.371C1421.46 850.8 1421.25 850.084 1421.3 849.362C1421.3 849.204 1421.3 849.047 1421.3 848.912V420.293C1421.3 419.899 1421.39 419.51 1421.55 419.151C1421.71 418.791 1421.94 418.47 1422.23 418.206C1422.53 417.943 1422.87 417.744 1423.25 417.623C1423.62 417.501 1424.02 417.46 1424.41 417.501H1425.08C1691.01 445.377 1849.79 496.897 1849.79 555.352V984.759C1849.79 985.475 1849.52 986.165 1849.03 986.688C1848.54 987.211 1847.87 987.528 1847.15 987.574ZM1427.11 847.11C1662.91 871.879 1814.03 915.451 1844.34 965.844V555.42C1844.34 528.737 1804.68 502.211 1729.65 478.703C1656.18 455.668 1551.61 436.573 1427.11 423.423V847.11Z" fill="#313131"/>
<path d="M1847.15 951.433C1847.15 907.93 1784.35 870.01 1691.53 850.285V529.029H1691.78C1784.42 548.777 1847.15 586.651 1847.15 630.11V951.433Z" fill="#21A2FF"/>
<path d="M1847.15 954.247C1846.4 954.247 1845.69 953.951 1845.16 953.423C1844.63 952.895 1844.33 952.179 1844.33 951.433C1844.33 910.901 1785.63 873.207 1691.22 853.077H1691.08C1690.36 852.934 1689.73 852.52 1689.31 851.92C1688.89 851.319 1688.72 850.58 1688.83 849.857V529.029C1688.82 528.599 1688.9 528.172 1689.08 527.782C1689.26 527.391 1689.53 527.047 1689.87 526.777C1690.19 526.513 1690.57 526.323 1690.98 526.222C1691.39 526.121 1691.82 526.111 1692.23 526.191H1692.48C1789.64 546.907 1850.1 586.696 1850.1 630.019V951.433C1850.1 951.814 1850.02 952.191 1849.87 952.542C1849.72 952.893 1849.5 953.209 1849.23 953.472C1848.95 953.736 1848.63 953.94 1848.27 954.073C1847.91 954.206 1847.53 954.266 1847.15 954.247ZM1694.41 848.033C1773.22 865.124 1827.4 894.802 1844.33 928.668V630.087C1844.33 590.028 1786.98 552.74 1694.41 532.451V848.033Z" fill="#313131"/>
<path d="M1847.15 984.759C1847.15 1010.97 1812.43 1035.67 1751.16 1057.29H1751.41V627.858L1750.71 628.106C1812.25 606.444 1847.15 581.698 1847.15 555.42V984.759Z" fill="white"/>
<path d="M1751.16 1060.1C1750.58 1060.11 1750.02 1059.93 1749.55 1059.6C1749.07 1059.27 1748.72 1058.8 1748.52 1058.26C1748.38 1057.92 1748.31 1057.57 1748.31 1057.21C1748.31 1056.85 1748.38 1056.49 1748.52 1056.16V629.974C1748.28 629.706 1748.1 629.392 1747.98 629.051C1747.74 628.352 1747.78 627.584 1748.09 626.914C1748.41 626.244 1748.98 625.725 1749.67 625.471L1750.39 625.223H1750.55C1811.86 603.516 1844.27 579.423 1844.27 555.419C1844.27 554.673 1844.56 553.957 1845.09 553.429C1845.62 552.901 1846.34 552.604 1847.08 552.604C1847.83 552.604 1848.54 552.901 1849.07 553.429C1849.6 553.957 1849.9 554.673 1849.9 555.419V984.759C1849.9 1011.78 1816.98 1037.02 1752.04 1059.94C1751.75 1060.04 1751.46 1060.1 1751.16 1060.1ZM1754.22 629.862V1053.19C1813.19 1031.82 1844.29 1008.15 1844.29 984.736V574.446C1832.56 594.059 1802.41 612.613 1754.22 629.862Z" fill="#313131"/>
<path d="M1663.99 531.777C1663.74 531.771 1663.48 531.733 1663.23 531.664C1562.26 503 1456.07 493.542 1454.96 493.385C1454.23 493.308 1453.55 492.946 1453.08 492.376C1452.61 491.806 1452.39 491.074 1452.45 490.337C1452.52 489.601 1452.87 488.92 1453.43 488.442C1453.99 487.963 1454.72 487.724 1455.46 487.778C1456.52 487.778 1563.27 497.393 1664.76 526.193C1665.43 526.365 1666.01 526.778 1666.39 527.351C1666.78 527.925 1666.94 528.619 1666.84 529.303C1666.75 529.987 1666.41 530.613 1665.88 531.06C1665.36 531.508 1664.68 531.747 1663.99 531.732V531.777Z" fill="#313131"/>
<path d="M1663.99 583.363C1663.73 583.37 1663.48 583.332 1663.23 583.25C1562.26 554.608 1456.07 545.128 1454.96 544.971C1454.23 544.894 1453.55 544.532 1453.08 543.962C1452.61 543.392 1452.39 542.659 1452.45 541.923C1452.52 541.187 1452.87 540.506 1453.43 540.027C1453.99 539.549 1454.72 539.31 1455.46 539.364C1456.52 539.364 1563.27 548.956 1664.76 577.779C1665.41 577.968 1665.97 578.384 1666.33 578.951C1666.7 579.518 1666.85 580.198 1666.76 580.868C1666.67 581.537 1666.34 582.15 1665.83 582.596C1665.32 583.042 1664.67 583.29 1663.99 583.295V583.363Z" fill="#313131"/>
<path d="M1663.99 634.86C1663.74 634.891 1663.48 634.891 1663.23 634.86C1562.26 606.195 1456.07 596.715 1454.96 596.58C1454.23 596.504 1453.55 596.141 1453.08 595.571C1452.61 595.001 1452.39 594.269 1452.45 593.533C1452.52 592.797 1452.87 592.116 1453.43 591.637C1453.99 591.158 1454.72 590.92 1455.46 590.973C1456.52 590.973 1563.27 600.588 1664.76 629.388C1665.41 629.577 1665.97 629.993 1666.33 630.56C1666.7 631.127 1666.85 631.808 1666.76 632.477C1666.67 633.146 1666.34 633.76 1665.83 634.205C1665.32 634.651 1664.67 634.899 1663.99 634.905V634.86Z" fill="#313131"/>
<path d="M1663.99 686.651C1663.74 686.682 1663.48 686.682 1663.23 686.651C1562.26 657.987 1456.07 648.529 1454.96 648.372C1454.22 648.306 1453.53 647.946 1453.05 647.372C1452.56 646.798 1452.33 646.056 1452.4 645.309C1452.46 644.563 1452.82 643.873 1453.4 643.392C1453.97 642.91 1454.71 642.677 1455.46 642.742C1456.52 642.855 1563.27 652.357 1664.76 681.18C1665.41 681.369 1665.97 681.785 1666.33 682.352C1666.7 682.919 1666.85 683.599 1666.76 684.269C1666.67 684.938 1666.34 685.551 1665.83 685.997C1665.32 686.443 1664.67 686.691 1663.99 686.696V686.651Z" fill="#313131"/>
<path d="M1665.68 738.149C1665.42 738.156 1665.16 738.118 1664.92 738.036C1563.95 709.394 1457.76 699.914 1456.65 699.757C1456.28 699.73 1455.92 699.629 1455.58 699.46C1455.25 699.291 1454.96 699.058 1454.71 698.774C1454.47 698.489 1454.29 698.16 1454.18 697.804C1454.06 697.448 1454.02 697.074 1454.05 696.702C1454.09 696.33 1454.19 695.968 1454.37 695.638C1454.54 695.308 1454.78 695.015 1455.07 694.778C1455.35 694.54 1455.69 694.363 1456.04 694.255C1456.4 694.147 1456.78 694.111 1457.15 694.15C1458.21 694.15 1564.96 703.742 1666.45 732.565C1667.1 732.754 1667.66 733.17 1668.02 733.737C1668.39 734.304 1668.54 734.984 1668.45 735.654C1668.36 736.323 1668.02 736.936 1667.52 737.382C1667.01 737.828 1666.36 738.076 1665.68 738.081V738.149Z" fill="#313131"/>
<path d="M1663.99 789.757C1663.74 789.751 1663.48 789.714 1663.23 789.645C1562.26 760.98 1456.07 751.5 1454.96 751.365C1454.23 751.289 1453.55 750.926 1453.08 750.356C1452.61 749.786 1452.39 749.054 1452.45 748.318C1452.52 747.582 1452.87 746.901 1453.43 746.422C1453.99 745.943 1454.72 745.705 1455.46 745.758C1456.52 745.758 1563.27 755.373 1664.76 784.173C1665.43 784.346 1666.01 784.758 1666.39 785.332C1666.78 785.905 1666.94 786.6 1666.84 787.284C1666.75 787.968 1666.41 788.593 1665.88 789.041C1665.36 789.488 1664.68 789.728 1663.99 789.712V789.757Z" fill="#313131"/>
<path d="M1663.99 841.345C1663.74 841.339 1663.48 841.302 1663.23 841.233C1562.26 812.568 1456.07 803.111 1454.96 802.953C1454.23 802.877 1453.55 802.514 1453.08 801.944C1452.61 801.374 1452.39 800.642 1452.45 799.906C1452.52 799.17 1452.87 798.489 1453.43 798.01C1453.99 797.531 1454.72 797.293 1455.46 797.346C1456.52 797.346 1563.27 806.939 1664.76 835.761C1665.41 835.95 1665.97 836.366 1666.33 836.933C1666.7 837.501 1666.85 838.181 1666.76 838.85C1666.67 839.519 1666.34 840.133 1665.83 840.579C1665.32 841.024 1664.67 841.272 1663.99 841.278V841.345Z" fill="#313131"/>
<path d="M1353.64 725.516C1365.09 725.516 1374.37 711.342 1374.37 693.857C1374.37 676.372 1365.09 662.197 1353.64 662.197C1342.18 662.197 1332.9 676.372 1332.9 693.857C1332.9 711.342 1342.18 725.516 1353.64 725.516Z" fill="white"/>
<path d="M1353.66 728.308C1340.67 728.308 1330.11 712.861 1330.08 693.856C1330.08 674.851 1340.64 659.382 1353.64 659.382C1366.63 659.382 1377.19 674.851 1377.19 693.833C1377.35 702.272 1375.08 710.579 1370.66 717.769C1366.16 724.525 1360.17 728.308 1353.66 728.308ZM1335.64 693.856C1335.64 709.483 1343.86 722.678 1353.66 722.678C1358.16 722.678 1362.67 719.841 1365.95 714.685C1369.78 708.423 1371.73 701.193 1371.56 693.856C1371.56 678.206 1363.34 665.011 1353.55 665.011C1343.84 665.011 1335.53 678.229 1335.53 693.856H1335.64Z" fill="#313131"/>
<path d="M1320.74 885.051L1327.81 955.012L1456.99 919.457L1509.07 743.213L1371.99 704.821L1320.74 885.051Z" fill="white"/>
<path d="M1327.81 957.828C1327.24 957.823 1326.68 957.651 1326.21 957.333C1325.87 957.1 1325.59 956.795 1325.39 956.441C1325.18 956.087 1325.05 955.692 1325.02 955.283L1317.88 885.344C1317.8 884.996 1317.8 884.634 1317.88 884.286L1369.13 704.147C1369.33 703.431 1369.81 702.826 1370.46 702.463C1371.11 702.1 1371.88 702.009 1372.6 702.21L1509.68 740.603C1510.04 740.698 1510.38 740.866 1510.67 741.095C1510.97 741.324 1511.21 741.61 1511.39 741.936C1511.57 742.262 1511.69 742.621 1511.73 742.991C1511.76 743.362 1511.73 743.737 1511.62 744.093L1459.74 920.269C1459.6 920.727 1459.35 921.143 1459.01 921.478C1458.66 921.813 1458.24 922.055 1457.78 922.183L1328.6 957.715C1328.34 957.79 1328.08 957.828 1327.81 957.828ZM1323.6 885.322L1330.35 951.41L1454.81 917.162L1505.56 745.196L1373.95 708.29L1323.6 885.322Z" fill="#313131"/>
<path d="M1344 804.822C1344 804.822 1371.24 790.321 1419.32 804.822C1445.84 812.839 1418.42 750.443 1418.42 750.443L1363.52 735.086L1344 804.822Z" fill="#313131"/>
<path d="M1423.53 808.357C1421.82 808.33 1420.13 808.049 1418.51 807.524C1372.28 793.564 1345.58 807.164 1345.31 807.299C1344.82 807.563 1344.27 807.677 1343.72 807.625C1343.17 807.572 1342.65 807.357 1342.22 807.007C1341.8 806.659 1341.48 806.194 1341.32 805.67C1341.15 805.146 1341.15 804.585 1341.3 804.057L1360.82 734.253C1360.92 733.896 1361.09 733.563 1361.31 733.271C1361.54 732.98 1361.83 732.736 1362.15 732.554C1362.47 732.373 1362.82 732.256 1363.19 732.211C1363.56 732.166 1363.93 732.194 1364.29 732.294L1419.21 747.763C1419.61 747.876 1419.98 748.076 1420.29 748.348C1420.61 748.62 1420.86 748.959 1421.03 749.339C1424.32 756.815 1440.22 794.622 1430.69 805.385C1429.79 806.383 1428.69 807.167 1427.45 807.681C1426.21 808.195 1424.87 808.426 1423.53 808.357ZM1378.29 795.523C1392.49 795.664 1406.58 797.895 1420.13 802.143C1423.19 803.066 1425.31 802.908 1426.44 801.647C1431.57 795.838 1423.78 770.123 1416.37 752.83L1365.48 738.576L1348.25 800.049C1357.95 796.905 1368.1 795.376 1378.29 795.523Z" fill="#313131"/>
<path d="M1354.22 667.691L1344.9 709.596C1342.68 719.42 1342.41 729.586 1344.12 739.513C1345.84 749.439 1349.49 758.929 1354.88 767.441C1360.26 775.952 1367.28 783.317 1375.51 789.114C1383.75 794.91 1393.05 799.024 1402.88 801.219L1416.64 804.327C1426.46 806.535 1436.63 806.787 1446.55 805.067C1456.47 803.347 1465.96 799.689 1474.47 794.303C1482.97 788.916 1490.34 781.907 1496.14 773.674C1501.94 765.441 1506.06 756.147 1508.26 746.322L1517.7 704.394C1522.4 683.427 1518.59 661.451 1507.09 643.295C1495.6 625.139 1477.37 612.289 1456.41 607.57L1451.11 606.376C1440.73 604.038 1429.98 603.769 1419.49 605.585C1408.99 607.401 1398.96 611.267 1389.97 616.961C1380.97 622.655 1373.18 630.066 1367.05 638.77C1360.91 647.474 1356.56 657.302 1354.22 667.691Z" fill="white"/>
<path d="M1432.56 808.786C1426.59 808.788 1420.64 808.124 1414.82 806.804L1403.31 804.215C1392.98 801.896 1383.2 797.565 1374.54 791.467C1365.88 785.369 1358.51 777.625 1352.85 768.678C1347.18 759.73 1343.33 749.753 1341.53 739.318C1339.72 728.884 1339.99 718.195 1342.31 707.863L1351.47 667.061C1356.35 645.372 1369.64 626.508 1388.42 614.617C1407.21 602.726 1429.94 598.782 1451.63 603.652L1456.95 604.846C1478.62 609.748 1497.47 623.047 1509.36 641.827C1521.25 660.607 1525.2 683.335 1520.35 705.026L1511.19 745.804C1506.94 764.698 1496.04 781.433 1480.48 792.956C1479.88 793.341 1479.15 793.485 1478.45 793.357C1477.75 793.23 1477.12 792.841 1476.7 792.269C1476.27 791.698 1476.08 790.986 1476.16 790.278C1476.24 789.569 1476.58 788.917 1477.12 788.452C1491.6 777.736 1501.75 762.166 1505.7 744.589L1514.86 703.81C1519.38 683.575 1515.7 662.373 1504.61 644.855C1493.52 627.336 1475.93 614.932 1455.71 610.362L1450.42 609.169C1440.4 606.917 1430.03 606.661 1419.91 608.415C1409.79 610.169 1400.12 613.899 1391.44 619.392C1382.76 624.885 1375.25 632.033 1369.34 640.428C1363.42 648.824 1359.22 658.302 1356.97 668.322L1347.8 709.169C1345.64 718.781 1345.4 728.724 1347.08 738.432C1348.76 748.139 1352.34 757.42 1357.61 765.745C1362.88 774.069 1369.73 781.274 1377.79 786.947C1385.84 792.621 1394.94 796.652 1404.55 798.81L1416.05 801.378C1429.61 804.439 1443.74 803.659 1456.88 799.126C1457.23 798.989 1457.61 798.925 1457.99 798.936C1458.36 798.948 1458.73 799.036 1459.08 799.195C1459.42 799.354 1459.73 799.58 1459.98 799.86C1460.24 800.14 1460.43 800.469 1460.56 800.826C1460.68 801.183 1460.73 801.562 1460.71 801.939C1460.68 802.316 1460.58 802.684 1460.41 803.022C1460.24 803.359 1460 803.658 1459.71 803.902C1459.42 804.146 1459.09 804.329 1458.72 804.44C1450.31 807.335 1441.46 808.803 1432.56 808.786Z" fill="#313131"/>
<path d="M1354.22 667.69C1354.22 667.69 1366.13 648.054 1377.59 640.939C1389.06 633.823 1470.46 654.247 1477.14 659.741C1482.91 664.492 1487.03 672.936 1489.64 689.622C1492.5 707.973 1515.09 715.607 1515.09 715.607L1517.61 704.348L1537.02 623.51C1537.14 622.997 1537.16 622.464 1537.07 621.944C1536.99 621.423 1536.8 620.924 1536.52 620.478C1536.24 620.031 1535.87 619.645 1535.44 619.342C1535 619.039 1534.52 618.826 1534 618.714L1380.93 585.321C1379.94 585.106 1378.9 585.278 1378.04 585.801C1377.17 586.324 1376.54 587.16 1376.27 588.136L1354.22 667.69Z" fill="#313131"/>
<path d="M1515.09 718.422C1514.78 718.423 1514.48 718.377 1514.19 718.287C1513.2 717.949 1489.96 709.865 1486.85 690.05C1484.6 675.234 1481 666.564 1475.34 661.903C1469.29 656.927 1388.88 637.269 1379.06 643.349C1368.3 650.104 1356.74 668.951 1356.54 669.131C1356.2 669.746 1355.65 670.212 1354.98 670.437C1354.32 670.662 1353.59 670.631 1352.95 670.349C1352.3 670.067 1351.79 669.555 1351.5 668.913C1351.22 668.271 1351.19 667.546 1351.41 666.88L1373.47 587.326C1373.93 585.648 1375.02 584.211 1376.51 583.314C1377.99 582.416 1379.77 582.127 1381.47 582.507L1534.59 615.968C1535.47 616.158 1536.31 616.524 1537.05 617.044C1537.78 617.563 1538.41 618.226 1538.89 618.992C1539.37 619.758 1539.69 620.613 1539.83 621.505C1539.97 622.397 1539.94 623.309 1539.72 624.187L1520.31 705.002L1517.81 716.26C1517.72 716.643 1517.55 717.004 1517.32 717.318C1517.08 717.632 1516.78 717.893 1516.44 718.084C1516.02 718.312 1515.56 718.428 1515.09 718.422ZM1386.38 636.819C1412.68 636.819 1473.63 653.211 1478.92 657.557C1485.68 663.164 1489.89 672.914 1492.43 689.194C1494.42 701.849 1507.23 709.055 1513.08 711.712L1514.88 703.763L1534.29 622.881C1534.33 622.733 1534.34 622.579 1534.32 622.428C1534.29 622.277 1534.24 622.132 1534.16 622.002C1534.08 621.875 1533.97 621.765 1533.85 621.68C1533.73 621.595 1533.59 621.536 1533.44 621.507L1380.32 588.024C1380.03 587.967 1379.73 588.022 1379.48 588.176C1379.23 588.331 1379.05 588.574 1378.97 588.857L1361.25 652.874C1365.41 647.358 1370.43 642.54 1376.11 638.598C1379.33 637.169 1382.86 636.558 1386.38 636.819Z" fill="#313131"/>
<path d="M1418.49 711.871H1417.88L1394.62 706.647C1394.13 706.54 1393.69 706.307 1393.32 705.971C1392.96 705.634 1392.69 705.207 1392.55 704.733C1392.23 703.765 1391.29 700.792 1402.68 672.713C1402.96 672.02 1403.5 671.467 1404.19 671.176C1404.88 670.885 1405.66 670.879 1406.35 671.159C1407.04 671.44 1407.6 671.984 1407.89 672.673C1408.18 673.361 1408.18 674.137 1407.9 674.83C1404.22 683.608 1401 692.575 1398.27 701.693L1419.12 706.377C1419.79 706.528 1420.39 706.924 1420.8 707.49C1421.2 708.056 1421.38 708.751 1421.3 709.441C1421.22 710.131 1420.89 710.768 1420.37 711.229C1419.85 711.69 1419.18 711.943 1418.49 711.938V711.871Z" fill="#313131"/>
<path d="M1448.86 687.056C1448.23 687.051 1447.62 686.839 1447.13 686.453C1446.63 686.066 1446.27 685.526 1446.12 684.917C1442.4 670.01 1425.85 668.457 1425.04 668.411C1424.3 668.348 1423.61 667.993 1423.13 667.423C1422.64 666.853 1422.41 666.115 1422.47 665.372C1422.5 665.003 1422.6 664.644 1422.76 664.315C1422.93 663.985 1423.16 663.692 1423.44 663.453C1423.72 663.214 1424.05 663.033 1424.4 662.922C1424.75 662.811 1425.12 662.771 1425.49 662.805C1425.71 662.805 1446.88 664.674 1451.59 683.543C1451.68 683.902 1451.7 684.276 1451.64 684.643C1451.59 685.01 1451.46 685.362 1451.27 685.68C1451.08 685.998 1450.83 686.275 1450.53 686.496C1450.24 686.717 1449.9 686.876 1449.54 686.966C1449.32 687.018 1449.09 687.048 1448.86 687.056Z" fill="#313131"/>
<path d="M1379.31 671.97C1378.78 671.97 1378.27 671.824 1377.83 671.549C1377.38 671.275 1377.02 670.882 1376.79 670.414C1376.55 669.946 1376.46 669.423 1376.5 668.902C1376.55 668.382 1376.74 667.885 1377.05 667.466C1386.06 655.577 1403.11 658.144 1403.83 658.257C1404.19 658.314 1404.54 658.443 1404.86 658.636C1405.17 658.829 1405.45 659.083 1405.67 659.382C1405.88 659.681 1406.04 660.02 1406.13 660.379C1406.21 660.739 1406.23 661.112 1406.17 661.477C1406.11 661.842 1405.98 662.192 1405.79 662.508C1405.6 662.823 1405.34 663.097 1405.04 663.315C1404.75 663.532 1404.41 663.688 1404.05 663.775C1403.69 663.861 1403.31 663.876 1402.95 663.819C1402.81 663.819 1388.54 661.702 1381.54 670.889C1381.27 671.227 1380.93 671.501 1380.55 671.688C1380.16 671.875 1379.74 671.972 1379.31 671.97Z" fill="#313131"/>
<path d="M1428.35 692.641C1430.36 692.641 1432 691.008 1432 688.994C1432 686.979 1430.36 685.346 1428.35 685.346C1426.33 685.346 1424.7 686.979 1424.7 688.994C1424.7 691.008 1426.33 692.641 1428.35 692.641Z" fill="#313131"/>
<path d="M1390.36 685.727C1392.38 685.727 1394.01 684.094 1394.01 682.079C1394.01 680.065 1392.38 678.432 1390.36 678.432C1388.35 678.432 1386.71 680.065 1386.71 682.079C1386.71 684.094 1388.35 685.727 1390.36 685.727Z" fill="#313131"/>
<path d="M1523.27 735.838C1530.76 720.036 1528.43 703.251 1518.08 698.348C1507.73 693.444 1493.27 702.278 1485.79 718.079C1478.3 733.881 1480.62 750.666 1490.97 755.57C1501.33 760.473 1515.78 751.639 1523.27 735.838Z" fill="white"/>
<path d="M1497.07 759.653H1495.77C1495.02 759.602 1494.32 759.257 1493.83 758.693C1493.34 758.129 1493.09 757.393 1493.14 756.646C1493.19 755.9 1493.54 755.204 1494.1 754.712C1494.67 754.22 1495.4 753.972 1496.15 754.023C1504.71 754.586 1514.97 746.435 1520.58 734.591C1527.34 720.45 1525.51 705.003 1516.73 700.815C1510.49 697.865 1501.91 701.062 1494.86 709.011C1494.37 709.569 1493.67 709.908 1492.93 709.952C1492.18 709.997 1491.45 709.743 1490.89 709.247C1490.33 708.752 1489.99 708.054 1489.95 707.309C1489.9 706.564 1490.16 705.831 1490.65 705.273C1499.39 695.41 1510.58 691.763 1519.14 695.726C1530.87 701.287 1533.8 719.774 1525.67 736.955C1519.34 750.533 1507.7 759.653 1497.07 759.653Z" fill="#313131"/>
<path d="M1509.39 729.974H1509.14L1503.31 729.456C1502.77 729.408 1502.26 729.205 1501.83 728.872C1501.4 728.539 1501.08 728.091 1500.9 727.58C1500.73 727.069 1500.7 726.518 1500.83 725.992C1500.95 725.466 1501.23 724.988 1501.62 724.615L1513.13 713.604C1513.39 713.325 1513.7 713.103 1514.05 712.95C1514.4 712.797 1514.78 712.716 1515.16 712.714C1515.54 712.712 1515.92 712.787 1516.28 712.935C1516.63 713.084 1516.95 713.303 1517.21 713.578C1517.47 713.854 1517.68 714.18 1517.82 714.538C1517.95 714.895 1518.01 715.276 1517.99 715.658C1517.97 716.04 1517.88 716.414 1517.71 716.757C1517.55 717.101 1517.31 717.407 1517.02 717.657L1509.97 724.412C1510.67 724.537 1511.3 724.922 1511.73 725.491C1512.16 726.06 1512.35 726.769 1512.28 727.477C1512.21 728.185 1511.87 728.838 1511.33 729.306C1510.79 729.773 1510.1 730.02 1509.39 729.997V729.974Z" fill="#313131"/>
<path d="M1349.9 689.691C1349.39 689.691 1348.9 689.552 1348.46 689.29C1348.03 689.028 1347.68 688.653 1347.44 688.204L1342.94 679.873C1342.74 679.548 1342.61 679.186 1342.56 678.809C1342.5 678.432 1342.52 678.048 1342.62 677.68C1342.72 677.312 1342.89 676.968 1343.13 676.669C1343.36 676.369 1343.66 676.12 1343.99 675.937C1344.32 675.754 1344.69 675.641 1345.07 675.604C1345.45 675.567 1345.83 675.608 1346.19 675.723C1346.56 675.838 1346.89 676.026 1347.18 676.275C1347.47 676.524 1347.7 676.829 1347.87 677.171L1352.37 685.525C1352.55 685.848 1352.66 686.204 1352.7 686.571C1352.74 686.937 1352.71 687.308 1352.61 687.662C1352.5 688.016 1352.33 688.346 1352.09 688.632C1351.86 688.918 1351.57 689.156 1351.25 689.33C1350.84 689.57 1350.37 689.694 1349.9 689.691Z" fill="#313131"/>
<path d="M1429.07 743.8C1420.2 743.8 1413.31 736.482 1410.63 731.708C1410.33 731.197 1410.2 730.605 1410.26 730.016C1410.31 729.427 1410.56 728.871 1410.95 728.427C1411.34 727.983 1411.86 727.674 1412.44 727.544C1413.02 727.413 1413.62 727.468 1414.16 727.7C1416.93 728.776 1419.89 729.243 1422.85 729.068C1425.81 728.893 1428.7 728.081 1431.32 726.687C1435.83 724.435 1439.18 721.035 1439.97 717.972C1440.1 717.325 1440.45 716.744 1440.96 716.332C1441.48 715.919 1442.12 715.703 1442.78 715.721C1443.42 715.742 1444.03 715.976 1444.51 716.384C1445 716.792 1445.33 717.352 1445.46 717.972C1445.6 718.738 1448.68 736.684 1435.89 742.156C1433.76 743.174 1431.43 743.734 1429.07 743.8ZM1420.54 734.793C1422.25 736.433 1424.41 737.538 1426.75 737.974C1429.08 738.409 1431.49 738.157 1433.69 737.247C1435.47 736.33 1436.99 734.967 1438.09 733.29C1439.19 731.613 1439.84 729.679 1439.97 727.677C1438.11 729.315 1436.04 730.701 1433.82 731.798C1429.7 733.863 1425.14 734.869 1420.54 734.725V734.793Z" fill="#313131"/>
<path d="M1013.69 1586.72C1012.27 1594.91 1010.47 1599.69 1008.42 1599.73C1006.37 1599.78 1004.5 1595.43 1002.79 1587.84C999.527 1573.61 996.983 1547.87 996.352 1518.47C995.709 1498.18 996.401 1477.87 998.424 1457.67C999.955 1444.68 1002.21 1436.75 1004.84 1436.71C1007.48 1436.66 1010.2 1444.9 1012.32 1458.43C1015.07 1478.16 1016.57 1498.04 1016.82 1517.95C1017.56 1546.82 1016.14 1572.17 1013.69 1586.72Z" fill="#313131"/>
<path d="M1008.35 1602.52C1004.89 1602.52 1001.24 1599.24 997.839 1576.43C992.933 1537.98 992.072 1499.12 995.272 1460.48C997.681 1437.27 1001.26 1434 1004.77 1433.94C1008.29 1433.87 1011.98 1436.95 1015.4 1460.03C1018.01 1479.23 1019.45 1498.57 1019.73 1517.95C1020.3 1537.31 1019.72 1556.69 1017.97 1575.98C1015.56 1599.19 1011.98 1602.46 1008.49 1602.52H1008.35ZM1004.91 1440.4C1001.69 1446.39 998.154 1474.65 999.145 1518.51C1000.14 1562.38 1004.86 1590.43 1008.35 1596.29C1011.55 1590.3 1015.11 1562.02 1014.1 1518.17C1013.13 1474.22 1008.38 1446.14 1004.89 1440.29L1004.91 1440.4Z" fill="#313131"/>
<path d="M1016.91 1517.99C1016.66 1498.08 1015.16 1478.2 1012.41 1458.48L1007.21 1458.21L1002.39 1457.94L998.515 1457.72L994.912 1457.51L990.161 1457.27L984.419 1456.93L979.465 1456.68L967.913 1456.07L956.655 1455.55L945.846 1455.1L941.523 1454.95C938.19 1454.81 934.768 1454.7 931.435 1454.61C927.337 1454.47 923.194 1454.38 919.073 1454.29H916.822C864.694 1453.37 811.868 1456.09 775.975 1470.24C773.881 1471.07 771.697 1471.95 769.49 1472.91C767.283 1473.88 764.987 1474.87 762.622 1475.93L759.087 1477.55L751.904 1481L748.256 1482.82L744.608 1484.69C725.131 1494.8 705.856 1506.83 695.881 1516.62L694.147 1518.42C693.336 1519.32 692.593 1520.18 691.895 1521.01C689.351 1524.41 688.315 1527.41 689.328 1529.79C689.499 1530.2 689.702 1530.59 689.936 1530.96C694.079 1537.36 705.361 1532.45 707.049 1531.71L706.869 1531.82C702.839 1534.27 674.489 1551.97 681.019 1565.84C681.092 1566.04 681.175 1566.22 681.267 1566.41C686.874 1576.86 709.842 1562.65 718.736 1556.61C712.183 1561.52 699.168 1572.96 703.447 1583.36L703.649 1583.79C703.882 1584.22 704.204 1584.6 704.595 1584.89C712.228 1590.97 745.982 1577.89 752.062 1575.48L752.422 1575.35H752.129H751.994C747.491 1577.28 729.477 1585.88 731.728 1595.34C731.848 1595.87 732.029 1596.39 732.269 1596.87C732.399 1597.14 732.566 1597.39 732.764 1597.62C738.844 1604.6 775.975 1593.79 820.875 1588.02C824.478 1587.57 828.125 1587.12 831.796 1586.76C848.751 1584.98 877.506 1594.4 918.33 1593.52C925.01 1593.38 931.615 1593.15 938.145 1592.82L940.397 1592.71L944.09 1592.5C950.215 1592.14 956.219 1591.74 962.104 1591.29C967.268 1590.88 972.342 1590.45 977.326 1589.98L982.37 1589.53L992.345 1588.56L997.817 1588.02L1002.64 1587.53C1006.35 1587.17 1009.98 1586.79 1013.53 1586.4C1016.15 1572.17 1017.56 1546.82 1016.91 1517.99Z" fill="white"/>
<path d="M741.186 1602.77C735.939 1602.77 732.606 1601.85 730.692 1599.78C730.302 1599.33 729.976 1598.83 729.724 1598.29C729.383 1597.62 729.133 1596.91 728.981 1596.17C728.649 1594.29 728.771 1592.35 729.339 1590.52C729.907 1588.69 730.904 1587.02 732.246 1585.66C720.447 1589.19 707.972 1591.4 702.771 1587.26L702.433 1586.99C701.882 1586.49 701.404 1585.93 701.014 1585.3C700.986 1585.23 700.948 1585.16 700.902 1585.1L700.699 1584.67C699.683 1582.32 699.233 1579.77 699.386 1577.22C699.538 1574.67 700.289 1572.19 701.577 1569.99C694.687 1573.05 689.148 1574.04 685.027 1572.94C683.633 1572.59 682.33 1571.95 681.21 1571.05C680.09 1570.15 679.179 1569.02 678.542 1567.73C678.385 1567.44 678.272 1567.19 678.159 1566.95C673.656 1556.48 684.915 1544.61 694.62 1536.95C693.153 1536.79 691.742 1536.31 690.491 1535.53C689.239 1534.75 688.18 1533.7 687.391 1532.45C687.069 1531.95 686.79 1531.42 686.558 1530.87C685.207 1527.63 686.198 1523.76 689.486 1519.32C690.176 1518.39 690.929 1517.51 691.737 1516.69C691.823 1516.57 691.921 1516.47 692.03 1516.37L693.696 1514.64C702.996 1505.43 720.987 1493.63 743.1 1482.19H743.325L746.77 1480.41L750.373 1478.63C752.917 1477.37 755.327 1476.2 757.713 1475.1L761.294 1473.45C763.658 1472.37 765.955 1471.36 768.206 1470.41C770.458 1469.47 772.71 1468.55 774.759 1467.71C805.653 1455.55 850.755 1450.42 916.619 1451.57C917.317 1451.57 918.15 1451.57 918.87 1451.57C922.991 1451.57 927.134 1451.75 931.255 1451.88C934.633 1451.88 938.01 1452.08 941.365 1452.22L945.711 1452.38L956.565 1452.83C960.348 1452.99 964.13 1453.17 967.823 1453.37L980.05 1454C981.491 1454 982.887 1454.16 984.329 1454.2L1012.34 1455.76C1012.98 1455.79 1013.59 1456.05 1014.07 1456.48C1014.55 1456.91 1014.87 1457.49 1014.97 1458.12C1017.75 1477.98 1019.25 1497.99 1019.48 1518.04C1020.11 1546.03 1018.87 1571.92 1016.21 1587.3C1016.09 1587.89 1015.78 1588.43 1015.33 1588.84C1014.88 1589.24 1014.32 1589.49 1013.71 1589.55L992.525 1591.81L986.288 1592.41L977.461 1593.22C972.507 1593.67 967.418 1594.12 962.239 1594.51C955.619 1595.03 949.674 1595.43 944.067 1595.75L940.329 1595.95H939.609C939.069 1595.95 938.528 1595.95 937.965 1595.95C931.525 1596.29 924.838 1596.51 918.127 1596.67C898.857 1596.81 879.609 1595.31 860.595 1592.17C848.526 1590.45 839.001 1589.08 831.841 1589.91C828.17 1590.3 824.567 1590.72 820.987 1591.17C805.585 1593.13 791.152 1595.68 778.407 1597.93C760.866 1600.86 748.932 1602.77 741.186 1602.77ZM753.232 1578H753.075C742.942 1582.62 733.259 1589.6 734.475 1594.78C734.539 1595.1 734.645 1595.41 734.791 1595.7C737.695 1598.92 758.029 1595.41 777.686 1592.01C790.499 1589.76 805 1587.28 820.469 1585.25C824.072 1584.8 827.742 1584.35 831.458 1583.97C839.294 1583.16 849.134 1584.58 861.586 1586.36C880.293 1589.46 899.232 1590.97 918.195 1590.86C924.95 1590.72 931.48 1590.48 937.943 1590.16H939.474H940.262L943.91 1589.96C949.494 1589.64 955.416 1589.24 961.924 1588.74C967.058 1588.34 972.117 1587.91 977.1 1587.46L985.86 1586.65L992.075 1586.04L1011.12 1584.1C1013.49 1568.86 1014.55 1544.43 1013.98 1518.02C1013.71 1499.03 1012.34 1480.08 1009.89 1461.25L984.171 1459.83L979.893 1459.61L967.688 1458.98L956.429 1458.46L945.824 1458.01L941.32 1457.83L931.21 1457.51C927.089 1457.38 922.991 1457.26 918.87 1457.2H916.619C851.318 1456.05 806.981 1461.07 776.808 1472.96C774.736 1473.77 772.575 1474.65 770.391 1475.59C768.206 1476.54 765.887 1477.53 763.635 1478.59L760.1 1480.21C757.848 1481.29 755.394 1482.46 753.007 1483.61L749.359 1485.41L745.757 1487.28H745.554C724.32 1498.29 706.441 1510 697.704 1518.62L696.173 1520.2C696.133 1520.27 696.08 1520.33 696.016 1520.38C695.316 1521.1 694.655 1521.85 694.034 1522.63C692.075 1525.27 691.287 1527.38 691.782 1528.62C691.883 1528.88 692.011 1529.13 692.165 1529.36C694.417 1533.08 702.028 1530.81 705.676 1529.09H705.923C706.612 1528.84 707.372 1528.86 708.047 1529.15C708.722 1529.44 709.259 1529.97 709.549 1530.65C709.76 1531.17 709.811 1531.74 709.695 1532.29C709.578 1532.84 709.3 1533.34 708.896 1533.73C708.745 1533.88 708.579 1534.01 708.4 1534.12L708.062 1534.34C697.682 1540.83 679.24 1555.46 683.293 1564.78C683.347 1564.93 683.415 1565.06 683.496 1565.19C683.779 1565.76 684.184 1566.25 684.683 1566.64C685.181 1567.03 685.761 1567.3 686.378 1567.44C691.264 1568.73 700.902 1564.96 712.859 1557.11C713.458 1556.77 714.161 1556.66 714.834 1556.8C715.507 1556.95 716.103 1557.34 716.511 1557.89C716.918 1558.44 717.109 1559.13 717.046 1559.81C716.983 1560.5 716.671 1561.14 716.169 1561.61C710.787 1565.98 702.298 1574.44 705.721 1582.17V1582.35C705.791 1582.46 705.874 1582.55 705.968 1582.64H706.081C710.089 1586 728.846 1581.85 750.665 1572.78L751.071 1572.64C751.448 1572.55 751.842 1572.53 752.226 1572.59C752.611 1572.66 752.978 1572.8 753.306 1573.01C753.633 1573.22 753.914 1573.5 754.13 1573.82C754.346 1574.15 754.492 1574.51 754.561 1574.89C754.727 1575.5 754.687 1576.14 754.446 1576.72C754.206 1577.3 753.778 1577.78 753.232 1578.09V1578Z" fill="#313131"/>
<path d="M752.85 1578C752.206 1578 751.583 1577.78 751.083 1577.37C750.583 1576.97 750.237 1576.4 750.103 1575.77C749.969 1575.14 750.054 1574.49 750.345 1573.91C750.636 1573.34 751.114 1572.88 751.701 1572.62C781.402 1559.11 821.505 1548.48 839.677 1544.9C840.411 1544.76 841.173 1544.91 841.793 1545.33C842.414 1545.75 842.843 1546.39 842.987 1547.13C843.13 1547.86 842.976 1548.62 842.558 1549.25C842.14 1549.87 841.492 1550.3 840.757 1550.44C822.744 1553.95 783.293 1564.49 754.02 1577.75C753.65 1577.91 753.252 1578 752.85 1578Z" fill="#313131"/>
<path d="M714.412 1562.33C713.97 1562.33 713.535 1562.22 713.144 1562.02C712.752 1561.81 712.415 1561.52 712.16 1561.16C711.942 1560.86 711.785 1560.52 711.698 1560.16C711.612 1559.8 711.597 1559.42 711.656 1559.06C711.715 1558.69 711.845 1558.34 712.04 1558.03C712.234 1557.71 712.489 1557.44 712.79 1557.22C738.775 1538.64 802.86 1513.42 826.661 1508.74C827.031 1508.65 827.417 1508.63 827.794 1508.69C828.171 1508.75 828.532 1508.89 828.855 1509.09C829.177 1509.3 829.454 1509.57 829.67 1509.88C829.885 1510.2 830.034 1510.55 830.108 1510.93C830.181 1511.3 830.178 1511.69 830.097 1512.06C830.017 1512.44 829.861 1512.79 829.64 1513.1C829.418 1513.41 829.136 1513.67 828.809 1513.87C828.483 1514.07 828.12 1514.2 827.742 1514.26C804.864 1518.76 741.05 1543.93 716.078 1561.81C715.589 1562.15 715.007 1562.33 714.412 1562.33Z" fill="#313131"/>
<path d="M707.14 1534.38C706.71 1534.4 706.283 1534.31 705.893 1534.13C705.502 1533.95 705.158 1533.68 704.888 1533.35C704.655 1533.06 704.482 1532.73 704.377 1532.37C704.273 1532.02 704.24 1531.65 704.279 1531.28C704.319 1530.91 704.431 1530.55 704.609 1530.23C704.787 1529.9 705.027 1529.62 705.316 1529.39C724.478 1513.87 778.317 1488.58 813.827 1481.18C814.199 1481.07 814.59 1481.04 814.975 1481.09C815.359 1481.14 815.729 1481.27 816.061 1481.47C816.394 1481.67 816.681 1481.93 816.906 1482.25C817.13 1482.56 817.287 1482.92 817.366 1483.3C817.446 1483.68 817.446 1484.07 817.367 1484.45C817.287 1484.83 817.131 1485.19 816.906 1485.51C816.682 1485.82 816.394 1486.09 816.062 1486.29C815.73 1486.49 815.36 1486.62 814.976 1486.67C780.794 1493.81 727.158 1518.96 708.851 1533.78C708.362 1534.16 707.761 1534.37 707.14 1534.38Z" fill="#313131"/>
<path d="M956.023 1029.28C898.041 1106.08 729.296 1109.98 729.296 1109.98C729.296 1109.98 689.643 853.865 671.246 830.762C652.849 807.659 569.918 831.685 568.026 800.138C566.135 768.591 654.651 774.558 652.804 757.963C650.958 741.368 478.182 733.937 487.616 709.911C497.051 685.885 574.804 687.191 574.804 687.191C571.494 658.098 615.898 655.509 615.898 655.509C615.898 639.589 658.298 638.238 658.298 638.238C659.222 629.952 742.153 609.506 837.965 726.484C896.668 798.089 926.526 883.092 941.545 944.767C943.954 954.653 946.048 963.93 947.647 972.441C951.537 991.208 954.334 1010.18 956.023 1029.28Z" fill="#21A2FF"/>
<path d="M729.297 1112.86C728.624 1112.86 727.973 1112.62 727.462 1112.18C726.951 1111.74 726.611 1111.14 726.504 1110.47C712.836 1022.16 683.248 850.353 669.04 832.609C661.407 823.061 639.97 822.386 619.232 821.71C593.246 820.9 566.361 820.044 565.19 800.386C563.974 779.67 595.025 773.613 619.952 768.727C632.832 766.205 650.486 762.76 649.99 758.346C648.076 752.897 608.603 746.525 579.781 741.886C526.955 733.352 491.963 726.935 485.501 715.766C484.885 714.741 484.516 713.587 484.422 712.396C484.328 711.204 484.513 710.007 484.96 708.898C493.967 685.728 555.732 684.309 571.832 684.332C571.721 678.454 573.773 672.741 577.597 668.277C587.347 656.68 606.667 653.641 613.4 652.897C616.777 638.464 648.166 635.919 656.588 635.491C658.92 633.259 661.816 631.702 664.964 630.988C668.207 630.042 745.261 608.898 840.172 724.75C899.843 797.572 929.701 884.264 944.27 944.16C946.522 953.46 948.571 962.804 950.395 971.969C954.277 990.86 957.089 1009.96 958.817 1029.16C958.859 1029.84 958.66 1030.51 958.254 1031.05C900.114 1108.06 736.277 1112.77 729.342 1112.93L729.297 1112.86ZM571.675 689.961C548.572 689.961 497.142 693.586 490.319 710.947C490.188 711.276 490.136 711.63 490.167 711.982C490.199 712.334 490.312 712.674 490.499 712.974C496.016 722.634 543.01 730.222 580.772 736.324C633.26 744.791 654.741 749.092 655.687 757.716C656.768 767.286 641.051 770.371 621.145 774.244C598.358 778.747 570.008 784.264 570.932 800.049C571.765 814.572 594.958 815.315 619.502 816.104C641.524 816.802 664.289 817.522 673.543 829.074C691.557 851.456 727.428 1079.15 731.796 1107.14C752.692 1106.24 899.979 1097.48 953.255 1028.33C951.505 1009.72 948.754 991.225 945.013 972.915C943.212 963.908 941.163 954.541 938.934 945.331C924.522 885.998 894.957 800.161 835.962 728.173C761.969 637.856 697.885 633.442 679.983 634.23C667.982 634.771 662.172 637.676 661.181 638.734C661.053 639.348 660.725 639.901 660.248 640.309C659.771 640.716 659.173 640.954 658.547 640.986C648.256 641.323 618.871 644.679 618.871 655.442C618.872 656.156 618.6 656.843 618.11 657.363C617.62 657.882 616.95 658.194 616.237 658.234C615.989 658.234 592.143 659.81 582.033 671.744C580.296 673.788 579.015 676.179 578.277 678.758C577.54 681.336 577.361 684.043 577.754 686.696C577.809 687.1 577.775 687.51 577.655 687.899C577.534 688.288 577.33 688.646 577.056 688.948C576.785 689.244 576.455 689.48 576.086 689.639C575.717 689.798 575.319 689.877 574.917 689.871L571.675 689.961Z" fill="#313131"/>
<path d="M625.265 691.56H625.108C624.77 691.56 590.701 689.759 574.894 689.984C574.524 689.996 574.155 689.933 573.81 689.799C573.464 689.665 573.15 689.463 572.885 689.204C572.62 688.945 572.41 688.635 572.268 688.294C572.125 687.952 572.054 687.584 572.057 687.214C572.057 686.479 572.344 685.773 572.857 685.247C573.37 684.721 574.069 684.417 574.804 684.399C590.791 684.174 625.04 685.976 625.378 685.998C626.078 686.076 626.724 686.413 627.188 686.943C627.651 687.474 627.899 688.159 627.882 688.863C627.865 689.568 627.585 690.24 627.096 690.748C626.607 691.255 625.946 691.561 625.243 691.605L625.265 691.56Z" fill="#313131"/>
<path d="M661.564 663.908H660.956C660.64 663.908 629.431 657.153 616.213 658.369C615.847 658.406 615.476 658.37 615.123 658.263C614.77 658.157 614.441 657.981 614.156 657.746C613.872 657.512 613.636 657.223 613.464 656.897C613.291 656.571 613.185 656.214 613.151 655.847C613.114 655.479 613.149 655.107 613.256 654.752C613.363 654.398 613.538 654.068 613.772 653.781C614.006 653.495 614.295 653.257 614.621 653.082C614.947 652.907 615.305 652.799 615.673 652.762C629.746 651.366 660.843 658.121 662.171 658.391C662.833 658.561 663.412 658.963 663.8 659.524C664.189 660.085 664.363 660.768 664.289 661.447C664.215 662.126 663.899 662.756 663.398 663.22C662.897 663.685 662.246 663.953 661.564 663.976V663.908Z" fill="#313131"/>
<path d="M696.871 648.37C696.604 648.38 696.337 648.342 696.083 648.258C695.835 648.258 671.539 641.12 658.411 641.12C657.665 641.12 656.949 640.823 656.421 640.295C655.893 639.767 655.597 639.051 655.597 638.305C655.594 637.936 655.664 637.571 655.803 637.229C655.942 636.888 656.147 636.578 656.407 636.316C656.666 636.054 656.975 635.847 657.315 635.705C657.655 635.563 658.02 635.49 658.389 635.49C672.327 635.49 696.668 642.561 697.637 642.853C698.352 643.072 698.952 643.563 699.31 644.219C699.668 644.876 699.754 645.647 699.551 646.366C699.377 646.943 699.023 647.449 698.541 647.81C698.059 648.17 697.473 648.367 696.871 648.37Z" fill="#313131"/>
<path d="M725.243 897.684C724.601 897.673 723.982 897.444 723.487 897.035C722.993 896.626 722.651 896.061 722.519 895.432L717.903 876.135C717.76 875.421 717.9 874.679 718.293 874.066C718.686 873.453 719.301 873.016 720.009 872.846C720.718 872.677 721.464 872.789 722.092 873.159C722.719 873.529 723.179 874.127 723.374 874.829L727.878 894.104C727.965 894.465 727.98 894.839 727.921 895.206C727.863 895.572 727.733 895.924 727.538 896.24C727.344 896.556 727.088 896.83 726.787 897.047C726.486 897.264 726.145 897.419 725.784 897.504C725.61 897.581 725.429 897.641 725.243 897.684Z" fill="#313131"/>
<path d="M736.659 945.466C736.018 945.455 735.399 945.226 734.904 944.816C734.409 944.407 734.067 943.843 733.935 943.214L729.319 923.94C729.146 923.211 729.269 922.443 729.662 921.806C730.054 921.168 730.684 920.713 731.413 920.539C732.141 920.366 732.909 920.49 733.547 920.882C734.184 921.275 734.64 921.905 734.813 922.634L739.316 941.908C739.404 942.266 739.419 942.638 739.362 943.002C739.305 943.365 739.176 943.714 738.984 944.028C738.791 944.342 738.538 944.615 738.24 944.831C737.941 945.047 737.603 945.201 737.245 945.286C737.059 945.372 736.862 945.433 736.659 945.466Z" fill="#313131"/>
<path d="M748.188 993.248C747.541 993.245 746.915 993.02 746.415 992.61C745.914 992.2 745.571 991.63 745.441 990.996L740.938 971.721C740.795 971.007 740.935 970.265 741.328 969.652C741.721 969.039 742.336 968.601 743.045 968.432C743.753 968.263 744.499 968.375 745.127 968.745C745.754 969.115 746.214 969.713 746.409 970.415L750.913 989.69C751 990.049 751.016 990.422 750.959 990.787C750.902 991.153 750.774 991.503 750.582 991.819C750.389 992.135 750.137 992.41 749.838 992.628C749.539 992.846 749.201 993.003 748.841 993.09L748.188 993.248Z" fill="#313131"/>
<path d="M759.447 1041.05C758.801 1041.04 758.177 1040.82 757.677 1040.41C757.178 1040 756.833 1039.43 756.699 1038.8L752.196 1019.52C752.094 1019.16 752.067 1018.78 752.117 1018.4C752.166 1018.03 752.29 1017.67 752.482 1017.34C752.675 1017.01 752.93 1016.73 753.235 1016.51C753.539 1016.28 753.886 1016.12 754.254 1016.03C754.622 1015.94 755.004 1015.93 755.377 1015.99C755.75 1016.06 756.107 1016.2 756.426 1016.4C756.744 1016.6 757.019 1016.87 757.232 1017.18C757.445 1017.5 757.594 1017.85 757.668 1018.22L762.284 1037.49C762.453 1038.22 762.327 1038.98 761.935 1039.62C761.542 1040.25 760.915 1040.7 760.19 1040.87C759.954 1040.97 759.703 1041.03 759.447 1041.05Z" fill="#313131"/>
<path d="M770.931 1088.83C770.285 1088.83 769.66 1088.61 769.162 1088.2C768.665 1087.79 768.327 1087.22 768.206 1086.58L763.59 1067.31C763.488 1066.94 763.461 1066.56 763.511 1066.18C763.56 1065.81 763.684 1065.45 763.876 1065.12C764.069 1064.8 764.324 1064.51 764.629 1064.29C764.933 1064.06 765.28 1063.9 765.648 1063.81C766.016 1063.73 766.398 1063.71 766.771 1063.78C767.145 1063.84 767.501 1063.98 767.82 1064.18C768.138 1064.39 768.413 1064.65 768.626 1064.96C768.84 1065.28 768.988 1065.63 769.062 1066L773.678 1085.28C773.847 1086 773.722 1086.77 773.33 1087.41C772.938 1088.04 772.31 1088.5 771.584 1088.68C771.372 1088.75 771.153 1088.8 770.931 1088.83Z" fill="#313131"/>
<path d="M895.43 998.562C891.916 998.562 888.481 997.52 885.559 995.568C882.638 993.615 880.361 990.841 879.016 987.594C877.671 984.348 877.319 980.776 878.005 977.33C878.69 973.883 880.382 970.718 882.867 968.233C885.352 965.748 888.517 964.056 891.964 963.371C895.41 962.685 898.982 963.037 902.229 964.382C905.475 965.726 908.25 968.004 910.202 970.925C912.154 973.847 913.196 977.282 913.196 980.796C913.196 985.507 911.324 990.026 907.992 993.358C904.661 996.69 900.142 998.562 895.43 998.562ZM895.43 968.681C893.028 968.681 890.681 969.394 888.685 970.728C886.688 972.063 885.133 973.96 884.215 976.179C883.297 978.398 883.058 980.839 883.528 983.194C883.998 985.549 885.156 987.712 886.856 989.408C888.555 991.105 890.72 992.259 893.076 992.724C895.432 993.19 897.873 992.947 900.09 992.025C902.307 991.103 904.201 989.543 905.532 987.545C906.863 985.546 907.571 983.197 907.567 980.796C907.567 979.203 907.253 977.626 906.642 976.154C906.032 974.683 905.138 973.347 904.011 972.221C902.883 971.096 901.545 970.204 900.073 969.597C898.6 968.989 897.023 968.678 895.43 968.681Z" fill="#313131"/>
<path d="M839.676 1021.78C836.162 1021.78 832.725 1020.74 829.8 1018.8C826.875 1016.85 824.595 1014.07 823.247 1010.83C821.898 1007.58 821.543 1004.01 822.226 1000.56C822.909 997.112 824.6 993.945 827.083 991.458C829.567 988.971 832.733 987.276 836.18 986.589C839.627 985.902 843.2 986.252 846.448 987.596C849.695 988.94 852.471 991.217 854.424 994.14C856.378 997.062 857.42 1000.5 857.42 1004.01C857.414 1008.72 855.544 1013.23 852.218 1016.56C848.892 1019.89 844.383 1021.77 839.676 1021.78ZM839.676 991.898C837.274 991.894 834.924 992.602 832.925 993.934C830.926 995.266 829.367 997.161 828.445 999.38C827.524 1001.6 827.282 1004.04 827.749 1006.4C828.217 1008.75 829.373 1010.92 831.072 1012.62C832.771 1014.32 834.935 1015.47 837.292 1015.94C839.648 1016.41 842.09 1016.16 844.309 1015.24C846.528 1014.32 848.423 1012.76 849.755 1010.76C851.087 1008.76 851.795 1006.41 851.791 1004.01C851.785 1000.8 850.507 997.723 848.236 995.453C845.965 993.182 842.888 991.904 839.676 991.898Z" fill="#313131"/>
<path d="M947.647 975.257H947.354C943.644 974.874 940.149 973.331 937.366 970.848C934.582 968.366 932.652 965.069 931.849 961.426C931.047 957.784 931.412 953.981 932.894 950.558C934.376 947.136 936.898 944.267 940.104 942.359C940.477 942.126 940.903 941.987 941.342 941.956C941.782 941.925 942.222 942.001 942.625 942.179C943.033 942.347 943.395 942.607 943.685 942.94C943.974 943.272 944.182 943.667 944.292 944.093C946.543 953.393 948.593 962.738 950.416 971.902C950.496 972.31 950.485 972.731 950.382 973.135C950.28 973.538 950.09 973.914 949.825 974.234C949.56 974.555 949.227 974.813 948.851 974.99C948.474 975.167 948.063 975.258 947.647 975.257ZM939.878 949.858C938.702 951.279 937.865 952.95 937.432 954.744C936.998 956.537 936.98 958.406 937.377 960.208C937.774 962.01 938.577 963.698 939.725 965.143C940.872 966.588 942.334 967.752 943.999 968.547C942.716 962.355 941.342 956.095 939.878 949.858Z" fill="#313131"/>
<path d="M873.52 931.212C870.553 931.207 867.668 930.235 865.304 928.443C862.939 926.651 861.222 924.137 860.415 921.282C821.91 785.772 754.695 732.136 754.02 731.528C751.311 729.264 749.586 726.039 749.205 722.53C748.824 719.021 749.817 715.501 751.977 712.709C754.137 709.917 757.294 708.071 760.786 707.557C764.278 707.044 767.834 707.904 770.705 709.956C773.723 712.208 845.463 768.907 886.647 913.851C887.626 917.327 887.187 921.049 885.427 924.201C883.668 927.354 880.73 929.681 877.258 930.672C876.043 931.026 874.785 931.208 873.52 931.212Z" fill="#FFA620"/>
<path d="M873.52 934.027C869.954 934.001 866.493 932.823 863.652 930.668C860.811 928.513 858.744 925.497 857.758 922.071C819.658 787.957 752.984 734.276 752.331 733.735C748.882 731.066 746.635 727.135 746.084 722.809C745.533 718.483 746.723 714.115 749.392 710.666C752.062 707.217 755.992 704.97 760.318 704.419C764.645 703.868 769.013 705.058 772.462 707.727C775.524 710.092 847.962 767.263 889.394 913.064C890.564 917.244 890.038 921.716 887.93 925.51C885.822 929.305 882.303 932.114 878.136 933.329C876.637 933.775 875.083 934.01 873.52 934.027ZM762.396 709.957C760.143 709.955 757.945 710.657 756.11 711.965C754.276 713.274 752.896 715.123 752.164 717.254C751.432 719.386 751.384 721.693 752.028 723.852C752.672 726.012 753.974 727.916 755.754 729.299C756.429 729.84 824.387 784.152 863.117 920.517C863.768 922.777 865.133 924.766 867.008 926.187C868.883 927.607 871.167 928.383 873.52 928.398C874.525 928.389 875.525 928.245 876.492 927.97C879.248 927.184 881.581 925.337 882.978 922.834C884.375 920.331 884.723 917.376 883.945 914.617C843.009 770.506 771.989 714.505 768.971 712.186C767.089 710.732 764.775 709.948 762.396 709.957Z" fill="#313131"/>
<path d="M993.627 1354.13C993.169 1354.13 992.717 1354.02 992.312 1353.8C991.907 1353.59 991.561 1353.28 991.303 1352.9C991.046 1352.52 990.885 1352.08 990.835 1351.63C990.785 1351.17 990.847 1350.71 991.015 1350.28L1092.91 1094.35C1093.04 1094 1093.24 1093.68 1093.5 1093.41C1093.75 1093.13 1094.06 1092.92 1094.41 1092.77C1094.75 1092.61 1095.12 1092.53 1095.49 1092.53C1095.87 1092.52 1096.24 1092.59 1096.59 1092.73C1096.94 1092.87 1097.25 1093.08 1097.52 1093.34C1097.78 1093.6 1098 1093.92 1098.14 1094.26C1098.28 1094.61 1098.36 1094.98 1098.36 1095.35C1098.35 1095.73 1098.28 1096.1 1098.13 1096.44L996.172 1352.38C995.965 1352.89 995.614 1353.32 995.162 1353.64C994.71 1353.95 994.177 1354.12 993.627 1354.13Z" fill="#313131"/>
<path d="M1007.9 1602.95C1007.38 1602.95 1006.87 1602.81 1006.42 1602.53C1005.98 1602.26 1005.62 1601.86 1005.39 1601.4C1005.15 1600.93 1005.05 1600.4 1005.1 1599.88C1005.15 1599.36 1005.34 1598.87 1005.65 1598.45C1005.9 1598.11 1018.4 1580.16 1014.25 1511.69C1010.63 1452.04 1001.78 1438.3 1001.69 1438.17C1001.42 1437.78 1001.25 1437.33 1001.2 1436.87C1001.15 1436.4 1001.22 1435.92 1001.4 1435.49C1001.58 1435.06 1001.86 1434.67 1002.23 1434.38C1002.59 1434.08 1003.03 1433.88 1003.49 1433.8L1458.61 1351.9C1458.98 1351.83 1459.36 1351.83 1459.73 1351.9C1460.1 1351.97 1460.45 1352.12 1460.76 1352.33C1461.07 1352.54 1461.34 1352.81 1461.54 1353.13C1461.75 1353.44 1461.89 1353.79 1461.95 1354.16C1462.02 1354.54 1462.01 1354.91 1461.93 1355.28C1461.85 1355.65 1461.69 1356 1461.47 1356.3C1461.25 1356.61 1460.97 1356.87 1460.65 1357.06C1460.33 1357.26 1459.97 1357.39 1459.6 1357.44L1008.2 1438.73C1011.24 1446 1017.2 1465.5 1019.88 1511.42C1024.23 1583.14 1010.7 1601.24 1010.11 1601.96C1009.84 1602.28 1009.5 1602.54 1009.12 1602.71C1008.74 1602.88 1008.32 1602.97 1007.9 1602.95Z" fill="#313131"/>
<path d="M1432.02 1360.75H1431.41C1430.68 1360.59 1430.05 1360.15 1429.65 1359.52C1429.25 1358.89 1429.11 1358.13 1429.27 1357.4L1466.36 1191.24C1466.52 1190.52 1466.97 1189.88 1467.6 1189.48C1468.23 1189.08 1469 1188.95 1469.72 1189.12C1470.45 1189.28 1471.09 1189.73 1471.49 1190.36C1471.89 1190.99 1472.02 1191.75 1471.85 1192.48L1434.77 1358.62C1434.61 1359.23 1434.26 1359.77 1433.76 1360.16C1433.26 1360.54 1432.65 1360.75 1432.02 1360.75Z" fill="#313131"/>
<path d="M1464.26 894.848L1474.87 927.385L1370.5 1028.6L1327.81 955.014L1464.26 894.848Z" fill="white"/>
<path d="M1327.81 955.013L1320.74 885.052L1324.81 870.73L1296.19 878.521L1245.75 982.529L1327.81 955.013Z" fill="white"/>
<path d="M1370.5 1031.42H1370.12C1369.7 1031.35 1369.29 1031.19 1368.94 1030.95C1368.58 1030.71 1368.29 1030.39 1368.07 1030.02L1325.29 956.455C1325.08 956.111 1324.96 955.729 1324.92 955.332C1324.87 954.936 1324.91 954.536 1325.04 954.157C1325.16 953.778 1325.36 953.429 1325.63 953.135C1325.9 952.84 1326.23 952.605 1326.59 952.447L1463.05 892.303C1463.41 892.141 1463.8 892.058 1464.19 892.059C1464.59 892.059 1464.98 892.143 1465.34 892.304C1465.69 892.466 1466.02 892.702 1466.28 892.997C1466.54 893.291 1466.74 893.638 1466.85 894.014L1477.46 926.552C1477.63 927.051 1477.65 927.588 1477.52 928.099C1477.39 928.61 1477.12 929.073 1476.74 929.434L1372.37 1030.63C1371.87 1031.12 1371.2 1031.4 1370.5 1031.42ZM1331.82 956.32L1371.13 1024.07L1471.65 926.597L1462.64 898.698L1331.82 956.32Z" fill="#313131"/>
<path d="M1245.82 985.344C1245.35 985.343 1244.88 985.221 1244.46 984.989C1244.04 984.756 1243.69 984.422 1243.44 984.017C1243.19 983.611 1243.04 983.148 1243.02 982.672C1242.99 982.195 1243.09 981.72 1243.3 981.291L1293.74 877.306C1293.9 876.96 1294.12 876.648 1294.4 876.389C1294.68 876.13 1295 875.929 1295.36 875.797L1323.98 868.028C1324.46 867.897 1324.97 867.897 1325.45 868.027C1325.93 868.156 1326.37 868.412 1326.72 868.767C1327.07 869.122 1327.32 869.564 1327.45 870.048C1327.57 870.531 1327.56 871.039 1327.43 871.519L1323.51 885.322L1330.51 954.72C1330.58 955.354 1330.43 955.992 1330.09 956.529C1329.74 957.066 1329.22 957.468 1328.62 957.67L1246.57 985.186C1246.33 985.276 1246.08 985.329 1245.82 985.344ZM1298.24 880.908L1251.27 977.733L1324.86 952.964L1318.1 885.254C1318.02 884.906 1318.02 884.544 1318.1 884.196L1320.81 874.671L1298.24 880.908Z" fill="#313131"/>
<path d="M976.898 1205.36C976.322 1205.36 975.759 1205.19 975.288 1204.85C974.816 1204.52 974.458 1204.06 974.263 1203.51L944.99 1123.31C944.734 1122.61 944.766 1121.83 945.081 1121.15C945.395 1120.47 945.966 1119.95 946.668 1119.69C947.37 1119.44 948.145 1119.47 948.822 1119.78C949.5 1120.1 950.025 1120.67 950.282 1121.37L979.555 1201.6C979.712 1202.03 979.763 1202.48 979.704 1202.93C979.645 1203.38 979.478 1203.81 979.216 1204.18C978.955 1204.55 978.607 1204.85 978.203 1205.06C977.799 1205.26 977.351 1205.37 976.898 1205.36Z" fill="#313131"/>
<path d="M1156.81 1411.87C1156.45 1411.88 1156.09 1411.82 1155.75 1411.71C1155.06 1411.44 1154.5 1410.91 1154.19 1410.23C1153.88 1409.56 1153.85 1408.78 1154.11 1408.09L1325.11 954.045C1325.24 953.699 1325.43 953.382 1325.69 953.112C1325.94 952.842 1326.24 952.625 1326.58 952.472C1326.92 952.319 1327.28 952.234 1327.65 952.222C1328.02 952.21 1328.39 952.271 1328.73 952.401C1329.08 952.531 1329.4 952.728 1329.67 952.981C1329.93 953.233 1330.15 953.536 1330.3 953.873C1330.46 954.21 1330.54 954.573 1330.55 954.943C1330.57 955.312 1330.51 955.68 1330.38 956.026L1159.45 1410.04C1159.24 1410.58 1158.88 1411.04 1158.41 1411.37C1157.94 1411.69 1157.38 1411.87 1156.81 1411.87Z" fill="#313131"/>
<path d="M1331.14 1015.11C1328.95 1015.11 1326.8 1014.46 1324.97 1013.24C1323.15 1012.02 1321.73 1010.29 1320.89 1008.26C1320.05 1006.23 1319.83 1004 1320.25 1001.85C1320.68 999.692 1321.74 997.714 1323.29 996.162C1324.84 994.609 1326.82 993.552 1328.98 993.123C1331.13 992.695 1333.36 992.915 1335.39 993.755C1337.42 994.595 1339.15 996.018 1340.37 997.844C1341.59 999.669 1342.24 1001.82 1342.24 1004.01C1342.24 1006.96 1341.07 1009.78 1338.99 1011.86C1336.91 1013.94 1334.09 1015.11 1331.14 1015.11ZM1331.14 998.562C1330.06 998.562 1329 998.884 1328.1 999.486C1327.2 1000.09 1326.5 1000.94 1326.08 1001.95C1325.67 1002.95 1325.56 1004.05 1325.78 1005.11C1325.99 1006.17 1326.51 1007.15 1327.28 1007.91C1328.05 1008.68 1329.03 1009.19 1330.09 1009.4C1331.15 1009.61 1332.25 1009.5 1333.25 1009.08C1334.25 1008.66 1335.1 1007.96 1335.7 1007.06C1336.3 1006.15 1336.62 1005.09 1336.61 1004.01C1336.61 1002.56 1336.03 1001.18 1335 1000.16C1333.98 999.135 1332.59 998.562 1331.14 998.562Z" fill="#313131"/>
<path d="M1275.66 1161.21C1273.46 1161.21 1271.31 1160.56 1269.48 1159.34C1267.65 1158.13 1266.23 1156.39 1265.38 1154.36C1264.54 1152.33 1264.32 1150.1 1264.75 1147.94C1265.17 1145.79 1266.23 1143.81 1267.79 1142.26C1269.34 1140.7 1271.32 1139.64 1273.48 1139.22C1275.63 1138.79 1277.87 1139.01 1279.89 1139.85C1281.92 1140.7 1283.66 1142.12 1284.88 1143.95C1286.09 1145.78 1286.74 1147.93 1286.74 1150.13C1286.73 1153.06 1285.56 1155.88 1283.49 1157.95C1281.41 1160.03 1278.6 1161.2 1275.66 1161.21ZM1275.66 1144.66C1274.58 1144.65 1273.52 1144.97 1272.61 1145.57C1271.71 1146.17 1271.01 1147.02 1270.59 1148.02C1270.17 1149.02 1270.06 1150.12 1270.27 1151.18C1270.48 1152.24 1270.99 1153.22 1271.76 1153.99C1272.52 1154.76 1273.5 1155.28 1274.56 1155.49C1275.62 1155.71 1276.72 1155.6 1277.72 1155.18C1278.73 1154.77 1279.58 1154.07 1280.18 1153.17C1280.79 1152.27 1281.11 1151.21 1281.11 1150.13C1281.11 1148.68 1280.53 1147.29 1279.51 1146.27C1278.49 1145.24 1277.11 1144.66 1275.66 1144.66Z" fill="#313131"/>
<path d="M1220.11 1311.87C1217.91 1311.87 1215.76 1311.23 1213.93 1310.01C1212.1 1308.79 1210.68 1307.06 1209.83 1305.03C1208.99 1303 1208.77 1300.76 1209.2 1298.61C1209.62 1296.45 1210.68 1294.47 1212.24 1292.92C1213.79 1291.37 1215.77 1290.31 1217.93 1289.88C1220.08 1289.45 1222.32 1289.67 1224.34 1290.52C1226.37 1291.36 1228.11 1292.79 1229.33 1294.62C1230.54 1296.44 1231.19 1298.59 1231.19 1300.79C1231.18 1303.73 1230.01 1306.54 1227.94 1308.62C1225.86 1310.7 1223.04 1311.86 1220.11 1311.87ZM1220.11 1295.32C1219.03 1295.32 1217.97 1295.63 1217.06 1296.23C1216.16 1296.83 1215.45 1297.68 1215.04 1298.68C1214.62 1299.68 1214.51 1300.78 1214.72 1301.85C1214.93 1302.91 1215.44 1303.89 1216.21 1304.65C1216.97 1305.42 1217.95 1305.94 1219.01 1306.16C1220.07 1306.37 1221.17 1306.26 1222.17 1305.85C1223.18 1305.44 1224.03 1304.73 1224.63 1303.83C1225.24 1302.93 1225.56 1301.87 1225.56 1300.79C1225.56 1299.34 1224.98 1297.96 1223.96 1296.93C1222.94 1295.9 1221.56 1295.33 1220.11 1295.32Z" fill="#313131"/>
<path d="M753.84 1108.49L756.407 1120.63C756.407 1120.63 864.806 1110.05 924.589 1063.68L922.946 1059.45C922.946 1059.45 866.562 1100.84 753.84 1108.49Z" fill="#313131"/>
<path d="M1093.74 1099.69L972.191 1365.03L993.56 1351.32L1093.74 1099.69Z" fill="#313131"/>
<path d="M1466.7 1202.55L1431.64 1359.61L1409.73 1363.28L1466.7 1202.55Z" fill="#313131"/>
<path d="M1245.75 982.53L1327.81 955.014L1331.7 961.724L1245.75 982.53Z" fill="#313131"/>
<path d="M1370.5 1028.6L1327.81 955.014L1318.76 958.054L1370.5 1028.6Z" fill="#313131"/>
</svg>
