<svg width="2000" height="2000" viewBox="0 0 2000 2000" fill="none" xmlns="http://www.w3.org/2000/svg">
<path d="M1870.55 1491.39H129.549C128.873 1491.39 128.225 1491.12 127.747 1490.64C127.269 1490.16 127 1489.52 127 1488.84C127 1488.16 127.269 1487.52 127.747 1487.04C128.225 1486.56 128.873 1486.29 129.549 1486.29H1870.55C1871.23 1486.29 1871.88 1486.56 1872.35 1487.04C1872.83 1487.52 1873.1 1488.16 1873.1 1488.84C1873.1 1489.52 1872.83 1490.16 1872.35 1490.64C1871.88 1491.12 1871.23 1491.39 1870.55 1491.39Z" fill="#313131"/>
<path d="M679.606 856.701C679.606 856.701 703.262 916.289 659.397 926.791C594.14 942.412 531.432 842.793 531.432 842.793L581.761 644.35L721.779 676.142L679.606 856.701Z" fill="white"/>
<path d="M645.081 931.054C584.759 931.054 531.676 847.994 529.27 844.181C529.077 843.882 528.95 843.545 528.898 843.194C528.845 842.842 528.867 842.484 528.964 842.141L579.294 643.698C579.458 643.054 579.867 642.499 580.435 642.152C581.003 641.805 581.684 641.694 582.332 641.842L722.35 673.635C722.677 673.711 722.986 673.851 723.259 674.047C723.532 674.243 723.764 674.491 723.94 674.777C724.123 675.061 724.247 675.379 724.303 675.712C724.359 676.045 724.346 676.386 724.267 676.714L682.359 856.559C684.398 861.78 694.493 891.329 683.889 911.763C679.219 920.736 671.225 926.649 660.09 929.301C655.175 930.481 650.136 931.07 645.081 931.054ZM534.164 842.427C540.16 851.563 590.795 926.038 645.326 926.038C649.866 926.041 654.391 925.507 658.805 924.447C668.431 922.143 675.303 917.126 679.198 909.499C689.558 889.555 677.302 858.109 677.159 857.783C676.973 857.302 676.938 856.775 677.057 856.274L718.658 678.203L583.556 647.512L534.164 842.427Z" fill="#313131"/>
<path d="M699.795 767.543C699.795 767.543 679.872 741.032 631.928 732.875C583.454 724.575 662.946 694.903 662.946 694.903L714.478 706.609L699.795 767.543Z" fill="#313131"/>
<path d="M699.795 770.094C699.427 770.092 699.063 770.011 698.729 769.856C698.395 769.701 698.098 769.476 697.858 769.196C697.695 768.993 681.36 750.843 627.135 733.815C626.72 733.688 626.344 733.456 626.044 733.142C625.744 732.828 625.53 732.441 625.422 732.02C625.313 731.599 625.314 731.156 625.425 730.735C625.536 730.313 625.752 729.928 626.055 729.614L661.11 693.07C661.415 692.753 661.798 692.521 662.219 692.396C662.641 692.271 663.088 692.257 663.516 692.356L714.988 704.062C715.316 704.137 715.625 704.276 715.898 704.472C716.171 704.668 716.403 704.917 716.579 705.204C716.77 705.503 716.898 705.838 716.954 706.189C717.01 706.54 716.993 706.899 716.905 707.243L702.202 768.238C702.096 768.695 701.864 769.113 701.532 769.444C701.2 769.776 700.782 770.008 700.325 770.114C700.149 770.13 699.97 770.124 699.795 770.094ZM632.499 730.205C672.632 743.196 691.332 756.614 698.286 762.63L711.338 708.466L663.781 697.638L632.499 730.205Z" fill="#313131"/>
<path d="M642.104 735.406L643.225 735.589L654.768 737.506H655.237L655.91 737.628C665.779 739.281 675.877 738.972 685.626 736.719C695.376 734.467 704.586 730.314 712.73 724.5C720.874 718.686 727.792 711.323 733.089 702.833C738.386 694.344 741.957 684.893 743.599 675.022L743.783 673.88L750.594 632.931C751.142 629.632 751.483 626.301 751.613 622.959C751.643 622.62 751.643 622.279 751.613 621.94C752.14 602.508 745.616 583.542 733.245 568.548C720.875 553.553 703.495 543.543 684.317 540.368L678.994 539.491C663.348 536.894 647.284 538.975 632.816 545.473C618.348 551.97 606.121 562.595 597.668 576.015C596.566 577.769 595.526 579.584 594.547 581.439C590.56 589.024 587.807 597.195 586.39 605.646L584.514 616.903L579.661 646.656C579.477 647.757 579.334 648.838 579.192 649.919C576.491 669.553 581.551 689.467 593.299 705.43C605.046 721.392 622.554 732.146 642.104 735.406Z" fill="white"/>
<path d="M667.473 741.093C663.238 741.092 659.011 740.758 654.829 740.094L654.176 739.992L642.818 738.095C628.228 735.688 614.599 729.262 603.459 719.538C603.206 719.318 602.999 719.051 602.849 718.751C602.699 718.451 602.61 718.125 602.586 717.791C602.563 717.457 602.605 717.121 602.711 716.803C602.817 716.485 602.985 716.191 603.204 715.938C603.424 715.685 603.691 715.478 603.991 715.328C604.291 715.178 604.617 715.089 604.951 715.065C605.286 715.042 605.621 715.084 605.939 715.19C606.257 715.296 606.551 715.464 606.804 715.683C617.218 724.787 629.966 730.804 643.613 733.058L655.38 735.097H655.604C675.108 738.206 695.051 733.485 711.091 721.962C727.132 710.44 737.973 693.048 741.254 673.572L748.086 632.623C748.141 632.292 748.26 631.976 748.437 631.691C748.615 631.407 748.846 631.16 749.119 630.965C749.392 630.77 749.7 630.63 750.027 630.554C750.353 630.479 750.692 630.468 751.022 630.523C751.353 630.578 751.67 630.697 751.954 630.874C752.239 631.052 752.486 631.283 752.681 631.556C752.876 631.829 753.015 632.137 753.091 632.464C753.167 632.79 753.178 633.129 753.123 633.459L746.291 674.408C743.138 693.038 733.496 709.953 719.07 722.157C704.645 734.361 686.368 741.069 667.473 741.093Z" fill="#313131"/>
<path d="M589.918 702.124C589.48 702.125 589.049 702.013 588.667 701.799C588.285 701.584 587.964 701.275 587.736 700.901C578.383 685.529 574.482 667.454 576.663 649.592V649.164C576.785 648.185 576.928 647.125 577.091 646.207L583.923 605.279C585.357 596.555 588.187 588.12 592.304 580.297C593.283 578.401 594.344 576.504 595.506 574.71C604.205 560.84 616.819 549.858 631.754 543.151C646.689 536.444 663.277 534.312 679.423 537.024L684.725 537.901C704.47 541.249 722.347 551.599 735.081 567.056C747.815 582.513 754.553 602.041 754.061 622.062C754.034 622.738 753.744 623.377 753.252 623.842C752.761 624.307 752.107 624.561 751.43 624.55C751.095 624.539 750.766 624.463 750.461 624.325C750.155 624.187 749.88 623.99 749.651 623.746C749.422 623.502 749.243 623.215 749.125 622.901C749.007 622.588 748.952 622.254 748.962 621.919C749.432 603.128 743.11 584.798 731.158 570.291C719.205 555.783 702.423 546.072 683.889 542.938L678.566 542.061C663.414 539.514 647.846 541.514 633.829 547.807C619.812 554.101 607.974 564.406 599.809 577.422C598.728 579.114 597.77 580.868 596.791 582.663C592.934 590.011 590.276 597.928 588.919 606.115L582.108 647.064C581.945 648.002 581.802 648.94 581.68 649.857V650.245C579.644 666.958 583.301 683.87 592.06 698.25C592.234 698.536 592.351 698.854 592.402 699.186C592.454 699.517 592.439 699.855 592.359 700.181C592.28 700.507 592.137 700.814 591.938 701.085C591.74 701.355 591.49 701.584 591.203 701.757C590.814 701.989 590.371 702.116 589.918 702.124Z" fill="#313131"/>
<path d="M584.616 616.943C584.616 616.943 599.727 633.073 620.018 605.543C629.97 592.043 649.384 587.067 659.805 589.229C681.992 593.878 712.316 613.904 747.494 612.721C748.799 612.721 750.084 612.619 751.348 612.497C764.726 611.233 774.963 605.604 777.676 592.451C780.062 580.868 771.333 567.633 771.333 567.633C771.333 567.633 762.483 589.229 728.202 562.963C724.94 560.454 721.452 557.497 717.68 554.071C707.764 547.056 696.384 542.384 684.399 540.408L679.076 539.531C663.43 536.934 647.366 539.015 632.898 545.513C618.43 552.01 606.202 562.635 597.749 576.055C596.648 577.809 595.588 579.624 594.649 581.479C590.654 589.06 587.9 597.233 586.492 605.686L584.616 616.943Z" fill="#313131"/>
<path d="M596.26 624.223C591.223 624.195 586.389 622.231 582.76 618.737C582.498 618.448 582.303 618.104 582.19 617.73C582.078 617.356 582.049 616.962 582.108 616.575L583.964 605.319C585.42 596.592 588.256 588.152 592.365 580.317C593.304 578.522 594.405 576.646 595.567 574.75C604.265 560.878 616.878 549.895 631.813 543.187C646.749 536.48 663.338 534.349 679.484 537.064L684.786 537.941C697.136 539.957 708.862 544.769 719.066 552.012C719.222 552.111 719.365 552.227 719.495 552.358C723.023 555.58 726.387 558.476 729.508 560.842L729.752 561.025C746.067 573.485 755.794 574.403 761.117 572.955C762.782 572.519 764.338 571.735 765.68 570.656C767.022 569.578 768.122 568.228 768.907 566.694C769.083 566.266 769.374 565.894 769.746 565.618C770.119 565.342 770.559 565.173 771.021 565.129C771.482 565.085 771.947 565.168 772.365 565.368C772.783 565.568 773.138 565.879 773.393 566.266C773.781 566.837 782.692 580.541 780.123 593.022C777.39 606.114 767.785 613.537 751.573 615.066C750.268 615.189 748.901 615.27 747.494 615.311C723.94 616.086 702.997 607.766 684.5 600.404C676.331 596.849 667.888 593.958 659.254 591.757C650.077 589.82 631.561 594.164 622.057 607.052C614.043 617.921 605.743 623.672 597.362 624.162L596.26 624.223ZM587.369 616.066C590.149 618.263 593.641 619.359 597.178 619.145C603.949 618.696 610.943 613.639 617.979 604.115C628.869 589.331 649.567 584.599 660.315 586.843C669.245 589.081 677.981 592.034 686.438 595.673C704.445 602.831 724.899 610.967 747.392 610.213C748.636 610.213 749.86 610.111 751.063 609.989C765.052 608.663 772.924 602.79 775.167 591.982C776.615 584.926 773.373 576.952 771.089 572.527C768.81 575.127 765.806 576.988 762.462 577.87C753.123 580.398 741.132 576.116 726.755 565.145L726.551 565.002C723.227 562.432 719.658 559.414 715.926 556.029C706.393 549.292 695.451 544.815 683.929 542.937L678.627 542.06C663.475 539.508 647.905 541.505 633.887 547.799C619.869 554.093 608.031 564.401 599.87 577.421C598.748 579.195 597.729 580.949 596.872 582.642C593.008 589.995 590.344 597.919 588.98 606.114L587.369 616.066Z" fill="#313131"/>
<path d="M751.308 612.537C750.043 612.659 748.759 612.741 747.453 612.761C749.661 615.392 751.076 618.596 751.532 621.999C751.632 618.844 751.557 615.685 751.308 612.537Z" fill="#313131"/>
<path d="M717.619 554.091C721.391 557.517 724.879 560.474 728.141 562.982C724.896 559.722 721.375 556.747 717.619 554.091Z" fill="#313131"/>
<path d="M750.553 635.54H750.125C749.47 635.411 748.891 635.033 748.511 634.485C748.13 633.937 747.978 633.262 748.086 632.604C748.617 629.406 748.944 626.177 749.064 622.937C749.082 622.666 749.082 622.393 749.064 622.122C749.05 621.787 749.101 621.453 749.216 621.138C749.33 620.823 749.505 620.534 749.732 620.286C749.958 620.039 750.231 619.839 750.534 619.697C750.838 619.556 751.167 619.475 751.501 619.46C752.177 619.431 752.838 619.671 753.337 620.128C753.584 620.354 753.784 620.627 753.926 620.93C754.067 621.234 754.148 621.563 754.163 621.897C754.163 622.326 754.163 622.795 754.163 623.223C754.028 626.64 753.681 630.045 753.123 633.419C753.024 634.024 752.709 634.573 752.237 634.963C751.764 635.353 751.166 635.558 750.553 635.54Z" fill="#313131"/>
<path d="M709.523 667.332C709.287 667.339 709.053 667.304 708.829 667.23L686.05 660.786C685.709 660.714 685.386 660.572 685.102 660.369C684.818 660.167 684.578 659.908 684.398 659.609C684.218 659.31 684.101 658.978 684.054 658.632C684.008 658.286 684.033 657.934 684.128 657.598C684.223 657.262 684.387 656.95 684.607 656.679C684.828 656.409 685.102 656.187 685.413 656.027C685.723 655.867 686.063 655.773 686.411 655.75C686.759 655.726 687.108 655.775 687.437 655.892L708.095 661.724C710.057 652.381 711.513 642.939 712.459 633.439C712.478 633.093 712.567 632.753 712.722 632.443C712.877 632.132 713.093 631.855 713.358 631.631C713.623 631.407 713.932 631.239 714.264 631.138C714.596 631.037 714.946 631.005 715.291 631.044C715.636 631.083 715.969 631.192 716.271 631.365C716.572 631.537 716.835 631.77 717.043 632.047C717.252 632.325 717.401 632.642 717.483 632.98C717.564 633.318 717.576 633.668 717.517 634.01C715.314 653.792 713.214 664.763 711.297 666.639C710.817 667.091 710.181 667.339 709.523 667.332Z" fill="#313131"/>
<path d="M670.287 628.302C669.794 628.295 669.314 628.146 668.903 627.873C668.493 627.6 668.17 627.215 667.972 626.764C667.774 626.313 667.71 625.814 667.788 625.328C667.866 624.841 668.082 624.387 668.41 624.02C681.34 609.908 700.529 618.228 700.733 618.31C701.349 618.586 701.831 619.096 702.072 619.726C702.312 620.357 702.293 621.058 702.018 621.675C701.741 622.291 701.233 622.773 700.603 623.017C699.974 623.262 699.273 623.248 698.653 622.98C698.021 622.694 682.583 616.087 672.142 627.466C671.909 627.727 671.623 627.937 671.303 628.081C670.983 628.225 670.637 628.3 670.287 628.302Z" fill="#313131"/>
<path d="M739.969 646.879C739.36 646.877 738.771 646.659 738.308 646.263C737.844 645.867 737.537 645.319 737.44 644.717C735.666 633.256 722.084 628.281 721.942 628.219C721.356 627.959 720.889 627.487 720.635 626.898C720.382 626.309 720.36 625.646 720.573 625.041C720.787 624.436 721.221 623.934 721.788 623.635C722.355 623.336 723.015 623.262 723.634 623.427C724.328 623.651 740.234 629.423 742.477 643.942C742.585 644.598 742.432 645.27 742.051 645.815C741.67 646.36 741.091 646.734 740.438 646.859L739.969 646.879Z" fill="#313131"/>
<path d="M687.621 639.782C689.625 639.782 691.251 638.157 691.251 636.152C691.251 634.148 689.625 632.522 687.621 632.522C685.616 632.522 683.991 634.148 683.991 636.152C683.991 638.157 685.616 639.782 687.621 639.782Z" fill="#313131"/>
<path d="M724.063 651.733C726.068 651.733 727.693 650.107 727.693 648.103C727.693 646.098 726.068 644.473 724.063 644.473C722.058 644.473 720.433 646.098 720.433 648.103C720.433 650.107 722.058 651.733 724.063 651.733Z" fill="#313131"/>
<path d="M591.904 662.699C603.261 662.058 611.676 647.491 610.698 630.163C609.72 612.835 599.72 599.307 588.363 599.948C577.006 600.589 568.592 615.156 569.569 632.484C570.547 649.812 580.547 663.34 591.904 662.699Z" fill="white"/>
<path d="M586.737 664.518C586.461 664.517 586.186 664.476 585.921 664.396C575.725 661.01 567.935 647.938 567.058 632.603C566.428 624.292 568.197 615.976 572.156 608.641C576.235 601.728 581.863 597.731 588.246 597.364C597.525 596.834 606.314 604.4 610.678 616.635C610.903 617.274 610.864 617.975 610.572 618.585C610.279 619.195 609.756 619.664 609.118 619.888C608.48 620.112 607.779 620.074 607.169 619.782C606.559 619.489 606.09 618.966 605.866 618.328C602.317 608.295 595.526 602.014 588.572 602.462C583.964 602.707 579.722 605.827 576.622 611.19C573.161 617.687 571.639 625.042 572.238 632.379C572.972 645.451 579.436 656.85 587.614 659.603C588.255 659.817 588.784 660.277 589.086 660.881C589.388 661.485 589.438 662.184 589.225 662.825C589.046 663.337 588.708 663.777 588.26 664.082C587.812 664.387 587.278 664.539 586.737 664.518Z" fill="#313131"/>
<path d="M591.101 633.951H590.816L584.168 633.217C583.527 633.106 582.952 632.755 582.562 632.235C582.171 631.715 581.995 631.065 582.068 630.419C582.141 629.772 582.458 629.178 582.954 628.758C583.451 628.338 584.089 628.124 584.739 628.159L586.941 628.404L582.291 618.004C582.12 617.693 582.016 617.351 581.984 616.998C581.953 616.645 581.995 616.29 582.109 615.954C582.222 615.618 582.405 615.31 582.644 615.049C582.884 614.788 583.175 614.58 583.499 614.437C583.824 614.295 584.174 614.222 584.529 614.223C584.883 614.223 585.233 614.298 585.557 614.442C585.881 614.585 586.171 614.795 586.409 615.057C586.648 615.319 586.829 615.628 586.941 615.964L593.426 630.423C593.599 630.811 593.673 631.236 593.64 631.66C593.607 632.083 593.469 632.492 593.238 632.849C593.007 633.205 592.691 633.499 592.317 633.702C591.944 633.905 591.526 634.012 591.101 634.012V633.951Z" fill="#313131"/>
<path d="M677.2 676.223C670.975 675.773 665.133 673.052 660.784 668.576C656.42 663.784 654.441 657.238 654.89 649.121C654.909 648.787 654.993 648.459 655.139 648.157C655.284 647.855 655.488 647.584 655.738 647.361C655.988 647.137 656.279 646.965 656.596 646.854C656.912 646.744 657.247 646.696 657.582 646.715C657.917 646.734 658.245 646.818 658.547 646.964C658.849 647.109 659.119 647.313 659.343 647.562C659.566 647.812 659.738 648.104 659.849 648.42C659.96 648.737 660.007 649.072 659.988 649.407C659.621 656.096 661.151 661.377 664.516 665.109C667.945 668.592 672.512 670.727 677.383 671.125C678.06 671.125 678.708 671.394 679.186 671.872C679.664 672.35 679.933 672.998 679.933 673.674C679.933 674.35 679.664 674.999 679.186 675.477C678.708 675.955 678.06 676.223 677.383 676.223H677.2Z" fill="#313131"/>
<path d="M1036.34 1576.94C1036.34 1576.94 957.785 1523.12 847.195 1550.77L847.419 1582.71C847.419 1582.71 951.158 1580.38 976.057 1605.14L1036.34 1576.94Z" fill="#21A2FF"/>
<path d="M976.017 1607.65C975.342 1607.65 974.697 1607.37 974.222 1606.9C950.383 1583.24 848.48 1585.24 847.44 1585.26C847.102 1585.27 846.766 1585.21 846.451 1585.08C846.136 1584.96 845.848 1584.78 845.604 1584.55C845.124 1584.06 844.847 1583.41 844.83 1582.73L844.605 1550.8C844.598 1550.22 844.785 1549.66 845.137 1549.2C845.488 1548.75 845.984 1548.42 846.543 1548.29C956.97 1520.7 1036.95 1574.29 1037.75 1574.8C1038.12 1575.05 1038.42 1575.4 1038.61 1575.81C1038.81 1576.22 1038.89 1576.67 1038.85 1577.12C1038.82 1577.57 1038.66 1578 1038.4 1578.37C1038.14 1578.74 1037.79 1579.03 1037.38 1579.22L977.098 1607.39C976.762 1607.55 976.392 1607.64 976.017 1607.65ZM855.23 1580.08C879.701 1580.08 953.32 1581.83 976.506 1602.06L1031.08 1576.57C1014.09 1566.58 943.388 1530.1 849.846 1552.73L850.03 1580.08H855.23Z" fill="#313131"/>
<path d="M758.71 1626.15C770.824 1638.16 797.294 1640.07 817.727 1630.39C841.24 1619.23 853.048 1595.19 850.07 1564.4C847.338 1535.85 831.35 1517.21 806.246 1512.96C781.775 1508.89 752.593 1520.27 744.966 1536.93L768.703 1547.78C770.742 1544.04 787.26 1535.54 803.371 1538.9C815.831 1541.54 822.642 1550.67 824.192 1566.8C826.088 1586.5 820.419 1599.82 807.327 1606.38C794.235 1612.95 779.756 1609.83 777.207 1607.51L758.71 1626.15Z" fill="#21A2FF"/>
<path d="M789.769 1639.07C776.595 1639.07 764.298 1635.26 756.916 1627.96C756.679 1627.72 756.49 1627.44 756.362 1627.13C756.233 1626.82 756.167 1626.49 756.167 1626.15C756.167 1625.82 756.233 1625.49 756.362 1625.18C756.49 1624.87 756.679 1624.59 756.916 1624.35L775.27 1605.79C775.746 1605.34 776.378 1605.09 777.034 1605.09C777.689 1605.09 778.321 1605.34 778.798 1605.79C780.449 1607.28 793.705 1610.46 806.063 1604.26C818.421 1598.06 824.743 1582.97 821.561 1567.56C818.972 1554.87 811.793 1545.12 802.351 1541.51C788.076 1536.07 772.313 1546.71 770.885 1549.26C770.555 1549.84 770.013 1550.27 769.374 1550.45C768.735 1550.64 768.048 1550.57 767.459 1550.26C767.316 1550.19 767.179 1550.1 767.051 1550L743.885 1539.39C743.582 1539.25 743.309 1539.06 743.082 1538.81C742.855 1538.57 742.679 1538.28 742.563 1537.97C742.447 1537.66 742.395 1537.32 742.408 1536.99C742.421 1536.66 742.501 1536.33 742.641 1536.03C751.226 1517.23 783.039 1504.66 806.838 1510.66C832.757 1517.21 849.867 1537.17 852.599 1564.29C855.821 1596.17 843.504 1621.15 818.788 1632.85C809.685 1637.02 799.78 1639.14 789.769 1639.07ZM762.422 1626.02C774.556 1635.81 798.13 1636.85 816.626 1628.06C839.262 1617.33 850.54 1594.21 847.542 1564.62C845.034 1539.86 829.351 1521.51 805.614 1515.39C783.59 1509.84 756.998 1521.51 748.514 1535.66L768.05 1544.59C773.597 1539.13 789.993 1531.11 804.207 1536.44C815.28 1540.68 823.662 1551.81 826.639 1566.21C830.269 1583.97 822.785 1601.39 808.428 1608.59C796.193 1614.7 783.162 1613.13 777.594 1610.63L762.422 1626.02Z" fill="#313131"/>
<path d="M960.253 1598.31C959.619 1598.3 959.01 1598.06 958.544 1597.63C958.077 1597.2 957.785 1596.62 957.725 1595.98C954.951 1567.25 980.279 1551.77 981.36 1551.12C981.942 1550.77 982.638 1550.67 983.296 1550.83C983.953 1551 984.519 1551.42 984.868 1552C985.217 1552.58 985.32 1553.27 985.156 1553.93C984.991 1554.59 984.572 1555.16 983.991 1555.5C983.746 1555.65 960.355 1570.02 962.803 1595.52C962.859 1596.19 962.65 1596.86 962.219 1597.37C961.787 1597.89 961.17 1598.22 960.498 1598.29L960.253 1598.31Z" fill="#313131"/>
<path d="M913.329 1588.28C912.849 1588.27 912.378 1588.13 911.971 1587.88C911.565 1587.62 911.237 1587.26 911.025 1586.83C900.522 1564.91 913.166 1542.6 913.717 1541.66C913.873 1541.35 914.09 1541.07 914.357 1540.85C914.623 1540.62 914.932 1540.46 915.265 1540.36C915.598 1540.26 915.947 1540.23 916.292 1540.27C916.638 1540.31 916.971 1540.42 917.271 1540.59C917.572 1540.77 917.834 1541 918.041 1541.28C918.248 1541.56 918.396 1541.88 918.476 1542.22C918.556 1542.56 918.565 1542.91 918.504 1543.25C918.443 1543.59 918.313 1543.92 918.121 1544.21C918.019 1544.41 906.314 1565.17 915.634 1584.62C915.921 1585.23 915.955 1585.93 915.73 1586.57C915.504 1587.2 915.037 1587.72 914.43 1588.01C914.09 1588.19 913.712 1588.28 913.329 1588.28Z" fill="#313131"/>
<path d="M1075.78 1615.6C1071.93 1615.73 1068.11 1614.99 1064.58 1613.45C1061.05 1611.92 1057.91 1609.61 1055.39 1606.71C1037.56 1612.16 1014.21 1610.18 1002.36 1593.23C1002.11 1592.69 1002.06 1592.08 1002.21 1591.5C1002.36 1590.93 1002.71 1590.42 1003.19 1590.07C1003.67 1589.73 1004.27 1589.56 1004.86 1589.61C1005.45 1589.65 1006.01 1589.9 1006.44 1590.31C1016.64 1604.81 1036.4 1606.75 1052.16 1602.37C1051.88 1601.88 1051.59 1601.39 1051.35 1600.86C1043.6 1585.58 1048.15 1572.53 1056.63 1567.52C1062.46 1564.09 1070.91 1564.42 1076.68 1572.9C1083 1582.18 1080 1592.68 1068.89 1600.33C1066.26 1602.12 1063.45 1603.63 1060.5 1604.83C1062.66 1606.82 1065.19 1608.35 1067.96 1609.32C1070.72 1610.29 1073.65 1610.69 1076.57 1610.48C1086.12 1610.16 1096.11 1605.14 1103.53 1597.62C1099.94 1592.42 1098.36 1586.09 1099.07 1579.81C1099.92 1573.69 1102.88 1569.47 1107.23 1568.15C1108.82 1567.66 1110.52 1567.64 1112.13 1568.09C1113.73 1568.54 1115.17 1569.45 1116.28 1570.7C1119.54 1574.31 1119.91 1580.14 1117.3 1586.32C1115.54 1590.45 1113.2 1594.3 1110.35 1597.76C1111.18 1598.51 1112.11 1599.16 1113.12 1599.68C1117.89 1602.08 1123.31 1600.47 1128.88 1595.05C1129.12 1594.79 1129.4 1594.58 1129.71 1594.44C1130.03 1594.3 1130.37 1594.22 1130.72 1594.21C1131.06 1594.21 1131.41 1594.27 1131.73 1594.4C1132.05 1594.53 1132.34 1594.73 1132.58 1594.97C1132.83 1595.22 1133.02 1595.52 1133.14 1595.84C1133.27 1596.16 1133.33 1596.51 1133.31 1596.85C1133.3 1597.2 1133.22 1597.54 1133.07 1597.85C1132.92 1598.17 1132.71 1598.45 1132.45 1598.68C1122.83 1608.14 1114.77 1606.22 1110.83 1604.22C1109.42 1603.5 1108.11 1602.6 1106.94 1601.53C1098.98 1609.79 1088.23 1614.8 1076.78 1615.58L1075.78 1615.6ZM1064.2 1570.55C1062.51 1570.57 1060.86 1571.04 1059.42 1571.92C1052.98 1575.71 1049.78 1586.07 1056.1 1598.55C1056.47 1599.31 1056.9 1600.04 1057.32 1600.74C1060.46 1599.55 1063.44 1598 1066.21 1596.13C1071.37 1592.58 1079.08 1585.2 1072.66 1575.73C1071.81 1574.22 1070.58 1572.95 1069.1 1572.05C1067.62 1571.14 1065.93 1570.63 1064.2 1570.55ZM1109.96 1572.86C1109.6 1572.86 1109.24 1572.92 1108.9 1573.02C1106.59 1573.74 1104.82 1576.53 1104.33 1580.51C1103.82 1585.1 1104.84 1589.73 1107.23 1593.68C1109.48 1590.82 1111.35 1587.68 1112.79 1584.34C1114.61 1580.04 1114.57 1576.18 1112.69 1574.14C1112.35 1573.75 1111.93 1573.43 1111.46 1573.21C1110.99 1572.99 1110.48 1572.87 1109.96 1572.86Z" fill="#313131"/>
<path d="M1676.63 1028.35V1559.69C1676.63 1559.69 1614.44 1609.2 1457.51 1609.2C1296.41 1609.2 1238.41 1559.73 1238.41 1559.73V1028.35C1238.42 989.138 1248.94 950.647 1268.89 916.889C1288.84 883.132 1317.48 855.345 1351.82 836.427C1386.17 817.508 1424.96 808.152 1464.15 809.333C1503.35 810.514 1541.51 822.189 1574.65 843.141C1601.89 860.414 1625.01 883.465 1642.35 910.662C1664.79 945.81 1676.69 986.651 1676.63 1028.35Z" fill="#FFA620"/>
<path d="M1457.51 1611.71C1297.27 1611.71 1239.15 1563.66 1236.76 1561.62C1236.48 1561.38 1236.25 1561.09 1236.1 1560.75C1235.94 1560.42 1235.86 1560.05 1235.86 1559.68V1028.35C1236.42 969.928 1260.02 914.091 1301.53 872.979C1343.04 831.866 1399.1 808.803 1457.52 808.803C1515.95 808.803 1572.01 831.866 1613.51 872.979C1655.02 914.091 1678.62 969.928 1679.18 1028.35V1559.68C1679.19 1560.08 1679.1 1560.46 1678.93 1560.82C1678.76 1561.17 1678.51 1561.48 1678.2 1561.72C1675.64 1563.72 1613.54 1611.71 1457.51 1611.71ZM1240.96 1558.44C1248.87 1564.44 1309.95 1606.61 1457.51 1606.61C1601.24 1606.61 1665.52 1564.42 1674.09 1558.4V1028.35C1674.36 999.731 1668.97 971.344 1658.21 944.825C1647.45 918.307 1631.54 894.184 1611.4 873.851C1591.27 853.517 1567.3 837.376 1540.89 826.361C1514.47 815.345 1486.14 809.673 1457.52 809.673C1428.91 809.673 1400.57 815.345 1374.16 826.361C1347.75 837.376 1323.78 853.517 1303.64 873.851C1283.51 894.184 1267.6 918.307 1256.84 944.825C1246.08 971.344 1240.68 999.731 1240.96 1028.35V1558.44Z" fill="#313131"/>
<path d="M1543.24 1453.38C1542.6 1453.37 1541.98 1453.12 1541.51 1452.68C1541.04 1452.23 1540.75 1451.63 1540.72 1450.98C1540.68 1450.34 1540.88 1449.7 1541.3 1449.2C1541.71 1448.7 1542.3 1448.38 1542.94 1448.3C1628.12 1437.78 1674.09 1415.47 1674.09 1399.83C1674.09 1399.15 1674.35 1398.5 1674.83 1398.02C1675.31 1397.55 1675.96 1397.28 1676.63 1397.28C1677.31 1397.28 1677.96 1397.55 1678.44 1398.02C1678.92 1398.5 1679.18 1399.15 1679.18 1399.83C1679.18 1421.48 1623.41 1443.51 1543.55 1453.36L1543.24 1453.38Z" fill="#313131"/>
<path d="M1543.24 1192.86C1542.6 1192.85 1541.98 1192.6 1541.51 1192.16C1541.04 1191.71 1540.75 1191.11 1540.72 1190.46C1540.68 1189.82 1540.88 1189.18 1541.3 1188.68C1541.71 1188.18 1542.3 1187.86 1542.94 1187.78C1628.12 1177.24 1674.09 1154.93 1674.09 1139.29C1674.09 1138.61 1674.35 1137.96 1674.83 1137.48C1675.31 1137 1675.96 1136.74 1676.63 1136.74C1677.31 1136.74 1677.96 1137 1678.44 1137.48C1678.92 1137.96 1679.18 1138.61 1679.18 1139.29C1679.18 1160.94 1623.41 1182.97 1543.55 1192.84L1543.24 1192.86Z" fill="#313131"/>
<path d="M1543.24 1450.83C1514.83 1454.27 1486.22 1455.99 1457.59 1455.97C1336.58 1455.97 1238.49 1426.03 1238.49 1399.82V1139.29C1238.49 1165.49 1336.58 1195.45 1457.59 1195.45C1486.22 1195.47 1514.83 1193.76 1543.24 1190.31V1450.83Z" fill="#21A2FF"/>
<path d="M1457.51 1458.52C1400.74 1458.52 1345.47 1451.99 1301.92 1440.16C1259.93 1428.76 1235.86 1414.06 1235.86 1399.8V1139.29C1235.86 1138.61 1236.13 1137.96 1236.61 1137.48C1237.09 1137 1237.74 1136.74 1238.41 1136.74C1239.09 1136.74 1239.74 1137 1240.21 1137.48C1240.69 1137.96 1240.96 1138.61 1240.96 1139.29C1240.96 1150.73 1264.82 1164.31 1303.26 1174.73C1346.39 1186.43 1401.15 1192.9 1457.51 1192.9C1486.07 1192.92 1514.59 1191.21 1542.94 1187.78C1543.3 1187.73 1543.67 1187.76 1544.02 1187.86C1544.38 1187.97 1544.7 1188.15 1544.98 1188.39C1545.24 1188.64 1545.46 1188.93 1545.61 1189.26C1545.75 1189.59 1545.83 1189.95 1545.83 1190.31V1450.83C1545.83 1451.45 1545.61 1452.05 1545.19 1452.52C1544.78 1452.98 1544.21 1453.28 1543.59 1453.36C1515.03 1456.83 1486.28 1458.55 1457.51 1458.52ZM1240.96 1150.81V1399.82C1240.96 1411.24 1264.82 1424.83 1303.26 1435.25C1346.39 1446.97 1401.15 1453.42 1457.51 1453.42C1485.31 1453.45 1513.09 1451.83 1540.7 1448.56V1193.18C1513.09 1196.41 1485.31 1198.02 1457.51 1198C1400.74 1198 1345.49 1191.47 1301.92 1179.64C1271.22 1171.32 1250.1 1161.21 1240.96 1150.81Z" fill="#313131"/>
<path d="M1379.49 1607.38C1378.81 1607.38 1378.17 1607.12 1377.69 1606.64C1377.21 1606.16 1376.94 1605.51 1376.94 1604.84V1451.71C1376.94 1451.03 1377.21 1450.38 1377.69 1449.9C1378.17 1449.42 1378.81 1449.16 1379.49 1449.16C1380.17 1449.16 1380.81 1449.42 1381.29 1449.9C1381.77 1450.38 1382.04 1451.03 1382.04 1451.71V1604.84C1382.04 1605.51 1381.77 1606.16 1381.29 1606.64C1380.81 1607.12 1380.17 1607.38 1379.49 1607.38Z" fill="#313131"/>
<path d="M1386.3 1148.89L1377.63 1097.34C1379.67 1097.01 1426.01 1089.18 1460.43 1089.18C1494.85 1089.18 1534.88 1097.05 1536.58 1097.34L1526.38 1148.57C1526.01 1148.57 1489.45 1141.37 1460.37 1141.37C1430.33 1141.55 1386.73 1148.81 1386.3 1148.89Z" fill="white"/>
<path d="M1386.3 1151.44C1385.77 1151.44 1385.26 1151.28 1384.83 1150.97C1384.28 1150.58 1383.91 1149.98 1383.79 1149.32L1375.13 1097.81C1375.01 1097.15 1375.16 1096.47 1375.54 1095.92C1375.93 1095.37 1376.51 1094.99 1377.17 1094.87C1379.2 1094.54 1425.74 1086.71 1460.39 1086.71C1495.04 1086.71 1535.31 1094.63 1537.02 1094.87C1537.35 1094.93 1537.67 1095.06 1537.95 1095.25C1538.23 1095.43 1538.47 1095.67 1538.66 1095.95C1538.84 1096.23 1538.97 1096.54 1539.03 1096.87C1539.1 1097.2 1539.09 1097.54 1539.02 1097.87L1528.83 1149.09C1528.77 1149.43 1528.64 1149.74 1528.46 1150.03C1528.27 1150.31 1528.03 1150.55 1527.75 1150.74C1527.48 1150.93 1527.16 1151.06 1526.83 1151.13C1526.5 1151.2 1526.16 1151.2 1525.83 1151.13C1525.48 1151.13 1489.29 1143.98 1460.33 1143.98C1430.29 1143.98 1387.06 1151.22 1386.63 1151.28L1386.3 1151.44ZM1380.57 1099.5L1388.4 1145.97C1398.15 1144.42 1434.18 1139 1460.43 1139C1485.47 1139 1515.63 1144.16 1524.42 1145.77L1533.58 1099.56C1524.1 1097.79 1489.98 1091.87 1460.43 1091.87C1430.31 1091.87 1390.93 1097.85 1380.57 1099.5Z" fill="#313131"/>
<path d="M1457.51 1144.1C1456.84 1144.1 1456.19 1143.83 1455.71 1143.35C1455.23 1142.87 1454.96 1142.23 1454.96 1141.55V1089.34C1454.96 1088.67 1455.23 1088.02 1455.71 1087.54C1456.19 1087.06 1456.84 1086.79 1457.51 1086.79C1458.19 1086.79 1458.84 1087.06 1459.32 1087.54C1459.79 1088.02 1460.06 1088.67 1460.06 1089.34V1141.55C1460.06 1142.23 1459.79 1142.87 1459.32 1143.35C1458.84 1143.83 1458.19 1144.1 1457.51 1144.1Z" fill="#313131"/>
<path d="M1420.01 1146.38C1419.4 1146.38 1418.81 1146.15 1418.35 1145.75C1417.89 1145.35 1417.59 1144.79 1417.5 1144.18L1410.24 1092.71C1410.2 1092.38 1410.21 1092.04 1410.3 1091.71C1410.38 1091.39 1410.53 1091.08 1410.73 1090.82C1410.93 1090.55 1411.19 1090.32 1411.47 1090.15C1411.76 1089.98 1412.08 1089.87 1412.41 1089.82C1412.75 1089.78 1413.08 1089.8 1413.41 1089.88C1413.73 1089.96 1414.04 1090.11 1414.31 1090.31C1414.58 1090.51 1414.8 1090.77 1414.97 1091.06C1415.14 1091.34 1415.25 1091.66 1415.3 1092L1422.62 1143.47C1422.7 1144.14 1422.5 1144.81 1422.08 1145.34C1421.66 1145.87 1421.05 1146.2 1420.38 1146.28L1420.01 1146.38Z" fill="#313131"/>
<path d="M1494.24 1146.38H1494C1493.66 1146.35 1493.34 1146.26 1493.04 1146.1C1492.75 1145.94 1492.48 1145.73 1492.27 1145.47C1492.06 1145.22 1491.89 1144.92 1491.8 1144.6C1491.7 1144.28 1491.66 1143.94 1491.69 1143.61L1496.44 1092.14C1496.51 1091.46 1496.83 1090.84 1497.35 1090.41C1497.87 1089.98 1498.54 1089.77 1499.22 1089.83C1499.89 1089.9 1500.51 1090.22 1500.94 1090.74C1501.38 1091.26 1501.58 1091.93 1501.52 1092.61L1496.77 1144.08C1496.7 1144.71 1496.41 1145.29 1495.94 1145.71C1495.48 1146.14 1494.87 1146.38 1494.24 1146.38Z" fill="#313131"/>
<path d="M1383.92 1061.61C1403.86 1061.61 1420.03 1045.44 1420.03 1025.49C1420.03 1005.55 1403.86 989.377 1383.92 989.377C1363.97 989.377 1347.8 1005.55 1347.8 1025.49C1347.8 1045.44 1363.97 1061.61 1383.92 1061.61Z" fill="white"/>
<path d="M1383.87 1064.16C1376.21 1064.16 1368.72 1061.89 1362.35 1057.63C1355.98 1053.37 1351.01 1047.32 1348.08 1040.24C1345.15 1033.16 1344.38 1025.37 1345.87 1017.85C1347.37 1010.34 1351.06 1003.43 1356.48 998.015C1361.9 992.596 1368.8 988.906 1376.32 987.411C1383.83 985.915 1391.62 986.683 1398.7 989.615C1405.78 992.548 1411.83 997.514 1416.09 1003.89C1420.35 1010.26 1422.62 1017.75 1422.62 1025.41C1422.62 1035.69 1418.54 1045.54 1411.27 1052.81C1404.01 1060.08 1394.15 1064.16 1383.87 1064.16ZM1383.87 991.948C1377.23 991.948 1370.74 993.917 1365.22 997.606C1359.7 1001.3 1355.4 1006.54 1352.86 1012.67C1350.32 1018.81 1349.66 1025.56 1350.95 1032.07C1352.25 1038.58 1355.45 1044.56 1360.15 1049.26C1364.84 1053.95 1370.83 1057.15 1377.34 1058.44C1383.85 1059.73 1390.6 1059.06 1396.73 1056.52C1402.87 1053.98 1408.11 1049.67 1411.79 1044.15C1415.48 1038.63 1417.45 1032.13 1417.44 1025.49C1417.43 1016.6 1413.89 1008.07 1407.6 1001.78C1401.3 995.489 1392.77 991.953 1383.87 991.948Z" fill="#313131"/>
<path d="M1526.93 1061.61C1546.88 1061.61 1563.05 1045.44 1563.05 1025.49C1563.05 1005.55 1546.88 989.377 1526.93 989.377C1506.98 989.377 1490.81 1005.55 1490.81 1025.49C1490.81 1045.44 1506.98 1061.61 1526.93 1061.61Z" fill="white"/>
<path d="M1526.93 1064.16C1519.27 1064.16 1511.78 1061.89 1505.4 1057.63C1499.03 1053.37 1494.07 1047.32 1491.13 1040.24C1488.2 1033.16 1487.43 1025.37 1488.93 1017.85C1490.42 1010.34 1494.11 1003.43 1499.53 998.015C1504.95 992.596 1511.86 988.906 1519.37 987.411C1526.89 985.915 1534.68 986.683 1541.76 989.615C1548.84 992.548 1554.89 997.514 1559.15 1003.89C1563.4 1010.26 1565.68 1017.75 1565.68 1025.41C1565.68 1035.69 1561.59 1045.54 1554.33 1052.81C1547.06 1060.08 1537.21 1064.16 1526.93 1064.16ZM1526.93 991.948C1520.29 991.948 1513.8 993.917 1508.28 997.606C1502.76 1001.3 1498.46 1006.54 1495.92 1012.67C1493.38 1018.81 1492.71 1025.56 1494.01 1032.07C1495.31 1038.58 1498.51 1044.56 1503.2 1049.26C1507.9 1053.95 1513.88 1057.15 1520.39 1058.44C1526.91 1059.73 1533.66 1059.06 1539.79 1056.52C1545.92 1053.98 1551.16 1049.67 1554.85 1044.15C1558.54 1038.63 1560.5 1032.13 1560.5 1025.49C1560.48 1016.6 1556.94 1008.07 1550.65 1001.78C1544.35 995.496 1535.83 991.959 1526.93 991.948Z" fill="#313131"/>
<path d="M1393.09 1050.05C1396.31 1050.05 1398.92 1047.44 1398.92 1044.22C1398.92 1040.99 1396.31 1038.38 1393.09 1038.38C1389.87 1038.38 1387.26 1040.99 1387.26 1044.22C1387.26 1047.44 1389.87 1050.05 1393.09 1050.05Z" fill="#313131"/>
<path d="M1508.45 1021.6C1511.73 1021.6 1514.39 1018.94 1514.39 1015.66C1514.39 1012.39 1511.73 1009.73 1508.45 1009.73C1505.18 1009.73 1502.52 1012.39 1502.52 1015.66C1502.52 1018.94 1505.18 1021.6 1508.45 1021.6Z" fill="#313131"/>
<path d="M1676.63 1158.33C1676.63 1158.33 1758.63 1206.72 1780.39 1318.62L1751.37 1331.86C1751.37 1331.86 1709.55 1236.89 1676.63 1224.79V1158.33Z" fill="#21A2FF"/>
<path d="M1751.38 1334.49C1751.06 1334.48 1750.75 1334.43 1750.46 1334.32C1749.82 1334.07 1749.31 1333.58 1749.03 1332.96C1748.62 1332.02 1707.29 1238.84 1675.74 1227.26C1675.25 1227.08 1674.83 1226.76 1674.54 1226.33C1674.24 1225.9 1674.08 1225.39 1674.09 1224.88V1158.33C1674.09 1157.88 1674.21 1157.44 1674.43 1157.05C1674.66 1156.66 1674.98 1156.34 1675.37 1156.11C1675.76 1155.88 1676.2 1155.77 1676.65 1155.77C1677.09 1155.77 1677.53 1155.88 1677.92 1156.11C1678.76 1156.6 1761.16 1206.38 1782.9 1318.11C1783.01 1318.68 1782.93 1319.26 1782.67 1319.77C1782.41 1320.28 1781.98 1320.69 1781.45 1320.93L1752.44 1334.22C1752.11 1334.39 1751.74 1334.48 1751.38 1334.49ZM1679.18 1223.14C1709.77 1236.68 1745.91 1313.67 1752.6 1328.53L1777.48 1317.15C1758.39 1222.86 1695.38 1174.22 1679.14 1163.04L1679.18 1223.14Z" fill="#313131"/>
<path d="M1749.56 1430.68C1733.55 1424.81 1720.62 1401.62 1720.74 1379.03C1720.89 1353 1737.69 1332.12 1766.83 1321.78C1793.77 1312.22 1817.51 1318.76 1832.09 1339.73C1846.16 1360.12 1848.18 1391.42 1836.33 1405.37L1816.43 1388.47C1818.9 1384.98 1819.69 1366.44 1809.82 1353.37C1802.15 1343.17 1791 1340.89 1775.72 1346.32C1757.06 1352.94 1747.42 1363.73 1747.01 1378.35C1746.6 1392.97 1755.56 1404.86 1758.74 1406.13L1749.56 1430.68Z" fill="#21A2FF"/>
<path d="M1749.56 1433.23C1749.26 1433.23 1748.97 1433.18 1748.68 1433.09C1731.74 1426.85 1718.09 1402.6 1718.2 1379C1718.34 1351.68 1735.77 1329.94 1766 1319.37C1791.67 1310.4 1816.98 1317.34 1833.97 1338.12C1849.46 1357.14 1851.54 1391.28 1838.17 1407.02C1837.95 1407.28 1837.69 1407.5 1837.39 1407.65C1837.09 1407.81 1836.76 1407.9 1836.42 1407.93C1836.09 1407.95 1835.75 1407.91 1835.43 1407.81C1835.11 1407.7 1834.81 1407.53 1834.56 1407.31L1815 1390.69L1814.74 1390.53C1814.21 1390.13 1813.86 1389.54 1813.76 1388.89C1813.66 1388.24 1813.81 1387.58 1814.18 1387.04C1815.88 1384.65 1818.85 1365.85 1807.88 1355.25C1800.6 1348.23 1788.73 1345.82 1776.15 1348.86C1760.78 1352.55 1749.76 1364.73 1749.4 1378.49C1749.03 1392.26 1757.55 1402.97 1759.59 1403.84C1760.19 1404.1 1760.67 1404.58 1760.93 1405.17C1761.2 1405.77 1761.22 1406.45 1761 1407.06L1751.99 1431.54C1751.81 1432.03 1751.48 1432.46 1751.04 1432.77C1750.61 1433.07 1750.09 1433.23 1749.56 1433.23ZM1787.65 1320.66C1780.83 1320.7 1774.06 1321.89 1767.63 1324.19C1739.55 1334 1723.38 1354 1723.23 1379.04C1723.11 1399.44 1734.06 1420.44 1748.05 1427.29L1755.45 1407.15C1750.82 1403.07 1743.87 1392.1 1744.26 1378.35C1744.71 1362.3 1757.31 1348.13 1774.85 1343.91C1789.12 1340.46 1802.76 1343.34 1811.31 1351.6C1822.24 1362.16 1821.91 1380.41 1819.3 1387.77L1835.62 1401.68C1844.75 1388.02 1844.14 1358.86 1829.81 1341.34C1824.8 1334.93 1818.41 1329.74 1811.1 1326.16C1803.8 1322.58 1795.79 1320.7 1787.65 1320.66Z" fill="#313131"/>
<path d="M1691.81 1237.78C1691.2 1237.79 1690.62 1237.58 1690.16 1237.19C1689.69 1236.8 1689.38 1236.26 1689.28 1235.67C1689.18 1235.08 1689.29 1234.46 1689.59 1233.94C1689.9 1233.42 1690.38 1233.03 1690.95 1232.83C1715.08 1224.26 1718.2 1196.98 1718.22 1196.69C1718.29 1196.02 1718.63 1195.41 1719.16 1194.98C1719.68 1194.56 1720.36 1194.36 1721.03 1194.43C1721.7 1194.5 1722.31 1194.84 1722.74 1195.36C1723.16 1195.88 1723.36 1196.55 1723.29 1197.22C1723.17 1198.47 1719.87 1227.98 1692.7 1237.64C1692.41 1237.73 1692.11 1237.78 1691.81 1237.78Z" fill="#313131"/>
<path d="M1721.13 1276.06H1720.72C1720.05 1276.05 1719.4 1275.77 1718.93 1275.28C1718.45 1274.8 1718.19 1274.15 1718.2 1273.47C1718.2 1273.14 1718.27 1272.81 1718.4 1272.5C1718.53 1272.19 1718.72 1271.91 1718.96 1271.68C1719.2 1271.45 1719.48 1271.26 1719.79 1271.14C1720.1 1271.02 1720.43 1270.96 1720.76 1270.96C1742.26 1271.14 1756.19 1251.77 1756.31 1251.57C1756.74 1251.14 1757.3 1250.89 1757.9 1250.84C1758.5 1250.8 1759.1 1250.96 1759.59 1251.31C1760.08 1251.67 1760.42 1252.18 1760.57 1252.76C1760.72 1253.35 1760.65 1253.96 1760.39 1254.5C1759.88 1255.38 1745.18 1276.06 1721.13 1276.06Z" fill="#313131"/>
<path d="M1614.17 977.918C1613.45 977.916 1612.75 977.63 1612.23 977.122C1611.77 976.624 1611.43 976.023 1611.23 975.368C1611.04 974.782 1611.07 974.146 1611.31 973.577C1611.55 973.009 1611.99 972.547 1612.55 972.278C1613.1 972.009 1613.74 971.951 1614.33 972.114C1614.93 972.277 1615.44 972.651 1615.78 973.166C1616.31 973.982 1617.56 975.919 1615.78 977.387C1615.32 977.738 1614.75 977.925 1614.17 977.918ZM1615.84 973.533L1615.48 973.9L1616.01 973.717L1615.84 973.533Z" fill="#313131"/>
<path d="M1606.16 918.513C1606.16 918.513 1610.97 967.456 1613.58 974.532C1608.95 967.599 1574.65 920.981 1574.65 920.981L1533.7 929.627L1541.86 887.638L1505.15 863.758L1542.2 850.992L1534.37 833.699C1534.37 833.699 1572.41 842.346 1574.45 843.141C1601.69 860.414 1624.8 883.465 1642.15 910.662L1644.19 933.706L1606.16 918.513Z" fill="white"/>
<path d="M1613.64 977.02C1613.24 977.013 1612.84 976.908 1612.48 976.712C1612.13 976.517 1611.82 976.237 1611.6 975.898C1607.52 969.78 1579.34 931.401 1573.71 923.754L1534.29 932.156C1533.88 932.239 1533.45 932.219 1533.04 932.098C1532.64 931.977 1532.27 931.759 1531.97 931.462C1531.67 931.167 1531.45 930.802 1531.32 930.4C1531.2 929.998 1531.17 929.571 1531.25 929.158L1539.17 888.841L1503.95 865.879C1503.55 865.62 1503.23 865.252 1503.03 864.818C1502.83 864.385 1502.76 863.904 1502.83 863.431C1502.89 862.969 1503.09 862.534 1503.39 862.175C1503.69 861.815 1504.08 861.544 1504.52 861.392L1538.86 849.483L1532.19 834.759C1531.99 834.326 1531.92 833.846 1531.98 833.374C1532.04 832.902 1532.24 832.456 1532.54 832.088C1532.84 831.725 1533.24 831.452 1533.68 831.297C1534.13 831.143 1534.61 831.113 1535.07 831.211C1541.45 832.659 1573.41 839.939 1575.51 840.775C1575.65 840.822 1575.79 840.891 1575.91 840.979C1603.46 858.468 1626.84 881.788 1644.39 909.295C1644.61 909.639 1644.74 910.031 1644.78 910.437L1646.82 933.461C1646.87 933.895 1646.8 934.335 1646.63 934.736C1646.45 935.137 1646.18 935.486 1645.83 935.749C1645.48 936.011 1645.07 936.179 1644.63 936.236C1644.2 936.292 1643.76 936.236 1643.35 936.071L1608.95 922.387C1610.54 938.029 1613.93 968.536 1615.8 973.614C1615.95 973.999 1616 974.413 1615.95 974.821C1615.9 975.23 1615.75 975.619 1615.51 975.957C1615.28 976.294 1614.96 976.569 1614.6 976.758C1614.23 976.947 1613.83 977.044 1613.42 977.04L1613.64 977.02ZM1574.71 918.37C1575.11 918.375 1575.5 918.472 1575.85 918.652C1576.21 918.833 1576.51 919.092 1576.75 919.41C1577.83 920.878 1597.73 947.96 1608.87 963.397C1606.52 947.552 1604.02 922.408 1603.67 918.696C1603.62 918.261 1603.69 917.822 1603.86 917.421C1604.04 917.021 1604.32 916.673 1604.67 916.412C1605.02 916.151 1605.43 915.985 1605.86 915.927C1606.29 915.87 1606.73 915.925 1607.14 916.086L1641.58 929.77L1639.91 911.416C1622.81 884.891 1600.16 862.39 1573.53 845.465C1571.18 844.752 1552.91 840.51 1538.98 837.308L1544.69 849.911C1544.83 850.233 1544.9 850.58 1544.9 850.931C1544.9 851.281 1544.83 851.628 1544.69 851.95C1544.56 852.278 1544.35 852.574 1544.09 852.816C1543.83 853.059 1543.52 853.243 1543.18 853.357L1511.04 864.41L1543.33 885.456C1543.75 885.737 1544.08 886.136 1544.28 886.604C1544.47 887.073 1544.52 887.588 1544.43 888.087L1536.94 926.303L1574.12 918.451C1574.32 918.42 1574.51 918.413 1574.71 918.431V918.37Z" fill="#313131"/>
<path d="M1537.84 911.354C1537.24 911.353 1536.66 911.139 1536.2 910.75C1535.74 910.362 1535.43 909.823 1535.33 909.229C1535.23 908.636 1535.34 908.027 1535.65 907.509C1535.96 906.991 1536.44 906.598 1537 906.399C1537.58 906.195 1594.74 885.741 1605.81 833.189C1608.95 817.753 1607.02 801.716 1600.3 787.468C1577.71 795.89 1553.4 793.361 1543.69 784.001C1538.43 778.882 1537.58 772.112 1541.41 764.913C1548.26 751.903 1559.76 747.151 1572.83 751.882C1584.48 756.104 1595.47 766.83 1602.89 780.901C1604.93 780.024 1606.83 779.046 1608.75 777.965C1623.27 769.808 1646.11 749.415 1635.93 705.244C1629.81 679.018 1615.95 657.749 1595.57 643.045C1569.67 673.043 1532.03 696.658 1497.36 704.673C1463.1 712.565 1439.47 703.469 1434.14 680.303C1430.64 665.172 1435.35 651.06 1447.74 639.517C1472.22 616.616 1522.02 608.928 1563.43 621.572C1574.48 624.904 1585.01 629.778 1594.7 636.051C1619.8 605.053 1634.24 565.736 1624.55 523.625C1615.86 485.918 1582.2 471.5 1551.95 466.341C1538.39 521.198 1481.15 580.704 1427.56 604.523C1389.28 621.551 1356.63 619.369 1335.62 598.405C1318.41 581.214 1314.23 561.882 1323.53 542.549C1335.09 518.486 1367.21 495.217 1411.67 478.699C1455.51 462.385 1503.15 455.553 1542.37 459.917C1544.28 460.142 1546.18 460.366 1548.04 460.631C1549.48 453.611 1550.05 446.439 1549.73 439.28C1548.18 409.486 1529.34 388.461 1493.38 376.755C1413.99 350.856 1348.59 377.122 1307.81 403.715C1249.65 441.584 1215.08 497.012 1212.49 522.483C1212.46 522.816 1212.36 523.14 1212.2 523.435C1212.04 523.73 1211.83 523.991 1211.57 524.203C1211.31 524.415 1211.01 524.574 1210.69 524.671C1210.37 524.768 1210.03 524.8 1209.7 524.767C1209.37 524.733 1209.04 524.634 1208.75 524.476C1208.45 524.317 1208.19 524.102 1207.98 523.843C1207.77 523.583 1207.61 523.285 1207.51 522.964C1207.41 522.643 1207.38 522.306 1207.41 521.973C1210.51 491.587 1248.71 436.119 1305.04 399.452C1346.82 372.248 1413.73 345.371 1495.02 371.902C1542.43 387.38 1553.75 416.929 1554.87 439.015C1555.22 446.537 1554.63 454.074 1553.09 461.447C1595.63 468.727 1621.98 489.711 1629.55 522.625C1641.15 573.016 1620.19 613.231 1598.96 639.171C1620.17 654.567 1634.69 676.775 1640.99 704.163C1651.9 751.617 1627.08 773.601 1611.32 782.472C1609.28 783.593 1607.24 784.613 1605.2 785.551C1612.18 800.794 1614.16 817.852 1610.87 834.29C1599.18 889.697 1539.33 911.049 1538.74 911.273C1538.44 911.345 1538.14 911.373 1537.84 911.354ZM1563.33 755.227C1556.13 755.227 1550.1 759.305 1545.92 767.299C1543.18 772.459 1543.63 776.843 1547.24 780.351C1555.4 788.365 1577.55 790.302 1597.98 782.879C1590.78 769.706 1580.48 760.08 1571.1 756.695C1568.62 755.758 1565.99 755.261 1563.33 755.227ZM1521.34 620.634C1493.45 620.634 1466.77 628.689 1451.09 643.331C1440.1 653.527 1435.92 666.008 1438.98 679.263C1443.63 699.309 1465 706.977 1496.08 699.799C1528.89 692.213 1565.13 670.453 1591.21 640.088C1582.07 634.222 1572.16 629.658 1561.76 626.527C1548.65 622.593 1535.03 620.607 1521.34 620.634ZM1518.26 463.751C1440.97 463.751 1348.84 501.478 1328.02 544.772C1319.62 562.228 1323.37 579.073 1339.11 594.837C1358.53 614.23 1389.18 616.066 1425.39 599.955C1477.7 576.687 1533.66 518.812 1546.83 465.648C1545.1 465.403 1543.39 465.199 1541.72 464.995C1533.93 464.154 1526.1 463.738 1518.26 463.751Z" fill="#313131"/>
<path d="M1254.93 1185.11C1257.01 1185.11 1258.7 1183.42 1258.7 1181.34C1258.7 1179.25 1257.01 1177.56 1254.93 1177.56C1252.85 1177.56 1251.16 1179.25 1251.16 1181.34C1251.16 1183.42 1252.85 1185.11 1254.93 1185.11Z" fill="#313131"/>
<path d="M1325.75 1206.34C1327.84 1206.34 1329.53 1204.65 1329.53 1202.57C1329.53 1200.48 1327.84 1198.79 1325.75 1198.79C1323.67 1198.79 1321.98 1200.48 1321.98 1202.57C1321.98 1204.65 1323.67 1206.34 1325.75 1206.34Z" fill="#313131"/>
<path d="M1519.08 1216.74C1521.16 1216.74 1522.85 1215.05 1522.85 1212.97C1522.85 1210.88 1521.16 1209.19 1519.08 1209.19C1517 1209.19 1515.31 1210.88 1515.31 1212.97C1515.31 1215.05 1517 1216.74 1519.08 1216.74Z" fill="#313131"/>
<path d="M1418.97 1216.74C1421.05 1216.74 1422.74 1215.05 1422.74 1212.97C1422.74 1210.88 1421.05 1209.19 1418.97 1209.19C1416.89 1209.19 1415.2 1210.88 1415.2 1212.97C1415.2 1215.05 1416.89 1216.74 1418.97 1216.74Z" fill="#313131"/>
<path d="M1519.61 1319.78C1521.69 1319.78 1523.38 1318.09 1523.38 1316.01C1523.38 1313.93 1521.69 1312.24 1519.61 1312.24C1517.53 1312.24 1515.84 1313.93 1515.84 1316.01C1515.84 1318.09 1517.53 1319.78 1519.61 1319.78Z" fill="#313131"/>
<path d="M1522.83 1432.86C1524.92 1432.86 1526.6 1431.17 1526.6 1429.09C1526.6 1427.01 1524.92 1425.32 1522.83 1425.32C1520.75 1425.32 1519.06 1427.01 1519.06 1429.09C1519.06 1431.17 1520.75 1432.86 1522.83 1432.86Z" fill="#313131"/>
<path d="M1564.19 1212.97C1566.27 1212.97 1567.96 1211.28 1567.96 1209.19C1567.96 1207.11 1566.27 1205.42 1564.19 1205.42C1562.1 1205.42 1560.42 1207.11 1560.42 1209.19C1560.42 1211.28 1562.1 1212.97 1564.19 1212.97Z" fill="#313131"/>
<path d="M1648.59 1188.92C1650.68 1188.92 1652.37 1187.23 1652.37 1185.15C1652.37 1183.07 1650.68 1181.38 1648.59 1181.38C1646.51 1181.38 1644.82 1183.07 1644.82 1185.15C1644.82 1187.23 1646.51 1188.92 1648.59 1188.92Z" fill="#313131"/>
<path d="M1564.74 1316.01C1566.82 1316.01 1568.51 1314.32 1568.51 1312.24C1568.51 1310.15 1566.82 1308.46 1564.74 1308.46C1562.66 1308.46 1560.97 1310.15 1560.97 1312.24C1560.97 1314.32 1562.66 1316.01 1564.74 1316.01Z" fill="#313131"/>
<path d="M1567.96 1429.09C1570.04 1429.09 1571.73 1427.4 1571.73 1425.32C1571.73 1423.23 1570.04 1421.54 1567.96 1421.54C1565.88 1421.54 1564.19 1423.23 1564.19 1425.32C1564.19 1427.4 1565.88 1429.09 1567.96 1429.09Z" fill="#313131"/>
<path d="M1255.32 1449.95C1257.4 1449.95 1259.09 1448.26 1259.09 1446.18C1259.09 1444.1 1257.4 1442.41 1255.32 1442.41C1253.23 1442.41 1251.54 1444.1 1251.54 1446.18C1251.54 1448.26 1253.23 1449.95 1255.32 1449.95Z" fill="#313131"/>
<path d="M1354.98 1474.5C1357.06 1474.5 1358.75 1472.82 1358.75 1470.73C1358.75 1468.65 1357.06 1466.96 1354.98 1466.96C1352.89 1466.96 1351.21 1468.65 1351.21 1470.73C1351.21 1472.82 1352.89 1474.5 1354.98 1474.5Z" fill="#313131"/>
<path d="M1356.02 1585.71C1358.1 1585.71 1359.79 1584.02 1359.79 1581.93C1359.79 1579.85 1358.1 1578.16 1356.02 1578.16C1353.93 1578.16 1352.25 1579.85 1352.25 1581.93C1352.25 1584.02 1353.93 1585.71 1356.02 1585.71Z" fill="#313131"/>
<path d="M1402.29 1482.07C1404.37 1482.07 1406.06 1480.38 1406.06 1478.3C1406.06 1476.21 1404.37 1474.53 1402.29 1474.53C1400.21 1474.53 1398.52 1476.21 1398.52 1478.3C1398.52 1480.38 1400.21 1482.07 1402.29 1482.07Z" fill="#313131"/>
<path d="M1403.31 1593.27C1405.39 1593.27 1407.08 1591.58 1407.08 1589.5C1407.08 1587.42 1405.39 1585.73 1403.31 1585.73C1401.23 1585.73 1399.54 1587.42 1399.54 1589.5C1399.54 1591.58 1401.23 1593.27 1403.31 1593.27Z" fill="#313131"/>
<path d="M1498.93 1482.82C1501.01 1482.82 1502.7 1481.14 1502.7 1479.05C1502.7 1476.97 1501.01 1475.28 1498.93 1475.28C1496.85 1475.28 1495.16 1476.97 1495.16 1479.05C1495.16 1481.14 1496.85 1482.82 1498.93 1482.82Z" fill="#313131"/>
<path d="M1591.29 1470.73C1593.37 1470.73 1595.06 1469.04 1595.06 1466.96C1595.06 1464.87 1593.37 1463.19 1591.29 1463.19C1589.21 1463.19 1587.52 1464.87 1587.52 1466.96C1587.52 1469.04 1589.21 1470.73 1591.29 1470.73Z" fill="#313131"/>
<path d="M1664.13 1442.41C1666.22 1442.41 1667.91 1440.72 1667.91 1438.63C1667.91 1436.55 1666.22 1434.86 1664.13 1434.86C1662.05 1434.86 1660.36 1436.55 1660.36 1438.63C1660.36 1440.72 1662.05 1442.41 1664.13 1442.41Z" fill="#313131"/>
<path d="M1437.88 922.081C1437.88 922.081 1364.99 940.699 1339.76 960.521C1314.54 980.343 1238.41 1110.49 1238.41 1110.49L1236.15 1077.66L1316.33 937.11L1412.77 914.576L1437.88 922.081Z" fill="#313131"/>
<path d="M1085.59 1061.61C1112.71 1030.33 1208.9 896.957 1301.92 847.301C1394.93 797.644 1445.3 802.538 1450.52 809.227C1455.74 815.916 1443.3 818.669 1443.3 818.669C1443.3 818.669 1485.51 811.001 1488.53 826.826C1490.84 838.858 1469.34 840.999 1469.34 840.999C1469.34 840.999 1489.04 843.956 1484.19 858.109C1478.7 874.056 1404.8 861.943 1368.95 893.307C1368.95 893.307 1452.56 884.599 1441.12 918.39C1436.59 931.727 1379.41 924.263 1335.48 951.141C1291.56 978.019 1183.84 1190.29 1183.84 1190.29L1098.19 1158.31L1085.59 1061.61Z" fill="white"/>
<path d="M1183.84 1192.86C1183.53 1192.86 1183.23 1192.8 1182.94 1192.7L1097.19 1160.72C1096.76 1160.56 1096.37 1160.29 1096.09 1159.93C1095.8 1159.57 1095.62 1159.14 1095.56 1158.68L1083.06 1061.96C1083.01 1061.59 1083.04 1061.22 1083.14 1060.87C1083.25 1060.52 1083.43 1060.19 1083.67 1059.92C1088.12 1054.8 1094.4 1046.93 1102.37 1036.98C1141.4 988.216 1222.69 886.741 1300.71 845.038C1391.7 796.441 1445.5 798.583 1452.54 807.637C1453.36 808.528 1453.92 809.621 1454.18 810.803C1454.44 811.986 1454.38 813.216 1454.01 814.367L1453.88 814.673C1467.46 813.449 1488.55 813.653 1491.04 826.358C1491.36 827.847 1491.35 829.388 1491.02 830.874C1490.68 832.36 1490.03 833.755 1489.1 834.964C1486.4 838.078 1482.86 840.344 1478.9 841.489C1481.74 842.852 1484.13 844.969 1485.84 847.607C1486.84 849.312 1487.44 851.226 1487.58 853.199C1487.73 855.173 1487.42 857.153 1486.67 858.986C1483.8 867.347 1468.87 869.04 1448.21 871.385C1425.27 873.975 1397.23 877.136 1377.45 890.167C1394.29 889.229 1430.47 888.984 1441.4 902.749C1445.03 907.297 1445.79 912.946 1443.6 919.288C1441.12 926.63 1428.92 928.465 1410.49 931.218C1389.6 934.358 1360.99 938.641 1336.89 953.385C1294.06 979.57 1187.27 1189.39 1186.19 1191.49C1185.96 1191.92 1185.62 1192.27 1185.21 1192.51C1184.8 1192.76 1184.32 1192.87 1183.84 1192.86ZM1100.41 1156.48L1182.6 1187.07C1194.4 1163.94 1291.92 974.757 1334.16 948.919C1359.14 933.645 1388.32 929.281 1409.61 926.079C1424.39 923.856 1437.16 922 1438.65 917.534C1440.26 912.803 1439.81 908.969 1437.3 905.829C1426.94 892.879 1384.61 894.185 1369.17 895.796C1368.63 895.863 1368.08 895.753 1367.61 895.483C1367.13 895.212 1366.76 894.796 1366.54 894.296C1366.32 893.796 1366.27 893.239 1366.4 892.708C1366.52 892.177 1366.82 891.701 1367.23 891.35C1388.32 872.996 1421.13 869.183 1447.5 866.205C1464.18 864.329 1479.9 862.555 1481.74 857.233C1482.23 856.104 1482.45 854.879 1482.38 853.652C1482.32 852.424 1481.97 851.228 1481.37 850.156C1478.76 845.853 1471.5 843.875 1468.91 843.488C1468.3 843.394 1467.74 843.079 1467.34 842.601C1466.94 842.124 1466.73 841.518 1466.75 840.896C1466.77 840.275 1467.01 839.681 1467.44 839.227C1467.86 838.773 1468.44 838.489 1469.06 838.43C1472.38 838.084 1481.72 836.248 1484.98 831.864C1485.48 831.218 1485.83 830.47 1486 829.672C1486.18 828.875 1486.17 828.049 1485.98 827.255C1483.94 816.365 1454.03 819.241 1443.71 821.137C1443.05 821.244 1442.39 821.094 1441.84 820.718C1441.3 820.342 1440.92 819.77 1440.79 819.122C1440.66 818.474 1440.79 817.801 1441.15 817.245C1441.51 816.688 1442.06 816.293 1442.71 816.141C1445.07 815.611 1448.64 814.102 1449.15 812.633C1449.31 812.185 1449.15 811.553 1448.48 810.757C1444.11 805.17 1394.68 800.561 1303.08 849.504C1225.93 890.759 1145.28 991.683 1106.35 1040.24C1098.78 1049.7 1092.72 1057.29 1088.26 1062.47L1100.41 1156.48Z" fill="#313131"/>
<path d="M1344.03 843.427C1343.43 843.422 1342.86 843.21 1342.4 842.825C1341.95 842.441 1341.64 841.91 1341.54 841.324C1341.43 840.738 1341.54 840.134 1341.83 839.617C1342.13 839.099 1342.59 838.702 1343.15 838.492C1369.23 828.846 1419.7 817.569 1443.07 816.06C1443.41 816.038 1443.75 816.083 1444.06 816.191C1444.38 816.3 1444.67 816.47 1444.92 816.691C1445.18 816.913 1445.38 817.182 1445.53 817.483C1445.68 817.784 1445.77 818.111 1445.79 818.446C1445.81 818.781 1445.76 819.116 1445.66 819.434C1445.55 819.751 1445.38 820.044 1445.16 820.296C1444.93 820.548 1444.67 820.754 1444.36 820.902C1444.06 821.05 1443.74 821.137 1443.4 821.158C1420.32 822.565 1370.58 833.7 1344.86 843.203C1344.6 843.321 1344.32 843.397 1344.03 843.427Z" fill="#313131"/>
<path d="M1358.14 860.779C1357.54 860.786 1356.97 860.584 1356.5 860.21C1356.04 859.835 1355.73 859.311 1355.61 858.728C1355.49 858.144 1355.58 857.539 1355.87 857.016C1356.15 856.493 1356.61 856.085 1357.16 855.864C1376.29 847.931 1445.32 834.39 1469.77 838.612C1470.1 838.668 1470.42 838.789 1470.7 838.967C1470.98 839.146 1471.23 839.378 1471.42 839.652C1471.62 839.926 1471.76 840.235 1471.83 840.562C1471.91 840.889 1471.92 841.228 1471.86 841.558C1471.8 841.889 1471.68 842.205 1471.5 842.49C1471.33 842.774 1471.09 843.02 1470.82 843.214C1470.55 843.408 1470.24 843.546 1469.91 843.621C1469.58 843.695 1469.24 843.705 1468.91 843.649C1445.18 839.57 1377.82 852.825 1359.12 860.575C1358.81 860.71 1358.48 860.78 1358.14 860.779Z" fill="#313131"/>
<path d="M1170.4 1386.92C1162.84 1409.76 1141.34 1424.62 1116.22 1427.29C1113.61 1427.56 1112.32 1424.28 1114.65 1423.21C1120.84 1420.55 1126.39 1416.6 1130.94 1411.63C1135.49 1406.66 1138.93 1400.78 1141.04 1394.38C1143.13 1388.54 1144.03 1382.33 1143.68 1376.14C1143.34 1369.94 1141.76 1363.88 1139.04 1358.3C1136.32 1352.72 1132.52 1347.74 1127.85 1343.66C1123.17 1339.57 1117.73 1336.46 1111.84 1334.51C1105.95 1332.56 1099.73 1331.8 1093.54 1332.29C1087.36 1332.78 1081.33 1334.5 1075.82 1337.35C1070.31 1340.2 1065.42 1344.12 1061.44 1348.88C1057.47 1353.65 1054.49 1359.16 1052.67 1365.1C1050.53 1371.48 1049.78 1378.26 1050.45 1384.96C1051.13 1391.67 1053.22 1398.15 1056.59 1403.98C1057.87 1406.19 1054.84 1408.06 1052.9 1406.21C1033.48 1388.28 1025.29 1362.02 1034.77 1338.36C1043.68 1316.13 1066.46 1302.16 1092.19 1300.88L1185.06 1020.62C1165.18 1004.2 1155.25 979.384 1161.37 956.259C1167.89 931.604 1190.16 915.473 1216.43 912.638C1219.06 912.373 1220.51 915.636 1218.06 916.717C1211.87 919.388 1206.33 923.342 1201.78 928.316C1197.23 933.29 1193.8 939.172 1191.69 945.573C1189.76 951.375 1188.99 957.5 1189.43 963.599C1189.86 969.699 1191.5 975.652 1194.24 981.12C1196.97 986.588 1200.76 991.463 1205.38 995.467C1210 999.472 1215.37 1002.53 1221.17 1004.46C1226.97 1006.39 1233.1 1007.16 1239.2 1006.72C1245.3 1006.28 1251.25 1004.65 1256.72 1001.91C1262.18 999.176 1267.06 995.389 1271.06 990.768C1275.07 986.146 1278.12 980.781 1280.05 974.979C1282.2 968.586 1282.95 961.81 1282.27 955.101C1281.59 948.393 1279.5 941.905 1276.12 936.07C1274.83 933.888 1277.83 931.991 1279.79 933.806C1298.35 950.936 1306.71 975.693 1299.14 998.533C1291.13 1022.7 1267.53 1037.95 1240.51 1039.32L1147.68 1319.31C1168.59 1336.46 1178.42 1362.79 1170.4 1386.92Z" fill="white"/>
<path d="M1115.93 1429.88C1114.82 1429.9 1113.73 1429.55 1112.84 1428.88C1111.94 1428.2 1111.3 1427.25 1111.02 1426.17C1110.75 1425.13 1110.87 1424.03 1111.35 1423.08C1111.83 1422.12 1112.65 1421.37 1113.65 1420.97C1119.26 1418.53 1124.32 1414.98 1128.52 1410.54C1132.73 1406.09 1135.99 1400.83 1138.11 1395.09C1140.23 1389.35 1141.16 1383.24 1140.85 1377.13C1140.55 1371.02 1139.01 1365.03 1136.33 1359.53C1133.79 1354.31 1130.23 1349.65 1125.86 1345.82C1121.49 1342 1116.4 1339.09 1110.88 1337.27C1105.37 1335.44 1099.55 1334.74 1093.76 1335.21C1087.97 1335.67 1082.34 1337.29 1077.19 1339.97C1071.75 1342.79 1066.94 1346.67 1063.05 1351.39C1059.16 1356.11 1056.26 1361.57 1054.53 1367.44C1052.8 1373.31 1052.28 1379.47 1052.99 1385.55C1053.71 1391.62 1055.65 1397.49 1058.69 1402.8C1059.26 1403.71 1059.47 1404.8 1059.28 1405.85C1059.1 1406.9 1058.53 1407.85 1057.69 1408.51C1056.73 1409.27 1055.53 1409.66 1054.32 1409.6C1053.1 1409.54 1051.94 1409.03 1051.06 1408.19C1030.18 1388.89 1022.82 1361.16 1032.3 1337.5C1041.27 1315.54 1063.71 1300.45 1090.32 1298.55L1182.09 1021.56C1161.94 1004.16 1152.84 978.509 1158.88 955.709C1165.41 931.075 1187.88 913.231 1216.12 910.213C1217.34 910.053 1218.57 910.342 1219.59 911.025C1220.6 911.709 1221.34 912.739 1221.65 913.924C1221.92 914.955 1221.81 916.05 1221.33 917.001C1220.85 917.953 1220.03 918.694 1219.04 919.084C1213.43 921.525 1208.37 925.077 1204.17 929.526C1199.97 933.974 1196.71 939.227 1194.59 944.969C1192.48 950.71 1191.54 956.82 1191.85 962.931C1192.16 969.042 1193.7 975.028 1196.38 980.527C1198.92 985.734 1202.48 990.38 1206.84 994.193C1211.2 998.007 1216.27 1000.91 1221.77 1002.73C1227.27 1004.55 1233.08 1005.26 1238.85 1004.8C1244.63 1004.35 1250.25 1002.74 1255.4 1000.08C1260.84 997.273 1265.65 993.39 1269.54 988.67C1273.44 983.95 1276.34 978.489 1278.06 972.619C1279.79 966.748 1280.31 960.588 1279.6 954.51C1278.88 948.432 1276.94 942.562 1273.9 937.254C1273.33 936.343 1273.12 935.255 1273.3 934.198C1273.49 933.141 1274.05 932.189 1274.89 931.523C1275.85 930.774 1277.04 930.393 1278.25 930.449C1279.46 930.505 1280.6 930.995 1281.48 931.829C1301.51 950.285 1309.2 976.123 1301.53 999.228C1293.62 1023.15 1270.49 1039.63 1242.39 1041.58L1150.62 1318.48C1172.03 1336.83 1180.72 1363.85 1172.81 1387.81C1165.14 1410.9 1143.56 1427.03 1116.48 1429.91L1115.93 1429.88ZM1097.27 1329.96C1106.37 1329.96 1115.29 1332.52 1123.01 1337.34C1130.72 1342.17 1136.93 1349.06 1140.91 1357.25C1143.82 1363.21 1145.52 1369.68 1145.92 1376.3C1146.32 1382.92 1145.41 1389.55 1143.25 1395.82C1141.08 1402.08 1137.7 1407.86 1133.3 1412.82C1128.9 1417.78 1123.57 1421.83 1117.6 1424.73C1141.89 1421.44 1161.12 1406.84 1167.98 1386.12C1175.4 1363.69 1166.79 1338.26 1146.07 1321.25C1145.67 1320.92 1145.38 1320.49 1145.24 1319.99C1145.09 1319.5 1145.1 1318.97 1145.26 1318.48L1238.11 1038.3C1238.27 1037.81 1238.57 1037.39 1238.98 1037.07C1239.39 1036.76 1239.88 1036.58 1240.39 1036.55C1267.19 1035.28 1289.33 1019.99 1296.72 997.596C1303.53 976.999 1296.98 953.976 1279.61 937.009C1285.61 948.88 1286.69 962.643 1282.59 975.302C1278.5 987.96 1269.57 998.487 1257.74 1004.59C1252 1007.56 1245.71 1009.36 1239.26 1009.86C1232.81 1010.37 1226.32 1009.59 1220.17 1007.55C1214.03 1005.51 1208.36 1002.27 1203.49 998.004C1198.62 993.742 1194.65 988.549 1191.81 982.73C1185.97 970.781 1185.07 957.005 1189.33 944.402C1193.59 931.798 1202.66 921.387 1214.55 915.433C1189.39 918.88 1169.69 934.97 1163.84 956.892C1158.19 978.264 1167.14 1002.51 1186.7 1018.64C1187.09 1018.97 1187.37 1019.41 1187.52 1019.91C1187.66 1020.4 1187.65 1020.93 1187.49 1021.42L1094.62 1301.8C1094.46 1302.28 1094.16 1302.71 1093.75 1303.02C1093.34 1303.33 1092.85 1303.51 1092.34 1303.53C1067.03 1304.79 1045.43 1318.87 1037.13 1339.4C1028.67 1360.49 1034.95 1385.24 1053.1 1402.99C1047.11 1391.12 1046.05 1377.37 1050.14 1364.72C1054.24 1352.07 1063.16 1341.55 1074.96 1335.45C1081.86 1331.88 1089.51 1330.01 1097.27 1330V1329.96Z" fill="#313131"/>
<path d="M531.452 842.833C531.452 842.833 281.843 900.26 255.332 964.66C228.822 1029.06 308.354 1212.96 308.354 1212.96L337.597 1488.88H447.719C447.719 1488.88 482.591 1557.48 531.33 1553.36C580.069 1549.24 699.693 1488.88 699.693 1488.88H866.079V1240.41L1054.53 1292.6L1166.36 1148.89C1166.36 1148.89 1133.29 1120.95 1118.56 1093.26C1112.45 1081.7 1099.84 1044.31 1099.84 1044.31L1096.17 1039.79C1096.17 1039.79 1075.41 1052.8 1062.81 1069.4C1054.65 1080.1 1048.02 1097.09 1048.02 1097.09L1052.23 1107.1L1036.34 1125.46C1036.34 1125.46 896.75 935.804 867.466 920.469C838.181 905.133 683.44 840.447 683.44 840.447L679.606 856.7C679.606 856.7 695.35 912.699 650.445 917.655C595.71 923.752 531.452 842.833 531.452 842.833Z" fill="white"/>
<path d="M527.129 1556.06C482.897 1556.06 451.471 1501.2 446.21 1491.39H337.597C336.969 1491.39 336.363 1491.16 335.893 1490.74C335.424 1490.33 335.123 1489.75 335.048 1489.13L305.825 1213.58C300.829 1202.02 226.701 1027.51 252.967 963.663C279.661 898.794 520.603 842.652 530.861 840.307C531.33 840.196 531.821 840.221 532.276 840.38C532.732 840.539 533.132 840.825 533.43 841.204C534.062 841.999 597.464 920.94 650.159 915.128C660.723 913.966 668.513 909.704 673.448 902.444C684.847 885.538 677.22 857.682 677.139 857.396C677.037 856.981 677.037 856.547 677.139 856.132L680.993 839.634C681.077 839.273 681.239 838.934 681.467 838.642C681.695 838.35 681.985 838.111 682.315 837.942C682.645 837.773 683.008 837.678 683.378 837.664C683.749 837.65 684.118 837.717 684.46 837.86C686.01 838.512 839.629 902.791 868.669 918.004C896.627 932.625 1019.07 1097.46 1036.52 1121.16L1047.98 1108L1045.56 1097.54C1045.44 1097.04 1045.48 1096.51 1045.68 1096.03C1045.94 1095.32 1052.53 1078.6 1060.79 1067.71C1073.6 1050.86 1095.25 1039.3 1096.15 1038.81C1096.68 1038.54 1097.28 1038.45 1097.86 1038.57C1098.44 1038.69 1098.96 1039.01 1099.33 1039.46L1101.86 1042.58C1102.08 1042.88 1102.25 1043.21 1102.35 1043.56C1102.35 1043.85 1109.61 1072.6 1122.74 1095.38C1134.23 1115.31 1149.56 1132.77 1167.83 1146.75C1168.12 1146.95 1168.37 1147.2 1168.55 1147.49C1168.74 1147.79 1168.86 1148.12 1168.91 1148.46C1168.97 1148.82 1168.96 1149.19 1168.87 1149.54C1168.78 1149.89 1168.63 1150.22 1168.4 1150.5L1056.57 1294.21C1056.26 1294.61 1055.83 1294.91 1055.35 1295.07C1054.87 1295.23 1054.35 1295.24 1053.86 1295.11L868.628 1243.76V1488.88C868.628 1489.56 868.359 1490.21 867.881 1490.68C867.403 1491.16 866.755 1491.43 866.079 1491.43H700.305C690.435 1496.41 579.192 1551.88 531.636 1555.89C530.126 1555.97 528.617 1556.06 527.129 1556.06ZM339.881 1486.29H447.841C448.312 1486.29 448.772 1486.43 449.172 1486.68C449.571 1486.92 449.894 1487.28 450.105 1487.7C450.452 1488.37 484.773 1554.71 531.289 1550.77C579.049 1546.7 697.43 1487.17 698.633 1486.58C698.984 1486.39 699.377 1486.29 699.775 1486.29H863.611V1240.42C863.61 1240.02 863.7 1239.63 863.873 1239.28C864.047 1238.93 864.299 1238.62 864.611 1238.38C864.926 1238.14 865.289 1237.98 865.674 1237.91C866.058 1237.84 866.454 1237.85 866.833 1237.95L1053.51 1289.7L1162.69 1149.38C1144.75 1135.22 1129.66 1117.77 1118.24 1097.97C1105.61 1076.05 1098.56 1049.66 1097.46 1045.4L1096.64 1044.38C1091.2 1047.52 1074.8 1057.63 1064.77 1070.89C1057.85 1079.96 1051.98 1093.93 1050.63 1097.26L1053.14 1108.21C1053.23 1108.6 1053.23 1109.01 1053.13 1109.39C1053.04 1109.78 1052.85 1110.15 1052.59 1110.45L1038.22 1126.99C1037.96 1127.28 1037.65 1127.51 1037.29 1127.66C1036.94 1127.81 1036.56 1127.88 1036.18 1127.87C1035.8 1127.85 1035.42 1127.75 1035.09 1127.57C1034.75 1127.39 1034.46 1127.14 1034.24 1126.83C1032.83 1124.93 894.67 937.479 866.222 922.592C839.527 908.623 706.199 852.624 685.194 843.814L682.217 856.703C683.42 861.291 689.517 887.761 677.689 905.319C671.918 913.884 662.843 918.901 650.73 920.247C648.644 920.468 646.547 920.577 644.449 920.573C593.732 920.573 538.855 855.969 530.453 845.67C509.367 850.666 282.292 905.788 257.678 965.641C231.901 1028.31 309.863 1210.13 310.699 1211.95C310.801 1212.19 310.863 1212.44 310.883 1212.7L339.881 1486.29Z" fill="#313131"/>
<path d="M727.02 1274.47C755.04 1269.94 1029 1200.32 1047.19 1185.86C1065.38 1171.41 1127.62 1096.63 1164.71 1082.47L1153.78 1115.45C1153.78 1115.45 1220.53 1085.51 1228.5 1106.96C1235.72 1126.38 1218.08 1139.29 1218.08 1139.29C1218.08 1139.29 1228.85 1139.43 1229.48 1153.32C1230.23 1170.04 1213.55 1178.46 1213.55 1178.46C1213.55 1178.46 1226.22 1178.63 1225.3 1194C1224.38 1209.38 1209.9 1218.47 1209.9 1218.47C1209.9 1218.47 1226.22 1222.98 1217.16 1240.17C1208.11 1257.36 1101.09 1306.37 1067.99 1322.46C1034.89 1338.55 759.567 1470.73 759.567 1470.73L672.775 1410.98L727.02 1274.47Z" fill="white"/>
<path d="M759.567 1473.28C759.049 1473.28 758.543 1473.13 758.119 1472.83L671.327 1413.08C670.852 1412.75 670.501 1412.27 670.331 1411.72C670.161 1411.17 670.181 1410.58 670.389 1410.04L724.654 1273.53C724.819 1273.11 725.096 1272.73 725.455 1272.46C725.814 1272.18 726.242 1272 726.693 1271.94C752.715 1267.74 1027.98 1197.93 1045.58 1183.86C1050.8 1179.78 1060.22 1169.91 1071.15 1158.6C1098.9 1129.76 1137.12 1090.26 1163.63 1080.08C1164.08 1079.91 1164.57 1079.87 1165.05 1079.97C1165.52 1080.07 1165.96 1080.3 1166.3 1080.63C1166.65 1080.96 1166.9 1081.39 1167.02 1081.85C1167.13 1082.32 1167.11 1082.81 1166.96 1083.27L1157.82 1110.88C1171.36 1105.31 1207.21 1091.83 1223.08 1098.52C1224.8 1099.17 1226.37 1100.18 1227.67 1101.48C1228.97 1102.78 1229.99 1104.34 1230.64 1106.06C1236.23 1121.09 1228.13 1132.58 1222.99 1137.98C1227.07 1140.02 1231.38 1144.34 1231.78 1153.19C1232.33 1165.43 1224.75 1173.38 1219.43 1177.5C1220.96 1178.25 1222.34 1179.28 1223.5 1180.54C1225.09 1182.4 1226.28 1184.57 1226.98 1186.91C1227.68 1189.25 1227.89 1191.71 1227.58 1194.14C1226.91 1205.77 1219.26 1213.92 1214.57 1217.88C1217.41 1219.5 1219.67 1221.98 1221.04 1224.95C1223.08 1229.6 1222.42 1235.15 1219.16 1241.27C1211.55 1255.73 1146.13 1287.79 1085.42 1316.72L1068.82 1324.68C1036.09 1340.56 763.258 1471.71 760.505 1473.03C760.21 1473.17 759.892 1473.26 759.567 1473.28ZM675.956 1410.06L759.852 1467.79C780.673 1457.8 1035.28 1335.4 1066.83 1320.09C1071.21 1318.05 1076.88 1315.25 1083.47 1312.13C1123.7 1292.97 1207.41 1253 1214.88 1238.92C1217.37 1234.17 1217.94 1230.18 1216.59 1227.01C1215.01 1224.08 1212.35 1221.88 1209.17 1220.9C1208.69 1220.76 1208.27 1220.5 1207.94 1220.13C1207.62 1219.76 1207.41 1219.3 1207.34 1218.81C1207.26 1218.32 1207.34 1217.83 1207.54 1217.38C1207.75 1216.93 1208.08 1216.55 1208.5 1216.29C1208.64 1216.29 1221.91 1207.7 1222.77 1193.86C1223.02 1192.13 1222.91 1190.37 1222.45 1188.69C1222 1187.01 1221.2 1185.43 1220.12 1184.07C1218.37 1182.28 1216.03 1181.2 1213.53 1181.03C1212.97 1181.02 1212.42 1180.82 1211.98 1180.46C1211.54 1180.1 1211.23 1179.61 1211.1 1179.06C1210.97 1178.51 1211.03 1177.93 1211.27 1177.41C1211.51 1176.9 1211.91 1176.48 1212.41 1176.22C1212.57 1176.22 1227.62 1168.28 1226.95 1153.44C1226.44 1142.1 1218.41 1141.85 1218.06 1141.85C1217.52 1141.85 1217.01 1141.67 1216.58 1141.35C1216.15 1141.03 1215.83 1140.59 1215.66 1140.08C1215.5 1139.57 1215.5 1139.02 1215.67 1138.51C1215.84 1138 1216.16 1137.56 1216.59 1137.25C1217.24 1136.78 1232.58 1125.21 1226.14 1107.86C1225.72 1106.8 1225.08 1105.83 1224.26 1105.04C1223.44 1104.24 1222.46 1103.63 1221.38 1103.25C1203.95 1095.95 1155.33 1117.53 1154.84 1117.79C1154.39 1117.99 1153.89 1118.06 1153.4 1117.98C1152.91 1117.9 1152.45 1117.68 1152.09 1117.34C1151.73 1117.01 1151.47 1116.58 1151.34 1116.1C1151.21 1115.62 1151.23 1115.12 1151.38 1114.65L1160.37 1087.14C1134.9 1099.84 1099.01 1137.02 1074.72 1162.14C1063.22 1174.07 1054.12 1183.5 1048.66 1187.86C1030.3 1202.62 762.891 1270.49 728.835 1276.75L675.956 1410.06Z" fill="#313131"/>
<path d="M1210.64 1146.83C1210.06 1146.83 1209.5 1146.64 1209.05 1146.28C1208.6 1145.93 1208.28 1145.43 1208.15 1144.87C1208.01 1144.31 1208.07 1143.72 1208.32 1143.2C1208.56 1142.68 1208.98 1142.25 1209.49 1142C1211.92 1140.58 1214.23 1138.99 1216.43 1137.25C1216.7 1137.04 1217 1136.9 1217.33 1136.81C1217.65 1136.73 1217.99 1136.71 1218.32 1136.76C1218.65 1136.8 1218.97 1136.91 1219.26 1137.08C1219.55 1137.25 1219.81 1137.48 1220.01 1137.75C1220.21 1138.01 1220.36 1138.32 1220.44 1138.64C1220.53 1138.97 1220.55 1139.31 1220.5 1139.64C1220.45 1139.97 1220.34 1140.29 1220.17 1140.58C1220 1140.87 1219.78 1141.12 1219.51 1141.33C1217.07 1143.27 1214.48 1145.02 1211.78 1146.57C1211.42 1146.74 1211.03 1146.83 1210.64 1146.83Z" fill="#313131"/>
<path d="M1207.86 1183.88C1207.3 1183.88 1206.75 1183.69 1206.3 1183.34C1205.85 1182.99 1205.54 1182.51 1205.4 1181.96C1205.26 1181.41 1205.31 1180.83 1205.54 1180.31C1205.77 1179.79 1206.16 1179.36 1206.66 1179.09C1206.66 1179.09 1208.7 1178.03 1212.31 1176.2C1212.61 1176.04 1212.93 1175.95 1213.27 1175.92C1213.6 1175.9 1213.94 1175.93 1214.26 1176.04C1214.58 1176.14 1214.88 1176.31 1215.13 1176.53C1215.39 1176.74 1215.6 1177.01 1215.75 1177.31C1215.9 1177.61 1215.99 1177.94 1216.02 1178.27C1216.04 1178.61 1216 1178.94 1215.89 1179.26C1215.79 1179.58 1215.62 1179.88 1215.4 1180.13C1215.18 1180.39 1214.91 1180.59 1214.61 1180.74C1211 1182.56 1209.11 1183.58 1209.09 1183.58C1208.71 1183.78 1208.29 1183.89 1207.86 1183.88Z" fill="#313131"/>
<path d="M1203.25 1225.32C1202.69 1225.31 1202.15 1225.12 1201.71 1224.77C1201.27 1224.42 1200.95 1223.94 1200.81 1223.4C1200.67 1222.86 1200.71 1222.28 1200.93 1221.76C1201.14 1221.24 1201.52 1220.81 1202.01 1220.53C1204.18 1219.3 1206.27 1217.94 1208.27 1216.45C1208.81 1216.1 1209.47 1215.97 1210.1 1216.09C1210.74 1216.2 1211.31 1216.56 1211.69 1217.07C1212.08 1217.59 1212.25 1218.24 1212.18 1218.88C1212.11 1219.52 1211.8 1220.11 1211.31 1220.53C1209.1 1222.16 1206.8 1223.65 1204.42 1225C1204.06 1225.2 1203.66 1225.31 1203.25 1225.32Z" fill="#313131"/>
<path d="M640.085 941.331C567.894 941.331 506.43 854.641 503.657 850.644C503.286 850.09 503.148 849.412 503.272 848.756C503.395 848.101 503.771 847.52 504.318 847.138C504.865 846.757 505.54 846.605 506.198 846.715C506.856 846.825 507.445 847.189 507.837 847.728C508.551 848.748 580.517 950.264 656.705 934.541C674.345 930.911 686.499 922.733 692.801 910.273C706.403 883.395 689.028 845.016 688.844 844.588C688.56 843.974 688.532 843.272 688.765 842.637C688.999 842.003 689.475 841.486 690.088 841.202C690.702 840.918 691.404 840.89 692.039 841.123C692.673 841.357 693.19 841.833 693.474 842.446C694.249 844.119 712.051 883.518 697.369 912.557C690.313 926.506 676.976 935.581 657.725 939.537C651.921 940.729 646.01 941.33 640.085 941.331Z" fill="#313131"/>
<path d="M447.841 1491.39C447.37 1491.39 446.908 1491.26 446.505 1491.02C446.102 1490.77 445.774 1490.42 445.557 1490L306.029 1214.11C305.855 1213.81 305.744 1213.47 305.703 1213.13C305.662 1212.78 305.692 1212.43 305.791 1212.1C305.891 1211.77 306.057 1211.46 306.28 1211.19C306.504 1210.92 306.779 1210.71 307.09 1210.55C307.401 1210.39 307.74 1210.3 308.087 1210.28C308.434 1210.26 308.782 1210.31 309.108 1210.43C309.435 1210.55 309.734 1210.74 309.986 1210.98C310.239 1211.22 310.44 1211.5 310.577 1211.82L450.023 1487.7C450.224 1488.09 450.32 1488.52 450.305 1488.95C450.289 1489.39 450.161 1489.81 449.933 1490.18C449.706 1490.55 449.386 1490.86 449.005 1491.07C448.624 1491.28 448.195 1491.39 447.76 1491.39H447.841Z" fill="#313131"/>
<path d="M604.703 1310.65C604.218 1310.65 603.742 1310.52 603.334 1310.26C602.925 1309.99 602.6 1309.62 602.399 1309.18L509.142 1110.72C508.898 1110.11 508.895 1109.44 509.133 1108.83C509.372 1108.22 509.833 1107.73 510.423 1107.45C511.014 1107.18 511.687 1107.14 512.306 1107.34C512.925 1107.55 513.442 1107.98 513.751 1108.55L607.008 1307.02C607.189 1307.41 607.27 1307.83 607.243 1308.26C607.215 1308.69 607.081 1309.1 606.851 1309.47C606.621 1309.83 606.304 1310.13 605.929 1310.33C605.553 1310.54 605.132 1310.65 604.703 1310.65Z" fill="#313131"/>
<path d="M563.734 1317.58L649.731 1297.7C649.731 1297.7 672.408 1276.51 695.696 1269.33C718.985 1262.15 742.498 1263.58 742.947 1270.13C742.947 1270.13 731.628 1274.74 744.986 1365.75C758.343 1456.76 784.099 1458.94 784.099 1458.94C784.099 1458.94 785.078 1462.49 781.571 1467.22C778.063 1471.96 705.933 1493.73 705.933 1493.73L699.693 1488.88L575.643 1455.6L563.734 1317.58Z" fill="white"/>
<path d="M705.913 1496.26C705.342 1496.27 704.787 1496.07 704.343 1495.71L698.225 1490.86C697.684 1490.44 697.331 1489.83 697.243 1489.15C697.155 1488.47 697.34 1487.79 697.756 1487.25C698.172 1486.71 698.787 1486.36 699.464 1486.27C700.141 1486.18 700.825 1486.36 701.366 1486.78L706.545 1490.86C739.867 1480.78 776.513 1468.59 779.695 1465.57C780.769 1464.21 781.472 1462.6 781.734 1460.88C774.719 1458.29 753.735 1443.81 742.457 1366.12C731.873 1293.78 736.564 1274.49 740.173 1269.41C739.942 1269.05 739.628 1268.74 739.256 1268.52C734.565 1265.21 718.373 1265.09 697.654 1271.37C682.449 1276.27 667.764 1282.66 653.809 1290.44L652.28 1298.19C652.231 1298.53 652.113 1298.86 651.933 1299.15C651.753 1299.45 651.515 1299.71 651.233 1299.91C650.951 1300.11 650.632 1300.25 650.293 1300.32C649.955 1300.39 649.606 1300.4 649.266 1300.33C648.927 1300.26 648.604 1300.13 648.318 1299.93C648.033 1299.74 647.79 1299.49 647.604 1299.19C647.419 1298.9 647.295 1298.58 647.24 1298.23C647.184 1297.89 647.199 1297.54 647.284 1297.21L649.017 1288.3C649.088 1287.94 649.234 1287.6 649.445 1287.31C649.656 1287.01 649.927 1286.77 650.241 1286.58C664.855 1278.41 680.246 1271.72 696.186 1266.6C716.681 1260.38 735.177 1259.52 742.192 1264.44C743.158 1265.05 743.965 1265.88 744.546 1266.87C745.127 1267.85 745.467 1268.96 745.537 1270.11C745.558 1270.56 745.459 1271.01 745.252 1271.41C745.044 1271.81 744.734 1272.15 744.354 1272.39C743.579 1273.25 735.626 1284.3 747.494 1365.48C760.179 1452.21 784.201 1456.5 784.365 1456.52C784.869 1456.58 785.343 1456.79 785.73 1457.12C786.118 1457.45 786.401 1457.89 786.547 1458.37C786.669 1458.86 787.729 1463.29 783.59 1468.83C779.98 1473.71 728.529 1489.64 706.647 1496.24C706.405 1496.29 706.157 1496.3 705.913 1496.26Z" fill="#313131"/>
<path d="M699.693 1491.39C698.996 1491.39 698.329 1491.11 697.838 1490.61C632.05 1421.28 643.389 1321.78 646.631 1300.96L537.57 1326.19C537.235 1326.29 536.883 1326.32 536.535 1326.28C536.188 1326.24 535.852 1326.13 535.548 1325.96C535.245 1325.78 534.981 1325.55 534.773 1325.27C534.565 1324.98 534.417 1324.66 534.339 1324.32C534.26 1323.98 534.252 1323.63 534.316 1323.28C534.38 1322.94 534.515 1322.61 534.711 1322.32C534.907 1322.03 535.16 1321.79 535.456 1321.6C535.751 1321.41 536.082 1321.29 536.428 1321.23L649.2 1295.15C649.62 1295.06 650.055 1295.07 650.468 1295.19C650.881 1295.3 651.258 1295.52 651.566 1295.82C651.871 1296.12 652.096 1296.49 652.221 1296.89C652.346 1297.3 652.366 1297.73 652.28 1298.15C652.055 1299.29 629.99 1411.74 701.549 1487.03C702.01 1487.52 702.258 1488.18 702.239 1488.85C702.22 1489.53 701.935 1490.17 701.447 1490.64C700.985 1491.11 700.354 1491.38 699.693 1491.39Z" fill="#313131"/>
<path d="M691.985 1429.88C691.496 1429.88 691.017 1429.74 690.605 1429.48C690.194 1429.21 689.866 1428.84 689.66 1428.4C663.639 1371.13 671.306 1298.15 671.429 1297.41C671.504 1296.74 671.844 1296.12 672.374 1295.7C672.904 1295.28 673.58 1295.08 674.253 1295.16C674.926 1295.23 675.542 1295.57 675.965 1296.1C676.387 1296.63 676.582 1297.31 676.506 1297.98C676.506 1298.7 668.879 1370.32 694.309 1426.3C694.586 1426.91 694.608 1427.61 694.371 1428.24C694.134 1428.87 693.658 1429.38 693.045 1429.66C692.712 1429.81 692.35 1429.89 691.985 1429.88Z" fill="#313131"/>
<path d="M744.966 1466.86C744.579 1466.87 744.194 1466.79 743.841 1466.63C743.488 1466.47 743.175 1466.24 742.926 1465.94C707.524 1422.56 705.587 1345.62 705.526 1342.46C705.52 1342.13 705.581 1341.79 705.704 1341.48C705.827 1341.17 706.01 1340.89 706.243 1340.65C706.476 1340.41 706.754 1340.21 707.062 1340.08C707.369 1339.95 707.699 1339.88 708.034 1339.87C708.369 1339.86 708.702 1339.92 709.014 1340.04C709.327 1340.16 709.612 1340.34 709.853 1340.57C710.095 1340.8 710.287 1341.08 710.42 1341.39C710.552 1341.69 710.621 1342.02 710.624 1342.36C710.624 1343.13 712.663 1420.73 746.883 1462.68C747.167 1463.06 747.34 1463.51 747.382 1463.98C747.425 1464.45 747.335 1464.92 747.123 1465.35C746.911 1465.77 746.586 1466.13 746.183 1466.37C745.781 1466.62 745.317 1466.76 744.843 1466.76L744.966 1466.86Z" fill="#313131"/>
<path d="M981.176 1182.46C980.497 1182.45 979.846 1182.18 979.361 1181.7C978.887 1181.22 978.621 1180.57 978.621 1179.9C978.621 1179.22 978.887 1178.58 979.361 1178.09L1034.52 1123.46C1034.76 1123.23 1035.04 1123.04 1035.36 1122.91C1035.67 1122.79 1036 1122.72 1036.33 1122.72C1036.67 1122.73 1037 1122.79 1037.31 1122.92C1037.62 1123.05 1037.9 1123.24 1038.13 1123.48C1038.37 1123.72 1038.56 1124 1038.68 1124.31C1038.81 1124.62 1038.87 1124.96 1038.87 1125.29C1038.87 1125.63 1038.8 1125.96 1038.67 1126.27C1038.54 1126.58 1038.35 1126.86 1038.11 1127.09L982.951 1181.7C982.721 1181.94 982.445 1182.13 982.14 1182.26C981.835 1182.39 981.508 1182.46 981.176 1182.46Z" fill="#313131"/>
<path d="M866.079 1242.96C865.403 1242.96 864.754 1242.69 864.276 1242.22C863.798 1241.74 863.53 1241.09 863.53 1240.41V1125.28C863.53 1124.6 863.798 1123.95 864.276 1123.47C864.754 1123 865.403 1122.73 866.079 1122.73C866.755 1122.73 867.403 1123 867.881 1123.47C868.359 1123.95 868.628 1124.6 868.628 1125.28V1240.41C868.628 1241.09 868.359 1241.74 867.881 1242.22C867.403 1242.69 866.755 1242.96 866.079 1242.96Z" fill="#313131"/>
<path d="M1070.37 1165.53C1069.88 1165.53 1069.4 1165.39 1068.99 1165.12C1068.57 1164.86 1068.25 1164.47 1068.05 1164.02C1060.51 1146.17 1053.91 1127.93 1048.27 1109.39C1048.16 1109.06 1048.12 1108.71 1048.15 1108.37C1048.18 1108.02 1048.28 1107.69 1048.44 1107.38C1048.61 1107.08 1048.83 1106.81 1049.11 1106.59C1049.38 1106.38 1049.69 1106.22 1050.03 1106.13C1050.36 1106.04 1050.71 1106.02 1051.05 1106.07C1051.4 1106.12 1051.73 1106.24 1052.02 1106.42C1052.32 1106.6 1052.57 1106.84 1052.77 1107.12C1052.97 1107.4 1053.11 1107.73 1053.18 1108.06C1058.75 1126.36 1065.27 1144.35 1072.7 1161.96C1072.97 1162.58 1072.99 1163.28 1072.75 1163.91C1072.51 1164.54 1072.03 1165.05 1071.41 1165.33C1071.08 1165.46 1070.73 1165.53 1070.37 1165.53Z" fill="#313131"/>
<path d="M1087.46 1147.91C1087.03 1147.91 1086.59 1147.8 1086.21 1147.59C1085.83 1147.37 1085.51 1147.06 1085.28 1146.69C1076.72 1132.62 1065.54 1098.52 1065.05 1097.07C1064.84 1096.43 1064.9 1095.73 1065.21 1095.13C1065.52 1094.53 1066.05 1094.07 1066.69 1093.86C1067.34 1093.65 1068.04 1093.71 1068.64 1094.02C1069.24 1094.33 1069.7 1094.86 1069.91 1095.5C1070.03 1095.85 1081.39 1130.48 1089.65 1144.04C1089.82 1144.33 1089.94 1144.64 1089.99 1144.97C1090.04 1145.31 1090.03 1145.64 1089.95 1145.97C1089.87 1146.3 1089.72 1146.6 1089.52 1146.87C1089.33 1147.14 1089.08 1147.37 1088.79 1147.55C1088.39 1147.79 1087.93 1147.91 1087.46 1147.91Z" fill="#313131"/>
<path d="M1109.49 1126.13C1109.08 1126.12 1108.68 1126 1108.33 1125.8C1107.97 1125.6 1107.67 1125.31 1107.45 1124.97C1104.12 1119.75 1101.34 1114.19 1099.17 1108.39C1099.04 1108.07 1098.98 1107.73 1098.99 1107.39C1099 1107.05 1099.08 1106.72 1099.22 1106.41C1099.36 1106.1 1099.56 1105.82 1099.81 1105.58C1100.06 1105.35 1100.35 1105.17 1100.67 1105.06C1100.99 1104.94 1101.34 1104.89 1101.68 1104.91C1102.02 1104.93 1102.35 1105.01 1102.66 1105.16C1102.96 1105.31 1103.24 1105.52 1103.46 1105.78C1103.68 1106.03 1103.86 1106.33 1103.96 1106.66C1106 1112.08 1108.6 1117.28 1111.71 1122.18C1111.96 1122.55 1112.09 1122.99 1112.12 1123.44C1112.14 1123.89 1112.04 1124.34 1111.83 1124.74C1111.63 1125.14 1111.32 1125.48 1110.94 1125.73C1110.56 1125.97 1110.12 1126.11 1109.67 1126.13H1109.49Z" fill="#313131"/>
<path d="M513.71 1114.43L621.65 1304.18L604.703 1308.1L513.71 1114.43Z" fill="#313131"/>
<path d="M866.079 1128.82V1240.41L879.701 1236.82L866.079 1128.82Z" fill="#313131"/>
<path d="M649.18 1301.04C649.18 1301.04 638.698 1353.02 653.748 1403.37C663.39 1434.58 678.994 1463.62 699.693 1488.88L689.864 1493.76C669.888 1468.55 655.574 1439.34 647.895 1408.11C635.456 1354.45 649.18 1301.04 649.18 1301.04Z" fill="#313131"/>
<path d="M1049.21 1110.49L1070.37 1162.98L1065.54 1167.98L1049.21 1110.49Z" fill="#313131"/>
<path d="M1161.84 1276.61L1158.17 1287.68L1031.81 1348.52L1034.77 1338.46L1161.84 1276.61Z" fill="#313131"/>
<path d="M847.195 1550.77C847.195 1550.77 853.088 1571.51 850.519 1582.67H856.514C857.438 1571.46 856.333 1560.18 853.252 1549.37L847.195 1550.77Z" fill="#313131"/>
<path d="M1780.39 1318.62C1769.73 1320.21 1759.49 1323.9 1750.27 1329.49L1747.36 1323.27C1747.36 1323.27 1761.63 1313.07 1779.11 1312.44L1780.39 1318.62Z" fill="#313131"/>
<path d="M1676.63 1158.33L1689.79 1167.63C1690.63 1177.42 1690.24 1187.27 1688.63 1196.96C1686.77 1207.09 1683.98 1217.02 1680.26 1226.63L1676.63 1224.87V1158.33Z" fill="#313131"/>
</svg>
