<svg width="2000" height="2000" viewBox="0 0 2000 2000" fill="none" xmlns="http://www.w3.org/2000/svg">
<path d="M1209.99 1029.58C1213.39 1039.09 1179.72 1059.85 1134.79 1075.95C1089.86 1092.04 1050.65 1097.38 1047.35 1087.87C1044.06 1078.37 1079.57 1061.64 1124.52 1045.55C1169.47 1029.45 1206.58 1020.05 1209.99 1029.58Z" fill="#313131"/>
<path d="M1061.77 1095.38C1051.93 1095.38 1046.07 1093.14 1044.59 1088.82C1043.11 1084.49 1038.99 1073.12 1123.47 1042.9C1142.64 1035.71 1162.26 1029.8 1182.21 1025.21C1201 1021.33 1210.39 1022.39 1212.63 1028.62C1217.86 1043.19 1169.5 1066.49 1135.73 1078.59C1116.33 1085.78 1096.26 1091.04 1075.83 1094.29C1071.17 1094.97 1066.47 1095.34 1061.77 1095.38ZM1199.9 1028.57C1194.31 1028.77 1188.76 1029.52 1183.33 1030.82C1163.64 1035.35 1144.27 1041.18 1125.35 1048.28C1062.71 1070.7 1048.59 1083.44 1049.89 1087.04C1050.49 1088.77 1056.61 1091.37 1075.06 1088.84C1095.12 1085.66 1114.81 1080.49 1133.85 1073.41C1185.41 1054.89 1209.18 1035.73 1207.34 1030.64C1207.3 1030.39 1206.53 1028.57 1199.9 1028.57Z" fill="#313131"/>
<path d="M1569.45 867.96L1713.16 851.281L1683.12 592.408L1539.41 609.087L1569.45 867.96Z" fill="white"/>
<path d="M1569.45 870.758C1568.82 870.762 1568.21 870.548 1567.72 870.153C1567.14 869.686 1566.76 869.01 1566.67 868.27L1536.58 609.408C1536.54 609.042 1536.56 608.672 1536.67 608.318C1536.77 607.964 1536.94 607.633 1537.17 607.345C1537.4 607.058 1537.68 606.818 1538 606.641C1538.32 606.464 1538.68 606.353 1539.05 606.314L1682.76 589.633C1683.49 589.551 1684.23 589.765 1684.81 590.227C1685.39 590.69 1685.77 591.363 1685.85 592.1L1715.94 850.961C1716.02 851.698 1715.81 852.438 1715.35 853.018C1714.88 853.598 1714.21 853.971 1713.47 854.055L1569.78 870.736L1569.45 870.758ZM1542.54 611.56L1571.94 864.906L1710.09 848.876L1680.67 595.53L1542.54 611.56Z" fill="#313131"/>
<path d="M1601.75 660.01C1590.85 659.861 1580.12 662.785 1570.79 668.446C1561.47 674.108 1553.92 682.279 1549.02 692.025L1542.3 633.733L1618.75 644.114L1601.75 660.01Z" fill="#313131"/>
<path d="M1549.02 694.738H1548.53C1547.95 694.619 1547.41 694.319 1547.01 693.88C1546.61 693.441 1546.36 692.886 1546.29 692.295L1539.56 634.002C1539.52 633.593 1539.58 633.179 1539.72 632.792C1539.86 632.405 1540.08 632.053 1540.37 631.76C1540.68 631.46 1541.05 631.235 1541.46 631.103C1541.86 630.971 1542.3 630.935 1542.72 630.998L1619.17 641.401C1619.7 641.475 1620.19 641.695 1620.59 642.037C1621 642.378 1621.3 642.827 1621.46 643.331C1621.61 643.835 1621.63 644.374 1621.49 644.885C1621.36 645.397 1621.09 645.86 1620.7 646.221L1603.73 662.028C1603.45 662.288 1603.12 662.488 1602.76 662.616C1602.4 662.743 1602.02 662.795 1601.64 662.767C1591.27 662.606 1581.06 665.386 1572.2 670.786C1563.34 676.186 1556.19 683.986 1551.58 693.281C1551.33 693.739 1550.96 694.118 1550.51 694.375C1550.06 694.633 1549.54 694.759 1549.02 694.738ZM1545.55 637.052L1550.93 683.506C1556.54 675.477 1563.98 668.902 1572.64 664.325C1581.3 659.747 1590.93 657.3 1600.72 657.185L1612.56 646.177L1545.55 637.052Z" fill="#313131"/>
<path d="M1512.88 606.315C1511.2 618.298 1514.34 630.458 1521.62 640.127C1528.89 649.795 1539.71 656.18 1551.69 657.881C1551.69 657.881 1593.77 673.933 1623.68 650.325C1643.5 634.631 1666.17 653.441 1669.71 628.466L1687.65 502.555C1689.32 490.569 1686.17 478.409 1678.89 468.741C1671.61 459.074 1660.8 452.689 1648.81 450.989L1582.45 441.572C1570.46 439.89 1558.3 443.035 1548.63 450.316C1538.96 457.597 1532.58 468.419 1530.88 480.404L1527.34 504.169L1500.98 550.578L1519.74 557.753L1512.88 606.315Z" fill="white"/>
<path d="M1584.33 664.919C1573.14 664.838 1561.99 663.423 1551.13 660.704C1538.44 658.85 1526.99 652.045 1519.31 641.776C1511.62 631.507 1508.31 618.612 1510.1 605.91L1516.65 559.657L1499.97 553.29C1499.59 553.143 1499.25 552.917 1498.97 552.627C1498.69 552.337 1498.47 551.99 1498.34 551.61C1498.2 551.23 1498.15 550.824 1498.18 550.422C1498.22 550.019 1498.34 549.629 1498.53 549.277L1524.63 503.338L1527.97 479.976C1529.79 467.25 1536.58 455.764 1546.86 448.042C1557.14 440.32 1570.06 436.992 1582.79 438.791L1649.13 448.117C1661.86 449.923 1673.36 456.711 1681.09 466.991C1688.82 477.27 1692.16 490.198 1690.36 502.934L1676.64 599.565C1676.61 599.947 1676.5 600.319 1676.32 600.659C1676.14 600.998 1675.9 601.297 1675.6 601.537C1675.3 601.778 1674.96 601.954 1674.59 602.056C1674.22 602.157 1673.83 602.182 1673.45 602.128C1673.07 602.074 1672.71 601.943 1672.38 601.743C1672.05 601.543 1671.77 601.277 1671.55 600.963C1671.33 600.65 1671.18 600.294 1671.1 599.918C1671.02 599.543 1671.02 599.155 1671.1 598.78L1684.8 502.15C1685.59 496.573 1685.28 490.895 1683.87 485.44C1682.47 479.985 1680 474.86 1676.62 470.359C1673.23 465.857 1668.99 462.067 1664.14 459.205C1659.29 456.342 1653.92 454.464 1648.34 453.678L1582 444.261C1570.74 442.674 1559.31 445.618 1550.22 452.449C1541.13 459.279 1535.12 469.437 1533.51 480.694L1530.12 504.593C1530.06 504.938 1529.95 505.27 1529.79 505.58L1505.01 549.142L1520.71 555.151C1521.3 555.382 1521.8 555.807 1522.12 556.356C1522.44 556.905 1522.57 557.547 1522.48 558.177L1515.62 606.627C1514.82 612.203 1515.13 617.882 1516.53 623.337C1517.93 628.793 1520.39 633.919 1523.78 638.422C1527.16 642.925 1531.4 646.716 1536.25 649.577C1541.1 652.439 1546.47 654.315 1552.05 655.099H1552.39C1552.86 655.211 1599.78 667.609 1621.89 648.126C1622.45 647.696 1623.16 647.494 1623.86 647.563C1624.57 647.632 1625.22 647.966 1625.69 648.498C1626.16 649.03 1626.41 649.72 1626.39 650.429C1626.37 651.138 1626.09 651.814 1625.59 652.319C1614.56 662.206 1598.64 664.919 1584.33 664.919Z" fill="#313131"/>
<path d="M1617.96 563.783C1607.78 563.492 1607.47 550.712 1609.13 533.628C1611.37 511.455 1605.5 507.329 1542 493.676C1471.07 478.408 1535.01 412.246 1535.01 412.246C1535.01 412.246 1528.12 442.042 1572.16 441.392C1612.74 440.809 1675.29 442.132 1689.19 467.153C1696.93 481.008 1691.12 500.626 1689.19 532.171C1685.89 584.791 1684.71 611.448 1684.71 611.448L1648.34 587.19L1617.96 563.783Z" fill="#313131"/>
<path d="M1684.75 614.025C1684.19 614.026 1683.65 613.862 1683.18 613.555L1646.84 589.363L1616.93 566.562C1614.16 566.376 1611.57 565.103 1609.74 563.02C1605.05 557.706 1604.98 547.326 1606.35 533.403C1608.19 514.458 1606.48 510.445 1541.33 496.455C1522.19 492.329 1510.62 484.124 1506.92 472.017C1498.94 445.83 1531.58 411.662 1532.9 410.227C1533.33 409.794 1533.89 409.512 1534.49 409.423C1535.09 409.334 1535.7 409.443 1536.24 409.734C1536.77 410.026 1537.2 410.483 1537.45 411.037C1537.7 411.591 1537.77 412.212 1537.63 412.806C1537.14 415.601 1537.23 418.467 1537.9 421.225C1538.57 423.983 1539.8 426.574 1541.51 428.836C1546.91 435.562 1557.21 438.701 1572.02 438.521C1616.44 437.849 1677.17 439.934 1691.55 465.694C1697.53 476.389 1696.03 489.751 1694.06 508.292C1693.29 515.377 1692.42 523.381 1691.82 532.259C1688.56 584.229 1687.33 611.223 1687.33 611.492C1687.31 611.987 1687.15 612.467 1686.89 612.884C1686.62 613.301 1686.25 613.641 1685.81 613.868C1685.47 613.986 1685.11 614.039 1684.75 614.025ZM1532.09 419.801C1523.46 430.293 1507.21 453.094 1512.48 470.335C1515.53 480.357 1525.68 487.285 1542.7 490.939C1603.82 504.078 1614.44 508.449 1612.02 533.896C1611.01 544.187 1610.48 555.218 1614.02 559.253C1614.54 559.822 1615.17 560.271 1615.88 560.569C1616.59 560.867 1617.35 561.007 1618.12 560.98C1618.71 560.999 1619.29 561.202 1619.76 561.562L1650.18 584.745L1682.26 606.178C1682.74 596.157 1683.99 571.113 1686.46 531.789C1687.02 522.821 1687.89 514.705 1688.7 507.575C1690.58 490.132 1691.95 477.532 1686.86 468.385C1672.44 442.579 1597.07 443.723 1572.32 444.059C1555.61 444.328 1543.84 440.337 1537.32 432.266C1534.44 428.683 1532.63 424.363 1532.09 419.801Z" fill="#313131"/>
<path d="M1565.28 536.43C1564.66 536.429 1564.05 536.222 1563.56 535.84C1563.07 535.459 1562.72 534.925 1562.56 534.322C1558.33 517.754 1539.36 516.184 1539.16 516.162C1538.79 516.137 1538.43 516.038 1538.1 515.871C1537.77 515.704 1537.47 515.473 1537.23 515.191C1536.99 514.909 1536.81 514.582 1536.7 514.229C1536.59 513.876 1536.55 513.504 1536.58 513.135C1536.63 512.395 1536.97 511.706 1537.53 511.219C1538.09 510.731 1538.82 510.485 1539.56 510.535C1539.81 510.535 1562.77 512.463 1567.99 532.955C1568.17 533.674 1568.06 534.437 1567.69 535.076C1567.31 535.715 1566.69 536.178 1565.97 536.362C1565.74 536.407 1565.51 536.429 1565.28 536.43Z" fill="#313131"/>
<path d="M1542.97 538.83C1545.17 538.83 1546.96 537.043 1546.96 534.839C1546.96 532.635 1545.17 530.849 1542.97 530.849C1540.77 530.849 1538.98 532.635 1538.98 534.839C1538.98 537.043 1540.77 538.83 1542.97 538.83Z" fill="#313131"/>
<path d="M1655.11 574.744C1658.42 559.827 1653.19 545.977 1643.42 543.81C1633.65 541.643 1623.05 551.979 1619.74 566.896C1616.43 581.813 1621.67 595.662 1631.44 597.829C1641.2 599.996 1651.8 589.661 1655.11 574.744Z" fill="white"/>
<path d="M1640.85 599.028C1640.35 599.034 1639.85 598.901 1639.42 598.644C1638.98 598.387 1638.63 598.016 1638.39 597.57C1638.04 596.915 1637.96 596.148 1638.17 595.434C1638.38 594.721 1638.86 594.119 1639.51 593.759C1645.43 590.575 1650.34 583.042 1652.33 574.097C1655.25 560.958 1650.85 548.314 1642.76 546.52C1634.67 544.726 1625.34 554.322 1622.43 567.46C1622.35 567.828 1622.21 568.178 1622 568.489C1621.79 568.801 1621.53 569.067 1621.21 569.273C1620.9 569.478 1620.55 569.619 1620.18 569.687C1619.81 569.755 1619.43 569.748 1619.07 569.667C1618.7 569.586 1618.36 569.433 1618.05 569.216C1617.75 568.999 1617.49 568.723 1617.29 568.405C1617.09 568.086 1616.96 567.731 1616.9 567.361C1616.85 566.991 1616.86 566.613 1616.96 566.25C1620.65 549.569 1632.51 538.516 1643.86 541.05C1655.2 543.583 1661.39 558.649 1657.69 575.307C1655.45 585.822 1649.37 594.768 1642 598.714C1641.64 598.899 1641.25 599.006 1640.85 599.028Z" fill="#313131"/>
<path d="M1634.67 572.056C1634.19 572.058 1633.73 571.938 1633.31 571.71C1632.89 571.481 1632.54 571.151 1632.29 570.75C1632.04 570.349 1631.89 569.89 1631.86 569.417C1631.83 568.944 1631.93 568.471 1632.13 568.043L1636.89 558.246C1637.05 557.915 1637.27 557.618 1637.55 557.374C1637.82 557.129 1638.14 556.941 1638.49 556.82C1638.84 556.699 1639.2 556.648 1639.57 556.67C1639.94 556.691 1640.3 556.785 1640.63 556.945C1640.96 557.106 1641.26 557.33 1641.5 557.605C1641.75 557.88 1641.93 558.2 1642.06 558.548C1642.18 558.896 1642.23 559.264 1642.21 559.631C1642.18 559.999 1642.09 560.358 1641.93 560.69L1639.19 566.339H1640.07C1640.81 566.327 1641.53 566.606 1642.07 567.118C1642.61 567.629 1642.93 568.331 1642.96 569.075C1642.97 569.443 1642.91 569.809 1642.77 570.152C1642.64 570.496 1642.44 570.81 1642.19 571.076C1641.93 571.343 1641.63 571.557 1641.29 571.706C1640.96 571.855 1640.59 571.936 1640.23 571.944L1634.73 572.079L1634.67 572.056Z" fill="#313131"/>
<path d="M1542.88 589.363C1539.8 589.382 1536.73 588.959 1533.78 588.108C1533.43 587.99 1533.11 587.805 1532.83 587.562C1532.55 587.32 1532.32 587.026 1532.16 586.696C1531.83 586.029 1531.78 585.259 1532.02 584.554C1532.25 583.85 1532.76 583.268 1533.43 582.938C1534.1 582.608 1534.87 582.557 1535.57 582.794C1536.31 583.041 1553.06 588.354 1562.86 572.459C1563.05 572.145 1563.3 571.873 1563.6 571.657C1563.9 571.441 1564.23 571.286 1564.59 571.2C1564.95 571.115 1565.32 571.101 1565.69 571.159C1566.05 571.217 1566.4 571.347 1566.71 571.539C1567.02 571.732 1567.3 571.985 1567.51 572.283C1567.73 572.581 1567.88 572.919 1567.97 573.277C1568.05 573.635 1568.07 574.007 1568.01 574.37C1567.95 574.734 1567.82 575.082 1567.63 575.396C1565.14 579.729 1561.52 583.311 1557.17 585.769C1552.81 588.226 1547.88 589.468 1542.88 589.363Z" fill="#313131"/>
<path d="M1569.96 577.796H1569.54C1567.34 577.471 1565.33 576.362 1563.88 574.672C1562.43 572.983 1561.65 570.827 1561.67 568.603C1561.67 567.86 1561.96 567.147 1562.49 566.622C1563.01 566.096 1563.73 565.801 1564.47 565.801C1565.21 565.801 1565.92 566.096 1566.45 566.622C1566.98 567.147 1567.27 567.86 1567.27 568.603C1567.24 569.497 1567.55 570.37 1568.13 571.05C1568.71 571.73 1569.52 572.169 1570.41 572.28C1571.1 572.404 1571.71 572.777 1572.13 573.329C1572.56 573.88 1572.76 574.57 1572.71 575.264C1572.65 575.957 1572.34 576.605 1571.83 577.081C1571.32 577.558 1570.66 577.828 1569.96 577.84V577.796Z" fill="#313131"/>
<path d="M1275.68 1575.31H128.803V1604.99H1275.68V1575.31Z" fill="white"/>
<path d="M1275.65 1607.79H128.803C128.059 1607.79 127.346 1607.5 126.821 1606.97C126.295 1606.45 126 1605.73 126 1604.99V1575.31C126 1574.56 126.295 1573.85 126.821 1573.32C127.346 1572.8 128.059 1572.5 128.803 1572.5H1275.65C1276.4 1572.5 1277.11 1572.8 1277.64 1573.32C1278.16 1573.85 1278.46 1574.56 1278.46 1575.31V1604.99C1278.46 1605.73 1278.16 1606.45 1277.64 1606.97C1277.11 1607.5 1276.4 1607.79 1275.65 1607.79ZM131.605 1602.19H1272.78V1578.09H131.605V1602.19Z" fill="#313131"/>
<path d="M1125.66 1350.32H692.846V1575.33H1125.66V1350.32Z" fill="#21A2FF"/>
<path d="M1125.66 1578.09H692.958C692.215 1578.09 691.502 1577.79 690.976 1577.27C690.451 1576.74 690.155 1576.03 690.155 1575.28V1350.32C690.155 1349.58 690.451 1348.87 690.976 1348.34C691.502 1347.81 692.215 1347.52 692.958 1347.52H1125.66C1126.41 1347.52 1127.12 1347.81 1127.65 1348.34C1128.17 1348.87 1128.47 1349.58 1128.47 1350.32V1575.31C1128.46 1576.05 1128.16 1576.75 1127.64 1577.27C1127.11 1577.8 1126.4 1578.09 1125.66 1578.09ZM695.648 1572.48H1122.86V1353.12H695.648V1572.48Z" fill="#313131"/>
<path d="M1075.76 1550.4H739.816C739.073 1550.4 738.36 1550.1 737.835 1549.58C737.309 1549.05 737.014 1548.34 737.014 1547.6V1397.38C737.014 1396.64 737.309 1395.93 737.835 1395.4C738.36 1394.88 739.073 1394.58 739.816 1394.58H1075.76C1076.5 1394.58 1077.21 1394.88 1077.74 1395.4C1078.27 1395.93 1078.56 1396.64 1078.56 1397.38V1547.6C1078.56 1548.34 1078.27 1549.05 1077.74 1549.58C1077.21 1550.1 1076.5 1550.4 1075.76 1550.4ZM742.619 1544.79H1072.96V1400.14H742.619V1544.79Z" fill="#313131"/>
<path d="M785.933 1447.18C793.573 1447.18 799.766 1440.98 799.766 1433.34C799.766 1425.7 793.573 1419.51 785.933 1419.51C778.293 1419.51 772.1 1425.7 772.1 1433.34C772.1 1440.98 778.293 1447.18 785.933 1447.18Z" fill="white"/>
<path d="M854.874 1447.18C862.514 1447.18 868.707 1440.98 868.707 1433.34C868.707 1425.7 862.514 1419.51 854.874 1419.51C847.234 1419.51 841.041 1425.7 841.041 1433.34C841.041 1440.98 847.234 1447.18 854.874 1447.18Z" fill="white"/>
<path d="M785.933 1449.98C782.642 1449.98 779.426 1449 776.69 1447.18C773.955 1445.35 771.822 1442.75 770.563 1439.71C769.304 1436.67 768.975 1433.33 769.617 1430.1C770.258 1426.87 771.843 1423.91 774.169 1421.58C776.496 1419.25 779.46 1417.67 782.687 1417.03C785.914 1416.39 789.259 1416.72 792.299 1417.98C795.339 1419.23 797.937 1421.37 799.765 1424.1C801.593 1426.84 802.568 1430.05 802.568 1433.34C802.562 1437.75 800.808 1441.98 797.689 1445.1C794.571 1448.22 790.343 1449.97 785.933 1449.98ZM785.933 1422.31C783.751 1422.31 781.618 1422.96 779.804 1424.17C777.99 1425.39 776.576 1427.11 775.742 1429.12C774.907 1431.14 774.688 1433.36 775.114 1435.5C775.539 1437.64 776.59 1439.6 778.133 1441.14C779.675 1442.69 781.641 1443.74 783.781 1444.16C785.92 1444.59 788.138 1444.37 790.154 1443.54C792.169 1442.7 793.892 1441.29 795.104 1439.47C796.316 1437.66 796.963 1435.53 796.963 1433.34C796.957 1430.42 795.793 1427.62 793.726 1425.55C791.658 1423.48 788.856 1422.32 785.933 1422.31Z" fill="#313131"/>
<path d="M854.875 1449.98C851.584 1449.98 848.365 1449.01 845.626 1447.19C842.888 1445.36 840.752 1442.77 839.49 1439.73C838.227 1436.69 837.894 1433.34 838.534 1430.11C839.173 1426.88 840.756 1423.92 843.081 1421.59C845.407 1419.26 848.371 1417.67 851.599 1417.03C854.826 1416.39 858.172 1416.71 861.213 1417.97C864.254 1419.23 866.854 1421.36 868.683 1424.1C870.512 1426.84 871.488 1430.05 871.488 1433.34C871.482 1437.75 869.731 1441.98 866.617 1445.09C863.503 1448.21 859.281 1449.97 854.875 1449.98ZM854.875 1422.31C852.692 1422.31 850.557 1422.95 848.74 1424.16C846.924 1425.37 845.506 1427.09 844.668 1429.11C843.83 1431.12 843.608 1433.34 844.031 1435.48C844.454 1437.62 845.503 1439.59 847.045 1441.14C848.586 1442.68 850.552 1443.73 852.692 1444.16C854.833 1444.59 857.052 1444.37 859.068 1443.54C861.085 1442.7 862.809 1441.29 864.023 1439.48C865.236 1437.66 865.883 1435.53 865.883 1433.34C865.883 1430.42 864.724 1427.62 862.66 1425.55C860.596 1423.48 857.796 1422.32 854.875 1422.31Z" fill="#313131"/>
<path d="M923.794 1447.18C931.434 1447.18 937.627 1440.98 937.627 1433.34C937.627 1425.7 931.434 1419.51 923.794 1419.51C916.154 1419.51 909.961 1425.7 909.961 1433.34C909.961 1440.98 916.154 1447.18 923.794 1447.18Z" fill="#FFA620"/>
<path d="M923.794 1449.98C920.504 1449.98 917.287 1449 914.552 1447.18C911.816 1445.35 909.684 1442.75 908.425 1439.71C907.165 1436.67 906.836 1433.33 907.478 1430.1C908.12 1426.87 909.704 1423.91 912.031 1421.58C914.357 1419.25 917.321 1417.67 920.548 1417.03C923.775 1416.39 927.12 1416.72 930.16 1417.98C933.2 1419.23 935.798 1421.37 937.626 1424.1C939.454 1426.84 940.43 1430.05 940.43 1433.34C940.424 1437.75 938.669 1441.98 935.55 1445.1C932.432 1448.22 928.204 1449.97 923.794 1449.98ZM923.794 1422.31C921.612 1422.31 919.48 1422.96 917.666 1424.17C915.852 1425.39 914.438 1427.11 913.603 1429.12C912.768 1431.14 912.549 1433.36 912.975 1435.5C913.401 1437.64 914.451 1439.6 915.994 1441.14C917.537 1442.69 919.502 1443.74 921.642 1444.16C923.782 1444.59 926 1444.37 928.015 1443.54C930.031 1442.7 931.753 1441.29 932.966 1439.47C934.178 1437.66 934.825 1435.53 934.825 1433.34C934.819 1430.42 933.654 1427.62 931.587 1425.55C929.52 1423.48 926.718 1422.32 923.794 1422.31Z" fill="#313131"/>
<path d="M1026.97 1502.49H771.675C770.931 1502.49 770.218 1502.19 769.693 1501.67C769.167 1501.14 768.872 1500.43 768.872 1499.69V1474.26C768.872 1473.52 769.167 1472.81 769.693 1472.28C770.218 1471.75 770.931 1471.46 771.675 1471.46H1026.97C1027.71 1471.46 1028.43 1471.75 1028.95 1472.28C1029.48 1472.81 1029.77 1473.52 1029.77 1474.26V1499.62C1029.78 1499.99 1029.72 1500.36 1029.58 1500.71C1029.44 1501.06 1029.24 1501.38 1028.98 1501.64C1028.72 1501.91 1028.4 1502.12 1028.06 1502.27C1027.72 1502.41 1027.35 1502.49 1026.97 1502.49ZM774.477 1496.88H1024.17V1477.06H774.477V1496.88Z" fill="#313131"/>
<path d="M183.847 896.985L150.741 912.303L340.176 1321.71L373.281 1306.4L183.847 896.985Z" fill="#FFA620"/>
<path d="M514.482 717.406L494.647 686.793L153.479 907.842L173.314 938.456L514.482 717.406Z" fill="#FFA620"/>
<path d="M701.682 1005.95L730.336 983.377L495.311 685.035L466.657 707.608L701.682 1005.95Z" fill="#FFA620"/>
<path d="M953.118 1081.07L963.966 1046.24L708.809 966.766L697.962 1001.59L953.118 1081.07Z" fill="#FFA620"/>
<path d="M340.2 1324.52C339.662 1324.52 339.135 1324.37 338.682 1324.07C338.229 1323.78 337.868 1323.37 337.645 1322.88L148.218 913.468C148.074 913.132 148 912.77 148 912.403C148 912.037 148.074 911.675 148.218 911.339C148.338 910.99 148.53 910.67 148.781 910.4C149.031 910.13 149.336 909.915 149.675 909.769L182.767 894.434C183.443 894.127 184.212 894.099 184.908 894.355C185.605 894.611 186.172 895.13 186.489 895.801L375.916 1305.21C376.224 1305.89 376.255 1306.65 376.004 1307.35C375.752 1308.05 375.237 1308.61 374.57 1308.94L341.456 1324.25C341.064 1324.44 340.634 1324.53 340.2 1324.52ZM154.473 913.67L341.591 1318.02L369.593 1305.03L182.408 900.711L154.473 913.67Z" fill="#313131"/>
<path d="M173.261 941.202C172.813 941.184 172.375 941.059 171.985 940.836C171.594 940.614 171.263 940.301 171.019 939.924L151.021 909.321C150.62 908.696 150.483 907.938 150.64 907.213C150.713 906.852 150.858 906.509 151.066 906.205C151.274 905.901 151.54 905.641 151.85 905.442L493.038 684.403C493.664 684.004 494.422 683.867 495.148 684.022C495.873 684.178 496.509 684.612 496.917 685.232L516.736 715.858C516.936 716.165 517.073 716.509 517.14 716.87C517.206 717.23 517.201 717.6 517.124 717.959C517.047 718.317 516.9 718.657 516.691 718.958C516.482 719.259 516.215 719.516 515.907 719.714L174.786 940.753C174.333 941.051 173.803 941.207 173.261 941.202ZM157.298 908.626L174.091 934.633L510.548 716.665L493.778 690.748L157.298 908.626Z" fill="#313131"/>
<path d="M701.656 1008.84C701.225 1008.85 700.798 1008.75 700.41 1008.57C700.021 1008.38 699.681 1008.11 699.414 1007.77L464.407 709.447C463.951 708.862 463.742 708.122 463.824 707.384C463.917 706.643 464.295 705.968 464.878 705.501L493.531 682.946C493.817 682.717 494.146 682.546 494.499 682.444C494.852 682.342 495.221 682.311 495.586 682.353C495.951 682.395 496.303 682.508 496.624 682.687C496.945 682.866 497.227 683.106 497.454 683.395L732.506 981.716C732.737 982.003 732.907 982.333 733.008 982.688C733.108 983.042 733.135 983.413 733.089 983.778C732.996 984.519 732.618 985.195 732.035 985.662L703.404 1008.24C702.905 1008.63 702.29 1008.84 701.656 1008.84ZM470.55 708.191L702.126 1002.12L726.385 983.016L494.786 689.09L470.55 708.191Z" fill="#313131"/>
<path d="M953.164 1083.93C952.875 1083.93 952.587 1083.88 952.312 1083.79L697.172 1004.34C696.821 1004.23 696.494 1004.05 696.211 1003.82C695.928 1003.58 695.694 1003.3 695.523 1002.97C695.352 1002.65 695.248 1002.29 695.215 1001.92C695.182 1001.56 695.223 1001.19 695.334 1000.84L706.162 966.021C706.385 965.309 706.879 964.713 707.539 964.365C708.198 964.016 708.969 963.942 709.682 964.16L964.867 1043.62C965.576 1043.84 966.167 1044.34 966.515 1045C966.863 1045.65 966.939 1046.42 966.728 1047.14L955.899 1081.95C955.676 1082.66 955.185 1083.26 954.532 1083.61C954.108 1083.83 953.639 1083.94 953.164 1083.93ZM701.499 999.83L951.415 1077.63L960.607 1048.15L710.803 970.348L701.499 999.83Z" fill="#313131"/>
<path d="M972.468 1181.72L968.41 1163.12C973.13 1162.19 977.617 1160.33 981.609 1157.64C985.601 1154.96 989.017 1151.51 991.656 1147.48C994.296 1143.46 996.106 1138.96 996.981 1134.23C997.856 1129.5 997.777 1124.64 996.751 1119.94C995.724 1115.24 993.769 1110.79 991.002 1106.86C988.234 1102.92 984.708 1099.58 980.632 1097.03C976.556 1094.47 972.011 1092.76 967.263 1091.98C962.516 1091.21 957.662 1091.39 952.985 1092.52L948.927 1073.91C963.224 1070.79 978.176 1073.47 990.494 1081.37C1002.81 1089.28 1011.48 1101.75 1014.61 1116.05C1017.73 1130.34 1015.04 1145.3 1007.14 1157.61C999.237 1169.93 986.765 1178.6 972.468 1181.72Z" fill="#FFA620"/>
<path d="M918.997 1180.33C912.108 1177.74 905.807 1173.79 900.468 1168.72C895.128 1163.65 890.857 1157.56 887.907 1150.81C884.956 1144.07 883.385 1136.8 883.287 1129.44C883.189 1122.08 884.565 1114.77 887.335 1107.95C890.105 1101.12 894.212 1094.93 899.415 1089.72C904.617 1084.51 910.81 1080.39 917.628 1077.61C924.446 1074.83 931.752 1073.44 939.114 1073.53C946.476 1073.62 953.747 1075.18 960.497 1078.12L953.322 1095.74C944.48 1092.33 934.651 1092.53 925.953 1096.29C917.256 1100.06 910.385 1107.09 906.821 1115.87C903.258 1124.65 903.287 1134.48 906.902 1143.25C910.517 1152.01 917.429 1159 926.149 1162.71L918.997 1180.33Z" fill="#FFA620"/>
<path d="M972.469 1184.53C971.824 1184.53 971.198 1184.31 970.699 1183.9C970.2 1183.49 969.859 1182.92 969.734 1182.28L965.676 1163.68C965.594 1163.32 965.583 1162.95 965.645 1162.59C965.706 1162.22 965.839 1161.88 966.035 1161.57C966.44 1160.94 967.076 1160.5 967.806 1160.34C976.432 1158.45 983.958 1153.22 988.733 1145.79C993.507 1138.37 995.141 1129.35 993.275 1120.72C991.374 1112.1 986.141 1104.59 978.719 1099.82C971.296 1095.04 962.287 1093.4 953.659 1095.25C952.933 1095.41 952.174 1095.28 951.548 1094.88C950.921 1094.48 950.479 1093.85 950.318 1093.12L946.26 1074.51C946.185 1074.14 946.184 1073.77 946.257 1073.4C946.329 1073.03 946.474 1072.68 946.682 1072.37C946.891 1072.06 947.159 1071.8 947.472 1071.59C947.784 1071.38 948.134 1071.24 948.502 1071.17C963.421 1068.17 978.92 1071.16 991.657 1079.48C1004.39 1087.81 1013.35 1100.81 1016.58 1115.68C1019.82 1130.55 1017.08 1146.09 1008.96 1158.96C1000.84 1171.83 987.98 1180.99 973.164 1184.46L972.469 1184.53ZM971.729 1165.18L974.599 1178.32C987.526 1174.76 998.597 1166.39 1005.53 1154.91C1012.47 1143.44 1014.74 1129.75 1011.88 1116.65C1009.02 1103.55 1001.25 1092.05 990.164 1084.51C979.078 1076.97 965.523 1073.97 952.291 1076.13L955.161 1089.29C964.898 1087.9 974.801 1090.24 982.881 1095.85C990.96 1101.46 996.617 1109.92 998.715 1119.53C1000.81 1129.14 999.197 1139.19 994.191 1147.66C989.185 1156.12 981.16 1162.38 971.729 1165.18Z" fill="#313131"/>
<path d="M918.997 1183.14C918.636 1183.14 918.278 1183.07 917.943 1182.93C910.806 1180.13 904.297 1175.94 898.792 1170.6C893.287 1165.26 888.895 1158.89 885.871 1151.84C882.847 1144.79 881.251 1137.22 881.175 1129.55C881.099 1121.88 882.545 1114.27 885.428 1107.17C888.312 1100.06 892.577 1093.6 897.975 1088.16C903.374 1082.71 909.799 1078.39 916.878 1075.44C923.958 1072.5 931.551 1070.99 939.219 1071C946.887 1071.01 954.477 1072.54 961.55 1075.5C961.892 1075.64 962.203 1075.84 962.466 1076.1C962.729 1076.36 962.938 1076.66 963.082 1077C963.225 1077.34 963.301 1077.71 963.303 1078.08C963.306 1078.45 963.236 1078.81 963.097 1079.15L955.922 1096.77C955.784 1097.12 955.58 1097.43 955.322 1097.69C955.063 1097.95 954.756 1098.16 954.416 1098.31C954.077 1098.45 953.712 1098.53 953.344 1098.53C952.975 1098.53 952.609 1098.46 952.268 1098.32C944.074 1095 934.896 1095.06 926.751 1098.51C918.607 1101.95 912.164 1108.49 908.84 1116.68C905.516 1124.88 905.584 1134.06 909.027 1142.2C912.471 1150.34 919.009 1156.79 927.202 1160.11C927.547 1160.24 927.861 1160.44 928.123 1160.7C928.386 1160.96 928.591 1161.27 928.727 1161.61C928.887 1161.97 928.969 1162.35 928.969 1162.73C928.969 1163.12 928.887 1163.5 928.727 1163.86L921.575 1181.5C921.349 1181.99 920.986 1182.41 920.528 1182.7C920.071 1182.99 919.539 1183.14 918.997 1183.14ZM939.735 1076.82C932.733 1076.83 925.805 1078.24 919.355 1080.97C910.042 1084.91 902.07 1091.47 896.402 1099.85C890.734 1108.23 887.612 1118.07 887.413 1128.18C887.214 1138.29 889.946 1148.25 895.28 1156.84C900.614 1165.44 908.321 1172.3 917.472 1176.61L922.539 1164.15C913.774 1159.77 906.983 1152.24 903.519 1143.08C900.056 1133.91 900.176 1123.78 903.854 1114.69C907.532 1105.61 914.498 1098.25 923.364 1094.08C932.229 1089.9 942.342 1089.23 951.685 1092.18L956.752 1079.69C951.276 1077.8 945.527 1076.84 939.735 1076.82Z" fill="#313131"/>
<path d="M350.291 1376.62C377.235 1376.62 399.077 1354.78 399.077 1327.83C399.077 1300.89 377.235 1279.05 350.291 1279.05C323.347 1279.05 301.505 1300.89 301.505 1327.83C301.505 1354.78 323.347 1376.62 350.291 1376.62Z" fill="white"/>
<path d="M350.29 1379.4C340.091 1379.4 330.121 1376.38 321.641 1370.71C313.161 1365.04 306.552 1356.99 302.649 1347.57C298.746 1338.15 297.725 1327.78 299.714 1317.78C301.704 1307.77 306.615 1298.58 313.827 1291.37C321.039 1284.16 330.227 1279.25 340.23 1277.26C350.233 1275.27 360.601 1276.29 370.023 1280.19C379.446 1284.1 387.499 1290.71 393.165 1299.19C398.831 1307.67 401.856 1317.64 401.856 1327.84C401.856 1341.51 396.423 1354.63 386.752 1364.3C377.082 1373.97 363.966 1379.4 350.29 1379.4ZM350.29 1281.85C341.194 1281.85 332.303 1284.55 324.74 1289.6C317.178 1294.66 311.284 1301.84 307.804 1310.24C304.325 1318.65 303.415 1327.89 305.191 1336.81C306.968 1345.74 311.349 1353.93 317.782 1360.36C324.216 1366.79 332.411 1371.17 341.333 1372.94C350.254 1374.71 359.5 1373.8 367.902 1370.31C376.304 1366.83 383.484 1360.93 388.534 1353.37C393.585 1345.8 396.278 1336.91 396.273 1327.81C396.255 1315.63 391.404 1303.94 382.784 1295.33C374.164 1286.71 362.478 1281.86 350.29 1281.85Z" fill="#313131"/>
<path d="M515.525 1528.94H185.076V1575.33H515.525V1528.94Z" fill="#FFA620"/>
<path d="M515.525 1578.09H185.076C184.333 1578.09 183.62 1577.79 183.094 1577.27C182.569 1576.74 182.273 1576.03 182.273 1575.29V1528.94C182.273 1528.2 182.569 1527.49 183.094 1526.96C183.62 1526.44 184.333 1526.14 185.076 1526.14H515.525C516.268 1526.14 516.981 1526.44 517.506 1526.96C518.032 1527.49 518.327 1528.2 518.327 1528.94V1575.31C518.321 1576.05 518.023 1576.75 517.499 1577.27C516.974 1577.8 516.264 1578.09 515.525 1578.09ZM187.878 1572.48H512.722V1531.75H187.878V1572.48Z" fill="#313131"/>
<path d="M472.142 1327.83H228.481V1528.94H472.142V1327.83Z" fill="#FFA620"/>
<path d="M472.121 1531.74H228.482C228.113 1531.75 227.748 1531.68 227.406 1531.54C227.065 1531.4 226.755 1531.19 226.494 1530.93C226.233 1530.67 226.027 1530.36 225.887 1530.02C225.747 1529.68 225.677 1529.31 225.68 1528.94V1327.81C225.677 1327.44 225.747 1327.08 225.887 1326.74C226.027 1326.4 226.233 1326.08 226.494 1325.82C226.755 1325.56 227.065 1325.36 227.406 1325.22C227.748 1325.08 228.113 1325.01 228.482 1325.01H472.121C472.864 1325.01 473.577 1325.31 474.102 1325.83C474.628 1326.36 474.923 1327.07 474.923 1327.81V1528.94C474.923 1529.69 474.628 1530.4 474.102 1530.92C473.577 1531.45 472.864 1531.74 472.121 1531.74ZM231.285 1526.14H469.385V1330.61H231.285V1526.14Z" fill="#313131"/>
<path d="M296.998 1450.56H262.022C261.653 1450.57 261.288 1450.5 260.946 1450.36C260.605 1450.22 260.295 1450.01 260.034 1449.75C259.773 1449.49 259.567 1449.18 259.427 1448.84C259.287 1448.49 259.217 1448.13 259.22 1447.76V1412.78C259.22 1412.04 259.515 1411.33 260.041 1410.8C260.566 1410.28 261.279 1409.98 262.022 1409.98H296.998C297.741 1409.98 298.454 1410.28 298.979 1410.8C299.505 1411.33 299.8 1412.04 299.8 1412.78V1447.76C299.803 1448.13 299.733 1448.49 299.593 1448.84C299.453 1449.18 299.247 1449.49 298.986 1449.75C298.725 1450.01 298.415 1450.22 298.074 1450.36C297.732 1450.5 297.366 1450.57 296.998 1450.56ZM264.825 1444.96H294.195V1415.59H264.825V1444.96Z" fill="#313131"/>
<path d="M367.778 1450.56H332.803C332.434 1450.57 332.068 1450.5 331.727 1450.36C331.385 1450.22 331.075 1450.01 330.814 1449.75C330.553 1449.49 330.347 1449.18 330.207 1448.84C330.068 1448.49 329.997 1448.13 330 1447.76V1412.79C330 1412.04 330.295 1411.33 330.821 1410.8C331.347 1410.28 332.059 1409.98 332.803 1409.98H367.778C368.147 1409.98 368.512 1410.05 368.854 1410.19C369.195 1410.33 369.505 1410.54 369.766 1410.8C370.027 1411.06 370.233 1411.37 370.373 1411.71C370.513 1412.05 370.583 1412.42 370.58 1412.79V1447.76C370.583 1448.13 370.513 1448.49 370.373 1448.84C370.233 1449.18 370.027 1449.49 369.766 1449.75C369.505 1450.01 369.195 1450.22 368.854 1450.36C368.512 1450.5 368.147 1450.57 367.778 1450.56ZM335.605 1444.96H364.975V1415.59H335.605V1444.96Z" fill="#313131"/>
<path d="M438.581 1450.56H403.605C403.236 1450.57 402.871 1450.5 402.529 1450.36C402.188 1450.22 401.878 1450.01 401.617 1449.75C401.356 1449.49 401.15 1449.18 401.01 1448.84C400.87 1448.49 400.8 1448.13 400.803 1447.76V1412.78C400.803 1412.04 401.098 1411.33 401.624 1410.8C402.149 1410.28 402.862 1409.98 403.605 1409.98H438.581C439.324 1409.98 440.037 1410.28 440.562 1410.8C441.088 1411.33 441.383 1412.04 441.383 1412.78V1447.76C441.386 1448.13 441.316 1448.49 441.176 1448.84C441.036 1449.18 440.83 1449.49 440.569 1449.75C440.308 1450.01 439.998 1450.22 439.657 1450.36C439.315 1450.5 438.949 1450.57 438.581 1450.56ZM406.408 1444.96H435.756V1415.59H406.385L406.408 1444.96Z" fill="#313131"/>
<path d="M472.121 1485.52H228.482C227.739 1485.52 227.026 1485.22 226.501 1484.69C225.975 1484.17 225.68 1483.46 225.68 1482.71C225.68 1481.97 225.975 1481.26 226.501 1480.73C227.026 1480.21 227.739 1479.91 228.482 1479.91H472.121C472.864 1479.91 473.577 1480.21 474.102 1480.73C474.628 1481.26 474.923 1481.97 474.923 1482.71C474.923 1483.46 474.628 1484.17 474.102 1484.69C473.577 1485.22 472.864 1485.52 472.121 1485.52Z" fill="#313131"/>
<path d="M472.121 1378.17H228.482C227.739 1378.17 227.026 1377.87 226.501 1377.35C225.975 1376.82 225.68 1376.11 225.68 1375.37C225.68 1374.62 225.975 1373.91 226.501 1373.38C227.026 1372.86 227.739 1372.56 228.482 1372.56H472.121C472.864 1372.56 473.577 1372.86 474.102 1373.38C474.628 1373.91 474.923 1374.62 474.923 1375.37C474.923 1376.11 474.628 1376.82 474.102 1377.35C473.577 1377.87 472.864 1378.17 472.121 1378.17Z" fill="#313131"/>
<path d="M176.177 948.533C194.824 948.533 209.941 933.416 209.941 914.769C209.941 896.121 194.824 881.004 176.177 881.004C157.529 881.004 142.412 896.121 142.412 914.769C142.412 933.416 157.529 948.533 176.177 948.533Z" fill="white"/>
<path d="M491.85 744.04C510.498 744.04 525.615 728.923 525.615 710.275C525.615 691.628 510.498 676.511 491.85 676.511C473.203 676.511 458.086 691.628 458.086 710.275C458.086 728.923 473.203 744.04 491.85 744.04Z" fill="white"/>
<path d="M706.993 1017.07C725.641 1017.07 740.758 1001.96 740.758 983.308C740.758 964.66 725.641 949.543 706.993 949.543C688.345 949.543 673.229 964.66 673.229 983.308C673.229 1001.96 688.345 1017.07 706.993 1017.07Z" fill="white"/>
<path d="M955.697 1098.9C974.345 1098.9 989.462 1083.79 989.462 1065.14C989.462 1046.49 974.345 1031.38 955.697 1031.38C937.05 1031.38 921.933 1046.49 921.933 1065.14C921.933 1083.79 937.05 1098.9 955.697 1098.9Z" fill="white"/>
<path d="M176.175 951.359C168.938 951.363 161.861 949.221 155.841 945.203C149.821 941.185 145.128 935.472 142.355 928.787C139.582 922.101 138.855 914.744 140.264 907.645C141.673 900.546 145.156 894.024 150.272 888.904C155.389 883.785 161.908 880.298 169.006 878.884C176.105 877.471 183.463 878.194 190.15 880.963C196.837 883.732 202.553 888.421 206.574 894.439C210.596 900.456 212.742 907.532 212.742 914.769C212.737 924.468 208.883 933.767 202.027 940.627C195.171 947.487 185.874 951.347 176.175 951.359ZM176.175 883.807C170.043 883.789 164.042 885.592 158.935 888.987C153.827 892.382 149.842 897.216 147.483 902.877C145.125 908.539 144.5 914.773 145.687 920.789C146.875 926.806 149.821 932.336 154.153 936.677C158.485 941.018 164.007 943.976 170.022 945.177C176.036 946.377 182.271 945.765 187.938 943.42C193.604 941.074 198.447 937.099 201.853 931.999C205.259 926.898 207.075 920.902 207.07 914.769C207.058 906.573 203.802 898.715 198.012 892.913C192.223 887.11 184.372 883.837 176.175 883.807Z" fill="#313131"/>
<path d="M491.805 746.841C484.567 746.846 477.489 744.703 471.469 740.684C465.448 736.665 460.755 730.951 457.983 724.264C455.211 717.577 454.484 710.219 455.895 703.119C457.306 696.019 460.792 689.497 465.91 684.379C471.029 679.261 477.55 675.775 484.65 674.364C491.75 672.953 499.109 673.68 505.795 676.452C512.482 679.224 518.196 683.917 522.215 689.938C526.234 695.958 528.377 703.035 528.372 710.274C528.36 719.969 524.504 729.263 517.649 736.118C510.794 742.973 501.5 746.829 491.805 746.841ZM491.805 679.29C485.676 679.285 479.683 681.099 474.585 684.501C469.487 687.902 465.512 692.74 463.163 698.401C460.815 704.063 460.198 710.293 461.391 716.305C462.584 722.317 465.533 727.84 469.866 732.175C474.198 736.511 479.719 739.464 485.73 740.661C491.741 741.859 497.972 741.247 503.635 738.902C509.298 736.558 514.138 732.586 517.544 727.49C520.95 722.395 522.767 716.403 522.767 710.274C522.761 702.062 519.498 694.188 513.694 688.379C507.889 682.57 500.017 679.301 491.805 679.29Z" fill="#313131"/>
<path d="M707.038 1019.83C699.8 1019.83 692.724 1017.69 686.704 1013.67C680.683 1009.66 675.99 1003.94 673.217 997.258C670.445 990.572 669.717 983.215 671.126 976.115C672.535 969.016 676.018 962.495 681.135 957.375C686.251 952.256 692.771 948.769 699.869 947.355C706.967 945.941 714.325 946.665 721.012 949.433C727.699 952.202 733.415 956.892 737.437 962.91C741.458 968.927 743.605 976.002 743.605 983.24C743.593 992.937 739.737 1002.23 732.883 1009.09C726.028 1015.95 716.734 1019.81 707.038 1019.83ZM707.038 952.278C700.908 952.273 694.914 954.087 689.815 957.49C684.716 960.893 680.742 965.732 678.394 971.395C676.046 977.057 675.43 983.289 676.625 989.302C677.82 995.314 680.771 1000.84 685.106 1005.17C689.441 1009.51 694.964 1012.46 700.976 1013.65C706.988 1014.85 713.22 1014.23 718.883 1011.88C724.545 1009.54 729.384 1005.56 732.787 1000.46C736.19 995.364 738.004 989.37 738 983.24C737.97 975.044 734.696 967.192 728.894 961.403C723.092 955.614 715.234 952.357 707.038 952.345V952.278Z" fill="#313131"/>
<path d="M955.765 1101.73C948.229 1101.74 940.874 1099.43 934.703 1095.1C928.533 1090.78 923.848 1084.65 921.289 1077.56C918.731 1070.48 918.422 1062.77 920.407 1055.5C922.392 1048.23 926.572 1041.75 932.378 1036.95C938.183 1032.14 945.33 1029.25 952.843 1028.66C960.355 1028.07 967.866 1029.82 974.35 1033.66C980.833 1037.5 985.973 1043.24 989.067 1050.11C992.162 1056.99 993.059 1064.64 991.637 1072.04C990.033 1080.39 985.577 1087.91 979.032 1093.33C972.486 1098.74 964.26 1101.71 955.765 1101.73ZM955.765 1034.18C948.048 1034.16 940.603 1037.03 934.89 1042.22C929.177 1047.4 925.607 1054.54 924.88 1062.22C924.154 1069.91 926.322 1077.58 930.961 1083.75C935.6 1089.92 942.375 1094.13 949.958 1095.56C954.19 1096.36 958.542 1096.27 962.736 1095.29C966.931 1094.31 970.875 1092.47 974.317 1089.88C977.758 1087.29 980.622 1084.01 982.725 1080.26C984.828 1076.5 986.124 1072.34 986.529 1068.05C986.935 1063.77 986.441 1059.44 985.081 1055.36C983.72 1051.27 981.522 1047.51 978.626 1044.32C975.731 1041.13 972.202 1038.59 968.266 1036.84C964.329 1035.09 960.071 1034.18 955.765 1034.18Z" fill="#313131"/>
<path d="M176.176 929.791C173.204 929.795 170.297 928.918 167.824 927.27C165.351 925.622 163.422 923.278 162.282 920.533C161.141 917.789 160.841 914.768 161.418 911.853C161.995 908.937 163.424 906.259 165.524 904.156C167.623 902.053 170.3 900.62 173.214 900.038C176.129 899.457 179.15 899.753 181.897 900.889C184.643 902.026 186.99 903.951 188.642 906.422C190.293 908.892 191.175 911.798 191.175 914.769C191.175 918.75 189.595 922.567 186.783 925.383C183.971 928.2 180.156 929.785 176.176 929.791ZM176.176 905.375C174.311 905.371 172.488 905.92 170.936 906.953C169.384 907.986 168.173 909.456 167.458 911.178C166.742 912.9 166.554 914.795 166.917 916.623C167.279 918.452 168.177 920.132 169.495 921.45C170.813 922.769 172.493 923.666 174.322 924.028C176.15 924.391 178.046 924.203 179.767 923.487C181.489 922.772 182.959 921.561 183.992 920.009C185.025 918.457 185.574 916.634 185.57 914.769C185.534 912.299 184.53 909.942 182.773 908.206C181.015 906.469 178.646 905.493 176.176 905.488V905.375Z" fill="#313131"/>
<path d="M491.805 725.275C488.838 725.275 485.938 724.396 483.472 722.748C481.005 721.099 479.083 718.757 477.947 716.016C476.812 713.275 476.515 710.26 477.094 707.35C477.673 704.441 479.101 701.768 481.199 699.67C483.296 697.573 485.969 696.144 488.879 695.566C491.788 694.987 494.804 695.284 497.545 696.419C500.285 697.554 502.628 699.477 504.276 701.943C505.924 704.41 506.804 707.31 506.804 710.276C506.798 714.252 505.216 718.064 502.404 720.876C499.592 723.687 495.781 725.269 491.805 725.275ZM491.805 700.882C489.947 700.882 488.13 701.433 486.586 702.465C485.041 703.498 483.837 704.965 483.126 706.681C482.415 708.398 482.229 710.287 482.591 712.109C482.954 713.931 483.848 715.605 485.162 716.919C486.476 718.233 488.15 719.127 489.972 719.49C491.794 719.852 493.683 719.666 495.4 718.955C497.116 718.244 498.583 717.04 499.616 715.495C500.648 713.951 501.199 712.134 501.199 710.276C501.193 707.787 500.201 705.401 498.441 703.64C496.68 701.88 494.294 700.888 491.805 700.882Z" fill="#313131"/>
<path d="M707.038 998.328C704.066 998.332 701.16 997.455 698.686 995.807C696.213 994.159 694.284 991.815 693.144 989.071C692.004 986.326 691.703 983.305 692.28 980.39C692.857 977.474 694.286 974.796 696.386 972.693C698.486 970.59 701.162 969.157 704.077 968.575C706.991 967.994 710.013 968.29 712.759 969.426C715.505 970.563 717.852 972.488 719.504 974.959C721.155 977.43 722.037 980.335 722.037 983.307C722.037 987.287 720.457 991.104 717.645 993.92C714.833 996.737 711.018 998.322 707.038 998.328ZM707.038 973.913C705.174 973.908 703.35 974.457 701.798 975.49C700.246 976.523 699.036 977.994 698.32 979.715C697.605 981.437 697.416 983.332 697.779 985.161C698.142 986.989 699.039 988.669 700.357 989.987C701.675 991.306 703.355 992.203 705.184 992.566C707.013 992.928 708.908 992.74 710.629 992.024C712.351 991.309 713.821 990.098 714.854 988.546C715.887 986.995 716.436 985.171 716.432 983.307C716.426 980.817 715.434 978.431 713.674 976.671C711.914 974.91 709.528 973.919 707.038 973.913Z" fill="#313131"/>
<path d="M955.699 1080.16C952.727 1080.16 949.821 1079.29 947.348 1077.64C944.874 1075.99 942.946 1073.65 941.805 1070.9C940.665 1068.16 940.364 1065.14 940.941 1062.22C941.518 1059.31 942.947 1056.63 945.047 1054.52C947.147 1052.42 949.823 1050.99 952.738 1050.41C955.652 1049.83 958.674 1050.12 961.42 1051.26C964.166 1052.39 966.513 1054.32 968.165 1056.79C969.817 1059.26 970.698 1062.17 970.698 1065.14C970.692 1069.12 969.111 1072.93 966.3 1075.75C963.489 1078.56 959.677 1080.15 955.699 1080.16ZM955.699 1055.74C953.835 1055.74 952.011 1056.29 950.459 1057.32C948.907 1058.36 947.697 1059.83 946.981 1061.55C946.266 1063.27 946.078 1065.16 946.44 1066.99C946.803 1068.82 947.7 1070.5 949.018 1071.82C950.337 1073.14 952.016 1074.03 953.845 1074.4C955.674 1074.76 957.569 1074.57 959.291 1073.86C961.012 1073.14 962.483 1071.93 963.515 1070.38C964.548 1068.83 965.098 1067 965.093 1065.14C965.096 1063.9 964.855 1062.68 964.385 1061.53C963.914 1060.39 963.223 1059.35 962.351 1058.47C961.479 1057.6 960.442 1056.9 959.301 1056.43C958.16 1055.95 956.936 1055.7 955.699 1055.7V1055.74Z" fill="#313131"/>
<path d="M968.863 1121.23L936.065 1117.18L922.42 1227.52L955.217 1231.57L968.863 1121.23Z" fill="white"/>
<path d="M955.341 1234.32H955.004L922.271 1230.26C921.535 1230.16 920.867 1229.78 920.41 1229.19C919.954 1228.6 919.744 1227.86 919.827 1227.12L933.481 1116.77C933.524 1116.41 933.639 1116.06 933.82 1115.74C934.001 1115.42 934.244 1115.14 934.535 1114.91C934.823 1114.68 935.155 1114.52 935.509 1114.42C935.864 1114.33 936.234 1114.3 936.598 1114.35L969.353 1118.48C970.088 1118.58 970.754 1118.96 971.207 1119.55C971.66 1120.14 971.864 1120.88 971.775 1121.62L958.143 1231.88C958.056 1232.56 957.722 1233.18 957.206 1233.63C956.689 1234.08 956.026 1234.33 955.341 1234.32ZM925.657 1225.04L952.897 1228.4L965.856 1123.61L938.615 1120.25L925.657 1225.04Z" fill="#313131"/>
<path d="M924.512 1349.4H924.176C923.439 1349.31 922.767 1348.94 922.309 1348.35C921.851 1347.77 921.643 1347.02 921.732 1346.29L935.677 1229.25C935.773 1228.52 936.153 1227.85 936.735 1227.39C937.318 1226.94 938.057 1226.73 938.794 1226.81C939.16 1226.85 939.514 1226.97 939.836 1227.15C940.157 1227.33 940.44 1227.57 940.668 1227.86C940.895 1228.15 941.062 1228.48 941.16 1228.84C941.258 1229.19 941.284 1229.56 941.237 1229.93L927.292 1346.96C927.205 1347.64 926.875 1348.26 926.363 1348.71C925.851 1349.16 925.193 1349.4 924.512 1349.4Z" fill="#313131"/>
<path d="M966.976 1140.18H966.663L933.795 1136.57C933.055 1136.49 932.378 1136.11 931.913 1135.53C931.448 1134.95 931.234 1134.21 931.317 1133.47C931.401 1132.73 931.775 1132.05 932.357 1131.58C932.939 1131.12 933.682 1130.91 934.423 1130.99L967.29 1134.62C967.994 1134.71 968.638 1135.06 969.092 1135.61C969.546 1136.15 969.777 1136.85 969.737 1137.56C969.697 1138.27 969.39 1138.93 968.878 1139.42C968.365 1139.92 967.686 1140.19 966.976 1140.2V1140.18Z" fill="#313131"/>
<path d="M541.6 686.958C539.644 686.958 537.731 686.378 536.105 685.29C534.478 684.203 533.211 682.657 532.463 680.849C531.716 679.041 531.521 677.052 531.905 675.134C532.288 673.215 533.232 671.453 534.617 670.072C536.002 668.69 537.766 667.75 539.685 667.371C541.604 666.992 543.593 667.191 545.399 667.943C547.206 668.694 548.748 669.965 549.832 671.594C550.916 673.223 551.492 675.137 551.487 677.093C551.481 679.712 550.437 682.221 548.583 684.07C546.73 685.919 544.218 686.958 541.6 686.958ZM541.6 672.811C540.753 672.811 539.925 673.062 539.221 673.533C538.517 674.003 537.968 674.672 537.644 675.455C537.32 676.237 537.235 677.098 537.4 677.929C537.565 678.759 537.973 679.522 538.572 680.121C539.171 680.72 539.934 681.128 540.765 681.293C541.595 681.458 542.456 681.374 543.239 681.05C544.021 680.725 544.69 680.177 545.161 679.472C545.631 678.768 545.882 677.94 545.882 677.093C545.885 676.53 545.777 675.972 545.562 675.451C545.348 674.93 545.033 674.457 544.635 674.059C544.236 673.66 543.763 673.345 543.242 673.131C542.721 672.917 542.163 672.808 541.6 672.811Z" fill="#313131"/>
<path d="M594.086 686.958C593.719 686.955 593.356 686.88 593.018 686.736C592.681 686.592 592.375 686.383 592.119 686.12C591.862 685.858 591.66 685.547 591.525 685.206C591.389 684.865 591.322 684.5 591.328 684.133C592.001 631.603 543.529 627.881 541.466 627.769C540.732 627.706 540.052 627.359 539.571 626.802C539.089 626.245 538.844 625.522 538.888 624.787C538.908 624.42 539 624.06 539.16 623.729C539.32 623.398 539.544 623.102 539.82 622.858C540.095 622.614 540.416 622.427 540.764 622.308C541.112 622.189 541.48 622.14 541.847 622.164C542.408 622.164 597.718 626.267 596.978 684.2C596.972 684.572 596.893 684.939 596.744 685.28C596.594 685.621 596.379 685.929 596.11 686.185C595.841 686.442 595.523 686.643 595.176 686.775C594.828 686.908 594.458 686.97 594.086 686.958Z" fill="#313131"/>
<path d="M659.575 672.811C658.832 672.788 658.127 672.475 657.612 671.938C657.096 671.402 656.811 670.685 656.818 669.941C657.445 636.872 648.657 610.82 630.698 592.48C603.413 564.635 563.797 564.253 563.438 564.253C562.695 564.253 561.982 563.958 561.457 563.433C560.931 562.907 560.636 562.194 560.636 561.451C560.636 560.708 560.931 559.995 561.457 559.469C561.982 558.944 562.695 558.648 563.438 558.648C565.142 558.648 605.745 558.985 634.711 588.512C653.791 607.95 663.118 635.392 662.467 670.054C662.462 670.425 662.382 670.793 662.233 671.133C662.084 671.474 661.868 671.782 661.599 672.038C661.33 672.295 661.012 672.496 660.665 672.628C660.318 672.761 659.947 672.823 659.575 672.811Z" fill="#313131"/>
<path d="M1147.68 638.822C1146.58 638.82 1145.49 638.639 1144.45 638.284C1141.97 637.428 1139.93 635.622 1138.79 633.263C1137.64 630.904 1137.47 628.186 1138.33 625.706C1139.19 623.227 1140.99 621.189 1143.35 620.041C1145.71 618.893 1148.43 618.729 1150.91 619.586C1153.12 620.347 1154.99 621.869 1156.19 623.881C1157.39 625.892 1157.83 628.263 1157.44 630.571C1157.05 632.88 1155.86 634.975 1154.07 636.486C1152.29 637.997 1150.02 638.825 1147.68 638.822ZM1147.68 624.653C1146.61 624.648 1145.57 625.046 1144.78 625.769C1143.98 626.491 1143.49 627.486 1143.39 628.555C1143.3 629.624 1143.61 630.69 1144.26 631.542C1144.92 632.394 1145.87 632.969 1146.92 633.153C1147.98 633.338 1149.07 633.119 1149.97 632.539C1150.88 631.959 1151.53 631.061 1151.8 630.023C1152.07 628.985 1151.95 627.882 1151.45 626.933C1150.94 625.984 1150.1 625.258 1149.09 624.899C1148.64 624.73 1148.16 624.647 1147.68 624.653Z" fill="#313131"/>
<path d="M1098.42 614.676C1098.06 614.674 1097.69 614.606 1097.35 614.474C1097.01 614.332 1096.7 614.124 1096.44 613.862C1096.18 613.6 1095.97 613.289 1095.83 612.948C1095.69 612.606 1095.62 612.24 1095.63 611.871C1095.63 611.502 1095.7 611.137 1095.85 610.797C1096.05 610.281 1118 559.343 1172.5 579.028C1172.86 579.145 1173.18 579.333 1173.47 579.58C1173.75 579.826 1173.98 580.127 1174.14 580.464C1174.31 580.801 1174.4 581.167 1174.42 581.542C1174.44 581.916 1174.38 582.29 1174.26 582.643C1174.13 582.995 1173.93 583.318 1173.68 583.593C1173.42 583.868 1173.12 584.089 1172.78 584.243C1172.43 584.398 1172.06 584.482 1171.69 584.491C1171.32 584.5 1170.94 584.434 1170.59 584.297C1121.27 566.361 1101.81 611.044 1101.09 612.972C1100.87 613.49 1100.49 613.929 1100.02 614.233C1099.54 614.536 1098.99 614.691 1098.42 614.676Z" fill="#313131"/>
<path d="M1045.58 573.357C1045.27 573.348 1044.96 573.295 1044.66 573.2C1043.96 572.956 1043.38 572.443 1043.06 571.775C1042.74 571.106 1042.69 570.337 1042.93 569.635C1043.5 568.021 1057.08 529.772 1094.5 512.06C1119.16 500.379 1148.11 500.536 1180.64 512.509C1181.01 512.614 1181.35 512.795 1181.65 513.041C1181.95 513.286 1182.19 513.59 1182.37 513.933C1182.54 514.277 1182.65 514.653 1182.67 515.038C1182.69 515.423 1182.63 515.809 1182.5 516.171C1182.37 516.533 1182.16 516.863 1181.9 517.142C1181.63 517.42 1181.31 517.641 1180.95 517.79C1180.6 517.938 1180.21 518.012 1179.83 518.006C1179.44 518 1179.06 517.915 1178.71 517.755C1147.66 506.343 1120.15 506.119 1096.97 517.105C1061.72 533.763 1048.41 571.092 1048.27 571.473C1048.07 572.028 1047.71 572.508 1047.23 572.846C1046.75 573.184 1046.17 573.362 1045.58 573.357Z" fill="#313131"/>
<path d="M960.719 543.986C960.406 543.987 960.095 543.934 959.8 543.829C959.099 543.585 958.523 543.073 958.199 542.404C957.875 541.736 957.83 540.966 958.074 540.265C958.32 539.547 983.632 468.364 1051.03 436.437C1095.42 415.385 1147.75 415.699 1206.58 437.312C1207.28 437.568 1207.84 438.09 1208.16 438.765C1208.47 439.44 1208.5 440.212 1208.25 440.91C1207.99 441.609 1207.47 442.177 1206.79 442.491C1206.12 442.804 1205.35 442.836 1204.65 442.581C1147.3 421.506 1096.45 421.125 1053.47 441.46C988.206 472.377 963.611 541.408 963.387 542.103C963.192 542.655 962.831 543.132 962.353 543.469C961.875 543.807 961.304 543.987 960.719 543.986Z" fill="#313131"/>
<path d="M1359.68 926.136L1163.75 1016.78C1163.36 1016.96 1162.94 1017.05 1162.5 1017.04C1162.07 1017.04 1161.65 1016.94 1161.26 1016.76C1160.87 1016.58 1160.52 1016.31 1160.25 1015.98C1159.97 1015.65 1159.77 1015.27 1159.65 1014.85L1056.32 708.415C1055.99 707.527 1056.01 706.546 1056.38 705.674C1056.75 704.802 1057.44 704.106 1058.31 703.729L1265.9 626.739C1266.3 626.621 1266.72 626.585 1267.14 626.635C1267.56 626.685 1267.96 626.819 1268.32 627.029C1268.68 627.238 1269 627.519 1269.25 627.855C1269.5 628.19 1269.68 628.573 1269.78 628.981L1361.39 921.696C1361.67 922.518 1361.66 923.416 1361.35 924.228C1361.04 925.041 1360.45 925.717 1359.68 926.136Z" fill="white"/>
<path d="M1162.52 1019.83C1161.75 1019.82 1160.99 1019.67 1160.28 1019.38C1159.51 1019.03 1158.82 1018.53 1158.26 1017.9C1157.7 1017.27 1157.27 1016.53 1157.01 1015.73L1053.67 709.311C1053.11 707.735 1053.18 706.004 1053.86 704.475C1054.54 702.947 1055.78 701.74 1057.33 701.105L1264.94 624.115C1265.63 623.856 1266.37 623.742 1267.11 623.781C1267.85 623.819 1268.58 624.009 1269.24 624.339C1270.01 624.733 1270.69 625.277 1271.25 625.94C1271.8 626.602 1272.22 627.369 1272.47 628.195L1364.06 920.911C1364.54 922.371 1364.48 923.955 1363.9 925.377C1363.31 926.799 1362.24 927.966 1360.87 928.668L1164.92 1019.31C1164.17 1019.66 1163.35 1019.83 1162.52 1019.83ZM1266.75 629.361L1059.28 706.351C1059.1 706.477 1058.98 706.661 1058.93 706.87C1058.87 707.079 1058.89 707.3 1058.99 707.495L1162.32 1013.93C1162.33 1013.99 1162.35 1014.05 1162.38 1014.1C1162.41 1014.15 1162.45 1014.19 1162.5 1014.22L1358.52 923.556C1358.64 923.422 1358.72 923.257 1358.76 923.08C1358.79 922.902 1358.78 922.718 1358.72 922.548L1267.11 629.876C1267 629.518 1266.8 629.383 1266.75 629.383V629.361Z" fill="#313131"/>
<path d="M1372.91 921.316L1176.98 1011.96C1176.59 1012.14 1176.16 1012.24 1175.73 1012.23C1175.3 1012.23 1174.87 1012.14 1174.48 1011.95C1174.09 1011.77 1173.75 1011.5 1173.47 1011.17C1173.19 1010.84 1172.99 1010.45 1172.88 1010.03L1069.55 703.708C1069.22 702.822 1069.23 701.844 1069.6 700.972C1069.97 700.101 1070.66 699.403 1071.52 699.022L1279.13 622.031C1279.53 621.914 1279.95 621.878 1280.37 621.928C1280.79 621.978 1281.19 622.112 1281.55 622.322C1281.91 622.531 1282.23 622.812 1282.48 623.148C1282.73 623.483 1282.91 623.866 1283.01 624.273L1374.62 916.922C1374.89 917.738 1374.87 918.624 1374.56 919.426C1374.24 920.228 1373.66 920.896 1372.91 921.316Z" fill="white"/>
<path d="M1175.73 1015.03C1174.96 1015.03 1174.2 1014.88 1173.49 1014.58C1172.71 1014.23 1172.02 1013.71 1171.46 1013.07C1170.9 1012.43 1170.48 1011.68 1170.24 1010.86L1066.9 704.491C1066.34 702.916 1066.4 701.184 1067.08 699.656C1067.77 698.127 1069.01 696.92 1070.56 696.285L1278.14 619.295C1278.84 619.037 1279.59 618.924 1280.33 618.962C1281.07 619.001 1281.8 619.19 1282.47 619.519C1283.24 619.914 1283.92 620.458 1284.47 621.121C1285.02 621.783 1285.43 622.55 1285.68 623.375L1377.4 916.091C1377.88 917.552 1377.82 919.135 1377.24 920.557C1376.65 921.979 1375.58 923.146 1374.21 923.849L1178.26 1014.49C1177.47 1014.86 1176.6 1015.05 1175.73 1015.03ZM1279.98 624.564L1072.49 701.464C1072.31 701.59 1072.18 701.772 1072.13 701.981C1072.07 702.189 1072.08 702.41 1072.17 702.608L1175.62 1009.13C1175.62 1009.19 1175.64 1009.25 1175.67 1009.3C1175.7 1009.35 1175.75 1009.39 1175.8 1009.43L1371.81 918.759C1371.93 918.621 1372.01 918.457 1372.04 918.281C1372.08 918.104 1372.07 917.922 1372.02 917.75L1280.34 625.057C1280.23 624.698 1280.03 624.564 1279.98 624.564Z" fill="#313131"/>
<path d="M1157.84 690.054C1157.18 690.054 1156.55 689.823 1156.04 689.403C1155.54 688.982 1155.2 688.398 1155.08 687.753C1154.96 687.107 1155.08 686.44 1155.4 685.869C1155.72 685.298 1156.24 684.859 1156.85 684.628L1208.8 665.078C1209.49 664.816 1210.27 664.842 1210.94 665.149C1211.62 665.455 1212.15 666.019 1212.41 666.714C1212.67 667.41 1212.64 668.181 1212.34 668.858C1212.03 669.535 1211.47 670.062 1210.77 670.324L1158.82 689.874C1158.51 689.99 1158.17 690.051 1157.84 690.054Z" fill="#313131"/>
<path d="M1273.05 807.601L1189.79 842.554L1172.97 791.548L1257.02 757.515L1273.05 807.601Z" fill="#21A2FF"/>
<path d="M1189.79 845.355C1189.38 845.362 1188.98 845.278 1188.62 845.109C1188.27 844.952 1187.95 844.724 1187.69 844.438C1187.43 844.153 1187.24 843.816 1187.12 843.449L1170.3 792.422C1170.08 791.746 1170.12 791.01 1170.42 790.365C1170.72 789.72 1171.26 789.212 1171.92 788.946L1255.97 754.913C1256.32 754.757 1256.7 754.677 1257.09 754.677C1257.48 754.677 1257.86 754.757 1258.21 754.913C1258.56 755.073 1258.88 755.305 1259.13 755.595C1259.39 755.885 1259.58 756.225 1259.69 756.594L1275.72 806.838C1275.93 807.505 1275.89 808.227 1275.59 808.862C1275.3 809.496 1274.78 809.998 1274.13 810.268L1190.86 845.243C1190.51 845.346 1190.15 845.384 1189.79 845.355ZM1176.33 793.161L1191.38 838.809L1269.49 806.008L1255.16 761.168L1176.33 793.161Z" fill="#313131"/>
<path d="M1267.04 950.192C1265.27 950.19 1263.52 949.823 1261.89 949.115C1259.99 948.235 1258.3 946.965 1256.93 945.39C1255.55 943.814 1254.52 941.967 1253.91 939.968C1251.28 931.874 1255.01 922.637 1262.25 919.387C1263.91 918.634 1265.71 918.244 1267.54 918.244C1269.36 918.244 1271.17 918.634 1272.83 919.387C1274.72 920.269 1276.4 921.539 1277.77 923.115C1279.14 924.691 1280.16 926.538 1280.77 928.534C1282.05 932.376 1281.93 936.55 1280.41 940.308C1278.9 944.067 1276.1 947.165 1272.52 949.048C1270.8 949.819 1268.93 950.209 1267.04 950.192ZM1267.61 923.826C1266.55 923.831 1265.5 924.061 1264.53 924.498C1262.15 925.764 1260.3 927.849 1259.32 930.37C1258.35 932.891 1258.32 935.679 1259.24 938.219C1259.61 939.469 1260.24 940.627 1261.09 941.62C1261.93 942.612 1262.98 943.416 1264.15 943.981C1265.1 944.408 1266.13 944.628 1267.17 944.628C1268.21 944.628 1269.24 944.408 1270.18 943.981C1272.54 942.693 1274.36 940.611 1275.32 938.106C1276.28 935.601 1276.32 932.837 1275.43 930.305C1275.06 929.058 1274.43 927.902 1273.59 926.91C1272.75 925.918 1271.71 925.112 1270.54 924.543C1269.6 924.097 1268.58 923.852 1267.54 923.826H1267.61Z" fill="#313131"/>
<path d="M1227.72 818.049C1227.38 818.055 1227.05 817.994 1226.73 817.87L1204.97 809.686C1204.62 809.559 1204.3 809.365 1204.03 809.114C1203.76 808.863 1203.54 808.56 1203.39 808.224C1203.24 807.888 1203.15 807.526 1203.14 807.157C1203.13 806.788 1203.2 806.421 1203.33 806.077C1203.59 805.385 1204.12 804.825 1204.8 804.519C1205.47 804.213 1206.24 804.185 1206.94 804.44L1225.73 811.502L1233.55 778.029C1233.72 777.304 1234.17 776.676 1234.8 776.282C1235.44 775.889 1236.2 775.764 1236.92 775.933C1237.65 776.102 1238.28 776.553 1238.67 777.186C1239.07 777.819 1239.19 778.582 1239.02 779.307L1230.46 815.807C1230.37 816.197 1230.2 816.563 1229.95 816.88C1229.71 817.198 1229.4 817.459 1229.04 817.646C1228.64 817.883 1228.19 818.022 1227.72 818.049Z" fill="#313131"/>
<path d="M1091.49 1110.25C1081.18 1067.47 1024.41 731.104 1068.54 744.04C1082.77 748.233 1115.62 923.647 1135.8 916.988C1159.72 909.097 1151.29 851.365 1181.96 858.315C1195.59 861.432 1179.49 954.721 1179.49 980.773C1179.49 1006.83 1207.85 1065.14 1207.85 1065.14L1170.57 1133.77L1091.49 1110.25Z" fill="white"/>
<path d="M1170.59 1136.57C1170.32 1136.57 1170.05 1136.52 1169.79 1136.44L1090.69 1112.94C1090.22 1112.79 1089.79 1112.53 1089.46 1112.17C1089.12 1111.82 1088.88 1111.38 1088.76 1110.9C1083.87 1090.72 1068.9 1006.22 1058.85 923.893C1045.83 817.017 1045.94 756.416 1059.19 743.793C1060.49 742.489 1062.12 741.57 1063.91 741.139C1065.7 740.707 1067.57 740.78 1069.32 741.349C1076.32 743.412 1083.04 764.801 1097.84 816.86C1109.5 857.866 1124.01 908.782 1133.89 914.141C1134.54 914.477 1134.83 914.387 1134.95 914.342C1144.27 911.248 1148.4 898.379 1152.21 885.936C1157.32 869.637 1163.13 851.163 1182.59 855.602C1192.81 857.844 1191.83 883.089 1185.55 942.412C1183.82 958.756 1182.32 972.859 1182.32 980.773C1182.32 1005.97 1210.12 1063.35 1210.41 1063.93C1210.62 1064.32 1210.73 1064.76 1210.73 1065.21C1210.73 1065.65 1210.62 1066.09 1210.41 1066.48L1173.11 1135.09C1172.86 1135.54 1172.5 1135.92 1172.06 1136.18C1171.61 1136.44 1171.11 1136.58 1170.59 1136.57ZM1093.85 1108.03L1169.2 1130.45L1204.76 1065.07C1200.46 1056.1 1176.74 1005.37 1176.74 980.773C1176.74 972.567 1178.26 958.353 1179.99 941.807C1181.92 923.871 1184.07 903.334 1184.47 887.304C1185.23 862.261 1181.42 861.095 1181.27 861.05C1167.81 858.001 1163.33 869.054 1157.48 887.595C1153.15 901.406 1148.67 915.665 1136.63 919.656C1135.73 919.94 1134.78 920.037 1133.85 919.941C1132.91 919.844 1132 919.557 1131.18 919.095C1119.97 913.154 1108.56 875.376 1092.35 818.407C1083.6 787.602 1072.69 749.264 1067.69 746.663C1066.89 746.384 1066.03 746.344 1065.21 746.547C1064.39 746.75 1063.64 747.188 1063.07 747.806C1036.61 772.984 1080.62 1051.22 1093.85 1108.03Z" fill="#313131"/>
<path d="M1076.81 909.972C1076.14 909.968 1075.48 909.722 1074.97 909.277C1074.46 908.833 1074.13 908.22 1074.03 907.551C1074.03 906.811 1063.63 832.578 1061.92 804.419C1060.78 785.855 1064.95 772.201 1072.78 768.838C1076.65 767.157 1080.87 768.345 1084.34 772.044C1084.81 772.594 1085.05 773.304 1085.01 774.025C1084.97 774.747 1084.65 775.425 1084.12 775.917C1083.59 776.409 1082.89 776.677 1082.17 776.665C1081.45 776.654 1080.76 776.364 1080.24 775.856C1078.4 773.905 1076.65 773.277 1075 773.995C1070.51 775.878 1066.41 786.101 1067.51 804.082C1069.21 832.018 1079.48 906.026 1079.59 906.788C1079.69 907.529 1079.5 908.279 1079.05 908.876C1078.6 909.472 1077.93 909.867 1077.19 909.972H1076.81Z" fill="#313131"/>
<path d="M1494.7 1016.44C1479.57 975.123 1340.45 663.664 1310.85 698.886C1301.33 710.253 1371.12 874.547 1350.67 880.152C1326.39 886.878 1301.35 834.101 1279.76 856.88C1270.12 867.014 1335.16 935.686 1349.64 957.456C1364.12 979.226 1372.91 1043.41 1372.91 1043.41L1441.99 1079.85L1494.7 1016.44Z" fill="white"/>
<path d="M1441.88 1082.61C1441.42 1082.61 1440.97 1082.51 1440.58 1082.29L1371.5 1045.84C1371.1 1045.63 1370.76 1045.33 1370.51 1044.96C1370.25 1044.59 1370.08 1044.17 1370.02 1043.73C1370.02 1043.1 1361.3 979.944 1347.33 958.959C1342.85 952.39 1333.88 941.449 1323.39 928.804C1285.27 882.91 1270.52 862.508 1277.74 854.818C1291.5 840.334 1306.55 852.576 1319.84 863.225C1330 871.431 1340.47 879.928 1349.95 877.305C1350.09 877.305 1350.38 877.193 1350.72 876.565C1356.05 866.723 1339.86 816.21 1326.84 775.675C1310.32 724.109 1304.06 702.608 1308.72 697.025C1309.87 695.584 1311.39 694.486 1313.12 693.853C1314.85 693.22 1316.72 693.076 1318.52 693.438C1336.46 696.6 1370.22 746.977 1418.6 843.182C1455.84 917.28 1490.15 995.817 1497.32 1015.41C1497.49 1015.87 1497.53 1016.37 1497.45 1016.85C1497.36 1017.34 1497.16 1017.79 1496.85 1018.17L1444.03 1081.57C1443.77 1081.9 1443.44 1082.16 1443.07 1082.34C1442.7 1082.52 1442.29 1082.61 1441.88 1082.61ZM1375.38 1041.6L1441.18 1076.31L1491.49 1015.91C1471.07 961.38 1353.45 705.321 1317.53 699.021C1316.7 698.832 1315.84 698.89 1315.04 699.189C1314.24 699.488 1313.55 700.014 1313.05 700.702C1310.25 705.59 1322.42 743.547 1332.2 774.038C1350.29 830.447 1361.68 868.202 1355.67 879.412C1355.25 880.254 1354.65 880.998 1353.93 881.6C1353.2 882.202 1352.36 882.648 1351.46 882.91C1339.21 886.251 1327.6 876.857 1316.35 867.776C1301.21 855.558 1291.35 848.854 1281.82 858.808C1281.71 858.943 1279.17 862.014 1293.7 882.439C1303.01 895.488 1316.12 911.316 1327.71 925.284C1338.32 938.041 1347.47 949.071 1352.02 955.91C1365.63 976.379 1373.99 1031.71 1375.38 1041.6Z" fill="#313131"/>
<path d="M1386.75 833.742C1386.75 833.742 1357.76 784.418 1339.66 757.514C1323.86 733.906 1313.12 718.458 1304.4 727.045C1287.49 743.681 1359.24 851.588 1350.63 880.151L1385.09 866.946L1386.75 833.742Z" fill="white"/>
<path d="M1350.69 883.067C1350.07 883.065 1349.46 882.855 1348.97 882.471C1348.48 882.088 1348.13 881.551 1347.98 880.947C1347.83 880.342 1347.88 879.705 1348.14 879.134C1348.39 878.564 1348.82 878.094 1349.37 877.798C1358.34 872.978 1339.46 832.958 1325.63 803.812C1305.25 760.788 1293.5 734.018 1302.49 725.185C1303.52 724.069 1304.8 723.204 1306.22 722.657C1307.63 722.109 1309.16 721.892 1310.67 722.024C1319.44 722.92 1328.32 735.476 1342.06 756.102C1360 782.782 1388.87 831.904 1389.14 832.33C1389.52 832.972 1389.63 833.738 1389.44 834.459C1389.25 835.18 1388.79 835.798 1388.15 836.175C1387.5 836.553 1386.74 836.66 1386.02 836.473C1385.29 836.286 1384.68 835.82 1384.3 835.178C1384.01 834.684 1355.15 785.697 1337.38 759.151C1327.2 743.928 1316.68 728.212 1310.09 727.539C1309.4 727.484 1308.7 727.598 1308.06 727.871C1307.42 728.144 1306.85 728.569 1306.41 729.108C1299.69 735.834 1316.84 772.132 1330.67 801.346C1349.48 841.052 1365.71 875.332 1351.99 882.686C1351.6 882.919 1351.15 883.05 1350.69 883.067Z" fill="#313131"/>
<path d="M1552.27 433.837C1552.27 433.837 1641.57 550.421 1714.08 577.325C1714.08 577.325 1769.73 477.511 1697.89 417.65C1626.06 357.788 1552.27 433.837 1552.27 433.837Z" fill="#21A2FF"/>
<path d="M1714.12 580.105C1713.79 580.099 1713.47 580.039 1713.16 579.925C1640.7 553.021 1553.75 440.316 1550.1 435.54C1549.69 435.008 1549.48 434.346 1549.52 433.676C1549.56 433.005 1549.83 432.37 1550.3 431.886C1551.06 431.101 1626.78 354.671 1699.73 415.475C1772.69 476.278 1717.15 577.639 1716.59 578.67C1716.34 579.105 1715.98 579.467 1715.55 579.719C1715.12 579.97 1714.62 580.104 1714.12 580.105ZM1556.09 434.083C1568.06 449.306 1647.42 547.91 1712.8 573.782C1720.18 559.097 1759.59 472.668 1696.14 419.779C1667.27 395.722 1634.73 391.037 1599.45 405.811C1583.5 412.715 1568.84 422.275 1556.09 434.083Z" fill="#313131"/>
<path d="M1705.33 537.641C1705.16 537.663 1704.97 537.663 1704.8 537.641C1704.43 537.577 1704.08 537.44 1703.77 537.238C1703.46 537.037 1703.19 536.774 1702.98 536.467C1702.77 536.16 1702.62 535.814 1702.55 535.449C1702.48 535.085 1702.48 534.71 1702.55 534.346C1702.67 533.785 1713.34 478.004 1676.68 450.383C1640.02 422.761 1587.43 441.078 1587 441.28C1586.65 441.417 1586.28 441.484 1585.9 441.474C1585.53 441.465 1585.16 441.381 1584.82 441.227C1584.48 441.073 1584.17 440.851 1583.92 440.577C1583.66 440.302 1583.47 439.978 1583.34 439.626C1583.21 439.274 1583.16 438.899 1583.17 438.525C1583.19 438.151 1583.29 437.784 1583.45 437.447C1583.62 437.11 1583.85 436.81 1584.13 436.563C1584.41 436.316 1584.74 436.129 1585.1 436.011C1587.34 435.204 1640.85 416.304 1680.16 445.921C1719.46 475.538 1708.63 533.023 1708.16 535.444C1708.02 536.082 1707.66 536.651 1707.14 537.052C1706.63 537.454 1705.99 537.662 1705.33 537.641Z" fill="#313131"/>
<path d="M1705.13 782.177C1705.13 782.177 1663.75 825.986 1565.25 839.146C1565.25 839.146 1421.36 888.47 1386.75 938.826C1352.13 989.181 1286.64 1229.46 1286.64 1229.46L1209.99 1029.58C1209.99 1029.58 1192.41 1059.89 1136.56 1079.85C1086.14 1097.78 1047.53 1088.66 1047.53 1088.66C1047.53 1088.66 1147.01 1489.8 1255.86 1513.07C1329.84 1528.9 1407.22 1447.72 1407.22 1447.72V1604.99H1870.14C1870.14 1604.99 1828.04 1159.84 1802.32 1023.98C1772.48 866.678 1705.13 782.177 1705.13 782.177Z" fill="white"/>
<path d="M1870.14 1607.79C1869.44 1607.8 1868.77 1607.54 1868.25 1607.07C1867.73 1606.6 1867.41 1605.96 1867.34 1605.26C1866.94 1600.78 1825.01 1158.7 1799.56 1024.58C1772.95 884.299 1715.94 801.345 1704.73 786.301C1694.64 795.65 1652.22 830.155 1565.84 841.768C1558.95 844.167 1422.01 892.213 1388.99 940.304C1355.04 989.763 1289.91 1227.8 1289.26 1230.2C1289.11 1230.76 1288.78 1231.27 1288.32 1231.64C1287.86 1232.01 1287.3 1232.23 1286.71 1232.26C1286.12 1232.28 1285.53 1232.13 1285.04 1231.8C1284.55 1231.48 1284.16 1231.01 1283.95 1230.46L1209.25 1035.52C1202 1044.89 1181.42 1066.91 1137.5 1082.6C1096.18 1097.36 1063 1094.2 1051.34 1092.33C1062.42 1135.36 1156.49 1489.17 1256.44 1510.47C1327.98 1525.78 1404.41 1446.75 1405.17 1445.94C1405.56 1445.54 1406.06 1445.26 1406.61 1445.14C1407.15 1445.02 1407.73 1445.06 1408.25 1445.27C1408.77 1445.48 1409.21 1445.84 1409.53 1446.3C1409.84 1446.76 1410.01 1447.31 1410.02 1447.87V1604.99C1410.02 1605.73 1409.72 1606.45 1409.2 1606.97C1408.67 1607.5 1407.96 1607.79 1407.21 1607.79C1406.47 1607.79 1405.76 1607.5 1405.23 1606.97C1404.71 1606.45 1404.41 1605.73 1404.41 1604.99V1454.51C1386.14 1472.04 1320.14 1529.73 1255.27 1515.85C1209.25 1505.96 1159.67 1431.03 1108.36 1293.13C1070.24 1190.96 1045.18 1090.34 1044.93 1089.33C1044.81 1088.87 1044.81 1088.38 1044.94 1087.91C1045.06 1087.45 1045.31 1087.02 1045.65 1086.68C1045.99 1086.34 1046.41 1086.09 1046.87 1085.96C1047.33 1085.83 1047.82 1085.81 1048.29 1085.92C1048.67 1085.92 1086.77 1094.69 1135.73 1077.22C1189.81 1057.9 1207.47 1028.46 1207.7 1028.17C1207.96 1027.71 1208.35 1027.33 1208.82 1027.09C1209.29 1026.84 1209.82 1026.73 1210.34 1026.78C1210.87 1026.82 1211.38 1027.01 1211.8 1027.33C1212.23 1027.65 1212.55 1028.08 1212.74 1028.57L1286.33 1220.49C1298.32 1177.19 1353.29 982.678 1384.57 937.143C1419.32 886.541 1558.55 838.495 1564.47 836.387L1565.01 836.253C1661.21 823.384 1702.82 780.562 1703.23 780.203C1703.51 779.904 1703.86 779.67 1704.25 779.519C1704.64 779.368 1705.05 779.303 1705.47 779.329C1705.87 779.351 1706.26 779.456 1706.62 779.637C1706.98 779.819 1707.3 780.072 1707.55 780.382C1708.23 781.234 1775.67 867.35 1805.28 1023.53C1830.8 1158.05 1872.72 1600.35 1873.15 1604.81C1873.22 1605.55 1872.99 1606.28 1872.52 1606.85C1872.05 1607.43 1871.37 1607.79 1870.64 1607.86L1870.14 1607.79Z" fill="#313131"/>
<path d="M1273.43 1279.23C1273.18 1279.22 1272.92 1279.19 1272.67 1279.12C1271.96 1278.91 1271.36 1278.44 1270.99 1277.79C1270.63 1277.14 1270.54 1276.38 1270.74 1275.66L1283.93 1228.58C1284.13 1227.87 1284.62 1227.26 1285.27 1226.9C1285.92 1226.54 1286.68 1226.45 1287.4 1226.65C1287.76 1226.75 1288.09 1226.92 1288.38 1227.15C1288.67 1227.37 1288.91 1227.66 1289.09 1227.98C1289.27 1228.3 1289.38 1228.65 1289.42 1229.02C1289.46 1229.38 1289.43 1229.75 1289.33 1230.11L1276.12 1277.05C1275.98 1277.67 1275.64 1278.21 1275.15 1278.61C1274.67 1279 1274.06 1279.22 1273.43 1279.23Z" fill="#313131"/>
<path d="M1407.21 1450.56C1406.66 1450.56 1406.11 1450.4 1405.64 1450.09C1405.18 1449.77 1404.82 1449.33 1404.61 1448.81C1404.4 1448.29 1404.35 1447.72 1404.47 1447.18C1404.58 1446.63 1404.86 1446.13 1405.26 1445.74C1432.95 1419.17 1585.09 1229.61 1586.62 1227.71C1586.84 1227.4 1587.12 1227.14 1587.45 1226.95C1587.78 1226.75 1588.14 1226.63 1588.51 1226.58C1588.89 1226.53 1589.27 1226.55 1589.64 1226.65C1590 1226.75 1590.34 1226.93 1590.64 1227.16C1590.93 1227.4 1591.18 1227.7 1591.36 1228.03C1591.54 1228.36 1591.65 1228.73 1591.68 1229.11C1591.71 1229.49 1591.67 1229.87 1591.55 1230.23C1591.43 1230.59 1591.24 1230.92 1590.99 1231.21C1584.74 1239.03 1437.1 1422.96 1409.14 1449.8C1408.62 1450.3 1407.93 1450.57 1407.21 1450.56Z" fill="#313131"/>
<path d="M1407.19 1525.89C1406.48 1525.88 1405.8 1525.6 1405.29 1525.11C1404.78 1524.62 1404.47 1523.96 1404.43 1523.25C1404.39 1522.54 1404.62 1521.84 1405.08 1521.3C1405.53 1520.75 1406.17 1520.4 1406.88 1520.31C1408.02 1520.18 1522.34 1505.49 1587.63 1410.68C1636.66 1339.45 1646.21 1242.21 1616.01 1121.68C1586.22 1002.86 1547.36 944.16 1520.01 915.911C1490.55 885.51 1467.86 882.954 1467.61 882.931C1466.92 882.806 1466.31 882.427 1465.88 881.869C1465.46 881.31 1465.26 880.613 1465.32 879.915C1465.39 879.216 1465.71 878.568 1466.23 878.097C1466.75 877.626 1467.43 877.367 1468.13 877.371C1469.12 877.371 1492.66 879.905 1523.46 911.427C1551.47 940.102 1591.19 999.605 1621.44 1120.31C1652.06 1242.53 1642.22 1341.31 1592.29 1413.9C1525.37 1510.83 1408.78 1525.74 1407.53 1525.89H1407.19Z" fill="#313131"/>
<path d="M1758.04 1196.77C1749.83 1196.85 1741.68 1195.23 1734.12 1192.02C1699.26 1177.02 1676.01 1124.31 1645.27 1032.25C1592.36 873.852 1530.43 854.975 1529.83 854.796C1529.15 854.571 1528.58 854.094 1528.24 853.464C1527.9 852.833 1527.82 852.096 1528 851.405C1528.19 850.713 1528.63 850.119 1529.24 849.745C1529.86 849.371 1530.59 849.245 1531.29 849.392C1533.93 850.11 1596.53 868.629 1650.58 1030.48C1680.81 1120.97 1703.43 1172.71 1736.34 1186.86C1756.52 1195.58 1781.9 1191.21 1823.62 1171.79C1823.96 1171.6 1824.33 1171.48 1824.72 1171.44C1825.1 1171.4 1825.49 1171.44 1825.86 1171.56C1826.23 1171.68 1826.57 1171.87 1826.86 1172.13C1827.15 1172.39 1827.38 1172.7 1827.54 1173.05C1827.71 1173.4 1827.79 1173.78 1827.8 1174.17C1827.81 1174.56 1827.74 1174.94 1827.59 1175.3C1827.45 1175.66 1827.23 1175.98 1826.95 1176.25C1826.67 1176.52 1826.34 1176.72 1825.98 1176.86C1797.08 1190.33 1775.62 1196.77 1758.04 1196.77Z" fill="#313131"/>
<path d="M1511.92 875.354C1511.28 875.353 1510.66 875.132 1510.17 874.726C1503.73 869.525 1499.7 866.722 1499.65 866.7C1499.35 866.491 1499.09 866.224 1498.89 865.915C1498.69 865.606 1498.55 865.26 1498.49 864.898C1498.42 864.536 1498.43 864.164 1498.5 863.804C1498.58 863.444 1498.73 863.102 1498.94 862.799C1499.14 862.496 1499.41 862.236 1499.72 862.036C1500.03 861.836 1500.38 861.699 1500.74 861.632C1501.1 861.566 1501.47 861.571 1501.83 861.648C1502.19 861.725 1502.53 861.872 1502.84 862.081C1503.02 862.194 1507.07 865.018 1513.69 870.377C1513.98 870.608 1514.21 870.893 1514.39 871.216C1514.57 871.54 1514.68 871.895 1514.72 872.261C1514.76 872.628 1514.73 872.999 1514.62 873.352C1514.52 873.706 1514.35 874.036 1514.11 874.323C1513.85 874.646 1513.51 874.906 1513.13 875.084C1512.75 875.263 1512.34 875.355 1511.92 875.354Z" fill="#313131"/>
<path d="M1763.6 1225.76C1762.89 1225.75 1762.21 1225.47 1761.7 1224.98C1761.19 1224.49 1760.88 1223.82 1760.84 1223.11C1760.8 1222.4 1761.03 1221.71 1761.49 1221.16C1761.94 1220.62 1762.59 1220.26 1763.29 1220.17C1772.05 1219.08 1780.7 1217.19 1789.12 1214.52C1789.47 1214.41 1789.84 1214.37 1790.21 1214.41C1790.57 1214.44 1790.93 1214.54 1791.26 1214.71C1791.59 1214.88 1791.88 1215.12 1792.11 1215.4C1792.35 1215.68 1792.53 1216.01 1792.64 1216.36C1792.85 1217.08 1792.77 1217.84 1792.42 1218.5C1792.08 1219.16 1791.49 1219.66 1790.78 1219.88C1782 1222.64 1773 1224.6 1763.87 1225.73L1763.6 1225.76ZM1736.7 1225.53H1736.3C1727.12 1224.18 1718.22 1221.34 1709.95 1217.13C1709.29 1216.79 1708.79 1216.2 1708.56 1215.49C1708.33 1214.78 1708.39 1214.01 1708.73 1213.35C1709.07 1212.68 1709.66 1212.18 1710.37 1211.95C1711.07 1211.73 1711.85 1211.79 1712.51 1212.13C1720.24 1216.1 1728.57 1218.76 1737.17 1220.02C1737.85 1220.14 1738.47 1220.51 1738.89 1221.06C1739.32 1221.61 1739.52 1222.3 1739.47 1222.99C1739.42 1223.68 1739.11 1224.33 1738.61 1224.81C1738.1 1225.29 1737.44 1225.56 1736.74 1225.58L1736.7 1225.53ZM1689.62 1201.59C1689.26 1201.59 1688.9 1201.52 1688.56 1201.38C1688.23 1201.24 1687.92 1201.04 1687.67 1200.78C1681.11 1194.32 1675.26 1187.19 1670.2 1179.5C1669.79 1178.89 1669.64 1178.13 1669.78 1177.4C1669.93 1176.67 1670.36 1176.03 1670.98 1175.61C1671.59 1175.2 1672.35 1175.05 1673.08 1175.2C1673.81 1175.34 1674.45 1175.77 1674.86 1176.39C1679.7 1183.75 1685.3 1190.58 1691.57 1196.77C1692.09 1197.3 1692.38 1198.01 1692.38 1198.75C1692.38 1199.49 1692.09 1200.21 1691.57 1200.74C1691.31 1201.01 1690.99 1201.22 1690.65 1201.37C1690.3 1201.52 1689.93 1201.59 1689.55 1201.59H1689.62ZM1659.24 1157.29C1658.71 1157.29 1658.19 1157.14 1657.74 1156.86C1657.29 1156.57 1656.93 1156.17 1656.7 1155.69C1653.01 1148.07 1649.46 1139.89 1645.92 1130.67C1645.79 1130.33 1645.72 1129.96 1645.73 1129.59C1645.74 1129.22 1645.83 1128.86 1645.98 1128.52C1646.13 1128.19 1646.34 1127.88 1646.61 1127.63C1646.88 1127.37 1647.19 1127.17 1647.53 1127.04C1647.88 1126.91 1648.25 1126.85 1648.62 1126.86C1648.98 1126.86 1649.35 1126.95 1649.69 1127.1C1650.02 1127.25 1650.33 1127.46 1650.58 1127.73C1650.84 1128 1651.03 1128.31 1651.17 1128.66C1654.64 1137.62 1658.12 1145.76 1661.75 1153.32C1661.91 1153.65 1662 1154.01 1662.02 1154.38C1662.05 1154.74 1662 1155.11 1661.87 1155.46C1661.75 1155.81 1661.57 1156.13 1661.32 1156.4C1661.08 1156.68 1660.78 1156.9 1660.45 1157.06C1660.05 1157.24 1659.61 1157.32 1659.17 1157.29H1659.24ZM1639.58 1106.98C1638.98 1106.98 1638.41 1106.8 1637.93 1106.45C1637.45 1106.1 1637.09 1105.61 1636.91 1105.05C1634.42 1097.4 1631.89 1089.17 1628.95 1079.13C1628.74 1078.42 1628.82 1077.65 1629.17 1076.99C1629.53 1076.34 1630.13 1075.85 1630.84 1075.64C1631.56 1075.43 1632.32 1075.51 1632.98 1075.87C1633.63 1076.22 1634.12 1076.82 1634.33 1077.54C1637.27 1087.54 1639.78 1095.72 1642.24 1103.3C1642.47 1104.01 1642.41 1104.78 1642.07 1105.44C1641.74 1106.1 1641.16 1106.61 1640.45 1106.84C1640.15 1106.94 1639.83 1106.98 1639.51 1106.98H1639.58ZM1624.02 1055.19C1623.41 1055.19 1622.81 1054.99 1622.33 1054.62C1621.84 1054.25 1621.49 1053.73 1621.33 1053.15C1618.5 1043.35 1616.12 1035.21 1613.7 1027.25C1613.58 1026.89 1613.54 1026.52 1613.56 1026.15C1613.59 1025.77 1613.7 1025.41 1613.87 1025.07C1614.04 1024.74 1614.27 1024.45 1614.56 1024.21C1614.85 1023.97 1615.18 1023.79 1615.54 1023.68C1615.9 1023.57 1616.28 1023.53 1616.65 1023.57C1617.02 1023.61 1617.38 1023.72 1617.71 1023.9C1618.04 1024.08 1618.33 1024.33 1618.56 1024.62C1618.79 1024.91 1618.96 1025.25 1619.06 1025.61C1621.51 1033.57 1623.88 1041.76 1626.71 1051.6C1626.81 1051.95 1626.84 1052.32 1626.8 1052.69C1626.76 1053.06 1626.64 1053.41 1626.47 1053.74C1626.29 1054.06 1626.04 1054.34 1625.76 1054.57C1625.47 1054.8 1625.13 1054.97 1624.78 1055.07C1624.53 1055.14 1624.27 1055.18 1624.02 1055.19ZM1607.87 1003.62C1607.3 1003.62 1606.74 1003.44 1606.27 1003.11C1605.79 1002.78 1605.43 1002.32 1605.23 1001.78C1602.85 995.302 1600.57 989.652 1598.21 984.495C1597.09 982.051 1595.97 979.63 1594.74 977.231C1594.4 976.565 1594.35 975.794 1594.58 975.088C1594.82 974.381 1595.33 973.797 1595.99 973.464C1596.66 973.131 1597.43 973.077 1598.13 973.312C1598.84 973.548 1599.42 974.054 1599.76 974.72C1600.97 977.186 1602.16 979.652 1603.3 982.186C1605.72 987.454 1608.08 993.239 1610.5 999.853C1610.75 1000.55 1610.72 1001.32 1610.41 1001.99C1610.1 1002.66 1609.53 1003.18 1608.84 1003.44C1608.55 1003.54 1608.25 1003.59 1607.94 1003.6L1607.87 1003.62ZM1584.02 955.259C1583.57 955.243 1583.13 955.116 1582.74 954.889C1582.34 954.662 1582.02 954.343 1581.78 953.959C1577.11 946.628 1571.96 939.251 1566.42 932.077C1566.19 931.783 1566.03 931.447 1565.93 931.089C1565.84 930.73 1565.81 930.357 1565.86 929.989C1565.91 929.622 1566.03 929.268 1566.22 928.947C1566.4 928.626 1566.65 928.345 1566.95 928.12C1567.24 927.895 1567.58 927.73 1567.93 927.634C1568.29 927.539 1568.67 927.515 1569.03 927.564C1569.4 927.613 1569.76 927.734 1570.08 927.919C1570.4 928.105 1570.68 928.352 1570.9 928.647C1576.53 935.978 1581.8 943.466 1586.6 950.955C1586.8 951.266 1586.93 951.614 1586.99 951.978C1587.06 952.342 1587.05 952.715 1586.97 953.076C1586.89 953.436 1586.73 953.777 1586.52 954.079C1586.31 954.381 1586.04 954.637 1585.72 954.833C1585.22 955.156 1584.62 955.305 1584.02 955.259ZM1551.2 912.459C1550.8 912.458 1550.42 912.376 1550.06 912.218C1549.7 912.059 1549.38 911.829 1549.11 911.54C1543.17 904.994 1536.87 898.559 1530.37 892.394C1529.87 891.873 1529.6 891.181 1529.59 890.462C1529.59 889.743 1529.87 889.051 1530.37 888.53C1530.86 888.009 1531.54 887.698 1532.26 887.662C1532.97 887.626 1533.68 887.867 1534.22 888.336C1540.84 894.591 1547.23 901.115 1553.26 907.774C1553.51 908.046 1553.7 908.364 1553.83 908.711C1553.95 909.058 1554.01 909.426 1553.99 909.795C1553.98 910.164 1553.89 910.526 1553.73 910.86C1553.57 911.194 1553.35 911.494 1553.08 911.742C1552.56 912.201 1551.89 912.456 1551.2 912.459Z" fill="#313131"/>
<path d="M1815.28 1210.27C1814.65 1210.26 1814.04 1210.04 1813.54 1209.64C1813.05 1209.24 1812.71 1208.68 1812.58 1208.06C1812.44 1207.44 1812.52 1206.79 1812.8 1206.23C1813.08 1205.66 1813.54 1205.2 1814.12 1204.93C1818.02 1203.16 1822.05 1201.21 1826.13 1199.12C1826.46 1198.95 1826.82 1198.85 1827.19 1198.82C1827.56 1198.79 1827.93 1198.84 1828.28 1198.95C1828.63 1199.06 1828.96 1199.25 1829.24 1199.49C1829.52 1199.73 1829.75 1200.02 1829.91 1200.35C1830.08 1200.68 1830.18 1201.04 1830.21 1201.41C1830.24 1201.77 1830.19 1202.14 1830.08 1202.49C1829.96 1202.85 1829.78 1203.17 1829.53 1203.45C1829.29 1203.73 1829 1203.96 1828.67 1204.12C1824.52 1206.23 1820.42 1208.22 1816.43 1210.02C1816.07 1210.19 1815.68 1210.27 1815.28 1210.27Z" fill="#313131"/>
<path d="M1407.19 1554.93C1406.48 1554.94 1405.79 1554.67 1405.26 1554.18C1404.74 1553.7 1404.42 1553.03 1404.37 1552.32C1404.32 1551.6 1404.55 1550.9 1405 1550.35C1405.45 1549.79 1406.1 1549.44 1406.81 1549.35H1407.19C1412.64 1549.19 1418.07 1548.68 1423.45 1547.84C1424.19 1547.74 1424.93 1547.93 1425.53 1548.38C1426.12 1548.83 1426.52 1549.49 1426.62 1550.23C1426.72 1550.97 1426.53 1551.72 1426.08 1552.31C1425.64 1552.91 1424.97 1553.3 1424.23 1553.4C1418.61 1554.27 1412.94 1554.79 1407.26 1554.95L1407.19 1554.93ZM1450.19 1547.96C1449.51 1547.96 1448.85 1547.71 1448.34 1547.26C1447.82 1546.81 1447.49 1546.19 1447.4 1545.51C1447.31 1544.84 1447.48 1544.15 1447.86 1543.58C1448.24 1543.02 1448.82 1542.61 1449.48 1542.44C1457.89 1540.2 1466.4 1537.46 1474.83 1534.32C1475.18 1534.19 1475.55 1534.13 1475.91 1534.15C1476.28 1534.16 1476.64 1534.24 1476.98 1534.39C1477.66 1534.7 1478.18 1535.27 1478.44 1535.96C1478.7 1536.66 1478.67 1537.43 1478.36 1538.11C1478.05 1538.78 1477.48 1539.31 1476.79 1539.57C1468.2 1542.78 1459.5 1545.58 1450.91 1547.84C1450.68 1547.91 1450.44 1547.95 1450.19 1547.96ZM1500.53 1529.17C1500 1529.17 1499.49 1529.02 1499.04 1528.74C1498.6 1528.45 1498.24 1528.05 1498.02 1527.58C1497.86 1527.24 1497.76 1526.88 1497.74 1526.52C1497.72 1526.15 1497.77 1525.78 1497.89 1525.43C1498.01 1525.09 1498.2 1524.77 1498.44 1524.49C1498.69 1524.22 1498.99 1523.99 1499.32 1523.83C1507.23 1520.02 1515.01 1515.76 1522.79 1511.21C1523.11 1511.02 1523.46 1510.9 1523.82 1510.84C1524.19 1510.79 1524.56 1510.81 1524.92 1510.9C1525.27 1510.99 1525.61 1511.15 1525.9 1511.37C1526.2 1511.59 1526.45 1511.87 1526.64 1512.18C1526.82 1512.5 1526.95 1512.85 1527 1513.22C1527.05 1513.58 1527.04 1513.95 1526.94 1514.31C1526.85 1514.67 1526.69 1515 1526.47 1515.3C1526.25 1515.59 1525.98 1515.84 1525.66 1516.03C1517.84 1520.67 1509.81 1525 1501.76 1528.88C1501.38 1529.07 1500.96 1529.17 1500.53 1529.17ZM1546.76 1501.86C1546.16 1501.86 1545.59 1501.67 1545.11 1501.32C1544.63 1500.97 1544.27 1500.47 1544.09 1499.9C1543.91 1499.34 1543.92 1498.73 1544.11 1498.17C1544.3 1497.6 1544.66 1497.11 1545.14 1496.77C1552.3 1491.68 1559.4 1486.21 1566.26 1480.47C1566.84 1480.02 1567.56 1479.8 1568.29 1479.88C1569.02 1479.95 1569.69 1480.31 1570.16 1480.87C1570.63 1481.43 1570.86 1482.16 1570.8 1482.89C1570.74 1483.62 1570.4 1484.29 1569.85 1484.78C1562.88 1490.61 1555.66 1496.17 1548.39 1501.34C1547.91 1501.68 1547.34 1501.85 1546.76 1501.86ZM1588.15 1467.33C1587.59 1467.33 1587.04 1467.17 1586.58 1466.86C1586.11 1466.54 1585.75 1466.1 1585.54 1465.58C1585.33 1465.06 1585.28 1464.49 1585.4 1463.95C1585.51 1463.4 1585.79 1462.9 1586.19 1462.51C1592.67 1456.24 1598.88 1449.76 1604.65 1443.25C1604.89 1442.98 1605.19 1442.75 1605.52 1442.59C1605.85 1442.43 1606.21 1442.34 1606.58 1442.32C1606.94 1442.29 1607.31 1442.35 1607.66 1442.47C1608.01 1442.59 1608.33 1442.77 1608.6 1443.02C1608.88 1443.26 1609.1 1443.56 1609.26 1443.89C1609.42 1444.22 1609.52 1444.58 1609.54 1444.95C1609.56 1445.32 1609.51 1445.68 1609.39 1446.03C1609.27 1446.38 1609.08 1446.7 1608.84 1446.98C1602.99 1453.7 1596.69 1460.16 1590.1 1466.55C1589.57 1467.05 1588.87 1467.33 1588.15 1467.33ZM1623.68 1426.98C1623.16 1426.97 1622.66 1426.82 1622.22 1426.54C1621.78 1426.27 1621.43 1425.88 1621.2 1425.42C1620.97 1424.95 1620.87 1424.44 1620.91 1423.92C1620.95 1423.41 1621.14 1422.91 1621.44 1422.49C1626.77 1415.3 1631.75 1407.85 1636.24 1400.39C1636.62 1399.75 1637.24 1399.29 1637.96 1399.1C1638.68 1398.92 1639.44 1399.03 1640.08 1399.41C1640.72 1399.79 1641.18 1400.41 1641.37 1401.13C1641.55 1401.85 1641.44 1402.62 1641.06 1403.26C1636.57 1410.88 1631.39 1418.48 1625.95 1425.83C1625.68 1426.22 1625.33 1426.53 1624.92 1426.74C1624.51 1426.95 1624.05 1427.05 1623.59 1427.04L1623.68 1426.98ZM1651.24 1380.88C1650.76 1380.89 1650.29 1380.77 1649.88 1380.55C1649.46 1380.32 1649.11 1379.99 1648.86 1379.59C1648.6 1379.19 1648.46 1378.73 1648.43 1378.26C1648.4 1377.79 1648.5 1377.32 1648.7 1376.89C1652.44 1368.85 1655.74 1360.62 1658.59 1352.23C1658.83 1351.52 1659.33 1350.94 1660 1350.61C1660.67 1350.28 1661.44 1350.23 1662.14 1350.47C1662.85 1350.71 1663.43 1351.21 1663.76 1351.88C1664.09 1352.55 1664.14 1353.32 1663.9 1354.02C1660.98 1362.61 1657.61 1371.04 1653.79 1379.27C1653.57 1379.78 1653.19 1380.21 1652.72 1380.51C1652.25 1380.81 1651.7 1380.96 1651.15 1380.95L1651.24 1380.88ZM1668.45 1330.03H1667.85C1667.48 1329.97 1667.12 1329.83 1666.81 1329.63C1666.49 1329.42 1666.22 1329.15 1666.01 1328.84C1665.8 1328.53 1665.66 1328.18 1665.59 1327.81C1665.52 1327.44 1665.53 1327.06 1665.61 1326.69C1667.49 1318.03 1668.93 1309.27 1669.91 1300.46C1669.95 1300.09 1670.06 1299.74 1670.24 1299.42C1670.42 1299.09 1670.66 1298.81 1670.94 1298.58C1671.23 1298.34 1671.56 1298.17 1671.91 1298.07C1672.27 1297.97 1672.64 1297.93 1673.01 1297.97C1673.37 1298.01 1673.73 1298.12 1674.05 1298.3C1674.37 1298.48 1674.66 1298.72 1674.89 1299C1675.12 1299.29 1675.29 1299.62 1675.4 1299.97C1675.5 1300.33 1675.53 1300.7 1675.49 1301.07C1674.46 1310.1 1672.96 1319.08 1671.01 1327.97C1670.86 1328.56 1670.52 1329.09 1670.04 1329.48C1669.57 1329.86 1668.98 1330.08 1668.36 1330.1L1668.45 1330.03ZM1674.48 1276.65C1674.12 1276.64 1673.75 1276.57 1673.42 1276.42C1673.08 1276.27 1672.77 1276.06 1672.52 1275.8C1672.26 1275.53 1672.06 1275.22 1671.92 1274.88C1671.79 1274.54 1671.72 1274.17 1671.73 1273.8C1671.73 1272.21 1671.73 1270.6 1671.73 1269.03C1671.73 1261.92 1671.48 1254.77 1671.01 1247.15C1670.96 1246.77 1670.99 1246.38 1671.1 1246.01C1671.2 1245.65 1671.38 1245.3 1671.63 1245.01C1671.87 1244.71 1672.17 1244.47 1672.51 1244.3C1672.86 1244.12 1673.23 1244.02 1673.61 1244C1673.99 1243.97 1674.38 1244.02 1674.74 1244.15C1675.1 1244.28 1675.43 1244.48 1675.71 1244.75C1675.98 1245.01 1676.21 1245.32 1676.36 1245.67C1676.51 1246.03 1676.59 1246.4 1676.59 1246.79C1677.09 1254.52 1677.33 1261.81 1677.33 1269.03C1677.33 1270.64 1677.33 1272.26 1677.33 1273.89C1677.34 1274.27 1677.26 1274.65 1677.11 1275C1676.97 1275.36 1676.75 1275.67 1676.47 1275.94C1676.2 1276.2 1675.87 1276.41 1675.51 1276.54C1675.16 1276.68 1674.78 1276.74 1674.4 1276.72L1674.48 1276.65ZM1671.3 1222.98C1670.62 1222.98 1669.95 1222.73 1669.44 1222.28C1668.93 1221.82 1668.6 1221.19 1668.52 1220.51C1668.01 1216.16 1667.49 1212.04 1667 1208.07C1666.35 1202.96 1665.76 1198.18 1665.29 1193.76C1665.23 1193.39 1665.24 1193 1665.33 1192.63C1665.42 1192.25 1665.58 1191.9 1665.81 1191.6C1666.04 1191.29 1666.33 1191.03 1666.67 1190.84C1667 1190.65 1667.37 1190.53 1667.75 1190.49C1668.13 1190.45 1668.52 1190.49 1668.88 1190.6C1669.25 1190.72 1669.59 1190.9 1669.88 1191.15C1670.17 1191.4 1670.41 1191.71 1670.57 1192.05C1670.74 1192.4 1670.84 1192.78 1670.85 1193.16C1671.32 1197.64 1671.93 1202.31 1672.56 1207.37C1673.05 1211.35 1673.56 1215.51 1674.08 1219.86C1674.16 1220.6 1673.95 1221.34 1673.49 1221.92C1673.03 1222.5 1672.35 1222.87 1671.62 1222.95L1671.3 1222.98Z" fill="#313131"/>
<path d="M1570.7 1252.93L1407.19 1474.26V1447.78L1570.7 1252.93Z" fill="#313131"/>
<path d="M1278.52 1208.34L1286.64 1229.46L1273.43 1276.43L1278.52 1208.34Z" fill="#313131"/>
<path d="M301.526 1320.23V1327.83H399.076L398.493 1320.23H301.526Z" fill="#313131"/>
<path d="M1196.76 1002.79L1184.94 1008.26C1184.94 1008.26 1179.07 990.772 1179.52 980.773C1179.97 970.774 1186.24 907.168 1186.24 907.168C1186.24 907.168 1186.47 976.311 1188.19 983.665C1189.95 990.478 1192.84 996.944 1196.76 1002.79Z" fill="#313131"/>
<path d="M1292 884.906L1334.44 937.818L1325.45 942.032L1292 884.906Z" fill="#313131"/>
</svg>
