<svg width="2000" height="2000" viewBox="0 0 2000 2000" fill="none" xmlns="http://www.w3.org/2000/svg">
<path d="M1001.55 1211.02C1026.64 1169.64 1039.19 1131.37 1029.58 1125.55C1019.97 1119.72 991.842 1148.54 966.751 1189.92C941.66 1231.3 929.111 1269.57 938.721 1275.4C948.332 1281.23 976.462 1252.4 1001.55 1211.02Z" fill="#313131"/>
<path d="M878.576 661.682C881.746 709.272 875.82 740.302 866.036 740.945C856.251 741.588 846.283 711.615 843.067 664.048C839.852 616.48 845.364 577.388 855.08 576.768C864.795 576.148 875.43 614.092 878.576 661.682Z" fill="#313131"/>
<path d="M941.483 1279.02C939.99 1279.04 938.52 1278.66 937.234 1277.9C924.211 1270 940.978 1226.93 964.291 1188.48C987.603 1150.03 1018.06 1115.24 1031.08 1123.16C1044.11 1131.08 1027.32 1174.1 1004 1212.55C982.941 1247.37 956.091 1279.02 941.483 1279.02ZM1026.47 1127.64C1018.17 1127.64 994.471 1149.85 969.229 1191.47C942.011 1236.37 933.995 1269.21 940.243 1272.98C946.49 1276.75 971.893 1254.61 999.11 1209.59C1026.33 1164.69 1034.34 1131.84 1028.05 1128.05C1027.56 1127.77 1027.01 1127.63 1026.44 1127.64H1026.47Z" fill="#313131"/>
<path d="M865.688 743.817C859.418 743.817 853.928 736.283 849.358 721.4C844.925 707.044 841.801 687.269 840.17 664.209C838.569 643.609 838.961 622.902 841.342 602.378C843.937 583.613 848.347 574.265 854.847 573.852H855.306C871.384 573.852 879.331 630.997 881.352 661.498C882.891 684.467 882.386 704.564 879.905 719.378C877.264 735.158 872.624 743.38 866.124 743.817H865.688ZM855.421 579.571C854.02 579.571 849.84 584.164 847.221 603.159C844.892 623.295 844.515 643.609 846.096 663.818C847.566 686.12 850.69 705.965 854.939 719.7C859.532 734.468 864.126 738.212 865.941 738.075C867.755 737.937 871.866 733.665 874.416 718.437C876.713 704.265 877.287 684.168 875.817 661.889C872.119 607.523 860.658 579.571 855.421 579.571Z" fill="#313131"/>
<path d="M1522.38 711.375C1533.35 707.262 1537.16 690.351 1530.89 673.602C1524.61 656.853 1510.63 646.609 1499.65 650.722C1488.68 654.834 1484.86 671.746 1491.14 688.494C1497.42 705.243 1511.4 715.487 1522.38 711.375Z" fill="white"/>
<path d="M1517.27 715.038C1512.19 714.873 1507.3 713.086 1503.31 709.939C1496.62 704.528 1491.5 697.426 1488.48 689.369C1485.46 681.312 1484.64 672.593 1486.13 664.117C1487.97 656.009 1492.4 650.336 1498.65 647.925C1511.07 643.331 1526.76 654.264 1533.58 672.478C1536.74 680.508 1537.54 689.274 1535.88 697.743C1534.06 705.851 1529.61 711.524 1523.36 713.935C1521.41 714.665 1519.35 715.039 1517.27 715.038ZM1504.69 652.495C1503.32 652.491 1501.95 652.732 1500.67 653.207C1496.3 654.838 1493.13 659.133 1491.73 665.289C1490.47 672.69 1491.19 680.292 1493.82 687.324C1496.45 694.356 1500.9 700.566 1506.71 705.322C1511.81 709.043 1517.02 710.192 1521.39 708.561C1525.75 706.93 1528.92 702.635 1530.3 696.479C1531.71 689.103 1530.99 681.476 1528.21 674.499C1523.36 661.683 1513.32 652.495 1504.69 652.495Z" fill="#313131"/>
<path d="M1497.59 977.357L1672.58 967.228L1697.21 893.707L1666.68 672.638L1512.89 693.883L1536.11 862.08L1497.59 977.357Z" fill="white"/>
<path d="M1497.59 980.23C1497.14 980.228 1496.69 980.118 1496.29 979.91C1495.88 979.701 1495.53 979.399 1495.27 979.029C1495 978.659 1494.83 978.231 1494.76 977.781C1494.7 977.331 1494.74 976.871 1494.88 976.44L1533.17 861.805L1510.04 694.275C1509.94 693.519 1510.14 692.754 1510.59 692.139C1510.82 691.839 1511.11 691.587 1511.44 691.398C1511.76 691.209 1512.13 691.086 1512.5 691.037L1666.39 669.791C1667.14 669.693 1667.9 669.895 1668.51 670.355C1669.12 670.815 1669.52 671.495 1669.63 672.249L1700.15 893.318C1700.21 893.759 1700.16 894.208 1700.01 894.627L1675.41 968.125C1675.23 968.669 1674.9 969.147 1674.44 969.495C1673.99 969.843 1673.44 970.047 1672.86 970.078L1497.85 980.184L1497.59 980.23ZM1516.13 696.319L1538.96 861.691C1539.03 862.122 1538.99 862.564 1538.84 862.977L1501.66 974.235L1670.5 964.474L1694.27 893.433L1664.27 675.877L1516.13 696.319Z" fill="#313131"/>
<path d="M1526.46 791.866C1526.46 791.866 1555.31 768.094 1605.84 764.305C1656.37 760.515 1578.92 717.312 1578.92 717.312L1517.28 725.741L1526.46 791.866Z" fill="#313131"/>
<path d="M1526.47 794.738C1526.11 794.738 1525.76 794.668 1525.43 794.531C1524.95 794.348 1524.53 794.038 1524.21 793.634C1523.89 793.229 1523.68 792.745 1523.62 792.234L1514.43 726.109C1514.38 725.734 1514.4 725.352 1514.49 724.985C1514.59 724.618 1514.75 724.274 1514.98 723.973C1515.45 723.379 1516.12 722.985 1516.86 722.87L1578.47 714.372C1579.08 714.282 1579.71 714.395 1580.26 714.693C1588.39 719.287 1628.79 742.6 1625.55 757.345C1624.31 762.996 1617.9 766.165 1605.98 767.084C1557.06 770.828 1528.51 793.819 1528.21 794.049C1527.73 794.476 1527.11 794.719 1526.47 794.738ZM1520.56 728.13L1528.65 786.63C1538.29 779.992 1564.94 764.42 1605.61 761.365C1614.18 760.699 1619.4 758.792 1620.02 756.105C1621.69 748.411 1597.05 730.656 1578.35 720.183L1520.56 728.13Z" fill="#313131"/>
<path d="M1498.26 646.775L1506.64 707.481C1509.18 725.815 1518.89 742.392 1533.65 753.564C1548.4 764.737 1566.99 769.592 1585.33 767.06L1616.77 762.742C1625.85 761.489 1634.6 758.46 1642.51 753.827C1650.42 749.194 1657.34 743.049 1662.87 735.742C1668.41 728.435 1672.45 720.109 1674.76 711.24C1677.08 702.372 1677.63 693.133 1676.38 684.053L1667.99 623.348C1665.3 603.846 1654.96 586.214 1639.27 574.33C1623.57 562.446 1603.8 557.283 1584.3 559.978L1561.65 563.102C1542.15 565.798 1524.52 576.127 1512.63 591.817C1500.75 607.507 1495.58 627.275 1498.26 646.775Z" fill="white"/>
<path d="M1574.7 770.759C1557.47 770.725 1540.83 764.472 1527.85 753.15C1514.86 741.828 1506.4 726.198 1504.02 709.136L1496.6 655.734C1495.06 644.579 1495.73 633.228 1498.58 622.332C1501.43 611.436 1506.39 601.207 1513.19 592.23C1519.99 583.252 1528.49 575.702 1538.21 570.011C1547.93 564.32 1558.67 560.599 1569.83 559.061L1575.34 558.303C1586.49 556.762 1597.85 557.433 1608.74 560.279C1619.64 563.124 1629.87 568.089 1638.84 574.889C1647.82 581.688 1655.37 590.19 1661.06 599.908C1666.75 609.626 1670.47 620.37 1672.01 631.526L1677.87 673.902C1680.58 693.522 1676.15 713.462 1665.37 730.083C1665.17 730.399 1664.9 730.673 1664.59 730.887C1664.28 731.101 1663.93 731.252 1663.56 731.331C1662.82 731.49 1662.04 731.347 1661.4 730.932C1660.76 730.518 1660.31 729.867 1660.15 729.122C1659.99 728.377 1660.14 727.599 1660.55 726.959C1670.57 711.492 1674.7 692.938 1672.17 674.683L1666.34 632.307C1664.9 621.896 1661.43 611.87 1656.12 602.802C1650.81 593.733 1643.76 585.8 1635.38 579.455C1627 573.11 1617.46 568.477 1607.29 565.821C1597.12 563.165 1586.53 562.538 1576.12 563.976L1570.61 564.734C1549.59 567.647 1530.59 578.786 1517.78 595.704C1504.97 612.621 1499.4 633.933 1502.3 654.954L1509.67 708.355C1512.08 725.589 1521.22 741.166 1535.09 751.671C1548.96 762.177 1566.44 766.753 1583.68 764.397L1606.64 761.228C1620.74 759.27 1634.01 753.433 1644.98 744.369C1645.26 744.095 1645.6 743.882 1645.97 743.744C1646.34 743.607 1646.74 743.547 1647.13 743.569C1647.53 743.591 1647.91 743.695 1648.27 743.873C1648.62 744.051 1648.93 744.3 1649.18 744.605C1649.43 744.909 1649.62 745.262 1649.73 745.642C1649.84 746.022 1649.87 746.42 1649.82 746.812C1649.77 747.204 1649.63 747.581 1649.43 747.919C1649.23 748.258 1648.95 748.55 1648.63 748.779C1636.84 758.506 1622.57 764.764 1607.43 766.855L1584.46 770.024C1581.22 770.493 1577.96 770.739 1574.7 770.759Z" fill="#313131"/>
<path d="M1499.45 655.342C1499.45 655.342 1505.72 630.95 1512.89 619.167C1520.52 606.627 1598.77 595.648 1612.71 600.173C1624.56 604.008 1628.6 612.736 1637.08 627.735C1646.4 644.295 1670.8 643.514 1670.8 643.514L1669.19 631.869C1666.17 610.093 1654.64 590.405 1637.11 577.131C1619.59 563.858 1597.51 558.085 1575.73 561.081L1570.22 561.862C1559.43 563.349 1549.05 566.947 1539.65 572.451C1530.25 577.955 1522.04 585.256 1515.46 593.937C1508.89 602.619 1504.1 612.51 1501.35 623.047C1498.6 633.583 1497.96 644.557 1499.45 655.342Z" fill="#313131"/>
<path d="M1499.45 658.215C1498.77 658.199 1498.12 657.941 1497.61 657.487C1497.1 657.032 1496.77 656.411 1496.67 655.734C1495.13 644.579 1495.8 633.228 1498.65 622.332C1501.5 611.436 1506.46 601.207 1513.26 592.23C1520.06 583.252 1528.56 575.702 1538.28 570.011C1548 564.32 1558.74 560.599 1569.9 559.061L1575.41 558.303C1586.57 556.762 1597.92 557.433 1608.81 560.279C1619.71 563.124 1629.94 568.089 1638.91 574.889C1647.89 581.688 1655.44 590.19 1661.13 599.908C1666.82 609.626 1670.54 620.37 1672.08 631.526L1673.69 643.171C1673.75 643.568 1673.72 643.974 1673.61 644.361C1673.5 644.748 1673.31 645.107 1673.06 645.415C1672.8 645.723 1672.48 645.973 1672.12 646.148C1671.75 646.324 1671.36 646.42 1670.96 646.432C1669.88 646.432 1644.73 647.075 1634.64 629.206C1625.89 613.657 1620.86 606.008 1611.84 602.885C1600.22 598.819 1522.38 610.349 1515.23 619.605C1507.31 629.849 1502.39 655.62 1502.35 655.872C1502.23 656.545 1501.87 657.152 1501.34 657.582C1500.8 658.012 1500.14 658.237 1499.45 658.215ZM1603.36 596.453C1606.85 596.257 1610.35 596.567 1613.74 597.372C1624.93 601.254 1631.02 610.9 1639.67 626.289C1646.11 637.773 1660.99 640.07 1667.56 640.484L1666.43 632.215C1665 621.804 1661.52 611.778 1656.21 602.71C1650.9 593.641 1643.85 585.708 1635.48 579.363C1627.1 573.018 1617.55 568.385 1607.38 565.729C1597.22 563.073 1586.62 562.447 1576.21 563.884L1570.7 564.642C1553.33 567.056 1537.22 575.104 1524.86 587.551C1512.5 599.998 1504.57 616.156 1502.28 633.547C1504.16 627.282 1507.01 621.347 1510.71 615.953C1518.45 605.939 1577.55 596.453 1603.36 596.453Z" fill="#313131"/>
<path d="M1551.09 693.242C1550.7 693.245 1550.31 693.17 1549.95 693.02C1549.59 692.87 1549.27 692.648 1549 692.369C1548.28 691.611 1546.08 689.314 1543.76 658.422C1543.73 658.045 1543.78 657.666 1543.9 657.306C1544.01 656.947 1544.2 656.615 1544.45 656.328C1544.94 655.748 1545.65 655.39 1546.41 655.333C1547.17 655.275 1547.93 655.522 1548.51 656.019C1549.09 656.517 1549.44 657.224 1549.5 657.985C1550.11 667.692 1551.23 677.36 1552.86 686.948L1574.1 681.78C1574.47 681.685 1574.85 681.664 1575.22 681.719C1575.6 681.775 1575.96 681.905 1576.28 682.102C1576.61 682.299 1576.89 682.559 1577.11 682.867C1577.33 683.175 1577.49 683.524 1577.57 683.894C1577.74 684.633 1577.62 685.412 1577.22 686.061C1576.83 686.709 1576.19 687.177 1575.46 687.362L1551.73 693.173L1551.09 693.242Z" fill="#313131"/>
<path d="M1593.07 647.167C1592.64 647.183 1592.21 647.101 1591.81 646.926C1591.41 646.751 1591.06 646.487 1590.78 646.156C1580.58 634.19 1564.62 640.322 1563.95 640.598C1563.6 640.738 1563.22 640.808 1562.84 640.803C1562.47 640.798 1562.09 640.719 1561.74 640.569C1561.4 640.42 1561.08 640.204 1560.82 639.933C1560.55 639.662 1560.35 639.341 1560.21 638.99C1560.07 638.639 1560 638.263 1560 637.885C1560.01 637.506 1560.08 637.133 1560.23 636.785C1560.38 636.437 1560.6 636.123 1560.87 635.859C1561.14 635.595 1561.46 635.386 1561.81 635.246C1562.02 635.246 1582.25 627.276 1595.14 642.435C1595.5 642.852 1595.72 643.362 1595.8 643.905C1595.87 644.448 1595.79 645.001 1595.56 645.498C1595.33 645.995 1594.96 646.417 1594.5 646.713C1594.04 647.008 1593.51 647.166 1592.96 647.167H1593.07Z" fill="#313131"/>
<path d="M1520.51 663.772H1519.96C1519.59 663.706 1519.23 663.566 1518.92 663.361C1518.6 663.156 1518.32 662.889 1518.11 662.577C1517.9 662.265 1517.75 661.913 1517.67 661.542C1517.59 661.172 1517.59 660.79 1517.66 660.418C1520.56 645.42 1537.3 640.046 1538.01 639.747C1538.37 639.633 1538.75 639.592 1539.13 639.625C1539.5 639.659 1539.87 639.766 1540.2 639.941C1540.53 640.117 1540.83 640.356 1541.07 640.646C1541.31 640.936 1541.49 641.27 1541.6 641.63C1541.71 641.991 1541.75 642.37 1541.72 642.747C1541.69 643.123 1541.58 643.49 1541.4 643.825C1541.23 644.16 1540.99 644.457 1540.7 644.699C1540.41 644.941 1540.08 645.124 1539.71 645.236C1539.58 645.236 1525.54 649.83 1523.29 661.429C1523.17 662.08 1522.83 662.669 1522.32 663.096C1521.81 663.523 1521.18 663.762 1520.51 663.772Z" fill="#313131"/>
<path d="M1574.72 658.19C1576.78 658.19 1578.44 656.524 1578.44 654.469C1578.44 652.414 1576.78 650.748 1574.72 650.748C1572.67 650.748 1571 652.414 1571 654.469C1571 656.524 1572.67 658.19 1574.72 658.19Z" fill="#313131"/>
<path d="M1536.73 669.1C1538.78 669.1 1540.45 667.434 1540.45 665.379C1540.45 663.324 1538.78 661.658 1536.73 661.658C1534.67 661.658 1533.01 663.324 1533.01 665.379C1533.01 667.434 1534.67 669.1 1536.73 669.1Z" fill="#313131"/>
<path d="M1685.8 659.951C1687.31 642.129 1679.06 626.882 1667.38 625.897C1655.7 624.912 1645.01 638.562 1643.51 656.385C1642.01 674.207 1650.26 689.454 1661.93 690.439C1673.61 691.423 1684.3 677.774 1685.8 659.951Z" fill="white"/>
<path d="M1667.33 692.736C1666.63 692.742 1665.96 692.496 1665.43 692.046C1664.91 691.595 1664.56 690.968 1664.46 690.283C1664.36 689.597 1664.51 688.898 1664.89 688.314C1665.26 687.731 1665.83 687.303 1666.5 687.109C1674.91 684.605 1681.82 673.075 1682.94 659.731C1684.3 643.791 1677.04 629.596 1667.14 628.77C1660.11 628.172 1653.04 634.328 1649.13 644.48C1648.86 645.193 1648.31 645.767 1647.62 646.077C1646.92 646.387 1646.13 646.408 1645.41 646.134C1644.7 645.86 1644.13 645.313 1643.82 644.616C1643.51 643.918 1643.49 643.125 1643.76 642.413C1648.61 629.826 1657.98 622.224 1667.62 623.051C1680.85 624.176 1690.29 640.828 1688.66 660.19C1687.33 676.084 1678.88 689.406 1668.15 692.621C1667.89 692.704 1667.61 692.743 1667.33 692.736Z" fill="#313131"/>
<path d="M1663.7 661.13C1663.25 661.121 1662.8 661.005 1662.41 660.794C1662.01 660.583 1661.66 660.281 1661.4 659.913C1661.11 659.495 1660.93 659.007 1660.89 658.497C1660.85 657.988 1660.95 657.478 1661.17 657.019L1668.25 642.319C1668.39 641.957 1668.61 641.63 1668.89 641.356C1669.17 641.083 1669.51 640.87 1669.87 640.729C1670.24 640.589 1670.63 640.525 1671.02 640.54C1671.41 640.556 1671.79 640.652 1672.14 640.821C1672.5 640.99 1672.81 641.23 1673.07 641.525C1673.32 641.82 1673.52 642.164 1673.64 642.537C1673.76 642.909 1673.8 643.302 1673.76 643.691C1673.72 644.08 1673.6 644.458 1673.41 644.8L1668.52 654.791L1670.82 654.538C1671.58 654.456 1672.34 654.678 1672.93 655.157C1673.53 655.635 1673.91 656.329 1673.99 657.088C1674.07 657.846 1673.85 658.606 1673.37 659.201C1672.89 659.795 1672.2 660.175 1671.44 660.257L1663.88 661.038L1663.7 661.13Z" fill="#313131"/>
<path d="M1501.89 675.784C1501.2 675.786 1500.53 675.542 1500 675.095L1495.71 671.374C1495.13 670.875 1494.78 670.167 1494.73 669.407C1494.67 668.647 1494.92 667.896 1495.42 667.32C1495.92 666.745 1496.63 666.391 1497.39 666.337C1498.15 666.283 1498.9 666.534 1499.48 667.033L1503.75 670.754C1504.04 670.999 1504.27 671.298 1504.44 671.634C1504.61 671.97 1504.71 672.337 1504.74 672.713C1504.77 673.089 1504.72 673.467 1504.6 673.825C1504.48 674.182 1504.29 674.513 1504.05 674.797C1503.78 675.109 1503.45 675.36 1503.08 675.53C1502.7 675.701 1502.3 675.788 1501.89 675.784Z" fill="#313131"/>
<path d="M1581.58 705.46C1580.49 705.461 1579.41 705.33 1578.35 705.069C1577.96 705.008 1577.58 704.868 1577.25 704.656C1576.92 704.445 1576.63 704.167 1576.41 703.841C1576.19 703.514 1576.04 703.146 1575.97 702.758C1575.9 702.371 1575.9 701.972 1575.99 701.588C1576.08 701.204 1576.25 700.842 1576.48 700.525C1576.72 700.209 1577.01 699.943 1577.36 699.746C1577.7 699.549 1578.08 699.425 1578.47 699.38C1578.86 699.336 1579.26 699.373 1579.63 699.488C1589.1 701.785 1594.52 686.029 1594.56 685.868C1594.67 685.497 1594.85 685.152 1595.1 684.853C1595.34 684.554 1595.64 684.308 1595.99 684.129C1596.33 683.949 1596.7 683.841 1597.09 683.81C1597.47 683.779 1597.86 683.826 1598.23 683.948C1598.59 684.07 1598.93 684.265 1599.22 684.521C1599.51 684.777 1599.74 685.088 1599.91 685.437C1600.08 685.786 1600.17 686.164 1600.19 686.55C1600.2 686.936 1600.14 687.321 1600.01 687.682C1599.68 688.486 1593.83 705.46 1581.58 705.46Z" fill="#313131"/>
<path d="M1593.97 608.892L1516.43 624.718C1504.89 627.072 1497.45 638.332 1499.8 649.869L1502.33 662.226C1504.68 673.762 1515.94 681.206 1527.48 678.851L1605.02 663.026C1616.56 660.672 1624 649.411 1621.65 637.875L1619.12 625.518C1616.77 613.982 1605.51 606.538 1593.97 608.892Z" fill="#FFA620"/>
<path d="M1521.43 686.602C1515.86 686.572 1510.46 684.624 1506.15 681.086C1501.85 677.547 1498.89 672.634 1497.78 667.171L1495.29 654.791C1494.03 648.502 1495.31 641.968 1498.86 636.623C1502.41 631.279 1507.93 627.561 1514.22 626.288L1591.78 610.669C1594.9 610.04 1598.11 610.031 1601.22 610.643C1604.34 611.255 1607.31 612.476 1609.95 614.236C1612.6 615.996 1614.87 618.261 1616.64 620.9C1618.41 623.54 1619.64 626.502 1620.26 629.618L1622.75 641.952C1624.01 648.238 1622.73 654.77 1619.18 660.111C1615.63 665.451 1610.11 669.164 1603.82 670.433L1526.26 686.051C1524.67 686.405 1523.06 686.589 1521.43 686.602ZM1596.58 615.975C1595.35 615.974 1594.12 616.097 1592.91 616.342L1515.37 631.961C1510.58 632.936 1506.37 635.77 1503.66 639.842C1500.95 643.914 1499.97 648.893 1500.92 653.689L1503.49 666.046C1503.97 668.424 1504.9 670.685 1506.25 672.699C1507.6 674.713 1509.34 676.44 1511.36 677.781C1513.38 679.122 1515.64 680.049 1518.02 680.511C1520.4 680.972 1522.85 680.958 1525.22 680.47L1602.79 664.851C1605.16 664.38 1607.42 663.443 1609.44 662.093C1611.45 660.744 1613.18 659.01 1614.52 656.99C1615.86 654.97 1616.79 652.705 1617.25 650.325C1617.71 647.945 1617.7 645.498 1617.21 643.123L1614.73 630.789C1613.88 626.622 1611.62 622.874 1608.33 620.176C1605.05 617.478 1600.93 615.995 1596.68 615.975H1596.58Z" fill="#313131"/>
<path d="M1567.59 618.428L1490.02 634.054C1478.48 636.379 1471.01 647.619 1473.34 659.158L1475.83 671.52C1478.15 683.06 1489.39 690.53 1500.93 688.205L1578.5 672.579C1590.04 670.254 1597.51 659.015 1595.18 647.475L1592.69 635.114C1590.37 623.574 1579.13 616.103 1567.59 618.428Z" fill="#FFA620"/>
<path d="M1496.6 691.541C1491.02 691.533 1485.62 689.593 1481.3 686.051C1476.99 682.508 1474.04 677.583 1472.94 672.11L1470.44 659.776C1469.19 653.488 1470.48 646.96 1474.03 641.621C1477.58 636.283 1483.11 632.57 1489.39 631.296L1566.93 615.677C1573.22 614.411 1579.75 615.693 1585.1 619.242C1590.44 622.791 1594.16 628.316 1595.43 634.603L1597.92 646.937C1599.19 653.223 1597.92 659.758 1594.38 665.106C1590.84 670.454 1585.32 674.18 1579.04 675.464L1501.47 691.082C1499.87 691.397 1498.24 691.551 1496.6 691.541ZM1571.75 620.937C1570.52 620.934 1569.29 621.057 1568.08 621.305L1490.52 636.923C1488.14 637.394 1485.88 638.332 1483.86 639.681C1481.85 641.03 1480.12 642.764 1478.78 644.784C1477.44 646.804 1476.51 649.069 1476.05 651.449C1475.59 653.829 1475.6 656.276 1476.09 658.651L1478.57 670.985C1479.04 673.365 1479.98 675.628 1481.32 677.645C1482.67 679.662 1484.41 681.392 1486.43 682.735C1488.45 684.078 1490.71 685.008 1493.09 685.47C1495.47 685.933 1497.92 685.92 1500.3 685.432L1577.84 669.813C1582.63 668.838 1586.84 666.005 1589.55 661.933C1592.26 657.86 1593.24 652.881 1592.29 648.085L1589.81 635.729C1588.98 631.554 1586.72 627.796 1583.43 625.098C1580.14 622.401 1576.01 620.93 1571.75 620.937Z" fill="#313131"/>
<path d="M1499.5 654.057C1498.8 654.039 1498.13 653.766 1497.61 653.289C1497.1 652.811 1496.78 652.162 1496.71 651.464C1496.64 650.766 1496.83 650.067 1497.24 649.5C1497.66 648.932 1498.26 648.535 1498.95 648.383L1564.82 635.108C1565.57 634.956 1566.34 635.106 1566.98 635.526C1567.61 635.946 1568.06 636.601 1568.21 637.347C1568.36 638.093 1568.21 638.87 1567.79 639.505C1567.37 640.14 1566.71 640.583 1565.97 640.735L1500.07 654.011L1499.5 654.057Z" fill="#313131"/>
<path d="M1503.06 671.765C1502.34 671.775 1501.64 671.514 1501.1 671.033C1500.57 670.553 1500.23 669.888 1500.16 669.17C1500.09 668.453 1500.3 667.736 1500.73 667.161C1501.17 666.586 1501.8 666.196 1502.51 666.068L1568.41 652.816C1568.78 652.739 1569.16 652.738 1569.54 652.813C1569.91 652.888 1570.26 653.037 1570.58 653.251C1570.89 653.465 1571.16 653.74 1571.37 654.06C1571.58 654.38 1571.72 654.738 1571.78 655.113C1571.92 655.865 1571.76 656.642 1571.33 657.275C1570.9 657.908 1570.24 658.344 1569.48 658.489L1503.59 671.765H1503.06Z" fill="#313131"/>
<path d="M716.927 990.221L599.398 899.979L716.927 809.714L834.455 899.979L716.927 990.221Z" fill="#FFA620"/>
<path d="M599.398 899.979V995.343L716.927 1090.18V990.221L599.398 899.979Z" fill="#FFA620"/>
<path d="M834.454 899.979V995.343L716.926 1090.18V990.221L834.454 899.979Z" fill="#FFA620"/>
<path d="M716.926 993.091C716.296 993.097 715.682 992.895 715.18 992.516L597.629 902.251C597.28 901.978 596.998 901.63 596.804 901.232C596.611 900.834 596.51 900.397 596.51 899.954C596.51 899.512 596.611 899.075 596.804 898.677C596.998 898.279 597.28 897.93 597.629 897.658L715.18 807.415C715.678 807.024 716.293 806.812 716.926 806.812C717.559 806.812 718.173 807.024 718.671 807.415L836.223 897.658C836.575 897.928 836.861 898.275 837.057 898.674C837.254 899.072 837.356 899.51 837.356 899.954C837.356 900.399 837.254 900.837 837.057 901.235C836.861 901.633 836.575 901.981 836.223 902.251L718.671 992.425C718.181 992.837 717.566 993.071 716.926 993.091ZM604.106 899.977L716.926 986.614L829.746 899.977L716.926 813.272L604.106 899.977Z" fill="#313131"/>
<path d="M716.927 1093.05C716.272 1093.06 715.637 1092.83 715.136 1092.41L597.584 997.594C597.247 997.315 596.977 996.964 596.794 996.566C596.611 996.169 596.52 995.735 596.528 995.297V899.979C596.53 899.443 596.679 898.918 596.959 898.461C597.238 898.003 597.637 897.631 598.113 897.384C598.596 897.147 599.135 897.049 599.671 897.102C600.207 897.155 600.717 897.356 601.144 897.682L718.673 987.948C719.024 988.219 719.308 988.567 719.503 988.965C719.698 989.363 719.799 989.801 719.798 990.244V1090.2C719.797 1090.74 719.643 1091.27 719.355 1091.73C719.067 1092.19 718.655 1092.56 718.168 1092.8C717.777 1092.97 717.354 1093.06 716.927 1093.05ZM602.27 993.988L714.056 1084.3V991.645L602.27 905.79V993.988Z" fill="#313131"/>
<path d="M716.926 1093.05C716.497 1093.05 716.074 1092.95 715.685 1092.77C715.198 1092.54 714.787 1092.17 714.498 1091.71C714.21 1091.25 714.056 1090.72 714.055 1090.18V990.128C714.054 989.685 714.155 989.247 714.35 988.849C714.545 988.45 714.829 988.102 715.18 987.831L832.823 897.681C833.252 897.37 833.758 897.182 834.286 897.139C834.814 897.095 835.344 897.197 835.818 897.434C836.292 897.671 836.691 898.034 836.973 898.482C837.255 898.931 837.409 899.448 837.417 899.978V995.342C837.42 995.781 837.325 996.215 837.138 996.613C836.951 997.01 836.678 997.361 836.338 997.639L718.809 1092.45C718.274 1092.87 717.605 1093.08 716.926 1093.05ZM719.797 991.644V1084.3L831.606 994.101V905.903L719.797 991.644Z" fill="#313131"/>
<path d="M926.029 1046.06C925.633 1046.05 925.243 1045.96 924.881 1045.8C924.535 1045.65 924.223 1045.43 923.962 1045.16C923.701 1044.89 923.496 1044.57 923.36 1044.21C923.223 1043.86 923.157 1043.49 923.166 1043.11C923.175 1042.73 923.258 1042.36 923.411 1042.01C936.187 1013.25 942.753 982.118 942.681 950.646C942.634 919.505 936.167 888.709 923.683 860.18C911.199 831.652 892.966 806.004 870.125 784.838C869.83 784.587 869.589 784.278 869.417 783.932C869.245 783.585 869.144 783.207 869.122 782.82C869.1 782.434 869.156 782.047 869.287 781.682C869.418 781.318 869.621 780.984 869.885 780.7C870.148 780.416 870.466 780.189 870.82 780.031C871.174 779.874 871.556 779.79 871.943 779.784C872.33 779.777 872.715 779.85 873.073 779.996C873.432 780.142 873.757 780.36 874.029 780.635C909.482 813.413 933.807 856.449 943.604 903.729C953.4 951.008 948.18 1000.17 928.671 1044.33C928.444 1044.85 928.074 1045.28 927.605 1045.59C927.136 1045.89 926.589 1046.05 926.029 1046.06Z" fill="#313131"/>
<path d="M589.107 1143.1C588.532 1143.1 587.97 1142.92 587.499 1142.59C558.062 1122.73 533.587 1096.37 515.967 1065.54C498.347 1034.71 488.055 1000.24 485.886 964.791C483.716 929.347 489.729 893.879 503.457 861.13C517.186 828.381 538.263 799.228 565.059 775.927C565.344 775.68 565.675 775.491 566.033 775.371C566.391 775.252 566.769 775.204 567.146 775.231C567.522 775.257 567.889 775.358 568.227 775.527C568.565 775.695 568.866 775.929 569.113 776.214C569.36 776.499 569.549 776.83 569.669 777.188C569.788 777.546 569.836 777.924 569.809 778.3C569.782 778.677 569.682 779.044 569.513 779.382C569.345 779.719 569.111 780.021 568.826 780.268C542.695 802.992 522.142 831.422 508.754 863.359C495.366 895.296 489.504 929.884 491.62 964.449C493.736 999.014 503.773 1032.63 520.956 1062.69C538.139 1092.76 562.007 1118.47 590.715 1137.84C591.344 1138.26 591.779 1138.92 591.925 1139.66C592.071 1140.41 591.917 1141.18 591.496 1141.81C591.231 1142.2 590.876 1142.52 590.46 1142.75C590.044 1142.97 589.58 1143.09 589.107 1143.1Z" fill="#313131"/>
<path d="M591.976 1146.57C591.777 1146.59 591.577 1146.59 591.378 1146.57L539.792 1135.56C539.413 1135.5 539.051 1135.36 538.728 1135.16C538.404 1134.95 538.127 1134.68 537.912 1134.36C537.697 1134.04 537.549 1133.68 537.477 1133.3C537.406 1132.93 537.412 1132.54 537.495 1132.16C537.564 1131.79 537.707 1131.43 537.915 1131.11C538.124 1130.79 538.395 1130.52 538.712 1130.3C539.028 1130.09 539.384 1129.94 539.759 1129.87C540.134 1129.79 540.52 1129.79 540.894 1129.87L587.152 1139.74L569.581 1096.79C569.277 1096.09 569.265 1095.29 569.55 1094.57C569.834 1093.86 570.391 1093.29 571.097 1092.98C571.804 1092.68 572.603 1092.67 573.318 1092.95C574.033 1093.23 574.605 1093.79 574.91 1094.5L594.525 1142.48C594.701 1142.91 594.768 1143.38 594.721 1143.85C594.673 1144.32 594.512 1144.76 594.251 1145.15C593.991 1145.54 593.639 1145.86 593.226 1146.09C592.813 1146.31 592.352 1146.43 591.884 1146.43L591.976 1146.57Z" fill="#313131"/>
<path d="M883.95 832.521C883.329 832.517 882.727 832.314 882.231 831.942C881.734 831.57 881.371 831.048 881.194 830.454L866.724 780.682C866.578 780.182 866.571 779.652 866.704 779.148C866.837 778.645 867.104 778.187 867.476 777.824C867.849 777.461 868.314 777.205 868.82 777.086C869.327 776.966 869.857 776.986 870.353 777.144L920.492 793.498C920.866 793.607 921.213 793.791 921.513 794.039C921.813 794.286 922.06 794.592 922.238 794.938C922.417 795.284 922.523 795.662 922.55 796.05C922.578 796.439 922.526 796.828 922.399 797.196C922.287 797.556 922.104 797.89 921.861 798.179C921.618 798.467 921.319 798.704 920.983 798.875C920.647 799.046 920.28 799.149 919.904 799.176C919.528 799.203 919.15 799.154 918.793 799.033L873.821 784.357L886.775 828.915C886.982 829.646 886.893 830.429 886.528 831.095C886.163 831.761 885.55 832.256 884.823 832.475C884.535 832.53 884.241 832.545 883.95 832.521Z" fill="#313131"/>
<path d="M1163.91 503.523C1207.94 503.523 1243.63 467.83 1243.63 423.8C1243.63 379.77 1207.94 344.077 1163.91 344.077C1119.88 344.077 1084.19 379.77 1084.19 423.8C1084.19 467.83 1119.88 503.523 1163.91 503.523Z" fill="#21A2FF"/>
<path d="M1164.05 506.371C1149.33 506.415 1134.87 502.532 1122.16 495.121C1109.44 487.711 1098.94 477.041 1091.73 464.215C1084.51 451.389 1080.85 436.87 1081.13 422.157C1081.4 407.444 1085.59 393.07 1093.27 380.519C1100.96 367.968 1111.85 357.695 1124.83 350.759C1137.81 343.824 1152.4 340.478 1167.1 341.066C1181.81 341.655 1196.09 346.156 1208.47 354.107C1220.85 362.057 1230.89 373.168 1237.54 386.293C1243.96 398.876 1247.04 412.895 1246.49 427.009C1245.94 441.123 1241.78 454.86 1234.41 466.907C1227.04 478.954 1216.69 488.908 1204.38 495.817C1192.06 502.727 1178.17 506.36 1164.05 506.371ZM1163.79 347.017C1147.05 347.068 1130.79 352.583 1117.47 362.723C1104.15 372.863 1094.51 387.074 1090.01 403.195C1085.51 419.317 1086.39 436.468 1092.53 452.041C1098.66 467.615 1109.72 480.759 1124 489.476C1138.29 498.194 1155.04 502.007 1171.69 500.337C1188.35 498.667 1204 491.605 1216.28 480.224C1228.55 468.844 1236.78 453.767 1239.7 437.285C1242.62 420.803 1240.08 403.818 1232.47 388.911C1226.05 376.233 1216.22 365.597 1204.09 358.196C1191.96 350.795 1178 346.924 1163.79 347.017Z" fill="#313131"/>
<path d="M1107.36 463.697C1097.35 463.697 1090.75 460.986 1088.04 455.658C1087.87 455.322 1087.77 454.955 1087.74 454.578C1087.71 454.202 1087.75 453.823 1087.87 453.464C1087.98 453.104 1088.17 452.771 1088.42 452.484C1088.66 452.196 1088.96 451.96 1089.3 451.788C1089.97 451.44 1090.76 451.377 1091.49 451.612C1092.22 451.847 1092.82 452.36 1093.17 453.039C1095.46 457.633 1105.29 459.172 1119.23 456.852C1134.62 454.303 1153.43 447.665 1172.06 438.11C1190.69 428.555 1206.93 417.439 1217.7 406.644C1227.42 396.951 1231.76 388.269 1229.34 383.675C1229.17 383.339 1229.07 382.971 1229.04 382.594C1229.01 382.217 1229.05 381.838 1229.17 381.478C1229.28 381.118 1229.47 380.784 1229.72 380.497C1229.96 380.209 1230.26 379.973 1230.6 379.802C1230.94 379.631 1231.31 379.529 1231.68 379.5C1232.06 379.472 1232.44 379.518 1232.8 379.637C1233.16 379.756 1233.49 379.945 1233.78 380.192C1234.06 380.44 1234.3 380.741 1234.47 381.08C1238.21 388.453 1233.82 398.72 1221.76 410.778C1210.58 421.986 1193.86 433.517 1174.68 443.301C1155.5 453.085 1136.05 459.953 1120.08 462.594C1115.88 463.301 1111.62 463.67 1107.36 463.697Z" fill="#313131"/>
<path d="M1186.01 500.768C1175.96 500.433 1166.2 497.36 1157.78 491.879C1142.23 482.393 1128.19 466.476 1118.3 447.045C1097.62 406.46 1101.6 362.844 1127.18 349.821C1152.77 336.798 1190.39 359.192 1211.06 399.777C1231.74 440.361 1227.74 483.978 1202.18 497.001C1197.16 499.523 1191.62 500.815 1186.01 500.768ZM1143.42 351.773C1138.69 351.721 1134.02 352.808 1129.8 354.943C1107.04 366.427 1104.17 406.667 1123.42 444.519C1132.83 463.031 1146.11 478.144 1160.76 487.056C1175 495.715 1188.76 497.461 1199.56 491.971C1222.32 480.372 1225.19 440.224 1205.94 402.395C1190.28 371.595 1164.67 351.773 1143.42 351.773Z" fill="#313131"/>
<path d="M882.527 1432.89L713.894 1464.49L668.854 1544.76L768.857 1655.75L835.534 1609.58L882.527 1432.89Z" fill="#FFA620"/>
<path d="M768.855 1658.62C768.45 1658.62 768.05 1658.54 767.681 1658.37C767.312 1658.21 766.984 1657.96 766.719 1657.65L666.716 1546.69C666.319 1546.24 666.072 1545.68 666.006 1545.09C665.94 1544.49 666.06 1543.89 666.348 1543.36L711.389 1462.97C711.596 1462.61 711.88 1462.29 712.221 1462.05C712.562 1461.8 712.952 1461.63 713.364 1461.55L881.997 1429.95C882.474 1429.86 882.966 1429.89 883.427 1430.04C883.888 1430.19 884.303 1430.46 884.633 1430.81C884.964 1431.17 885.199 1431.6 885.316 1432.07C885.433 1432.54 885.429 1433.04 885.304 1433.51L838.311 1610.27C838.136 1610.93 837.728 1611.51 837.163 1611.9L770.555 1658.04C770.063 1658.41 769.468 1658.61 768.855 1658.62ZM672.389 1544.37L769.315 1651.93L833.052 1607.84L878.621 1436.54L715.684 1467.06L672.389 1544.37Z" fill="#313131"/>
<path d="M768.854 1658.62C768.45 1658.62 768.051 1658.53 767.683 1658.36C767.315 1658.2 766.986 1657.96 766.718 1657.65L666.714 1546.69C666.421 1546.37 666.206 1545.98 666.087 1545.56C665.968 1545.14 665.946 1544.69 666.025 1544.26C666.104 1543.83 666.28 1543.42 666.538 1543.07C666.797 1542.71 667.132 1542.42 667.518 1542.22L881.123 1430.34C881.664 1430.06 882.278 1429.97 882.878 1430.06C883.478 1430.15 884.033 1430.43 884.465 1430.86C884.896 1431.29 885.183 1431.84 885.284 1432.44C885.385 1433.04 885.295 1433.65 885.027 1434.2L771.335 1656.99C771.122 1657.4 770.814 1657.76 770.434 1658.03C770.054 1658.31 769.615 1658.48 769.153 1658.55L768.854 1658.62ZM673.467 1545.59L768.188 1650.72L875.886 1439.62L673.467 1545.59Z" fill="#313131"/>
<path d="M114.881 781.003L151.308 827.169L186.473 788.399L202.918 811.367L273.913 731.139L255.171 707.711L289.738 668.941L252.966 619.398L218.399 661.775L200.552 638.416L133.416 717.68L149.035 739.109L114.881 781.003Z" fill="#21A2FF"/>
<path d="M151.309 830.039C150.891 830.02 150.483 829.911 150.11 829.721C149.738 829.531 149.411 829.264 149.15 828.937L112.63 782.794C112.222 782.281 112 781.646 112 780.991C112 780.336 112.222 779.7 112.63 779.188L145.383 739.016L131.074 719.355C130.679 718.85 130.464 718.228 130.464 717.587C130.464 716.946 130.679 716.323 131.074 715.818L198.233 636.555C198.5 636.236 198.834 635.98 199.211 635.806C199.588 635.631 199.999 635.542 200.415 635.544C200.859 635.541 201.297 635.642 201.696 635.837C202.094 636.032 202.442 636.317 202.712 636.67L218.353 657.134L250.509 617.583C250.776 617.226 251.123 616.937 251.522 616.738C251.92 616.538 252.36 616.435 252.805 616.435C253.251 616.435 253.691 616.538 254.089 616.738C254.488 616.937 254.835 617.226 255.102 617.583L291.852 667.126C292.251 667.655 292.454 668.306 292.425 668.969C292.395 669.631 292.136 670.263 291.691 670.755L258.754 707.71L275.957 729.255C276.398 729.77 276.639 730.426 276.639 731.104C276.639 731.781 276.398 732.437 275.957 732.952L205.054 813.272C204.771 813.598 204.416 813.854 204.018 814.022C203.62 814.189 203.189 814.263 202.758 814.237C202.308 814.234 201.865 814.124 201.466 813.916C201.067 813.708 200.722 813.409 200.461 813.043L186.106 792.946L153.33 829.098C152.808 829.667 152.081 830.005 151.309 830.039ZM118.51 781.117L151.424 822.781L184.314 786.537C184.602 786.221 184.956 785.972 185.352 785.81C185.748 785.648 186.175 785.577 186.602 785.601C187.029 785.625 187.446 785.744 187.821 785.95C188.196 786.156 188.52 786.443 188.77 786.79L203.102 806.841L270.101 731.046L252.897 709.502C252.462 708.984 252.223 708.33 252.223 707.653C252.223 706.976 252.462 706.322 252.897 705.804L285.903 668.756L252.714 624.06L220.558 663.588C220.284 663.931 219.933 664.205 219.534 664.388C219.136 664.571 218.7 664.659 218.261 664.645C217.819 664.639 217.383 664.535 216.986 664.341C216.589 664.146 216.24 663.865 215.964 663.519L200.3 642.986L136.931 717.816L151.355 737.477C151.738 737.978 151.946 738.592 151.946 739.223C151.946 739.854 151.738 740.467 151.355 740.968L118.51 781.117Z" fill="#313131"/>
<path d="M151.311 827.169L206.963 866.835L233.169 835.277L257.332 851.768L328.166 769.772L310.641 745.632L344.726 706.54L305.933 659.868L252.968 619.398L289.74 668.941L255.173 707.711L273.915 731.139L202.92 811.367L185.418 789.547L151.311 827.169Z" fill="#21A2FF"/>
<path d="M206.963 869.706C206.367 869.703 205.788 869.51 205.309 869.155L149.657 829.512C149.326 829.274 149.049 828.969 148.843 828.616C148.637 828.264 148.508 827.873 148.463 827.468C148.41 827.054 148.448 826.635 148.575 826.238C148.702 825.841 148.914 825.477 149.198 825.171L183.282 787.549C183.572 787.233 183.929 786.984 184.326 786.822C184.723 786.659 185.151 786.586 185.579 786.607C185.995 786.624 186.402 786.729 186.775 786.915C187.147 787.101 187.475 787.364 187.738 787.687L203.081 806.842L270.217 731.047L253.014 709.503C252.578 708.985 252.339 708.33 252.339 707.654C252.339 706.977 252.578 706.323 253.014 705.805L286.019 668.757L250.648 621.098C250.254 620.542 250.071 619.863 250.131 619.184C250.192 618.505 250.492 617.869 250.978 617.391C251.465 616.913 252.105 616.624 252.786 616.575C253.466 616.526 254.141 616.721 254.691 617.125L307.655 657.595C307.836 657.716 307.999 657.863 308.138 658.031L346.908 704.702C347.354 705.22 347.6 705.88 347.6 706.563C347.6 707.246 347.354 707.906 346.908 708.423L314.339 745.816L330.417 768.072C330.794 768.596 330.986 769.23 330.961 769.876C330.936 770.521 330.696 771.139 330.279 771.632L259.445 853.651C258.983 854.183 258.341 854.526 257.642 854.615C256.943 854.703 256.236 854.532 255.655 854.134L233.629 839.113L209.099 868.673C208.837 868.987 208.511 869.242 208.142 869.421C207.774 869.599 207.372 869.696 206.963 869.706ZM155.606 826.71L206.457 862.931L231.056 833.439C231.507 832.887 232.149 832.523 232.855 832.421C233.561 832.319 234.28 832.486 234.869 832.888L256.942 847.955L324.514 769.634L308.322 747.354C307.942 746.826 307.751 746.185 307.78 745.535C307.809 744.885 308.057 744.264 308.482 743.771L340.959 706.517L303.935 661.982L267.415 634.121L292.037 667.287C292.437 667.816 292.64 668.468 292.61 669.131C292.581 669.793 292.321 670.425 291.876 670.916L258.94 707.872L276.143 729.416C276.583 729.932 276.825 730.587 276.825 731.265C276.825 731.943 276.583 732.599 276.143 733.114L205.056 813.273C204.778 813.606 204.425 813.867 204.025 814.035C203.626 814.203 203.192 814.273 202.759 814.238C202.339 814.229 201.925 814.128 201.548 813.941C201.171 813.754 200.84 813.487 200.577 813.159L185.189 793.98L155.606 826.71Z" fill="#313131"/>
<path d="M233.166 838.148C232.516 838.146 231.886 837.928 231.374 837.528L201.194 813.618C200.893 813.384 200.64 813.093 200.451 812.762C200.262 812.43 200.139 812.065 200.091 811.686C200.043 811.308 200.07 810.923 200.171 810.555C200.272 810.187 200.444 809.842 200.677 809.541C200.911 809.239 201.202 808.987 201.533 808.797C201.865 808.608 202.23 808.486 202.609 808.438C202.987 808.39 203.372 808.417 203.74 808.518C204.108 808.618 204.453 808.79 204.754 809.024L235.003 832.934C235.301 833.165 235.549 833.453 235.734 833.78C235.92 834.108 236.038 834.469 236.083 834.843C236.128 835.217 236.098 835.596 235.996 835.958C235.893 836.32 235.72 836.659 235.486 836.953C235.22 837.32 234.871 837.619 234.468 837.827C234.065 838.034 233.619 838.144 233.166 838.148Z" fill="#313131"/>
<path d="M328.163 772.641C327.56 772.638 326.974 772.445 326.486 772.09L272.235 733.48C271.749 732.998 271.452 732.357 271.396 731.675C271.341 730.992 271.531 730.312 271.933 729.757C272.335 729.203 272.923 728.81 273.589 728.65C274.255 728.491 274.956 728.575 275.566 728.887L329.817 767.335C330.127 767.551 330.39 767.826 330.593 768.144C330.796 768.462 330.933 768.818 330.997 769.19C331.061 769.561 331.051 769.942 330.967 770.31C330.882 770.678 330.726 771.025 330.506 771.332C330.249 771.722 329.902 772.044 329.494 772.272C329.086 772.5 328.63 772.626 328.163 772.641Z" fill="#313131"/>
<path d="M310.638 748.503C310.066 748.504 309.507 748.336 309.03 748.021L253.562 710.077C253.228 709.875 252.94 709.606 252.713 709.289C252.487 708.971 252.328 708.61 252.246 708.229C252.164 707.847 252.16 707.453 252.235 707.071C252.311 706.688 252.463 706.324 252.683 706.002C252.904 705.68 253.187 705.407 253.517 705.198C253.847 704.989 254.215 704.85 254.601 704.789C254.986 704.727 255.38 704.745 255.758 704.841C256.136 704.937 256.491 705.109 256.8 705.346L312.268 743.267C312.774 743.614 313.154 744.114 313.355 744.693C313.555 745.272 313.565 745.901 313.383 746.486C313.201 747.071 312.836 747.583 312.342 747.946C311.848 748.309 311.251 748.504 310.638 748.503Z" fill="#313131"/>
<path d="M344.723 709.409C344.148 709.411 343.586 709.235 343.115 708.904L288.106 671.305C287.548 670.845 287.182 670.192 287.081 669.476C286.98 668.76 287.151 668.031 287.56 667.435C287.97 666.838 288.587 666.416 289.292 666.253C289.997 666.089 290.737 666.195 291.368 666.551L346.354 704.173C346.859 704.52 347.239 705.02 347.44 705.599C347.641 706.178 347.65 706.807 347.468 707.392C347.286 707.977 346.921 708.489 346.427 708.852C345.933 709.215 345.336 709.41 344.723 709.409Z" fill="#313131"/>
<path d="M869.571 593.581C829.17 590.986 758.083 588.988 687.479 638.714C622.548 684.352 589.198 715.221 604.058 730.725C604.058 730.725 582.17 748.548 589.198 759.665C594.756 768.461 605.092 762.26 605.092 762.26C605.092 762.26 590.185 776.96 599.488 785.94C608.79 794.921 626.108 778.085 626.108 778.085C626.108 778.085 622.249 787.135 630.701 790.166C646.779 795.84 698.94 742.094 720.117 728.152C741.294 714.21 754.248 699.74 758.887 705.942C763.527 712.143 716.786 752.452 745.106 767.956C757.279 774.617 803.377 698.707 830.25 698.707C857.122 698.707 897.455 705.942 897.455 705.942L902.622 633.064L869.571 593.581Z" fill="white"/>
<path d="M633.482 793.451C630.919 793.576 628.4 792.756 626.402 791.148C624.404 789.539 623.065 787.253 622.641 784.723C616.026 789.477 604.955 795.311 597.376 788.007C596.116 786.834 595.116 785.411 594.44 783.829C593.763 782.247 593.426 780.54 593.448 778.82C593.667 774.648 595.034 770.618 597.399 767.175C595.23 767.209 593.091 766.665 591.202 765.6C589.313 764.534 587.742 762.985 586.649 761.111C579.759 750.132 594.068 735.548 599.994 730.265C598.099 727.35 597.287 723.864 597.697 720.412C599.328 703.668 625.673 678.494 685.757 636.279C760.68 583.636 837.049 588.528 869.687 590.618C870.071 590.641 870.447 590.743 870.791 590.917C871.134 591.091 871.439 591.333 871.685 591.629L904.92 631.088C905.162 631.372 905.346 631.7 905.46 632.055C905.574 632.41 905.617 632.784 905.586 633.155L900.419 706.033C900.393 706.433 900.281 706.823 900.091 707.176C899.901 707.529 899.637 707.837 899.316 708.078C898.996 708.331 898.626 708.513 898.23 708.612C897.834 708.711 897.421 708.725 897.019 708.652C896.606 708.652 856.641 701.463 830.411 701.463C816.952 701.463 796.304 724.431 779.721 742.92C761.093 763.592 751.033 774.272 743.89 770.367C741.407 769.165 739.216 767.436 737.467 765.303C735.718 763.169 734.453 760.681 733.761 758.011C730.844 745.608 741.547 730.196 749.379 718.965C752.228 714.853 756.086 709.318 756.523 707.297H756.339C753.789 706.952 746.761 712.304 739.962 717.472C734.726 721.445 728.823 725.97 721.909 730.518C712.495 737.356 703.441 744.677 694.784 752.452C666.992 776.224 645.862 793.451 633.482 793.451ZM626.109 775.214C626.69 775.223 627.256 775.398 627.74 775.719C628.282 776.098 628.677 776.651 628.861 777.286C629.045 777.921 629.006 778.6 628.75 779.21C628.006 781.008 627.932 783.013 628.544 784.86C628.859 785.492 629.305 786.05 629.851 786.497C630.397 786.944 631.032 787.271 631.713 787.456C641.084 790.786 671.058 765.085 690.902 748.111C699.736 740.173 708.982 732.705 718.602 725.74C725.332 721.307 731.166 716.851 736.311 712.924C745.773 705.712 752.021 700.934 756.982 701.624C757.831 701.743 758.646 702.032 759.381 702.474C760.115 702.916 760.752 703.502 761.254 704.196C764.01 707.848 760.22 713.383 753.95 722.318C746.738 732.677 736.885 746.871 739.205 756.77C739.722 758.654 740.646 760.402 741.912 761.89C743.178 763.378 744.755 764.57 746.531 765.383C750.023 767.313 765.228 750.362 775.311 739.154C793.547 718.827 814.242 695.79 830.274 695.79C853.058 695.79 884.754 700.82 894.837 702.519L899.753 634.12L868.056 596.475C835.396 594.408 761.369 590.342 689.042 641.194C650.134 668.526 605.231 702.336 603.393 721.192C603.223 722.586 603.375 724 603.837 725.326C604.299 726.652 605.059 727.854 606.058 728.841C606.328 729.133 606.536 729.477 606.67 729.852C606.804 730.227 606.862 730.625 606.839 731.023C606.812 731.418 606.704 731.803 606.522 732.154C606.34 732.506 606.089 732.817 605.782 733.067C600.614 737.27 586.902 750.959 591.542 758.332C595.446 764.511 602.727 760.468 603.531 759.986C604.134 759.626 604.848 759.5 605.538 759.631C606.228 759.762 606.846 760.142 607.275 760.698C607.706 761.25 607.919 761.942 607.873 762.641C607.826 763.34 607.523 763.998 607.022 764.488C604.84 766.67 599.167 773.514 599.213 779.095C599.201 780.031 599.387 780.959 599.759 781.818C600.132 782.677 600.681 783.448 601.372 784.08C608.469 790.97 624.065 776.385 624.203 776.224C624.685 775.656 625.368 775.295 626.109 775.214Z" fill="#313131"/>
<path d="M603.964 733.595C603.276 733.6 602.612 733.346 602.103 732.883C601.816 732.639 601.581 732.34 601.41 732.003C601.239 731.667 601.137 731.3 601.109 730.924C601.082 730.548 601.129 730.17 601.248 729.813C601.367 729.455 601.557 729.125 601.805 728.841C608.695 720.986 666.874 673.166 669.331 671.145C669.623 670.905 669.958 670.725 670.319 670.614C670.679 670.504 671.058 670.466 671.433 670.503C671.809 670.539 672.173 670.649 672.506 670.826C672.839 671.003 673.134 671.244 673.374 671.535C673.614 671.826 673.794 672.162 673.904 672.522C674.014 672.883 674.052 673.262 674.016 673.637C673.98 674.012 673.87 674.377 673.693 674.71C673.515 675.043 673.274 675.338 672.983 675.577C652.128 692.689 611.337 726.613 606.146 732.608C605.872 732.916 605.536 733.164 605.16 733.334C604.784 733.504 604.376 733.593 603.964 733.595Z" fill="#313131"/>
<path d="M605.002 765.039C604.253 765.037 603.535 764.74 603.004 764.212C602.47 763.671 602.17 762.94 602.17 762.18C602.17 761.419 602.47 760.688 603.004 760.147C611.387 751.557 659.23 704.426 677.49 691.058C677.787 690.79 678.137 690.586 678.518 690.461C678.899 690.336 679.301 690.292 679.7 690.332C680.099 690.371 680.485 690.494 680.833 690.692C681.181 690.89 681.485 691.159 681.723 691.481C681.961 691.803 682.129 692.171 682.217 692.562C682.304 692.953 682.309 693.358 682.23 693.751C682.152 694.144 681.992 694.516 681.761 694.843C681.53 695.171 681.233 695.446 680.889 695.652C662.882 708.813 615.43 755.576 607.115 764.12C606.844 764.409 606.517 764.639 606.153 764.797C605.79 764.955 605.398 765.037 605.002 765.039Z" fill="#313131"/>
<path d="M626.107 780.957C625.878 780.979 625.647 780.979 625.418 780.957C625.051 780.866 624.706 780.703 624.402 780.478C624.098 780.253 623.842 779.97 623.648 779.645C623.454 779.321 623.326 778.961 623.271 778.587C623.216 778.213 623.235 777.832 623.328 777.466C626.705 763.868 683.551 713.155 689.936 707.504C690.218 707.254 690.547 707.062 690.903 706.938C691.259 706.815 691.637 706.763 692.013 706.785C692.389 706.808 692.758 706.904 693.097 707.069C693.436 707.234 693.74 707.463 693.99 707.745C694.24 708.028 694.433 708.356 694.556 708.712C694.679 709.069 694.731 709.446 694.709 709.822C694.687 710.199 694.59 710.567 694.426 710.906C694.261 711.246 694.031 711.549 693.749 711.799C669.816 732.976 631.045 769.909 628.818 778.844C628.654 779.441 628.302 779.97 627.814 780.351C627.325 780.731 626.727 780.944 626.107 780.957Z" fill="#313131"/>
<path d="M1038.98 1147.87C1010.41 1127.48 872.028 1054 860.911 1062.22C834.452 1081.82 907.261 1118.89 894.537 1126.79C886.337 1131.89 802.044 1126.42 754.201 1132.23C714.603 1137.12 680.817 1148.61 695.012 1164.18C695.012 1164.18 671.102 1163.01 671.102 1176.93C671.102 1188.41 686.467 1190.89 686.467 1190.89C686.467 1190.89 677.142 1191.21 678.658 1199.58C681.231 1212.92 707.345 1210.62 707.345 1210.62C707.345 1210.62 701.58 1215.22 707.345 1222.24C715.775 1232.47 811.851 1221.81 843.731 1221.56C908.846 1221.07 968.127 1264.37 968.127 1264.37L1036.07 1243.56L1038.98 1147.87Z" fill="white"/>
<path d="M968.13 1267.13C967.527 1267.13 966.938 1266.94 966.454 1266.58C965.857 1266.16 907.793 1224.31 844.722 1224.31H843.666C834.478 1224.31 820.031 1225.32 803.356 1226.4C748.233 1229.99 711.483 1231.76 705.052 1223.95C703.942 1222.75 703.089 1221.33 702.544 1219.79C701.999 1218.25 701.774 1216.62 701.883 1214.99C701.927 1214.51 702.012 1214.03 702.135 1213.56C693.637 1213.56 677.95 1211.75 675.837 1200.08C675.504 1198.7 675.486 1197.26 675.784 1195.87C676.082 1194.48 676.689 1193.17 677.559 1192.04C677.812 1191.74 678.065 1191.47 678.34 1191.19C673.517 1188.9 668.211 1184.56 668.211 1176.93C668.179 1175.18 668.516 1173.44 669.2 1171.82C669.885 1170.21 670.902 1168.75 672.185 1167.56C676.778 1163.17 684.542 1161.82 689.755 1161.43C689.178 1160.17 688.854 1158.81 688.803 1157.43C688.751 1156.04 688.974 1154.66 689.457 1153.36C695.13 1138.07 736.335 1131.5 753.768 1129.39C778.642 1126.38 813.738 1126.38 841.897 1126.38C864.291 1126.38 889.648 1126.38 892.932 1124.36C893.012 1124.32 893.082 1124.26 893.139 1124.2C893.346 1121.9 884.434 1113.77 878.531 1108.39C865.876 1096.91 851.521 1083.82 852.141 1071.64C852.311 1069.28 853.02 1066.99 854.215 1064.94C855.409 1062.89 857.057 1061.15 859.031 1059.84C861.489 1058.02 868.012 1053.18 944.542 1091.65C983.588 1111.31 1025.78 1134.94 1040.48 1145.44C1040.86 1145.71 1041.18 1146.08 1041.39 1146.5C1041.6 1146.92 1041.71 1147.38 1041.7 1147.85L1038.76 1243.45C1038.74 1244.04 1038.54 1244.62 1038.18 1245.1C1037.81 1245.57 1037.31 1245.92 1036.74 1246.09L968.82 1266.92C968.598 1267.01 968.367 1267.08 968.13 1267.13ZM844.814 1218.57C904.531 1218.57 959.908 1255.07 968.636 1261.11L1033.25 1241.29L1036.07 1149.41C1020.8 1138.85 980.809 1116.48 943.509 1097.67C886.088 1068.7 865.6 1063.21 862.522 1064.68C861.24 1065.49 860.16 1066.58 859.364 1067.87C858.568 1069.16 858.077 1070.62 857.929 1072.13C857.469 1081.5 871.319 1094.11 882.459 1104.28C893.254 1114.11 899.341 1119.9 898.858 1124.95C898.78 1125.86 898.482 1126.73 897.99 1127.5C897.498 1128.26 896.826 1128.89 896.033 1129.34C891.577 1132.12 874.328 1132.21 841.966 1132.23C813.945 1132.23 779.056 1132.23 754.526 1135.2C721.383 1139.22 697.978 1147.16 694.808 1155.48C694.533 1156.24 693.66 1158.6 697.105 1162.37C697.495 1162.79 697.749 1163.31 697.835 1163.88C697.921 1164.44 697.835 1165.02 697.588 1165.54C697.328 1165.99 696.952 1166.36 696.5 1166.61C696.047 1166.87 695.534 1167 695.015 1166.98C691.34 1166.8 680.844 1167.31 676.296 1171.58C675.584 1172.24 675.022 1173.05 674.646 1173.95C674.27 1174.85 674.088 1175.82 674.114 1176.79C674.114 1185.59 686.953 1187.89 687.091 1187.91C687.774 1188.05 688.383 1188.44 688.804 1188.99C689.226 1189.55 689.431 1190.24 689.384 1190.94C689.336 1191.64 689.039 1192.29 688.545 1192.79C688.052 1193.28 687.397 1193.58 686.701 1193.63C684.989 1193.66 683.351 1194.33 682.107 1195.51C681.76 1196 681.529 1196.56 681.434 1197.15C681.338 1197.74 681.38 1198.34 681.556 1198.91C683.462 1209.38 706.821 1207.55 707.096 1207.52C707.71 1207.47 708.324 1207.62 708.848 1207.94C709.372 1208.26 709.779 1208.74 710.008 1209.32C710.237 1209.89 710.276 1210.52 710.12 1211.11C709.964 1211.71 709.62 1212.24 709.141 1212.62C708.36 1213.29 706.017 1215.84 709.577 1220.16C714.607 1226.27 769.983 1222.68 803.081 1220.52C819.847 1219.44 834.34 1218.5 843.711 1218.43L844.814 1218.57Z" fill="#313131"/>
<path d="M737.068 1172.1C716.213 1172.1 697.057 1170.75 692.923 1166.06C692.507 1165.47 692.328 1164.75 692.42 1164.04C692.513 1163.32 692.871 1162.67 693.424 1162.21C693.976 1161.74 694.683 1161.5 695.403 1161.54C696.123 1161.57 696.804 1161.88 697.31 1162.39C701.904 1167.65 750.527 1167.4 794.833 1164.11C795.571 1164.09 796.289 1164.35 796.837 1164.85C797.386 1165.34 797.723 1166.03 797.78 1166.76C797.836 1167.5 797.606 1168.23 797.139 1168.8C796.672 1169.37 796.002 1169.74 795.27 1169.83C786.886 1170.34 760.886 1172.1 737.068 1172.1Z" fill="#313131"/>
<path d="M720.759 1195.07C704.061 1195.07 690.028 1194.73 685.848 1193.67C685.481 1193.58 685.136 1193.42 684.832 1193.2C684.528 1192.97 684.271 1192.69 684.076 1192.37C683.881 1192.05 683.751 1191.69 683.695 1191.31C683.638 1190.94 683.655 1190.56 683.746 1190.19C683.836 1189.83 683.998 1189.48 684.222 1189.18C684.446 1188.87 684.727 1188.62 685.05 1188.42C685.374 1188.23 685.732 1188.1 686.105 1188.04C686.478 1187.98 686.859 1188 687.226 1188.09C696.643 1190.39 768.717 1188.83 795.682 1188.09C796.059 1188.08 796.434 1188.14 796.787 1188.28C797.14 1188.41 797.464 1188.61 797.739 1188.87C798.014 1189.13 798.235 1189.44 798.391 1189.78C798.546 1190.12 798.632 1190.49 798.645 1190.87C798.657 1191.25 798.594 1191.62 798.461 1191.98C798.328 1192.33 798.127 1192.65 797.869 1192.93C797.611 1193.2 797.301 1193.42 796.957 1193.58C796.613 1193.74 796.242 1193.82 795.865 1193.83C793.247 1193.83 752.249 1195.07 720.759 1195.07Z" fill="#313131"/>
<path d="M709.966 1213.4H707.302C706.925 1213.4 706.553 1213.32 706.207 1213.17C705.861 1213.02 705.548 1212.8 705.285 1212.53C705.023 1212.26 704.817 1211.94 704.678 1211.59C704.539 1211.24 704.471 1210.86 704.477 1210.48C704.517 1209.73 704.84 1209.02 705.381 1208.5C705.922 1207.98 706.641 1207.68 707.394 1207.66C722.346 1207.91 800.14 1205.36 800.921 1205.36C801.298 1205.35 801.673 1205.41 802.026 1205.55C802.379 1205.68 802.702 1205.88 802.978 1206.14C803.253 1206.4 803.474 1206.71 803.63 1207.05C803.785 1207.39 803.871 1207.76 803.883 1208.14C803.896 1208.52 803.833 1208.89 803.7 1209.25C803.567 1209.6 803.366 1209.92 803.108 1210.2C802.849 1210.47 802.54 1210.7 802.196 1210.85C801.852 1211.01 801.481 1211.09 801.104 1211.1C798.073 1211.24 729.719 1213.4 709.966 1213.4Z" fill="#313131"/>
<path d="M1697.21 893.661C1697.21 893.661 1877.67 973.131 1883.87 1043.14C1892.79 1143.65 1789.43 1242.3 1789.43 1242.3L1706.51 1519.16H1416.22C1401.75 1527.44 1385.68 1532.56 1369.09 1534.2C1352.49 1535.83 1335.74 1533.93 1319.93 1528.62C1266.28 1510.4 938.662 1275.39 938.662 1275.39C938.662 1275.39 975.411 1268.11 1010 1214.78C1041.26 1166.68 1029.71 1125.55 1029.71 1125.55L1300.25 1292.62L1357.86 1068.79C1357.86 1068.79 1198.5 823.47 1158.97 800.203C1119.44 776.936 865.186 741.106 865.186 741.106C865.186 741.106 887.144 725.648 880.231 650.014C875.04 593.282 854.713 576.837 854.713 576.837C854.713 576.837 1215.77 605.386 1252.06 635.934C1288.35 666.482 1536.11 862.08 1536.11 862.08C1536.11 862.08 1505.06 934.384 1536.73 948.509C1568.41 962.635 1697.21 893.661 1697.21 893.661Z" fill="white"/>
<path d="M1357.51 1537.81C1344.41 1537.8 1331.4 1535.63 1319.01 1531.37C1265.57 1513.23 950.442 1287.38 937.052 1277.78C936.598 1277.46 936.25 1277.01 936.049 1276.48C935.848 1275.96 935.803 1275.4 935.92 1274.85C936.037 1274.3 936.311 1273.8 936.708 1273.41C937.104 1273.02 937.607 1272.75 938.154 1272.64C938.522 1272.64 974.192 1264.78 1007.68 1213.26C1037.88 1166.8 1027.13 1126.77 1027.02 1126.38C1026.87 1125.82 1026.89 1125.24 1027.07 1124.7C1027.26 1124.16 1027.6 1123.69 1028.05 1123.34C1028.51 1122.99 1029.07 1122.79 1029.65 1122.76C1030.23 1122.74 1030.8 1122.89 1031.29 1123.21L1298.43 1288.16L1354.75 1069.35C1343.27 1051.8 1194.71 824.619 1157.59 802.707C1119.1 779.946 867.412 744.368 864.978 743.932C864.425 743.838 863.912 743.583 863.503 743.199C863.095 742.815 862.809 742.319 862.681 741.773C862.545 741.213 862.58 740.625 862.781 740.085C862.981 739.545 863.338 739.077 863.806 738.741C863.99 738.626 884.248 722.663 877.587 650.267C872.603 595.786 853.31 579.226 853.126 579.065C852.656 578.677 852.322 578.15 852.172 577.559C852.022 576.968 852.064 576.345 852.292 575.78C852.519 575.215 852.921 574.736 853.439 574.415C853.956 574.093 854.562 573.944 855.17 573.99C869.939 575.161 1217.56 602.952 1254.13 633.707C1289.89 663.979 1535.42 857.877 1537.95 859.829C1538.44 860.221 1538.79 860.764 1538.94 861.374C1539.1 861.984 1539.04 862.627 1538.8 863.206C1538.5 863.895 1509.21 933.075 1537.95 945.891C1562.87 957.008 1660.41 910.176 1695.9 891.181C1696.29 890.989 1696.72 890.888 1697.15 890.888C1697.59 890.888 1698.01 890.989 1698.4 891.181C1705.85 894.442 1880.5 972.144 1886.74 1043.02C1895.31 1139.9 1800.18 1235.96 1791.95 1243.97L1709.27 1520.12C1709.16 1520.48 1708.98 1520.82 1708.74 1521.11C1708.5 1521.41 1708.21 1521.65 1707.88 1521.83C1707.54 1522.01 1707.18 1522.12 1706.8 1522.16C1706.43 1522.19 1706.05 1522.16 1705.68 1522.05C1705.32 1521.94 1704.99 1521.76 1704.69 1521.52C1704.4 1521.28 1704.16 1520.99 1703.98 1520.66C1703.8 1520.33 1703.69 1519.96 1703.65 1519.58C1703.61 1519.21 1703.65 1518.83 1703.75 1518.47L1786.67 1241.61C1786.81 1241.12 1787.08 1240.69 1787.45 1240.34C1788.46 1239.38 1889.71 1141.58 1881.02 1043.53C1875.3 979.034 1713.36 904.25 1697.28 896.992C1684.53 903.745 1589.51 953.287 1547.59 953.287C1543.5 953.374 1539.44 952.623 1535.65 951.082C1504.55 937.301 1527.73 875.287 1532.73 862.93C1510.71 845.543 1284.68 666.988 1250.38 638.094C1217.98 610.831 912.752 584.463 861.808 580.237C868.446 589.126 879.585 609.567 883.26 649.716C888.451 706.47 877.495 730.219 871.133 738.97C908.985 744.414 1123.78 775.995 1160.53 797.677C1200.11 821.013 1353.76 1057.22 1360.36 1067.19C1360.58 1067.52 1360.73 1067.9 1360.8 1068.29C1360.86 1068.69 1360.85 1069.09 1360.75 1069.48L1303.03 1293.31C1302.91 1293.75 1302.7 1294.15 1302.4 1294.49C1302.1 1294.83 1301.73 1295.09 1301.31 1295.26C1300.89 1295.43 1300.44 1295.49 1299.99 1295.45C1299.54 1295.41 1299.11 1295.27 1298.73 1295.03L1033.86 1131.47C1035.84 1145.26 1037.06 1178.58 1012.48 1216.46C985.354 1258.21 957.103 1272.25 945.137 1276.59C985.676 1305.48 1271.72 1509.21 1320.85 1525.95C1336.26 1531.06 1352.57 1532.88 1368.73 1531.3C1384.88 1529.72 1400.53 1524.77 1414.65 1516.77C1414.97 1516.56 1415.32 1516.42 1415.7 1516.35C1416.07 1516.28 1416.45 1516.29 1416.82 1516.37C1417.19 1516.45 1417.54 1516.6 1417.85 1516.81C1418.16 1517.03 1418.42 1517.3 1418.63 1517.62C1418.83 1517.93 1418.97 1518.29 1419.04 1518.66C1419.11 1519.03 1419.1 1519.41 1419.03 1519.78C1418.95 1520.15 1418.8 1520.5 1418.58 1520.81C1418.37 1521.12 1418.09 1521.39 1417.78 1521.59C1399.5 1532.29 1378.69 1537.89 1357.51 1537.81Z" fill="#313131"/>
<path d="M1357.85 1071.67C1357.59 1071.71 1357.33 1071.71 1357.07 1071.67C1356.71 1071.57 1356.37 1071.39 1356.07 1071.16C1355.77 1070.93 1355.53 1070.64 1355.34 1070.31C1355.15 1069.98 1355.04 1069.62 1354.99 1069.25C1354.94 1068.87 1354.97 1068.49 1355.07 1068.13L1372.92 1004.69C1373 1004.3 1373.15 1003.93 1373.38 1003.61C1373.6 1003.28 1373.89 1003 1374.23 1002.79C1374.57 1002.59 1374.94 1002.45 1375.34 1002.39C1375.73 1002.34 1376.13 1002.36 1376.51 1002.47C1376.89 1002.58 1377.25 1002.76 1377.56 1003.01C1377.86 1003.26 1378.11 1003.58 1378.3 1003.93C1378.48 1004.28 1378.58 1004.67 1378.61 1005.07C1378.63 1005.46 1378.57 1005.86 1378.43 1006.23L1360.61 1069.69C1360.42 1070.27 1360.05 1070.77 1359.55 1071.12C1359.06 1071.48 1358.46 1071.67 1357.85 1071.67Z" fill="#313131"/>
<path d="M1416.22 1522.07C1415.59 1522.07 1414.97 1521.86 1414.47 1521.48C1413.97 1521.1 1413.61 1520.56 1413.44 1519.95C1413.28 1519.34 1413.32 1518.69 1413.56 1518.11C1413.8 1517.53 1414.22 1517.04 1414.77 1516.72C1497.66 1468.17 1682.19 1347.88 1787.36 1240.32C1787.62 1240.05 1787.94 1239.83 1788.29 1239.69C1788.63 1239.54 1789.01 1239.46 1789.38 1239.46C1789.76 1239.45 1790.14 1239.52 1790.49 1239.66C1790.84 1239.8 1791.16 1240.01 1791.43 1240.27C1791.7 1240.54 1791.91 1240.85 1792.06 1241.2C1792.21 1241.55 1792.29 1241.92 1792.29 1242.3C1792.29 1242.67 1792.22 1243.05 1792.08 1243.4C1791.94 1243.75 1791.74 1244.07 1791.47 1244.34C1685.82 1352.29 1500.79 1472.97 1417.66 1521.68C1417.23 1521.94 1416.73 1522.08 1416.22 1522.07Z" fill="#313131"/>
<path d="M1323.1 1308.19C1322.61 1308.2 1322.13 1308.07 1321.7 1307.83L1298.73 1295.12C1298.37 1294.96 1298.05 1294.72 1297.79 1294.43C1297.53 1294.13 1297.33 1293.78 1297.21 1293.41C1297.09 1293.03 1297.04 1292.64 1297.08 1292.24C1297.12 1291.85 1297.24 1291.47 1297.43 1291.13C1297.62 1290.78 1297.88 1290.48 1298.19 1290.24C1298.51 1290 1298.87 1289.83 1299.25 1289.73C1299.63 1289.64 1300.03 1289.62 1300.42 1289.69C1300.81 1289.76 1301.18 1289.9 1301.51 1290.12L1322.57 1301.81C1335.43 1290.12 1427.22 1207.13 1523.77 1129.55C1584.71 1080.67 1635.58 1043.48 1675.02 1019.05C1726.03 987.442 1757.57 977.267 1771.49 987.878C1772.1 988.341 1772.5 989.027 1772.6 989.785C1772.7 990.543 1772.5 991.312 1772.04 991.921C1771.58 992.53 1770.89 992.93 1770.13 993.034C1769.37 993.137 1768.6 992.935 1768 992.472C1724.15 958.846 1433.33 1208.37 1324.96 1307.39C1324.46 1307.88 1323.8 1308.17 1323.1 1308.19Z" fill="#313131"/>
<path d="M1351.15 1324.16C1350.66 1324.16 1350.17 1324.03 1349.75 1323.79L1321.68 1307.83C1321.02 1307.45 1320.53 1306.82 1320.33 1306.08C1320.13 1305.35 1320.22 1304.56 1320.6 1303.9C1320.98 1303.23 1321.6 1302.75 1322.34 1302.54C1323.08 1302.34 1323.86 1302.44 1324.53 1302.82L1352.57 1318.9C1353.12 1319.21 1353.54 1319.7 1353.78 1320.28C1354.02 1320.86 1354.06 1321.51 1353.9 1322.11C1353.74 1322.72 1353.38 1323.26 1352.89 1323.65C1352.39 1324.03 1351.78 1324.24 1351.15 1324.25V1324.16Z" fill="#313131"/>
<path d="M1542.84 976.967C1530.64 976.967 1520.17 974.51 1512.43 968.676C1467.8 935.004 1519.69 854.615 1521.87 851.193C1522.06 850.848 1522.32 850.546 1522.63 850.305C1522.95 850.065 1523.3 849.892 1523.69 849.796C1524.07 849.701 1524.47 849.685 1524.86 849.75C1525.25 849.816 1525.62 849.96 1525.95 850.176C1526.28 850.391 1526.56 850.672 1526.78 851.001C1527 851.33 1527.14 851.701 1527.21 852.089C1527.28 852.478 1527.26 852.876 1527.17 853.259C1527.08 853.643 1526.91 854.003 1526.67 854.317C1526.16 855.121 1475.5 933.672 1515.85 964.105C1560.78 997.96 1716.82 902.964 1718.39 902.091C1719.04 901.692 1719.82 901.568 1720.56 901.747C1721.31 901.926 1721.95 902.392 1722.35 903.044C1722.75 903.696 1722.87 904.479 1722.69 905.222C1722.51 905.965 1722.05 906.607 1721.39 907.006C1715.95 910.267 1606.35 976.967 1542.84 976.967Z" fill="#313131"/>
<path d="M967.186 1298.61C966.504 1298.62 965.841 1298.39 965.315 1297.96C964.79 1297.52 964.436 1296.92 964.317 1296.24C964.199 1295.57 964.323 1294.88 964.667 1294.29C965.012 1293.7 965.554 1293.26 966.198 1293.03C966.589 1292.9 1004.53 1278.68 1032.81 1232.44C1064.96 1179.96 1056.35 1144.77 1056.26 1144.43C1056.13 1144.06 1056.08 1143.66 1056.11 1143.27C1056.14 1142.87 1056.25 1142.49 1056.44 1142.14C1056.62 1141.8 1056.88 1141.49 1057.19 1141.24C1057.5 1141 1057.85 1140.82 1058.23 1140.72C1058.62 1140.62 1059.01 1140.6 1059.4 1140.66C1059.79 1140.72 1060.17 1140.85 1060.5 1141.06C1060.83 1141.27 1061.12 1141.55 1061.34 1141.88C1061.57 1142.2 1061.72 1142.57 1061.79 1142.96C1062.21 1144.47 1071.25 1180.67 1037.7 1235.43C1008.25 1283.48 969.712 1297.86 968.081 1298.43C967.795 1298.54 967.492 1298.6 967.186 1298.61Z" fill="#313131"/>
<path d="M902.716 749.491C902.208 749.487 901.71 749.352 901.269 749.1C900.943 748.91 900.658 748.658 900.43 748.358C900.202 748.057 900.035 747.715 899.939 747.35C899.843 746.986 899.82 746.606 899.871 746.232C899.921 745.858 900.046 745.498 900.236 745.172C900.396 744.874 917.347 714.602 912.684 652.22C909.469 608.994 889.418 581.96 889.211 581.685C888.754 581.075 888.558 580.31 888.666 579.556C888.773 578.802 889.176 578.122 889.785 577.665C890.394 577.208 891.16 577.012 891.914 577.12C892.668 577.227 893.348 577.63 893.805 578.239C894.677 579.388 915.05 606.904 918.427 651.738C923.227 716.049 905.932 746.734 905.197 748.021C904.948 748.461 904.588 748.828 904.153 749.086C903.717 749.344 903.222 749.484 902.716 749.491Z" fill="#313131"/>
<path d="M1269.17 937.395L1365.04 1043.19L1357.85 1068.8L1269.17 937.395Z" fill="#313131"/>
<path d="M1789.43 1242.34C1789.43 1242.34 1728.19 1301.42 1706.33 1319.47C1669.58 1349.83 1552.3 1432.2 1552.3 1432.2C1552.3 1432.2 1671.74 1360.1 1709.86 1334.01C1741.72 1312.21 1777.62 1282.1 1777.62 1282.1L1789.43 1242.34Z" fill="#313131"/>
<path d="M372.101 1401.26C387.209 1401.26 399.456 1389.01 399.456 1373.9C399.456 1358.8 387.209 1346.55 372.101 1346.55C356.993 1346.55 344.746 1358.8 344.746 1373.9C344.746 1389.01 356.993 1401.26 372.101 1401.26Z" fill="#21A2FF"/>
<path d="M664.306 551.434C676.585 551.434 686.539 541.48 686.539 529.201C686.539 516.922 676.585 506.968 664.306 506.968C652.026 506.968 642.072 516.922 642.072 529.201C642.072 541.48 652.026 551.434 664.306 551.434Z" fill="#FFA620"/>
<path d="M1150.2 1061.08C1160.5 1061.08 1168.85 1052.73 1168.85 1042.43C1168.85 1032.13 1160.5 1023.78 1150.2 1023.78C1139.9 1023.78 1131.55 1032.13 1131.55 1042.43C1131.55 1052.73 1139.9 1061.08 1150.2 1061.08Z" fill="white"/>
<path d="M200.988 1051.06C218.747 1051.06 233.143 1036.66 233.143 1018.91C233.143 1001.15 218.747 986.75 200.988 986.75C183.229 986.75 168.832 1001.15 168.832 1018.91C168.832 1036.66 183.229 1051.06 200.988 1051.06Z" fill="white"/>
<path d="M1047.6 1572.24C1057.91 1572.24 1066.27 1563.87 1066.27 1553.56C1066.27 1543.25 1057.91 1534.89 1047.6 1534.89C1037.29 1534.89 1028.93 1543.25 1028.93 1553.56C1028.93 1563.87 1037.29 1572.24 1047.6 1572.24Z" fill="white"/>
<path d="M1413.76 567.537C1424.34 567.537 1432.91 558.96 1432.91 548.381C1432.91 537.802 1424.34 529.226 1413.76 529.226C1403.18 529.226 1394.6 537.802 1394.6 548.381C1394.6 558.96 1403.18 567.537 1413.76 567.537Z" fill="#21A2FF"/>
<path d="M372.101 1404.13C366.123 1404.13 360.279 1402.36 355.308 1399.04C350.338 1395.71 346.464 1390.99 344.176 1385.47C341.888 1379.95 341.29 1373.87 342.456 1368.01C343.622 1362.14 346.501 1356.76 350.728 1352.53C354.955 1348.3 360.341 1345.42 366.204 1344.26C372.068 1343.09 378.145 1343.69 383.668 1345.98C389.191 1348.27 393.912 1352.14 397.233 1357.11C400.555 1362.08 402.327 1367.93 402.327 1373.9C402.315 1381.92 399.127 1389.6 393.461 1395.26C387.795 1400.93 380.114 1404.12 372.101 1404.13ZM372.101 1349.42C367.259 1349.42 362.525 1350.86 358.499 1353.55C354.472 1356.24 351.334 1360.06 349.481 1364.53C347.628 1369.01 347.143 1373.93 348.088 1378.68C349.032 1383.43 351.364 1387.79 354.788 1391.22C358.212 1394.64 362.575 1396.97 367.325 1397.92C372.074 1398.86 376.997 1398.38 381.471 1396.52C385.945 1394.67 389.769 1391.53 392.459 1387.51C395.149 1383.48 396.585 1378.75 396.585 1373.9C396.573 1367.41 393.99 1361.19 389.401 1356.6C384.812 1352.02 378.591 1349.43 372.101 1349.42Z" fill="#313131"/>
<path d="M664.306 554.305C659.34 554.305 654.487 552.833 650.358 550.074C646.23 547.316 643.012 543.395 641.112 538.808C639.212 534.221 638.715 529.173 639.684 524.303C640.652 519.434 643.043 514.96 646.554 511.45C650.065 507.939 654.538 505.548 659.408 504.579C664.278 503.61 669.325 504.108 673.913 506.008C678.5 507.908 682.42 511.125 685.179 515.254C687.937 519.382 689.41 524.236 689.41 529.201C689.404 535.857 686.757 542.239 682.05 546.946C677.344 551.652 670.962 554.299 664.306 554.305ZM664.306 509.862C660.475 509.862 656.731 510.998 653.546 513.126C650.361 515.255 647.88 518.28 646.415 521.82C644.95 525.359 644.568 529.253 645.317 533.01C646.066 536.766 647.912 540.216 650.622 542.923C653.333 545.63 656.785 547.472 660.542 548.217C664.3 548.961 668.193 548.575 671.731 547.106C675.269 545.637 678.291 543.151 680.416 539.964C682.541 536.777 683.672 533.031 683.668 529.201C683.656 524.072 681.611 519.156 677.982 515.531C674.353 511.907 669.435 509.868 664.306 509.862Z" fill="#313131"/>
<path d="M1150.2 1063.97C1145.94 1063.98 1141.77 1062.72 1138.22 1060.35C1134.68 1057.99 1131.91 1054.62 1130.28 1050.69C1128.65 1046.75 1128.22 1042.42 1129.04 1038.24C1129.87 1034.06 1131.92 1030.22 1134.93 1027.2C1137.95 1024.19 1141.79 1022.13 1145.97 1021.3C1150.15 1020.47 1154.48 1020.89 1158.42 1022.52C1162.35 1024.15 1165.72 1026.91 1168.09 1030.46C1170.46 1034 1171.72 1038.17 1171.72 1042.43C1171.72 1048.14 1169.45 1053.61 1165.41 1057.65C1161.38 1061.68 1155.91 1063.96 1150.2 1063.97ZM1150.2 1026.65C1147.07 1026.64 1144.01 1027.57 1141.41 1029.3C1138.81 1031.04 1136.78 1033.5 1135.58 1036.39C1134.38 1039.28 1134.07 1042.46 1134.68 1045.53C1135.29 1048.59 1136.79 1051.41 1139 1053.62C1141.21 1055.84 1144.03 1057.34 1147.1 1057.95C1150.17 1058.56 1153.35 1058.24 1156.23 1057.04C1159.12 1055.85 1161.59 1053.82 1163.33 1051.21C1165.06 1048.61 1165.98 1045.55 1165.98 1042.43C1165.97 1038.24 1164.31 1034.23 1161.35 1031.28C1158.39 1028.32 1154.38 1026.65 1150.2 1026.65Z" fill="#313131"/>
<path d="M200.989 1053.94C194.056 1053.94 187.278 1051.88 181.514 1048.03C175.75 1044.17 171.257 1038.7 168.605 1032.29C165.953 1025.89 165.26 1018.84 166.615 1012.04C167.969 1005.24 171.309 998.994 176.213 994.094C181.117 989.193 187.365 985.856 194.165 984.507C200.966 983.157 208.014 983.854 214.418 986.511C220.822 989.167 226.294 993.663 230.143 999.43C233.991 1005.2 236.043 1011.98 236.039 1018.91C236.026 1028.2 232.329 1037.1 225.758 1043.67C219.187 1050.24 210.279 1053.93 200.989 1053.94ZM200.989 989.624C195.193 989.624 189.526 991.343 184.707 994.563C179.887 997.783 176.131 1002.36 173.912 1007.72C171.694 1013.07 171.114 1018.96 172.245 1024.65C173.375 1030.33 176.167 1035.56 180.265 1039.65C184.364 1043.75 189.586 1046.54 195.271 1047.68C200.957 1048.81 206.849 1048.23 212.204 1046.01C217.56 1043.79 222.137 1040.03 225.357 1035.21C228.578 1030.39 230.296 1024.73 230.296 1018.93C230.296 1011.16 227.209 1003.7 221.714 998.2C216.218 992.7 208.764 989.607 200.989 989.601V989.624Z" fill="#313131"/>
<path d="M1047.6 1575.11C1043.33 1575.11 1039.16 1573.85 1035.61 1571.48C1032.06 1569.11 1029.29 1565.75 1027.66 1561.8C1026.02 1557.86 1025.59 1553.52 1026.42 1549.34C1027.25 1545.15 1029.31 1541.31 1032.33 1538.29C1035.34 1535.27 1039.19 1533.22 1043.38 1532.39C1047.56 1531.55 1051.9 1531.98 1055.84 1533.62C1059.78 1535.25 1063.15 1538.02 1065.52 1541.57C1067.89 1545.12 1069.15 1549.3 1069.14 1553.56C1069.14 1559.27 1066.87 1564.75 1062.83 1568.79C1058.79 1572.83 1053.31 1575.1 1047.6 1575.11ZM1047.6 1537.74C1044.47 1537.73 1041.41 1538.66 1038.8 1540.39C1036.2 1542.13 1034.16 1544.6 1032.96 1547.49C1031.76 1550.38 1031.45 1553.56 1032.05 1556.64C1032.66 1559.71 1034.17 1562.53 1036.38 1564.74C1038.59 1566.96 1041.41 1568.47 1044.48 1569.08C1047.55 1569.69 1050.73 1569.38 1053.63 1568.19C1056.52 1566.99 1058.99 1564.96 1060.73 1562.36C1062.47 1559.75 1063.4 1556.69 1063.4 1553.56C1063.4 1549.37 1061.74 1545.35 1058.78 1542.38C1055.81 1539.41 1051.79 1537.74 1047.6 1537.74Z" fill="#313131"/>
<path d="M1413.76 570.406C1409.4 570.41 1405.13 569.12 1401.5 566.699C1397.87 564.278 1395.04 560.835 1393.37 556.805C1391.7 552.775 1391.26 548.339 1392.11 544.06C1392.96 539.781 1395.06 535.85 1398.14 532.765C1401.23 529.68 1405.16 527.579 1409.44 526.729C1413.72 525.879 1418.15 526.318 1422.18 527.989C1426.21 529.661 1429.66 532.491 1432.08 536.12C1434.5 539.75 1435.79 544.016 1435.78 548.379C1435.78 554.219 1433.46 559.818 1429.33 563.948C1425.2 568.077 1419.6 570.4 1413.76 570.406ZM1413.76 532.072C1410.53 532.067 1407.38 533.02 1404.69 534.809C1402.01 536.598 1399.91 539.143 1398.68 542.123C1397.44 545.102 1397.11 548.382 1397.74 551.546C1398.36 554.711 1399.92 557.619 1402.2 559.902C1404.48 562.185 1407.38 563.74 1410.55 564.372C1413.71 565.003 1416.99 564.681 1419.97 563.447C1422.95 562.214 1425.5 560.124 1427.29 557.441C1429.09 554.759 1430.04 551.605 1430.04 548.379C1430.04 544.06 1428.32 539.919 1425.27 536.863C1422.22 533.807 1418.08 532.084 1413.76 532.072Z" fill="#313131"/>
</svg>
