<svg width="2000" height="2000" viewBox="0 0 2000 2000" fill="none" xmlns="http://www.w3.org/2000/svg">
<path d="M385.17 1063.54C432.495 1051.02 468.454 1031.77 465.486 1020.56C462.518 1009.34 421.747 1010.4 374.422 1022.92C327.097 1035.44 291.138 1054.68 294.106 1065.9C297.074 1077.12 337.845 1076.06 385.17 1063.54Z" fill="#313131"/>
<path d="M1733.78 1014.31C1739.58 1004.21 1709.76 976.187 1667.17 951.71C1624.58 927.233 1585.35 915.574 1579.55 925.669C1573.75 935.764 1603.57 963.79 1646.16 988.266C1688.75 1012.74 1727.98 1024.4 1733.78 1014.31Z" fill="#313131"/>
<path d="M319.614 1076.5C304.133 1076.5 293.23 1073.58 291.395 1066.62C287.392 1051.53 329.765 1031.87 373.686 1020.17C396.774 1014.05 419.067 1010.44 436.471 1010C455.623 1009.51 466.261 1012.79 468.119 1019.78C469.976 1026.76 462.346 1034.9 445.45 1043.93C430.102 1052.15 408.938 1060.05 385.849 1066.04C362.164 1072.5 337.726 1076.5 319.614 1076.5ZM440.032 1015.57C438.948 1015.57 437.82 1015.57 436.626 1015.57C419.62 1016.02 397.77 1019.55 375.079 1025.55C323.661 1039.17 294.8 1057.79 296.747 1065.16C298.693 1072.52 332.994 1074.47 384.434 1060.73C407.102 1054.74 427.869 1047.02 442.841 1038.99C458.786 1030.46 463.541 1024.04 462.745 1021.12C462.059 1018.56 455.623 1015.57 440.032 1015.57Z" fill="#313131"/>
<path d="M1719.14 1027.54C1701.6 1027.54 1669.73 1014.38 1640.41 997.459C1619.73 985.517 1601.35 972.358 1588.7 960.394C1574.77 947.257 1569.53 937.416 1573.22 931.157C1576.91 924.899 1587.95 924.523 1606.39 930.007C1623.09 935.006 1643.66 944.316 1664.34 956.258C1703.68 978.971 1739.53 1009.05 1731.61 1022.6C1729.47 1026.01 1725.24 1027.54 1719.14 1027.54ZM1585.23 931.688C1580.98 931.688 1578.6 932.639 1577.93 933.9C1576.43 936.509 1579.35 943.94 1592.48 956.369C1604.85 968.024 1622.85 980.917 1643.17 992.638C1689.24 1019.18 1722.79 1026.36 1726.68 1019.77C1730.57 1013.18 1707.55 987.596 1661.42 961.057C1641.12 949.314 1620.95 940.181 1604.67 935.293C1598.39 933.204 1591.84 931.991 1585.23 931.688Z" fill="#313131"/>
<path d="M959.914 655.517C970.488 652.996 975.939 637.863 972.089 621.717C968.24 605.571 956.547 594.526 945.973 597.047C935.399 599.568 929.948 614.7 933.797 630.847C937.647 646.993 949.34 658.038 959.914 655.517Z" fill="white"/>
<path d="M956.779 658.609C945.721 658.609 934.951 647.551 931.103 631.451C926.835 613.56 933.093 597.239 945.345 594.32C951.405 592.882 957.841 595.028 963.458 600.335C969.015 606.088 972.927 613.227 974.786 621.006C976.645 628.786 976.384 636.922 974.029 644.566C971.397 651.842 966.62 656.663 960.561 658.101C959.325 658.423 958.056 658.593 956.779 658.609ZM936.477 630.169C939.927 644.566 950.366 654.916 959.278 652.793C963.458 651.798 966.842 648.237 968.832 642.752C970.818 636.113 971.017 629.068 969.41 622.327C967.802 615.586 964.445 609.388 959.676 604.36C955.43 600.357 950.83 598.721 946.628 599.716C937.782 601.927 933.049 615.794 936.477 630.169Z" fill="#313131"/>
<path d="M1121.21 630.795C1125.06 614.648 1119.61 599.516 1109.04 596.994C1098.46 594.473 1086.77 605.519 1082.92 621.665C1079.07 637.811 1084.52 652.944 1095.1 655.465C1105.67 657.986 1117.36 646.941 1121.21 630.795Z" fill="white"/>
<path d="M1098.25 658.61C1096.98 658.616 1095.71 658.468 1094.47 658.168C1088.41 656.73 1083.63 651.909 1081 644.633C1078.65 636.989 1078.39 628.853 1080.24 621.074C1082.1 613.294 1086.02 606.156 1091.57 600.403C1097.19 595.095 1103.63 592.95 1109.68 594.387C1121.94 597.306 1128.2 613.628 1123.93 631.519C1120.08 647.508 1109.26 658.61 1098.25 658.61ZM1106.01 599.43C1101.98 599.664 1098.18 601.427 1095.4 604.361C1090.61 609.376 1087.22 615.567 1085.59 622.309C1083.96 629.05 1084.14 636.103 1086.11 642.753C1088.1 648.238 1091.48 651.799 1095.66 652.794C1104.51 655.005 1115.01 644.567 1118.44 630.17C1121.89 615.795 1117.25 601.84 1108.31 599.717C1107.56 599.531 1106.79 599.435 1106.01 599.43Z" fill="#313131"/>
<path d="M1096.73 846.08L1027.55 916.871L952.666 844.244L955.298 637.134L1099.36 638.969L1096.73 846.08Z" fill="white"/>
<path d="M1027.55 919.636C1027.19 919.64 1026.84 919.574 1026.51 919.441C1026.18 919.309 1025.88 919.112 1025.62 918.862L950.742 846.213C950.47 845.955 950.254 845.642 950.11 845.296C949.965 844.949 949.894 844.576 949.902 844.201L952.534 637.112C952.545 636.377 952.847 635.677 953.373 635.163C953.899 634.649 954.607 634.364 955.342 634.37L1099.4 636.206C1100.14 636.221 1100.83 636.523 1101.35 637.046C1101.6 637.307 1101.8 637.615 1101.93 637.953C1102.07 638.291 1102.13 638.651 1102.12 639.014L1099.49 846.058C1099.49 846.768 1099.21 847.449 1098.72 847.96L1029.54 918.729C1029.29 919.007 1028.98 919.23 1028.64 919.386C1028.29 919.542 1027.92 919.627 1027.55 919.636ZM955.453 843.073L1027.5 912.98L1093.98 844.931L1096.57 641.713L958.04 639.943L955.453 843.073Z" fill="#313131"/>
<path d="M1098.21 730.773C1098.21 730.773 1068.9 712.218 1021.93 714.474C974.957 716.729 1041.3 668.031 1041.3 668.031L1098.98 668.761L1098.21 730.773Z" fill="#313131"/>
<path d="M1098.21 733.535C1097.68 733.535 1097.17 733.381 1096.72 733.093C1096.44 732.916 1067.49 715.024 1022.06 717.236C1011.01 717.767 1004.64 715.555 1002.82 710.469C998.113 697.199 1032.68 670.97 1039.67 665.862C1040.15 665.519 1040.73 665.334 1041.33 665.331L1099.03 666.061C1099.39 666.064 1099.74 666.138 1100.08 666.28C1100.41 666.422 1100.71 666.628 1100.97 666.887C1101.22 667.147 1101.42 667.453 1101.55 667.789C1101.69 668.126 1101.75 668.485 1101.75 668.847L1100.97 730.77C1100.96 731.262 1100.82 731.743 1100.57 732.163C1100.31 732.583 1099.95 732.927 1099.51 733.159C1099.12 733.401 1098.67 733.531 1098.21 733.535ZM1029.98 711.419C1063.15 711.419 1086.44 721.349 1095.49 725.993L1096.19 671.457L1042.19 670.771C1026.71 682.249 1005.63 701.733 1008.04 708.522C1008.44 709.628 1010.54 712.171 1021.8 711.618C1024.58 711.574 1027.3 711.508 1029.98 711.508V711.419Z" fill="#313131"/>
<path d="M1107.3 601.95L1106.79 642.731C1106.67 652.294 1104.66 661.741 1100.89 670.53C1097.12 679.319 1091.65 687.28 1084.8 693.956C1077.95 700.632 1069.86 705.894 1060.97 709.441C1052.09 712.988 1042.6 714.75 1033.03 714.628L1019.65 714.451C1000.34 714.206 981.918 706.3 968.435 692.473C954.952 678.646 947.514 660.029 947.756 640.718L948.065 617.276L948.286 599.937C948.413 589.837 950.529 579.861 954.513 570.579C958.496 561.297 964.269 552.89 971.503 545.84C978.736 538.789 987.287 533.233 996.669 529.488C1006.05 525.743 1016.08 523.884 1026.18 524.015H1031.33C1051.41 524.274 1070.59 532.374 1084.78 546.585C1098.96 560.796 1107.03 579.991 1107.25 600.07C1107.32 600.711 1107.3 601.331 1107.3 601.95Z" fill="white"/>
<path d="M1033.03 717.369H1032.04L1020.82 717.237C1006.62 717.048 992.753 712.93 980.751 705.339C980.147 704.939 979.724 704.318 979.574 703.61C979.423 702.902 979.556 702.163 979.944 701.552C980.332 700.941 980.944 700.506 981.649 700.342C982.354 700.177 983.096 700.296 983.714 700.672C994.853 707.725 1007.73 711.553 1020.91 711.73L1032.1 711.863H1033.03C1051.74 711.858 1069.69 704.484 1083 691.337C1096.31 678.19 1103.9 660.33 1104.13 641.624L1104.64 601.927C1104.78 592.182 1102.99 582.505 1099.39 573.45C1095.78 564.395 1090.43 556.139 1083.63 549.156C1076.83 542.172 1068.72 536.597 1059.77 532.75C1050.81 528.903 1041.18 526.859 1031.44 526.735H1026.29H1025.31C1005.82 526.762 987.115 534.457 973.244 548.158C959.374 561.858 951.45 580.465 951.182 599.959L950.674 639.656C950.455 656.735 956.39 673.322 967.393 686.386C967.831 686.95 968.034 687.661 967.96 688.372C967.885 689.082 967.538 689.736 966.992 690.196C966.446 690.656 965.743 690.887 965.03 690.841C964.318 690.794 963.651 690.474 963.169 689.946C951.306 675.871 944.908 657.995 945.145 639.59L945.654 599.893C945.944 578.953 954.454 558.967 969.349 544.246C984.243 529.526 1004.33 521.25 1025.27 521.206H1026.31H1031.46C1041.93 521.33 1052.27 523.517 1061.89 527.641C1071.51 531.766 1080.22 537.747 1087.53 545.243C1094.83 552.738 1100.59 561.601 1104.47 571.324C1108.35 581.046 1110.27 591.439 1110.13 601.905L1109.62 641.602C1109.39 661.768 1101.22 681.032 1086.89 695.215C1072.55 709.399 1053.2 717.359 1033.03 717.369Z" fill="#313131"/>
<path d="M1036.08 645.12H1014.52C1013.79 645.12 1013.09 644.829 1012.57 644.31C1012.05 643.792 1011.76 643.089 1011.76 642.355C1011.76 641.622 1012.05 640.919 1012.57 640.401C1013.09 639.882 1013.79 639.591 1014.52 639.591H1033.67C1033.11 630.146 1032.07 620.735 1030.56 611.394C1030.48 611.028 1030.49 610.65 1030.57 610.285C1030.64 609.92 1030.8 609.575 1031.01 609.27C1031.23 608.965 1031.5 608.707 1031.82 608.511C1032.14 608.315 1032.49 608.185 1032.86 608.13C1033.23 608.075 1033.61 608.095 1033.97 608.189C1034.33 608.283 1034.67 608.45 1034.96 608.678C1035.26 608.907 1035.5 609.193 1035.68 609.519C1035.87 609.845 1035.98 610.204 1036.02 610.576C1040.44 640.387 1038.96 642.93 1038.45 643.749C1038.21 644.166 1037.87 644.512 1037.45 644.753C1037.04 644.994 1036.57 645.121 1036.08 645.12Z" fill="#313131"/>
<path d="M1026.99 670.043C1025.76 670.05 1024.53 669.991 1023.3 669.866C1022.6 669.749 1021.97 669.367 1021.55 668.8C1021.12 668.233 1020.93 667.524 1021.01 666.819C1021.1 666.115 1021.45 665.469 1021.99 665.015C1022.54 664.561 1023.23 664.335 1023.94 664.382C1024.81 664.382 1044.95 666.593 1052.69 650.781C1053.01 650.121 1053.58 649.615 1054.27 649.375C1054.97 649.134 1055.73 649.179 1056.39 649.498C1057.05 649.818 1057.55 650.387 1057.79 651.079C1058.03 651.772 1057.99 652.532 1057.67 653.192C1050.3 668.23 1034.29 670.043 1026.99 670.043Z" fill="#313131"/>
<path d="M1059.79 655.446H1059.57C1057.36 655.505 1055.21 654.734 1053.54 653.285C1051.87 651.835 1050.8 649.814 1050.55 647.617C1050.53 646.921 1050.78 646.244 1051.24 645.722C1051.7 645.201 1052.34 644.872 1053.03 644.802C1053.73 644.732 1054.42 644.926 1054.98 645.346C1055.53 645.765 1055.91 646.379 1056.03 647.064C1056.03 647.705 1056.65 649.784 1059.81 649.917C1060.55 649.917 1061.25 650.208 1061.77 650.727C1062.29 651.245 1062.58 651.948 1062.58 652.681C1062.58 653.415 1062.29 654.118 1061.77 654.636C1061.25 655.155 1060.55 655.446 1059.81 655.446H1059.79Z" fill="#313131"/>
<path d="M1071.18 535.758C1073.41 537.16 1075.56 538.673 1077.64 540.291C1075.35 538.985 1073.19 537.467 1071.18 535.758Z" fill="#313131"/>
<path d="M1104.02 578.685C1102.17 579.65 1100.26 580.513 1098.32 581.273C1070.67 591.822 1047.01 587.509 1027.68 584.325C998.354 579.459 997.116 572.913 976.084 579.371C956.18 585.497 948.33 616.392 948.108 617.254L948.33 599.916C948.457 589.816 950.572 579.84 954.556 570.557C958.539 561.275 964.312 552.869 971.546 545.818C978.779 538.768 987.33 533.211 996.712 529.467C1006.09 525.722 1016.12 523.862 1026.22 523.994H1031.37C1043.03 524.149 1051.5 523.795 1079.58 534.786C1106.12 545.18 1105.28 531.646 1105.28 531.646C1122.16 540.293 1119.39 570.525 1104.02 578.685Z" fill="#313131"/>
<path d="M948.087 620.019H947.733C947.063 619.942 946.445 619.619 945.999 619.112C945.554 618.606 945.313 617.951 945.323 617.277L945.544 599.938C945.668 589.472 947.855 579.132 951.979 569.511C956.103 559.891 962.085 551.178 969.58 543.871C977.076 536.565 985.938 530.808 995.661 526.93C1005.38 523.053 1015.78 521.131 1026.24 521.274H1031.4C1044.53 521.451 1060.15 524.923 1080.49 532.221C1094.87 537.374 1099.75 535.472 1101.19 534.433C1101.6 534.152 1101.93 533.776 1102.16 533.336C1102.39 532.896 1102.5 532.407 1102.5 531.912C1102.48 531.425 1102.58 530.942 1102.8 530.508C1103.02 530.074 1103.35 529.704 1103.76 529.435C1104.16 529.169 1104.63 529.013 1105.12 528.982C1105.6 528.951 1106.08 529.046 1106.52 529.258C1114.59 533.349 1119.46 542.35 1119.55 553.275C1119.55 565.372 1113.95 576.585 1105.33 581.162H1105.11C1103.21 582.141 1101.27 583.019 1099.29 583.794C1071.62 594.343 1047.81 590.429 1028.65 587.222L1027.22 586.979C1019.72 585.745 1012.3 584.076 1004.99 581.981C994.728 579.172 990.04 577.911 976.881 581.981C958.791 587.554 951.095 616.658 950.763 617.896C950.616 618.497 950.273 619.031 949.788 619.416C949.304 619.8 948.705 620.012 948.087 620.019ZM1025.2 526.736C1005.7 526.747 986.989 534.436 973.116 548.14C959.242 561.844 951.323 580.461 951.073 599.96V601.376C955.739 591.667 963.501 580.344 975.289 576.717C989.974 572.294 995.834 573.82 1006.47 576.717C1013.6 578.76 1020.83 580.392 1028.14 581.605L1029.58 581.826C1048.07 584.9 1071.05 588.726 1097.32 578.686C1099.13 577.995 1100.89 577.205 1102.61 576.319L1102.94 576.142C1109.57 572.427 1114 563.293 1114 553.297C1114.13 550.084 1113.56 546.88 1112.34 543.908C1111.11 540.937 1109.24 538.269 1106.88 536.091C1106.32 537.109 1105.57 538.005 1104.66 538.723C1099.95 542.372 1091.2 541.93 1078.63 537.418C1058.86 530.341 1043.82 526.958 1031.33 526.803H1026.18L1025.2 526.736Z" fill="#313131"/>
<path d="M1071.14 535.713C1068.78 534.242 1066.34 532.898 1063.84 531.688C1066.54 532.471 1069.03 533.846 1071.14 535.713Z" fill="#313131"/>
<path d="M1114.86 597.504C1114.77 609.044 1110.15 620.086 1101.99 628.246C1093.83 636.406 1082.79 641.029 1071.25 641.115C1042.1 641.757 1040.42 615.528 1027.64 615.683C1016.01 615.815 1013.33 641.115 984.004 641.115C978.276 641.118 972.604 639.992 967.311 637.802C962.019 635.611 957.21 632.399 953.16 628.348C949.109 624.298 945.897 619.489 943.706 614.197C941.516 608.904 940.39 603.232 940.393 597.504H1114.86Z" fill="#FFA620"/>
<path d="M1070.08 643.881C1051.94 643.881 1043.78 633.797 1037.77 626.41C1033.67 621.324 1031.13 618.449 1027.64 618.449C1024.59 618.449 1022.09 621.324 1018.24 625.924C1011.94 633.509 1003.31 643.881 983.981 643.881C971.664 643.881 959.851 638.988 951.142 630.279C942.432 621.569 937.539 609.756 937.539 597.439C937.539 596.706 937.83 596.003 938.349 595.484C938.867 594.966 939.57 594.675 940.303 594.675H1114.86C1115.59 594.675 1116.3 594.966 1116.81 595.484C1117.33 596.003 1117.62 596.706 1117.62 597.439C1117.59 609.746 1112.69 621.538 1103.98 630.24C1095.28 638.942 1083.49 643.846 1071.18 643.881H1070.08ZM1027.64 612.92C1033.96 612.92 1037.9 617.785 1042.08 622.916C1048.07 630.325 1054.84 638.729 1071.07 638.397C1081.42 638.342 1091.36 634.393 1098.93 627.336C1106.49 620.279 1111.12 610.631 1111.9 600.314H943.134C943.856 610.639 948.461 620.307 956.023 627.372C963.585 634.438 973.543 638.377 983.893 638.397C1000.63 638.397 1008 629.551 1013.9 622.43C1017.93 617.608 1021.73 613.031 1027.48 612.964L1027.64 612.92Z" fill="#313131"/>
<path d="M1899.36 422.728H1433.03V794.398H1899.36V422.728Z" fill="white"/>
<path d="M1899.36 797.162H1433.03C1432.3 797.162 1431.6 796.871 1431.08 796.353C1430.56 795.834 1430.27 795.131 1430.27 794.398V422.727C1430.27 421.994 1430.56 421.291 1431.08 420.773C1431.6 420.254 1432.3 419.963 1433.03 419.963H1899.36C1900.09 419.963 1900.79 420.254 1901.31 420.773C1901.83 421.291 1902.12 421.994 1902.12 422.727V794.398C1902.12 795.131 1901.83 795.834 1901.31 796.353C1900.79 796.871 1900.09 797.162 1899.36 797.162ZM1435.8 791.634H1896.59V425.492H1435.8V791.634Z" fill="#313131"/>
<path d="M1899.36 469.323H1555.75C1555.02 469.323 1554.32 469.032 1553.8 468.513C1553.28 467.995 1552.99 467.292 1552.99 466.558C1552.99 465.825 1553.28 465.122 1553.8 464.604C1554.32 464.085 1555.02 463.794 1555.75 463.794H1899.36C1900.09 463.794 1900.8 464.085 1901.31 464.604C1901.83 465.122 1902.12 465.825 1902.12 466.558C1902.12 467.292 1901.83 467.995 1901.31 468.513C1900.8 469.032 1900.09 469.323 1899.36 469.323Z" fill="#313131"/>
<path d="M1527.91 469.965C1529.73 469.965 1531.2 468.49 1531.2 466.67C1531.2 464.85 1529.73 463.375 1527.91 463.375C1526.09 463.375 1524.61 464.85 1524.61 466.67C1524.61 468.49 1526.09 469.965 1527.91 469.965Z" fill="#313131"/>
<path d="M1495.35 469.965C1497.17 469.965 1498.65 468.49 1498.65 466.67C1498.65 464.85 1497.17 463.375 1495.35 463.375C1493.53 463.375 1492.06 464.85 1492.06 466.67C1492.06 468.49 1493.53 469.965 1495.35 469.965Z" fill="#313131"/>
<path d="M1462.8 469.965C1464.62 469.965 1466.1 468.49 1466.1 466.67C1466.1 464.85 1464.62 463.375 1462.8 463.375C1460.98 463.375 1459.5 464.85 1459.5 466.67C1459.5 468.49 1460.98 469.965 1462.8 469.965Z" fill="#313131"/>
<path d="M1625.02 608.563H1497.28V534.985H1549.03L1567.96 517.823H1625.02V608.563Z" fill="#21A2FF"/>
<path d="M1831.06 608.563H1703.35V534.985H1755.08L1774.03 517.823H1831.06V608.563Z" fill="#21A2FF"/>
<path d="M1621.83 748.729H1494.12V675.151H1545.84L1564.8 658.012H1621.83V748.729Z" fill="#21A2FF"/>
<path d="M1625.02 611.328H1497.28C1496.54 611.328 1495.84 611.037 1495.32 610.518C1494.8 610 1494.51 609.296 1494.51 608.563V534.986C1494.51 534.252 1494.8 533.549 1495.32 533.031C1495.84 532.512 1496.54 532.221 1497.28 532.221H1547.97L1566.12 515.789C1566.62 515.325 1567.28 515.064 1567.96 515.06H1625.02C1625.75 515.06 1626.45 515.351 1626.97 515.869C1627.49 516.388 1627.78 517.091 1627.78 517.824V608.497C1627.79 608.866 1627.72 609.232 1627.59 609.575C1627.45 609.918 1627.25 610.231 1626.99 610.495C1626.74 610.759 1626.43 610.968 1626.09 611.111C1625.75 611.254 1625.39 611.328 1625.02 611.328ZM1500.04 605.799H1622.25V520.588H1569.04L1550.89 537.042C1550.38 537.502 1549.71 537.755 1549.03 537.75H1500.04V605.799Z" fill="#313131"/>
<path d="M1831.06 611.328H1703.35C1702.62 611.328 1701.91 611.037 1701.39 610.518C1700.88 610 1700.58 609.296 1700.58 608.563V534.986C1700.58 534.252 1700.88 533.549 1701.39 533.031C1701.91 532.512 1702.62 532.221 1703.35 532.221H1753.99L1772.15 515.789C1772.66 515.323 1773.32 515.063 1774.01 515.06H1831.04C1831.78 515.06 1832.48 515.351 1833 515.869C1833.52 516.388 1833.81 517.091 1833.81 517.824V608.497C1833.82 608.864 1833.75 609.229 1833.62 609.57C1833.48 609.912 1833.28 610.223 1833.03 610.487C1832.77 610.75 1832.47 610.96 1832.13 611.105C1831.79 611.249 1831.43 611.325 1831.06 611.328ZM1706.11 605.799H1828.3V520.588H1775.09L1756.93 537.042C1756.43 537.502 1755.76 537.755 1755.08 537.75H1706.11V605.799Z" fill="#313131"/>
<path d="M1621.83 751.494H1494.12C1493.38 751.494 1492.68 751.203 1492.16 750.684C1491.64 750.166 1491.35 749.463 1491.35 748.73V675.152C1491.35 674.419 1491.64 673.716 1492.16 673.197C1492.68 672.679 1493.38 672.388 1494.12 672.388H1544.78L1562.94 655.956C1563.45 655.496 1564.11 655.243 1564.8 655.248H1621.83C1622.57 655.248 1623.27 655.539 1623.79 656.058C1624.31 656.576 1624.6 657.279 1624.6 658.013V748.686C1624.6 749.052 1624.54 749.416 1624.4 749.757C1624.26 750.098 1624.06 750.408 1623.8 750.669C1623.55 750.93 1623.24 751.138 1622.9 751.28C1622.56 751.421 1622.2 751.494 1621.83 751.494ZM1496.88 745.965H1619.09V660.777H1565.86L1547.7 677.209C1547.19 677.669 1546.53 677.921 1545.84 677.916H1496.88V745.965Z" fill="#313131"/>
<path d="M1827.88 748.729H1700.16V675.151H1751.89L1770.84 658.012H1827.88V748.729Z" fill="#FFA620"/>
<path d="M1827.88 751.494H1700.16C1699.43 751.494 1698.73 751.203 1698.21 750.684C1697.69 750.166 1697.4 749.463 1697.4 748.73V675.152C1697.4 674.419 1697.69 673.716 1698.21 673.197C1698.73 672.679 1699.43 672.388 1700.16 672.388H1750.83L1768.99 655.956C1769.5 655.496 1770.16 655.243 1770.85 655.248H1827.88C1828.61 655.248 1829.32 655.539 1829.84 656.058C1830.35 656.576 1830.65 657.279 1830.65 658.013V748.686C1830.65 749.052 1830.58 749.416 1830.45 749.757C1830.31 750.098 1830.11 750.408 1829.85 750.669C1829.59 750.93 1829.29 751.138 1828.95 751.28C1828.61 751.421 1828.25 751.494 1827.88 751.494ZM1702.93 745.965H1825.12V660.777H1771.91L1753.75 677.209C1753.24 677.672 1752.58 677.925 1751.89 677.916H1702.93V745.965Z" fill="#313131"/>
<path d="M890.743 382.697H612.62V568.533H890.743V382.697Z" fill="white"/>
<path d="M890.744 571.298H612.621C611.888 571.298 611.185 571.007 610.666 570.488C610.148 569.97 609.856 569.267 609.856 568.533V382.764C609.856 382.031 610.148 381.328 610.666 380.81C611.185 380.291 611.888 380 612.621 380H890.744C891.477 380 892.18 380.291 892.698 380.81C893.217 381.328 893.508 382.031 893.508 382.764V568.533C893.508 569.267 893.217 569.97 892.698 570.488C892.18 571.007 891.477 571.298 890.744 571.298ZM615.385 565.769H887.979V385.462H615.385V565.769Z" fill="#313131"/>
<path d="M612.62 568.534L717.226 422.948L773.31 523.883L818.691 482.217L890.743 568.534H612.62Z" fill="#21A2FF"/>
<path d="M890.744 571.298H612.621C612.111 571.29 611.613 571.142 611.181 570.87C610.749 570.599 610.4 570.214 610.172 569.758C609.944 569.301 609.845 568.791 609.887 568.283C609.929 567.774 610.11 567.287 610.409 566.874L714.993 421.444C715.265 421.064 715.629 420.76 716.05 420.558C716.472 420.357 716.937 420.266 717.403 420.294C717.859 420.334 718.298 420.483 718.683 420.73C719.068 420.976 719.388 421.312 719.615 421.709L773.975 519.592L816.79 480.293C817.064 480.045 817.386 479.854 817.735 479.733C818.085 479.611 818.455 479.561 818.825 479.585C819.198 479.605 819.564 479.701 819.899 479.869C820.234 480.036 820.531 480.271 820.771 480.558L892.823 566.808C893.174 567.214 893.399 567.715 893.468 568.248C893.538 568.781 893.449 569.322 893.214 569.805C892.978 570.288 892.606 570.691 892.143 570.965C891.68 571.238 891.148 571.369 890.611 571.342L890.744 571.298ZM618.017 565.769H884.861L818.515 486.153L775.169 525.917C774.873 526.187 774.522 526.388 774.14 526.507C773.757 526.625 773.354 526.658 772.957 526.602C772.544 526.536 772.151 526.379 771.807 526.142C771.463 525.905 771.176 525.594 770.967 525.231L716.939 428.078L618.017 565.769Z" fill="#313131"/>
<path d="M798.122 457.692C810.348 457.692 820.259 447.781 820.259 435.554C820.259 423.328 810.348 413.417 798.122 413.417C785.896 413.417 775.984 423.328 775.984 435.554C775.984 447.781 785.896 457.692 798.122 457.692Z" fill="#FFA620"/>
<path d="M798.124 460.456C793.195 460.474 788.372 459.028 784.265 456.302C780.159 453.577 776.953 449.694 775.055 445.145C773.156 440.596 772.651 435.587 773.602 430.75C774.552 425.914 776.917 421.469 780.396 417.977C783.875 414.486 788.312 412.105 793.145 411.137C797.978 410.169 802.989 410.657 807.545 412.539C812.1 414.422 815.994 417.613 818.735 421.71C821.475 425.807 822.938 430.625 822.938 435.554C822.932 442.141 820.318 448.459 815.669 453.125C811.019 457.791 804.711 460.427 798.124 460.456ZM798.124 416.225C794.293 416.225 790.547 417.361 787.361 419.49C784.175 421.619 781.692 424.645 780.226 428.185C778.76 431.725 778.376 435.62 779.123 439.378C779.871 443.136 781.716 446.588 784.425 449.297C787.135 452.007 790.587 453.852 794.345 454.599C798.103 455.347 801.998 454.963 805.538 453.497C809.078 452.03 812.104 449.547 814.232 446.361C816.361 443.176 817.497 439.43 817.497 435.598C817.5 433.051 817.001 430.529 816.029 428.174C815.057 425.82 813.631 423.68 811.832 421.877C810.033 420.074 807.897 418.643 805.545 417.666C803.193 416.688 800.671 416.184 798.124 416.181V416.225Z" fill="#313131"/>
<path d="M565.426 617.896H99.8311V993.348H565.426V617.896Z" fill="white"/>
<path d="M565.425 996.112H99.7644C99.0313 996.112 98.3281 995.821 97.8097 995.303C97.2913 994.784 97 994.081 97 993.348V617.895C97 617.162 97.2913 616.459 97.8097 615.941C98.3281 615.422 99.0313 615.131 99.7644 615.131H565.425C566.159 615.131 566.862 615.422 567.38 615.941C567.899 616.459 568.19 617.162 568.19 617.895V993.348C568.19 994.081 567.899 994.784 567.38 995.303C566.862 995.821 566.159 996.112 565.425 996.112ZM102.595 990.583H562.595V620.66H102.595V990.583Z" fill="#313131"/>
<path d="M565.425 672.741H99.7644C99.0313 672.741 98.3281 672.45 97.8097 671.932C97.2913 671.413 97 670.71 97 669.977V617.895C97 617.162 97.2913 616.459 97.8097 615.941C98.3281 615.422 99.0313 615.131 99.7644 615.131H565.425C566.159 615.131 566.862 615.422 567.38 615.941C567.899 616.459 568.19 617.162 568.19 617.895V669.977C568.19 670.71 567.899 671.413 567.38 671.932C566.862 672.45 566.159 672.741 565.425 672.741ZM102.595 667.213H562.595V620.66H102.595V667.213Z" fill="#313131"/>
<path d="M522.876 657.923C522.493 657.919 522.115 657.837 521.765 657.681C521.414 657.525 521.1 657.299 520.842 657.016C520.351 656.475 520.095 655.762 520.128 655.033C520.161 654.304 520.481 653.618 521.019 653.124L545.346 630.898C545.61 630.636 545.924 630.431 546.269 630.294C546.615 630.157 546.984 630.091 547.355 630.1C547.727 630.109 548.093 630.193 548.431 630.347C548.769 630.5 549.073 630.72 549.324 630.994C549.576 631.268 549.769 631.589 549.894 631.939C550.018 632.289 550.07 632.661 550.048 633.032C550.025 633.403 549.928 633.765 549.762 634.097C549.597 634.43 549.366 634.726 549.083 634.967L524.756 657.193C524.244 657.664 523.572 657.925 522.876 657.923Z" fill="#313131"/>
<path d="M547.138 657.923C546.442 657.922 545.771 657.662 545.258 657.193L520.931 634.967C520.648 634.726 520.417 634.43 520.251 634.097C520.086 633.765 519.989 633.403 519.966 633.032C519.943 632.661 519.996 632.289 520.12 631.939C520.245 631.589 520.438 631.268 520.689 630.994C520.941 630.72 521.245 630.5 521.583 630.347C521.921 630.193 522.287 630.109 522.658 630.1C523.03 630.091 523.399 630.157 523.744 630.294C524.09 630.431 524.404 630.636 524.668 630.898L548.995 653.124C549.404 653.5 549.69 653.99 549.816 654.531C549.942 655.072 549.902 655.638 549.702 656.156C549.501 656.674 549.149 657.12 548.692 657.435C548.235 657.75 547.693 657.92 547.138 657.923Z" fill="#313131"/>
<path d="M408.981 709.098H256.252V773.431H408.981V709.098Z" fill="#21A2FF"/>
<path d="M408.98 776.195H256.252C255.519 776.195 254.815 775.904 254.297 775.386C253.779 774.867 253.487 774.164 253.487 773.431V709.097C253.487 708.364 253.779 707.661 254.297 707.143C254.815 706.624 255.519 706.333 256.252 706.333H408.98C409.714 706.333 410.417 706.624 410.935 707.143C411.454 707.661 411.745 708.364 411.745 709.097V773.431C411.745 774.164 411.454 774.867 410.935 775.386C410.417 775.904 409.714 776.195 408.98 776.195ZM258.994 770.667H406.194V711.862H258.994V770.667Z" fill="#313131"/>
<path d="M327.42 763.148C327.05 763.146 326.683 763.071 326.341 762.926C326 762.782 325.69 762.572 325.43 762.307L307.649 743.863C307.142 743.338 306.864 742.633 306.876 741.903C306.889 741.173 307.191 740.478 307.716 739.971C308.241 739.463 308.946 739.185 309.676 739.198C310.406 739.21 311.101 739.512 311.608 740.037L327.288 756.226L353.561 723.849C354.024 723.28 354.695 722.918 355.425 722.843C356.154 722.769 356.884 722.987 357.453 723.451C358.022 723.914 358.384 724.584 358.458 725.314C358.533 726.044 358.315 726.774 357.851 727.343L329.61 762.13C329.358 762.429 329.047 762.674 328.697 762.849C328.348 763.024 327.966 763.125 327.575 763.148H327.42Z" fill="#313131"/>
<path d="M217.132 766.444H135.57C134.837 766.444 134.134 766.153 133.615 765.634C133.097 765.116 132.806 764.413 132.806 763.679C132.806 762.946 133.097 762.243 133.615 761.725C134.134 761.206 134.837 760.915 135.57 760.915H217.132C217.865 760.915 218.568 761.206 219.086 761.725C219.605 762.243 219.896 762.946 219.896 763.679C219.896 764.413 219.605 765.116 219.086 765.634C218.568 766.153 217.865 766.444 217.132 766.444Z" fill="#313131"/>
<path d="M217.132 810.1H135.57C134.837 810.1 134.134 809.809 133.615 809.29C133.097 808.772 132.806 808.069 132.806 807.336C132.806 806.603 133.097 805.899 133.615 805.381C134.134 804.863 134.837 804.571 135.57 804.571H217.132C217.865 804.571 218.568 804.863 219.086 805.381C219.605 805.899 219.896 806.603 219.896 807.336C219.896 808.069 219.605 808.772 219.086 809.29C218.568 809.809 217.865 810.1 217.132 810.1Z" fill="#313131"/>
<path d="M217.132 853.843H135.57C134.837 853.843 134.134 853.552 133.615 853.034C133.097 852.515 132.806 851.812 132.806 851.079C132.806 850.346 133.097 849.643 133.615 849.124C134.134 848.606 134.837 848.314 135.57 848.314H217.132C217.865 848.314 218.568 848.606 219.086 849.124C219.605 849.643 219.896 850.346 219.896 851.079C219.896 851.812 219.605 852.515 219.086 853.034C218.568 853.552 217.865 853.843 217.132 853.843Z" fill="#313131"/>
<path d="M217.132 897.566H135.57C134.837 897.566 134.134 897.275 133.615 896.756C133.097 896.238 132.806 895.535 132.806 894.802C132.806 894.068 133.097 893.365 133.615 892.847C134.134 892.328 134.837 892.037 135.57 892.037H217.132C217.865 892.037 218.568 892.328 219.086 892.847C219.605 893.365 219.896 894.068 219.896 894.802C219.896 895.535 219.605 896.238 219.086 896.756C218.568 897.275 217.865 897.566 217.132 897.566Z" fill="#313131"/>
<path d="M217.132 941.308H135.57C134.837 941.308 134.134 941.017 133.615 940.498C133.097 939.98 132.806 939.277 132.806 938.544C132.806 937.811 133.097 937.107 133.615 936.589C134.134 936.071 134.837 935.779 135.57 935.779H217.132C217.865 935.779 218.568 936.071 219.086 936.589C219.605 937.107 219.896 937.811 219.896 938.544C219.896 939.277 219.605 939.98 219.086 940.498C218.568 941.017 217.865 941.308 217.132 941.308Z" fill="#313131"/>
<path d="M1710.14 994.806C1707.77 998.699 1685.02 1039.81 1680.39 1049.1L1617.7 1048.17L1573.02 989.012C1581.87 971.74 1606.86 924.037 1607.68 916.584C1612.1 876.268 1614.82 863.507 1627.76 828.609C1637.53 802.181 1628.33 778.142 1647.8 773.056C1669.78 767.328 1666.55 836.195 1666.55 836.195C1666.55 836.195 1734.11 698.859 1757.89 712.128C1776.09 722.279 1727.26 810.873 1719.03 829.339L1717.46 832.833L1736.26 858.686L1736.99 859.659L1755.92 885.667L1757.09 887.303L1772.08 907.915C1772.08 907.915 1765.16 917.115 1755.74 929.853C1740.72 950.2 1719.49 979.48 1710.14 994.806Z" fill="white"/>
<path d="M1680.39 1051.87L1617.7 1050.94C1617.27 1050.94 1616.84 1050.84 1616.46 1050.64C1616.08 1050.45 1615.74 1050.17 1615.48 1049.83L1570.79 990.672C1570.48 990.259 1570.29 989.765 1570.25 989.248C1570.2 988.731 1570.31 988.213 1570.55 987.753L1572.32 984.303C1581.03 967.473 1604.18 922.778 1604.89 916.298C1609.56 874.478 1612.39 862.049 1625.15 827.638C1628.13 818.747 1629.93 809.506 1630.52 800.148C1631.94 786.127 1633.16 774.03 1647.09 770.381C1648.86 769.883 1650.73 769.824 1652.53 770.209C1654.32 770.594 1656 771.413 1657.42 772.593C1667.52 780.798 1669.34 807.977 1669.49 824.232C1684.53 794.974 1726.75 716.508 1750.39 709.232C1751.82 708.709 1753.35 708.493 1754.88 708.6C1756.4 708.706 1757.89 709.133 1759.23 709.851C1775.29 718.698 1752.95 767.197 1728.67 816.005C1725.46 822.485 1722.92 827.572 1721.55 830.668L1720.64 832.68L1774.34 906.457C1774.69 906.935 1774.88 907.512 1774.88 908.105C1774.88 908.697 1774.69 909.274 1774.34 909.752C1774.34 909.752 1767.42 918.952 1758.02 931.691C1742.36 952.877 1721.77 981.295 1712.57 996.378C1710.12 1000.4 1687.45 1041.36 1682.94 1050.47C1682.68 1050.92 1682.31 1051.28 1681.86 1051.53C1681.41 1051.78 1680.9 1051.89 1680.39 1051.87ZM1619.09 1045.43L1678.8 1046.31C1684.73 1034.77 1705.52 997.241 1707.86 993.37C1717.17 978.133 1737.87 949.56 1753.57 928.263C1760.65 918.687 1766.33 911.123 1768.72 907.939L1715.29 834.516C1715.01 834.12 1714.83 833.656 1714.78 833.172C1714.73 832.687 1714.81 832.197 1715 831.751L1716.4 828.368L1716.53 828.058C1717.97 824.851 1720.49 819.765 1723.7 813.351C1731.44 797.76 1743.18 774.185 1750.96 753.64C1762.95 722.192 1758.81 715.778 1756.49 714.474C1755.81 714.144 1755.06 713.958 1754.3 713.927C1753.54 713.897 1752.78 714.023 1752.07 714.297C1730.26 721.108 1684.73 805.434 1669.03 837.347C1668.75 837.916 1668.28 838.372 1667.7 838.637C1667.12 838.902 1666.47 838.96 1665.86 838.802C1665.24 838.644 1664.7 838.279 1664.32 837.768C1663.95 837.257 1663.76 836.632 1663.78 835.998C1664.43 822.264 1663.92 784.845 1653.94 776.773C1653.21 776.14 1652.32 775.707 1651.37 775.513C1650.41 775.32 1649.43 775.373 1648.5 775.667C1638.75 778.21 1637.45 785.973 1636.05 800.635C1635.43 810.464 1633.51 820.168 1630.35 829.496C1617.81 863.376 1615 875.606 1610.44 916.829C1609.71 923.464 1594.08 954.425 1577.27 986.78L1576.3 988.682L1619.09 1045.43Z" fill="#313131"/>
<path d="M1746.32 818.437C1733.49 810.587 1715.36 830.756 1705.19 848.161C1698.35 859.793 1675.44 895.753 1686.19 903.272C1698.88 912.118 1727.26 872.797 1735.59 859.727C1743.93 846.657 1758.79 826.156 1746.32 818.437Z" fill="white"/>
<path d="M1690.65 907.561C1688.4 907.572 1686.22 906.789 1684.48 905.349C1672.1 895.53 1688.91 868.748 1699.06 852.737C1700.56 850.37 1701.84 848.314 1702.8 846.699C1710.8 833.076 1723.69 817.44 1735.97 814.411C1737.95 813.842 1740.03 813.692 1742.08 813.97C1744.12 814.248 1746.09 814.948 1747.84 816.025C1749.3 816.865 1750.57 817.999 1751.56 819.355C1752.55 820.71 1753.25 822.257 1753.62 823.898C1755.83 833.673 1747.12 847.097 1740.13 857.867L1737.92 861.14C1735.08 865.564 1709.83 904.442 1692.71 907.317C1692.03 907.451 1691.35 907.533 1690.65 907.561ZM1740.1 819.519C1739.13 819.53 1738.15 819.656 1737.21 819.895C1726.68 822.527 1714.67 837.588 1707.57 849.618C1706.6 851.277 1705.36 853.4 1703.75 855.811C1696.45 867.377 1679.42 894.424 1687.91 901.169C1688.47 901.582 1689.1 901.869 1689.78 902.01C1690.46 902.151 1691.15 902.144 1691.83 901.988C1702.88 900.13 1722.79 874.83 1733.27 858.288L1735.48 854.992C1741.59 845.615 1749.92 832.744 1748.22 825.247C1748.03 824.321 1747.64 823.447 1747.07 822.684C1746.51 821.921 1745.8 821.287 1744.97 820.824C1743.51 819.927 1741.82 819.474 1740.1 819.519Z" fill="#313131"/>
<path d="M1770.98 839.423C1758.73 831.904 1741.5 851.145 1731.75 867.775C1725.11 878.833 1703.79 912.603 1713.79 920.299C1725.77 929.521 1752.78 891.262 1760.76 878.789C1768.74 866.316 1782.88 846.766 1770.98 839.423Z" fill="white"/>
<path d="M1718.61 924.767C1716.26 924.808 1713.97 924.026 1712.13 922.555C1700.5 913.289 1716.69 887.171 1726.35 871.513C1727.57 869.567 1728.56 867.842 1729.42 866.471C1737.08 853.467 1749.33 838.517 1761.05 835.62C1762.96 835.074 1764.96 834.93 1766.93 835.196C1768.9 835.463 1770.79 836.134 1772.48 837.168C1773.88 837.98 1775.1 839.073 1776.05 840.379C1777.01 841.684 1777.68 843.174 1778.03 844.753C1780.24 854.13 1771.84 866.869 1765.16 877.263L1763.15 880.381C1753.22 895.862 1734.4 922.4 1720.69 924.612C1720 924.717 1719.31 924.768 1718.61 924.767ZM1765.05 840.552C1764.13 840.554 1763.22 840.672 1762.33 840.905C1752.31 843.404 1740.88 857.713 1734.11 869.213C1733.29 870.606 1732.21 872.353 1730.97 874.366C1724.03 885.601 1707.73 911.962 1715.49 918.176C1716.08 918.64 1716.76 918.966 1717.48 919.13C1718.21 919.295 1718.97 919.294 1719.69 919.127C1728.12 917.734 1742.58 902.121 1758.39 877.351L1760.43 874.189C1766.22 865.343 1774.16 853.025 1772.57 845.926C1772.38 845.06 1772.01 844.246 1771.48 843.536C1770.95 842.827 1770.27 842.239 1769.5 841.812C1768.16 840.984 1766.62 840.547 1765.05 840.552Z" fill="#313131"/>
<path d="M1792.14 864.083C1780.49 856.94 1764.08 875.252 1754.79 891.064C1748.57 901.635 1733.4 926.449 1742.4 933.083C1753.46 941.156 1774.83 913.533 1782.41 901.657C1790 889.782 1803.49 871.028 1792.14 864.083Z" fill="white"/>
<path d="M1747.36 937.904C1746.05 937.915 1744.76 937.653 1743.56 937.135C1742.36 936.617 1741.28 935.855 1740.39 934.897C1731.08 925.078 1742.74 905.704 1750.46 892.878L1752.38 889.649C1759.68 877.242 1771.44 862.978 1782.59 860.213C1784.44 859.676 1786.37 859.532 1788.28 859.791C1790.18 860.05 1792.01 860.706 1793.65 861.717C1795 862.487 1796.18 863.536 1797.1 864.793C1798.03 866.051 1798.67 867.49 1799 869.015C1801.03 877.994 1793.09 890.246 1786.73 899.977C1786.06 901.016 1785.42 902.011 1784.8 902.94C1783.94 904.311 1763.35 936.312 1748.49 937.75L1747.36 937.904ZM1786.48 865.255C1785.62 865.262 1784.76 865.374 1783.92 865.587C1774.43 867.953 1763.57 881.554 1757.16 892.479L1755.19 895.753C1749.17 905.727 1737.98 924.326 1744.4 931.137C1744.83 931.617 1745.38 931.983 1745.99 932.203C1746.6 932.422 1747.25 932.489 1747.89 932.398C1756.87 931.535 1772.39 912.14 1780.07 900.131L1781.99 897.124C1787.5 888.631 1795.04 877.021 1793.54 870.298C1793.36 869.497 1793.01 868.744 1792.52 868.088C1792.03 867.433 1791.4 866.889 1790.68 866.494C1789.44 865.695 1787.99 865.265 1786.5 865.255H1786.48Z" fill="#313131"/>
<path d="M1674.82 888.077H1674.69C1674.33 888.061 1673.97 887.972 1673.64 887.817C1673.32 887.662 1673.02 887.443 1672.78 887.174C1672.54 886.904 1672.35 886.589 1672.23 886.247C1672.11 885.905 1672.06 885.542 1672.08 885.18C1672.49 876.703 1670.98 868.242 1667.66 860.433C1665.11 853.489 1662.48 846.346 1663.85 835.775C1663.95 835.047 1664.33 834.388 1664.91 833.942C1665.5 833.497 1666.23 833.3 1666.96 833.397C1667.69 833.494 1668.35 833.876 1668.79 834.458C1669.24 835.041 1669.43 835.777 1669.34 836.504C1668.14 845.704 1670.31 851.653 1672.85 858.62C1676.46 867.124 1678.09 876.332 1677.63 885.556C1677.57 886.254 1677.24 886.903 1676.72 887.371C1676.2 887.839 1675.52 888.091 1674.82 888.077Z" fill="#313131"/>
<path d="M323.328 1041.63C324.456 1046.05 334.12 1092.03 335.801 1102.27L396.11 1119.8L456.219 1076.41C452.747 1057.28 442.95 1004.36 444.387 996.996C451.951 957.189 453.234 944.185 451.022 907.009C449.43 878.856 465.308 858.598 448.191 848.027C428.884 836.085 411.701 902.851 411.701 902.851C411.701 902.851 387.529 751.715 360.836 757.399C340.445 761.822 361.079 860.81 363.489 880.891C363.821 883.323 363.976 884.695 363.976 884.695L338.411 903.869L337.415 904.598L311.695 923.883L310.081 925.099L289.69 940.381C289.69 940.381 293.605 951.218 298.868 966.168C307.206 989.986 318.905 1024.22 323.328 1041.63Z" fill="white"/>
<path d="M396.11 1122.5C395.854 1122.55 395.592 1122.55 395.336 1122.5L335.138 1104.96C334.633 1104.82 334.179 1104.54 333.83 1104.15C333.481 1103.75 333.252 1103.27 333.17 1102.75C331.533 1092.67 321.913 1046.91 320.763 1042.36C316.34 1025.26 305.083 992.021 296.436 967.163C291.173 952.236 287.259 941.421 287.259 941.421C287.056 940.862 287.039 940.252 287.21 939.682C287.381 939.113 287.732 938.613 288.209 938.259L361.19 883.545L360.925 881.334C360.914 881.298 360.914 881.259 360.925 881.223C360.527 877.862 359.598 872.244 358.426 865.123C349.58 811.361 342.436 758.549 360.438 754.701C361.932 754.415 363.469 754.444 364.95 754.786C366.432 755.129 367.825 755.778 369.041 756.692C389.476 770.713 406.637 858.113 412.52 890.512C417.43 875.031 427.16 849.576 439.257 844.711C440.953 843.999 442.797 843.714 444.628 843.88C446.459 844.045 448.222 844.657 449.762 845.662C461.992 853.247 459.604 865.167 456.839 878.967C454.644 888.095 453.656 897.47 453.898 906.855C455.954 943.5 455.004 956.194 447.263 997.528C446.025 1003.94 455.026 1053.55 458.321 1072.21L459.006 1075.93C459.093 1076.44 459.035 1076.97 458.84 1077.45C458.645 1077.94 458.32 1078.36 457.901 1078.67L397.614 1122.06C397.164 1122.34 396.643 1122.5 396.11 1122.5ZM338.345 1100.03L395.58 1116.71L453.079 1075.13L452.703 1073.14C446.069 1037.14 440.319 1002.95 441.646 996.422C449.386 955.686 450.315 943.146 448.28 907.098C447.999 897.246 449.026 887.4 451.332 877.817C454.229 863.376 455.335 855.702 446.754 850.306C445.957 849.748 445.029 849.406 444.06 849.313C443.091 849.22 442.115 849.379 441.226 849.775C429.283 854.618 417.739 890.29 414.333 903.56C414.179 904.181 413.814 904.73 413.3 905.112C412.786 905.494 412.155 905.686 411.515 905.655C410.875 905.623 410.266 905.371 409.792 904.94C409.318 904.51 409.008 903.928 408.915 903.294C403.298 868.175 384.588 774.185 365.724 761.292C365.131 760.8 364.438 760.442 363.694 760.243C362.949 760.045 362.171 760.01 361.411 760.142C358.802 760.694 352.985 765.604 355.175 799.197C356.59 821.069 360.881 847.055 363.689 864.239C364.861 871.293 365.79 876.888 366.21 880.383C366.222 880.5 366.222 880.619 366.21 880.737C366.52 883.081 366.675 884.408 366.675 884.408C366.738 884.89 366.671 885.38 366.48 885.827C366.29 886.275 365.983 886.663 365.591 886.951L292.942 941.421C294.291 945.159 297.365 954.071 301.434 965.306C310.281 990.274 321.559 1023.69 325.96 1040.96C327.11 1045.3 335.934 1087.27 338.234 1100.1L338.345 1100.03Z" fill="#313131"/>
<path d="M340.622 862.423C355.196 858.685 366.541 883.278 371.186 902.916C374.304 916.031 385.627 957.143 373.132 961.168C358.403 965.901 342.856 919.989 338.72 905.017C334.585 890.045 326.446 866.072 340.622 862.423Z" fill="white"/>
<path d="M370.611 964.421C368.893 964.397 367.204 963.973 365.679 963.183C350.198 955.42 337.46 910.813 336.067 905.683C335.735 904.488 335.381 903.228 335.005 901.923C331.489 889.561 327.11 874.19 332.108 865.499C332.936 864.036 334.06 862.761 335.408 861.756C336.756 860.751 338.298 860.037 339.937 859.661C341.936 859.151 344.02 859.061 346.056 859.395C348.092 859.73 350.037 860.483 351.768 861.607C362.516 868.087 370.235 886.818 373.884 902.188C374.326 904.024 374.945 906.368 375.675 909.088C380.607 927.356 388.944 957.919 374.149 963.647C373.03 964.13 371.829 964.393 370.611 964.421ZM343.586 864.902C342.84 864.906 342.097 865.003 341.374 865.189C340.45 865.382 339.577 865.769 338.814 866.326C338.051 866.883 337.416 867.596 336.951 868.418C333.125 875.053 337.305 889.826 340.379 900.596C340.733 901.901 341.109 903.184 341.441 904.378C346.66 923.286 358.116 953.275 368.2 958.317C368.793 958.675 369.458 958.895 370.147 958.96C370.837 959.025 371.532 958.934 372.181 958.693C382.288 954.735 373.95 923.884 370.39 910.703C369.638 907.938 368.996 905.528 368.554 903.648C365.303 890.025 358.248 872.134 348.96 866.516C347.364 865.455 345.502 864.865 343.586 864.814V864.902Z" fill="#313131"/>
<path d="M310.878 875.25C324.788 871.69 335.603 895.154 340.048 913.886C343.011 926.403 353.582 964.95 341.751 969.373C327.575 974.681 313.001 930.163 309.064 915.898C305.128 901.634 297.343 878.744 310.878 875.25Z" fill="white"/>
<path d="M338.964 972.691C337.222 972.671 335.509 972.239 333.966 971.431C321.427 965.172 311.32 934.409 306.41 916.629C306.079 915.501 305.747 914.306 305.393 913.068C302.031 901.258 297.852 886.53 302.651 878.214C303.451 876.805 304.533 875.576 305.831 874.606C307.129 873.635 308.614 872.944 310.192 872.575C312.118 872.087 314.123 872.002 316.083 872.325C318.043 872.649 319.915 873.374 321.581 874.455C331.865 880.669 339.274 898.56 342.724 913.245C343.1 914.815 343.608 916.761 344.183 918.973C348.828 936.665 356.59 966.499 342.768 971.939C341.561 972.435 340.269 972.69 338.964 972.691ZM310.878 875.273L311.563 877.949C310.701 878.123 309.886 878.482 309.176 879.001C308.466 879.52 307.877 880.188 307.45 880.957C303.823 887.282 307.804 901.303 310.723 911.564C311.077 912.803 311.408 914.019 311.74 915.169C319.547 943.477 328.791 962.673 336.443 966.499C337.09 966.865 337.811 967.083 338.553 967.136C339.295 967.19 340.04 967.078 340.733 966.808C350.022 963.159 342.193 933.171 338.831 920.366C338.256 918.155 337.726 916.12 337.35 914.528C334.187 901.568 327.553 884.517 318.706 879.232C317.664 878.538 316.488 878.07 315.254 877.857C314.021 877.643 312.756 877.69 311.541 877.993L310.878 875.273Z" fill="#313131"/>
<path d="M283.321 892.502C296.591 889.096 306.874 911.432 311.098 929.279C313.929 941.2 321.139 969.397 310.59 972.979C297.586 977.402 285.356 944.782 281.619 931.203C277.881 917.625 270.517 895.885 283.321 892.502Z" fill="white"/>
<path d="M307.339 976.739C306.016 976.73 304.708 976.46 303.491 975.942C289.713 970.215 279.452 933.547 279.009 931.999C278.722 930.916 278.39 929.788 278.058 928.616C274.852 917.337 270.871 903.293 275.449 895.31C276.219 893.955 277.261 892.775 278.509 891.842C279.758 890.91 281.185 890.246 282.703 889.892C284.552 889.421 286.479 889.337 288.363 889.645C290.247 889.953 292.047 890.647 293.65 891.683C303.469 897.61 310.524 914.705 313.863 928.704C314.106 929.81 314.416 931.048 314.748 932.353C318.353 946.883 323.793 968.821 312.028 975.456C310.601 976.279 308.986 976.72 307.339 976.739ZM284.096 895.243C283.292 895.412 282.533 895.75 281.87 896.234C281.206 896.718 280.653 897.338 280.248 898.052C276.82 904.023 280.602 917.359 283.366 927.09C283.72 928.284 284.03 929.434 284.339 930.517C288.143 944.273 297.277 967.362 305.614 970.834C306.198 971.11 306.841 971.236 307.486 971.201C308.131 971.166 308.757 970.972 309.307 970.635C317.424 966.079 312.182 945.003 309.307 933.68C308.976 932.353 308.666 931.115 308.401 929.987C305.481 917.668 299.09 901.48 290.708 896.416C289.743 895.773 288.655 895.337 287.514 895.136C286.372 894.934 285.201 894.971 284.074 895.243H284.096Z" fill="#313131"/>
<path d="M389.278 950.179C389.05 950.21 388.819 950.21 388.592 950.179C387.883 950.001 387.274 949.55 386.897 948.924C386.52 948.299 386.406 947.549 386.579 946.839C388.87 937.892 393.148 929.577 399.097 922.513C403.52 916.674 407.368 911.632 408.916 902.609C408.977 902.25 409.108 901.907 409.302 901.599C409.495 901.291 409.748 901.024 410.044 900.813C410.341 900.603 410.676 900.453 411.031 900.372C411.386 900.291 411.753 900.281 412.112 900.342C412.47 900.403 412.813 900.534 413.122 900.728C413.43 900.921 413.696 901.174 413.907 901.47C414.117 901.767 414.267 902.102 414.348 902.457C414.429 902.812 414.439 903.179 414.378 903.538C412.587 914.02 407.965 920.08 403.498 925.963C398.006 932.437 394.059 940.075 391.953 948.299C391.765 948.856 391.405 949.339 390.923 949.677C390.442 950.015 389.866 950.191 389.278 950.179Z" fill="#313131"/>
<path d="M1265.64 1534.75V1233.81C1265.64 1233.81 1371.49 1385.05 1466.23 1373.47C1560.97 1361.88 1729.07 1021.19 1729.07 1021.19C1729.07 1021.19 1690.5 1032.58 1632.36 996.444C1581.49 964.996 1574.26 934.521 1574.26 934.521L1447.12 1121.73C1447.12 1121.73 1330.77 938.236 1302.53 916.828C1274.29 895.421 1096.72 846.059 1096.72 846.059L1097.72 768.656C1097.72 768.656 1069.61 785.043 1027.53 785.043C1001.41 784.809 975.865 777.396 953.682 763.613L952.665 844.246C952.665 844.246 771.894 897.809 733.059 922.357C694.225 946.905 522.963 1204.64 522.963 1204.64L465.464 1020.57C465.464 1020.57 454.583 1047.86 389.298 1063.48C308.843 1082.72 294.202 1065.91 294.202 1065.91C294.202 1065.91 327.707 1190.13 360.725 1301.64C392.549 1408.7 448.479 1464.94 522.786 1445.39C609.368 1422.76 751.592 1260.92 751.592 1260.92V1534.75H1265.64Z" fill="white"/>
<path d="M1265.64 1537.52C1264.91 1537.52 1264.21 1537.23 1263.69 1536.71C1263.17 1536.19 1262.88 1535.49 1262.88 1534.75V1233.81C1262.88 1233.22 1263.07 1232.65 1263.41 1232.18C1263.76 1231.7 1264.24 1231.35 1264.8 1231.18C1265.37 1231 1265.97 1231.01 1266.53 1231.2C1267.09 1231.38 1267.57 1231.74 1267.92 1232.21C1268.96 1233.72 1373.83 1382 1465.9 1370.72C1551.97 1360.2 1703.13 1066.64 1724.14 1024.86C1710.87 1026.54 1675.84 1027.25 1630.79 998.854C1590.45 973.399 1578.11 950.045 1574.37 939.142L1449.4 1123.14C1449.15 1123.5 1448.82 1123.8 1448.44 1124.01C1448.05 1124.23 1447.63 1124.34 1447.19 1124.36C1446.74 1124.34 1446.31 1124.21 1445.92 1123.99C1445.54 1123.77 1445.21 1123.45 1444.98 1123.08C1443.83 1121.24 1328.58 939.85 1301.05 919.039C1273.52 898.229 1097.96 849.177 1096.2 848.69C1095.61 848.529 1095.09 848.177 1094.72 847.688C1094.35 847.2 1094.15 846.604 1094.16 845.992L1095.09 773.189C1073.98 782.941 1050.98 787.918 1027.73 787.763C1002.7 787.615 978.132 781.035 956.382 768.655L955.431 844.378C955.425 844.969 955.228 845.543 954.869 846.013C954.51 846.484 954.009 846.825 953.44 846.988C951.649 847.54 772.603 900.75 734.498 924.811C696.394 948.873 526.857 1203.71 525.154 1206.27C524.868 1206.71 524.463 1207.06 523.986 1207.28C523.508 1207.5 522.979 1207.57 522.46 1207.5C521.941 1207.43 521.453 1207.21 521.053 1206.87C520.652 1206.53 520.357 1206.09 520.201 1205.59L464.669 1027.25C458.034 1036.1 439.413 1053.06 390.007 1066.15C336.931 1080.22 309.264 1074.73 298.295 1070.84C305.261 1096.38 334.741 1204.02 363.491 1300.84C396.111 1410.53 452.483 1460.87 522.169 1442.71C606.937 1420.59 748.166 1260.7 749.581 1259.15C749.955 1258.73 750.446 1258.44 750.991 1258.3C751.535 1258.17 752.108 1258.2 752.633 1258.4C753.161 1258.59 753.616 1258.95 753.937 1259.41C754.257 1259.87 754.427 1260.42 754.424 1260.99V1534.75C754.424 1535.49 754.133 1536.19 753.615 1536.71C753.096 1537.23 752.393 1537.52 751.66 1537.52C750.927 1537.52 750.224 1537.23 749.705 1536.71C749.187 1536.19 748.895 1535.49 748.895 1534.75V1268.17C722.91 1296.92 601.983 1427.56 523.562 1448.06C450.581 1467.17 391.777 1415.4 358.139 1302.32C325.386 1192.16 291.793 1067.9 291.373 1066.64C291.228 1066.1 291.25 1065.52 291.435 1065C291.621 1064.47 291.961 1064.01 292.412 1063.67C292.874 1063.36 293.422 1063.18 293.983 1063.18C294.543 1063.18 295.091 1063.36 295.553 1063.67C295.796 1063.81 320.587 1078.87 388.548 1060.87C453.279 1043.73 462.723 1019.95 462.811 1019.71C463.001 1019.16 463.357 1018.69 463.828 1018.35C464.3 1018.02 464.864 1017.84 465.443 1017.84C466.021 1017.84 466.586 1018.02 467.057 1018.35C467.529 1018.69 467.884 1019.16 468.075 1019.71L523.783 1198.25C548.11 1161.69 695.155 942.968 731.557 919.968C768.556 896.592 929.224 848.292 949.902 842.122L950.897 763.524C950.897 763.011 951.04 762.508 951.31 762.071C951.58 761.634 951.966 761.281 952.425 761.052C952.885 760.822 953.399 760.725 953.91 760.771C954.421 760.817 954.909 761.005 955.32 761.313C977.068 774.715 1002.05 781.955 1027.59 782.256C1068.35 782.256 1096.15 766.399 1096.39 766.244C1096.82 766.006 1097.3 765.881 1097.79 765.881C1098.28 765.881 1098.75 766.006 1099.18 766.244C1099.6 766.495 1099.95 766.851 1100.19 767.278C1100.43 767.705 1100.56 768.187 1100.55 768.677L1099.58 843.869C1120.43 849.708 1277.23 894.137 1304.26 914.638C1330.79 934.653 1430.45 1090.19 1447.25 1116.57L1573.31 930.937C1573.63 930.468 1574.1 930.11 1574.63 929.912C1575.16 929.714 1575.75 929.686 1576.3 929.832C1576.85 929.971 1577.34 930.278 1577.71 930.71C1578.08 931.142 1578.3 931.677 1578.35 932.242C1578.35 932.508 1582.05 961.501 1633.8 994.165C1688.09 1028.4 1728.03 1018.49 1728.43 1018.49C1728.94 1018.36 1729.48 1018.37 1729.99 1018.54C1730.49 1018.7 1730.94 1019 1731.27 1019.42C1731.61 1019.83 1731.82 1020.32 1731.88 1020.85C1731.94 1021.38 1731.85 1021.91 1731.61 1022.38C1724.71 1036.34 1561.77 1364.55 1466.65 1376.23C1462.98 1376.67 1459.29 1376.9 1455.59 1376.89C1374.19 1376.89 1289.73 1271.07 1268.41 1242.34V1534.75C1268.41 1535.49 1268.12 1536.19 1267.6 1536.71C1267.08 1537.23 1266.38 1537.52 1265.64 1537.52Z" fill="#313131"/>
<path d="M1630.52 1301.53H1168V1589.27H1630.52V1301.53Z" fill="white"/>
<path d="M1630.52 1592.03H1167.94C1167.2 1592.03 1166.5 1591.74 1165.98 1591.22C1165.46 1590.71 1165.17 1590 1165.17 1589.27V1301.64C1165.16 1301.26 1165.22 1300.89 1165.35 1300.54C1165.48 1300.2 1165.68 1299.88 1165.94 1299.61C1166.2 1299.34 1166.51 1299.13 1166.85 1298.98C1167.2 1298.84 1167.56 1298.76 1167.94 1298.76H1630.52C1631.26 1298.76 1631.96 1299.05 1632.48 1299.57C1633 1300.09 1633.29 1300.79 1633.29 1301.53V1589.27C1633.29 1590 1633 1590.71 1632.48 1591.22C1631.96 1591.74 1631.26 1592.03 1630.52 1592.03ZM1170.77 1586.5H1627.76V1304.29H1170.77V1586.5Z" fill="#313131"/>
<path d="M1630.52 1363.98H1167.94C1167.2 1363.98 1166.5 1363.69 1165.98 1363.17C1165.46 1362.65 1165.17 1361.95 1165.17 1361.22V1301.64C1165.16 1301.26 1165.22 1300.89 1165.35 1300.54C1165.48 1300.2 1165.68 1299.88 1165.94 1299.61C1166.2 1299.34 1166.51 1299.13 1166.85 1298.98C1167.2 1298.84 1167.56 1298.76 1167.94 1298.76H1630.52C1631.26 1298.76 1631.96 1299.05 1632.48 1299.57C1633 1300.09 1633.29 1300.79 1633.29 1301.53V1361.24C1633.28 1361.97 1632.99 1362.66 1632.47 1363.18C1631.95 1363.69 1631.25 1363.98 1630.52 1363.98ZM1170.77 1358.45H1627.76V1304.29H1170.77V1358.45Z" fill="#313131"/>
<path d="M1582.07 1346.79C1581.69 1346.8 1581.31 1346.72 1580.96 1346.57C1580.6 1346.42 1580.29 1346.19 1580.03 1345.91C1579.54 1345.37 1579.28 1344.65 1579.31 1343.92C1579.34 1343.19 1579.65 1342.5 1580.19 1341.99L1607.85 1316.65C1608.4 1316.18 1609.11 1315.94 1609.83 1315.99C1610.54 1316.03 1611.22 1316.36 1611.7 1316.89C1612.18 1317.42 1612.44 1318.12 1612.42 1318.84C1612.39 1319.56 1612.09 1320.24 1611.57 1320.74L1583.93 1346.06C1583.42 1346.53 1582.76 1346.79 1582.07 1346.79Z" fill="#313131"/>
<path d="M1609.71 1346.79C1609.02 1346.79 1608.36 1346.53 1607.86 1346.06L1580.19 1320.74C1579.65 1320.25 1579.32 1319.56 1579.29 1318.82C1579.26 1318.09 1579.52 1317.37 1580.01 1316.83C1580.51 1316.29 1581.2 1315.96 1581.93 1315.93C1582.67 1315.9 1583.38 1316.16 1583.93 1316.65L1611.57 1342C1611.84 1342.24 1612.06 1342.54 1612.21 1342.87C1612.37 1343.19 1612.46 1343.55 1612.47 1343.92C1612.49 1344.28 1612.43 1344.64 1612.31 1344.98C1612.18 1345.33 1611.99 1345.64 1611.75 1345.91C1611.49 1346.19 1611.17 1346.41 1610.82 1346.57C1610.47 1346.72 1610.1 1346.8 1609.71 1346.79Z" fill="#313131"/>
<path d="M1357.93 1403.37H1215.55V1545.75H1357.93V1403.37Z" fill="#FFA620"/>
<path d="M1357.93 1548.51H1215.55C1214.82 1548.51 1214.12 1548.22 1213.6 1547.7C1213.08 1547.18 1212.79 1546.48 1212.79 1545.74V1403.37C1212.79 1402.63 1213.08 1401.93 1213.6 1401.41C1214.12 1400.89 1214.82 1400.6 1215.55 1400.6H1357.93C1358.66 1400.6 1359.37 1400.89 1359.88 1401.41C1360.4 1401.93 1360.69 1402.63 1360.69 1403.37V1545.74C1360.69 1546.48 1360.4 1547.18 1359.88 1547.7C1359.37 1548.22 1358.66 1548.51 1357.93 1548.51ZM1218.32 1542.98H1355.17V1406.13H1218.32V1542.98Z" fill="#313131"/>
<path d="M1582.07 1430.77H1409.57C1408.83 1430.77 1408.13 1430.48 1407.61 1429.96C1407.09 1429.44 1406.8 1428.74 1406.8 1428C1406.8 1427.27 1407.09 1426.57 1407.61 1426.05C1408.13 1425.53 1408.83 1425.24 1409.57 1425.24H1582.07C1582.8 1425.24 1583.5 1425.53 1584.02 1426.05C1584.54 1426.57 1584.83 1427.27 1584.83 1428C1584.83 1428.74 1584.54 1429.44 1584.02 1429.96C1583.5 1430.48 1582.8 1430.77 1582.07 1430.77Z" fill="#313131"/>
<path d="M1582.07 1479.38H1409.57C1408.83 1479.38 1408.13 1479.09 1407.61 1478.57C1407.09 1478.05 1406.8 1477.35 1406.8 1476.61C1406.8 1475.88 1407.09 1475.18 1407.61 1474.66C1408.13 1474.14 1408.83 1473.85 1409.57 1473.85H1582.07C1582.8 1473.85 1583.5 1474.14 1584.02 1474.66C1584.54 1475.18 1584.83 1475.88 1584.83 1476.61C1584.83 1477.35 1584.54 1478.05 1584.02 1478.57C1583.5 1479.09 1582.8 1479.38 1582.07 1479.38Z" fill="#313131"/>
<path d="M1582.07 1523.87H1409.57C1408.83 1523.87 1408.13 1523.58 1407.61 1523.06C1407.09 1522.55 1406.8 1521.84 1406.8 1521.11C1406.8 1520.38 1407.09 1519.67 1407.61 1519.16C1408.13 1518.64 1408.83 1518.35 1409.57 1518.35H1582.07C1582.8 1518.35 1583.5 1518.64 1584.02 1519.16C1584.54 1519.67 1584.83 1520.38 1584.83 1521.11C1584.83 1521.84 1584.54 1522.55 1584.02 1523.06C1583.5 1523.58 1582.8 1523.87 1582.07 1523.87Z" fill="#313131"/>
<path d="M536.985 1401.11H248.313V1617.97H536.985V1401.11Z" fill="#21A2FF"/>
<path d="M536.985 1620.74H248.313C247.58 1620.74 246.877 1620.45 246.359 1619.93C245.84 1619.41 245.549 1618.71 245.549 1617.97V1401.15C245.546 1400.79 245.615 1400.43 245.753 1400.09C245.891 1399.76 246.095 1399.45 246.352 1399.19C246.609 1398.94 246.915 1398.73 247.252 1398.59C247.589 1398.46 247.949 1398.39 248.313 1398.39H536.985C537.358 1398.37 537.731 1398.43 538.081 1398.56C538.43 1398.69 538.749 1398.89 539.019 1399.15C539.288 1399.41 539.501 1399.72 539.646 1400.07C539.791 1400.41 539.864 1400.78 539.86 1401.15V1617.88C539.873 1618.26 539.807 1618.64 539.666 1619C539.526 1619.35 539.314 1619.67 539.044 1619.94C538.775 1620.21 538.452 1620.41 538.098 1620.55C537.744 1620.69 537.365 1620.75 536.985 1620.74ZM251.078 1615.21H534.154V1403.87H251.078V1615.21Z" fill="#313131"/>
<path d="M536.984 1437.02H337.703C336.97 1437.02 336.267 1436.73 335.748 1436.22C335.23 1435.7 334.938 1434.99 334.938 1434.26C334.938 1433.53 335.23 1432.82 335.748 1432.31C336.267 1431.79 336.97 1431.5 337.703 1431.5H536.984C537.718 1431.5 538.421 1431.79 538.939 1432.31C539.458 1432.82 539.749 1433.53 539.749 1434.26C539.749 1434.99 539.458 1435.7 538.939 1436.22C538.421 1436.73 537.718 1437.02 536.984 1437.02Z" fill="#313131"/>
<path d="M315.7 1437.73C317.617 1437.73 319.172 1436.18 319.172 1434.26C319.172 1432.34 317.617 1430.79 315.7 1430.79C313.782 1430.79 312.228 1432.34 312.228 1434.26C312.228 1436.18 313.782 1437.73 315.7 1437.73Z" fill="#313131"/>
<path d="M291.813 1437.73C293.731 1437.73 295.285 1436.18 295.285 1434.26C295.285 1432.34 293.731 1430.79 291.813 1430.79C289.895 1430.79 288.341 1432.34 288.341 1434.26C288.341 1436.18 289.895 1437.73 291.813 1437.73Z" fill="#313131"/>
<path d="M267.953 1437.73C269.87 1437.73 271.425 1436.18 271.425 1434.26C271.425 1432.34 269.87 1430.79 267.953 1430.79C266.035 1430.79 264.48 1432.34 264.48 1434.26C264.48 1436.18 266.035 1437.73 267.953 1437.73Z" fill="#313131"/>
<path d="M544.284 1265.74C543.727 1265.74 543.183 1265.57 542.725 1265.26C542.267 1264.94 541.916 1264.49 541.718 1263.97C541.586 1263.66 529.201 1231.64 520.288 1205.54C520.171 1205.2 520.122 1204.84 520.145 1204.47C520.168 1204.11 520.263 1203.76 520.423 1203.43C520.583 1203.1 520.806 1202.81 521.079 1202.57C521.352 1202.33 521.669 1202.15 522.013 1202.03C522.358 1201.91 522.722 1201.86 523.085 1201.88C523.448 1201.91 523.802 1202 524.129 1202.16C524.455 1202.32 524.747 1202.55 524.988 1202.82C525.228 1203.09 525.412 1203.41 525.53 1203.75C534.376 1229.76 546.739 1261.67 546.871 1261.98C547.132 1262.67 547.114 1263.43 546.82 1264.1C546.527 1264.77 545.981 1265.29 545.301 1265.57C544.973 1265.68 544.63 1265.74 544.284 1265.74Z" fill="#313131"/>
<path d="M1417.84 1163.75C1417.33 1163.75 1416.82 1163.6 1416.39 1163.33C1415.95 1163.06 1415.6 1162.68 1415.37 1162.22C1415.14 1161.76 1415.04 1161.24 1415.09 1160.73C1415.13 1160.22 1415.32 1159.73 1415.63 1159.32L1445 1119.98C1445.22 1119.69 1445.49 1119.44 1445.8 1119.26C1446.11 1119.07 1446.46 1118.95 1446.82 1118.9C1447.18 1118.85 1447.54 1118.87 1447.89 1118.96C1448.25 1119.05 1448.58 1119.21 1448.87 1119.43C1449.16 1119.64 1449.4 1119.92 1449.59 1120.23C1449.77 1120.54 1449.89 1120.89 1449.95 1121.25C1450 1121.61 1449.98 1121.97 1449.89 1122.32C1449.8 1122.68 1449.64 1123.01 1449.42 1123.3L1420.05 1162.64C1419.8 1162.99 1419.46 1163.27 1419.08 1163.46C1418.69 1163.65 1418.27 1163.75 1417.84 1163.75Z" fill="#313131"/>
<path d="M751.681 1263.69C750.948 1263.69 750.245 1263.39 749.727 1262.88C749.208 1262.36 748.917 1261.65 748.917 1260.92V1149.19C748.917 1148.46 749.208 1147.76 749.727 1147.24C750.245 1146.72 750.948 1146.43 751.681 1146.43C752.415 1146.43 753.118 1146.72 753.636 1147.24C754.155 1147.76 754.446 1148.46 754.446 1149.19V1260.92C754.446 1261.65 754.155 1262.36 753.636 1262.88C753.118 1263.39 752.415 1263.69 751.681 1263.69Z" fill="#313131"/>
<path d="M1265.64 1236.57C1264.91 1236.57 1264.21 1236.28 1263.69 1235.76C1263.17 1235.24 1262.88 1234.54 1262.88 1233.81V1149.19C1262.88 1148.46 1263.17 1147.76 1263.69 1147.24C1264.21 1146.72 1264.91 1146.43 1265.64 1146.43C1266.37 1146.43 1267.08 1146.72 1267.6 1147.24C1268.11 1147.76 1268.41 1148.46 1268.41 1149.19V1233.81C1268.41 1234.54 1268.11 1235.24 1267.6 1235.76C1267.08 1236.28 1266.37 1236.57 1265.64 1236.57Z" fill="#313131"/>
<path d="M1027.53 1537.52C1026.79 1537.52 1026.09 1537.23 1025.57 1536.71C1025.05 1536.19 1024.76 1535.49 1024.76 1534.75V785.044C1024.76 784.311 1025.05 783.607 1025.57 783.089C1026.09 782.571 1026.79 782.279 1027.53 782.279C1028.26 782.279 1028.96 782.571 1029.48 783.089C1030 783.607 1030.29 784.311 1030.29 785.044V1534.75C1030.29 1535.49 1030 1536.19 1029.48 1536.71C1028.96 1537.23 1028.26 1537.52 1027.53 1537.52Z" fill="#313131"/>
<path d="M1027.53 813.152C988.205 813.152 953.107 794.42 951.626 793.624C950.981 793.275 950.5 792.684 950.291 791.981C950.081 791.278 950.16 790.521 950.509 789.876C950.858 789.231 951.449 788.75 952.152 788.541C952.855 788.331 953.612 788.41 954.257 788.759C954.611 788.936 989.642 807.623 1027.53 807.623C1072.44 807.623 1095.44 789.245 1095.69 789.046C1096.26 788.64 1096.96 788.466 1097.65 788.559C1098.35 788.652 1098.98 789.006 1099.43 789.548C1099.87 790.09 1100.09 790.781 1100.05 791.48C1100 792.179 1099.69 792.835 1099.18 793.315C1098.21 794.133 1074.56 813.152 1027.53 813.152Z" fill="#313131"/>
<path d="M1039.45 850.349C1039.45 853.511 1038.19 856.543 1035.95 858.778C1033.72 861.014 1030.69 862.27 1027.53 862.27C1024.36 862.27 1021.33 861.014 1019.1 858.778C1016.86 856.543 1015.61 853.511 1015.61 850.349C1015.61 843.715 1027.53 811.714 1027.53 811.714C1027.53 811.714 1039.45 843.847 1039.45 850.349Z" fill="white"/>
<path d="M1027.53 865.034C1023.63 865.028 1019.9 863.479 1017.15 860.726C1014.4 857.974 1012.85 854.242 1012.84 850.349C1012.84 843.471 1023.7 814.08 1024.94 810.741C1025.14 810.214 1025.49 809.761 1025.95 809.441C1026.42 809.121 1026.96 808.949 1027.53 808.949C1028.09 808.949 1028.64 809.121 1029.1 809.441C1029.56 809.761 1029.92 810.214 1030.11 810.741C1031.35 814.08 1042.21 843.471 1042.21 850.349C1042.21 854.242 1040.66 857.974 1037.9 860.726C1035.15 863.479 1031.42 865.028 1027.53 865.034ZM1027.53 819.808C1023.26 831.772 1018.37 846.7 1018.37 850.349C1018.37 852.777 1019.34 855.106 1021.05 856.823C1022.77 858.54 1025.1 859.505 1027.53 859.505C1029.95 859.505 1032.28 858.54 1034 856.823C1035.72 855.106 1036.68 852.777 1036.68 850.349C1036.68 846.7 1031.77 831.772 1027.53 819.808Z" fill="#313131"/>
<path d="M336.22 1102.02C311.341 1102.02 300.836 1095.9 300.062 1095.39C299.431 1095.01 298.977 1094.4 298.799 1093.68C298.62 1092.97 298.733 1092.21 299.111 1091.58C299.489 1090.95 300.103 1090.5 300.816 1090.32C301.529 1090.14 302.284 1090.25 302.915 1090.63C303.335 1090.88 328.524 1104.9 393.743 1088C452.348 1072.81 471.146 1045.67 471.412 1045.41C471.615 1045.1 471.876 1044.84 472.179 1044.64C472.483 1044.44 472.823 1044.3 473.18 1044.23C473.537 1044.16 473.905 1044.16 474.262 1044.24C474.619 1044.31 474.958 1044.45 475.26 1044.65C475.562 1044.86 475.821 1045.12 476.022 1045.42C476.223 1045.73 476.363 1046.07 476.433 1046.42C476.503 1046.78 476.501 1047.15 476.429 1047.5C476.357 1047.86 476.215 1048.2 476.012 1048.5C475.193 1049.67 455.754 1077.63 395.136 1093.35C370.057 1099.94 350.728 1102.02 336.22 1102.02Z" fill="#313131"/>
<path d="M1701.2 1049.52C1684.42 1049.52 1655.56 1044.99 1617.61 1021.88C1565.48 990.163 1557.1 958.317 1556.77 956.99C1556.59 956.277 1556.7 955.523 1557.08 954.892C1557.46 954.262 1558.07 953.807 1558.78 953.628C1559.49 953.449 1560.25 953.561 1560.88 953.938C1561.51 954.316 1561.96 954.928 1562.14 955.641C1562.14 956.017 1570.59 986.779 1620.48 1017.17C1679.24 1052.95 1715.8 1042.49 1716.18 1042.38C1716.53 1042.26 1716.9 1042.21 1717.27 1042.24C1717.63 1042.27 1717.99 1042.37 1718.32 1042.54C1718.65 1042.71 1718.94 1042.94 1719.18 1043.22C1719.42 1043.51 1719.59 1043.84 1719.7 1044.19C1719.81 1044.54 1719.85 1044.91 1719.81 1045.28C1719.77 1045.65 1719.66 1046.01 1719.48 1046.33C1719.3 1046.65 1719.06 1046.94 1718.77 1047.17C1718.48 1047.4 1718.15 1047.56 1717.79 1047.66C1712.37 1049.04 1706.79 1049.66 1701.2 1049.52Z" fill="#313131"/>
<path d="M751.681 1155.54L737.239 1276.8L751.681 1260.92V1155.54Z" fill="#313131"/>
<path d="M1265.64 1149.19L1277.81 1249.95L1266.7 1235.29L1265.64 1149.19Z" fill="#313131"/>
<path d="M535.061 1186.46L522.876 1204.64L542.868 1259.35L535.061 1186.46Z" fill="#313131"/>
<path d="M1436.33 1104.79L1447.12 1121.64L1417.73 1160.98L1436.33 1104.79Z" fill="#313131"/>
<path d="M482.095 996.111H276.135C275.401 996.111 274.698 995.82 274.18 995.301C273.661 994.783 273.37 994.08 273.37 993.346C273.37 992.613 273.661 991.91 274.18 991.392C274.698 990.873 275.401 990.582 276.135 990.582H482.095C482.828 990.582 483.531 990.873 484.05 991.392C484.568 991.91 484.859 992.613 484.859 993.346C484.859 994.08 484.568 994.783 484.05 995.301C483.531 995.82 482.828 996.111 482.095 996.111Z" fill="#313131"/>
<path d="M332.617 773.432H389.277L372.911 742.979L347.833 752.688L332.617 773.432Z" fill="#21A2FF"/>
<path d="M402.435 776.198H316.495C315.762 776.198 315.059 775.907 314.54 775.388C314.022 774.87 313.73 774.167 313.73 773.433C313.73 772.7 314.022 771.997 314.54 771.479C315.059 770.96 315.762 770.669 316.495 770.669H402.524C403.257 770.669 403.96 770.96 404.478 771.479C404.997 771.997 405.288 772.7 405.288 773.433C405.288 774.167 404.997 774.87 404.478 775.388C403.96 775.907 403.257 776.198 402.524 776.198H402.435Z" fill="#313131"/>
<path d="M1799.44 797.162H1613.81C1613.07 797.162 1612.37 796.87 1611.85 796.352C1611.33 795.834 1611.04 795.13 1611.04 794.397C1611.04 793.664 1611.33 792.961 1611.85 792.442C1612.37 791.924 1613.07 791.633 1613.81 791.633H1799.44C1800.17 791.633 1800.88 791.924 1801.4 792.442C1801.91 792.961 1802.21 793.664 1802.21 794.397C1802.21 795.13 1801.91 795.834 1801.4 796.352C1800.88 796.87 1800.17 797.162 1799.44 797.162Z" fill="#313131"/>
<path d="M1707.62 748.73H1772.06L1775.56 715.136L1741.59 699.368L1707.62 748.73Z" fill="#FFA620"/>
<path d="M1786.37 751.495H1707.55C1706.82 751.495 1706.12 751.203 1705.6 750.685C1705.08 750.167 1704.79 749.463 1704.79 748.73C1704.79 747.997 1705.08 747.294 1705.6 746.776C1706.12 746.257 1706.82 745.966 1707.55 745.966H1786.3C1787.04 745.966 1787.74 746.257 1788.26 746.776C1788.78 747.294 1789.07 747.997 1789.07 748.73C1789.07 749.463 1788.78 750.167 1788.26 750.685C1787.74 751.203 1787.04 751.495 1786.3 751.495H1786.37Z" fill="#313131"/>
</svg>
