<svg width="2000" height="2000" viewBox="0 0 2000 2000" fill="none" xmlns="http://www.w3.org/2000/svg">
<path d="M1581.54 1515.45H91.8585C91.1004 1515.45 90.3733 1515.15 89.8372 1514.61C89.3011 1514.08 89 1513.35 89 1512.59C89 1511.83 89.3011 1511.11 89.8372 1510.57C90.3733 1510.03 91.1004 1509.73 91.8585 1509.73H1581.54C1582.3 1509.73 1583.03 1510.03 1583.56 1510.57C1584.1 1511.11 1584.4 1511.83 1584.4 1512.59C1584.4 1513.35 1584.1 1514.08 1583.56 1514.61C1583.03 1515.15 1582.3 1515.45 1581.54 1515.45Z" fill="#313131"/>
<path d="M571.81 843.181L688.985 860.606C688.985 860.606 640.756 781.78 645.856 734.307L571.81 843.181Z" fill="#313131"/>
<path d="M688.893 863.465H688.458L571.306 846.062C570.813 845.998 570.343 845.809 569.943 845.512C569.543 845.216 569.225 844.823 569.019 844.37C568.826 843.927 568.749 843.442 568.797 842.962C568.845 842.481 569.016 842.021 569.294 841.626L643.317 732.729C643.674 732.196 644.2 731.799 644.81 731.601C645.419 731.404 646.078 731.417 646.68 731.638C647.281 731.86 647.791 732.277 648.127 732.823C648.462 733.37 648.605 734.013 648.531 734.65C643.614 780.637 690.768 858.365 691.248 859.142C691.544 859.603 691.701 860.139 691.701 860.686C691.701 861.233 691.544 861.769 691.248 862.23C690.982 862.608 690.63 862.918 690.22 863.133C689.81 863.347 689.355 863.461 688.893 863.465ZM576.634 841.031L683.382 856.879C673.503 839.796 643.706 784.959 642.562 744.094L576.634 841.031Z" fill="#313131"/>
<path d="M628.476 938.013L643.706 1068.47L505.95 938.493L514.96 755.185L631.22 758.295L628.476 938.013Z" fill="white"/>
<path d="M643.706 1071.27C642.982 1071.26 642.287 1070.99 641.762 1070.49L503.983 940.507C503.68 940.211 503.444 939.854 503.29 939.46C503.136 939.065 503.068 938.643 503.091 938.22L512.101 754.911C512.116 754.539 512.204 754.173 512.36 753.834C512.516 753.496 512.738 753.192 513.012 752.939C513.286 752.686 513.607 752.49 513.957 752.361C514.307 752.233 514.679 752.175 515.051 752.19L631.266 755.437C632.016 755.461 632.726 755.779 633.244 756.322C633.762 756.866 634.045 757.591 634.033 758.341L631.288 937.854L646.496 1068.2C646.537 1068.6 646.495 1069.01 646.372 1069.39C646.248 1069.77 646.047 1070.12 645.781 1070.42C645.514 1070.73 645.188 1070.97 644.823 1071.14C644.458 1071.3 644.062 1071.4 643.66 1071.4L643.706 1071.27ZM508.785 937.26L639.864 1060.93L625.526 938.266V937.9L628.224 761.017L517.589 758.044L508.785 937.26Z" fill="#313131"/>
<path d="M514.296 782.352L513.038 833.553C513.038 833.553 533.619 832.089 591.521 816.425L514.296 782.352Z" fill="#313131"/>
<path d="M513.039 836.413C512.656 836.419 512.275 836.348 511.921 836.202C511.567 836.056 511.246 835.84 510.978 835.566C510.711 835.292 510.502 834.966 510.364 834.608C510.227 834.25 510.164 833.868 510.18 833.486L511.438 782.285C511.462 781.826 511.595 781.379 511.826 780.982C512.056 780.584 512.378 780.247 512.764 779.998C513.161 779.751 513.613 779.605 514.079 779.573C514.546 779.541 515.013 779.624 515.44 779.815L592.665 813.888C593.205 814.127 593.658 814.528 593.962 815.035C594.265 815.542 594.404 816.131 594.358 816.72C594.313 817.31 594.086 817.871 593.709 818.326C593.332 818.781 592.824 819.108 592.253 819.262C534.809 834.812 514.091 836.413 513.222 836.481L513.039 836.413ZM517.04 786.698L515.966 830.353C523.215 829.415 543.521 826.168 582.946 815.763L517.04 786.698Z" fill="#313131"/>
<path d="M662.045 727.699C659.05 779.495 640.55 819.308 578.646 816.884C535.563 815.215 503.182 770.371 506.155 718.552C509.128 666.734 546.494 626.806 589.531 629.368C632.569 631.929 665.041 675.927 662.045 727.699Z" fill="white"/>
<path d="M584.501 819.924C582.534 819.924 580.545 819.878 578.532 819.787C568.945 819.235 559.565 816.768 550.948 812.53C542.33 808.292 534.65 802.369 528.36 795.112C510.683 775.514 501.513 747.593 503.206 718.482C504.299 693.714 514.005 670.106 530.647 651.731C546.998 634.237 567.922 625.318 589.623 626.576C634.17 629.16 667.9 674.598 664.813 727.881C661.314 789.761 634.993 819.924 584.501 819.924ZM585.69 632.179C567.053 632.179 549.102 640.411 534.923 655.641C519.185 673.038 510.021 695.387 509.014 718.825C507.413 746.404 516.035 772.816 532.682 791.27C538.455 797.962 545.508 803.431 553.425 807.358C561.342 811.286 569.964 813.591 578.784 814.138C630.099 816.425 655.62 788.984 659.187 727.583C662.092 677.457 630.786 634.717 589.372 632.316C588.137 632.201 586.925 632.201 585.69 632.201V632.179Z" fill="#313131"/>
<path d="M670.668 687.085C670.668 687.085 658.228 599.752 573.228 601.285C448.186 603.571 449.147 860.995 449.147 860.995L565.773 871.377C565.773 871.377 517.545 792.574 522.644 745.078C522.644 745.078 499.776 712.354 516.767 699.342C531.38 688.16 537.943 714.046 537.943 714.046C537.943 714.046 559.141 691.178 590.081 687.748C624.658 684.021 670.668 687.085 670.668 687.085Z" fill="#313131"/>
<path d="M565.75 874.259H565.499L448.873 863.877C448.161 863.82 447.497 863.496 447.014 862.97C446.53 862.444 446.263 861.756 446.266 861.042C446.266 854.181 446.266 690.402 511.691 624.839C529.139 607.345 549.834 598.473 573.182 598.473C659.692 598.473 673.344 685.851 673.481 686.743C673.53 687.154 673.491 687.571 673.364 687.966C673.238 688.361 673.028 688.723 672.749 689.029C672.461 689.344 672.106 689.59 671.71 689.748C671.314 689.906 670.888 689.973 670.462 689.944C670.005 689.944 624.292 686.88 590.425 690.562C561.268 693.74 540.298 715.716 540.115 715.968C539.752 716.356 539.289 716.636 538.776 716.778C538.264 716.919 537.722 716.916 537.211 716.768C536.699 716.606 536.242 716.308 535.887 715.905C535.532 715.502 535.294 715.01 535.199 714.481C534.627 711.28 532.043 702.499 527.012 700.235C524.588 699.137 521.752 699.64 518.322 701.721C516.99 702.498 515.842 703.554 514.957 704.817C514.073 706.081 513.473 707.521 513.2 709.039C510.913 719.993 520.975 737.555 525.045 743.341C525.447 743.905 525.626 744.597 525.549 745.284C520.632 791.272 567.786 869.022 568.266 869.8C568.529 870.232 568.673 870.726 568.682 871.232C568.692 871.738 568.567 872.237 568.32 872.679C568.074 873.121 567.715 873.489 567.279 873.747C566.844 874.004 566.348 874.142 565.842 874.145L565.75 874.259ZM452.028 858.389L560.376 868.062C549.994 850.157 515.83 787.499 519.603 745.856C516.676 741.42 504.487 721.959 507.437 707.918C507.878 705.638 508.796 703.476 510.132 701.576C511.468 699.677 513.192 698.081 515.189 696.896C520.289 693.809 525 693.191 529.207 695.089C534.787 697.605 537.851 704.054 539.361 708.627C546.861 701.881 565.362 687.543 589.67 684.913C618.484 681.78 655.507 683.404 667.146 684.044C663.831 668.037 646.016 604.167 573.137 604.167C551.366 604.167 531.974 612.468 515.715 628.864C456.51 688.321 452.303 836.87 452.028 858.389Z" fill="#313131"/>
<path d="M507.984 756.053C507.984 759.995 509.55 763.776 512.338 766.564C515.126 769.351 518.906 770.917 522.848 770.917C526.791 770.917 530.571 769.351 533.359 766.564C536.147 763.776 537.713 759.995 537.713 756.053C537.713 747.844 522.848 730.51 522.848 730.51C522.848 730.51 507.984 747.844 507.984 756.053Z" fill="#21A2FF"/>
<path d="M522.826 773.755C518.133 773.749 513.635 771.882 510.317 768.564C506.999 765.246 505.132 760.747 505.126 756.055C505.126 747.068 519.075 730.511 520.653 728.613C520.931 728.316 521.268 728.078 521.641 727.916C522.015 727.754 522.418 727.67 522.826 727.67C523.233 727.67 523.636 727.754 524.01 727.916C524.384 728.078 524.72 728.316 524.998 728.613C526.599 730.489 540.548 747.045 540.548 756.055C540.542 760.751 538.672 765.253 535.349 768.572C532.026 771.891 527.522 773.755 522.826 773.755ZM522.826 734.994C517.497 741.671 510.843 751.504 510.843 756.055C510.978 759.145 512.301 762.064 514.535 764.204C516.77 766.343 519.744 767.537 522.837 767.537C525.931 767.537 528.905 766.343 531.139 764.204C533.374 762.064 534.696 759.145 534.831 756.055C534.831 751.504 528.154 741.671 522.826 735.108V734.994Z" fill="#313131"/>
<path d="M613.611 751.823C611.782 751.823 609.541 751.823 606.751 751.526C606.366 751.51 605.989 751.417 605.641 751.252C605.293 751.087 604.982 750.853 604.727 750.565C604.472 750.277 604.277 749.94 604.155 749.575C604.033 749.21 603.986 748.824 604.017 748.441C604.048 748.057 604.156 747.683 604.335 747.342C604.513 747.001 604.759 746.7 605.057 746.456C605.355 746.213 605.699 746.032 606.069 745.924C606.439 745.817 606.826 745.785 607.208 745.831C610.58 746.105 613.968 746.105 617.339 745.831C617.819 741.647 617.819 727.674 617.522 715.143C617.507 714.385 617.793 713.652 618.319 713.105C618.844 712.558 619.565 712.242 620.323 712.227C621.081 712.212 621.814 712.499 622.361 713.024C622.908 713.549 623.224 714.27 623.239 715.028C623.993 747.592 622.713 748.987 621.867 749.925C621.021 750.862 620.22 751.823 613.611 751.823Z" fill="#313131"/>
<path d="M594.517 770.575C584.204 770.575 578.51 762.068 576.932 757.174C576.7 756.453 576.762 755.669 577.105 754.992C577.447 754.316 578.042 753.802 578.761 753.561C579.116 753.443 579.49 753.396 579.862 753.423C580.235 753.45 580.598 753.551 580.932 753.719C581.265 753.886 581.562 754.119 581.806 754.402C582.05 754.685 582.235 755.013 582.351 755.368C582.534 755.871 586.193 766.161 596.484 764.721C597.236 764.615 597.999 764.812 598.606 765.268C599.213 765.725 599.614 766.404 599.72 767.156C599.826 767.908 599.629 768.672 599.172 769.278C598.715 769.885 598.036 770.286 597.284 770.392C596.367 770.519 595.443 770.58 594.517 770.575Z" fill="#313131"/>
<path d="M575.971 720.404C575.459 720.39 574.96 720.238 574.527 719.965C574.094 719.691 573.742 719.307 573.508 718.851C573.275 718.395 573.168 717.885 573.199 717.374C573.23 716.863 573.397 716.369 573.684 715.945C573.684 715.762 586.056 698.222 607.026 703.596C607.763 703.784 608.395 704.257 608.783 704.911C609.171 705.565 609.283 706.347 609.095 707.084C608.907 707.82 608.434 708.452 607.78 708.841C607.126 709.229 606.345 709.341 605.608 709.153C588.571 704.762 578.807 718.575 578.395 719.169C578.126 719.56 577.763 719.878 577.339 720.094C576.916 720.309 576.446 720.416 575.971 720.404Z" fill="#313131"/>
<path d="M650.452 714.663C650 714.652 649.557 714.535 649.16 714.32C648.762 714.105 648.421 713.8 648.165 713.428C641.419 703.755 629.665 707.505 629.527 707.528C629.165 707.673 628.777 707.742 628.386 707.732C627.996 707.721 627.612 707.63 627.258 707.465C626.904 707.3 626.587 707.065 626.328 706.773C626.069 706.481 625.872 706.139 625.75 705.768C625.628 705.397 625.583 705.005 625.618 704.616C625.653 704.227 625.768 703.849 625.955 703.507C626.142 703.164 626.397 702.863 626.705 702.622C627.012 702.382 627.366 702.207 627.744 702.108C633.232 700.302 645.535 699.661 652.898 710.158C653.116 710.464 653.27 710.811 653.353 711.178C653.435 711.546 653.443 711.925 653.377 712.296C653.311 712.666 653.172 713.019 652.968 713.335C652.765 713.652 652.5 713.924 652.19 714.137C651.681 714.493 651.072 714.678 650.452 714.663Z" fill="#313131"/>
<path d="M526.257 722.257H521.684C520.967 722.224 520.289 721.923 519.784 721.413C519.279 720.903 518.984 720.222 518.958 719.505C518.932 718.788 519.177 718.087 519.644 717.542C520.11 716.997 520.765 716.647 521.478 716.563L518.963 711.989C518.64 711.329 518.585 710.57 518.807 709.87C519.03 709.169 519.513 708.582 520.158 708.229C520.802 707.876 521.558 707.784 522.268 707.973C522.978 708.163 523.587 708.618 523.971 709.245L528.819 718.026C529.057 718.462 529.178 718.953 529.169 719.45C529.16 719.946 529.022 720.432 528.768 720.859C528.514 721.287 528.153 721.64 527.721 721.885C527.289 722.13 526.8 722.258 526.303 722.257H526.257Z" fill="#313131"/>
<path d="M600.393 727.997C602.326 727.997 603.892 726.43 603.892 724.498C603.892 722.565 602.326 720.999 600.393 720.999C598.461 720.999 596.895 722.565 596.895 724.498C596.895 726.43 598.461 727.997 600.393 727.997Z" fill="#313131"/>
<path d="M634.559 728.84C636.492 728.84 638.058 727.274 638.058 725.342C638.058 723.409 636.492 721.843 634.559 721.843C632.627 721.843 631.061 723.409 631.061 725.342C631.061 727.274 632.627 728.84 634.559 728.84Z" fill="#313131"/>
<path d="M1907.75 435.858H1153.96V1353.45H1907.75V435.858Z" fill="white"/>
<path d="M1907.77 1356.31H1153.96C1153.2 1356.31 1152.47 1356.01 1151.94 1355.48C1151.4 1354.94 1151.1 1354.21 1151.1 1353.45V435.858C1151.1 435.1 1151.4 434.373 1151.94 433.837C1152.47 433.301 1153.2 433 1153.96 433H1907.77C1908.53 433 1909.26 433.301 1909.79 433.837C1910.33 434.373 1910.63 435.1 1910.63 435.858V1353.45C1910.63 1354.21 1910.33 1354.94 1909.79 1355.48C1909.26 1356.01 1908.53 1356.31 1907.77 1356.31ZM1156.82 1350.6H1905.01V438.717H1156.82V1350.6Z" fill="#313131"/>
<path d="M1907.77 1356.31H1153.96C1153.2 1356.31 1152.47 1356.01 1151.94 1355.48C1151.4 1354.94 1151.1 1354.21 1151.1 1353.45V1140.51C1151.1 1139.75 1151.4 1139.02 1151.94 1138.49C1152.47 1137.95 1153.2 1137.65 1153.96 1137.65H1907.77C1908.53 1137.65 1909.26 1137.95 1909.79 1138.49C1910.33 1139.02 1910.63 1139.75 1910.63 1140.51V1353.45C1910.63 1354.21 1910.33 1354.94 1909.79 1355.48C1909.26 1356.01 1908.53 1356.31 1907.77 1356.31ZM1156.82 1350.6H1905.01V1143.37H1156.82V1350.6Z" fill="#313131"/>
<path d="M1513.21 842.198L1391.49 860.287C1391.49 860.287 1441.57 778.397 1436.28 729.048L1513.21 842.198Z" fill="#313131"/>
<path d="M1391.48 863.168C1390.98 863.169 1390.48 863.035 1390.04 862.779C1389.6 862.523 1389.24 862.155 1388.99 861.713C1388.74 861.27 1388.61 860.769 1388.62 860.261C1388.63 859.754 1388.77 859.257 1389.04 858.824C1389.54 858 1438.57 777.185 1433.45 729.368C1433.39 728.74 1433.54 728.11 1433.88 727.577C1434.22 727.044 1434.72 726.638 1435.31 726.421C1435.9 726.204 1436.55 726.19 1437.15 726.38C1437.76 726.569 1438.28 726.953 1438.64 727.47L1515.59 840.598C1515.86 841.001 1516.02 841.466 1516.07 841.949C1516.11 842.433 1516.03 842.919 1515.84 843.365C1515.64 843.818 1515.32 844.21 1514.92 844.502C1514.52 844.795 1514.05 844.978 1513.55 845.034L1391.9 863.168H1391.48ZM1439.51 738.904C1438.48 781.53 1407.15 839.043 1397 856.605L1508.29 840.049L1439.51 738.904Z" fill="#313131"/>
<path d="M1454.26 926.238L1438.41 1076.27L1575.07 932.618L1572.19 750.75L1451.38 753.974L1454.26 926.238Z" fill="white"/>
<path d="M1438.5 1079.13C1438.09 1079.13 1437.69 1079.04 1437.31 1078.88C1436.77 1078.63 1436.32 1078.21 1436.02 1077.69C1435.73 1077.17 1435.6 1076.57 1435.67 1075.98L1451.49 926.1L1448.61 754.042C1448.6 753.301 1448.87 752.583 1449.37 752.038C1449.87 751.493 1450.57 751.162 1451.31 751.115L1572.12 747.891C1572.88 747.881 1573.62 748.168 1574.18 748.691C1574.45 748.951 1574.67 749.264 1574.82 749.609C1574.96 749.955 1575.04 750.327 1575.05 750.704L1578 932.572C1578.01 932.942 1577.94 933.311 1577.81 933.657C1577.68 934.003 1577.48 934.318 1577.22 934.584L1440.58 1078.24C1440.32 1078.52 1439.99 1078.75 1439.63 1078.9C1439.28 1079.06 1438.89 1079.13 1438.5 1079.13ZM1454.37 756.695L1457.21 926.123C1457.22 926.237 1457.22 926.352 1457.21 926.466L1442.25 1068.25L1572.3 931.52L1569.49 753.699L1454.37 756.695Z" fill="#313131"/>
<path d="M1572.9 778.968L1574.2 832.181C1574.2 832.181 1552.75 830.672 1492.65 814.39L1572.9 778.968Z" fill="#313131"/>
<path d="M1574.2 835.04H1573.99C1573.1 835.04 1551.58 833.302 1491.9 817.135C1491.33 816.984 1490.82 816.658 1490.44 816.203C1490.06 815.747 1489.84 815.186 1489.79 814.596C1489.75 814.007 1489.89 813.419 1490.19 812.912C1490.5 812.405 1490.95 812.003 1491.49 811.761L1571.73 776.27C1572.16 776.077 1572.63 775.994 1573.1 776.028C1573.57 776.061 1574.02 776.21 1574.42 776.461C1574.82 776.712 1575.15 777.058 1575.38 777.467C1575.62 777.877 1575.74 778.337 1575.75 778.808L1577.06 832.022C1577.06 832.402 1577 832.78 1576.85 833.133C1576.71 833.486 1576.5 833.808 1576.24 834.08C1575.97 834.353 1575.66 834.569 1575.31 834.718C1574.96 834.867 1574.58 834.946 1574.2 834.949V835.04ZM1501.23 813.727C1542.62 824.658 1563.84 828.02 1571.27 828.98L1570.13 783.244L1501.23 813.727Z" fill="#313131"/>
<path d="M1419.36 722.188C1422.49 775.996 1441.7 817.432 1506.01 814.917C1550.78 813.202 1584.47 766.597 1581.47 712.789C1578.48 658.981 1539.55 617.476 1494.83 620.06C1450.1 622.644 1416.23 668.38 1419.36 722.188Z" fill="white"/>
<path d="M1499.95 817.913C1447.56 817.913 1420.23 786.607 1416.5 722.371C1414.97 695.685 1422.15 670.05 1436.79 650.223C1451.42 630.397 1472.05 618.483 1494.53 617.225C1517.01 615.967 1538.75 625.183 1555.72 643.34C1572.99 662.422 1583.06 686.923 1584.21 712.63C1585.95 742.838 1576.44 771.835 1558.1 792.164C1543.97 807.806 1525.51 816.907 1506.14 817.776C1504.04 817.868 1501.98 817.913 1499.95 817.913ZM1498.69 622.805C1497.43 622.805 1496.15 622.805 1494.87 622.919C1474.11 624.131 1455.1 635.039 1441.38 653.631C1427.23 673.507 1420.46 697.694 1422.22 722.028C1425.92 785.83 1452.54 814.437 1505.89 812.059C1523.73 811.282 1540.77 802.912 1553.91 788.322C1571.25 769.136 1580.24 741.649 1578.57 712.973C1577.5 688.588 1567.97 665.337 1551.61 647.228C1536.83 631.403 1518.1 622.805 1498.69 622.805Z" fill="#313131"/>
<path d="M1410.4 680.018C1410.4 680.018 1423.32 589.255 1511.66 590.833C1641.57 593.12 1640.58 860.674 1640.58 860.674L1519.38 871.467C1519.38 871.467 1569.53 789.623 1564.27 740.274C1564.27 740.274 1588.06 706.27 1570.38 692.732C1555.22 681.092 1548.38 707.985 1548.38 707.985C1548.38 707.985 1526.36 684.134 1494.21 680.681C1458.21 676.793 1410.4 680.018 1410.4 680.018Z" fill="#313131"/>
<path d="M1519.43 874.372C1518.92 874.368 1518.42 874.23 1517.99 873.971C1517.55 873.713 1517.19 873.343 1516.94 872.899C1516.69 872.456 1516.56 871.954 1516.57 871.446C1516.58 870.937 1516.72 870.44 1516.98 870.004C1517.49 869.204 1566.52 788.389 1561.39 740.572C1561.33 739.885 1561.51 739.198 1561.9 738.628C1562.06 738.423 1577.13 716.584 1574.25 702.84C1573.94 701.251 1573.3 699.743 1572.37 698.419C1571.44 697.094 1570.24 695.982 1568.85 695.157C1565.26 692.984 1562.26 692.481 1559.7 693.624C1554.42 695.911 1551.72 705.173 1551.13 708.489C1551.03 709.01 1550.79 709.495 1550.44 709.889C1550.08 710.284 1549.62 710.572 1549.12 710.724C1548.61 710.875 1548.07 710.883 1547.55 710.747C1547.04 710.611 1546.58 710.336 1546.21 709.952C1546 709.723 1524.19 686.81 1493.84 683.517C1458.53 679.675 1411.06 682.831 1410.58 682.877C1410.15 682.906 1409.73 682.839 1409.33 682.68C1408.94 682.522 1408.58 682.276 1408.29 681.962C1408.01 681.658 1407.8 681.296 1407.67 680.901C1407.54 680.506 1407.49 680.088 1407.54 679.675C1407.68 678.76 1421.85 588.066 1511.63 588.066C1535.9 588.066 1557.37 597.214 1575.46 615.508C1643.28 683.586 1643.44 853.654 1643.42 860.857C1643.42 861.571 1643.16 862.26 1642.67 862.786C1642.19 863.311 1641.53 863.635 1640.81 863.693L1519.61 874.487L1519.43 874.372ZM1567.18 741.007C1571.14 784.456 1535.37 849.812 1524.74 868.152L1637.7 858.09C1637.41 836.114 1633.13 681.322 1571.39 619.395C1554.44 602.473 1534.34 593.715 1511.68 593.715C1435.67 593.715 1417.26 660.558 1413.9 676.954C1425.81 676.291 1464.46 674.667 1494.51 677.823C1519.89 680.59 1539.17 695.637 1546.83 702.566C1548.4 697.832 1551.56 691.132 1557.37 688.411C1561.71 686.444 1566.52 687.084 1571.84 690.286C1573.92 691.509 1575.7 693.163 1577.09 695.135C1578.47 697.108 1579.41 699.353 1579.85 701.72C1582.89 716.241 1570.2 736.502 1567.18 741.007Z" fill="#313131"/>
<path d="M1579.44 751.665C1579.28 755.653 1577.59 759.427 1574.72 762.194C1571.84 764.961 1568 766.507 1564.01 766.507C1560.02 766.507 1556.19 764.961 1553.31 762.194C1550.43 759.427 1548.74 755.653 1548.59 751.665C1548.59 743.136 1564.02 725.093 1564.02 725.093C1564.02 725.093 1579.44 743.136 1579.44 751.665Z" fill="#21A2FF"/>
<path d="M1564.02 769.934C1559.17 769.934 1554.52 768.007 1551.09 764.576C1547.66 761.145 1545.73 756.492 1545.73 751.64C1545.73 742.333 1560.21 725.136 1561.85 723.215C1562.13 722.917 1562.47 722.68 1562.84 722.518C1563.21 722.355 1563.62 722.271 1564.02 722.271C1564.43 722.271 1564.84 722.355 1565.21 722.518C1565.58 722.68 1565.92 722.917 1566.2 723.215C1567.84 725.136 1582.2 742.333 1582.2 751.64C1582.2 756.472 1580.29 761.108 1576.89 764.536C1573.48 767.963 1568.86 769.904 1564.02 769.934ZM1564.02 729.595C1558.45 736.455 1551.45 746.883 1551.45 751.663C1551.45 754.998 1552.77 758.197 1555.13 760.556C1557.49 762.915 1560.69 764.24 1564.02 764.24C1567.36 764.24 1570.56 762.915 1572.92 760.556C1575.28 758.197 1576.6 754.998 1576.6 751.663C1576.58 746.86 1569.58 736.524 1564.02 729.595Z" fill="#313131"/>
<path d="M1469.79 747.137C1462.93 747.137 1461.71 745.902 1461.16 745.284C1460.62 744.667 1458.99 742.883 1459.77 709.084C1459.78 708.708 1459.86 708.337 1460.01 707.992C1460.16 707.647 1460.38 707.336 1460.65 707.076C1460.92 706.816 1461.24 706.613 1461.59 706.479C1461.95 706.345 1462.32 706.282 1462.7 706.294C1463.45 706.318 1464.17 706.639 1464.69 707.186C1465.21 707.734 1465.5 708.465 1465.49 709.222C1465.19 722.348 1465.19 736.96 1465.69 741.237C1469.23 741.543 1472.79 741.543 1476.33 741.237C1477.08 741.176 1477.84 741.419 1478.41 741.912C1478.99 742.405 1479.35 743.108 1479.41 743.866C1479.47 744.624 1479.23 745.376 1478.74 745.955C1478.24 746.534 1477.54 746.893 1476.78 746.954C1473.97 747.045 1471.66 747.137 1469.79 747.137Z" fill="#313131"/>
<path d="M1489.54 766.643C1488.59 766.64 1487.63 766.572 1486.68 766.437C1486.31 766.386 1485.95 766.262 1485.63 766.073C1485.3 765.883 1485.02 765.631 1484.79 765.332C1484.57 765.033 1484.4 764.691 1484.3 764.328C1484.21 763.964 1484.19 763.585 1484.24 763.213C1484.29 762.841 1484.41 762.482 1484.6 762.157C1484.79 761.833 1485.04 761.549 1485.34 761.322C1485.64 761.095 1485.98 760.929 1486.35 760.833C1486.71 760.738 1487.09 760.715 1487.46 760.766C1498.3 762.298 1502.12 751.436 1502.26 750.979C1502.5 750.257 1503.01 749.66 1503.69 749.319C1504.37 748.978 1505.16 748.921 1505.88 749.161C1506.6 749.4 1507.2 749.917 1507.54 750.596C1507.88 751.276 1507.94 752.064 1507.7 752.785C1506.01 757.839 1500.24 766.643 1489.54 766.643Z" fill="#313131"/>
<path d="M1508.8 714.527C1508.34 714.518 1507.9 714.398 1507.5 714.179C1507.1 713.96 1506.76 713.648 1506.51 713.269C1506.08 712.652 1495.88 698.268 1478.11 702.819C1477.39 702.974 1476.63 702.844 1476 702.456C1475.37 702.067 1474.92 701.45 1474.74 700.734C1474.55 700.018 1474.66 699.259 1475.02 698.615C1475.38 697.972 1475.98 697.495 1476.69 697.285C1498.42 691.705 1511.11 709.862 1511.22 710.045C1511.44 710.354 1511.59 710.704 1511.67 711.073C1511.75 711.442 1511.75 711.822 1511.68 712.193C1511.61 712.563 1511.47 712.916 1511.26 713.231C1511.05 713.545 1510.78 713.815 1510.47 714.024C1509.98 714.367 1509.39 714.544 1508.8 714.527Z" fill="#313131"/>
<path d="M1431.41 708.512C1430.88 708.521 1430.35 708.378 1429.89 708.101C1429.44 707.824 1429.07 707.423 1428.83 706.945C1428.59 706.467 1428.49 705.931 1428.54 705.399C1428.6 704.867 1428.8 704.361 1429.13 703.938C1436.69 693.076 1449.41 693.739 1455.08 695.615C1455.46 695.713 1455.81 695.888 1456.12 696.129C1456.43 696.369 1456.68 696.67 1456.87 697.013C1457.06 697.356 1457.17 697.733 1457.21 698.122C1457.24 698.511 1457.2 698.903 1457.07 699.274C1456.95 699.645 1456.76 699.987 1456.5 700.279C1456.24 700.571 1455.92 700.807 1455.57 700.972C1455.21 701.137 1454.83 701.227 1454.44 701.238C1454.05 701.249 1453.66 701.179 1453.3 701.034C1452.77 700.874 1440.79 697.17 1433.81 707.209C1433.55 707.609 1433.2 707.938 1432.78 708.166C1432.36 708.393 1431.89 708.513 1431.41 708.512Z" fill="#313131"/>
<path d="M1565.26 716.425H1560.46C1559.96 716.428 1559.47 716.3 1559.04 716.056C1558.6 715.811 1558.24 715.458 1557.99 715.03C1557.75 714.597 1557.62 714.109 1557.62 713.613C1557.62 713.116 1557.75 712.628 1557.99 712.195L1563.02 703.048C1563.39 702.384 1564 701.892 1564.73 701.682C1565.46 701.472 1566.24 701.56 1566.91 701.927C1567.57 702.294 1568.06 702.91 1568.27 703.639C1568.48 704.368 1568.39 705.151 1568.03 705.815L1565.33 710.708C1566.09 710.708 1566.81 711.01 1567.35 711.546C1567.89 712.082 1568.19 712.809 1568.19 713.567C1568.19 714.325 1567.89 715.052 1567.35 715.588C1566.81 716.124 1566.09 716.425 1565.33 716.425H1565.26Z" fill="#313131"/>
<path d="M1483.44 722.507C1485.45 722.507 1487.07 720.879 1487.07 718.871C1487.07 716.863 1485.45 715.235 1483.44 715.235C1481.43 715.235 1479.8 716.863 1479.8 718.871C1479.8 720.879 1481.43 722.507 1483.44 722.507Z" fill="#313131"/>
<path d="M1447.92 723.375C1449.93 723.375 1451.56 721.748 1451.56 719.739C1451.56 717.731 1449.93 716.104 1447.92 716.104C1445.92 716.104 1444.29 717.731 1444.29 719.739C1444.29 721.748 1445.92 723.375 1447.92 723.375Z" fill="#313131"/>
<path d="M1638.21 687.482C1646.21 673.635 1609.53 637.49 1556.28 606.75C1503.04 576.009 1453.39 562.314 1445.4 576.161C1437.41 590.008 1474.09 626.153 1527.33 656.894C1580.58 687.634 1630.22 701.329 1638.21 687.482Z" fill="#21A2FF"/>
<path d="M1623.73 695.728C1615.35 695.424 1607.03 694.056 1598.99 691.658C1577.81 685.803 1551.86 674.347 1525.81 659.368C1477.79 631.675 1432.51 592.617 1442.82 574.757C1453.14 556.897 1509.69 576.632 1557.62 604.302C1605.55 631.972 1650.92 671.031 1640.61 688.913C1637.8 693.944 1631.42 695.728 1623.73 695.728ZM1459.56 573.522C1453.44 573.522 1449.37 574.871 1447.81 577.593C1441.64 588.272 1473.33 622.459 1528.69 654.406C1554.24 669.156 1579.71 680.429 1600.43 686.146C1622.82 692.321 1633.31 690.148 1635.67 686.146C1641.84 675.444 1610.13 641.28 1554.79 609.31C1513.51 585.345 1477.68 573.522 1459.63 573.522H1459.56Z" fill="#313131"/>
<path d="M1602.08 655.802C1615.8 631.997 1603.31 599.021 1574.11 582.168C1544.91 565.314 1510.08 570.94 1496.36 594.745C1496.36 594.745 1503.68 614.709 1542.41 637.074C1578.96 658.181 1602.08 655.802 1602.08 655.802Z" fill="#21A2FF"/>
<path d="M1599.7 658.751C1592.47 658.751 1571.23 657.013 1540.97 639.542C1501.78 616.926 1493.96 596.597 1493.64 595.728C1493.5 595.335 1493.45 594.916 1493.48 594.502C1493.52 594.087 1493.65 593.686 1493.86 593.326C1508.36 568.172 1545.02 562.066 1575.53 579.606C1589.76 587.549 1600.83 600.144 1606.88 615.28C1612.46 630.029 1611.66 644.894 1604.59 657.174C1604.36 657.579 1604.02 657.921 1603.62 658.168C1603.23 658.416 1602.77 658.561 1602.3 658.591C1602.19 658.66 1601.3 658.751 1599.7 658.751ZM1499.56 594.927C1501.85 599.501 1511.95 616.194 1543.83 634.603C1573.95 651.983 1594.85 653.08 1600.36 653.012C1605.87 642.515 1606.31 629.938 1601.53 617.383C1595.94 603.483 1585.76 591.923 1572.67 584.637C1545.41 568.881 1512.98 573.591 1499.56 594.927Z" fill="#313131"/>
<path d="M1856.59 557.173H1750.37C1749.62 557.173 1748.89 556.872 1748.35 556.336C1747.82 555.8 1747.51 555.073 1747.51 554.315V481.755C1747.51 480.997 1747.82 480.27 1748.35 479.734C1748.89 479.198 1749.62 478.896 1750.37 478.896H1856.59C1857.35 478.896 1858.08 479.198 1858.62 479.734C1859.15 480.27 1859.45 480.997 1859.45 481.755V554.315C1859.45 555.073 1859.15 555.8 1858.62 556.336C1858.08 556.872 1857.35 557.173 1856.59 557.173ZM1753.23 551.456H1853.85V484.613H1753.23V551.456Z" fill="#313131"/>
<path d="M1800.2 542.559C1799.82 542.557 1799.44 542.48 1799.09 542.33C1798.73 542.181 1798.41 541.964 1798.14 541.69L1776.74 519.417C1776.46 519.151 1776.23 518.831 1776.08 518.476C1775.92 518.12 1775.84 517.737 1775.84 517.349C1775.83 516.961 1775.91 516.577 1776.06 516.219C1776.21 515.862 1776.43 515.539 1776.71 515.27C1776.99 515.001 1777.32 514.792 1777.69 514.655C1778.05 514.519 1778.44 514.458 1778.83 514.475C1779.21 514.493 1779.59 514.59 1779.94 514.759C1780.29 514.929 1780.6 515.167 1780.86 515.461L1799.97 535.333L1829.7 497.143C1830.17 496.537 1830.85 496.14 1831.61 496.039C1832.37 495.938 1833.13 496.142 1833.74 496.606C1834.34 497.07 1834.74 497.756 1834.84 498.513C1834.94 499.27 1834.74 500.036 1834.28 500.642L1802.6 541.461C1802.35 541.782 1802.03 542.046 1801.67 542.235C1801.31 542.424 1800.91 542.534 1800.5 542.559H1800.2Z" fill="#313131"/>
<path d="M1344.24 490.056H1206.3C1205.54 490.056 1204.82 489.755 1204.28 489.219C1203.74 488.683 1203.44 487.955 1203.44 487.197C1203.44 486.439 1203.74 485.712 1204.28 485.176C1204.82 484.64 1205.54 484.339 1206.3 484.339H1344.24C1345 484.339 1345.73 484.64 1346.26 485.176C1346.8 485.712 1347.1 486.439 1347.1 487.197C1347.1 487.955 1346.8 488.683 1346.26 489.219C1345.73 489.755 1345 490.056 1344.24 490.056Z" fill="#313131"/>
<path d="M1294.82 526.322H1206.3C1205.54 526.322 1204.82 526.021 1204.28 525.485C1203.74 524.949 1203.44 524.222 1203.44 523.464C1203.44 522.706 1203.74 521.979 1204.28 521.443C1204.82 520.907 1205.54 520.605 1206.3 520.605H1294.82C1295.58 520.605 1296.31 520.907 1296.84 521.443C1297.38 521.979 1297.68 522.706 1297.68 523.464C1297.68 524.222 1297.38 524.949 1296.84 525.485C1296.31 526.021 1295.58 526.322 1294.82 526.322Z" fill="#313131"/>
<path d="M1262.92 739.543V855.735L1187.23 797.627L1262.92 739.543Z" fill="#FFA620"/>
<path d="M1798.81 739.543V855.735L1874.5 797.627L1798.81 739.543Z" fill="#FFA620"/>
<path d="M1262.92 858.593C1262.29 858.592 1261.68 858.383 1261.19 857.999L1185.49 799.914C1185.14 799.645 1184.86 799.299 1184.66 798.902C1184.47 798.506 1184.36 798.07 1184.36 797.627C1184.36 797.185 1184.47 796.749 1184.66 796.352C1184.86 795.956 1185.14 795.61 1185.49 795.341L1261.19 737.256C1261.61 736.938 1262.11 736.744 1262.64 736.696C1263.17 736.648 1263.7 736.749 1264.18 736.986C1264.65 737.224 1265.05 737.589 1265.33 738.04C1265.61 738.492 1265.76 739.012 1265.76 739.543V855.735C1265.76 856.269 1265.61 856.793 1265.33 857.246C1265.04 857.699 1264.64 858.063 1264.16 858.296C1263.78 858.493 1263.35 858.595 1262.92 858.593ZM1192.03 797.627L1260.13 849.926V745.329L1192.03 797.627Z" fill="#313131"/>
<path d="M1798.81 858.593C1798.37 858.598 1797.94 858.496 1797.55 858.296C1797.07 858.063 1796.66 857.699 1796.38 857.246C1796.1 856.793 1795.95 856.269 1795.95 855.735V739.543C1795.95 739.012 1796.1 738.492 1796.38 738.04C1796.66 737.589 1797.06 737.224 1797.53 736.986C1798.01 736.749 1798.54 736.648 1799.07 736.696C1799.59 736.744 1800.1 736.938 1800.52 737.256L1876.22 795.341C1876.57 795.61 1876.85 795.956 1877.05 796.352C1877.24 796.749 1877.34 797.185 1877.34 797.627C1877.34 798.07 1877.24 798.506 1877.05 798.902C1876.85 799.299 1876.57 799.645 1876.22 799.914L1800.52 857.999C1800.03 858.378 1799.43 858.587 1798.81 858.593ZM1801.67 745.329V849.926L1869.79 797.627L1801.67 745.329Z" fill="#313131"/>
<path d="M1854.06 1143.37H1218.97C1218.53 1143.37 1218.1 1143.28 1217.71 1143.09C1217.31 1142.9 1216.96 1142.63 1216.68 1142.29C1216.42 1141.95 1216.24 1141.56 1216.14 1141.14C1216.05 1140.72 1216.05 1140.29 1216.14 1139.87C1217.1 1135.71 1239.83 1037.81 1270.15 999.278C1305.57 954.274 1447.65 924.683 1453.69 923.449C1454.13 923.355 1454.58 923.368 1455.01 923.485C1455.45 923.601 1455.85 923.82 1456.18 924.121C1456.51 924.422 1456.77 924.798 1456.93 925.218C1457.09 925.638 1457.14 926.09 1457.09 926.536L1442.14 1068.32L1572.99 930.743C1573.28 930.432 1573.63 930.191 1574.03 930.04C1574.43 929.889 1574.85 929.833 1575.28 929.874C1581.06 930.446 1717.49 944.51 1779.26 981.099C1835.44 1014.35 1855.96 1135 1856.8 1140.12C1856.87 1140.53 1856.84 1140.94 1856.73 1141.33C1856.62 1141.73 1856.43 1142.1 1856.16 1142.41C1855.9 1142.71 1855.58 1142.95 1855.21 1143.11C1854.85 1143.28 1854.46 1143.37 1854.06 1143.37ZM1222.56 1137.58H1850.63C1846.88 1117.71 1825.27 1014.78 1776.42 985.855C1718.98 951.85 1590.92 937.146 1576.17 935.546L1440.49 1078.17C1440.08 1078.61 1439.54 1078.9 1438.95 1079.02C1438.36 1079.13 1437.75 1079.05 1437.21 1078.8C1436.67 1078.55 1436.22 1078.13 1435.92 1077.61C1435.63 1077.08 1435.51 1076.48 1435.58 1075.89L1450.99 929.783C1427.73 934.905 1305.64 963.353 1274.65 1002.71C1248.27 1036.35 1226.95 1119.56 1222.56 1137.58Z" fill="#313131"/>
<path d="M1521.4 1133.01C1520.85 1133 1520.31 1132.85 1519.84 1132.55L1437.86 1079.31L1339.26 1101.24C1338.71 1101.37 1338.14 1101.33 1337.62 1101.13C1337.09 1100.93 1336.64 1100.59 1336.31 1100.13C1335.98 1099.68 1335.79 1099.14 1335.77 1098.58C1335.74 1098.02 1335.88 1097.47 1336.17 1096.99L1435.94 928.477C1436.35 927.814 1436.99 927.338 1437.75 927.15L1453.59 923.423C1454.33 923.25 1455.11 923.378 1455.76 923.779C1456.4 924.18 1456.86 924.821 1457.04 925.561C1457.21 926.301 1457.08 927.079 1456.68 927.725C1456.28 928.37 1455.64 928.83 1454.9 929.003L1440.24 932.456L1344.45 1094.22L1437.79 1073.55C1438.54 1073.39 1439.32 1073.53 1439.97 1073.94L1520 1125.96L1598.33 938.63L1574.68 935.566C1573.93 935.466 1573.25 935.071 1572.79 934.468C1572.32 933.866 1572.12 933.105 1572.22 932.353C1572.32 931.601 1572.72 930.919 1573.32 930.458C1573.92 929.997 1574.68 929.794 1575.43 929.894L1602.88 933.462C1603.31 933.513 1603.73 933.665 1604.1 933.908C1604.46 934.15 1604.76 934.475 1604.98 934.857C1605.2 935.238 1605.33 935.666 1605.36 936.107C1605.39 936.548 1605.31 936.989 1605.14 937.395L1524.17 1131.38C1524 1131.77 1523.75 1132.11 1523.44 1132.39C1523.13 1132.67 1522.76 1132.88 1522.36 1133.01C1522.04 1133.07 1521.72 1133.07 1521.4 1133.01Z" fill="#313131"/>
<path d="M1419.16 1143.37H1418.93C1418.17 1143.3 1417.47 1142.94 1416.99 1142.36C1416.5 1141.79 1416.26 1141.04 1416.32 1140.28C1417.3 1128.62 1434.96 1077.53 1435.71 1075.36C1435.98 1074.67 1436.51 1074.11 1437.18 1073.8C1437.85 1073.49 1438.62 1073.45 1439.32 1073.69C1440.01 1073.94 1440.59 1074.44 1440.93 1075.1C1441.26 1075.76 1441.33 1076.53 1441.11 1077.23C1434.84 1095.37 1422.82 1132 1422.01 1140.76C1421.95 1141.48 1421.62 1142.14 1421.09 1142.62C1420.56 1143.1 1419.87 1143.37 1419.16 1143.37Z" fill="#313131"/>
<path d="M1303.08 1298.48C1346.42 1298.48 1381.56 1283.42 1381.56 1264.84C1381.56 1246.26 1346.42 1231.2 1303.08 1231.2C1259.73 1231.2 1224.6 1246.26 1224.6 1264.84C1224.6 1283.42 1259.73 1298.48 1303.08 1298.48Z" fill="#FFA620"/>
<path d="M1303.08 1301.34C1257.48 1301.34 1221.74 1285.33 1221.74 1264.75C1221.74 1244.17 1257.48 1228.16 1303.08 1228.16C1348.68 1228.16 1384.42 1244.17 1384.42 1264.75C1384.42 1285.33 1348.7 1301.34 1303.08 1301.34ZM1303.08 1234.06C1262.1 1234.06 1227.45 1248.15 1227.45 1264.84C1227.45 1281.53 1262.1 1295.62 1303.08 1295.62C1344.06 1295.62 1378.7 1281.53 1378.7 1264.84C1378.7 1248.15 1344.08 1234.06 1303.08 1234.06Z" fill="#313131"/>
<path d="M1348.33 1253.96C1348.33 1221.94 1329.05 1196.08 1305.3 1196.08C1281.54 1196.08 1262.26 1221.99 1262.26 1253.96C1262.26 1253.96 1273.69 1269.8 1305.3 1269.8C1335.05 1269.8 1348.33 1253.96 1348.33 1253.96Z" fill="#FFA620"/>
<path d="M1305.3 1272.66C1272.66 1272.66 1260.45 1256.34 1259.95 1255.65C1259.59 1255.16 1259.39 1254.57 1259.4 1253.96C1259.4 1220.48 1279.98 1193.22 1305.3 1193.22C1330.61 1193.22 1351.19 1220.48 1351.19 1253.96C1351.19 1254.63 1350.96 1255.29 1350.53 1255.81C1349.96 1256.5 1336.03 1272.66 1305.3 1272.66ZM1265.12 1252.93C1267.68 1255.76 1279.43 1266.95 1305.3 1266.95C1329.63 1266.95 1342.48 1255.79 1345.47 1252.84C1345.04 1223.11 1327.18 1198.94 1305.3 1198.94C1283.41 1198.94 1265.53 1223.06 1265.12 1252.93Z" fill="#313131"/>
<path d="M1304.43 1253.41C1274.7 1253.41 1262.42 1239.94 1261.89 1239.37C1261.4 1238.8 1261.15 1238.06 1261.2 1237.31C1261.24 1236.57 1261.58 1235.86 1262.14 1235.36C1262.7 1234.86 1263.43 1234.6 1264.18 1234.63C1264.93 1234.67 1265.64 1235 1266.15 1235.55C1266.33 1235.73 1277.58 1247.69 1304.43 1247.69C1334.16 1247.69 1344.01 1235.2 1344.13 1235.09C1344.6 1234.56 1345.26 1234.23 1345.96 1234.16C1346.67 1234.09 1347.38 1234.29 1347.95 1234.71C1348.52 1235.13 1348.91 1235.75 1349.05 1236.45C1349.19 1237.14 1349.06 1237.87 1348.7 1238.47C1348.29 1239.07 1337.49 1253.41 1304.43 1253.41Z" fill="#313131"/>
<path d="M1533.27 1294.71C1578.66 1294.71 1615.45 1281.34 1615.45 1264.84C1615.45 1248.35 1578.66 1234.98 1533.27 1234.98C1487.88 1234.98 1451.08 1248.35 1451.08 1264.84C1451.08 1281.34 1487.88 1294.71 1533.27 1294.71Z" fill="#21A2FF"/>
<path d="M1533.27 1297.66C1485.59 1297.66 1448.22 1283.27 1448.22 1264.93C1448.22 1246.59 1485.59 1232.21 1533.27 1232.21C1580.95 1232.21 1618.33 1246.59 1618.33 1264.93C1618.33 1283.27 1580.97 1297.66 1533.27 1297.66ZM1533.27 1237.93C1485.82 1237.93 1453.94 1251.9 1453.94 1264.93C1453.94 1277.97 1485.82 1291.94 1533.27 1291.94C1580.72 1291.94 1612.62 1277.97 1612.62 1264.93C1612.62 1251.9 1580.74 1237.83 1533.27 1237.83V1237.93Z" fill="#313131"/>
<path d="M1578.98 1264.02C1578.98 1264.02 1566.33 1275.8 1533.24 1275.8C1501.09 1275.8 1487.51 1264.02 1487.51 1264.02V1187.73C1487.51 1187.73 1498.94 1177.42 1533.24 1177.42C1565.67 1177.42 1578.98 1187.73 1578.98 1187.73V1264.02Z" fill="#21A2FF"/>
<path d="M1533.27 1278.66C1500.43 1278.66 1486.27 1266.67 1485.68 1266.17C1485.37 1265.9 1485.13 1265.57 1484.96 1265.2C1484.79 1264.83 1484.7 1264.43 1484.7 1264.02V1187.73C1484.69 1187.33 1484.77 1186.93 1484.94 1186.56C1485.11 1186.2 1485.35 1185.87 1485.66 1185.61C1486.16 1185.15 1498.42 1174.56 1533.27 1174.56C1566.29 1174.56 1580.17 1185.01 1580.74 1185.47C1581.09 1185.74 1581.37 1186.09 1581.56 1186.48C1581.75 1186.88 1581.85 1187.32 1581.84 1187.76V1264.04C1581.84 1264.43 1581.76 1264.82 1581.61 1265.17C1581.45 1265.53 1581.23 1265.85 1580.95 1266.12C1580.28 1266.6 1567.07 1278.66 1533.27 1278.66ZM1490.41 1262.65C1493.98 1265.12 1507.43 1273.01 1533.27 1273.01C1559.82 1273.01 1572.74 1265.14 1576.12 1262.69V1189.26C1572.39 1186.98 1559.06 1180.28 1533.27 1180.28C1506.15 1180.28 1493.77 1186.95 1490.41 1189.17V1262.65Z" fill="#313131"/>
<path d="M1533.27 1201.11C1493.75 1201.11 1485.91 1190.45 1485.13 1189.24C1484.72 1188.61 1484.58 1187.83 1484.73 1187.09C1484.89 1186.35 1485.34 1185.7 1485.98 1185.29C1486.61 1184.87 1487.39 1184.73 1488.13 1184.89C1488.87 1185.05 1489.52 1185.49 1489.93 1186.13C1490.18 1186.45 1497.59 1195.28 1533.38 1195.28C1570.27 1195.28 1576.51 1186.38 1576.56 1186.29C1576.9 1185.62 1577.51 1185.11 1578.23 1184.88C1578.95 1184.65 1579.74 1184.72 1580.41 1185.07C1581.08 1185.42 1581.59 1186.02 1581.82 1186.74C1582.05 1187.46 1581.98 1188.25 1581.63 1188.92C1580.9 1190.18 1574.11 1201.11 1533.27 1201.11Z" fill="#313131"/>
<path d="M1710.63 1267.01C1710.63 1267.01 1671.18 1279.16 1698.28 1293.04C1729.84 1309.09 1788.38 1278.06 1788.38 1278.06L1710.63 1267.01Z" fill="#FFA620"/>
<path d="M1720.42 1299.33C1712.6 1299.44 1704.82 1298.23 1697.41 1295.74C1694.46 1294.68 1685.45 1291.48 1685.34 1284.48C1685.2 1274.35 1705.6 1265.92 1709.69 1264.34C1710.15 1264.16 1710.65 1264.1 1711.13 1264.18L1788.88 1275.22C1789.48 1275.31 1790.04 1275.58 1790.48 1276C1790.92 1276.43 1791.21 1276.98 1791.31 1277.58C1791.41 1278.17 1791.32 1278.79 1791.05 1279.33C1790.78 1279.88 1790.34 1280.32 1789.8 1280.6C1787.94 1281.65 1753.28 1299.33 1720.42 1299.33ZM1711.06 1269.94C1702.72 1273.3 1690.98 1279.98 1691.05 1284.42C1691.05 1286.34 1694.09 1288.49 1699.31 1290.34C1725.68 1299.69 1762.04 1286.59 1778.45 1279.52L1711.06 1269.94Z" fill="#313131"/>
<path d="M1827.26 1267.01C1827.26 1251.55 1821.11 1236.72 1810.18 1225.78C1799.24 1214.84 1784.41 1208.7 1768.94 1208.7C1753.48 1208.7 1738.64 1214.84 1727.71 1225.78C1716.77 1236.72 1710.63 1251.55 1710.63 1267.01C1710.63 1267.01 1728.67 1279.11 1768.94 1279.07C1809.81 1279.02 1827.26 1267.01 1827.26 1267.01Z" fill="#FFA620"/>
<path d="M1768.78 1281.92C1728.28 1281.92 1709.9 1269.9 1709.14 1269.39C1708.77 1269.14 1708.45 1268.8 1708.23 1268.4C1708.01 1268 1707.88 1267.56 1707.86 1267.11C1708.17 1251.09 1714.75 1235.83 1726.19 1224.62C1737.62 1213.4 1753 1207.12 1769.02 1207.12C1785.04 1207.12 1800.42 1213.4 1811.86 1224.62C1823.29 1235.83 1829.87 1251.09 1830.18 1267.11C1830.17 1267.56 1830.06 1268 1829.84 1268.4C1829.63 1268.8 1829.32 1269.14 1828.95 1269.39C1828.22 1269.9 1810.22 1281.9 1769.03 1281.95L1768.78 1281.92ZM1713.6 1265.39C1718.31 1267.95 1736.06 1276.21 1768.81 1276.21H1769.03C1802.31 1276.21 1819.8 1267.95 1824.44 1265.39C1823.94 1251.03 1817.88 1237.43 1807.54 1227.45C1797.2 1217.46 1783.39 1211.89 1769.02 1211.89C1754.65 1211.89 1740.84 1217.46 1730.51 1227.45C1720.17 1237.43 1714.11 1251.03 1713.6 1265.39Z" fill="#313131"/>
<path d="M1762.36 1209.55C1762.36 1209.55 1765.08 1197.4 1777.15 1198.3C1788.43 1199.14 1788.43 1212.45 1788.43 1212.45C1788.43 1212.45 1772.12 1207.6 1762.36 1209.55Z" fill="#FFA620"/>
<path d="M1788.38 1215.33C1788.11 1215.37 1787.83 1215.37 1787.56 1215.33C1787.4 1215.33 1771.82 1210.76 1762.88 1212.5C1762.41 1212.59 1761.93 1212.57 1761.47 1212.43C1761.02 1212.29 1760.6 1212.04 1760.27 1211.7C1759.93 1211.36 1759.69 1210.94 1759.56 1210.48C1759.43 1210.02 1759.42 1209.53 1759.52 1209.07C1760.35 1205.05 1762.61 1201.47 1765.89 1198.99C1769.16 1196.51 1773.22 1195.31 1777.31 1195.6C1788.33 1196.4 1791.24 1207.03 1791.24 1212.59C1791.24 1213.03 1791.14 1213.47 1790.94 1213.87C1790.74 1214.26 1790.45 1214.61 1790.1 1214.87C1789.59 1215.21 1788.99 1215.37 1788.38 1215.33ZM1767.8 1206.18C1773.63 1206.31 1779.43 1207.07 1785.09 1208.47C1784.7 1206.54 1783.7 1204.78 1782.23 1203.46C1780.77 1202.14 1778.91 1201.33 1776.95 1201.15C1774.95 1200.93 1772.93 1201.3 1771.14 1202.2C1769.34 1203.11 1767.85 1204.52 1766.84 1206.25L1767.8 1206.18Z" fill="#313131"/>
<path d="M1803.29 1277.9C1802.58 1277.9 1801.9 1277.63 1801.37 1277.15C1800.85 1276.67 1800.52 1276.02 1800.45 1275.31C1796.43 1235.25 1779.3 1217.07 1774.77 1212.93C1767.5 1215.63 1736.01 1229.83 1730.48 1274.26C1730.44 1274.64 1730.33 1275.01 1730.14 1275.34C1729.96 1275.68 1729.71 1275.97 1729.42 1276.21C1729.12 1276.45 1728.78 1276.62 1728.41 1276.73C1728.04 1276.83 1727.66 1276.86 1727.28 1276.81C1726.9 1276.76 1726.54 1276.64 1726.21 1276.45C1725.88 1276.26 1725.59 1276.01 1725.36 1275.7C1725.13 1275.4 1724.96 1275.05 1724.87 1274.68C1724.77 1274.31 1724.75 1273.93 1724.81 1273.55C1731.39 1220.52 1774.13 1207.08 1774.57 1206.94C1775 1206.81 1775.45 1206.79 1775.89 1206.87C1776.33 1206.95 1776.75 1207.13 1777.11 1207.4C1778.09 1208.13 1801.25 1225.97 1806.15 1274.74C1806.19 1275.12 1806.15 1275.49 1806.04 1275.85C1805.93 1276.21 1805.76 1276.55 1805.52 1276.84C1805.28 1277.13 1804.99 1277.37 1804.66 1277.55C1804.32 1277.73 1803.96 1277.84 1803.59 1277.88L1803.29 1277.9Z" fill="#313131"/>
<path d="M1647.24 1265.07C1644.36 1265.07 1641.55 1264.23 1639.15 1262.63C1636.76 1261.03 1634.89 1258.76 1633.78 1256.1C1632.68 1253.44 1632.39 1250.52 1632.95 1247.69C1633.51 1244.87 1634.9 1242.28 1636.93 1240.24C1638.97 1238.21 1641.56 1236.82 1644.39 1236.26C1647.21 1235.7 1650.13 1235.99 1652.79 1237.09C1655.45 1238.2 1657.72 1240.07 1659.32 1242.46C1660.92 1244.86 1661.77 1247.67 1661.76 1250.55C1661.75 1254.4 1660.22 1258.09 1657.5 1260.81C1654.78 1263.53 1651.09 1265.06 1647.24 1265.07ZM1647.24 1241.72C1645.49 1241.72 1643.78 1242.23 1642.33 1243.2C1640.87 1244.17 1639.74 1245.54 1639.07 1247.16C1638.4 1248.77 1638.22 1250.54 1638.56 1252.26C1638.89 1253.97 1639.73 1255.55 1640.97 1256.78C1642.2 1258.02 1643.77 1258.86 1645.49 1259.2C1647.2 1259.55 1648.98 1259.37 1650.59 1258.71C1652.2 1258.04 1653.58 1256.91 1654.55 1255.46C1655.53 1254 1656.04 1252.3 1656.04 1250.55C1656.04 1248.21 1655.12 1245.97 1653.47 1244.32C1651.82 1242.66 1649.58 1241.73 1647.24 1241.72Z" fill="#313131"/>
<path d="M1418.42 1265.07C1415.55 1265.07 1412.73 1264.22 1410.34 1262.62C1407.95 1261.02 1406.09 1258.75 1404.99 1256.09C1403.89 1253.43 1403.6 1250.5 1404.16 1247.68C1404.73 1244.86 1406.11 1242.27 1408.15 1240.23C1410.18 1238.2 1412.78 1236.82 1415.6 1236.26C1418.42 1235.7 1421.35 1235.99 1424.01 1237.1C1426.66 1238.2 1428.93 1240.07 1430.53 1242.46C1432.12 1244.86 1432.97 1247.67 1432.97 1250.55C1432.96 1254.4 1431.42 1258.09 1428.69 1260.81C1425.97 1263.53 1422.28 1265.06 1418.42 1265.07ZM1418.42 1241.72C1416.68 1241.72 1414.97 1242.24 1413.52 1243.21C1412.07 1244.18 1410.94 1245.56 1410.27 1247.17C1409.6 1248.78 1409.43 1250.56 1409.77 1252.27C1410.11 1253.98 1410.95 1255.56 1412.18 1256.79C1413.42 1258.03 1414.99 1258.87 1416.7 1259.21C1418.42 1259.55 1420.19 1259.37 1421.8 1258.7C1423.42 1258.04 1424.79 1256.9 1425.76 1255.45C1426.73 1254 1427.25 1252.3 1427.25 1250.55C1427.25 1248.21 1426.32 1245.96 1424.67 1244.31C1423.01 1242.65 1420.77 1241.72 1418.42 1241.72Z" fill="#313131"/>
<path d="M1189.61 1265.07C1186.73 1265.07 1183.92 1264.22 1181.52 1262.62C1179.13 1261.02 1177.27 1258.75 1176.17 1256.09C1175.07 1253.43 1174.78 1250.5 1175.34 1247.68C1175.91 1244.86 1177.29 1242.27 1179.33 1240.23C1181.37 1238.2 1183.96 1236.82 1186.78 1236.26C1189.61 1235.7 1192.53 1235.99 1195.19 1237.1C1197.85 1238.2 1200.12 1240.07 1201.71 1242.46C1203.31 1244.86 1204.16 1247.67 1204.15 1250.55C1204.15 1254.4 1202.61 1258.1 1199.88 1260.82C1197.16 1263.54 1193.46 1265.07 1189.61 1265.07ZM1189.61 1241.72C1187.86 1241.71 1186.15 1242.22 1184.69 1243.19C1183.23 1244.15 1182.09 1245.53 1181.42 1247.14C1180.74 1248.75 1180.56 1250.53 1180.9 1252.24C1181.23 1253.96 1182.07 1255.54 1183.3 1256.77C1184.54 1258.01 1186.11 1258.86 1187.82 1259.2C1189.54 1259.55 1191.31 1259.38 1192.93 1258.71C1194.54 1258.04 1195.93 1256.91 1196.9 1255.46C1197.87 1254.01 1198.39 1252.3 1198.39 1250.55C1198.39 1248.22 1197.46 1245.98 1195.82 1244.32C1194.17 1242.67 1191.94 1241.73 1189.61 1241.72Z" fill="#313131"/>
<path d="M1876.06 1265.07C1873.18 1265.07 1870.36 1264.23 1867.97 1262.63C1865.57 1261.03 1863.7 1258.76 1862.6 1256.1C1861.5 1253.44 1861.21 1250.52 1861.77 1247.69C1862.33 1244.87 1863.71 1242.28 1865.75 1240.24C1867.78 1238.21 1870.38 1236.82 1873.2 1236.26C1876.02 1235.7 1878.95 1235.99 1881.61 1237.09C1884.27 1238.2 1886.54 1240.07 1888.13 1242.46C1889.73 1244.86 1890.58 1247.67 1890.58 1250.55C1890.57 1254.4 1889.04 1258.09 1886.32 1260.81C1883.59 1263.53 1879.9 1265.06 1876.06 1265.07ZM1876.06 1241.72C1874.31 1241.72 1872.6 1242.23 1871.14 1243.2C1869.69 1244.17 1868.56 1245.54 1867.88 1247.16C1867.21 1248.77 1867.03 1250.54 1867.37 1252.26C1867.71 1253.97 1868.55 1255.55 1869.78 1256.78C1871.02 1258.02 1872.59 1258.86 1874.3 1259.2C1876.01 1259.55 1877.79 1259.37 1879.4 1258.71C1881.02 1258.04 1882.4 1256.91 1883.37 1255.46C1884.34 1254 1884.86 1252.3 1884.86 1250.55C1884.86 1248.21 1883.93 1245.97 1882.28 1244.32C1880.63 1242.66 1878.39 1241.73 1876.06 1241.72Z" fill="#313131"/>
<path d="M593.603 1541.7C615.236 1540.79 655.141 1552.7 700.236 1553.59C726.534 1554.12 745.057 1549.87 755.988 1551.01C788.987 1554.44 826.467 1563.04 829.165 1557.53C832.619 1550.42 815.902 1543.39 815.902 1543.39C815.902 1543.39 844.647 1553.23 847.917 1548.68C853.222 1541.27 835.751 1529.83 835.751 1529.83C835.751 1529.83 857.659 1544.38 862.232 1537.77C867.515 1530.2 845.402 1515.31 845.402 1515.31C845.402 1515.31 856.012 1519.45 858.482 1515.31C862.644 1508.45 814.736 1484.69 792.165 1475.77C734.996 1453.23 616.083 1454.19 594.015 1451.05C501.4 1437.95 360.008 1416.91 360.008 1416.91L435.747 1225.05L248.344 1146.41C248.344 1146.41 114.11 1453.02 170.594 1519.57C242.147 1603.7 526.829 1544.49 593.603 1541.7Z" fill="white"/>
<path d="M336.271 1564.07C264.077 1564.07 198.423 1553.41 168.238 1517.9C111.068 1450.73 240.043 1157.66 245.554 1145.15C245.86 1144.48 246.413 1143.95 247.098 1143.67C247.783 1143.4 248.548 1143.39 249.236 1143.66L436.546 1218.79C437.249 1219.07 437.812 1219.61 438.112 1220.31C438.412 1221 438.425 1221.79 438.147 1222.49L363.826 1411.08C386.374 1414.44 510.821 1432.9 594.243 1444.7C599.549 1445.45 610.96 1445.98 625.412 1446.64C671.788 1448.93 749.425 1452.4 793.034 1469.51C806.937 1475 857.361 1497.89 861.134 1508.96C861.395 1509.64 861.497 1510.37 861.434 1511.1C861.37 1511.83 861.143 1512.54 860.768 1513.16C860.219 1514.03 859.477 1514.76 858.6 1515.29C857.724 1515.82 856.736 1516.14 855.714 1516.23C860.151 1520.21 864.724 1525.38 865.593 1529.95C865.81 1530.97 865.817 1532.02 865.612 1533.04C865.408 1534.07 864.997 1535.04 864.404 1535.89C861.706 1539.74 856.149 1539.26 850.409 1537.27C850.902 1538.24 851.263 1539.28 851.484 1540.35C851.711 1541.47 851.704 1542.63 851.464 1543.75C851.224 1544.86 850.756 1545.92 850.089 1546.85C848.008 1549.75 841.582 1549.91 830.903 1547.37C831.286 1547.96 831.607 1548.58 831.863 1549.23C832.244 1550.19 832.418 1551.23 832.374 1552.27C832.331 1553.31 832.071 1554.33 831.612 1555.26C829.119 1560.39 819.057 1559.36 788.643 1554.78C778.284 1553.23 766.553 1551.49 755.576 1550.21C749.114 1549.95 742.642 1550.24 736.23 1551.08C724.224 1552.38 712.151 1552.97 700.076 1552.84C675.195 1552.34 651.482 1548.45 632.433 1545.34C616.699 1542.75 603.116 1540.54 593.557 1540.95C580.454 1541.47 559.004 1544.22 531.814 1547.67C476.771 1554.78 403.731 1564.07 336.271 1564.07ZM249.693 1150.16C236.978 1179.48 120.489 1453 172.582 1514.28C228.929 1580.6 425.478 1555.61 531.059 1542.21C558.363 1538.73 579.928 1535.99 593.283 1535.35C603.345 1534.93 617.225 1537.18 633.279 1539.8C653.128 1543.05 675.63 1546.67 700.099 1547.24C711.953 1547.35 723.804 1546.77 735.59 1545.5C742.411 1544.61 749.299 1544.32 756.171 1544.65C767.284 1545.82 779.039 1547.58 789.489 1549.23C804.513 1551.51 823.151 1554.28 826.581 1552.57C826.737 1552.18 826.737 1551.74 826.581 1551.35C825.346 1548.11 818.669 1544.26 814.758 1542.59C814.101 1542.29 813.583 1541.75 813.31 1541.08C813.037 1540.41 813.029 1539.66 813.287 1538.98C813.546 1538.3 814.052 1537.75 814.702 1537.43C815.353 1537.11 816.101 1537.05 816.793 1537.27C829.919 1541.84 842.977 1544.52 845.653 1543.4C845.98 1542.82 846.078 1542.14 845.927 1541.5C845.195 1537.5 838.609 1531.8 834.493 1528.99L834.173 1528.78C833.587 1528.35 833.191 1527.7 833.066 1526.98C832.942 1526.26 833.097 1525.52 833.501 1524.91C833.905 1524.3 834.527 1523.87 835.239 1523.71C835.95 1523.54 836.698 1523.66 837.329 1524.03L837.603 1524.19C847.551 1530.77 858.321 1534.89 859.854 1532.69C860.013 1532.46 860.118 1532.2 860.161 1531.92C860.205 1531.64 860.186 1531.36 860.105 1531.09C859.19 1526.22 849.609 1518.17 843.8 1514.24C843.216 1513.85 842.797 1513.26 842.624 1512.58C842.451 1511.9 842.536 1511.18 842.863 1510.56C843.187 1509.93 843.73 1509.45 844.388 1509.2C845.047 1508.95 845.774 1508.95 846.43 1509.21C850.295 1510.72 854.548 1511.22 855.737 1510.63C853.016 1504.47 816.565 1485.06 791.067 1475C748.35 1458.17 671.308 1454.6 625.275 1452.45C610.113 1451.74 599.137 1451.24 593.58 1450.46C502.108 1437.49 360.968 1416.5 359.55 1416.3C359.123 1416.24 358.715 1416.08 358.359 1415.84C358.002 1415.6 357.705 1415.28 357.492 1414.9C357.277 1414.53 357.148 1414.11 357.117 1413.69C357.085 1413.26 357.151 1412.83 357.309 1412.43L432.018 1223.2L249.693 1150.16Z" fill="#313131"/>
<path d="M815.787 1542.73C815.377 1542.74 814.971 1542.65 814.598 1542.48C802.089 1536.81 780.296 1530.91 749.905 1524.96C749.535 1524.89 749.184 1524.75 748.87 1524.54C748.557 1524.33 748.287 1524.06 748.077 1523.75C747.866 1523.44 747.72 1523.09 747.645 1522.72C747.57 1522.35 747.569 1521.97 747.641 1521.6C747.713 1521.23 747.857 1520.88 748.065 1520.57C748.273 1520.25 748.541 1519.98 748.853 1519.77C749.165 1519.56 749.515 1519.42 749.884 1519.34C750.253 1519.27 750.633 1519.27 751.002 1519.34C781.851 1525.4 804.033 1531.41 816.976 1537.27C817.665 1537.59 818.2 1538.16 818.465 1538.87C818.731 1539.58 818.705 1540.37 818.394 1541.06C818.166 1541.56 817.798 1541.98 817.336 1542.28C816.874 1542.58 816.336 1542.73 815.787 1542.73Z" fill="#313131"/>
<path d="M835.614 1529.17C835.053 1529.16 834.506 1529 834.036 1528.69C819.218 1518.88 772.659 1504.47 758.275 1501.66C757.529 1501.52 756.871 1501.08 756.447 1500.45C756.022 1499.82 755.866 1499.05 756.011 1498.3C756.157 1497.55 756.593 1496.9 757.223 1496.47C757.853 1496.05 758.627 1495.89 759.373 1496.04C774.511 1499.01 821.55 1513.58 837.123 1523.93C837.757 1524.35 838.2 1525 838.354 1525.74C838.508 1526.48 838.362 1527.26 837.947 1527.89C837.689 1528.28 837.343 1528.59 836.937 1528.82C836.531 1529.04 836.077 1529.16 835.614 1529.17Z" fill="#313131"/>
<path d="M845.241 1514.65C844.591 1514.65 843.96 1514.42 843.458 1514.01C832.161 1504.86 788.575 1488.49 766.462 1483.87C765.77 1483.67 765.179 1483.22 764.808 1482.6C764.437 1481.98 764.312 1481.25 764.46 1480.54C764.607 1479.84 765.015 1479.21 765.603 1478.8C766.19 1478.38 766.913 1478.2 767.628 1478.29C790.61 1483.07 834.905 1499.74 847.048 1509.57C847.506 1509.95 847.838 1510.45 847.997 1511.02C848.157 1511.59 848.136 1512.19 847.938 1512.75C847.74 1513.31 847.374 1513.79 846.892 1514.13C846.409 1514.47 845.832 1514.65 845.241 1514.65Z" fill="#313131"/>
<path d="M359.847 1416.25H359.481C343.977 1414.24 320.972 1413.03 320.743 1413.03C319.985 1412.99 319.273 1412.65 318.765 1412.08C318.257 1411.52 317.994 1410.78 318.033 1410.02C318.073 1409.26 318.412 1408.55 318.975 1408.04C319.539 1407.53 320.282 1407.27 321.04 1407.31C321.269 1407.31 344.48 1408.54 360.213 1410.58C360.934 1410.67 361.594 1411.03 362.057 1411.59C362.52 1412.16 362.751 1412.87 362.705 1413.6C362.658 1414.32 362.337 1415 361.806 1415.5C361.275 1416 360.574 1416.27 359.847 1416.27V1416.25Z" fill="#313131"/>
<path d="M982.631 979.907C1019.52 880.363 1069.53 855.392 1093.81 844.552C1129.49 828.545 1215.33 798.496 1221.03 805.677C1228.46 814.824 1161.87 848.554 1161.87 848.554C1161.87 848.554 1181.4 853.631 1179.75 872.062C1178.29 888.664 1158.58 901.539 1158.58 901.539C1158.58 901.539 1188.88 903.208 1182.08 916.014C1180.3 919.399 1141.86 930.238 1117.48 946.566C1092.49 963.282 1078.9 1033.46 1073.42 1082.63C1051.12 1282.43 1012.34 1425.46 900.192 1431.46C815.832 1436.03 763.465 1313.69 763.465 1313.69L750.453 1203.92L872.796 1118.03L909.385 1226.77C909.385 1226.77 951.53 1068.47 982.631 979.907Z" fill="white"/>
<path d="M895.551 1434.34C813.044 1434.34 762.917 1319.7 760.836 1314.74C760.722 1314.49 760.653 1314.22 760.63 1313.94L747.619 1204.17C747.56 1203.66 747.639 1203.15 747.848 1202.67C748.057 1202.2 748.388 1201.8 748.808 1201.5L871.174 1115.58C871.537 1115.34 871.953 1115.17 872.389 1115.11C872.825 1115.05 873.27 1115.08 873.689 1115.22C874.115 1115.35 874.502 1115.59 874.82 1115.9C875.138 1116.22 875.378 1116.6 875.519 1117.03L909.134 1216.8C918.602 1181.81 953.429 1054.44 980.025 978.972C1018.51 875.175 1072.43 851.095 1092.74 842.016C1111.31 833.715 1142.2 822.121 1167.88 813.775C1218.19 797.47 1221.67 801.792 1223.34 803.85C1223.88 804.518 1224.25 805.301 1224.43 806.139C1224.62 806.976 1224.6 807.844 1224.39 808.675C1222.1 819.4 1184.88 839.844 1168.82 848.214C1175.96 852.032 1183.82 859.647 1182.7 872.293C1181.65 884.185 1172.34 894.064 1166.03 899.46C1172.69 900.535 1181.9 902.959 1184.94 908.356C1185.71 909.735 1186.09 911.293 1186.05 912.869C1186.01 914.445 1185.55 915.982 1184.72 917.32C1183.57 919.607 1179.96 920.979 1167.63 925.804C1154.19 931.087 1133.86 939.068 1119.15 948.924C1091.23 967.607 1079.34 1056.22 1076.37 1082.93C1056.43 1261.57 1021.3 1427.8 900.422 1434.27C898.821 1434.29 897.129 1434.34 895.551 1434.34ZM766.187 1312.84C769.457 1320.21 820.887 1432.74 899.964 1428.51C1016.59 1422.24 1050.89 1258.37 1070.51 1082.22C1074.42 1047.19 1086.66 963.605 1115.81 944.099C1131.02 933.9 1151.72 925.804 1165.39 920.43C1170.27 918.705 1175.03 916.657 1179.64 914.302C1179.95 913.833 1180.13 913.287 1180.16 912.723C1180.19 912.159 1180.07 911.598 1179.8 911.1C1177.51 907.098 1165.92 904.72 1158.35 904.24C1157.74 904.208 1157.17 903.986 1156.7 903.604C1156.23 903.223 1155.89 902.703 1155.74 902.118C1155.58 901.533 1155.61 900.915 1155.83 900.351C1156.05 899.787 1156.44 899.307 1156.95 898.98C1157.14 898.866 1175.52 886.654 1176.85 871.676C1178.24 855.897 1161.78 851.346 1161.07 851.095C1160.51 850.941 1160.02 850.623 1159.64 850.183C1159.27 849.742 1159.03 849.2 1158.97 848.625C1158.91 848.051 1159.02 847.471 1159.3 846.961C1159.57 846.451 1159.99 846.035 1160.5 845.767C1191.83 829.942 1218.1 812.563 1218.67 807.349C1209.53 804.467 1135.14 829.05 1094.91 847.024C1075.22 855.829 1022.9 879.2 985.147 980.733C954.458 1068.18 912.473 1225.62 911.97 1227.2C911.818 1227.8 911.474 1228.34 910.992 1228.73C910.509 1229.11 909.914 1229.34 909.295 1229.36C908.675 1229.38 908.066 1229.2 907.559 1228.84C907.052 1228.49 906.674 1227.97 906.482 1227.39L871.059 1122.19L753.244 1204.91L766.187 1312.84Z" fill="#313131"/>
<path d="M1124.05 909.955C1120.51 910.155 1116.98 909.363 1113.87 907.668C1112.64 906.893 1111.59 905.874 1110.77 904.674C1109.95 903.474 1109.39 902.119 1109.11 900.693C1105.13 882.239 1145.38 854.18 1160.52 846.039C1161.18 845.728 1161.94 845.682 1162.63 845.912C1163.33 846.142 1163.91 846.63 1164.25 847.275C1164.6 847.92 1164.69 848.673 1164.49 849.379C1164.3 850.085 1163.84 850.69 1163.22 851.07C1145.29 860.72 1111.9 886.561 1114.69 899.504C1114.82 900.189 1115.09 900.84 1115.48 901.415C1115.88 901.989 1116.39 902.476 1116.98 902.843C1122.17 906.136 1134.89 903.186 1144.17 901.036C1150.53 899.55 1155.6 898.383 1158.9 898.749C1159.27 898.785 1159.63 898.895 1159.97 899.071C1160.3 899.247 1160.59 899.487 1160.83 899.777C1161.07 900.067 1161.25 900.401 1161.36 900.76C1161.47 901.12 1161.5 901.497 1161.47 901.871C1161.43 902.245 1161.32 902.608 1161.15 902.939C1160.97 903.271 1160.73 903.565 1160.44 903.804C1160.15 904.043 1159.82 904.222 1159.46 904.332C1159.1 904.442 1158.72 904.479 1158.35 904.443C1153.98 904.726 1149.65 905.493 1145.45 906.73C1138.45 908.562 1131.27 909.643 1124.05 909.955Z" fill="#313131"/>
<path d="M1136.65 908.4C1136.02 908.405 1135.4 908.202 1134.9 907.822C1134.39 907.442 1134.03 906.907 1133.86 906.299C1133.7 905.691 1133.74 905.045 1133.97 904.461C1134.21 903.878 1134.64 903.389 1135.18 903.072C1159.24 888.894 1160.34 875.31 1159.01 868.473C1157.68 862.047 1153.43 858.251 1151.56 858.022C1151.17 857.991 1150.8 857.882 1150.46 857.704C1150.12 857.525 1149.82 857.279 1149.57 856.981C1149.33 856.683 1149.15 856.338 1149.04 855.969C1148.93 855.599 1148.9 855.212 1148.95 854.83C1149 854.448 1149.12 854.079 1149.31 853.745C1149.5 853.412 1149.76 853.121 1150.07 852.889C1150.38 852.658 1150.73 852.491 1151.1 852.398C1151.47 852.306 1151.86 852.29 1152.24 852.351C1156.82 852.922 1162.81 858.662 1164.61 867.306C1166.42 875.95 1165.21 892.004 1138.09 907.988C1137.65 908.253 1137.15 908.396 1136.65 908.4Z" fill="#313131"/>
<path d="M900.192 1265.07C899.95 1265.1 899.703 1265.1 899.461 1265.07C899.098 1264.98 898.757 1264.81 898.458 1264.59C898.159 1264.36 897.908 1264.08 897.719 1263.76C897.529 1263.43 897.406 1263.07 897.356 1262.7C897.305 1262.33 897.329 1261.96 897.426 1261.59L906.687 1225.97C906.878 1225.23 907.353 1224.6 908.007 1224.22C908.661 1223.84 909.44 1223.73 910.174 1223.92C910.908 1224.11 911.536 1224.58 911.92 1225.24C912.304 1225.89 912.412 1226.67 912.221 1227.41L902.959 1263.03C902.778 1263.63 902.411 1264.14 901.912 1264.51C901.414 1264.88 900.811 1265.07 900.192 1265.07Z" fill="#313131"/>
<path d="M914.027 1130.38C913.203 1130.06 892.691 1121.73 877.438 1131.36C862.94 1140.51 862.803 1157.93 850.911 1172.11C839.02 1186.29 811.693 1178.22 791.066 1188.51C770.439 1198.8 753.769 1231.18 753.769 1231.18L788.574 1470.95C730.169 1449.73 615.601 1450.62 593.899 1447.53C506.681 1435.18 376.266 1415.82 361.333 1413.57L360.144 1413.41L423.168 1253.64H422.87C419.943 1254.16 395.429 1258.42 381.091 1254.85C362.133 1250.09 353.329 1214.69 338.008 1208.22C314.134 1198.16 293.736 1218.03 267.758 1211.06C251.27 1206.62 248.366 1190.09 226.298 1181.33C224.474 1180.6 222.57 1180.1 220.627 1179.82L219.346 1179.66C196.936 1177.37 167.436 1199.35 166.567 1199.99C167.939 1197.7 277.019 1023.4 312.922 996.464C348.824 969.526 506.041 938.471 506.041 938.471L643.774 1068.45L628.544 938.105C628.544 938.105 736.938 955.348 758.891 965.547C780.844 975.746 912.197 1128.23 914.027 1130.38Z" fill="white"/>
<path d="M788.505 1473.74C788.17 1473.73 787.837 1473.67 787.522 1473.56C744.187 1457.82 669.684 1454.37 625.16 1452.31C609.976 1451.6 598.976 1451.1 593.419 1450.3C501.056 1437.22 362.157 1416.55 360.807 1416.34L359.573 1416.18C359.151 1416.11 358.752 1415.94 358.402 1415.7C358.053 1415.45 357.764 1415.13 357.556 1414.76C357.347 1414.38 357.225 1413.97 357.198 1413.54C357.171 1413.12 357.24 1412.69 357.4 1412.29L418.595 1257.27C409.722 1258.6 392.045 1260.56 380.359 1257.66C368.674 1254.76 361.425 1242.77 354.084 1231.06C348.413 1221.92 343.062 1213.5 336.91 1210.92C325.339 1206.02 314.431 1208.77 302.906 1211.67C291.724 1214.49 280.152 1217.39 267.003 1213.96C258.222 1211.67 253.008 1206.14 247.497 1200.38C241.986 1194.61 236.063 1188.35 225.247 1184.05C223.613 1183.42 221.92 1182.97 220.193 1182.7L219.118 1182.58C197.965 1180.3 169.495 1201.45 168.283 1202.34C167.749 1202.74 167.094 1202.94 166.429 1202.91C165.765 1202.87 165.133 1202.61 164.642 1202.16C164.152 1201.71 163.834 1201.1 163.743 1200.44C163.652 1199.78 163.793 1199.11 164.144 1198.55C165.241 1196.79 274.435 1021.85 311.138 994.29C347.338 967.146 498.975 937.121 505.515 935.771C505.959 935.688 506.416 935.711 506.85 935.838C507.283 935.965 507.68 936.193 508.008 936.503L640.047 1061.09L625.709 938.424C625.677 938.003 625.738 937.579 625.889 937.184C626.039 936.789 626.274 936.431 626.578 936.137C626.892 935.826 627.276 935.594 627.697 935.459C628.118 935.324 628.565 935.29 629.002 935.36C633.438 936.069 738.059 952.808 760.126 963.144C782.994 973.869 914.965 1127.15 916.291 1128.71C916.739 1129.19 917.008 1129.81 917.052 1130.46C917.097 1131.12 916.915 1131.77 916.537 1132.3C916.159 1132.84 915.607 1133.23 914.975 1133.41C914.343 1133.59 913.669 1133.54 913.067 1133.28C911.008 1132.48 892.485 1125.57 879.016 1134.04C871.378 1138.84 868.108 1146.18 864.335 1154.62C861.535 1161.57 857.746 1168.07 853.084 1173.94C845.721 1182.72 833.669 1183.8 820.886 1184.94C811.122 1185.81 801.037 1186.72 792.324 1191.07C774.533 1199.99 759.394 1226.74 756.719 1231.7L791.341 1470.54C791.407 1471.03 791.348 1471.52 791.168 1471.99C790.987 1472.45 790.693 1472.85 790.312 1473.17C789.789 1473.55 789.154 1473.75 788.505 1473.74ZM364.055 1411.1C383.081 1413.94 508.648 1432.58 594.243 1444.72C599.548 1445.45 610.982 1446 625.457 1446.66C668.906 1448.67 740.391 1451.99 785.006 1466.69L750.865 1231.59C750.792 1231 750.895 1230.4 751.162 1229.88C751.848 1228.53 768.519 1196.56 789.717 1185.95C799.39 1181.12 810.047 1180.16 820.337 1179.25C832.389 1178.17 842.816 1177.23 848.648 1170.28C852.938 1164.74 856.419 1158.62 858.984 1152.1C862.963 1143.11 866.736 1134.65 875.838 1128.94C885.785 1122.69 897.448 1123.31 905.566 1124.96C873.871 1088.37 775.219 976.453 757.588 968.129C738.516 959.188 650.932 944.576 631.815 941.443L646.61 1068.13C646.682 1068.71 646.571 1069.31 646.294 1069.83C646.017 1070.34 645.586 1070.77 645.061 1071.03C644.536 1071.3 643.941 1071.39 643.359 1071.31C642.777 1071.22 642.235 1070.96 641.808 1070.55L505.149 941.58C489.279 944.781 347.979 973.778 314.637 998.75C284.543 1021.3 201.007 1150.98 176.195 1190.18C187.377 1183.52 204.803 1175.15 219.644 1176.75L220.787 1176.89H221.062C223.214 1177.22 225.323 1177.79 227.35 1178.58C239.242 1183.34 245.805 1190.22 251.613 1196.26C256.781 1201.66 261.218 1206.32 268.467 1208.26C280.175 1211.42 291.015 1208.7 301.488 1205.98C313.425 1202.96 325.774 1199.85 339.106 1205.48C346.927 1208.79 352.827 1218.05 358.909 1227.86C365.633 1238.56 372.63 1249.66 381.777 1251.94C395.498 1255.35 419.646 1251.19 422.368 1250.71C422.888 1250.6 423.427 1250.63 423.931 1250.8C424.436 1250.96 424.89 1251.25 425.249 1251.65C425.592 1252.03 425.826 1252.5 425.926 1253.01C426.027 1253.51 425.99 1254.04 425.821 1254.53L364.055 1411.1Z" fill="#313131"/>
<path d="M422.87 1256.49C422.502 1256.49 422.138 1256.42 421.795 1256.29C421.447 1256.15 421.13 1255.94 420.863 1255.68C420.595 1255.42 420.381 1255.11 420.235 1254.77C420.088 1254.42 420.011 1254.05 420.008 1253.68C420.005 1253.3 420.076 1252.93 420.217 1252.58L444.457 1192.46C444.747 1191.76 445.299 1191.2 445.995 1190.91C446.692 1190.61 447.477 1190.59 448.185 1190.86C448.533 1191 448.851 1191.21 449.119 1191.48C449.387 1191.74 449.601 1192.05 449.747 1192.4C449.894 1192.75 449.97 1193.12 449.973 1193.49C449.976 1193.87 449.904 1194.24 449.763 1194.59L425.454 1254.76C425.238 1255.27 424.878 1255.7 424.419 1256.01C423.961 1256.32 423.423 1256.49 422.87 1256.49Z" fill="#313131"/>
<path d="M753.7 1234.04C753.013 1234.04 752.35 1233.79 751.83 1233.34C751.31 1232.89 750.967 1232.27 750.864 1231.59L743.866 1182.5C743.812 1182.12 743.831 1181.75 743.923 1181.38C744.016 1181.02 744.18 1180.68 744.405 1180.38C744.63 1180.08 744.913 1179.83 745.237 1179.64C745.561 1179.45 745.919 1179.32 746.29 1179.27C746.662 1179.21 747.043 1179.22 747.409 1179.31C747.775 1179.4 748.119 1179.57 748.421 1179.79C748.722 1180.02 748.974 1180.31 749.162 1180.63C749.35 1180.96 749.47 1181.32 749.515 1181.7L756.535 1230.79C756.634 1231.54 756.435 1232.3 755.982 1232.9C755.528 1233.5 754.857 1233.9 754.111 1234.02L753.7 1234.04Z" fill="#313131"/>
<path d="M231.946 1183.94C224.973 1180.12 216.921 1178.75 209.078 1180.05C189.366 1183.27 166.59 1199.97 166.59 1199.97C166.59 1199.97 168.877 1220.05 214.818 1229.4L231.946 1183.94Z" fill="#313131"/>
<path d="M214.797 1232.25C214.607 1232.28 214.415 1232.28 214.225 1232.25C166.911 1222.6 163.916 1201.27 163.733 1200.38C163.675 1199.87 163.75 1199.36 163.951 1198.9C164.152 1198.43 164.471 1198.03 164.876 1197.72C165.836 1197.04 188.453 1180.57 208.599 1177.28C217.14 1175.86 225.91 1177.38 233.48 1181.58C234.033 1181.93 234.448 1182.47 234.656 1183.09C234.864 1183.72 234.853 1184.39 234.623 1185.01L217.472 1230.47C217.256 1231 216.886 1231.46 216.409 1231.77C215.932 1232.09 215.37 1232.26 214.797 1232.25ZM169.884 1201.13C171.645 1205.57 179.557 1218.74 212.99 1226.1L228.38 1185.33C222.46 1182.71 215.909 1181.85 209.514 1182.86C193.644 1185.47 175.349 1197.38 169.884 1201.13Z" fill="#313131"/>
<path d="M877.37 1131.36C883.892 1127.45 891.559 1125.88 899.095 1126.93C912.381 1128.46 914.027 1130.38 914.027 1130.38C914.027 1130.38 910.277 1155.37 889.879 1168.52L877.37 1131.36Z" fill="#313131"/>
<path d="M889.879 1171.38C889.56 1171.37 889.244 1171.32 888.941 1171.22C888.53 1171.07 888.156 1170.84 887.848 1170.53C887.539 1170.22 887.303 1169.85 887.158 1169.44L874.649 1132.25C874.45 1131.67 874.448 1131.04 874.642 1130.45C874.836 1129.86 875.216 1129.36 875.724 1129.01C882.828 1124.69 891.203 1122.95 899.438 1124.09C906.001 1124.84 914.233 1126.22 916.2 1128.5C916.467 1128.81 916.664 1129.18 916.779 1129.57C916.893 1129.97 916.922 1130.38 916.863 1130.79C916.703 1131.86 912.655 1157.22 891.434 1170.92C890.969 1171.22 890.43 1171.38 889.879 1171.38ZM880.732 1132.66L891.274 1163.97C904.675 1153.61 909.408 1137.6 910.689 1131.96C906.767 1130.82 902.748 1130.05 898.683 1129.67C892.566 1128.95 886.372 1129.99 880.823 1132.66H880.732Z" fill="#313131"/>
<path d="M439.062 1213.44L381.412 1416.57L359.848 1413.39L439.062 1213.44Z" fill="#313131"/>
<path d="M747.459 1187.48L789.079 1360.57L766.668 1320.46L747.459 1187.48Z" fill="#313131"/>
<path d="M1338.62 1098.48L1438.41 1076.27L1446.19 1081.33L1338.62 1098.48Z" fill="#313131"/>
<path d="M1521.4 1130.17L1438.41 1076.27L1427.55 1078.7L1521.4 1130.17Z" fill="#313131"/>
<path d="M1130.88 1552.7C1108.01 1552.7 1089.29 1528.12 1089.29 1497.82C1089.29 1467.52 1107.95 1442.94 1130.88 1442.94C1153.82 1442.94 1172.48 1467.52 1172.48 1497.82C1172.48 1528.12 1153.82 1552.7 1130.88 1552.7ZM1130.88 1459.1C1117.02 1459.1 1105.29 1476.87 1105.29 1497.98C1105.29 1519.09 1117.02 1536.85 1130.88 1536.85C1144.74 1536.85 1156.47 1519.09 1156.47 1497.98C1156.47 1476.87 1144.76 1459.1 1130.88 1459.1Z" fill="#FFA620"/>
<path d="M1130.88 1555.56C1106.37 1555.56 1086.43 1529.7 1086.43 1497.91C1086.43 1466.12 1106.37 1440.24 1130.88 1440.24C1155.4 1440.24 1175.34 1466.1 1175.34 1497.91C1175.34 1529.72 1155.4 1555.56 1130.88 1555.56ZM1130.88 1445.96C1109.52 1445.96 1092.14 1469.26 1092.14 1497.91C1092.14 1526.56 1109.52 1549.84 1130.88 1549.84C1152.24 1549.84 1169.62 1526.54 1169.62 1497.91C1169.62 1469.28 1152.24 1445.96 1130.88 1445.96ZM1130.88 1539.55C1115.47 1539.55 1102.44 1520.48 1102.44 1497.91C1102.44 1475.34 1115.47 1456.25 1130.88 1456.25C1146.3 1456.25 1159.33 1475.32 1159.33 1497.91C1159.33 1520.5 1146.3 1539.55 1130.88 1539.55ZM1130.88 1461.96C1118.79 1461.96 1108.15 1478.75 1108.15 1497.91C1108.15 1517.07 1118.79 1533.84 1130.88 1533.84C1142.98 1533.84 1153.61 1517.05 1153.61 1497.91C1153.61 1478.77 1143 1461.96 1130.88 1461.96Z" fill="#313131"/>
<path d="M1130.88 1431.55H1018.56V1564.25H1130.88V1431.55Z" fill="#FFA620"/>
<path d="M1130.88 1567.11H1018.56C1017.8 1567.11 1017.07 1566.81 1016.54 1566.27C1016 1565.74 1015.7 1565.01 1015.7 1564.25V1431.62C1015.7 1430.86 1016 1430.13 1016.54 1429.6C1017.07 1429.06 1017.8 1428.76 1018.56 1428.76H1130.88C1131.64 1428.76 1132.37 1429.06 1132.91 1429.6C1133.44 1430.13 1133.74 1430.86 1133.74 1431.62V1564.25C1133.74 1565.01 1133.44 1565.74 1132.91 1566.27C1132.37 1566.81 1131.64 1567.11 1130.88 1567.11ZM1021.42 1561.39H1128.03V1434.41H1021.42V1561.39Z" fill="#313131"/>
<path d="M1082.43 1464.14C1082.05 1464.14 1081.68 1464.07 1081.33 1463.93C1080.98 1463.78 1080.66 1463.57 1080.4 1463.31C1080.13 1463.04 1079.92 1462.72 1079.78 1462.38C1079.64 1462.03 1079.56 1461.65 1079.57 1461.28V1431.55C1079.57 1430.79 1079.87 1430.06 1080.4 1429.53C1080.94 1428.99 1081.67 1428.69 1082.43 1428.69C1083.18 1428.69 1083.91 1428.99 1084.45 1429.53C1084.98 1430.06 1085.28 1430.79 1085.28 1431.55V1461.28C1085.29 1461.65 1085.22 1462.03 1085.07 1462.38C1084.93 1462.72 1084.72 1463.04 1084.45 1463.31C1084.19 1463.57 1083.87 1463.78 1083.52 1463.93C1083.18 1464.07 1082.8 1464.14 1082.43 1464.14Z" fill="#313131"/>
<path d="M1098.11 1517.46H1066.74V1474.5L1082.43 1461.28L1098.11 1474.5V1517.46Z" fill="#21A2FF"/>
<path d="M1098.11 1520.32H1066.74C1065.98 1520.32 1065.25 1520.02 1064.72 1519.48C1064.18 1518.95 1063.88 1518.22 1063.88 1517.46V1474.49C1063.86 1474.06 1063.94 1473.63 1064.12 1473.23C1064.29 1472.84 1064.55 1472.49 1064.89 1472.21L1080.6 1458.99C1081.11 1458.56 1081.76 1458.32 1082.44 1458.32C1083.11 1458.32 1083.76 1458.56 1084.28 1458.99L1099.97 1472.21C1100.3 1472.49 1100.56 1472.84 1100.74 1473.23C1100.91 1473.63 1100.99 1474.06 1100.97 1474.49V1517.46C1100.97 1518.22 1100.67 1518.95 1100.13 1519.48C1099.6 1520.02 1098.87 1520.32 1098.11 1520.32ZM1069.6 1514.6H1095.25V1475.73L1082.43 1464.91L1069.6 1475.73V1514.6Z" fill="#313131"/>
<path d="M1047.23 1423.27C1046.7 1423.27 1046.18 1423.12 1045.73 1422.84C1045.28 1422.57 1044.91 1422.17 1044.68 1421.69C1044.44 1421.22 1044.34 1420.68 1044.39 1420.16C1044.43 1419.63 1044.63 1419.12 1044.95 1418.7C1049.15 1412.59 1046.85 1410.6 1040.76 1406.3C1036.6 1403.35 1031.41 1399.69 1031.41 1393.27C1031.41 1384.78 1037.35 1381.65 1042.16 1379.14C1046.59 1376.85 1050.41 1374.77 1051.08 1369.12C1052.38 1357.69 1033.99 1354.46 1033.79 1354.44C1033.42 1354.38 1033.06 1354.24 1032.74 1354.04C1032.42 1353.85 1032.15 1353.59 1031.93 1353.28C1031.71 1352.97 1031.55 1352.63 1031.47 1352.26C1031.38 1351.9 1031.37 1351.52 1031.43 1351.15C1031.49 1350.78 1031.63 1350.42 1031.83 1350.1C1032.03 1349.78 1032.29 1349.51 1032.59 1349.29C1032.9 1349.07 1033.24 1348.91 1033.61 1348.83C1033.97 1348.74 1034.35 1348.73 1034.73 1348.79C1035.71 1348.95 1058.69 1352.95 1056.75 1369.78C1055.74 1378.43 1049.68 1381.63 1044.81 1384.19C1039.94 1386.75 1037.13 1388.47 1037.13 1393.34C1037.13 1396.56 1039.76 1398.67 1043.99 1401.71C1049.22 1405.41 1057.14 1410.99 1049.57 1422.01C1049.31 1422.4 1048.96 1422.71 1048.55 1422.93C1048.15 1423.15 1047.7 1423.27 1047.23 1423.27Z" fill="#313131"/>
<path d="M1076 1423.27C1075.52 1423.27 1075.05 1423.15 1074.63 1422.93C1073.97 1422.56 1073.47 1421.95 1073.26 1421.22C1073.04 1420.49 1073.13 1419.71 1073.49 1419.04C1078.38 1409.89 1074.72 1406.76 1069.21 1401.8C1064.93 1397.98 1060.06 1393.66 1060.06 1386.09C1060.06 1376 1065.62 1372.37 1070.54 1369C1075.11 1365.96 1079 1363.33 1079.68 1355.63C1081.1 1340.19 1063.08 1336.23 1062.3 1336.07C1061.56 1335.92 1060.91 1335.48 1060.49 1334.84C1060.08 1334.21 1059.93 1333.43 1060.09 1332.69C1060.24 1331.95 1060.68 1331.3 1061.32 1330.88C1061.95 1330.46 1062.73 1330.32 1063.47 1330.47C1071.7 1332.19 1086.86 1339.78 1085.38 1356.15C1084.44 1366.58 1078.52 1370.56 1073.69 1373.76C1068.87 1376.96 1065.76 1379.07 1065.76 1386.09C1065.76 1391.09 1069.1 1394.09 1072.96 1397.52C1078.54 1402.53 1085.47 1408.75 1078.45 1421.74C1078.21 1422.19 1077.86 1422.56 1077.43 1422.83C1077 1423.1 1076.51 1423.25 1076 1423.27Z" fill="#313131"/>
<path d="M1104.77 1423.27C1104.24 1423.27 1103.72 1423.12 1103.26 1422.84C1102.81 1422.57 1102.45 1422.17 1102.21 1421.69C1101.97 1421.22 1101.87 1420.68 1101.92 1420.16C1101.97 1419.63 1102.16 1419.12 1102.48 1418.7C1106.67 1412.59 1104.38 1410.6 1098.3 1406.3C1094.13 1403.35 1088.94 1399.69 1088.94 1393.27C1088.94 1384.78 1094.89 1381.65 1099.67 1379.14C1104.45 1376.62 1107.95 1374.77 1108.59 1369.12C1109.91 1357.69 1091.5 1354.46 1091.32 1354.44C1090.57 1354.31 1089.9 1353.9 1089.46 1353.28C1089.02 1352.66 1088.84 1351.9 1088.97 1351.15C1089.09 1350.4 1089.51 1349.73 1090.12 1349.29C1090.74 1348.84 1091.51 1348.67 1092.26 1348.79C1093.24 1348.95 1116.2 1352.95 1114.28 1369.78C1113.27 1378.43 1107.21 1381.63 1102.34 1384.19C1097.47 1386.75 1094.66 1388.47 1094.66 1393.34C1094.66 1396.56 1097.27 1398.67 1101.52 1401.71C1106.76 1405.41 1114.67 1410.99 1107.12 1422.01C1106.86 1422.4 1106.51 1422.71 1106.1 1422.93C1105.69 1423.15 1105.23 1423.27 1104.77 1423.27Z" fill="#313131"/>
</svg>
