<svg width="2000" height="2000" viewBox="0 0 2000 2000" fill="none" xmlns="http://www.w3.org/2000/svg">
<path d="M1893.66 1502.72H105.749C105.02 1502.72 104.321 1502.43 103.805 1501.91C103.29 1501.4 103 1500.7 103 1499.97C103 1499.24 103.29 1498.54 103.805 1498.02C104.321 1497.51 105.02 1497.22 105.749 1497.22H1893.66C1894.39 1497.22 1895.09 1497.51 1895.61 1498.02C1896.12 1498.54 1896.41 1499.24 1896.41 1499.97C1896.41 1500.7 1896.12 1501.4 1895.61 1501.91C1895.09 1502.43 1894.39 1502.72 1893.66 1502.72Z" fill="#313131"/>
<path d="M940.056 1329.7C946.94 1369.62 946.192 1403.08 938.384 1404.49C930.576 1405.89 918.588 1374.57 911.792 1334.65C904.995 1294.73 904.071 1261.56 911.792 1260.22C919.512 1258.88 933.171 1289.74 940.056 1329.7Z" fill="#313131"/>
<path d="M995.176 882.447C1035.67 881.282 1068.66 886.847 1068.9 894.677C1069.15 902.507 1036.48 909.964 995.99 911.107C955.496 912.251 922.591 908.402 922.371 900.418C922.151 892.433 954.726 883.591 995.176 882.447Z" fill="#313131"/>
<path d="M937.988 1407.21C925.032 1407.21 913.507 1360.39 909.152 1335.05C905.982 1317.84 904.144 1300.41 903.653 1282.92C903.543 1266.47 906.028 1258.37 911.483 1257.45C916.938 1256.52 922.767 1263.56 928.926 1278.41C935.335 1294.84 939.973 1311.91 942.761 1329.33C945.937 1346.6 947.512 1364.12 947.468 1381.68C947.116 1397.93 944.278 1406.29 938.845 1407.21C938.56 1407.24 938.273 1407.24 937.988 1407.21ZM912.495 1262.86C912.495 1262.86 909.086 1264.6 909.218 1282.87C909.7 1300.07 911.509 1317.21 914.629 1334.12C922.393 1379.13 934.116 1402.31 938.032 1401.72C938.801 1401.58 941.749 1397.76 942.101 1381.48C942.143 1364.28 940.596 1347.11 937.482 1330.19C934.743 1313.19 930.193 1296.54 923.911 1280.52C917.642 1265.67 913.375 1262.86 912.429 1262.86H912.495Z" fill="#313131"/>
<path d="M982.485 914.057C958.488 914.057 919.952 912.231 919.622 900.574C919.468 895.053 927.277 890.258 942.849 886.255C959.994 882.211 977.52 879.999 995.132 879.656C1012.68 878.965 1030.26 879.885 1047.64 882.405C1063.67 885.067 1071.52 889.004 1071.7 894.569C1072.07 908.074 1022.43 913.067 996.122 913.815C992.779 913.969 988.028 914.057 982.485 914.057ZM995.308 885.199C978.097 885.514 960.968 887.667 944.213 891.622C928.267 895.691 925.099 899.606 925.121 900.42C925.121 903.807 946.699 909.812 995.968 908.382C1041.61 907.084 1066.35 898.726 1066.2 894.789C1066.2 894.019 1062.79 890.566 1046.73 887.904C1029.71 885.441 1012.5 884.543 995.308 885.221V885.199Z" fill="#313131"/>
<path d="M1332.32 728.15C1332.32 728.15 1236.86 843.933 1221.9 843.933C1215.72 843.933 1232.62 794.884 1232.62 794.884L1155.1 660.514L1246.58 598.289L1332.32 728.15Z" fill="white"/>
<path d="M1221.9 846.683C1221.3 846.679 1220.71 846.531 1220.18 846.252C1219.65 845.973 1219.19 845.57 1218.85 845.077C1215.15 839.909 1223.8 812.084 1229.6 795.17L1152.62 661.9C1152.28 661.297 1152.17 660.588 1152.33 659.912C1152.48 659.236 1152.88 658.643 1153.45 658.249L1244.96 596.024C1245.25 595.815 1245.59 595.668 1245.95 595.592C1246.3 595.517 1246.67 595.514 1247.03 595.583C1247.39 595.653 1247.72 595.795 1248.03 595.999C1248.33 596.203 1248.58 596.466 1248.78 596.772L1334.56 726.544C1334.89 727.036 1335.05 727.619 1335.02 728.208C1335 728.798 1334.78 729.363 1334.41 729.822C1318.35 749.398 1237.37 846.683 1221.9 846.683ZM1158.76 661.372L1234.93 793.52C1235.11 793.851 1235.23 794.218 1235.27 794.597C1235.31 794.976 1235.26 795.358 1235.15 795.72C1228.96 813.668 1223.03 834.806 1223.18 840.788C1234.79 836.191 1284.61 781.401 1328.76 727.908L1245.92 602.139L1158.76 661.372Z" fill="#313131"/>
<path d="M1169.89 660.316C1169.89 660.316 1199.23 651.672 1257.01 624.09L1214.84 608.363L1142.55 648.197L1169.89 660.316Z" fill="#313131"/>
<path d="M1064.2 553.573C1073.24 580.892 1070.33 616.942 1072.75 618.482C1076.19 620.681 1084.21 615.072 1085.42 617.976C1086.63 620.879 1114.02 683.544 1166.81 658.711C1219.6 633.878 1227.05 581.332 1227.05 581.332L1145.98 477.271L1064.2 553.573Z" fill="white"/>
<path d="M1142.83 667.267C1136.81 667.264 1130.85 666.146 1125.23 663.967C1099.68 654.135 1085.64 625.432 1083.29 619.977C1082.56 620.109 1081.44 620.439 1080.65 620.681C1077.57 621.582 1074.05 622.594 1071.32 620.879C1069.12 619.559 1069.12 616.809 1068.75 606.559C1068.27 594 1067.47 572.973 1061.58 554.474C1061.43 553.975 1061.42 553.444 1061.55 552.939C1061.68 552.434 1061.95 551.976 1062.33 551.615L1144.13 475.335C1144.42 475.061 1144.77 474.855 1145.15 474.729C1145.53 474.604 1145.93 474.563 1146.33 474.609C1146.71 474.634 1147.07 474.739 1147.41 474.917C1147.74 475.096 1148.03 475.343 1148.26 475.643L1229.36 579.703C1229.81 580.293 1230.01 581.036 1229.91 581.771C1229.91 582.321 1221.6 636.099 1168.1 661.262C1160.23 665.121 1151.6 667.172 1142.83 667.267ZM1083.86 614.478C1084.72 614.398 1085.59 614.599 1086.32 615.051C1087.06 615.503 1087.63 616.181 1087.95 616.985C1088.08 617.315 1101.63 649.077 1127.19 658.909C1139.2 663.528 1152.16 662.648 1165.66 656.291C1212.29 634.296 1222.7 589.733 1224.15 582.123L1145.67 481.406L1067.32 554.409C1072.95 573.193 1073.74 593.824 1074.2 606.296C1074.36 610.321 1074.53 614.456 1074.82 616.259C1076.27 616.087 1077.7 615.778 1079.09 615.336C1080.63 614.831 1082.24 614.542 1083.86 614.478Z" fill="#313131"/>
<path d="M1100.75 580.76C1100.33 580.761 1099.91 580.664 1099.53 580.478C1099.15 580.291 1098.81 580.019 1098.55 579.682C1096.89 577.536 1094.72 575.829 1092.24 574.712C1091.04 574.248 1089.76 574.028 1088.47 574.061C1087.18 574.095 1085.92 574.384 1084.74 574.91C1084.1 575.253 1083.36 575.335 1082.66 575.138C1081.96 574.941 1081.37 574.481 1081 573.854C1080.64 573.226 1080.55 572.483 1080.74 571.786C1080.93 571.089 1081.39 570.496 1082.01 570.137C1083.86 569.218 1085.88 568.689 1087.94 568.583C1090.01 568.477 1092.07 568.796 1094 569.521C1097.51 570.979 1100.58 573.321 1102.91 576.317C1103.36 576.896 1103.55 577.627 1103.46 578.352C1103.37 579.077 1103 579.737 1102.43 580.188C1101.94 580.551 1101.36 580.751 1100.75 580.76Z" fill="#313131"/>
<path d="M1090.83 591.693C1092.42 591.693 1093.71 590.402 1093.71 588.811C1093.71 587.22 1092.42 585.93 1090.83 585.93C1089.24 585.93 1087.95 587.22 1087.95 588.811C1087.95 590.402 1089.24 591.693 1090.83 591.693Z" fill="#313131"/>
<path d="M1324.8 552.099L1214.14 669.599L1179.72 590.965L1178.66 589.689C1183.24 585.84 1185.63 577.768 1184.23 569.014C1182.44 557.532 1174.9 549.218 1167.38 550.362C1162.19 551.175 1158.38 556.3 1157.11 563.185L1156.14 561.997C1145.5 555.316 1133.8 550.489 1121.54 547.722C1100.27 543.323 1084.15 551.285 1052.39 557.4C1052.39 557.4 1038.04 469.155 1124.97 438.625C1221.99 404.62 1324.8 552.099 1324.8 552.099Z" fill="#313131"/>
<path d="M1214.14 672.349H1213.68C1213.23 672.269 1212.81 672.081 1212.46 671.801C1212.1 671.521 1211.82 671.158 1211.63 670.743L1177.34 592.484L1176.53 591.472C1176.07 590.914 1175.86 590.198 1175.93 589.481C1176 588.764 1176.35 588.104 1176.9 587.645C1180.86 584.323 1182.71 577.021 1181.52 569.498C1180.89 563.808 1178.1 558.575 1173.73 554.871C1172.06 553.543 1169.92 552.927 1167.8 553.156C1163.97 553.75 1160.91 557.819 1159.81 563.758C1159.72 564.274 1159.47 564.753 1159.12 565.136C1158.76 565.52 1158.29 565.792 1157.79 565.922C1157.28 566.052 1156.74 566.033 1156.24 565.867C1155.74 565.702 1155.3 565.397 1154.97 564.989L1154.29 564.154C1144.03 557.781 1132.77 553.164 1120.99 550.494C1106.56 547.547 1094.33 550.494 1077.42 554.651C1070.31 556.389 1062.26 558.369 1052.91 560.172C1052.56 560.242 1052.19 560.241 1051.83 560.168C1051.48 560.095 1051.14 559.952 1050.84 559.748C1050.54 559.543 1050.28 559.281 1050.08 558.976C1049.88 558.672 1049.75 558.33 1049.68 557.973C1049.53 557.071 1035.98 467.088 1124.11 436.162C1164.74 421.909 1212.78 437.306 1263.06 480.659C1286.91 501.553 1308.37 525.026 1327.04 550.648C1327.4 551.165 1327.58 551.789 1327.53 552.418C1327.49 553.046 1327.23 553.641 1326.8 554.102L1216.14 671.623C1215.87 671.87 1215.56 672.061 1215.21 672.186C1214.87 672.31 1214.5 672.366 1214.14 672.349ZM1182.27 589.954L1215 664.738L1321.24 551.924C1309.05 535.274 1214.03 410.384 1125.94 441.287C1050.78 467.682 1053.35 539.079 1054.78 554.19C1062.79 552.584 1069.83 550.868 1076.12 549.329C1093.72 544.93 1106.45 541.916 1122.09 545.105C1133.89 547.74 1145.19 552.248 1155.57 558.457C1157.77 552.496 1161.88 548.515 1166.94 547.723C1168.71 547.482 1170.5 547.597 1172.23 548.062C1173.95 548.527 1175.56 549.331 1176.97 550.428C1182.51 554.993 1186.09 561.513 1186.95 568.641C1188.27 576.955 1186.54 585.005 1182.27 589.954Z" fill="#313131"/>
<path d="M1185.08 600.27C1191.97 600.27 1197.56 594.686 1197.56 587.798C1197.56 580.911 1191.97 575.327 1185.08 575.327C1178.2 575.327 1172.61 580.911 1172.61 587.798C1172.61 594.686 1178.2 600.27 1185.08 600.27Z" fill="#FFA620"/>
<path d="M1185.11 603.019C1181.36 603.02 1177.74 601.636 1174.95 599.133C1172.16 596.629 1170.39 593.183 1169.99 589.456C1169.59 585.729 1170.57 581.985 1172.76 578.942C1174.95 575.9 1178.19 573.773 1181.85 572.972C1185.51 572.171 1189.34 572.752 1192.6 574.602C1195.86 576.453 1198.32 579.443 1199.51 582.998C1200.7 586.553 1200.54 590.422 1199.05 593.862C1197.56 597.302 1194.85 600.069 1191.44 601.633C1189.45 602.55 1187.29 603.023 1185.11 603.019ZM1185.11 578.076C1183.71 578.081 1182.33 578.381 1181.06 578.956C1179.31 579.756 1177.84 581.057 1176.83 582.694C1175.82 584.331 1175.32 586.23 1175.39 588.151C1175.46 590.073 1176.1 591.93 1177.23 593.488C1178.35 595.047 1179.92 596.236 1181.72 596.907C1183.52 597.577 1185.48 597.698 1187.35 597.254C1189.22 596.811 1190.92 595.822 1192.23 594.414C1193.54 593.006 1194.4 591.242 1194.7 589.344C1195.01 587.445 1194.75 585.499 1193.95 583.751C1192.87 581.411 1190.91 579.592 1188.49 578.692C1187.4 578.279 1186.25 578.071 1185.08 578.076H1185.11Z" fill="#313131"/>
<path d="M1169.27 572.16C1168.87 572.163 1168.48 572.078 1168.11 571.911C1167.75 571.745 1167.43 571.501 1167.17 571.197C1166.91 570.893 1166.73 570.536 1166.62 570.151C1166.52 569.767 1166.5 569.364 1166.56 568.971L1168.04 559.953C1168.1 559.596 1168.22 559.254 1168.41 558.947C1168.6 558.639 1168.85 558.372 1169.14 558.161C1169.44 557.949 1169.77 557.798 1170.12 557.714C1170.47 557.631 1170.84 557.618 1171.19 557.676C1171.55 557.734 1171.89 557.861 1172.2 558.051C1172.51 558.241 1172.77 558.49 1172.99 558.783C1173.2 559.076 1173.35 559.408 1173.43 559.759C1173.52 560.111 1173.53 560.476 1173.47 560.832L1172.66 565.715C1173.37 565.561 1174.12 565.696 1174.73 566.092C1175.35 566.488 1175.78 567.112 1175.93 567.827C1176.09 568.542 1175.95 569.288 1175.56 569.903C1175.16 570.517 1174.54 570.95 1173.82 571.104L1169.95 572.094C1169.73 572.139 1169.5 572.161 1169.27 572.16Z" fill="#313131"/>
<path d="M1111.25 637.221C1109.51 637.148 1107.85 636.506 1106.52 635.396C1104.41 633.632 1102.67 631.461 1101.42 629.012C1100.17 626.563 1099.43 623.886 1099.24 621.143C1099.05 619.853 1099.26 618.538 1099.82 617.364C1100.38 616.19 1101.28 615.209 1102.4 614.544C1106.23 612.609 1111.36 615.82 1114.61 622.199C1115.92 624.628 1116.67 627.318 1116.81 630.073C1117.01 631.362 1116.82 632.682 1116.26 633.859C1115.7 635.037 1114.79 636.017 1113.66 636.672C1112.91 637.048 1112.08 637.236 1111.25 637.221ZM1104.93 619.625C1104.53 622.027 1105.02 624.493 1106.32 626.554C1107.24 628.806 1108.94 630.65 1111.11 631.745C1111.49 629.341 1110.99 626.88 1109.71 624.816C1108.8 622.551 1107.1 620.691 1104.93 619.581V619.625Z" fill="#313131"/>
<path d="M684.624 1385.57V1542.16C684.624 1555.15 613.908 1565.67 526.653 1565.67C439.397 1565.67 368.66 1555.15 368.66 1542.16V1385.57H684.624Z" fill="#FFA620"/>
<path d="M526.675 1568.42C462.052 1568.42 365.933 1561.42 365.933 1542.16V1385.57C365.933 1384.84 366.222 1384.14 366.738 1383.63C367.254 1383.11 367.953 1382.82 368.682 1382.82H684.624C685.353 1382.82 686.052 1383.11 686.568 1383.63C687.083 1384.14 687.373 1384.84 687.373 1385.57V1542.16C687.373 1561.42 591.253 1568.42 526.675 1568.42ZM371.431 1388.32V1542.16C371.431 1542.16 371.937 1549.61 415.422 1556.06C445.138 1560.46 484.664 1562.92 526.741 1562.92C568.818 1562.92 608.322 1560.5 638.037 1556.06C681.456 1549.61 682.028 1542.24 682.028 1542.16V1388.32H371.431Z" fill="#313131"/>
<path d="M526.653 1404.66C613.898 1404.66 684.624 1396.11 684.624 1385.57C684.624 1375.02 613.898 1366.48 526.653 1366.48C439.408 1366.48 368.682 1375.02 368.682 1385.57C368.682 1396.11 439.408 1404.66 526.653 1404.66Z" fill="#FFA620"/>
<path d="M526.675 1407.41C489.245 1407.7 451.83 1405.87 414.608 1401.91C365.911 1396.02 365.911 1388.72 365.911 1385.68C365.911 1382.65 365.911 1375.34 414.608 1369.45C451.825 1365.42 489.241 1363.51 526.675 1363.73C564.092 1363.48 601.493 1365.35 638.697 1369.34C687.395 1375.23 687.395 1382.54 687.395 1385.57C687.395 1388.61 687.395 1395.91 638.697 1401.8C601.493 1405.79 564.092 1407.67 526.675 1407.41ZM371.431 1385.66C371.431 1385.66 374.379 1391.6 417.468 1396.66C453.746 1400.41 490.204 1402.17 526.675 1401.91C563.14 1402.14 599.59 1400.37 635.86 1396.59C676.485 1391.88 681.368 1386.34 681.852 1385.59C681.368 1384.82 676.485 1379.28 635.86 1374.6C599.591 1370.81 563.141 1369.01 526.675 1369.23C490.202 1369 453.745 1370.78 417.468 1374.55C374.181 1379.57 371.475 1385.55 371.431 1385.66Z" fill="#313131"/>
<path d="M663.31 1357.92V1386.23C663.31 1388.58 652.95 1390.47 640.193 1390.47C627.436 1390.47 617.054 1388.58 617.054 1386.23V1357.92H663.31Z" fill="#FFA620"/>
<path d="M640.193 1393.11C628.381 1393.11 614.304 1391.9 614.304 1386.12V1357.92C614.304 1357.19 614.594 1356.49 615.109 1355.98C615.625 1355.46 616.324 1355.17 617.054 1355.17H663.244C663.973 1355.17 664.672 1355.46 665.188 1355.98C665.704 1356.49 665.993 1357.19 665.993 1357.92V1386.23C666.059 1391.99 652.048 1393.11 640.193 1393.11ZM619.803 1385.2C621.827 1386.16 628.865 1387.62 640.193 1387.62C651.52 1387.62 658.559 1386.16 660.56 1385.2V1360.56H619.803V1385.2Z" fill="#313131"/>
<path d="M640.193 1361.35C652.972 1361.35 663.332 1359.81 663.332 1357.9C663.332 1355.99 652.972 1354.45 640.193 1354.45C627.413 1354.45 617.054 1355.99 617.054 1357.9C617.054 1359.81 627.413 1361.35 640.193 1361.35Z" fill="#FFA620"/>
<path d="M640.193 1364.1C614.304 1364.1 614.304 1359.7 614.304 1357.9C614.304 1356.1 614.304 1351.7 640.193 1351.7C666.081 1351.7 666.059 1356.21 666.059 1357.9C666.059 1359.59 666.059 1364.1 640.193 1364.1ZM626.402 1357.92C635.564 1358.86 644.799 1358.86 653.962 1357.92C644.799 1356.98 635.564 1356.98 626.402 1357.92Z" fill="#313131"/>
<path d="M522.452 1482.06C467.464 1482.06 431.282 1471.53 430.908 1471.42C430.212 1471.21 429.627 1470.73 429.28 1470.1C428.934 1469.46 428.855 1468.71 429.06 1468.01C429.269 1467.31 429.744 1466.73 430.382 1466.38C431.02 1466.03 431.769 1465.94 432.469 1466.14C432.821 1466.14 468.366 1476.57 522.452 1476.57C554.647 1476.71 586.763 1473.38 618.242 1466.62C621.629 1465.9 622.069 1465.79 623.125 1466.49C623.581 1466.8 623.936 1467.23 624.142 1467.74C624.349 1468.25 624.399 1468.81 624.285 1469.35C624.172 1469.88 623.9 1470.37 623.505 1470.75C623.11 1471.14 622.61 1471.39 622.069 1471.48H621.629L619.43 1471.97C587.56 1478.8 555.047 1482.19 522.452 1482.06Z" fill="#313131"/>
<path d="M526.675 1392.32C514.754 1392.32 500.501 1391.16 500.501 1385.57C500.501 1379.98 514.754 1378.82 526.675 1378.82C538.597 1378.82 552.85 1379.98 552.85 1385.57C552.85 1391.16 538.575 1392.32 526.675 1392.32ZM509.915 1385.57C521.033 1387.24 532.339 1387.24 543.458 1385.57C532.339 1383.9 521.033 1383.9 509.915 1385.57Z" fill="#313131"/>
<path d="M672.196 842.197C672.196 939.108 608.409 1058.57 529.908 1058.57C451.406 1058.57 387.62 939.108 387.62 842.197C387.62 745.285 451.406 666.718 529.908 666.718C608.409 666.718 672.196 745.285 672.196 842.197Z" fill="#21A2FF"/>
<path d="M529.908 1061.32C449.559 1061.32 384.871 941.441 384.871 842.198C384.871 743.922 449.933 664.035 529.908 664.035C609.883 664.035 674.946 743.988 674.946 842.198C674.946 941.441 610.257 1061.32 529.908 1061.32ZM529.908 669.468C452.924 669.468 390.369 746.958 390.369 842.198C390.369 889.664 405.766 943.156 431.633 985.277C459.545 1030.76 494.43 1055.82 529.908 1055.82C565.387 1055.82 600.293 1030.76 628.183 985.277C654.028 943.156 669.447 889.664 669.447 842.198C669.447 746.958 606.848 669.468 529.908 669.468Z" fill="#313131"/>
<path d="M746.277 718.936C773.062 718.936 794.776 693.45 794.776 662.012C794.776 630.574 773.062 605.088 746.277 605.088C719.491 605.088 697.777 630.574 697.777 662.012C697.777 693.45 719.491 718.936 746.277 718.936Z" fill="#21A2FF"/>
<path d="M746.276 721.685C718.012 721.685 695.005 694.916 695.005 662.011C695.005 629.106 718.012 602.338 746.276 602.338C774.54 602.338 797.525 629.106 797.525 662.011C797.525 694.916 774.518 721.685 746.276 721.685ZM746.276 607.837C721.047 607.881 700.438 632.076 700.438 662.011C700.438 691.947 720.981 716.186 746.21 716.186C771.439 716.186 791.96 691.881 791.96 662.011C791.96 632.142 771.483 607.881 746.276 607.881V607.837Z" fill="#313131"/>
<path d="M523.309 784.922C651.091 784.922 754.678 728.416 754.678 658.712C754.678 589.009 651.091 532.503 523.309 532.503C395.527 532.503 291.94 589.009 291.94 658.712C291.94 728.416 395.527 784.922 523.309 784.922Z" fill="#21A2FF"/>
<path d="M523.309 787.672C394.218 787.672 289.19 729.824 289.19 658.713C289.19 587.602 394.218 529.754 523.309 529.754C652.4 529.754 757.428 587.602 757.428 658.713C757.428 729.824 652.4 787.672 523.309 787.672ZM523.309 535.253C397.232 535.253 294.689 590.637 294.689 658.713C294.689 726.788 397.232 782.173 523.309 782.173C649.387 782.173 751.929 726.788 751.929 658.713C751.929 590.637 649.365 535.297 523.309 535.297V535.253Z" fill="#313131"/>
<path d="M299.177 718.914C326.837 718.914 349.26 692.512 349.26 659.944C349.26 627.376 326.837 600.975 299.177 600.975C271.516 600.975 249.093 627.376 249.093 659.944C249.093 692.512 271.516 718.914 299.177 718.914Z" fill="#21A2FF"/>
<path d="M299.176 721.685C297.659 721.685 296.141 721.685 294.601 721.443C265.634 718.496 244.012 688.56 246.542 654.687C247.022 646.13 249.201 637.753 252.95 630.046C256.7 622.339 261.946 615.455 268.383 609.795C273.211 605.613 278.835 602.452 284.918 600.501C291 598.551 297.414 597.851 303.773 598.445C332.741 601.393 354.363 631.438 351.811 665.223C350.492 683.215 342.551 699.58 329.992 710.094C321.419 717.489 310.498 721.597 299.176 721.685ZM299.176 603.724C289.147 603.823 279.477 607.47 271.88 614.018C266.023 619.209 261.257 625.513 257.859 632.563C254.46 639.613 252.497 647.268 252.084 655.083C249.885 686.009 269.153 713.327 295.195 715.967C300.826 716.494 306.505 715.873 311.889 714.142C317.273 712.41 322.249 709.604 326.517 705.893C332.375 700.702 337.141 694.399 340.54 687.349C343.939 680.299 345.901 672.643 346.312 664.827C348.512 633.88 329.222 606.562 303.18 603.922C301.882 603.79 300.54 603.724 299.198 603.724H299.176Z" fill="#313131"/>
<path d="M591.32 892.302C601.366 892.302 609.51 877.157 609.51 858.473C609.51 839.79 601.366 824.645 591.32 824.645C581.273 824.645 573.129 839.79 573.129 858.473C573.129 877.157 581.273 892.302 591.32 892.302Z" fill="#FFA620"/>
<path d="M591.32 895.029C579.574 895.029 570.38 878.973 570.38 858.473C570.38 837.973 579.574 821.895 591.32 821.895C603.065 821.895 612.259 837.951 612.259 858.473C612.259 878.995 603.065 895.029 591.32 895.029ZM591.32 827.393C582.939 827.393 575.923 841.624 575.923 858.473C575.923 875.321 582.983 889.53 591.32 889.53C599.656 889.53 606.716 875.299 606.716 858.473C606.716 841.646 599.678 827.393 591.32 827.393Z" fill="#313131"/>
<path d="M660.23 687.987C676.399 687.987 689.506 674.88 689.506 658.711C689.506 642.543 676.399 629.436 660.23 629.436C644.061 629.436 630.954 642.543 630.954 658.711C630.954 674.88 644.061 687.987 660.23 687.987Z" fill="white"/>
<path d="M533.207 691.286C549.376 691.286 562.483 678.179 562.483 662.01C562.483 645.842 549.376 632.734 533.207 632.734C517.038 632.734 503.931 645.842 503.931 662.01C503.931 678.179 517.038 691.286 533.207 691.286Z" fill="white"/>
<path d="M660.23 690.736C653.896 690.736 647.705 688.858 642.438 685.339C637.172 681.82 633.067 676.818 630.643 670.966C628.219 665.115 627.585 658.675 628.82 652.463C630.056 646.251 633.106 640.544 637.585 636.066C642.064 631.587 647.77 628.537 653.983 627.301C660.195 626.065 666.634 626.699 672.486 629.123C678.338 631.547 683.339 635.652 686.858 640.919C690.377 646.185 692.256 652.377 692.256 658.711C692.25 667.203 688.874 675.345 682.869 681.35C676.865 687.354 668.722 690.73 660.23 690.736ZM660.23 632.184C654.984 632.184 649.855 633.74 645.493 636.655C641.131 639.57 637.731 643.713 635.723 648.56C633.715 653.407 633.19 658.74 634.214 663.886C635.237 669.031 637.764 673.758 641.473 677.468C645.183 681.178 649.91 683.704 655.055 684.728C660.201 685.751 665.535 685.226 670.382 683.218C675.229 681.21 679.372 677.81 682.286 673.448C685.201 669.086 686.757 663.957 686.757 658.711C686.751 651.677 683.954 644.934 678.981 639.96C674.008 634.987 667.264 632.19 660.23 632.184Z" fill="#313131"/>
<path d="M533.273 694.036C526.939 694.036 520.748 692.158 515.481 688.639C510.215 685.12 506.11 680.118 503.686 674.266C501.262 668.414 500.628 661.975 501.863 655.763C503.099 649.55 506.149 643.844 510.628 639.365C515.107 634.886 520.813 631.836 527.026 630.601C533.238 629.365 539.677 629.999 545.529 632.423C551.381 634.847 556.382 638.952 559.901 644.218C563.42 649.485 565.299 655.677 565.299 662.011C565.293 670.502 561.917 678.645 555.912 684.649C549.908 690.654 541.765 694.03 533.273 694.036ZM533.273 635.484C528.021 635.458 522.88 636.992 518.5 639.89C514.121 642.789 510.7 646.923 508.672 651.768C506.644 656.612 506.1 661.95 507.109 667.104C508.117 672.259 510.633 676.997 514.338 680.72C518.042 684.443 522.768 686.983 527.918 688.017C533.067 689.052 538.407 688.534 543.262 686.53C548.117 684.526 552.267 681.127 555.188 676.762C558.109 672.396 559.668 667.263 559.668 662.011C559.662 655 556.884 648.276 551.939 643.306C546.994 638.337 540.284 635.525 533.273 635.484Z" fill="#313131"/>
<path d="M827.087 671.381C826.756 671.389 826.427 671.329 826.12 671.205C825.437 670.949 824.884 670.431 824.583 669.767C824.282 669.103 824.257 668.347 824.514 667.664C832.322 647.186 818.729 635.749 818.157 635.265C817.639 634.793 817.321 634.14 817.268 633.441C817.215 632.741 817.431 632.048 817.872 631.503C818.313 630.958 818.946 630.602 819.641 630.508C820.336 630.414 821.04 630.589 821.61 630.998C821.786 631.13 838.921 645.317 829.661 669.622C829.46 670.141 829.107 670.587 828.648 670.902C828.188 671.216 827.644 671.383 827.087 671.381Z" fill="#313131"/>
<path d="M867.603 684.182C867.263 684.18 866.927 684.113 866.613 683.984C866.275 683.857 865.966 683.665 865.703 683.417C865.44 683.17 865.229 682.874 865.082 682.544C864.934 682.215 864.854 681.859 864.845 681.499C864.836 681.138 864.898 680.779 865.029 680.443C884.407 629.546 850.336 601.128 848.885 599.94C848.316 599.482 847.952 598.817 847.874 598.091C847.795 597.365 848.009 596.637 848.467 596.069C848.925 595.5 849.59 595.136 850.316 595.058C851.042 594.98 851.769 595.193 852.338 595.651C852.734 595.981 891.006 627.676 870.154 682.4C869.959 682.92 869.61 683.369 869.155 683.687C868.699 684.005 868.158 684.178 867.603 684.182Z" fill="#313131"/>
<path d="M915.993 694.586C915.655 694.592 915.319 694.532 915.003 694.41C914.328 694.144 913.785 693.625 913.488 692.963C913.192 692.301 913.168 691.549 913.419 690.869C942.739 613.885 891.116 570.95 888.917 569.147C888.612 568.928 888.355 568.65 888.162 568.329C887.969 568.008 887.844 567.651 887.793 567.28C887.743 566.909 887.769 566.531 887.87 566.17C887.971 565.809 888.145 565.473 888.381 565.182C888.616 564.891 888.909 564.651 889.241 564.477C889.573 564.303 889.936 564.198 890.31 564.17C890.684 564.142 891.059 564.19 891.413 564.312C891.768 564.434 892.093 564.627 892.37 564.879C892.942 565.341 949.338 612.037 918.566 692.826C918.366 693.346 918.013 693.792 917.553 694.106C917.094 694.42 916.55 694.588 915.993 694.586Z" fill="#313131"/>
<path d="M522.099 1357.2C521.468 1357.19 520.856 1356.97 520.367 1356.57C519.878 1356.17 519.542 1355.62 519.416 1355C491.24 1219.86 403.5 1115.97 402.577 1114.98C402.321 1114.71 402.123 1114.39 401.995 1114.04C401.867 1113.69 401.811 1113.32 401.832 1112.95C401.852 1112.58 401.948 1112.21 402.113 1111.88C402.278 1111.54 402.51 1111.25 402.793 1111C403.077 1110.76 403.406 1110.58 403.762 1110.47C404.118 1110.36 404.493 1110.32 404.863 1110.36C405.234 1110.4 405.593 1110.52 405.918 1110.7C406.243 1110.88 406.528 1111.12 406.756 1111.42C407.636 1112.45 496.321 1217.37 524.783 1353.87C524.859 1354.23 524.863 1354.6 524.793 1354.96C524.723 1355.32 524.581 1355.67 524.375 1355.97C524.17 1356.27 523.905 1356.53 523.597 1356.73C523.29 1356.93 522.945 1357.07 522.583 1357.13L522.099 1357.2Z" fill="#313131"/>
<path d="M522.518 1357.2C522.335 1357.22 522.15 1357.22 521.968 1357.2C521.608 1357.13 521.265 1356.99 520.958 1356.79C520.652 1356.59 520.389 1356.33 520.184 1356.03C519.979 1355.73 519.837 1355.39 519.765 1355.03C519.694 1354.67 519.695 1354.3 519.768 1353.94C548.23 1217.44 636.915 1112.52 637.817 1111.49C638.045 1111.19 638.329 1110.95 638.655 1110.76C638.98 1110.58 639.339 1110.47 639.709 1110.43C640.08 1110.39 640.455 1110.43 640.811 1110.54C641.166 1110.65 641.496 1110.83 641.78 1111.07C642.063 1111.31 642.295 1111.61 642.46 1111.94C642.625 1112.28 642.721 1112.64 642.741 1113.01C642.762 1113.39 642.706 1113.76 642.578 1114.11C642.45 1114.46 642.252 1114.78 641.996 1115.05C641.117 1116.08 553.311 1219.99 525.157 1355.06C525.012 1355.66 524.675 1356.19 524.198 1356.58C523.721 1356.96 523.131 1357.18 522.518 1357.2Z" fill="#313131"/>
<path d="M522.1 1357.19C521.384 1357.19 520.697 1356.91 520.185 1356.41C519.672 1355.91 519.373 1355.23 519.35 1354.51C515.127 1198.85 469.795 1087 469.333 1085.88C469.041 1085.21 469.03 1084.44 469.303 1083.76C469.575 1083.07 470.108 1082.52 470.785 1082.23C471.461 1081.94 472.226 1081.93 472.911 1082.2C473.596 1082.47 474.144 1083.01 474.436 1083.68C474.898 1084.8 520.626 1197.51 524.849 1354.23C524.867 1354.96 524.595 1355.67 524.092 1356.2C523.589 1356.73 522.897 1357.04 522.166 1357.06L522.1 1357.19Z" fill="#313131"/>
<path d="M521.946 1357.2C521.584 1357.18 521.229 1357.1 520.9 1356.95C520.571 1356.8 520.274 1356.59 520.027 1356.33C519.78 1356.06 519.587 1355.76 519.459 1355.42C519.332 1355.08 519.272 1354.72 519.284 1354.36C523.529 1197.62 569.236 1084.91 569.698 1083.82C569.989 1083.14 570.537 1082.61 571.219 1082.34C571.902 1082.07 572.664 1082.08 573.338 1082.37C574.012 1082.67 574.542 1083.21 574.812 1083.9C575.082 1084.58 575.07 1085.34 574.778 1086.01C574.317 1087.14 529.006 1198.98 524.783 1354.64C524.727 1355.35 524.401 1356.01 523.873 1356.49C523.345 1356.96 522.655 1357.21 521.946 1357.2Z" fill="#313131"/>
<path d="M609.972 1156.62C609.574 1156.62 609.182 1156.53 608.821 1156.37C608.46 1156.2 608.14 1155.95 607.882 1155.65C607.618 1155.34 581.488 1125.34 521.946 1125.34C462.955 1125.34 436.516 1154.68 436.165 1154.99C435.925 1155.26 435.635 1155.49 435.309 1155.65C434.984 1155.81 434.63 1155.9 434.268 1155.92C433.906 1155.95 433.544 1155.9 433.201 1155.78C432.858 1155.66 432.542 1155.48 432.271 1155.23C431.999 1155 431.777 1154.71 431.618 1154.38C431.458 1154.06 431.365 1153.71 431.342 1153.35C431.32 1152.99 431.369 1152.63 431.487 1152.29C431.605 1151.95 431.789 1151.63 432.029 1151.36C433.151 1150.07 460.403 1119.84 521.858 1119.84C584.061 1119.84 610.874 1150.79 612.039 1152.09C612.51 1152.65 612.739 1153.37 612.677 1154.1C612.615 1154.83 612.268 1155.51 611.71 1155.98C611.219 1156.38 610.606 1156.61 609.972 1156.62Z" fill="#313131"/>
<path d="M458.841 1195.64C458.419 1195.65 458.001 1195.56 457.619 1195.38C457.238 1195.2 456.903 1194.94 456.641 1194.61C456.415 1194.32 456.247 1194 456.147 1193.65C456.047 1193.3 456.016 1192.94 456.057 1192.58C456.098 1192.22 456.209 1191.87 456.385 1191.56C456.561 1191.24 456.797 1190.96 457.081 1190.74C458.093 1189.94 482.178 1171.25 522.473 1171.25C561.449 1171.25 585.886 1188.05 586.92 1188.84C587.375 1189.31 587.653 1189.92 587.703 1190.56C587.752 1191.21 587.572 1191.85 587.193 1192.38C586.813 1192.91 586.26 1193.28 585.63 1193.44C585.001 1193.6 584.335 1193.53 583.752 1193.24C583.511 1193.09 559.558 1176.72 522.473 1176.72C484.201 1176.72 460.732 1194.85 460.49 1195.03C460.023 1195.41 459.443 1195.62 458.841 1195.64Z" fill="#313131"/>
<path d="M562.527 1240.09C561.969 1240.09 561.425 1239.92 560.965 1239.61C549.339 1232.72 536.031 1229.18 522.517 1229.38C498.322 1229.38 484.773 1238.71 484.619 1238.82C484.338 1239.1 483.999 1239.32 483.624 1239.46C483.249 1239.6 482.848 1239.66 482.449 1239.63C482.05 1239.6 481.663 1239.48 481.314 1239.28C480.965 1239.09 480.663 1238.82 480.429 1238.49C480.195 1238.17 480.035 1237.8 479.96 1237.4C479.885 1237.01 479.896 1236.61 479.994 1236.22C480.091 1235.83 480.272 1235.47 480.524 1235.16C480.776 1234.84 481.092 1234.59 481.452 1234.42C482.046 1233.98 496.409 1223.97 522.517 1223.97C547.614 1223.97 563.428 1234.7 564.088 1235.16C564.572 1235.5 564.937 1235.98 565.129 1236.53C565.321 1237.09 565.33 1237.69 565.156 1238.25C564.981 1238.81 564.632 1239.3 564.159 1239.65C563.686 1239.99 563.114 1240.18 562.527 1240.18V1240.09Z" fill="#313131"/>
<path d="M947.512 1267.41C947.512 1267.41 783.492 1264.05 764.026 1271.99C744.56 1279.93 638.851 1348.29 645.735 1358.74C652.62 1369.18 719.794 1331.07 719.794 1331.07C719.794 1331.07 717.726 1342.57 728.702 1344.7C728.702 1344.7 726.172 1359.35 742.339 1360.1C742.339 1360.1 736.642 1379.15 754.48 1382.1C775.398 1385.66 801.968 1385.79 802.738 1378.53C803.376 1372.53 795.942 1368.9 795.942 1368.9C795.942 1368.9 863.093 1369.54 885.353 1367.6C906.138 1365.77 967.791 1354.4 967.791 1354.4L985.146 1315.67L947.512 1267.41Z" fill="white"/>
<path d="M781.447 1387.31C772.256 1387.23 763.085 1386.42 754.019 1384.91C751.481 1384.62 749.038 1383.78 746.86 1382.45C744.683 1381.12 742.824 1379.32 741.415 1377.19C738.973 1372.71 738.135 1367.54 739.04 1362.52C735.179 1362.02 731.646 1360.09 729.142 1357.11C726.906 1354.13 725.736 1350.49 725.821 1346.77C723.45 1345.98 721.358 1344.52 719.797 1342.57C718.236 1340.62 717.272 1338.26 717.023 1335.77C710.908 1339.14 698.876 1345.61 686.515 1351.37C653.324 1366.77 646.065 1364.26 643.448 1360.17C643.015 1359.47 642.748 1358.68 642.668 1357.87C642.588 1357.05 642.697 1356.23 642.986 1355.46C648.551 1337.64 746.914 1275.92 762.993 1269.37C782.789 1261.3 940.869 1264.46 947.578 1264.6C948.001 1264.59 948.418 1264.69 948.799 1264.87C949.18 1265.05 949.515 1265.32 949.777 1265.65L987.412 1314.04C987.717 1314.44 987.909 1314.91 987.967 1315.4C988.026 1315.9 987.947 1316.4 987.742 1316.86L970.387 1355.59C970.209 1355.98 969.94 1356.33 969.604 1356.6C969.268 1356.87 968.874 1357.06 968.452 1357.15C967.924 1357.26 914.409 1368.83 880.47 1370.35C863.886 1371.08 820.775 1371.54 803.486 1371.71C805.14 1373.74 805.93 1376.34 805.686 1378.95C805.577 1379.83 805.282 1380.68 804.819 1381.44C804.356 1382.2 803.737 1382.85 803.002 1383.35C798.911 1386.25 790.619 1387.31 781.447 1387.31ZM719.86 1328.32C720.427 1328.32 720.979 1328.5 721.444 1328.82C721.843 1329.14 722.147 1329.56 722.321 1330.04C722.496 1330.51 722.535 1331.03 722.433 1331.53C722.279 1332.43 721.158 1340.33 729.164 1341.98C729.87 1342.12 730.494 1342.52 730.905 1343.11C731.315 1343.71 731.48 1344.43 731.364 1345.14C730.936 1348.14 731.659 1351.19 733.387 1353.68C734.542 1354.9 735.944 1355.86 737.499 1356.49C739.054 1357.12 740.727 1357.42 742.405 1357.35C742.822 1357.37 743.228 1357.49 743.593 1357.69C743.958 1357.89 744.272 1358.18 744.513 1358.52C744.754 1358.86 744.916 1359.25 744.985 1359.66C745.054 1360.07 745.029 1360.49 744.913 1360.89C744.913 1360.89 742.713 1368.83 746.034 1374.29C747.042 1375.73 748.35 1376.94 749.869 1377.83C751.387 1378.73 753.08 1379.28 754.833 1379.46C774.255 1382.76 794.644 1382.51 799.395 1378.91C799.636 1378.77 799.822 1378.55 799.923 1378.29C800.341 1374.38 794.71 1371.45 794.644 1371.43C794.091 1371.15 793.646 1370.7 793.381 1370.14C793.116 1369.59 793.047 1368.96 793.184 1368.35C793.321 1367.75 793.657 1367.21 794.137 1366.83C794.618 1366.44 795.215 1366.22 795.832 1366.22C796.47 1366.22 859.311 1365.69 880.074 1364.79C910.538 1363.44 957.234 1353.79 965.856 1352.03L981.979 1316.13L946.17 1270.18C889.268 1269.04 779.951 1268.51 765.082 1274.58C756.504 1278.1 727.932 1295.13 699.096 1314.9C659.615 1341.95 648.507 1354.23 648.199 1357.42C649.013 1358.01 654.622 1360.23 684.183 1346.42C701.538 1338.33 718.276 1328.82 718.452 1328.82C718.847 1328.54 719.31 1328.37 719.794 1328.32H719.86Z" fill="#313131"/>
<path d="M719.795 1333.73H719.223C718.864 1333.66 718.523 1333.52 718.218 1333.32C717.913 1333.12 717.651 1332.86 717.447 1332.56C717.242 1332.25 717.1 1331.92 717.027 1331.56C716.954 1331.2 716.953 1330.83 717.023 1330.47C719.487 1318.75 757.693 1297.77 765.413 1293.67C766.058 1293.33 766.813 1293.26 767.512 1293.47C768.211 1293.68 768.797 1294.16 769.141 1294.81C769.486 1295.45 769.56 1296.21 769.347 1296.91C769.135 1297.6 768.653 1298.19 768.009 1298.54C749.951 1308.19 724.018 1324.93 722.5 1331.53C722.377 1332.15 722.039 1332.72 721.545 1333.12C721.051 1333.52 720.432 1333.73 719.795 1333.73Z" fill="#313131"/>
<path d="M728.702 1347.45C728.232 1347.45 727.769 1347.33 727.36 1347.1C726.727 1346.74 726.263 1346.14 726.07 1345.43C725.876 1344.73 725.969 1343.97 726.327 1343.34C734.553 1328.82 775.53 1312.08 777.268 1311.38C777.607 1311.21 777.976 1311.12 778.353 1311.1C778.729 1311.08 779.106 1311.14 779.458 1311.28C779.811 1311.41 780.132 1311.62 780.401 1311.88C780.671 1312.15 780.884 1312.46 781.026 1312.81C781.168 1313.16 781.237 1313.54 781.228 1313.91C781.219 1314.29 781.132 1314.66 780.974 1315C780.815 1315.34 780.588 1315.65 780.306 1315.9C780.024 1316.15 779.694 1316.34 779.335 1316.46C767.986 1321.08 737.148 1335.38 731.1 1346.04C730.863 1346.47 730.516 1346.83 730.094 1347.08C729.672 1347.32 729.191 1347.45 728.702 1347.45Z" fill="#313131"/>
<path d="M742.339 1362.87C741.781 1362.88 741.235 1362.71 740.777 1362.39C740.479 1362.18 740.224 1361.92 740.028 1361.62C739.832 1361.31 739.699 1360.97 739.635 1360.62C739.572 1360.26 739.58 1359.9 739.659 1359.54C739.738 1359.19 739.886 1358.86 740.096 1358.56C749.092 1345.63 784.372 1332.52 785.868 1331.97C786.207 1331.84 786.568 1331.79 786.93 1331.8C787.291 1331.81 787.647 1331.9 787.976 1332.05C788.305 1332.2 788.6 1332.41 788.846 1332.68C789.092 1332.95 789.284 1333.26 789.409 1333.6C789.535 1333.94 789.592 1334.3 789.579 1334.66C789.565 1335.02 789.48 1335.37 789.329 1335.7C789.178 1336.03 788.963 1336.33 788.698 1336.57C788.432 1336.82 788.121 1337.01 787.782 1337.14C778.016 1340.72 751.247 1352.14 744.605 1361.68C744.35 1362.05 744.012 1362.35 743.617 1362.55C743.223 1362.76 742.784 1362.87 742.339 1362.87Z" fill="#313131"/>
<path d="M800.627 1372.04C800.474 1372.07 800.318 1372.07 800.165 1372.04C791.785 1370.66 770.537 1368.88 770.317 1368.85C769.95 1368.83 769.59 1368.74 769.259 1368.58C768.928 1368.42 768.633 1368.19 768.391 1367.91C768.15 1367.64 767.966 1367.31 767.852 1366.96C767.737 1366.61 767.694 1366.24 767.725 1365.88C767.756 1365.51 767.86 1365.15 768.032 1364.83C768.203 1364.5 768.438 1364.21 768.723 1363.98C769.008 1363.75 769.337 1363.57 769.69 1363.47C770.043 1363.37 770.413 1363.34 770.779 1363.38C771.659 1363.38 792.467 1365.2 801.067 1366.63C801.739 1366.75 802.341 1367.12 802.758 1367.66C803.174 1368.2 803.375 1368.88 803.32 1369.56C803.265 1370.24 802.959 1370.88 802.461 1371.34C801.963 1371.81 801.309 1372.08 800.627 1372.09V1372.04Z" fill="#313131"/>
<path d="M1030.37 947.555C1027.25 921.71 1038.16 873.628 1040.05 819.388C1041.15 787.78 1034.17 765.389 1035.65 752.258C1040.38 712.666 1047.81 677.473 1044.64 675.274C1038.05 670.655 1027.4 690.979 1027.4 690.979C1027.4 690.979 1038.24 653.938 1034.33 652.597C1024.85 649.319 1011.43 666.872 1011.43 666.872C1011.43 666.872 1030.37 637.684 1021.57 635.198C1012.77 632.713 994.252 654.994 994.252 654.994C994.252 654.994 997.882 643.095 993.065 641.049C985.388 637.772 957.036 680.443 945.907 707.475C917.753 775.881 951.955 924.283 941.508 946.147L992.867 980.416L1030.37 947.555Z" fill="white"/>
<path d="M992.668 983.187C992.128 983.186 991.599 983.026 991.151 982.725L939.769 948.456C939.216 948.091 938.815 947.536 938.641 946.897C938.467 946.257 938.532 945.576 938.824 944.981C942.453 937.436 940.011 910.338 937.152 878.995C932.225 824.468 925.45 749.772 943.267 706.485C952.593 683.83 977.469 643.622 989.457 638.761C990.185 638.414 990.975 638.22 991.781 638.189C992.587 638.159 993.39 638.294 994.142 638.585C997.221 639.883 998.211 642.984 998.321 646.416C1004.92 639.487 1015.28 630.623 1022.32 632.581C1023.21 632.821 1024.03 633.271 1024.71 633.895C1025.39 634.519 1025.92 635.298 1026.23 636.166C1027.66 639.949 1025.62 646.372 1022.74 652.596C1026.78 650.089 1031.23 648.593 1035.36 650.023C1037.38 650.705 1040.57 651.804 1034.39 676.417C1036.17 674.436 1038.45 672.97 1040.99 672.172C1041.91 671.923 1042.88 671.88 1043.82 672.048C1044.76 672.215 1045.65 672.588 1046.42 673.14C1049.55 675.34 1048.91 681.41 1044.36 711.588C1042.49 723.905 1040.38 737.982 1038.59 752.719C1037.93 758.196 1038.9 765.565 1040.09 774.913C1042.31 789.71 1043.26 804.67 1042.93 819.629C1042.05 844.726 1039.25 868.437 1036.81 889.354C1034 913.175 1031.58 933.741 1033.23 947.356C1033.28 947.801 1033.22 948.252 1033.06 948.669C1032.9 949.087 1032.64 949.46 1032.3 949.754L994.67 982.637C994.391 982.859 994.069 983.022 993.725 983.117C993.381 983.211 993.022 983.235 992.668 983.187ZM944.586 945.091L992.404 976.984L1027.35 946.432C1025.97 932.223 1028.34 911.944 1031.09 888.563C1033.56 867.755 1036.33 844.176 1037.19 819.299C1037.5 804.642 1036.56 789.984 1034.39 775.484C1033.14 765.763 1032.19 758.086 1032.9 751.949C1034.68 737.037 1036.79 723.003 1038.66 710.62C1040.86 696.059 1043.06 681.014 1042.58 677.319C1042.41 677.3 1042.24 677.3 1042.07 677.319C1038.51 678.199 1032.77 686.535 1029.82 692.188C1029.51 692.8 1028.98 693.273 1028.33 693.514C1027.69 693.755 1026.98 693.746 1026.34 693.49C1025.7 693.233 1025.19 692.747 1024.89 692.128C1024.59 691.508 1024.54 690.8 1024.74 690.142C1028.85 676.087 1032.74 659.349 1032.44 654.95C1026.17 654.18 1016.6 664.584 1013.61 668.521C1013.15 668.977 1012.54 669.254 1011.89 669.304C1011.24 669.354 1010.6 669.173 1010.07 668.794C1009.54 668.414 1009.17 667.861 1009.01 667.231C1008.85 666.602 1008.92 665.937 1009.21 665.354C1015.94 654.994 1022.41 641.599 1021.04 638.057C1021.04 637.881 1021.04 637.881 1020.8 637.837C1015.9 636.474 1003.2 648.307 996.341 656.753C995.937 657.244 995.375 657.579 994.751 657.702C994.127 657.825 993.48 657.727 992.919 657.426C992.359 657.126 991.92 656.64 991.678 656.052C991.436 655.464 991.405 654.81 991.59 654.202C993.02 649.473 993.196 644.128 991.942 643.6C986.553 643.6 960.511 679.101 948.413 708.553C931.103 750.564 937.812 824.49 942.695 878.467C945.554 910.668 947.732 934.621 944.586 945.091Z" fill="#313131"/>
<path d="M1005.1 761.078C1004.91 761.1 1004.71 761.1 1004.52 761.078C1004.16 761.012 1003.82 760.875 1003.51 760.675C1003.21 760.475 1002.95 760.216 1002.74 759.913C1002.54 759.609 1002.39 759.268 1002.32 758.909C1002.25 758.551 1002.25 758.181 1002.32 757.823C1005.32 743.702 1014.07 712.754 1024.87 689.835C1025.18 689.176 1025.74 688.668 1026.43 688.422C1027.12 688.177 1027.87 688.214 1028.53 688.526C1029.19 688.838 1029.7 689.399 1029.95 690.086C1030.19 690.773 1030.15 691.529 1029.84 692.188C1020.29 713.666 1012.88 736.034 1007.71 758.966C1007.57 759.558 1007.24 760.087 1006.77 760.469C1006.29 760.851 1005.7 761.065 1005.1 761.078Z" fill="#313131"/>
<path d="M977.206 750.587C977.016 750.608 976.824 750.608 976.634 750.587C976.276 750.518 975.934 750.379 975.629 750.178C975.324 749.978 975.062 749.718 974.858 749.416C974.653 749.114 974.511 748.774 974.438 748.416C974.366 748.058 974.364 747.689 974.435 747.331C978.438 728.371 996.65 683.545 1009.1 665.333C1009.3 665.035 1009.57 664.781 1009.87 664.584C1010.17 664.388 1010.51 664.253 1010.87 664.188C1011.22 664.123 1011.59 664.128 1011.94 664.203C1012.29 664.279 1012.63 664.424 1012.93 664.629C1013.22 664.834 1013.48 665.095 1013.67 665.399C1013.87 665.702 1014.01 666.041 1014.07 666.397C1014.14 666.752 1014.13 667.117 1014.06 667.47C1013.98 667.823 1013.84 668.158 1013.63 668.456C1001.82 685.722 983.673 730.175 979.801 748.453C979.669 749.047 979.342 749.58 978.871 749.967C978.401 750.354 977.815 750.572 977.206 750.587Z" fill="#313131"/>
<path d="M955.98 740.38C955.568 740.38 955.162 740.287 954.791 740.109C954.42 739.931 954.094 739.672 953.837 739.351C953.579 739.031 953.397 738.656 953.303 738.255C953.21 737.855 953.207 737.438 953.296 737.037C959.455 709.52 979.691 667.971 992.03 653.256C992.501 652.695 993.175 652.343 993.904 652.277C994.634 652.211 995.36 652.436 995.923 652.904C996.201 653.135 996.431 653.419 996.598 653.74C996.766 654.06 996.868 654.411 996.898 654.771C996.929 655.131 996.888 655.494 996.777 655.838C996.666 656.182 996.488 656.501 996.253 656.775C984.618 670.742 964.558 711.896 958.663 738.158C958.537 738.78 958.203 739.339 957.714 739.743C957.226 740.148 956.614 740.372 955.98 740.38Z" fill="#313131"/>
<path d="M1324.56 716.384C1324.56 716.384 1456.37 754.656 1559.18 1034.06C1648.15 1276.01 1662.08 1499.97 1662.08 1499.97H1163.26V1452.77C1163.26 1452.77 996.342 1405.01 938.912 1404.66C938.912 1404.66 946.742 1376.71 938.01 1325.63C930.223 1280.15 911.945 1260.15 911.945 1260.15H926.066L922.239 900.155C922.239 900.155 946.434 914.628 987.367 914.826C1038.64 915.09 1069.01 894.678 1069.01 894.678L1086.61 1167.82C1086.61 1167.82 1136.28 839.052 1224.24 780.39L1232.73 794.841C1232.73 794.841 1215.5 841.032 1222.01 843.891C1228.52 846.75 1332.43 728.107 1332.43 728.107L1324.56 716.384Z" fill="white"/>
<path d="M1662.08 1502.72H1163.26C1162.54 1502.72 1161.84 1502.43 1161.32 1501.91C1160.81 1501.4 1160.52 1500.7 1160.52 1499.97V1454.86C1141.47 1449.47 991.921 1407.74 938.846 1407.41C938.419 1407.41 937.997 1407.32 937.615 1407.12C937.233 1406.93 936.902 1406.66 936.647 1406.31C936.386 1405.98 936.207 1405.59 936.127 1405.17C936.047 1404.75 936.067 1404.32 936.185 1403.92C936.185 1403.65 943.707 1375.85 935.217 1326.1C927.694 1282.11 910.01 1262.31 909.834 1262C909.466 1261.59 909.227 1261.08 909.149 1260.54C909.071 1260 909.156 1259.44 909.394 1258.94C909.611 1258.46 909.963 1258.05 910.408 1257.76C910.852 1257.47 911.371 1257.32 911.902 1257.32H923.251L919.446 900.112C919.447 899.623 919.576 899.143 919.819 898.718C920.061 898.294 920.411 897.941 920.832 897.692C921.253 897.449 921.731 897.321 922.218 897.321C922.704 897.321 923.182 897.449 923.603 897.692C923.845 897.824 947.798 911.747 987.39 911.967H988.226C1015.87 911.586 1043.06 904.811 1067.65 892.172C1068.05 891.938 1068.51 891.811 1068.98 891.804C1069.44 891.796 1069.9 891.908 1070.31 892.129C1070.72 892.349 1071.07 892.671 1071.32 893.063C1071.57 893.456 1071.71 893.906 1071.74 894.371L1087.86 1143.42C1101.19 1066.15 1147.74 828.011 1222.78 777.972C1223.1 777.756 1223.46 777.61 1223.84 777.542C1224.22 777.474 1224.61 777.485 1224.98 777.576C1225.35 777.666 1225.7 777.83 1226 778.057C1226.3 778.283 1226.55 778.569 1226.74 778.895L1235.1 793.39C1235.31 793.739 1235.43 794.13 1235.47 794.534C1235.5 794.937 1235.44 795.343 1235.3 795.722C1228.7 813.604 1222.63 834.588 1223.27 840.46C1234.93 832.938 1292.71 769.151 1328.98 727.778L1322.38 717.77C1322.06 717.309 1321.89 716.76 1321.89 716.198C1321.89 715.635 1322.06 715.086 1322.38 714.625C1322.72 714.177 1323.19 713.84 1323.72 713.66C1324.25 713.48 1324.83 713.463 1325.37 713.613C1326.73 714.009 1359.51 723.885 1405.28 768.36C1447.27 809.139 1508.53 888.168 1561.8 1032.99C1649.78 1272.43 1664.72 1497.42 1664.87 1499.66C1664.89 1500.04 1664.84 1500.42 1664.71 1500.77C1664.58 1501.13 1664.38 1501.45 1664.12 1501.73C1663.87 1502.03 1663.56 1502.27 1663.2 1502.44C1662.85 1502.61 1662.47 1502.71 1662.08 1502.72ZM1166.01 1497.22H1659.13C1657.08 1470.1 1638.96 1258.94 1556.59 1035.01C1503.8 891.622 1443.27 813.208 1401.8 772.847C1369.82 741.723 1343.98 727.69 1331.64 722.257L1334.61 726.766C1334.94 727.268 1335.1 727.864 1335.06 728.464C1335.02 729.064 1334.78 729.634 1334.39 730.088C1334.12 730.396 1307.99 760.133 1281.6 789.123C1226.61 849.193 1223.58 847.807 1220.8 846.575C1217.04 844.881 1215.86 839.339 1222.21 817.673C1225.03 808.061 1228.42 798.581 1229.6 795.282L1223.38 784.504C1138.89 846.201 1089.84 1165.02 1089.36 1168.35C1089.25 1169.01 1088.91 1169.62 1088.38 1170.05C1087.86 1170.48 1087.2 1170.7 1086.52 1170.68C1085.85 1170.65 1085.21 1170.38 1084.72 1169.9C1084.24 1169.43 1083.95 1168.8 1083.91 1168.13L1066.49 899.21C1041.81 911.229 1014.75 917.551 987.302 917.708C955.431 917.532 933.677 908.91 924.967 904.841L928.75 1260.24C928.756 1260.61 928.689 1260.97 928.554 1261.31C928.418 1261.65 928.217 1261.95 927.961 1262.21C927.705 1262.47 927.4 1262.68 927.063 1262.82C926.727 1262.96 926.366 1263.04 926.001 1263.04H917.489C923.339 1271.37 934.843 1291.3 940.65 1325.3C947.754 1366.72 944.081 1393.12 942.387 1401.91C1002.32 1403.96 1157.44 1448.1 1164.14 1450.06C1164.72 1450.23 1165.22 1450.58 1165.57 1451.05C1165.93 1451.53 1166.12 1452.11 1166.12 1452.7L1166.01 1497.22Z" fill="#313131"/>
<path d="M1292.53 1309.73C1292.32 1309.75 1292.11 1309.75 1291.89 1309.73C1182.51 1283.51 960.709 1262.99 926 1262.97C925.271 1262.97 924.572 1262.68 924.056 1262.16C923.541 1261.65 923.251 1260.95 923.251 1260.22C923.251 1259.49 923.541 1258.79 924.056 1258.27C924.572 1257.76 925.271 1257.47 926 1257.47C960.467 1257.47 1178.57 1277.62 1289.52 1303.51C1288.04 1282.59 1281.18 1177.52 1284.2 1068.66C1288.73 905.214 1312.26 811.447 1354.18 789.892C1354.51 789.726 1354.86 789.625 1355.22 789.595C1355.58 789.564 1355.94 789.606 1356.29 789.716C1356.63 789.826 1356.95 790.003 1357.23 790.237C1357.51 790.471 1357.74 790.758 1357.9 791.08C1358.07 791.402 1358.17 791.753 1358.2 792.114C1358.23 792.476 1358.19 792.839 1358.08 793.184C1357.97 793.529 1357.79 793.849 1357.56 794.126C1357.32 794.403 1357.04 794.631 1356.71 794.797C1260.66 844.132 1294.91 1302.23 1295.26 1306.85C1295.28 1307.26 1295.21 1307.68 1295.04 1308.06C1294.88 1308.44 1294.63 1308.78 1294.31 1309.05C1293.82 1309.48 1293.19 1309.73 1292.53 1309.73Z" fill="#313131"/>
<path d="M1324.8 1318.95C1324.54 1318.99 1324.28 1318.99 1324.03 1318.95L1291.76 1309.53C1291.09 1309.31 1290.54 1308.83 1290.21 1308.2C1289.88 1307.58 1289.81 1306.85 1290 1306.17C1290.2 1305.49 1290.65 1304.91 1291.26 1304.56C1291.87 1304.2 1292.59 1304.09 1293.28 1304.25L1325.55 1313.47C1326.18 1313.65 1326.73 1314.06 1327.09 1314.62C1327.44 1315.17 1327.59 1315.83 1327.5 1316.49C1327.41 1317.14 1327.09 1317.74 1326.59 1318.18C1326.1 1318.61 1325.46 1318.85 1324.8 1318.86V1318.95Z" fill="#313131"/>
<path d="M1361.8 1503.2C1298.76 1503.2 1232.02 1479.51 1190.72 1464.91C1178.79 1460.66 1169.36 1457.32 1162.54 1455.43C1162.19 1455.33 1161.87 1455.17 1161.58 1454.94C1161.3 1454.72 1161.06 1454.45 1160.88 1454.13C1160.7 1453.82 1160.59 1453.47 1160.55 1453.11C1160.5 1452.75 1160.53 1452.39 1160.63 1452.04C1160.72 1451.69 1160.89 1451.37 1161.11 1451.08C1161.33 1450.8 1161.61 1450.56 1161.92 1450.38C1162.24 1450.21 1162.58 1450.09 1162.94 1450.05C1163.3 1450 1163.66 1450.03 1164.01 1450.13C1171.03 1452.09 1180.53 1455.45 1192.61 1459.72C1236.73 1475.36 1310.61 1501.51 1376.75 1497.22C1458.38 1491.9 1494.58 1382.18 1510.55 1291.1C1528.01 1191.57 1525.77 1092 1525.75 1090.94C1525.73 1090.21 1526 1089.51 1526.51 1088.98C1527.01 1088.45 1527.7 1088.15 1528.43 1088.13C1529.16 1088.11 1529.87 1088.38 1530.4 1088.89C1530.92 1089.39 1531.23 1090.08 1531.25 1090.81C1531.25 1091.8 1533.45 1191.86 1515.98 1291.91C1505.64 1350.82 1490.58 1398.24 1471.16 1432.88C1446.59 1476.7 1414.94 1500.17 1377.13 1502.65C1372.04 1503.03 1366.93 1503.22 1361.8 1503.2Z" fill="#313131"/>
<path d="M1091.78 1229.38C1091.09 1229.38 1090.43 1229.13 1089.92 1228.66C1089.41 1228.2 1089.09 1227.56 1089.03 1226.87L1083.88 1168.04C1083.84 1167.67 1083.87 1167.3 1083.98 1166.95C1084.08 1166.59 1084.25 1166.27 1084.49 1165.98C1084.72 1165.7 1085.01 1165.46 1085.33 1165.29C1085.66 1165.12 1086.02 1165.01 1086.38 1164.98C1086.75 1164.95 1087.12 1164.99 1087.47 1165.11C1087.82 1165.22 1088.14 1165.41 1088.42 1165.65C1088.7 1165.89 1088.92 1166.19 1089.09 1166.52C1089.25 1166.85 1089.34 1167.21 1089.36 1167.57L1094.51 1226.39C1094.54 1226.75 1094.5 1227.11 1094.4 1227.46C1094.29 1227.8 1094.12 1228.12 1093.88 1228.4C1093.65 1228.68 1093.37 1228.91 1093.05 1229.08C1092.73 1229.24 1092.38 1229.35 1092.02 1229.38H1091.78Z" fill="#313131"/>
<path d="M1163.27 1286.88C1162.54 1286.88 1161.84 1286.59 1161.32 1286.07C1160.81 1285.56 1160.52 1284.86 1160.52 1284.13C1160.52 1282.26 1160.69 1094.81 1174.24 980.789C1174.27 980.417 1174.37 980.055 1174.53 979.723C1174.7 979.391 1174.94 979.097 1175.23 978.858C1175.51 978.62 1175.84 978.443 1176.2 978.337C1176.56 978.23 1176.93 978.198 1177.3 978.241C1177.67 978.285 1178.03 978.403 1178.35 978.588C1178.68 978.774 1178.96 979.023 1179.18 979.321C1179.41 979.619 1179.57 979.959 1179.66 980.321C1179.74 980.683 1179.76 981.06 1179.7 981.427C1166.19 1095.14 1166.01 1282.26 1166.01 1284.13C1166.01 1284.86 1165.72 1285.56 1165.21 1286.07C1164.69 1286.59 1163.99 1286.88 1163.27 1286.88Z" fill="#313131"/>
<path d="M1315.58 702.791L1361.42 729.713C1361.42 729.713 1335.95 743.153 1300.91 780.303C1275.64 807.159 1227.07 905.236 1227.07 905.236L1221.9 843.847C1221.9 843.847 1203.69 882.581 1195.16 897.252C1195.16 897.252 1211.15 817.079 1214.58 792.202C1216.47 778.411 1217.2 768.007 1217.2 768.007L1232.73 794.842L1222.01 843.891L1315.58 702.791Z" fill="white"/>
<path d="M1227.07 908.073H1226.57C1225.99 907.949 1225.46 907.644 1225.07 907.201C1224.67 906.758 1224.43 906.201 1224.37 905.609L1220.04 854.228C1214.07 866.656 1203.54 888.343 1197.56 898.659C1197.22 899.218 1196.7 899.643 1196.09 899.86C1195.47 900.077 1194.8 900.072 1194.19 899.847C1193.58 899.615 1193.08 899.177 1192.77 898.609C1192.45 898.042 1192.35 897.382 1192.48 896.745C1192.63 895.931 1208.49 816.352 1211.85 791.849C1213.72 778.322 1214.45 768.006 1214.45 767.918C1214.49 767.32 1214.73 766.752 1215.13 766.303C1215.52 765.853 1216.06 765.548 1216.65 765.433C1217.22 765.295 1217.82 765.346 1218.36 765.581C1218.9 765.815 1219.35 766.219 1219.64 766.731L1235.04 793.455C1235.39 794.044 1235.5 794.745 1235.34 795.413L1227.76 830.143L1313.34 701.207C1313.72 700.618 1314.32 700.2 1315 700.04C1315.69 699.88 1316.41 699.991 1317.01 700.349L1362.85 727.271C1363.28 727.513 1363.63 727.864 1363.88 728.287C1364.12 728.71 1364.25 729.19 1364.25 729.68C1364.25 730.169 1364.12 730.649 1363.88 731.072C1363.63 731.496 1363.28 731.846 1362.85 732.088C1362.59 732.22 1337.29 745.813 1303.05 782.215C1278.34 808.456 1230.15 905.39 1229.67 906.489C1229.44 906.981 1229.07 907.394 1228.61 907.676C1228.15 907.958 1227.61 908.096 1227.07 908.073ZM1224.74 844.638L1228.99 895.382C1241.57 870.593 1277.82 800.912 1298.91 778.498C1326.05 749.64 1347.3 735.057 1355.99 729.713L1316.4 706.485L1224.74 844.638ZM1219.16 777.069C1218.74 781.248 1218.12 786.637 1217.31 792.663C1214.91 809.974 1206.31 854.426 1201.45 879.655C1209.32 864.126 1218.12 845.54 1219.29 843.033L1229.69 795.347L1219.16 777.069Z" fill="#313131"/>
<path d="M1176.02 989.479L1147.16 1281.93L1163.26 1284.13L1176.02 989.479Z" fill="#313131"/>
<path d="M1092.88 1129.32L1091.78 1223.64L1086.61 1167.82L1092.88 1129.32Z" fill="#313131"/>
<path d="M1355.46 731.978C1355.46 731.978 1304.67 770.161 1286.99 798.492C1269.3 826.822 1230.13 899.252 1230.13 899.252C1230.13 899.252 1278.1 818.287 1292.75 799.723C1312.55 774.627 1363.93 737.63 1363.93 737.63L1355.46 731.978Z" fill="#313131"/>
<path d="M1195.16 897.34L1222.85 854.999L1221.9 843.936L1195.16 897.34Z" fill="#313131"/>
<path d="M401.653 766.071C401.653 766.071 454.662 788.066 529.908 784.921C605.154 781.775 656.447 761.848 656.447 761.848L659.043 769.854C659.043 769.854 604.538 792.223 531.469 794.049C486.39 794.97 441.46 788.552 398.441 775.045L401.653 766.071Z" fill="#313131"/>
</svg>
