<svg width="2000" height="2000" viewBox="0 0 2000 2000" fill="none" xmlns="http://www.w3.org/2000/svg">
<path d="M1207.29 1204.53C1238.46 1175.59 1260.05 1125.2 1260.05 1125.2C1266.05 1120.9 1270.92 1115.2 1274.22 1108.6C1281.71 1094.83 1287.85 1079.82 1280.96 1073.82C1272.02 1066.08 1265.66 1070.11 1265.66 1070.11C1265.66 1070.11 1271.25 1056.75 1260.86 1048.69C1250.48 1040.63 1242.97 1047.49 1242.97 1047.49C1244.23 1044.09 1244.34 1040.37 1243.28 1036.91C1242.21 1033.44 1240.04 1030.42 1237.1 1028.31C1225.11 1019.22 1217.24 1025.79 1217.24 1025.79C1217.24 1025.79 1216.83 1017.3 1210.88 1012.67C1204.43 1007.68 1199.44 1003.99 1185.01 1021.49C1170.57 1039 1162.99 1066.17 1143.71 1064.09C1130.71 1062.7 1103.46 1010.03 1083.75 1033.63C1079.94 1038.19 1098.4 1058.43 1106.44 1078.6C1117.42 1106.08 1106.01 1117.79 1101.64 1153.33C1095.48 1203.69 912.607 1377.76 912.607 1377.76L831.568 1236.86L715.994 1293.46L811.423 1529.45L968.919 1535.98C968.919 1535.98 1031.9 1457.36 1089.24 1376.42C1146.59 1295.48 1187.09 1223.26 1207.29 1204.53Z" fill="white"/>
<path d="M968.92 1539.05H968.776L811.304 1532.55C810.726 1532.52 810.17 1532.32 809.699 1531.99C809.229 1531.65 808.862 1531.19 808.641 1530.65L713.237 1294.59C712.952 1293.89 712.942 1293.11 713.209 1292.4C713.476 1291.69 714 1291.11 714.676 1290.78L830.25 1234.13C830.933 1233.8 831.715 1233.74 832.441 1233.96C833.166 1234.18 833.781 1234.67 834.159 1235.33L913.303 1373.04C936.183 1351 1093.18 1198.49 1098.67 1153.04C1099.94 1143.25 1101.8 1133.54 1104.23 1123.97C1108.09 1107.95 1110.66 1097.35 1103.63 1079.77C1099.69 1070.8 1094.93 1062.2 1089.43 1054.09C1082.24 1042.74 1077.9 1035.88 1081.45 1031.76C1083.11 1029.62 1085.22 1027.87 1087.62 1026.63C1090.03 1025.38 1092.68 1024.68 1095.38 1024.56C1107.21 1024.4 1118.62 1036.8 1128.65 1047.71C1134.33 1053.92 1140.76 1060.92 1144.09 1061.28C1155.63 1062.51 1162.7 1050.92 1170.83 1037.52C1174.4 1031.32 1178.41 1025.39 1182.82 1019.77C1198.01 1001.33 1204.84 1004.3 1212.83 1010.49C1216.24 1013.3 1218.63 1017.16 1219.64 1021.47C1223.74 1020.1 1230.6 1019.65 1239.04 1026.08C1241.62 1027.94 1243.71 1030.41 1245.11 1033.26C1246.52 1036.12 1247.2 1039.27 1247.1 1042.46C1249.85 1041.87 1252.69 1041.93 1255.41 1042.61C1258.13 1043.3 1260.66 1044.6 1262.81 1046.41C1265.71 1048.72 1267.91 1051.79 1269.18 1055.27C1270.45 1058.75 1270.74 1062.52 1270 1066.15C1274.9 1066.27 1279.58 1068.23 1283.1 1071.64C1292.16 1079.51 1283.96 1097.38 1277.03 1110.02C1273.58 1116.74 1268.66 1122.6 1262.64 1127.16C1259.62 1134.05 1238.92 1179.33 1209.4 1206.72C1198.34 1216.96 1180.23 1244.9 1157.33 1280.3C1139.34 1308.07 1116.97 1342.65 1091.76 1378.22C1035.02 1458.32 971.846 1537.13 971.318 1537.92C971.031 1538.28 970.665 1538.57 970.249 1538.76C969.834 1538.96 969.379 1539.06 968.92 1539.05ZM813.486 1526.6L967.529 1532.98C975.611 1522.84 1033.96 1449.35 1086.8 1374.69C1111.93 1339.2 1134.28 1304.69 1152.22 1276.96C1176.21 1239.84 1193.64 1213 1205.25 1202.23C1235.64 1174.08 1257.2 1124.41 1257.41 1123.9C1257.66 1123.33 1258.08 1122.86 1258.61 1122.54C1264.14 1118.49 1268.63 1113.19 1271.71 1107.07C1283.17 1086.01 1282.07 1078.55 1279.12 1075.89C1272.14 1069.84 1267.51 1072.36 1267.32 1072.48C1266.77 1072.79 1266.14 1072.92 1265.51 1072.86C1264.88 1072.8 1264.29 1072.54 1263.82 1072.12C1263.34 1071.71 1263.01 1071.17 1262.87 1070.56C1262.72 1069.96 1262.77 1069.32 1263 1068.74C1263.19 1068.29 1267.53 1057.4 1259.07 1050.9C1250.6 1044.4 1244.99 1049.53 1244.92 1049.58C1244.41 1050.01 1243.76 1050.26 1243.1 1050.29C1242.43 1050.31 1241.77 1050.12 1241.22 1049.72C1240.68 1049.32 1240.29 1048.76 1240.11 1048.11C1239.92 1047.46 1239.96 1046.77 1240.22 1046.15C1241.21 1043.37 1241.27 1040.34 1240.38 1037.53C1239.5 1034.71 1237.71 1032.26 1235.3 1030.56C1225.56 1023.15 1219.4 1027.8 1219.16 1027.99C1218.73 1028.32 1218.22 1028.52 1217.68 1028.58C1217.15 1028.64 1216.6 1028.55 1216.11 1028.33C1215.62 1028.11 1215.2 1027.75 1214.89 1027.31C1214.58 1026.87 1214.4 1026.35 1214.36 1025.81C1214.36 1025.81 1213.88 1018.62 1209.13 1014.92C1203.31 1010.41 1200.09 1007.92 1187.43 1023.29C1183.22 1028.69 1179.39 1034.38 1175.99 1040.32C1167.57 1054.23 1158.84 1068.62 1143.47 1066.97C1137.88 1066.37 1131.86 1059.77 1124.28 1051.47C1115.55 1041.88 1104.64 1030.15 1095.5 1030.27C1093.68 1030.38 1091.91 1030.89 1090.3 1031.75C1088.7 1032.61 1087.3 1033.81 1086.2 1035.26C1086.2 1037.52 1090.99 1045.09 1094.54 1050.68C1100.22 1059.13 1105.13 1068.06 1109.22 1077.38C1116.94 1096.71 1114.02 1108.55 1110.11 1125.2C1107.69 1134.53 1105.87 1144.01 1104.64 1153.57C1098.4 1204.49 922.201 1372.68 914.718 1379.83C914.385 1380.14 913.985 1380.37 913.55 1380.51C913.114 1380.65 912.652 1380.68 912.2 1380.62C911.752 1380.55 911.325 1380.39 910.951 1380.14C910.576 1379.88 910.265 1379.55 910.042 1379.15L830.418 1240.56L719.904 1294.73L813.486 1526.6Z" fill="#313131"/>
<path d="M1249.57 1132.34C1247.86 1132.4 1246.18 1131.9 1244.77 1130.93C1238.47 1126.47 1242.38 1112.08 1248.49 1097.57C1240.67 1106.49 1232.06 1114.57 1225.66 1115.75C1224.59 1115.98 1223.48 1116 1222.4 1115.79C1221.32 1115.58 1220.3 1115.15 1219.4 1114.52C1212.73 1109.73 1215.49 1096.73 1221.05 1082.94C1209.49 1096.7 1196.83 1107.81 1188.92 1103.11C1184.48 1100.47 1181.36 1093.13 1196.76 1059.39L1196.9 1059.07C1187.93 1070.06 1178.22 1079.84 1171.58 1080.8C1170.53 1080.98 1169.47 1080.93 1168.45 1080.65C1167.43 1080.36 1166.48 1079.86 1165.68 1079.17C1157.72 1072.26 1166.4 1047.27 1169.25 1039.77C1169.39 1039.4 1169.6 1039.06 1169.87 1038.78C1170.14 1038.49 1170.47 1038.26 1170.83 1038.1C1171.19 1037.93 1171.58 1037.85 1171.97 1037.83C1172.36 1037.82 1172.76 1037.89 1173.12 1038.03C1173.49 1038.17 1173.83 1038.38 1174.12 1038.65C1174.4 1038.92 1174.63 1039.25 1174.8 1039.61C1174.96 1039.97 1175.05 1040.35 1175.06 1040.75C1175.07 1041.14 1175 1041.53 1174.86 1041.9C1169.71 1055.45 1166.37 1071.83 1169.61 1074.66C1169.77 1074.78 1169.96 1074.86 1170.15 1074.89C1170.35 1074.93 1170.55 1074.91 1170.74 1074.86C1179.83 1073.56 1202.52 1043.1 1214.67 1024.23C1215.1 1023.57 1215.76 1023.11 1216.52 1022.93C1217.28 1022.76 1218.07 1022.89 1218.74 1023.29C1219.41 1023.69 1219.89 1024.34 1220.09 1025.09C1220.29 1025.84 1220.19 1026.64 1219.81 1027.32C1219.81 1027.49 1210.21 1044.4 1202.2 1061.9C1187.26 1094.67 1191.91 1097.88 1191.96 1097.88C1198.7 1101.86 1222.42 1074.16 1240.38 1045.81C1240.82 1045.18 1241.49 1044.73 1242.24 1044.58C1243 1044.42 1243.78 1044.56 1244.44 1044.97C1245.09 1045.37 1245.57 1046.02 1245.76 1046.77C1245.95 1047.51 1245.85 1048.3 1245.47 1048.98C1229.69 1074.64 1216.55 1105.1 1222.85 1109.56C1223.11 1109.72 1223.4 1109.82 1223.69 1109.85C1223.99 1109.89 1224.29 1109.86 1224.58 1109.77C1233.5 1108.12 1253.02 1083.39 1263.22 1068.36C1263.66 1067.75 1264.32 1067.33 1265.06 1067.19C1265.8 1067.04 1266.57 1067.18 1267.21 1067.58C1267.85 1067.98 1268.32 1068.6 1268.52 1069.32C1268.72 1070.05 1268.64 1070.83 1268.3 1071.5C1253.53 1097.76 1244.25 1123.08 1248.32 1126.06C1250.05 1127.28 1255.76 1124.79 1259.79 1121.79C1260.42 1121.31 1261.22 1121.11 1262.01 1121.22C1262.8 1121.33 1263.51 1121.75 1263.98 1122.39C1264.46 1123.03 1264.67 1123.83 1264.55 1124.61C1264.44 1125.4 1264.02 1126.11 1263.38 1126.59C1261.83 1127.74 1255.33 1132.34 1249.57 1132.34Z" fill="#313131"/>
<path d="M1220.96 1149.16C1220.66 1149.16 1220.37 1149.11 1220.09 1149.01C1187.91 1139.42 1170.57 1109.94 1169.85 1108.7C1169.62 1108.36 1169.47 1107.97 1169.4 1107.57C1169.33 1107.17 1169.34 1106.76 1169.43 1106.36C1169.53 1105.96 1169.7 1105.59 1169.94 1105.26C1170.19 1104.93 1170.5 1104.65 1170.85 1104.45C1171.2 1104.25 1171.6 1104.12 1172 1104.07C1172.41 1104.02 1172.82 1104.06 1173.21 1104.17C1173.6 1104.29 1173.96 1104.49 1174.28 1104.75C1174.59 1105.01 1174.85 1105.33 1175.03 1105.7C1175.2 1105.99 1191.96 1134.34 1221.82 1143.28C1222.52 1143.48 1223.11 1143.93 1223.51 1144.54C1223.9 1145.15 1224.05 1145.88 1223.95 1146.59C1223.84 1147.31 1223.48 1147.96 1222.93 1148.44C1222.38 1148.91 1221.68 1149.16 1220.96 1149.16Z" fill="#313131"/>
<path d="M1162.27 1163.28C1161.79 1163.29 1161.32 1163.17 1160.9 1162.95C1160.55 1162.77 1160.24 1162.52 1159.98 1162.23C1159.73 1161.93 1159.53 1161.58 1159.41 1161.2C1159.29 1160.83 1159.25 1160.43 1159.28 1160.04C1159.31 1159.65 1159.42 1159.27 1159.61 1158.92C1176.06 1127.02 1155.79 1090.49 1155.58 1090.14C1155.38 1089.79 1155.26 1089.41 1155.21 1089.02C1155.16 1088.63 1155.19 1088.23 1155.29 1087.85C1155.4 1087.47 1155.57 1087.11 1155.82 1086.8C1156.06 1086.49 1156.36 1086.23 1156.7 1086.03C1157.05 1085.84 1157.43 1085.71 1157.82 1085.66C1158.21 1085.61 1158.61 1085.64 1158.99 1085.75C1159.37 1085.85 1159.73 1086.03 1160.04 1086.27C1160.35 1086.52 1160.61 1086.82 1160.81 1087.16C1161.72 1088.77 1182.89 1126.85 1164.93 1161.65C1164.68 1162.14 1164.3 1162.55 1163.83 1162.84C1163.36 1163.13 1162.82 1163.28 1162.27 1163.28Z" fill="#313131"/>
<path d="M613.603 1499.38L1007.77 1532.41L1010.19 1503.56L616.02 1470.53L613.603 1499.38Z" fill="#21A2FF"/>
<path d="M1007.84 1535.38H1007.6L613.491 1502.33C612.699 1502.26 611.966 1501.89 611.454 1501.28C610.941 1500.67 610.69 1499.89 610.757 1499.09L613.155 1470.31C613.183 1469.92 613.288 1469.54 613.465 1469.19C613.642 1468.84 613.887 1468.53 614.186 1468.28C614.808 1467.77 615.596 1467.52 616.393 1467.58L1010.51 1500.68C1011.3 1500.74 1012.03 1501.12 1012.54 1501.73C1013.06 1502.34 1013.31 1503.12 1013.24 1503.91L1010.84 1532.69C1010.78 1533.44 1010.44 1534.14 1009.88 1534.65C1009.33 1535.16 1008.6 1535.44 1007.84 1535.43V1535.38ZM616.92 1496.6L1005.13 1529.14L1007.05 1506.29L618.815 1473.74L616.92 1496.6Z" fill="#313131"/>
<path d="M1332.21 1259.5L941.53 1226.77L830.152 1517.08L1220.84 1549.84L1332.21 1259.5Z" fill="#21A2FF"/>
<path opacity="0.15" d="M963.834 1228.64L941.53 1226.77L830.152 1517.08L853.008 1519L963.834 1228.64Z" fill="white"/>
<path d="M1220.84 1552.84H1220.6L829.889 1520.08C829.427 1520.04 828.98 1519.89 828.585 1519.65C828.189 1519.41 827.855 1519.08 827.609 1518.68C827.362 1518.29 827.21 1517.85 827.165 1517.39C827.119 1516.92 827.182 1516.46 827.347 1516.02L938.724 1225.69C938.962 1225.08 939.385 1224.57 939.933 1224.23C940.481 1223.88 941.124 1223.72 941.77 1223.77L1332.48 1256.53C1332.94 1256.57 1333.39 1256.72 1333.78 1256.96C1334.18 1257.2 1334.51 1257.53 1334.76 1257.92C1335 1258.31 1335.16 1258.76 1335.2 1259.22C1335.25 1259.68 1335.18 1260.15 1335.02 1260.58L1223.64 1551.04C1223.41 1551.59 1223.02 1552.05 1222.52 1552.37C1222.01 1552.69 1221.43 1552.85 1220.84 1552.84ZM834.374 1514.47L1218.85 1546.7L1327.99 1262.19L943.52 1229.93L834.374 1514.47Z" fill="#313131"/>
<path d="M853.008 1522H852.769L829.889 1520.08C829.427 1520.04 828.98 1519.89 828.585 1519.65C828.189 1519.41 827.855 1519.08 827.609 1518.68C827.362 1518.29 827.21 1517.85 827.165 1517.39C827.119 1516.92 827.182 1516.46 827.347 1516.02L938.724 1225.69C938.962 1225.08 939.385 1224.57 939.933 1224.23C940.481 1223.88 941.124 1223.72 941.77 1223.77L964.098 1225.64C964.56 1225.68 965.006 1225.82 965.402 1226.07C965.797 1226.31 966.132 1226.64 966.378 1227.03C966.624 1227.42 966.776 1227.87 966.822 1228.33C966.867 1228.79 966.805 1229.26 966.64 1229.69L855.718 1520.08C855.506 1520.63 855.135 1521.11 854.653 1521.45C854.171 1521.79 853.599 1521.98 853.008 1522ZM834.374 1514.44L851.018 1515.83L959.613 1231.27L943.52 1229.93L834.374 1514.44Z" fill="#313131"/>
<path d="M1134.61 1404.6C1146.79 1382.69 1143.11 1357.4 1126.39 1348.11C1109.67 1338.82 1086.25 1349.04 1074.07 1370.94C1061.9 1392.85 1065.58 1418.14 1082.29 1427.43C1099.01 1436.72 1122.43 1426.5 1134.61 1404.6Z" fill="white"/>
<path d="M1095.86 1433.93C1090.61 1433.97 1085.44 1432.64 1080.85 1430.09C1071.93 1425.13 1066.07 1416.02 1064.4 1404.38C1062.94 1392.3 1065.46 1380.07 1071.57 1369.54C1084.54 1346.23 1109.94 1335.46 1127.97 1345.55C1146.01 1355.65 1150.33 1382.8 1137.35 1406.11C1131.61 1416.84 1122.52 1425.4 1111.47 1430.5C1106.56 1432.72 1101.25 1433.89 1095.86 1433.93ZM1076.67 1372.46C1071.21 1381.88 1068.97 1392.83 1070.3 1403.64C1071.71 1413.23 1076.48 1420.93 1083.73 1424.96C1090.97 1428.99 1099.94 1429.04 1108.93 1425.11C1118.78 1420.52 1126.87 1412.86 1131.98 1403.28C1143.32 1382.87 1140.16 1359.37 1124.9 1350.88C1109.65 1342.39 1088.04 1351.98 1076.7 1372.46H1076.67Z" fill="#313131"/>
<path d="M235.084 1432.85C249.474 1491.35 286.983 1715.47 398.696 1709.28C510.409 1703.09 780.986 1595.31 842.958 1586.97C904.93 1578.62 1053.51 1568.09 1054.13 1535.86L1040.03 1534.68L884.497 1521.66C884.497 1521.66 928.41 1497.49 914.38 1484.13C908.36 1478.39 824.227 1506.72 777.676 1513.1C731.125 1519.48 477.433 1537.97 477.433 1537.97L447.862 1394.07L339.026 1362.29L235.084 1432.85Z" fill="white"/>
<path d="M394.166 1712.4C294.205 1712.4 254.249 1532.38 237.029 1454.82C235.158 1446.45 233.552 1439.21 232.232 1433.55C232.087 1432.95 232.127 1432.33 232.345 1431.76C232.564 1431.19 232.951 1430.7 233.456 1430.36L337.518 1359.82C337.886 1359.57 338.306 1359.41 338.746 1359.34C339.185 1359.28 339.635 1359.31 340.06 1359.44L448.919 1391.22C449.44 1391.37 449.908 1391.67 450.276 1392.07C450.643 1392.47 450.895 1392.96 451.006 1393.49L480.025 1534.78C507.126 1532.79 734.126 1516.1 777.415 1510.12C799 1507.15 829.003 1499.38 855.432 1492.5C898.266 1481.37 912.464 1478.11 916.517 1481.94C917.87 1483.15 918.905 1484.67 919.532 1486.38C920.159 1488.08 920.359 1489.91 920.114 1491.71C918.795 1501.95 903.83 1513.15 894.069 1519.43L1054.4 1532.88C1055.16 1532.94 1055.88 1533.29 1056.39 1533.85C1056.91 1534.42 1057.19 1535.16 1057.18 1535.93C1056.65 1563.41 977.074 1574.64 880.974 1585.48C867.016 1587.06 853.825 1588.55 843.392 1589.94C819.793 1593.11 764.416 1611.26 700.286 1632.27C596.703 1666.16 467.866 1708.44 398.843 1712.28C397.284 1712.35 395.701 1712.4 394.166 1712.4ZM238.492 1434.19C239.763 1439.54 241.226 1446.19 242.881 1453.55C259.669 1529.67 299.025 1706.43 394.19 1706.43C395.629 1706.43 397.068 1706.43 398.531 1706.43C466.763 1702.64 595.192 1660.55 698.319 1626.73C762.713 1605.62 818.354 1587.4 842.505 1584.14C852.986 1582.72 866.224 1581.23 880.206 1579.65C941.507 1572.74 1042.48 1561.35 1050.49 1538.71L884.284 1524.66C883.641 1524.6 883.034 1524.33 882.555 1523.9C882.075 1523.47 881.748 1522.89 881.621 1522.26C881.481 1521.63 881.55 1520.97 881.818 1520.38C882.086 1519.79 882.539 1519.31 883.108 1519C891.311 1514.47 912.895 1500.6 914.142 1490.89C914.258 1490.08 914.174 1489.25 913.899 1488.48C913.623 1487.7 913.163 1487.01 912.56 1486.45C907.979 1485.01 880.854 1492.07 856.895 1498.28C830.322 1505.18 800.199 1513.03 778.206 1516.05C732.183 1522.38 480.337 1540.75 477.795 1540.92C477.065 1540.97 476.341 1540.76 475.758 1540.32C475.175 1539.88 474.773 1539.24 474.629 1538.52L445.442 1396.42L339.676 1365.53L238.492 1434.19Z" fill="#313131"/>
<path d="M278.47 861.791C304.259 861.791 325.165 840.885 325.165 815.096C325.165 789.307 304.259 768.401 278.47 768.401C252.681 768.401 231.775 789.307 231.775 815.096C231.775 840.885 252.681 861.791 278.47 861.791Z" fill="#313131"/>
<path d="M418.125 810.9C440.139 810.9 457.985 793.054 457.985 771.04C457.985 749.027 440.139 731.181 418.125 731.181C396.111 731.181 378.266 749.027 378.266 771.04C378.266 793.054 396.111 810.9 418.125 810.9Z" fill="#313131"/>
<path d="M278.518 864.837C269.696 864.849 261.029 862.514 253.408 858.07C245.786 853.627 239.485 847.235 235.149 839.551C230.814 831.868 228.601 823.169 228.738 814.348C228.875 805.527 231.357 796.901 235.929 789.356C240.501 781.81 246.999 775.618 254.754 771.413C262.51 767.208 271.245 765.143 280.063 765.43C288.88 765.716 297.463 768.343 304.93 773.042C312.397 777.741 318.478 784.342 322.551 792.168C326.478 799.743 328.391 808.2 328.108 816.727C327.824 825.254 325.353 833.565 320.931 840.862C316.51 848.159 310.287 854.196 302.859 858.395C295.432 862.593 287.05 864.812 278.518 864.837ZM278.398 771.423C268.863 771.44 259.595 774.575 252.008 780.351C244.421 786.126 238.932 794.225 236.377 803.411C233.822 812.598 234.342 822.368 237.857 831.231C241.373 840.094 247.691 847.565 255.848 852.502C264.005 857.44 273.553 859.574 283.036 858.579C292.519 857.583 301.417 853.514 308.371 846.99C315.325 840.467 319.955 831.848 321.554 822.448C323.153 813.047 321.633 803.382 317.227 794.926C313.526 787.83 307.948 781.886 301.101 777.741C294.255 773.597 286.402 771.412 278.398 771.423Z" fill="#313131"/>
<path d="M418.175 813.921C411.998 813.922 405.893 812.587 400.28 810.008C394.667 807.429 389.678 803.668 385.654 798.981C381.63 794.294 378.667 788.793 376.968 782.854C375.269 776.915 374.873 770.679 375.809 764.573C376.744 758.467 378.989 752.636 382.388 747.478C385.787 742.321 390.261 737.959 395.504 734.692C400.746 731.424 406.633 729.329 412.761 728.549C418.888 727.769 425.112 728.323 431.006 730.173C436.385 731.841 441.379 734.565 445.694 738.184C450.01 741.804 453.561 746.247 456.14 751.254C459.536 757.784 461.194 765.079 460.955 772.435C460.715 779.792 458.586 786.963 454.772 793.259C450.958 799.554 445.588 804.762 439.178 808.381C432.769 812 425.535 813.908 418.175 813.921ZM418.175 734.154C410.125 734.157 402.297 736.794 395.886 741.663C389.474 746.531 384.831 753.363 382.666 761.116C380.5 768.869 380.93 777.118 383.89 784.604C386.85 792.09 392.178 798.402 399.061 802.577C405.944 806.752 414.003 808.561 422.01 807.727C430.017 806.894 437.531 803.464 443.407 797.961C449.282 792.458 453.196 785.184 454.551 777.249C455.906 769.313 454.628 761.153 450.912 754.012C447.787 748.03 443.084 743.017 437.313 739.516C431.543 736.016 424.924 734.161 418.175 734.154Z" fill="#313131"/>
<path d="M501.826 1065.72L661.793 1418.58L380.951 1101.05L333.297 945.06L449.639 907.119L501.826 1065.72Z" fill="white"/>
<path d="M661.79 1421.53C661.363 1421.53 660.941 1421.44 660.552 1421.26C660.164 1421.08 659.817 1420.82 659.536 1420.5L378.718 1103.04C378.433 1102.71 378.22 1102.33 378.095 1101.91L330.488 945.948C330.261 945.194 330.337 944.382 330.699 943.683C331.062 942.984 331.683 942.455 332.431 942.207L448.773 904.266C449.53 904.023 450.352 904.088 451.061 904.447C451.77 904.806 452.31 905.43 452.562 906.184L504.701 1064.64L664.596 1417.33C664.889 1417.99 664.938 1418.72 664.736 1419.41C664.534 1420.1 664.093 1420.69 663.493 1421.08C662.985 1421.4 662.391 1421.56 661.79 1421.53ZM383.587 1099.49L650.782 1401.67L499.089 1066.97C499.089 1066.97 499.089 1066.75 498.969 1066.65L447.717 910.909L337.012 947.003L383.587 1099.49Z" fill="#313131"/>
<path d="M340.084 965.373L359.27 1023.44C359.27 1023.44 379.224 1014.71 431.028 978.756L340.084 965.373Z" fill="#313131"/>
<path d="M359.03 1026.43C358.609 1026.43 358.193 1026.34 357.807 1026.17C357.429 1026 357.09 1025.75 356.813 1025.44C356.536 1025.13 356.328 1024.77 356.2 1024.37L339.412 973.168C339.263 972.699 339.23 972.202 339.317 971.718C339.403 971.234 339.607 970.779 339.909 970.391C340.212 970.004 340.604 969.696 341.052 969.494C341.501 969.293 341.991 969.204 342.482 969.235L431.051 975.758C431.673 975.8 432.267 976.035 432.749 976.43C433.232 976.825 433.579 977.361 433.742 977.962C433.906 978.564 433.878 979.202 433.662 979.787C433.446 980.372 433.054 980.875 432.538 981.226C381.095 1016.91 361.117 1025.81 360.277 1026.17C359.885 1026.35 359.46 1026.44 359.03 1026.43ZM346.463 975.446L360.853 1019.14C367.688 1015.64 386.707 1005.26 422.13 981.034L346.463 975.446Z" fill="#313131"/>
<path d="M469.378 865.916C484.679 918.319 480.41 964.247 418.222 983.793C374.932 997.367 326.966 964.367 311.665 911.844C296.364 859.321 319.292 806.678 362.845 793.967C406.398 781.256 454.1 813.537 469.378 865.916Z" fill="white"/>
<path d="M398.457 989.837C385.265 989.726 372.307 986.33 360.756 979.956C336.317 966.789 317.395 942.35 308.785 912.803C293.052 858.913 316.915 804.376 362.003 791.209C407.091 778.042 456.52 811.187 472.325 865.077C491.32 930.119 473.932 969.883 419.179 986.671C412.47 988.76 405.484 989.827 398.457 989.837ZM382.245 794.423C375.963 794.411 369.712 795.299 363.682 797.061C321.784 809.292 299.743 860.52 314.541 911.22C322.695 939.136 340.586 962.28 363.586 974.679C371.665 979.276 380.584 982.208 389.816 983.299C399.047 984.391 408.403 983.621 417.332 981.035C468.992 965.182 484.629 928.92 466.497 866.851C453.858 823.466 418.411 794.327 382.245 794.327V794.423Z" fill="#313131"/>
<path d="M463.812 850.734C463.812 850.734 451.221 811.018 424.48 790.417C398.339 770.295 364.523 768.04 335.023 785.884C300.08 807.061 271.636 849.175 296.123 912.49C308.906 945.803 340.899 968.251 340.899 968.251L326.198 943.668C326.198 943.668 338.861 938.872 337.326 932.444C337.326 932.444 301.159 906.662 315.357 889.155C328.404 873.11 341.547 896.35 341.547 896.35C355.493 885.339 368.801 873.545 381.407 861.023C394.743 847.06 406.964 832.072 417.957 816.198L463.812 850.734Z" fill="#313131"/>
<path d="M340.897 971.177C340.281 971.18 339.679 970.996 339.17 970.65C337.827 969.714 306.361 947.338 293.314 913.546C272.545 859.8 287.558 811.114 333.486 783.294C363.417 765.163 398.984 766.985 426.3 788.091C453.617 809.196 466.136 848.216 466.664 849.895C466.855 850.502 466.849 851.155 466.644 851.758C466.44 852.361 466.049 852.883 465.528 853.25C465.007 853.616 464.383 853.806 463.746 853.794C463.11 853.781 462.494 853.567 461.987 853.181L418.626 820.372C408.012 835.45 396.283 849.711 383.539 863.038C370.828 875.639 357.425 887.521 343.391 898.628C343.054 898.886 342.665 899.069 342.252 899.164C341.838 899.259 341.409 899.265 340.993 899.18C340.574 899.096 340.179 898.924 339.831 898.676C339.484 898.428 339.193 898.11 338.978 897.741C337.299 894.767 331.639 886.973 325.835 886.517C323.029 886.277 320.391 887.764 317.729 891.05C316.705 892.302 315.961 893.759 315.547 895.323C315.133 896.886 315.06 898.521 315.331 900.115C317.249 914.145 339.002 929.83 339.314 929.998C339.913 930.412 340.333 931.038 340.489 931.749C342.024 938.128 335.117 942.757 330.752 945.012L343.727 966.716C344.006 967.169 344.158 967.689 344.168 968.221C344.177 968.753 344.044 969.278 343.782 969.74C343.52 970.203 343.139 970.588 342.678 970.853C342.216 971.118 341.693 971.255 341.161 971.249L340.897 971.177ZM376.871 776.675C362.585 776.809 348.612 780.875 336.484 788.426C315.739 801.017 270.507 838.143 298.806 911.387C305.858 929.639 318.952 944.652 328.977 954.245L323.533 945.132C323.308 944.757 323.167 944.338 323.121 943.903C323.075 943.468 323.124 943.029 323.266 942.615C323.408 942.201 323.638 941.824 323.941 941.509C324.244 941.193 324.612 940.948 325.02 940.791C328.737 939.352 333.654 936.306 334.277 933.931C329.337 930.166 311.134 915.512 309.143 900.859C308.768 898.442 308.911 895.972 309.565 893.615C310.218 891.258 311.366 889.067 312.933 887.189C316.89 882.392 321.351 879.994 326.195 880.473C333.39 881.073 339.29 887.788 342.144 891.793C355.071 881.458 367.432 870.434 379.174 858.769C392.383 844.92 404.491 830.061 415.388 814.328C415.617 813.992 415.913 813.706 416.256 813.488C416.599 813.269 416.984 813.123 417.385 813.058C417.787 812.993 418.198 813.01 418.592 813.109C418.987 813.208 419.357 813.386 419.681 813.632L457.191 842.028C451.77 829.173 440.402 806.438 422.535 792.767C409.562 782.478 393.525 776.815 376.967 776.675H376.871Z" fill="#313131"/>
<path d="M435.536 904.435C434.803 904.445 434.092 904.186 433.537 903.707C432.982 903.228 432.622 902.562 432.525 901.836C432.427 901.11 432.599 900.373 433.008 899.764C433.417 899.156 434.035 898.719 434.745 898.535C438.021 897.675 441.228 896.569 444.338 895.226C443.331 890.981 438.63 877.742 434.145 865.99C433.973 865.617 433.879 865.213 433.869 864.802C433.86 864.391 433.935 863.983 434.089 863.602C434.244 863.222 434.476 862.877 434.769 862.59C435.063 862.302 435.413 862.078 435.797 861.932C436.18 861.785 436.59 861.719 437.001 861.737C437.411 861.756 437.813 861.858 438.183 862.039C438.552 862.219 438.88 862.474 439.147 862.786C439.413 863.099 439.613 863.463 439.733 863.856C451.533 894.698 450.789 896.425 450.262 897.672C449.734 898.919 448.919 900.91 436.304 904.315C436.054 904.388 435.796 904.429 435.536 904.435Z" fill="#313131"/>
<path d="M395.366 885.27C395.112 885.304 394.854 885.304 394.599 885.27C393.832 885.062 393.178 884.56 392.779 883.873C392.379 883.187 392.266 882.37 392.465 881.601C392.465 881.409 398.268 860.448 420.189 858.457C420.974 858.4 421.75 858.654 422.349 859.164C422.949 859.674 423.323 860.399 423.393 861.183C423.462 861.967 423.22 862.747 422.719 863.354C422.219 863.962 421.499 864.347 420.717 864.429C403.065 866.036 398.46 882.44 398.268 883.136C398.081 883.758 397.697 884.302 397.174 884.687C396.65 885.072 396.016 885.277 395.366 885.27Z" fill="#313131"/>
<path d="M441.219 855.269C440.603 855.268 440.002 855.078 439.498 854.724C438.994 854.371 438.611 853.87 438.402 853.291C438.192 852.712 438.166 852.082 438.327 851.488C438.488 850.893 438.828 850.363 439.301 849.968C442.961 846.965 447.509 845.248 452.241 845.083C456.974 844.919 461.629 846.315 465.49 849.057C466.134 849.519 466.569 850.218 466.699 851C466.83 851.782 466.645 852.584 466.186 853.23C465.719 853.876 465.016 854.311 464.23 854.441C463.444 854.572 462.639 854.386 461.989 853.925C452.395 847.138 443.474 854.285 443.114 854.597C442.577 855.029 441.909 855.266 441.219 855.269Z" fill="#313131"/>
<path d="M327.179 911.675C326.484 911.672 325.811 911.427 325.277 910.983C324.742 910.538 324.378 909.922 324.248 909.239C324.118 908.556 324.229 907.849 324.562 907.239C324.896 906.629 325.431 906.154 326.076 905.895L320.896 901.099C320.589 900.837 320.338 900.516 320.159 900.156C319.979 899.795 319.874 899.402 319.849 899C319.825 898.598 319.882 898.195 320.016 897.815C320.151 897.436 320.361 897.087 320.634 896.79C320.906 896.494 321.236 896.255 321.603 896.088C321.97 895.922 322.366 895.831 322.769 895.821C323.172 895.811 323.572 895.883 323.947 896.031C324.321 896.18 324.662 896.402 324.949 896.686L333.75 904.792C334.127 905.141 334.407 905.58 334.564 906.069C334.722 906.557 334.752 907.077 334.651 907.58C334.55 908.083 334.321 908.552 333.987 908.941C333.653 909.331 333.225 909.628 332.743 909.804L328.21 911.459C327.882 911.591 327.533 911.664 327.179 911.675Z" fill="#313131"/>
<path d="M420.645 888.555C422.552 888.555 424.099 887.009 424.099 885.102C424.099 883.195 422.552 881.648 420.645 881.648C418.738 881.648 417.191 883.195 417.191 885.102C417.191 887.009 418.738 888.555 420.645 888.555Z" fill="#313131"/>
<path d="M456.235 874.813C458.142 874.813 459.688 873.267 459.688 871.36C459.688 869.452 458.142 867.906 456.235 867.906C454.327 867.906 452.781 869.452 452.781 871.36C452.781 873.267 454.327 874.813 456.235 874.813Z" fill="#313131"/>
<path d="M422.587 928.055C412.178 928.055 405.799 919.014 403.568 913.354C403.321 912.621 403.365 911.822 403.693 911.121C404.021 910.421 404.607 909.875 405.328 909.596C406.049 909.317 406.85 909.328 407.564 909.626C408.277 909.924 408.848 910.486 409.157 911.195C409.396 911.843 414.841 925.273 427.048 921.316C427.43 921.157 427.841 921.079 428.255 921.087C428.669 921.094 429.077 921.187 429.453 921.36C429.829 921.533 430.165 921.782 430.44 922.092C430.715 922.401 430.923 922.764 431.051 923.158C431.179 923.551 431.224 923.967 431.183 924.379C431.142 924.791 431.017 925.19 430.814 925.551C430.612 925.912 430.336 926.227 430.006 926.477C429.676 926.726 429.297 926.904 428.895 927C426.863 927.69 424.733 928.047 422.587 928.055Z" fill="#313131"/>
<path d="M337.47 947.41C344.517 947.41 350.229 941.698 350.229 934.652C350.229 927.605 344.517 921.893 337.47 921.893C330.423 921.893 324.711 927.605 324.711 934.652C324.711 941.698 330.423 947.41 337.47 947.41Z" fill="#FFA620"/>
<path d="M337.496 950.41H336.153C333.041 950.152 330.075 948.977 327.632 947.033C325.188 945.089 323.376 942.463 322.425 939.489C321.474 936.515 321.427 933.325 322.29 930.324C323.152 927.323 324.886 924.645 327.271 922.63C329.656 920.614 332.585 919.352 335.688 919.002C338.791 918.652 341.928 919.23 344.702 920.664C347.476 922.097 349.762 924.322 351.272 927.055C352.781 929.789 353.445 932.909 353.181 936.02C352.839 939.946 351.039 943.6 348.135 946.264C345.232 948.928 341.436 950.407 337.496 950.41ZM337.496 924.868C335.595 924.865 333.734 925.417 332.141 926.454C330.548 927.492 329.292 928.971 328.526 930.711C327.76 932.451 327.518 934.377 327.828 936.252C328.139 938.128 328.989 939.872 330.276 941.273C331.562 942.673 333.228 943.668 335.07 944.136C336.913 944.605 338.852 944.527 340.651 943.911C342.449 943.295 344.03 942.169 345.199 940.67C346.368 939.171 347.074 937.363 347.233 935.469C347.341 934.19 347.197 932.902 346.807 931.679C346.417 930.456 345.789 929.322 344.961 928.342C344.132 927.362 343.118 926.555 341.977 925.967C340.836 925.379 339.59 925.022 338.311 924.916L337.496 924.868Z" fill="#313131"/>
<path d="M880.227 1253.22C844.253 1242.5 834.443 1289.72 819.502 1298.78C798.133 1311.71 783.527 1300.39 761.703 1307.01C755.276 1308.92 749.293 1312.1 744.105 1316.35C738.917 1320.6 734.627 1325.84 731.484 1331.76L793.576 1485.25L616.102 1470.38L613.703 1499.16L776.38 1512.81C773.095 1513.31 769.569 1513.84 765.732 1514.37C741.605 1517.8 477.6 1537.8 477.6 1537.8L452.25 1414.43C406.034 1413.93 393.036 1454.39 363.92 1463.31C334.805 1472.23 307.752 1455.15 266.357 1455.56C224.962 1455.97 191.626 1521.16 191.626 1521.16C191.626 1521.16 175.174 1202.73 213.402 1163.21C251.631 1123.68 378.262 1091.98 378.262 1091.98C378.262 1091.98 449.779 1147.55 485.274 1132.05C520.769 1116.56 501.871 1065.55 501.871 1065.55C501.871 1065.55 640.972 1053.15 676.275 1060.92C711.578 1068.69 880.227 1253.22 880.227 1253.22Z" fill="white"/>
<path d="M477.578 1540.97C476.886 1540.97 476.216 1540.73 475.679 1540.29C475.142 1539.85 474.771 1539.25 474.628 1538.57L449.782 1417.6C424.432 1418.15 409.874 1431.77 395.796 1444.94C386.059 1454.03 376.873 1462.64 364.786 1466.33C347.638 1471.61 331.617 1468.32 313.054 1464.51C299.48 1461.7 284.131 1458.54 266.359 1458.71C227.267 1459.09 194.602 1522.04 194.266 1522.69C193.968 1523.28 193.484 1523.75 192.889 1524.03C192.295 1524.31 191.624 1524.39 190.981 1524.25C190.331 1524.12 189.744 1523.77 189.31 1523.27C188.877 1522.76 188.621 1522.13 188.582 1521.47C187.911 1508.42 172.514 1201.3 211.198 1161.29C249.883 1121.29 372.292 1090.54 377.497 1089.34C377.937 1089.23 378.396 1089.22 378.841 1089.31C379.285 1089.4 379.703 1089.59 380.063 1089.87C380.758 1090.42 450.549 1144.17 484.029 1129.56C516.526 1115.39 499.187 1067.21 498.995 1066.85C498.839 1066.41 498.784 1065.95 498.834 1065.49C498.884 1065.04 499.037 1064.6 499.283 1064.21C499.529 1063.82 499.86 1063.5 500.251 1063.26C500.641 1063.01 501.081 1062.86 501.537 1062.82C507.245 1062.31 641.55 1050.49 676.877 1058.26C712.636 1066.1 875.505 1243.75 882.412 1251.3C882.81 1251.79 883.044 1252.39 883.08 1253.02C883.116 1253.65 882.952 1254.28 882.612 1254.81C882.272 1255.34 881.773 1255.75 881.185 1255.98C880.598 1256.21 879.953 1256.25 879.342 1256.1C856.99 1249.43 845.766 1267.42 835.693 1283.27C830.704 1291.23 826.387 1298.09 821.039 1301.35C807.992 1309.24 797.056 1308.55 786.647 1308.07C778.611 1307.19 770.48 1307.8 762.664 1309.87C750.946 1313.44 741.02 1321.32 734.892 1331.93L796.457 1484.25C796.645 1484.72 796.71 1485.24 796.643 1485.75C796.577 1486.26 796.383 1486.74 796.078 1487.15C795.773 1487.57 795.368 1487.9 794.902 1488.11C794.435 1488.32 793.922 1488.41 793.411 1488.37L618.91 1473.74L616.991 1496.6L776.575 1510.01C777.303 1510.07 777.983 1510.4 778.485 1510.93C778.987 1511.47 779.277 1512.16 779.301 1512.89C779.325 1513.63 779.08 1514.34 778.613 1514.9C778.146 1515.47 777.489 1515.84 776.766 1515.95C773.505 1516.46 769.955 1516.98 766.118 1517.51C742.135 1520.92 488.562 1540.13 477.77 1540.94L477.578 1540.97ZM451.388 1411.58H452.252C452.939 1411.58 453.605 1411.82 454.135 1412.25C454.665 1412.69 455.025 1413.3 455.154 1413.98L479.976 1534.78C503.959 1532.93 685.103 1519.17 746.644 1513.51L613.49 1502.33C612.698 1502.26 611.965 1501.88 611.453 1501.28C610.94 1500.67 610.689 1499.88 610.756 1499.09L613.154 1470.31C613.231 1469.52 613.609 1468.79 614.209 1468.27C614.826 1467.78 615.603 1467.53 616.392 1467.58L789.07 1481.97L728.608 1332.79C728.442 1332.42 728.356 1332.01 728.356 1331.6C728.356 1331.18 728.442 1330.77 728.608 1330.4C731.916 1324.07 736.461 1318.48 741.974 1313.95C747.487 1309.41 753.854 1306.04 760.698 1304.01C769.214 1301.7 778.089 1301 786.863 1301.95C797.32 1302.53 806.362 1303.03 817.801 1296.1C821.951 1293.7 826.1 1286.96 830.512 1279.96C839.314 1265.95 850.946 1247.41 871.883 1248.59C811.926 1183.6 701.723 1069.65 675.462 1063.92C644.284 1057.04 528.062 1066.32 505.686 1068.29C509.308 1080.73 518.157 1121.05 486.308 1134.86C481.365 1136.92 476.049 1137.93 470.695 1137.84C435.152 1137.84 385.915 1101.86 377.425 1095.31C363.539 1098.91 250.459 1129.11 215.395 1165.37C182.323 1199.54 191.58 1455.56 193.978 1510.72C205.059 1492.35 232.711 1452.97 266.167 1452.66C284.442 1452.47 300.247 1455.73 314.133 1458.59C331.881 1462.23 347.23 1465.37 362.891 1460.55C373.683 1457.27 382.365 1449.11 391.671 1440.5C406.228 1426.98 422.681 1411.58 451.388 1411.58Z" fill="#313131"/>
<path d="M996.089 695.923C996.089 695.923 1025.59 793.774 1124.71 801.88C1223.83 809.986 1290.07 717.172 1290.07 717.172C1290.07 717.172 1346.65 835.408 1471.27 808.451C1595.88 781.494 1592 688.057 1592 688.057C1592 688.057 1711.62 718.179 1713.59 613.709C1715.6 507.488 1601.85 534.949 1601.85 534.949C1601.85 534.949 1613.12 491.779 1571.78 468.276C1530.43 444.773 1493.04 485.855 1493.04 485.855C1493.04 485.855 1546.21 345.747 1411.02 310.084C1269.52 272.766 1219.73 384.863 1219.73 384.863C1219.73 384.863 1201.1 264.3 1051.99 296.461C929.824 322.843 943.638 430.143 943.638 430.143C943.638 430.143 707.429 393.065 744.891 621.48C770.025 774.635 996.089 695.923 996.089 695.923Z" fill="white"/>
<path d="M1435.41 815.408C1388.67 815.408 1354.16 794.734 1331.95 775.164C1315.01 760.161 1300.69 742.433 1289.59 722.713C1276.26 739.502 1218.39 805.359 1136.85 805.359C1132.77 805.359 1128.64 805.215 1124.47 804.855C1034.25 797.493 1000.21 716.262 994.219 699.714C974.289 706.213 860.753 740.485 791.682 699.402C764.581 683.213 747.793 657.144 741.941 621.961C730.933 554.808 742.301 503.772 775.757 470.1C829.143 416.33 920.399 424.196 940.329 426.667C939.41 408.05 942.434 389.449 949.203 372.081C960.259 343.925 986.952 307.327 1051.37 293.537C1101.97 282.625 1143.32 287.853 1174.21 309.126C1205.1 330.399 1216.85 361.577 1220.86 376.278C1231.05 358.835 1244.5 343.512 1260.48 331.142C1288.51 309.414 1337.51 287.637 1411.79 307.159C1450.9 317.496 1478.34 337.474 1493.33 366.565C1514.46 407.672 1505.13 455.302 1499.28 476.192C1513.12 465.184 1542.18 447.964 1573.27 465.639C1608.06 485.425 1607.23 518.93 1605.59 531.089C1619.41 528.547 1662 523.151 1690.52 546.03C1708.41 560.42 1717.19 583.18 1716.61 613.734C1716.08 642.514 1706.68 664.099 1688.67 677.913C1656.94 702.16 1608.71 694.581 1594.97 691.751C1594 708.516 1589.27 724.847 1581.11 739.526C1567.51 764.444 1537.53 797.085 1471.91 811.355C1459.92 814.001 1447.69 815.36 1435.41 815.408ZM1290.07 714.175H1290.34C1290.85 714.232 1291.34 714.417 1291.76 714.715C1292.18 715.013 1292.51 715.414 1292.74 715.878C1303.71 736.636 1318.33 755.247 1335.91 770.823C1374.57 804.807 1419.85 816.391 1470.45 805.527C1520.5 794.687 1556.79 770.967 1575.5 736.959C1583.91 722.052 1588.49 705.291 1588.83 688.178C1588.82 687.72 1588.91 687.265 1589.1 686.848C1589.29 686.432 1589.58 686.066 1589.93 685.78C1590.29 685.487 1590.72 685.28 1591.17 685.177C1591.62 685.073 1592.1 685.074 1592.55 685.18C1593.12 685.324 1650.63 699.378 1684.86 673.188C1701.31 660.597 1709.92 640.572 1710.42 613.663C1710.98 585.099 1702.94 563.922 1686.59 550.779C1655.19 525.549 1602.93 537.756 1602.4 537.876C1601.9 538 1601.37 537.989 1600.87 537.846C1600.37 537.703 1599.91 537.433 1599.55 537.061C1599.19 536.689 1598.93 536.232 1598.8 535.733C1598.66 535.234 1598.66 534.708 1598.78 534.207C1599.22 532.528 1608.93 492.98 1570.12 470.891C1531.32 448.803 1496.57 486.289 1495.1 487.895C1494.63 488.397 1493.99 488.719 1493.31 488.808C1492.62 488.897 1491.92 488.749 1491.33 488.386C1490.74 488.024 1490.3 487.471 1490.07 486.818C1489.84 486.166 1489.84 485.454 1490.07 484.802C1490.31 484.178 1514.05 420.239 1487.67 369.323C1473.52 341.815 1447.35 322.868 1409.96 313.011C1338.02 294.041 1290.84 314.978 1263.86 335.867C1246.4 349.293 1232.16 366.451 1222.18 386.087C1221.92 386.682 1221.47 387.175 1220.91 387.494C1220.34 387.813 1219.69 387.94 1219.04 387.857C1218.4 387.773 1217.8 387.483 1217.34 387.03C1216.87 386.576 1216.57 385.985 1216.47 385.344C1216.47 384.888 1209.08 340.568 1170.47 314.042C1140.97 293.801 1101.23 288.86 1052.35 299.413C1002.71 310.109 969.804 335.387 954.503 374.312C947.601 391.942 944.804 410.913 946.325 429.785C946.364 430.225 946.305 430.669 946.152 431.084C945.998 431.499 945.754 431.874 945.437 432.183C945.107 432.516 944.701 432.764 944.254 432.906C943.807 433.048 943.333 433.08 942.871 432.998C941.816 432.83 836.41 417.098 779.786 474.249C747.769 506.482 736.953 555.791 747.649 620.905C753.117 654.242 768.898 678.896 794.536 694.15C866.485 736.911 993.595 693.43 994.866 692.998C995.254 692.854 995.668 692.793 996.081 692.817C996.493 692.842 996.897 692.953 997.264 693.142C997.627 693.328 997.948 693.585 998.208 693.898C998.467 694.212 998.66 694.575 998.775 694.965C999.063 695.924 1028.92 790.897 1124.81 798.788C1220.69 806.678 1286.81 716.238 1287.46 715.327C1287.77 714.934 1288.17 714.624 1288.62 714.423C1289.08 714.222 1289.58 714.137 1290.07 714.175Z" fill="#313131"/>
<path d="M667.284 1267.42C666.509 1267.42 665.765 1267.12 665.206 1266.58C664.647 1266.04 664.317 1265.31 664.286 1264.54C657.475 1119.32 677.213 986.743 722.973 870.473C758.791 778.662 812.609 694.943 881.261 624.239C997.771 504.468 1119.65 461.994 1120.88 461.586C1121.25 461.429 1121.66 461.352 1122.07 461.358C1122.48 461.364 1122.88 461.454 1123.26 461.622C1123.63 461.791 1123.96 462.034 1124.24 462.336C1124.52 462.639 1124.73 462.995 1124.86 463.382C1124.99 463.769 1125.04 464.18 1125.01 464.588C1124.98 464.996 1124.87 465.394 1124.67 465.756C1124.48 466.118 1124.22 466.437 1123.9 466.693C1123.58 466.949 1123.21 467.138 1122.82 467.246C1121.62 467.654 1000.86 509.792 885.386 628.628C778.805 738.278 654.981 937.554 670.306 1264.18C670.325 1264.57 670.267 1264.96 670.133 1265.33C670 1265.7 669.795 1266.04 669.529 1266.33C669.264 1266.62 668.944 1266.86 668.587 1267.02C668.231 1267.19 667.845 1267.28 667.452 1267.3L667.284 1267.42Z" fill="#313131"/>
<path d="M754.364 1262.83H754.1C753.308 1262.77 752.576 1262.39 752.063 1261.78C751.55 1261.17 751.3 1260.39 751.366 1259.6C763.357 1121.62 795.159 997.678 846.027 891.265C886.798 806.054 939.729 731.802 1003.43 670.621C1111.95 566.295 1215.63 535.597 1216.66 535.285C1217.05 535.155 1217.45 535.104 1217.86 535.135C1218.26 535.166 1218.65 535.279 1219.01 535.467C1219.37 535.655 1219.69 535.914 1219.95 536.228C1220.2 536.543 1220.39 536.906 1220.51 537.296C1220.62 537.685 1220.65 538.094 1220.6 538.496C1220.55 538.899 1220.42 539.287 1220.21 539.637C1220.01 539.987 1219.73 540.292 1219.41 540.533C1219.08 540.775 1218.71 540.947 1218.32 541.041C1217.31 541.353 1114.81 571.763 1007.27 675.178C908.071 770.631 784.223 949.592 757.29 1260.12C757.224 1260.86 756.889 1261.54 756.348 1262.04C755.808 1262.54 755.101 1262.83 754.364 1262.83Z" fill="#313131"/>
<path d="M844.353 1245.09C844.106 1245.11 843.857 1245.11 843.61 1245.09C842.844 1244.89 842.189 1244.39 841.785 1243.71C841.381 1243.03 841.261 1242.21 841.451 1241.44C870.375 1126.61 913.928 1022.81 970.96 932.925C1015.11 862.649 1069.43 799.302 1132.15 744.946C1236.69 655.01 1327.08 626.23 1328 625.966C1328.73 625.799 1329.5 625.915 1330.16 626.292C1330.81 626.669 1331.3 627.279 1331.52 627.999C1331.75 628.72 1331.69 629.499 1331.37 630.18C1331.04 630.861 1330.47 631.395 1329.77 631.674C1328.88 631.962 1239.45 660.454 1135.8 749.719C1040.15 832.052 912.465 984.489 847.327 1242.91C847.146 1243.55 846.755 1244.11 846.216 1244.51C845.677 1244.9 845.022 1245.11 844.353 1245.09Z" fill="#313131"/>
<path d="M802.402 763.917L742.684 889.421L670.375 855.029L694.574 804.185L686.564 777.54L713.257 721.491L802.402 763.917Z" fill="#FFA620"/>
<path d="M742.683 892.418C742.236 892.417 741.794 892.318 741.388 892.13L669.079 857.738C668.364 857.391 667.814 856.776 667.55 856.026C667.285 855.277 667.326 854.453 667.664 853.733L691.36 803.944L683.709 778.402C683.491 777.69 683.543 776.922 683.853 776.244L710.546 720.196C710.711 719.837 710.947 719.517 711.24 719.253C711.532 718.989 711.876 718.787 712.249 718.661C712.995 718.399 713.813 718.442 714.527 718.781L803.696 761.207C804.052 761.375 804.371 761.612 804.634 761.904C804.898 762.196 805.101 762.538 805.231 762.909C805.373 763.297 805.436 763.709 805.415 764.121C805.395 764.533 805.291 764.936 805.111 765.308L745.394 890.715C745.147 891.224 744.762 891.654 744.282 891.955C743.803 892.256 743.249 892.416 742.683 892.418ZM674.38 853.613L741.268 885.439L798.396 765.332L714.671 725.472L689.777 777.779L697.451 803.321C697.649 804.03 697.59 804.786 697.284 805.455L674.38 853.613Z" fill="#313131"/>
<path d="M961.483 784.398C998.107 784.398 1027.8 754.708 1027.8 718.085C1027.8 681.461 998.107 651.771 961.483 651.771C924.859 651.771 895.17 681.461 895.17 718.085C895.17 754.708 924.859 784.398 961.483 784.398Z" fill="white"/>
<path d="M961.555 787.372C949.897 787.386 938.423 784.458 928.196 778.861C917.969 773.264 909.319 765.177 903.047 755.349C896.775 745.522 893.083 734.271 892.313 722.638C891.544 711.004 893.721 699.365 898.643 688.797C903.565 678.228 911.074 669.072 920.474 662.176C929.875 655.28 940.862 650.866 952.421 649.344C963.98 647.821 975.736 649.239 986.601 653.465C997.467 657.692 1007.09 664.591 1014.58 673.524C1023.06 683.624 1028.49 695.935 1030.21 709.011C1031.94 722.086 1029.9 735.383 1024.33 747.339C1018.76 759.295 1009.9 769.413 998.778 776.505C987.658 783.596 974.744 787.366 961.555 787.372ZM961.435 654.77C947.032 654.791 933.068 659.725 921.848 668.755C910.628 677.785 902.823 690.372 899.723 704.437C896.623 718.502 898.412 733.204 904.796 746.115C911.18 759.025 921.777 769.372 934.835 775.447C947.894 781.522 962.635 782.961 976.622 779.527C990.609 776.092 1003.01 767.99 1011.77 756.559C1020.53 745.127 1025.13 731.049 1024.81 716.65C1024.48 702.251 1019.26 688.392 1010 677.362C1004.05 670.274 996.617 664.578 988.226 660.675C979.835 656.771 970.69 654.756 961.435 654.77Z" fill="#313131"/>
<path d="M971.798 752.477L929.42 701.945L985.756 697.7L971.798 752.477Z" fill="#21A2FF"/>
<path d="M971.797 755.476C971.361 755.475 970.931 755.378 970.537 755.192C970.143 755.005 969.795 754.733 969.519 754.396L927.116 703.864C926.761 703.446 926.528 702.939 926.444 702.397C926.359 701.855 926.426 701.3 926.637 700.794C926.855 700.286 927.206 699.846 927.654 699.521C928.101 699.196 928.628 698.998 929.179 698.948L985.539 694.727C986.013 694.688 986.489 694.764 986.927 694.947C987.365 695.13 987.753 695.416 988.059 695.78C988.364 696.144 988.578 696.575 988.682 697.039C988.786 697.503 988.777 697.984 988.657 698.444L974.699 753.197C974.571 753.734 974.294 754.224 973.899 754.611C973.504 754.997 973.008 755.263 972.468 755.38C972.251 755.448 972.024 755.481 971.797 755.476ZM935.463 704.44L970.334 746.026L981.822 700.962L935.463 704.44Z" fill="#313131"/>
<path d="M876.627 1021.77L833.508 1132.25L908.688 1161.6L951.807 1051.12L876.627 1021.77Z" fill="#FFA620"/>
<path d="M908.722 1164.67C908.354 1164.67 907.989 1164.61 907.643 1164.48L832.456 1135.13C832.089 1134.98 831.753 1134.77 831.469 1134.5C831.185 1134.22 830.957 1133.9 830.799 1133.54C830.641 1133.18 830.555 1132.79 830.547 1132.39C830.54 1132 830.609 1131.61 830.753 1131.24L873.922 1020.75C874.223 1020.02 874.788 1019.43 875.505 1019.1C875.885 1018.94 876.292 1018.85 876.704 1018.85C877.116 1018.85 877.524 1018.94 877.904 1019.1L953.09 1048.45C953.828 1048.75 954.42 1049.32 954.738 1050.05C955.057 1050.77 955.077 1051.6 954.793 1052.34L911.624 1162.83C911.411 1163.39 911.03 1163.88 910.532 1164.22C910.035 1164.55 909.444 1164.73 908.842 1164.72L908.722 1164.67ZM837.42 1130.64L906.971 1157.79L947.91 1052.91L878.359 1025.74L837.42 1130.64Z" fill="#313131"/>
<path d="M833.536 1135.34C832.876 1135.33 832.238 1135.1 831.719 1134.7C831.2 1134.29 830.829 1133.72 830.663 1133.08C830.497 1132.44 830.545 1131.77 830.8 1131.16C831.055 1130.55 831.502 1130.04 832.073 1129.71L897.211 1093.54L873.828 1022.79C873.675 1022.41 873.603 1022 873.614 1021.59C873.625 1021.18 873.72 1020.78 873.893 1020.41C874.066 1020.04 874.313 1019.71 874.62 1019.43C874.926 1019.16 875.285 1018.96 875.674 1018.83C876.063 1018.7 876.474 1018.65 876.882 1018.69C877.289 1018.73 877.685 1018.85 878.045 1019.04C878.405 1019.24 878.72 1019.51 878.973 1019.83C879.225 1020.15 879.408 1020.52 879.512 1020.92L903.687 1094C903.899 1094.66 903.877 1095.38 903.624 1096.03C903.371 1096.68 902.902 1097.22 902.296 1097.57L834.999 1134.96C834.55 1135.2 834.048 1135.33 833.536 1135.34Z" fill="#313131"/>
<path d="M693.831 848.818C693.354 848.824 692.883 848.708 692.464 848.482C691.759 848.118 691.226 847.49 690.984 846.735C690.741 845.98 690.807 845.159 691.169 844.453L702.536 822.388C702.899 821.679 703.528 821.143 704.286 820.898C705.044 820.653 705.868 820.719 706.578 821.081C707.287 821.444 707.823 822.073 708.068 822.831C708.313 823.589 708.247 824.413 707.885 825.122L696.493 847.211C696.24 847.698 695.858 848.106 695.388 848.39C694.919 848.673 694.379 848.821 693.831 848.818Z" fill="#313131"/>
<path d="M706.522 854.811C706.047 854.805 705.579 854.69 705.155 854.475C704.803 854.295 704.49 854.047 704.234 853.745C703.978 853.444 703.784 853.095 703.664 852.718C703.543 852.341 703.499 851.944 703.532 851.55C703.566 851.156 703.677 850.773 703.86 850.422L715.228 828.357C715.393 827.983 715.632 827.647 715.932 827.369C716.231 827.091 716.584 826.877 716.97 826.741C717.355 826.604 717.764 826.548 718.172 826.575C718.579 826.602 718.977 826.713 719.341 826.899C719.704 827.086 720.026 827.345 720.286 827.661C720.545 827.976 720.738 828.341 720.851 828.734C720.965 829.127 720.997 829.538 720.945 829.944C720.894 830.349 720.76 830.74 720.552 831.091L709.184 853.132C708.94 853.631 708.561 854.052 708.091 854.349C707.621 854.645 707.078 854.805 706.522 854.811Z" fill="#313131"/>
<path d="M909.155 1560.99C908.36 1561.02 907.586 1560.73 907.003 1560.19C906.421 1559.65 906.077 1558.9 906.049 1558.1C906.02 1557.31 906.309 1556.53 906.851 1555.95C907.393 1555.37 908.144 1555.03 908.939 1555C912.896 1554.71 918.316 1554.45 924.6 1554.13C952.54 1552.72 1017.94 1549.46 1024.85 1537.8C1025.12 1537.37 1025.26 1536.88 1025.26 1536.37C1025.26 1535.87 1025.12 1535.37 1024.85 1534.95C1024.68 1534.59 1024.58 1534.21 1024.55 1533.82C1024.53 1533.42 1024.59 1533.03 1024.71 1532.66C1024.84 1532.29 1025.05 1531.94 1025.31 1531.65C1025.57 1531.35 1025.89 1531.11 1026.24 1530.94C1026.59 1530.77 1026.98 1530.67 1027.37 1530.65C1027.76 1530.62 1028.16 1530.68 1028.53 1530.81C1028.9 1530.94 1029.25 1531.14 1029.54 1531.4C1029.83 1531.66 1030.07 1531.98 1030.25 1532.33C1030.95 1533.65 1031.3 1535.13 1031.26 1536.62C1031.23 1538.11 1030.8 1539.57 1030.03 1540.85C1022.14 1554.16 973.789 1557.64 924.912 1560.03C918.676 1560.35 913.28 1560.61 909.395 1560.87L909.155 1560.99Z" fill="#313131"/>
<path d="M865.601 1533.56C865.038 1533.56 864.486 1533.4 864.011 1533.09C863.535 1532.79 863.155 1532.36 862.915 1531.85C862.744 1531.5 862.645 1531.11 862.624 1530.72C862.602 1530.32 862.659 1529.93 862.79 1529.56C862.922 1529.18 863.125 1528.84 863.39 1528.55C863.654 1528.26 863.973 1528.02 864.33 1527.85L883.3 1518.93C884.022 1518.59 884.848 1518.55 885.597 1518.83C886.346 1519.1 886.956 1519.66 887.293 1520.38C887.631 1521.1 887.667 1521.93 887.395 1522.67C887.123 1523.42 886.564 1524.03 885.842 1524.37L866.896 1533.29C866.49 1533.48 866.047 1533.57 865.601 1533.56Z" fill="#313131"/>
<path d="M452.398 1543.85C451.637 1543.84 450.906 1543.55 450.354 1543.02C449.802 1542.5 449.469 1541.79 449.423 1541.03C449.378 1540.27 449.622 1539.52 450.108 1538.94C450.593 1538.35 451.283 1537.97 452.038 1537.87L477.22 1534.9C477.621 1534.83 478.031 1534.85 478.426 1534.94C478.82 1535.04 479.191 1535.22 479.516 1535.46C479.841 1535.7 480.113 1536.01 480.315 1536.36C480.518 1536.72 480.647 1537.11 480.694 1537.51C480.741 1537.91 480.706 1538.32 480.59 1538.71C480.474 1539.1 480.281 1539.46 480.021 1539.77C479.761 1540.09 479.44 1540.34 479.078 1540.53C478.717 1540.71 478.321 1540.82 477.916 1540.85L452.805 1543.85H452.398Z" fill="#313131"/>
<path d="M452.227 1417.6C451.538 1417.6 450.871 1417.36 450.338 1416.92C449.805 1416.48 449.439 1415.87 449.301 1415.2L431.937 1331.69C431.822 1331.29 431.79 1330.88 431.843 1330.47C431.897 1330.06 432.034 1329.66 432.247 1329.31C432.46 1328.96 432.743 1328.65 433.08 1328.41C433.416 1328.17 433.799 1328.01 434.203 1327.92C434.607 1327.84 435.024 1327.84 435.429 1327.92C435.833 1328.01 436.215 1328.17 436.552 1328.41C436.889 1328.65 437.172 1328.96 437.385 1329.31C437.598 1329.66 437.735 1330.06 437.789 1330.47L455.201 1413.98C455.281 1414.37 455.282 1414.77 455.204 1415.16C455.126 1415.55 454.971 1415.92 454.747 1416.26C454.524 1416.59 454.237 1416.87 453.903 1417.09C453.569 1417.3 453.195 1417.45 452.802 1417.53C452.614 1417.57 452.421 1417.6 452.227 1417.6Z" fill="#313131"/>
<path d="M731.484 1334.76C730.904 1334.77 730.336 1334.6 729.849 1334.28C729.363 1333.97 728.981 1333.52 728.75 1332.99L694.094 1253.84C693.935 1253.48 693.848 1253.09 693.839 1252.7C693.83 1252.3 693.898 1251.91 694.041 1251.54C694.183 1251.18 694.397 1250.84 694.67 1250.56C694.942 1250.27 695.268 1250.04 695.629 1249.88C695.988 1249.73 696.375 1249.64 696.767 1249.63C697.159 1249.62 697.55 1249.69 697.915 1249.83C698.281 1249.98 698.615 1250.19 698.897 1250.46C699.18 1250.73 699.406 1251.06 699.562 1251.42L734.242 1330.56C734.556 1331.29 734.568 1332.12 734.276 1332.86C733.984 1333.6 733.412 1334.2 732.683 1334.52C732.304 1334.68 731.896 1334.76 731.484 1334.76Z" fill="#313131"/>
<path d="M434.863 1331.09L501.392 1536.22L477.577 1537.97L434.863 1331.09Z" fill="#313131"/>
<path d="M696.832 1252.76L739.426 1320.42L731.488 1331.76L696.832 1252.76Z" fill="#313131"/>
<path d="M1812.64 847.187V1010.92C1812.64 1036.09 1802.64 1060.24 1784.84 1078.04C1767.04 1095.84 1742.89 1105.84 1717.72 1105.84H1473.09L1335.21 1184.1L1396.68 1105.84L1397.09 1105.46C1373.47 1103.36 1351.49 1092.49 1335.48 1074.99C1319.48 1057.49 1310.6 1034.63 1310.61 1010.92V847.187C1310.61 822.013 1320.61 797.872 1338.42 780.072C1356.22 762.271 1380.36 752.268 1405.53 752.262H1717.74C1742.91 752.274 1767.05 762.28 1784.84 780.08C1802.64 797.88 1812.64 822.017 1812.64 847.187Z" fill="white"/>
<path d="M1335.21 1187.1C1334.78 1187.1 1334.35 1187.01 1333.96 1186.83C1333.56 1186.65 1333.21 1186.39 1332.93 1186.07C1332.49 1185.53 1332.25 1184.85 1332.25 1184.16C1332.25 1183.47 1332.49 1182.79 1332.93 1182.25L1391.43 1107.91C1368.22 1104.38 1347.03 1092.68 1331.68 1074.91C1316.33 1057.15 1307.83 1034.49 1307.7 1011.01V847.186C1307.73 821.223 1318.05 796.331 1336.41 777.973C1354.77 759.614 1379.66 749.289 1405.62 749.264H1717.74C1743.7 749.295 1768.59 759.622 1786.95 777.98C1805.3 796.337 1815.63 821.225 1815.66 847.186V1010.92C1815.64 1036.88 1805.31 1061.77 1786.95 1080.13C1768.59 1098.49 1743.7 1108.82 1717.74 1108.84H1473.98L1336.67 1186.71C1336.23 1186.97 1335.72 1187.1 1335.21 1187.1ZM1398.88 1107.95L1346.96 1174.08L1471.67 1103.33C1472.12 1103.06 1472.64 1102.92 1473.16 1102.92H1717.79C1742.16 1102.89 1765.53 1093.2 1782.76 1075.96C1800 1058.73 1809.69 1035.36 1809.71 1010.99V847.186C1809.68 822.816 1799.99 799.452 1782.75 782.219C1765.52 764.986 1742.16 755.291 1717.79 755.259H1405.53C1381.16 755.285 1357.79 764.978 1340.55 782.212C1323.32 799.446 1313.63 822.814 1313.6 847.186V1010.92C1313.71 1033.86 1322.34 1055.94 1337.81 1072.88C1353.29 1089.81 1374.51 1100.39 1397.35 1102.56C1397.92 1102.61 1398.47 1102.82 1398.93 1103.17C1399.38 1103.53 1399.73 1104 1399.92 1104.55C1400.1 1105.09 1400.13 1105.68 1399.99 1106.24C1399.86 1106.8 1399.56 1107.31 1399.15 1107.71L1398.88 1107.95Z" fill="#313131"/>
<path opacity="0.15" d="M1767.32 814.184H1355.94V856.298H1767.32V814.184Z" fill="white"/>
<path opacity="0.15" d="M1767.32 873.688H1355.94V915.802H1767.32V873.688Z" fill="white"/>
<path opacity="0.15" d="M1767.32 933.164H1355.94V975.278H1767.32V933.164Z" fill="white"/>
<path opacity="0.15" d="M1767.32 992.666H1355.94V1034.78H1767.32V992.666Z" fill="white"/>
<path opacity="0.35" d="M1767.32 814.184H1355.94V856.298H1767.32V814.184Z" fill="white"/>
<path d="M1767.32 859.297H1355.94C1355.14 859.297 1354.38 858.981 1353.82 858.418C1353.25 857.856 1352.94 857.094 1352.94 856.299V814.184C1352.94 813.389 1353.25 812.627 1353.82 812.065C1354.38 811.502 1355.14 811.187 1355.94 811.187H1767.32C1768.11 811.187 1768.87 811.502 1769.44 812.065C1770 812.627 1770.31 813.389 1770.31 814.184V856.299C1770.31 857.094 1770 857.856 1769.44 858.418C1768.87 858.981 1768.11 859.297 1767.32 859.297ZM1358.93 853.301H1764.25V817.158H1358.93V853.301Z" fill="#313131"/>
<path opacity="0.35" d="M1767.32 873.688H1355.94V915.802H1767.32V873.688Z" fill="white"/>
<path d="M1767.32 918.799H1355.94C1355.14 918.799 1354.38 918.484 1353.82 917.921C1353.25 917.359 1352.94 916.597 1352.94 915.802V873.687C1352.94 872.892 1353.25 872.13 1353.82 871.568C1354.38 871.005 1355.14 870.689 1355.94 870.689H1767.32C1768.11 870.689 1768.87 871.005 1769.44 871.568C1770 872.13 1770.31 872.892 1770.31 873.687V915.802C1770.31 916.597 1770 917.359 1769.44 917.921C1768.87 918.484 1768.11 918.799 1767.32 918.799ZM1358.93 912.804H1764.25V876.685H1358.93V912.804Z" fill="#313131"/>
<path opacity="0.35" d="M1767.32 933.164H1355.94V975.278H1767.32V933.164Z" fill="white"/>
<path d="M1767.32 978.278H1355.94C1355.14 978.278 1354.38 977.962 1353.82 977.4C1353.25 976.838 1352.94 976.075 1352.94 975.28V933.166C1352.94 932.371 1353.25 931.608 1353.82 931.046C1354.38 930.484 1355.14 930.168 1355.94 930.168H1767.32C1768.11 930.168 1768.87 930.484 1769.44 931.046C1770 931.608 1770.31 932.371 1770.31 933.166V975.28C1770.31 976.075 1770 976.838 1769.44 977.4C1768.87 977.962 1768.11 978.278 1767.32 978.278ZM1358.93 972.282H1764.25V936.164H1358.93V972.282Z" fill="#313131"/>
<path opacity="0.35" d="M1767.32 992.666H1355.94V1034.78H1767.32V992.666Z" fill="white"/>
<path d="M1767.32 1037.8H1355.94C1355.14 1037.8 1354.38 1037.49 1353.82 1036.92C1353.25 1036.36 1352.94 1035.6 1352.94 1034.8V992.666C1352.94 991.871 1353.25 991.108 1353.82 990.546C1354.38 989.984 1355.14 989.668 1355.94 989.668H1767.32C1768.11 989.668 1768.87 989.984 1769.44 990.546C1770 991.108 1770.31 991.871 1770.31 992.666V1034.78C1770.32 1035.18 1770.24 1035.57 1770.09 1035.93C1769.94 1036.3 1769.72 1036.63 1769.44 1036.92C1769.17 1037.2 1768.83 1037.42 1768.47 1037.57C1768.1 1037.72 1767.71 1037.8 1767.32 1037.8ZM1358.93 1031.81H1764.25V995.664H1358.93V1031.81Z" fill="#313131"/>
<path d="M1594.47 814.184H1355.94V856.298H1594.47V814.184Z" fill="#21A2FF"/>
<path d="M1594.4 859.297H1355.94C1355.14 859.297 1354.38 858.981 1353.82 858.418C1353.25 857.856 1352.94 857.094 1352.94 856.299V814.184C1352.94 813.389 1353.25 812.627 1353.82 812.065C1354.38 811.502 1355.14 811.187 1355.94 811.187H1594.4C1595.19 811.187 1595.96 811.502 1596.52 812.065C1597.08 812.627 1597.4 813.389 1597.4 814.184V856.299C1597.4 857.094 1597.08 857.856 1596.52 858.418C1595.96 858.981 1595.19 859.297 1594.4 859.297ZM1358.84 853.301H1591.47V817.158H1358.84V853.301Z" fill="#313131"/>
<path d="M1718.44 873.688H1355.94V915.802H1718.44V873.688Z" fill="#FFA620"/>
<path d="M1718.44 918.799H1355.94C1355.14 918.799 1354.38 918.484 1353.82 917.921C1353.25 917.359 1352.94 916.597 1352.94 915.802V873.687C1352.94 872.892 1353.25 872.13 1353.82 871.568C1354.38 871.005 1355.14 870.689 1355.94 870.689H1718.44C1719.23 870.689 1720 871.005 1720.56 871.568C1721.12 872.13 1721.44 872.892 1721.44 873.687V915.802C1721.44 916.597 1721.12 917.359 1720.56 917.921C1720 918.484 1719.23 918.799 1718.44 918.799ZM1358.93 912.804H1715.44V876.685H1358.93V912.804Z" fill="#313131"/>
<path d="M1537.18 933.164H1355.94V975.278H1537.18V933.164Z" fill="#21A2FF"/>
<path d="M1537.2 978.278H1355.94C1355.14 978.278 1354.38 977.962 1353.82 977.4C1353.25 976.838 1352.94 976.075 1352.94 975.28V933.166C1352.94 932.371 1353.25 931.608 1353.82 931.046C1354.38 930.484 1355.14 930.168 1355.94 930.168H1537.2C1537.99 930.168 1538.76 930.484 1539.32 931.046C1539.88 931.608 1540.2 932.371 1540.2 933.166V975.28C1540.2 976.075 1539.88 976.838 1539.32 977.4C1538.76 977.962 1537.99 978.278 1537.2 978.278ZM1358.93 972.282H1534.2V936.164H1358.93V972.282Z" fill="#313131"/>
<path d="M1658.27 992.666H1355.94V1034.78H1658.27V992.666Z" fill="#FFA620"/>
<path d="M1658.29 1037.8H1355.94C1355.14 1037.8 1354.38 1037.49 1353.82 1036.92C1353.25 1036.36 1352.94 1035.6 1352.94 1034.8V992.666C1352.94 991.871 1353.25 991.108 1353.82 990.546C1354.38 989.984 1355.14 989.668 1355.94 989.668H1658.29C1659.08 989.668 1659.85 989.984 1660.41 990.546C1660.97 991.108 1661.29 991.871 1661.29 992.666V1034.78C1661.29 1035.18 1661.22 1035.57 1661.07 1035.93C1660.92 1036.3 1660.7 1036.63 1660.42 1036.92C1660.14 1037.2 1659.81 1037.42 1659.44 1037.57C1659.08 1037.72 1658.69 1037.8 1658.29 1037.8ZM1358.93 1031.81H1655.29V995.664H1358.93V1031.81Z" fill="#313131"/>
</svg>
