<svg width="2000" height="2000" viewBox="0 0 2000 2000" fill="none" xmlns="http://www.w3.org/2000/svg">
<path d="M1063.04 1105.46C1067.66 1098.78 1045.37 1075.37 1013.25 1053.18C981.129 1030.99 951.347 1018.42 946.728 1025.1C942.109 1031.79 964.401 1055.2 996.52 1077.39C1028.64 1099.58 1058.42 1112.15 1063.04 1105.46Z" fill="#313131"/>
<path d="M833.021 1561.12C836.514 1601.26 832.796 1634.36 824.684 1635.05C816.572 1635.75 807.176 1603.8 803.683 1563.67C800.191 1523.54 804.472 1489.45 812.561 1488.75C820.65 1488.05 829.528 1520.99 833.021 1561.12Z" fill="#313131"/>
<path d="M1058.12 1110.11C1043.12 1110.11 1012.07 1091.65 995.032 1079.8C974.122 1065.36 936.65 1035 944.536 1023.58C952.423 1012.16 994.108 1036.49 1014.97 1050.94C1029 1060.43 1042.06 1071.28 1053.98 1083.31C1064.86 1094.74 1068.58 1102.56 1065.38 1107.2C1064.5 1108.25 1063.38 1109.06 1062.12 1109.57C1060.85 1110.07 1059.48 1110.26 1058.12 1110.11ZM951.566 1026.04C950.229 1026.04 949.396 1026.28 949.065 1026.78C946.812 1030.12 961.999 1050.21 998.119 1075.18C1034.24 1100.15 1058.44 1107.27 1060.74 1103.95C1061.3 1103.14 1060.51 1098.32 1049.9 1087.17C1038.19 1075.43 1025.36 1064.86 1011.59 1055.62C980.994 1034.37 958.912 1026.04 951.566 1026.04Z" fill="#313131"/>
<path d="M824.436 1637.89C810.917 1637.89 803.12 1589.72 800.89 1563.92C798.298 1534.38 799.132 1487.1 812.336 1485.95C817.97 1485.41 822.746 1492.71 827.23 1508.87C831.62 1525.92 834.5 1543.32 835.838 1560.88C838.091 1586.97 838.745 1636.65 824.932 1637.87L824.436 1637.89ZM812.832 1491.43C809.204 1491.74 802.512 1517.32 806.523 1563.29C810.444 1608.49 820.381 1632.48 824.549 1632.12C828.718 1631.76 834.261 1606.44 830.34 1561.24C829.029 1544.02 826.209 1526.96 821.913 1510.24C817.429 1494.65 813.576 1491.54 812.832 1491.54V1491.43Z" fill="#313131"/>
<path d="M499.874 974.822L565.873 1229.8L371.347 1023.13L371.1 812.834L491.56 777.074L499.874 974.822Z" fill="white"/>
<path d="M565.872 1232.62C565.489 1232.62 565.109 1232.54 564.757 1232.39C564.405 1232.24 564.086 1232.02 563.822 1231.74L369.296 1025.07C368.801 1024.55 368.526 1023.85 368.53 1023.13L368.305 812.833C368.3 812.226 368.493 811.633 368.855 811.145C369.216 810.657 369.727 810.301 370.31 810.129L490.77 774.37C491.181 774.245 491.616 774.216 492.039 774.287C492.463 774.357 492.865 774.524 493.214 774.774C493.562 775.025 493.849 775.353 494.05 775.732C494.252 776.111 494.363 776.532 494.376 776.961L502.623 974.416L568.554 1229.04C568.709 1229.64 568.659 1230.28 568.409 1230.85C568.16 1231.42 567.727 1231.89 567.179 1232.19C566.788 1232.44 566.337 1232.59 565.872 1232.62ZM374.186 1022.03L560.419 1219.87L497.147 975.542C497.116 975.348 497.116 975.151 497.147 974.956L488.99 780.814L374.073 814.929L374.186 1022.03Z" fill="#313131"/>
<path d="M378.693 831.918L376.823 888.565C376.823 888.565 411.907 878.854 461.051 846.654L378.693 831.918Z" fill="#313131"/>
<path d="M376.868 891.381C376.23 891.383 375.61 891.169 375.11 890.773C374.769 890.507 374.495 890.164 374.311 889.773C374.127 889.381 374.038 888.952 374.051 888.519L375.944 831.872C375.957 831.47 376.057 831.076 376.235 830.716C376.414 830.356 376.668 830.038 376.979 829.784C377.291 829.53 377.653 829.345 378.042 829.243C378.431 829.141 378.837 829.123 379.234 829.191L461.591 843.927C462.143 844.027 462.653 844.29 463.055 844.682C463.457 845.074 463.732 845.578 463.846 846.127C463.96 846.677 463.907 847.248 463.694 847.768C463.48 848.287 463.117 848.731 462.65 849.042C413.686 881.129 379.053 890.931 377.611 891.314C377.367 891.369 377.117 891.391 376.868 891.381ZM381.374 835.252L379.729 884.689C389.396 881.444 417.246 871.169 453.457 848.163L381.374 835.252Z" fill="#313131"/>
<path d="M499.874 742.486C512.808 791.675 507.693 834.442 449.265 851.049C408.706 862.608 364.722 830.657 351.788 781.468C338.855 732.279 361.5 683.676 402.397 672.905C443.294 662.134 486.85 693.297 499.874 742.486Z" fill="white"/>
<path d="M432.522 856.117C419.607 856.011 406.947 852.506 395.816 845.955C373.284 833.088 356.339 809.902 349.061 782.187C335.744 731.556 359.336 681.33 401.675 670.176C422.27 664.768 444.149 669.275 463.234 682.93C482.807 697.362 496.736 718.167 502.622 741.763C518.688 802.827 501.495 839.465 450.053 853.751C444.342 855.324 438.446 856.12 432.522 856.117ZM419.003 673.601C413.678 673.602 408.377 674.292 403.23 675.652C363.91 685.994 342.121 733.155 354.649 780.767C361.544 806.973 377.61 828.965 398.746 841.087C406.146 845.548 414.363 848.485 422.915 849.727C431.466 850.969 440.179 850.491 448.543 848.32C497.056 834.801 512.491 801.452 497.169 743.205C491.645 720.873 478.494 701.172 459.99 687.504C448.086 678.673 433.71 673.803 418.89 673.579L419.003 673.601Z" fill="#313131"/>
<path d="M495.051 728.176C495.051 728.176 482.185 690.321 459.81 670.966C437.435 651.61 410.666 644.062 369.972 662.786C255.686 715.445 213.392 1191.47 213.392 1191.47L457.85 1111.59L371.346 1023.11C371.346 1023.11 380.72 827.231 375.177 801.092C375.177 801.092 343.901 777.523 355.799 760.218C366.006 745.324 379.999 767.474 379.999 767.474L418.034 735.567L453.208 694.693L495.051 728.176Z" fill="#313131"/>
<path d="M213.393 1194.31C212.752 1194.31 212.133 1194.09 211.635 1193.68C211.27 1193.39 210.983 1193.02 210.802 1192.59C210.621 1192.16 210.551 1191.69 210.598 1191.23C210.598 1190.03 221.685 1069.8 246.403 945.079C279.752 776.894 320.964 681.062 368.936 660.219C408.571 643.004 435.476 645.528 461.771 668.895C483.696 688.363 497.148 725.655 497.711 727.232C497.957 727.824 497.994 728.483 497.814 729.099C497.635 729.715 497.251 730.252 496.725 730.62C496.199 730.988 495.564 731.165 494.924 731.123C494.284 731.08 493.677 730.82 493.205 730.386L453.637 698.841C443.348 712.616 432.051 725.608 419.838 737.71C407.688 749.144 394.899 759.879 381.532 769.864C381.211 770.097 380.844 770.26 380.456 770.341C380.068 770.423 379.667 770.421 379.279 770.337C378.883 770.25 378.51 770.078 378.187 769.833C377.864 769.588 377.599 769.276 377.409 768.918C375.921 766.123 370.829 758.733 365.444 758.147C362.875 757.854 360.374 759.183 357.828 762.158C356.825 763.285 356.077 764.616 355.634 766.058C355.19 767.5 355.063 769.021 355.259 770.517C356.678 783.654 376.552 798.796 376.755 798.954C377.303 799.359 377.68 799.953 377.814 800.621C382.816 824.168 374.907 1003.91 374.096 1022.14L459.721 1109.73C460.062 1110.06 460.309 1110.48 460.436 1110.95C460.562 1111.41 460.564 1111.9 460.442 1112.36C460.333 1112.83 460.105 1113.26 459.782 1113.61C459.458 1113.96 459.049 1114.22 458.594 1114.37L214.204 1194.16C213.942 1194.25 213.669 1194.3 213.393 1194.31ZM413.934 654.789C401.383 654.789 387.481 658.349 371.28 665.402C266.232 711.008 221.369 1139.81 216.705 1187.46L452.668 1110.36L369.297 1025.14C369.029 1024.86 368.821 1024.53 368.685 1024.17C368.55 1023.81 368.489 1023.43 368.508 1023.04C368.508 1021.08 377.161 830.252 372.587 802.694C368.418 799.404 351.271 785.006 349.738 771.148C349.452 768.885 349.652 766.587 350.324 764.407C350.996 762.228 352.125 760.216 353.637 758.507C357.445 754.001 361.658 752.063 366.165 752.559C372.925 753.302 378.175 759.702 380.766 763.51C393.047 754.196 404.826 744.237 416.052 733.676C428.703 721.085 440.35 707.524 450.888 693.117C451.114 692.807 451.4 692.546 451.729 692.348C452.058 692.151 452.423 692.021 452.803 691.968C453.181 691.916 453.566 691.941 453.934 692.041C454.302 692.142 454.645 692.316 454.944 692.554L488.337 719.255C482.862 706.862 472.136 685.704 458.008 673.153C443.88 660.602 430.18 654.789 413.844 654.789H413.934Z" fill="#313131"/>
<path d="M454.942 781.58C454.259 781.573 453.602 781.318 453.093 780.862C452.585 780.407 452.259 779.783 452.176 779.105C452.093 778.427 452.26 777.742 452.644 777.178C453.028 776.614 453.605 776.208 454.266 776.037C457.496 775.296 460.661 774.294 463.729 773.04C462.896 768.984 458.66 755.96 454.581 744.379C454.333 743.673 454.375 742.899 454.699 742.225C455.022 741.551 455.6 741.033 456.305 740.785C457.01 740.537 457.785 740.579 458.459 740.902C459.133 741.225 459.651 741.803 459.899 742.508C470.512 772.657 469.746 774.37 469.227 775.496C468.709 776.623 467.853 778.538 455.595 781.513L454.942 781.58Z" fill="#313131"/>
<path d="M451.067 801.656C447.642 801.503 444.318 800.452 441.427 798.61C438.536 796.767 436.18 794.196 434.596 791.156C434.423 790.829 434.316 790.471 434.281 790.103C434.246 789.734 434.284 789.363 434.393 789.009C434.502 788.656 434.679 788.327 434.915 788.042C435.151 787.757 435.441 787.521 435.768 787.348C436.095 787.175 436.453 787.068 436.821 787.033C437.189 786.998 437.561 787.036 437.914 787.145C438.268 787.254 438.597 787.431 438.882 787.667C439.167 787.903 439.403 788.193 439.576 788.52C439.801 788.948 445.051 798.502 454.921 795.279C455.635 795.055 456.409 795.124 457.072 795.471C457.735 795.817 458.234 796.413 458.458 797.127C458.682 797.841 458.613 798.615 458.267 799.279C457.92 799.942 457.325 800.441 456.61 800.665C454.824 801.274 452.955 801.608 451.067 801.656Z" fill="#313131"/>
<path d="M423.6 763.35C422.929 763.353 422.279 763.116 421.766 762.683C421.254 762.249 420.914 761.646 420.806 760.984C420.13 756.01 421.116 750.953 423.609 746.597C426.103 742.242 429.965 738.831 434.596 736.896C434.937 736.735 435.307 736.643 435.684 736.627C436.061 736.612 436.437 736.672 436.79 736.804C437.143 736.936 437.466 737.138 437.74 737.397C438.014 737.657 438.233 737.969 438.383 738.314C438.534 738.66 438.614 739.032 438.619 739.41C438.623 739.787 438.551 740.161 438.408 740.51C438.265 740.859 438.054 741.176 437.786 741.441C437.518 741.707 437.2 741.916 436.85 742.056C433.367 743.495 430.455 746.039 428.561 749.297C426.668 752.554 425.898 756.344 426.372 760.082C426.491 760.807 426.321 761.55 425.9 762.152C425.48 762.754 424.84 763.167 424.119 763.305L423.6 763.35Z" fill="#313131"/>
<path d="M484.439 743.455C483.927 743.456 483.424 743.318 482.984 743.056C482.543 742.794 482.182 742.418 481.938 741.968C475.336 729.71 465.241 733.969 464.813 734.171C464.134 734.444 463.375 734.441 462.697 734.163C462.02 733.885 461.478 733.355 461.185 732.684C460.892 732.013 460.871 731.255 461.128 730.569C461.385 729.884 461.898 729.325 462.56 729.012C467.81 726.758 479.662 725.879 486.895 739.286C487.129 739.714 487.248 740.196 487.241 740.683C487.233 741.171 487.099 741.648 486.851 742.068C486.604 742.488 486.251 742.837 485.828 743.08C485.406 743.323 484.927 743.452 484.439 743.455Z" fill="#313131"/>
<path d="M441.559 763.169C443.351 763.169 444.804 761.716 444.804 759.924C444.804 758.132 443.351 756.68 441.559 756.68C439.767 756.68 438.314 758.132 438.314 759.924C438.314 761.716 439.767 763.169 441.559 763.169Z" fill="#313131"/>
<path d="M473.712 752.896C475.505 752.896 476.957 751.443 476.957 749.651C476.957 747.859 475.505 746.406 473.712 746.406C471.92 746.406 470.468 747.859 470.468 749.651C470.468 751.443 471.92 752.896 473.712 752.896Z" fill="#313131"/>
<path d="M364.812 780.387C364.122 780.402 363.449 780.163 362.923 779.714C362.398 779.266 362.055 778.641 361.96 777.956C361.866 777.272 362.026 776.577 362.41 776.003C362.795 775.429 363.377 775.016 364.046 774.844L365.308 774.483L361.072 771.126C360.474 770.66 360.086 769.975 359.993 769.223C359.9 768.471 360.11 767.712 360.576 767.115C361.042 766.517 361.727 766.129 362.479 766.036C363.231 765.943 363.989 766.153 364.587 766.619L373.104 773.379C373.509 773.702 373.817 774.13 373.994 774.617C374.171 775.104 374.211 775.63 374.108 776.138C374.006 776.645 373.765 777.115 373.413 777.495C373.061 777.875 372.611 778.15 372.113 778.291L365.578 780.161C365.334 780.27 365.077 780.346 364.812 780.387Z" fill="#313131"/>
<path d="M396.914 808.057L373.366 794.95L360.26 818.498L383.807 831.604L396.914 808.057Z" fill="#FFA620"/>
<path d="M383.74 834.441C383.26 834.433 382.788 834.31 382.366 834.08L358.819 820.966C358.168 820.601 357.689 819.993 357.486 819.275C357.283 818.556 357.374 817.787 357.738 817.135L370.829 793.589C371.194 792.938 371.802 792.458 372.521 792.255C373.239 792.053 374.008 792.143 374.66 792.507L398.206 805.599C398.531 805.777 398.816 806.018 399.047 806.308C399.278 806.597 399.45 806.929 399.553 807.285C399.655 807.641 399.687 808.013 399.645 808.381C399.604 808.749 399.49 809.105 399.311 809.429L386.196 832.976C385.955 833.417 385.6 833.786 385.168 834.043C384.736 834.301 384.243 834.438 383.74 834.441ZM364.024 817.428L382.636 827.793L393.024 809.181L374.389 798.816L364.024 817.428Z" fill="#313131"/>
<path d="M1026.04 987.032C1087.78 959.385 1256.62 1003.66 1255.22 1012.81C1254.29 1019.21 1238.81 1018.71 1238.81 1018.71C1238.81 1018.71 1277.98 1030.34 1277.12 1036.45C1275.95 1044.09 1224.24 1040.39 1224.24 1040.39C1224.24 1040.39 1269.53 1052.08 1267.81 1058.89C1265.76 1066.98 1212.25 1062.45 1212.25 1062.45C1212.25 1062.45 1244.67 1070.2 1242.89 1079.12C1240.8 1089.6 1073.13 1055.4 1047.42 1087.64C1047.42 1087.64 1039.6 1095.39 1026.74 1127.01C1013.87 1158.62 952.22 1128.63 952.22 1128.63L950.553 1053.37C950.553 1053.37 961.999 1015.72 1026.04 987.032Z" fill="white"/>
<path d="M1000.6 1144.31C978.425 1144.31 952.445 1131.83 951.025 1131.18C950.561 1130.95 950.169 1130.59 949.891 1130.16C949.613 1129.72 949.46 1129.22 949.448 1128.7L947.78 1053.42C947.781 1053.12 947.827 1052.82 947.915 1052.54C948.389 1050.96 960.444 1013.42 1024.91 984.466C1083.83 957.99 1238.09 995.484 1255.67 1008.71C1256.46 1009.16 1257.11 1009.82 1257.54 1010.61C1257.97 1011.41 1258.16 1012.31 1258.1 1013.22C1257.76 1014.8 1256.98 1016.25 1255.85 1017.42C1254.72 1018.58 1253.29 1019.4 1251.72 1019.8C1281.02 1029.69 1280.23 1034.98 1279.94 1036.88C1279.15 1041.99 1268.33 1044.45 1247.56 1044.25C1272.34 1052.63 1271.06 1057.76 1270.58 1059.57C1269.01 1065.81 1252.42 1067.12 1233.72 1066.55C1241 1069.96 1246.77 1074.37 1245.69 1079.69C1244.56 1085.37 1235.03 1085.05 1191.09 1081.13C1140.98 1076.62 1065.24 1069.87 1049.67 1089.4L1049.45 1089.65C1049.45 1089.65 1041.74 1097.72 1029.39 1128.07C1028.15 1131.26 1026.23 1134.14 1023.78 1136.53C1021.33 1138.92 1018.4 1140.76 1015.18 1141.92C1010.5 1143.59 1005.56 1144.4 1000.6 1144.31ZM955.103 1126.83C962.494 1130.16 994.671 1143.77 1013.22 1136.65C1015.72 1135.77 1018 1134.35 1019.9 1132.51C1021.81 1130.66 1023.29 1128.42 1024.26 1125.95C1036.42 1096.03 1044.27 1087.01 1045.41 1085.8C1063.04 1063.98 1137.35 1070.65 1191.65 1075.52C1213.08 1077.44 1235.21 1079.42 1240.17 1077.77C1238.99 1074.37 1225.99 1068.49 1211.71 1065.07C1211.02 1064.9 1210.42 1064.48 1210.03 1063.89C1209.63 1063.3 1209.48 1062.59 1209.59 1061.89C1209.69 1061.18 1210.07 1060.55 1210.63 1060.11C1211.19 1059.67 1211.9 1059.46 1212.61 1059.52C1237.62 1061.64 1260.81 1061.03 1264.86 1058.24C1261.62 1054.63 1241.52 1047.63 1223.65 1043.01C1222.97 1042.83 1222.37 1042.41 1221.99 1041.82C1221.61 1041.23 1221.46 1040.52 1221.58 1039.83C1221.71 1039.16 1222.09 1038.55 1222.64 1038.14C1223.18 1037.72 1223.87 1037.52 1224.55 1037.58C1245.44 1039.06 1269.41 1038.75 1274.12 1036.02C1270.83 1032.66 1253.57 1025.95 1238.25 1021.4C1237.6 1021.2 1237.04 1020.78 1236.67 1020.2C1236.31 1019.63 1236.16 1018.94 1236.27 1018.27C1236.38 1017.59 1236.73 1016.97 1237.25 1016.54C1237.78 1016.1 1238.44 1015.86 1239.13 1015.88C1244.63 1016.06 1250.85 1014.91 1252.36 1013.08C1240.21 1003.57 1086.15 963.15 1027.37 989.581C968.893 1015.83 955.013 1049.79 953.571 1053.78L955.103 1126.83Z" fill="#313131"/>
<path d="M1212.41 1065.29C1212.2 1065.31 1212 1065.31 1211.8 1065.29C1194.81 1061.55 1149.49 1054.16 1149.04 1054.02C1148.32 1053.89 1147.68 1053.47 1147.26 1052.87C1146.84 1052.27 1146.67 1051.53 1146.79 1050.8C1146.93 1050.08 1147.35 1049.45 1147.95 1049.03C1148.55 1048.61 1149.29 1048.44 1150.01 1048.55C1150.49 1048.55 1195.93 1056.08 1213.1 1059.82C1213.72 1060.02 1214.24 1060.44 1214.59 1060.99C1214.93 1061.54 1215.07 1062.19 1214.99 1062.84C1214.91 1063.48 1214.61 1064.08 1214.14 1064.53C1213.66 1064.97 1213.05 1065.24 1212.41 1065.29Z" fill="#313131"/>
<path d="M1224.26 1043.21C1224.08 1043.23 1223.91 1043.23 1223.74 1043.21C1217.34 1042.01 1210.22 1040.64 1202.94 1039.22C1184.78 1035.7 1165.99 1032.08 1151.5 1029.78C1150.78 1029.64 1150.14 1029.22 1149.72 1028.62C1149.3 1028.02 1149.13 1027.28 1149.24 1026.56C1149.38 1025.83 1149.8 1025.19 1150.4 1024.77C1151 1024.35 1151.74 1024.18 1152.47 1024.3C1167.05 1026.56 1185.88 1030.25 1204.11 1033.79C1211.41 1035.19 1218.47 1036.56 1224.86 1037.75C1225.56 1037.88 1226.18 1038.26 1226.61 1038.82C1227.03 1039.38 1227.23 1040.08 1227.17 1040.79C1227.1 1041.49 1226.78 1042.14 1226.25 1042.61C1225.73 1043.09 1225.05 1043.35 1224.35 1043.34L1224.26 1043.21Z" fill="#313131"/>
<path d="M795.955 1506.12C841.156 1504.39 890.999 1500.04 910.692 1496.7C930.386 1493.37 971.26 1478.43 1003.08 1467.41C1032.64 1457.27 1044.63 1457.32 1046.5 1460.09C1062.81 1484.31 987.597 1499.18 1010.33 1521.11C1037.26 1547.06 1138.99 1511.51 1138.99 1511.51C1138.99 1511.51 1088 1563.26 1029.46 1576.56C970.922 1589.85 908.935 1592.11 875.721 1598.44C850.53 1603.26 795.955 1617.95 795.955 1617.95L757.244 1564.08L795.955 1506.12Z" fill="white"/>
<path d="M795.955 1620.77C795.513 1620.77 795.078 1620.66 794.686 1620.45C794.294 1620.25 793.956 1619.96 793.701 1619.6L754.855 1565.72C754.53 1565.25 754.356 1564.69 754.356 1564.12C754.356 1563.55 754.53 1562.99 754.855 1562.52L793.679 1504.54C793.926 1504.17 794.261 1503.86 794.653 1503.65C795.046 1503.43 795.484 1503.31 795.932 1503.3C843.251 1501.48 892.057 1497.02 910.309 1493.93C926.442 1491.2 957.785 1480.28 985.455 1470.65C991.224 1468.65 996.879 1466.67 1002.29 1464.82C1021.12 1458.35 1044.54 1452.02 1048.95 1458.58C1058.53 1472.79 1042.98 1483.36 1029.26 1492.58C1020.04 1498.8 1010.53 1505.24 1009.66 1511.69C1009.56 1513.1 1009.77 1514.52 1010.28 1515.84C1010.79 1517.16 1011.57 1518.36 1012.58 1519.35C1029.8 1539.45 1109.12 1518.63 1138.2 1508.89C1138.81 1508.69 1139.46 1508.71 1140.06 1508.92C1140.65 1509.14 1141.16 1509.55 1141.49 1510.09C1141.83 1510.62 1141.98 1511.26 1141.91 1511.89C1141.84 1512.52 1141.56 1513.11 1141.11 1513.56C1138.99 1515.67 1088.84 1565.95 1030.18 1579.31C994.13 1587.53 956.073 1591.61 925.563 1594.88C905.96 1596.97 889.038 1598.8 876.352 1601.21C851.566 1605.96 797.329 1620.52 796.766 1620.68C796.502 1620.75 796.228 1620.78 795.955 1620.77ZM760.556 1564.03L797.104 1614.73C806.951 1612.09 852.827 1599.95 875.202 1595.69C888.114 1593.21 905.149 1591.38 924.775 1589.27C955.149 1586.02 992.959 1581.97 1028.74 1573.81C1071.55 1564.05 1110.83 1533.02 1127.88 1517.95C1099 1526.49 1026.92 1544.99 1008.1 1523.02C1006.56 1521.43 1005.39 1519.53 1004.66 1517.45C1003.93 1515.36 1003.66 1513.14 1003.86 1510.94C1005.08 1501.93 1015.13 1495.17 1025.9 1487.91C1041.16 1477.64 1050.17 1470.7 1044.27 1461.87C1042.55 1460.83 1032.3 1460.42 1004.02 1470.14L987.213 1475.97C959.34 1485.68 927.749 1496.66 911.165 1499.47C890.277 1503.01 839.578 1507.2 797.487 1508.87L760.556 1564.03Z" fill="#313131"/>
<path d="M371.345 1023.13C371.345 1023.13 195.702 1108.31 176.865 1156.73C158.028 1205.15 234.707 1493.28 234.707 1493.28L252.192 1694.81H734.709L730.608 1651.75L824.682 1635.05C824.682 1635.05 805.484 1624.62 803.096 1561.89C801.091 1509.43 812.56 1488.75 812.56 1488.75H715.196L711.748 1458.56C711.748 1458.56 766.075 1497.06 842.866 1457.36C919.658 1417.66 1063.17 1105.53 1063.17 1105.53C1037.64 1099.87 1013.45 1089.31 991.943 1074.44C950.686 1045.8 946.878 1025.16 946.878 1025.16L795.795 1241.47C795.795 1241.47 699.333 984.308 656.61 972.05C613.888 959.792 499.872 974.822 499.872 974.822C499.872 974.822 521.571 1056.41 484.415 1067.93C441.558 1081.22 371.345 1023.13 371.345 1023.13Z" fill="white"/>
<path d="M734.71 1697.63C734.012 1697.62 733.339 1697.36 732.822 1696.89C732.306 1696.42 731.983 1695.77 731.916 1695.08L727.815 1652.02C727.74 1651.32 727.931 1650.62 728.348 1650.06C728.766 1649.5 729.38 1649.11 730.068 1648.98L818.6 1633.2C812.358 1625.81 801.948 1606.91 800.235 1561.93C798.703 1521.76 804.945 1499.97 808.212 1491.5H715.152C714.46 1491.49 713.793 1491.24 713.278 1490.78C712.763 1490.32 712.435 1489.68 712.358 1488.99L708.91 1458.8C708.845 1458.26 708.938 1457.72 709.178 1457.24C709.419 1456.75 709.795 1456.35 710.262 1456.07C710.719 1455.78 711.251 1455.63 711.794 1455.63C712.337 1455.63 712.869 1455.78 713.326 1456.07C713.845 1456.46 767.27 1493.05 841.403 1454.7C912.223 1418.04 1043.5 1140.5 1058.96 1107.4C1034.34 1101.42 1011.03 1090.97 990.187 1076.58C960.489 1055.96 949.628 1039.29 945.91 1031.06L797.914 1242.87C797.624 1243.29 797.222 1243.63 796.753 1243.84C796.284 1244.05 795.766 1244.13 795.256 1244.06C794.752 1243.99 794.277 1243.79 793.881 1243.47C793.484 1243.16 793.18 1242.74 793.002 1242.26C766.369 1171.31 689.757 984.486 655.845 974.752C618.08 963.936 521.956 974.955 503.366 977.23C507.061 992.801 520.671 1059.63 485.34 1070.61C444.42 1083.31 381.554 1034.87 371.054 1026.46C353.388 1035.16 196.853 1113.33 179.525 1157.74C161.206 1204.77 236.736 1489.67 237.434 1492.55C237.445 1492.71 237.445 1492.87 237.434 1493.03L254.92 1694.56C254.973 1695.3 254.735 1696.03 254.256 1696.59C253.777 1697.15 253.095 1697.51 252.358 1697.57C251.622 1697.64 250.889 1697.41 250.319 1696.94C249.748 1696.47 249.386 1695.79 249.309 1695.06L231.824 1493.77C227.88 1478.92 155.212 1204.14 174.14 1155.78C193.157 1106.88 362.807 1024.19 370.017 1020.7C370.501 1020.46 371.044 1020.37 371.58 1020.43C372.116 1020.49 372.622 1020.71 373.037 1021.06C373.735 1021.62 442.573 1078 483.447 1065.33C517.607 1054.74 497.215 976.442 496.967 975.653C496.864 975.272 496.841 974.874 496.901 974.484C496.961 974.094 497.101 973.72 497.313 973.387C497.525 973.054 497.804 972.769 498.132 972.55C498.461 972.331 498.831 972.183 499.22 972.115C503.907 971.507 614.34 957.154 657.13 969.434C697.846 981.106 782.052 1198.5 796.134 1235.57L944.152 1023.76C944.469 1023.3 944.916 1022.95 945.435 1022.74C945.954 1022.53 946.523 1022.49 947.068 1022.61C947.614 1022.72 948.113 1023 948.5 1023.4C948.888 1023.81 949.147 1024.31 949.245 1024.86C949.245 1025.02 953.751 1044.92 993.184 1072.32C1014.37 1086.93 1038.17 1097.33 1063.28 1102.96C1063.71 1103.04 1064.11 1103.21 1064.45 1103.47C1064.8 1103.72 1065.09 1104.05 1065.29 1104.43C1065.47 1104.82 1065.57 1105.24 1065.57 1105.67C1065.57 1106.1 1065.47 1106.52 1065.29 1106.91C1059.41 1119.71 920.38 1420.38 843.724 1460.06C779.753 1493.16 730.339 1472.41 714.881 1464.05L717.405 1486.11H812.245C812.739 1486.11 813.224 1486.23 813.652 1486.48C814.08 1486.72 814.434 1487.08 814.679 1487.51C814.922 1487.93 815.05 1488.41 815.05 1488.9C815.05 1489.39 814.922 1489.88 814.679 1490.3C814.679 1490.48 803.615 1511.17 805.666 1561.96C807.919 1621.6 825.652 1632.69 825.833 1632.78C826.331 1633.07 826.726 1633.51 826.968 1634.04C827.209 1634.57 827.285 1635.16 827.185 1635.73C827.081 1636.29 826.809 1636.8 826.407 1637.2C826.005 1637.61 825.491 1637.88 824.931 1637.98L733.403 1654.23L737.279 1694.79C737.313 1695.16 737.274 1695.53 737.165 1695.88C737.055 1696.23 736.877 1696.56 736.641 1696.85C736.404 1697.13 736.114 1697.37 735.787 1697.54C735.459 1697.71 735.101 1697.82 734.733 1697.85L734.71 1697.63Z" fill="#313131"/>
<path d="M1003.12 1530.19L968.962 1388.46L1144.13 1323.18L1216.51 1449.97L1003.12 1530.19Z" fill="#21A2FF"/>
<path d="M1003.1 1533C1002.64 1533 1002.2 1532.89 1001.79 1532.69C1001.44 1532.5 1001.13 1532.24 1000.89 1531.93C1000.64 1531.61 1000.47 1531.25 1000.37 1530.86L966.212 1389.11C966.053 1388.44 966.144 1387.74 966.468 1387.13C966.792 1386.52 967.326 1386.06 967.969 1385.82L1143.14 1320.47C1143.77 1320.24 1144.46 1320.24 1145.08 1320.47C1145.71 1320.71 1146.24 1321.15 1146.56 1321.74L1218.94 1448.57C1219.14 1448.93 1219.27 1449.32 1219.3 1449.72C1219.34 1450.13 1219.29 1450.54 1219.15 1450.92C1219.01 1451.3 1218.79 1451.65 1218.51 1451.94C1218.22 1452.24 1217.88 1452.46 1217.5 1452.61L1004.09 1532.82C1003.77 1532.95 1003.44 1533.01 1003.1 1533ZM972.273 1390.23L1005.1 1526.42L1212.4 1448.5L1142.87 1326.67L972.273 1390.23Z" fill="#313131"/>
<path d="M1097.08 1457.38L1066.48 1380.34L1131.06 1356.23L1169.43 1430.23L1097.08 1457.38Z" fill="white"/>
<path d="M1097.08 1460.2C1096.52 1460.2 1095.97 1460.03 1095.5 1459.71C1095.03 1459.4 1094.67 1458.94 1094.47 1458.42L1063.85 1381.4C1063.7 1381.04 1063.62 1380.66 1063.62 1380.27C1063.62 1379.89 1063.7 1379.51 1063.85 1379.15C1064 1378.8 1064.22 1378.49 1064.49 1378.23C1064.77 1377.97 1065.09 1377.77 1065.45 1377.64L1130.09 1353.71C1130.74 1353.47 1131.44 1353.48 1132.08 1353.73C1132.72 1353.98 1133.25 1354.45 1133.56 1355.06L1171.87 1429.04C1172.04 1429.38 1172.14 1429.76 1172.17 1430.15C1172.19 1430.54 1172.13 1430.92 1172 1431.29C1171.86 1431.66 1171.63 1431.99 1171.35 1432.27C1171.07 1432.55 1170.73 1432.77 1170.36 1432.91L1098.01 1459.95C1097.71 1460.08 1097.4 1460.16 1097.08 1460.2ZM1070.04 1381.99L1098.57 1453.78L1165.36 1428.7L1129.6 1359.75L1070.04 1381.99Z" fill="#313131"/>
<path d="M1004.31 1416.94C1000.84 1417.06 997.393 1416.37 994.242 1414.91C993.012 1414.34 991.919 1413.51 991.037 1412.48C990.155 1411.45 989.503 1410.24 989.127 1408.94C986.874 1400.83 997.014 1390.33 1012.54 1384.51C1023.08 1380.59 1033.47 1380.01 1039.58 1382.82C1040.81 1383.34 1041.92 1384.1 1042.85 1385.05C1043.78 1386.01 1044.51 1387.14 1044.99 1388.39C1047.92 1396.63 1037.93 1407.41 1021.78 1413.44C1016.2 1415.62 1010.29 1416.8 1004.31 1416.94ZM1030.07 1386.7C1024.74 1386.81 1019.48 1387.86 1014.52 1389.81C1001.66 1394.58 993.386 1403.1 994.558 1407.5C994.743 1408.03 995.04 1408.52 995.428 1408.94C995.816 1409.36 996.287 1409.68 996.811 1409.91C1000.66 1411.89 1009.29 1412.16 1019.88 1408.17C1033.13 1403.21 1041.29 1394.65 1039.74 1390.28C1039.5 1389.76 1039.15 1389.29 1038.73 1388.9C1038.3 1388.51 1037.8 1388.21 1037.26 1388.03C1034.98 1387.09 1032.53 1386.64 1030.07 1386.7Z" fill="#313131"/>
<path d="M1029.15 1499.52C1025.04 1499.64 1020.95 1498.8 1017.23 1497.06C1015.67 1496.33 1014.28 1495.27 1013.16 1493.96C1012.04 1492.65 1011.2 1491.12 1010.71 1489.47C1008.12 1479.8 1019.37 1467.25 1036.29 1460.9C1047.56 1456.73 1058.82 1456.19 1065.94 1459.5C1067.49 1460.16 1068.88 1461.13 1070.04 1462.34C1071.2 1463.55 1072.11 1464.98 1072.7 1466.55C1076.2 1476.38 1065.09 1489.29 1047.42 1495.84C1041.59 1498.13 1035.41 1499.38 1029.15 1499.52ZM1054.68 1462.97C1049.07 1463.07 1043.52 1464.16 1038.29 1466.19C1023.09 1471.87 1014.59 1482.08 1016.19 1488.03C1016.49 1488.91 1016.96 1489.73 1017.59 1490.43C1018.22 1491.12 1018.99 1491.68 1019.84 1492.06C1025.47 1494.94 1035.61 1494.31 1045.55 1490.64C1061.05 1484.8 1069.57 1474.26 1067.5 1468.42C1067.13 1467.55 1066.6 1466.77 1065.93 1466.11C1065.25 1465.45 1064.45 1464.94 1063.58 1464.59C1060.76 1463.43 1057.72 1462.88 1054.68 1462.97Z" fill="#313131"/>
<path d="M991.83 1411.03C991.173 1411.03 990.538 1410.79 990.035 1410.37C989.533 1409.94 989.195 1409.36 989.08 1408.71C988.965 1408.06 989.08 1407.39 989.405 1406.82C989.731 1406.25 990.246 1405.81 990.862 1405.58L1041.45 1386.7C1042.15 1386.44 1042.93 1386.47 1043.61 1386.78C1044.3 1387.1 1044.83 1387.67 1045.09 1388.38C1045.35 1389.08 1045.32 1389.86 1045 1390.54C1044.69 1391.22 1044.11 1391.75 1043.41 1392.01L992.822 1410.9C992.501 1411 992.166 1411.04 991.83 1411.03Z" fill="#313131"/>
<path d="M1020.88 1413.62C1020.28 1413.62 1019.69 1413.43 1019.21 1413.07C1018.73 1412.71 1018.37 1412.21 1018.19 1411.64L1010.85 1388C1010.74 1387.65 1010.7 1387.28 1010.73 1386.91C1010.76 1386.54 1010.87 1386.18 1011.04 1385.85C1011.21 1385.52 1011.45 1385.23 1011.73 1384.99C1012.02 1384.76 1012.34 1384.58 1012.7 1384.47C1013.05 1384.35 1013.42 1384.31 1013.79 1384.35C1014.16 1384.38 1014.52 1384.49 1014.85 1384.66C1015.18 1384.83 1015.47 1385.06 1015.71 1385.35C1015.94 1385.63 1016.12 1385.96 1016.23 1386.31L1023.58 1410.04C1023.71 1410.46 1023.73 1410.91 1023.66 1411.34C1023.58 1411.78 1023.4 1412.19 1023.14 1412.54C1022.88 1412.9 1022.54 1413.18 1022.14 1413.38C1021.75 1413.58 1021.32 1413.69 1020.88 1413.69V1413.62Z" fill="#313131"/>
<path d="M1013.44 1491.56C1012.78 1491.56 1012.14 1491.33 1011.63 1490.91C1011.13 1490.49 1010.79 1489.9 1010.67 1489.25C1010.55 1488.6 1010.66 1487.93 1010.99 1487.36C1011.31 1486.79 1011.83 1486.34 1012.45 1486.11L1069.14 1464.84C1069.84 1464.58 1070.61 1464.6 1071.3 1464.91C1071.98 1465.22 1072.51 1465.79 1072.77 1466.49C1073.03 1467.18 1073.01 1467.96 1072.7 1468.64C1072.39 1469.32 1071.82 1469.85 1071.12 1470.11L1014.43 1491.38C1014.11 1491.5 1013.78 1491.56 1013.44 1491.56Z" fill="#313131"/>
<path d="M1046.52 1496.09C1045.92 1496.1 1045.33 1495.9 1044.85 1495.55C1044.37 1495.19 1044.01 1494.69 1043.84 1494.11L1034.58 1464.39C1034.36 1463.67 1034.44 1462.9 1034.79 1462.24C1035.14 1461.58 1035.73 1461.08 1036.45 1460.85C1037.16 1460.63 1037.93 1460.71 1038.59 1461.05C1039.24 1461.4 1039.74 1461.99 1039.96 1462.7L1049.2 1492.44C1049.31 1492.8 1049.35 1493.17 1049.32 1493.53C1049.29 1493.9 1049.18 1494.26 1049.01 1494.59C1048.84 1494.91 1048.6 1495.2 1048.32 1495.44C1048.03 1495.67 1047.71 1495.85 1047.35 1495.96C1047.08 1496.05 1046.8 1496.09 1046.52 1496.09Z" fill="#313131"/>
<path d="M968.962 1388.45L965.199 1422.34L999.336 1564.07L1212.72 1483.86L1216.51 1449.97L1003.12 1530.18L968.962 1388.45Z" fill="#21A2FF"/>
<path d="M999.335 1566.89C998.881 1566.89 998.434 1566.78 998.028 1566.58C997.673 1566.39 997.362 1566.13 997.117 1565.81C996.872 1565.49 996.699 1565.12 996.609 1564.73L962.449 1423C962.404 1422.68 962.404 1422.35 962.449 1422.03L966.212 1388.23C966.284 1387.57 966.587 1386.95 967.068 1386.5C967.549 1386.04 968.177 1385.76 968.841 1385.72C969.505 1385.68 970.162 1385.88 970.695 1386.27C971.228 1386.67 971.604 1387.25 971.755 1387.89L1005.1 1526.42L1215.51 1447.33C1215.96 1447.17 1216.45 1447.12 1216.92 1447.19C1217.4 1447.27 1217.84 1447.47 1218.22 1447.76C1218.6 1448.05 1218.91 1448.44 1219.1 1448.88C1219.29 1449.32 1219.36 1449.81 1219.3 1450.29L1215.54 1484.09C1215.46 1484.59 1215.26 1485.07 1214.93 1485.46C1214.61 1485.86 1214.19 1486.16 1213.71 1486.34L1000.33 1566.56C1000.02 1566.73 999.683 1566.84 999.335 1566.89ZM968.037 1422.17L1001.34 1560.31L1210.15 1481.83L1213.22 1454.23L1004.11 1532.82C1003.74 1532.97 1003.34 1533.03 1002.95 1533C1002.55 1532.98 1002.16 1532.87 1001.81 1532.69C1001.46 1532.5 1001.15 1532.24 1000.9 1531.93C1000.66 1531.61 1000.49 1531.25 1000.39 1530.86L969.998 1404.68L968.037 1422.17Z" fill="#313131"/>
<path d="M1156.61 1347.87C1155.96 1347.87 1155.33 1347.64 1154.83 1347.22C1154.32 1346.81 1153.98 1346.23 1153.86 1345.59C1153.74 1344.94 1153.84 1344.28 1154.15 1343.71C1154.47 1343.13 1154.97 1342.69 1155.58 1342.44L1220.49 1316.62C1221.19 1316.34 1221.97 1316.35 1222.66 1316.65C1223.35 1316.95 1223.89 1317.5 1224.17 1318.2C1224.44 1318.89 1224.43 1319.67 1224.14 1320.36C1223.84 1321.05 1223.29 1321.59 1222.59 1321.87L1157.65 1347.67C1157.32 1347.8 1156.97 1347.87 1156.61 1347.87Z" fill="#313131"/>
<path d="M1201.5 1420.75C1200.85 1420.74 1200.22 1420.5 1199.72 1420.09C1199.22 1419.67 1198.88 1419.09 1198.76 1418.45C1198.65 1417.81 1198.75 1417.14 1199.06 1416.57C1199.38 1416 1199.88 1415.56 1200.48 1415.32L1272.14 1387.67C1272.49 1387.52 1272.86 1387.44 1273.24 1387.43C1273.62 1387.43 1274 1387.5 1274.35 1387.65C1274.7 1387.8 1275.02 1388.01 1275.28 1388.29C1275.55 1388.56 1275.75 1388.88 1275.89 1389.24C1276.03 1389.59 1276.09 1389.97 1276.08 1390.35C1276.07 1390.73 1275.98 1391.1 1275.81 1391.44C1275.65 1391.79 1275.42 1392.1 1275.14 1392.35C1274.86 1392.6 1274.53 1392.8 1274.17 1392.92L1202.51 1420.57C1202.19 1420.69 1201.84 1420.75 1201.5 1420.75Z" fill="#313131"/>
<path d="M1232.32 1329.15C1229.65 1329.15 1227.04 1328.36 1224.81 1326.87C1222.59 1325.38 1220.86 1323.27 1219.83 1320.8C1218.81 1318.33 1218.54 1315.61 1219.06 1312.99C1219.59 1310.37 1220.87 1307.96 1222.76 1306.07C1224.66 1304.18 1227.06 1302.89 1229.69 1302.37C1232.31 1301.85 1235.03 1302.12 1237.5 1303.14C1239.97 1304.16 1242.08 1305.89 1243.57 1308.12C1245.05 1310.34 1245.84 1312.96 1245.84 1315.63C1245.84 1319.21 1244.42 1322.65 1241.88 1325.19C1239.35 1327.72 1235.91 1329.15 1232.32 1329.15ZM1232.32 1307.61C1230.75 1307.61 1229.21 1308.07 1227.91 1308.95C1226.6 1309.82 1225.58 1311.06 1224.98 1312.52C1224.37 1313.97 1224.22 1315.57 1224.52 1317.11C1224.83 1318.66 1225.59 1320.07 1226.7 1321.19C1227.81 1322.3 1229.23 1323.06 1230.77 1323.36C1232.32 1323.67 1233.91 1323.51 1235.37 1322.91C1236.82 1322.31 1238.06 1321.29 1238.94 1319.98C1239.81 1318.67 1240.28 1317.13 1240.28 1315.56C1240.28 1314.52 1240.07 1313.48 1239.67 1312.52C1239.27 1311.55 1238.69 1310.68 1237.95 1309.94C1237.21 1309.2 1236.33 1308.61 1235.37 1308.21C1234.4 1307.81 1233.37 1307.61 1232.32 1307.61Z" fill="#313131"/>
<path d="M1284.26 1400.37C1281.38 1400.37 1278.55 1399.51 1276.16 1397.9C1273.76 1396.3 1271.89 1394.01 1270.79 1391.35C1269.69 1388.68 1269.4 1385.74 1269.97 1382.91C1270.53 1380.08 1271.93 1377.48 1273.97 1375.44C1276.01 1373.4 1278.61 1372.01 1281.44 1371.45C1284.28 1370.89 1287.21 1371.18 1289.88 1372.29C1292.54 1373.39 1294.82 1375.26 1296.43 1377.66C1298.03 1380.06 1298.89 1382.89 1298.89 1385.77C1298.89 1387.69 1298.51 1389.59 1297.77 1391.37C1297.04 1393.14 1295.96 1394.75 1294.6 1396.11C1293.24 1397.46 1291.63 1398.54 1289.86 1399.27C1288.08 1400 1286.18 1400.38 1284.26 1400.37ZM1284.26 1376.81C1282.48 1376.81 1280.74 1377.33 1279.25 1378.32C1277.77 1379.31 1276.62 1380.72 1275.94 1382.37C1275.25 1384.02 1275.07 1385.83 1275.42 1387.58C1275.77 1389.32 1276.63 1390.93 1277.89 1392.19C1279.15 1393.45 1280.76 1394.31 1282.5 1394.66C1284.25 1395.01 1286.06 1394.83 1287.71 1394.15C1289.36 1393.46 1290.77 1392.31 1291.76 1390.83C1292.75 1389.34 1293.28 1387.6 1293.28 1385.82C1293.28 1383.43 1292.33 1381.14 1290.64 1379.44C1288.95 1377.75 1286.65 1376.81 1284.26 1376.81Z" fill="#313131"/>
<path d="M999.358 1566.89H999.042C998.674 1566.85 998.317 1566.74 997.991 1566.56C997.666 1566.38 997.379 1566.14 997.146 1565.86C996.914 1565.57 996.741 1565.23 996.637 1564.88C996.533 1564.52 996.501 1564.15 996.541 1563.78L1000.3 1529.98C1000.39 1529.24 1000.76 1528.56 1001.35 1528.09C1001.93 1527.62 1002.68 1527.41 1003.43 1527.49C1004.17 1527.58 1004.85 1527.95 1005.32 1528.54C1005.78 1529.12 1006 1529.87 1005.91 1530.61L1002.15 1564.41C1002.07 1565.1 1001.74 1565.72 1001.22 1566.18C1000.71 1566.64 1000.05 1566.89 999.358 1566.89Z" fill="#313131"/>
<path d="M966.312 674.541L890.724 966.609L1422.05 1104.12L1497.64 812.05L966.312 674.541Z" fill="white"/>
<path d="M1422.07 1106.98C1421.84 1107.01 1421.61 1107.01 1421.38 1106.98L890.052 969.526C889.335 969.34 888.719 968.879 888.34 968.242C888.136 967.908 888.003 967.535 887.949 967.148C887.894 966.76 887.92 966.366 888.024 965.988L963.644 673.851C963.733 673.494 963.892 673.159 964.113 672.865C964.334 672.571 964.611 672.324 964.929 672.139C965.574 671.757 966.342 671.644 967.069 671.823L1498.39 809.273C1499.11 809.459 1499.73 809.921 1500.1 810.557C1500.49 811.202 1500.6 811.971 1500.42 812.698L1424.8 1104.86C1424.65 1105.47 1424.3 1106 1423.8 1106.39C1423.31 1106.77 1422.7 1106.98 1422.07 1106.98ZM894.198 964.614L1420.07 1100.73L1494.25 814.118L968.376 677.997L894.198 964.614Z" fill="#313131"/>
<path d="M1103.63 968.295L1095.86 998.289L1150.42 1012.41L1158.18 982.414L1103.63 968.295Z" fill="#21A2FF"/>
<path d="M1150.48 1015.29C1150.25 1015.32 1150.02 1015.32 1149.79 1015.29L1095.23 1001.07C1094.51 1000.88 1093.89 1000.42 1093.51 999.778C1093.13 999.135 1093.02 998.369 1093.21 997.646L1100.98 967.654C1101.07 967.295 1101.23 966.956 1101.45 966.658C1101.67 966.36 1101.95 966.109 1102.26 965.919C1102.91 965.543 1103.68 965.438 1104.4 965.626L1158.96 979.664C1159.67 979.851 1160.29 980.312 1160.67 980.949C1160.86 981.267 1160.98 981.621 1161.03 981.989C1161.08 982.357 1161.06 982.731 1160.96 983.089L1153.21 1013.08C1153.07 1013.7 1152.73 1014.26 1152.23 1014.66C1151.74 1015.06 1151.12 1015.28 1150.48 1015.29ZM1099.36 996.316L1148.46 1008.96L1154.81 984.396L1105.71 971.688L1099.36 996.316Z" fill="#313131"/>
<path d="M1114.19 934.01L1109.77 951.068L1140.79 959.096L1145.21 942.038L1114.19 934.01Z" fill="#FFA620"/>
<path d="M1140.84 961.977C1140.61 962.011 1140.37 962.011 1140.14 961.977L1109.12 953.955C1108.39 953.764 1107.77 953.295 1107.39 952.649C1107.01 952.003 1106.9 951.233 1107.09 950.507L1111.59 933.45C1111.69 933.092 1111.85 932.756 1112.07 932.462C1112.3 932.168 1112.58 931.921 1112.9 931.738C1113.21 931.546 1113.56 931.421 1113.93 931.371C1114.29 931.321 1114.66 931.346 1115.02 931.445L1146.05 939.466C1146.41 939.559 1146.75 939.722 1147.04 939.946C1147.34 940.17 1147.59 940.451 1147.78 940.773C1148.15 941.423 1148.25 942.189 1148.07 942.914L1143.57 959.949C1143.48 960.312 1143.32 960.652 1143.09 960.951C1142.87 961.249 1142.59 961.498 1142.26 961.684C1141.82 961.902 1141.33 962.002 1140.84 961.977ZM1113.26 949.11L1138.84 955.735L1141.86 944.131L1116.28 937.506L1113.26 949.11Z" fill="#313131"/>
<path d="M1067.88 1015.29C1067.64 1015.32 1067.4 1015.32 1067.16 1015.29C1066.44 1015.1 1065.82 1014.64 1065.44 1014C1065.06 1013.36 1064.95 1012.59 1065.13 1011.87L1140.75 719.683C1140.94 718.96 1141.41 718.341 1142.05 717.963C1142.7 717.585 1143.46 717.478 1144.19 717.666C1144.91 717.854 1145.53 718.322 1145.91 718.967C1146.29 719.611 1146.39 720.379 1146.2 721.102L1070.58 1013.17C1070.43 1013.78 1070.09 1014.31 1069.6 1014.7C1069.11 1015.08 1068.5 1015.29 1067.88 1015.29Z" fill="#313131"/>
<path d="M1325.57 403.503L1201.86 314.882L1180.95 350.664L1324.53 406.906L1325.57 403.503Z" fill="#21A2FF"/>
<path d="M1340.53 408.054L1492.62 403.435L1490.05 444.805L1339.49 411.456L1340.53 408.054Z" fill="#21A2FF"/>
<path d="M1325.75 304.832L1325.97 400.439L1340.77 404.968L1392.31 325.089L1325.75 304.832Z" fill="#21A2FF"/>
<path d="M1324.53 409.721C1324.17 409.722 1323.82 409.653 1323.49 409.519L1179.91 353.187C1179.54 353.035 1179.2 352.804 1178.91 352.509C1178.63 352.214 1178.42 351.862 1178.29 351.478C1178.16 351.093 1178.11 350.684 1178.15 350.28C1178.19 349.875 1178.31 349.483 1178.52 349.131L1199.43 313.349C1199.63 313.013 1199.9 312.723 1200.21 312.494C1200.53 312.266 1200.89 312.104 1201.27 312.019C1201.66 311.935 1202.06 311.934 1202.45 312.015C1202.84 312.097 1203.21 312.259 1203.53 312.493L1327.21 401.114C1327.69 401.454 1328.05 401.938 1328.24 402.497C1328.43 403.055 1328.44 403.66 1328.27 404.223L1327.23 407.626C1327.12 407.998 1326.93 408.343 1326.68 408.638C1326.43 408.933 1326.12 409.171 1325.77 409.338C1325.39 409.568 1324.97 409.7 1324.53 409.721ZM1185.03 349.221L1317.27 401.046L1202.74 318.959L1185.03 349.221Z" fill="#313131"/>
<path d="M1490.05 447.621C1489.85 447.643 1489.65 447.643 1489.44 447.621L1338.88 414.272C1338.5 414.185 1338.15 414.022 1337.83 413.793C1337.52 413.565 1337.25 413.276 1337.06 412.943C1336.85 412.607 1336.73 412.233 1336.68 411.845C1336.63 411.457 1336.67 411.063 1336.78 410.689L1337.82 407.287C1338 406.726 1338.35 406.233 1338.81 405.874C1339.28 405.516 1339.85 405.309 1340.44 405.282L1492.53 400.775C1492.92 400.767 1493.31 400.839 1493.68 400.986C1494.04 401.133 1494.37 401.353 1494.65 401.631C1494.93 401.912 1495.14 402.248 1495.27 402.617C1495.41 402.986 1495.47 403.38 1495.44 403.772L1492.85 445.119C1492.8 445.833 1492.49 446.503 1491.97 446.996C1491.45 447.489 1490.77 447.768 1490.05 447.778V447.621ZM1348.77 410.622L1487.44 441.334L1489.69 406.341L1348.77 410.622Z" fill="#313131"/>
<path d="M1340.84 407.784C1340.56 407.783 1340.29 407.737 1340.03 407.648L1325.2 403.142C1324.63 402.964 1324.13 402.608 1323.77 402.126C1323.41 401.644 1323.22 401.06 1323.22 400.46L1322.99 304.831C1322.99 304.39 1323.09 303.953 1323.28 303.557C1323.48 303.162 1323.76 302.818 1324.12 302.554C1324.47 302.29 1324.88 302.114 1325.32 302.04C1325.75 301.966 1326.2 301.996 1326.62 302.127L1393.21 322.407C1393.62 322.535 1394 322.756 1394.32 323.053C1394.63 323.35 1394.88 323.714 1395.03 324.119C1395.18 324.53 1395.23 324.97 1395.18 325.404C1395.13 325.839 1394.98 326.255 1394.74 326.62L1343.09 406.477C1342.85 406.862 1342.52 407.183 1342.13 407.411C1341.74 407.639 1341.29 407.767 1340.84 407.784ZM1328.79 398.32L1339.56 401.61L1387.93 326.666L1328.56 308.639L1328.79 398.32Z" fill="#313131"/>
<path d="M1331.2 426.036C1340.14 426.036 1347.4 418.782 1347.4 409.835C1347.4 400.887 1340.14 393.634 1331.2 393.634C1322.25 393.634 1315 400.887 1315 409.835C1315 418.782 1322.25 426.036 1331.2 426.036Z" fill="white"/>
<path d="M1331.22 428.851C1329.33 428.85 1327.46 428.569 1325.65 428.018C1322.06 426.922 1318.86 424.784 1316.48 421.873C1314.1 418.963 1312.63 415.411 1312.26 411.666C1311.9 407.922 1312.65 404.154 1314.43 400.838C1316.21 397.523 1318.93 394.809 1322.25 393.04C1325.57 391.271 1329.34 390.527 1333.08 390.901C1336.83 391.275 1340.38 392.751 1343.28 395.142C1346.18 397.533 1348.31 400.732 1349.4 404.334C1350.49 407.936 1350.48 411.779 1349.38 415.377C1348.21 419.281 1345.81 422.704 1342.54 425.138C1339.26 427.573 1335.3 428.891 1331.22 428.897V428.851ZM1331.22 396.449C1328.74 396.452 1326.31 397.144 1324.2 398.446C1322.1 399.748 1320.39 401.61 1319.28 403.824C1318.16 406.039 1317.69 408.519 1317.9 410.988C1318.12 413.457 1319.01 415.818 1320.49 417.808C1321.96 419.799 1323.96 421.34 1326.27 422.261C1328.57 423.181 1331.08 423.445 1333.52 423.022C1335.96 422.6 1338.24 421.507 1340.1 419.867C1341.95 418.227 1343.32 416.103 1344.04 413.732C1345.07 410.338 1344.72 406.672 1343.05 403.541C1341.38 400.41 1338.53 398.07 1335.14 397.035C1333.85 396.647 1332.52 396.45 1331.18 396.449H1331.22Z" fill="#313131"/>
<path d="M1352.08 417.19L1319.35 407.303C1314.19 405.744 1308.74 408.664 1307.18 413.825L1306.4 416.421C1304.84 421.582 1307.76 427.03 1312.92 428.589L1345.65 438.475C1350.81 440.034 1356.25 437.115 1357.81 431.954L1358.6 429.358C1360.16 424.197 1357.24 418.749 1352.08 417.19Z" fill="white"/>
<path d="M1352.08 417.19L1319.35 407.303C1314.19 405.744 1308.74 408.664 1307.18 413.825L1306.4 416.421C1304.84 421.582 1307.76 427.03 1312.92 428.589L1345.65 438.475C1350.81 440.034 1356.25 437.115 1357.81 431.954L1358.6 429.358C1360.16 424.197 1357.24 418.749 1352.08 417.19Z" fill="#313131"/>
<path d="M1193.12 529.394L933.946 440.39L926.33 451.273L1105.67 525.068L1195.44 560.782L1193.12 529.394Z" fill="white"/>
<path d="M1195.44 563.598C1195.08 563.596 1194.73 563.528 1194.4 563.395L1104.63 527.703L925.248 453.886C924.861 453.72 924.515 453.47 924.235 453.154C923.956 452.838 923.749 452.465 923.631 452.06C923.512 451.655 923.485 451.229 923.55 450.812C923.616 450.396 923.772 449.999 924.009 449.65L931.625 438.766C931.98 438.271 932.485 437.902 933.065 437.715C933.645 437.529 934.27 437.534 934.847 437.73L1193.97 526.734C1194.5 526.914 1194.95 527.242 1195.29 527.678C1195.63 528.115 1195.83 528.641 1195.87 529.19L1198.12 560.579C1198.15 560.965 1198.1 561.353 1197.97 561.719C1197.84 562.084 1197.63 562.419 1197.37 562.703C1197.11 562.986 1196.79 563.212 1196.43 563.366C1196.07 563.52 1195.69 563.599 1195.3 563.598H1195.44ZM930.746 450.01L1106.86 522.476L1192.49 556.5L1190.62 531.444L935.028 443.746L930.746 450.01Z" fill="#313131"/>
<path d="M908.439 420.448L784.283 332.435L763.553 368.329L907.425 423.85L908.439 420.448Z" fill="#21A2FF"/>
<path d="M923.422 424.93L1075.52 419.5L1073.13 460.893L922.408 428.31L923.422 424.93Z" fill="#21A2FF"/>
<path d="M908.123 321.754L908.844 417.383L923.671 421.822L974.798 341.695L908.123 321.754Z" fill="#21A2FF"/>
<path d="M907.424 426.666C907.076 426.665 906.732 426.596 906.41 426.464L762.538 370.965C762.157 370.821 761.812 370.596 761.528 370.305C761.243 370.013 761.025 369.663 760.89 369.279C760.755 368.895 760.705 368.486 760.745 368.08C760.784 367.675 760.912 367.283 761.119 366.932L781.849 331.037C782.046 330.696 782.312 330.4 782.631 330.167C782.949 329.934 783.312 329.77 783.697 329.685C784.083 329.603 784.482 329.601 784.87 329.679C785.257 329.756 785.625 329.912 785.95 330.136L910.083 418.149C910.565 418.485 910.929 418.964 911.123 419.518C911.317 420.072 911.332 420.673 911.165 421.236L910.151 424.638C910.037 425.012 909.848 425.358 909.596 425.656C909.344 425.954 909.035 426.198 908.686 426.373C908.292 426.563 907.861 426.663 907.424 426.666ZM767.721 366.887L900.214 418.014L785.297 336.535L767.721 366.887Z" fill="#313131"/>
<path d="M1073.13 463.666H1072.54L921.732 431.083C921.353 430.998 920.996 430.837 920.682 430.608C920.368 430.379 920.104 430.089 919.907 429.754C919.705 429.419 919.577 429.045 919.53 428.656C919.484 428.268 919.52 427.874 919.637 427.501L920.65 424.098C920.81 423.53 921.148 423.028 921.615 422.667C922.081 422.306 922.652 422.105 923.242 422.093L1075.32 416.662C1075.71 416.657 1076.1 416.73 1076.46 416.877C1076.82 417.024 1077.16 417.242 1077.43 417.519C1077.71 417.799 1077.92 418.135 1078.06 418.504C1078.19 418.873 1078.25 419.267 1078.22 419.659L1075.86 461.029C1075.83 461.434 1075.72 461.829 1075.53 462.186C1075.34 462.544 1075.07 462.857 1074.75 463.102C1074.28 463.457 1073.72 463.654 1073.13 463.666ZM931.692 427.411L1070.45 457.447L1072.45 422.431L931.692 427.411Z" fill="#313131"/>
<path d="M923.671 424.639C923.397 424.635 923.124 424.597 922.86 424.527L908.033 420.02C907.454 419.85 906.946 419.496 906.584 419.013C906.223 418.53 906.028 417.942 906.028 417.339L905.307 321.71C905.305 321.272 905.406 320.84 905.602 320.449C905.797 320.057 906.082 319.717 906.433 319.456C906.788 319.194 907.199 319.019 907.633 318.945C908.067 318.87 908.513 318.899 908.934 319.028L975.609 338.947C976.023 339.076 976.402 339.297 976.719 339.593C977.035 339.89 977.279 340.255 977.434 340.66C977.586 341.069 977.641 341.508 977.594 341.942C977.547 342.376 977.4 342.793 977.164 343.161L926.059 423.332C925.803 423.733 925.449 424.062 925.032 424.291C924.615 424.519 924.147 424.639 923.671 424.639ZM911.638 415.288L922.454 418.51L970.404 343.319L910.962 325.54L911.638 415.288Z" fill="#313131"/>
<path d="M914.116 442.935C923.064 442.935 930.317 435.682 930.317 426.734C930.317 417.787 923.064 410.533 914.116 410.533C905.169 410.533 897.915 417.787 897.915 426.734C897.915 435.682 905.169 442.935 914.116 442.935Z" fill="white"/>
<path d="M914.138 445.774C911.406 445.786 908.703 445.208 906.214 444.081C903.725 442.954 901.508 441.304 899.714 439.243C897.921 437.183 896.592 434.76 895.819 432.139C895.045 429.519 894.846 426.762 895.234 424.058C895.621 421.353 896.587 418.764 898.066 416.466C899.544 414.169 901.5 412.217 903.801 410.743C906.101 409.269 908.693 408.309 911.398 407.926C914.103 407.544 916.859 407.749 919.478 408.528C923.859 409.83 927.624 412.667 930.084 416.518C932.545 420.369 933.536 424.978 932.877 429.5C932.217 434.023 929.952 438.157 926.494 441.145C923.036 444.134 918.618 445.777 914.048 445.774H914.138ZM914.138 413.372C910.917 413.356 907.799 414.503 905.358 416.603C902.916 418.702 901.314 421.613 900.848 424.8C900.382 427.986 901.082 431.234 902.82 433.945C904.558 436.656 907.217 438.649 910.307 439.555C911.992 440.058 913.76 440.223 915.509 440.041C917.258 439.86 918.954 439.336 920.5 438.499C922.047 437.662 923.413 436.529 924.521 435.163C925.629 433.798 926.458 432.228 926.959 430.542C927.464 428.857 927.632 427.089 927.452 425.339C927.272 423.589 926.748 421.892 925.911 420.344C925.073 418.797 923.939 417.431 922.572 416.323C921.205 415.216 919.633 414.389 917.946 413.891C916.701 413.53 915.411 413.355 914.115 413.372H914.138Z" fill="#313131"/>
<path d="M929.68 434.33L897.016 424.568C891.865 423.028 886.441 425.956 884.902 431.107L884.128 433.698C882.588 438.848 885.516 444.272 890.667 445.811L923.331 455.574C928.482 457.113 933.906 454.186 935.445 449.035L936.219 446.444C937.759 441.293 934.831 435.87 929.68 434.33Z" fill="#313131"/>
<path d="M926.059 458.866C924.847 458.859 923.641 458.685 922.477 458.347L889.804 448.568C886.62 447.609 883.945 445.427 882.366 442.501C880.787 439.574 880.431 436.141 881.377 432.953L882.143 430.362C883.102 427.177 885.284 424.503 888.21 422.924C891.137 421.344 894.57 420.988 897.758 421.934L930.431 431.691C932.011 432.161 933.482 432.938 934.762 433.978C936.041 435.017 937.102 436.299 937.885 437.75C938.668 439.2 939.157 440.791 939.324 442.431C939.491 444.071 939.332 445.728 938.858 447.306L938.092 449.898C937.32 452.489 935.732 454.762 933.564 456.378C931.395 457.994 928.763 458.866 926.059 458.866ZM924.076 452.94C925.833 453.465 927.727 453.271 929.341 452.4C930.955 451.53 932.157 450.054 932.684 448.298L933.473 445.706C933.732 444.835 933.817 443.921 933.723 443.017C933.63 442.112 933.358 441.235 932.925 440.436C932.492 439.636 931.905 438.93 931.199 438.358C930.492 437.785 929.68 437.357 928.808 437.099L896.158 427.32C895.287 427.06 894.373 426.975 893.468 427.069C892.564 427.163 891.687 427.434 890.888 427.867C890.088 428.301 889.382 428.887 888.809 429.594C888.237 430.3 887.809 431.112 887.551 431.984L886.762 434.575C886.243 436.332 886.44 438.223 887.309 439.836C888.179 441.448 889.651 442.651 891.404 443.183L924.076 452.94Z" fill="#313131"/>
<path d="M1379.24 587.55L1641.84 665.874L1641.7 679.168L1452.88 634.891L1359.09 611.727L1379.24 587.55Z" fill="white"/>
<path d="M1641.7 681.986C1641.49 682.008 1641.28 682.008 1641.07 681.986L1452.24 637.732L1358.42 614.455C1357.95 614.346 1357.52 614.119 1357.17 613.795C1356.82 613.471 1356.56 613.062 1356.41 612.608C1356.26 612.153 1356.23 611.669 1356.32 611.2C1356.41 610.731 1356.62 610.293 1356.93 609.926L1377.07 585.749C1377.43 585.323 1377.9 585.011 1378.43 584.851C1378.95 584.69 1379.52 584.689 1380.05 584.847L1642.65 663.171C1643.23 663.35 1643.74 663.712 1644.1 664.203C1644.46 664.694 1644.65 665.288 1644.65 665.898L1644.52 679.192C1644.52 679.626 1644.43 680.055 1644.24 680.446C1644.05 680.837 1643.78 681.179 1643.43 681.445C1642.93 681.811 1642.32 682.001 1641.7 681.986ZM1364.14 610.129L1453.55 632.211L1638.93 675.654V668.016L1380.21 590.773L1364.14 610.129Z" fill="#313131"/>
<path d="M1674.17 664.477L1826.36 665.085L1822.35 706.342L1673.02 667.834L1674.17 664.477Z" fill="#21A2FF"/>
<path d="M1659.39 659.406L1538.81 566.549L1516.66 601.587L1658.24 662.764L1659.39 659.406Z" fill="#21A2FF"/>
<path d="M1731.83 584.395L1675.63 661.75L1660.99 656.748L1665.99 561.817L1731.83 584.395Z" fill="#21A2FF"/>
<path d="M1822.34 709.272C1822.11 709.304 1821.88 709.304 1821.65 709.272L1672.32 670.763C1671.94 670.665 1671.59 670.49 1671.29 670.249C1670.98 670.009 1670.73 669.708 1670.54 669.366C1670.36 669.021 1670.25 668.645 1670.22 668.258C1670.19 667.871 1670.24 667.481 1670.36 667.113L1671.51 663.755C1671.7 663.197 1672.06 662.714 1672.54 662.374C1673.02 662.034 1673.6 661.855 1674.19 661.863L1826.35 662.471C1826.75 662.479 1827.14 662.567 1827.5 662.73C1827.86 662.893 1828.18 663.126 1828.45 663.417C1828.72 663.72 1828.93 664.078 1829.05 664.467C1829.17 664.856 1829.2 665.267 1829.15 665.671L1825.14 706.906C1825.11 707.313 1824.98 707.707 1824.78 708.062C1824.58 708.416 1824.3 708.722 1823.97 708.956C1823.46 709.209 1822.9 709.318 1822.34 709.272ZM1682.32 667.428L1819.77 702.917L1823.15 668.014L1682.32 667.428Z" fill="#313131"/>
<path d="M1658.24 665.581C1657.85 665.574 1657.47 665.498 1657.11 665.356L1515.56 604.179C1515.19 604.017 1514.85 603.776 1514.58 603.473C1514.31 603.169 1514.1 602.811 1513.98 602.422C1513.87 602.045 1513.84 601.65 1513.9 601.261C1513.95 600.873 1514.09 600.501 1514.3 600.169L1536.43 565.063C1536.64 564.732 1536.91 564.448 1537.24 564.23C1537.56 564.012 1537.93 563.864 1538.32 563.796C1538.7 563.729 1539.1 563.742 1539.48 563.836C1539.86 563.93 1540.22 564.102 1540.53 564.342L1661.1 657.199C1661.56 657.56 1661.9 658.054 1662.07 658.615C1662.24 659.176 1662.23 659.775 1662.05 660.331L1660.9 663.689C1660.77 664.056 1660.57 664.394 1660.3 664.68C1660.04 664.967 1659.72 665.197 1659.36 665.356C1659.01 665.508 1658.62 665.584 1658.24 665.581ZM1520.79 600.236L1651.16 656.568L1539.51 570.583L1520.79 600.236Z" fill="#313131"/>
<path d="M1675.63 664.568C1675.33 664.567 1675.02 664.521 1674.73 664.432L1660.06 659.408C1659.49 659.204 1658.99 658.821 1658.65 658.313C1658.31 657.806 1658.14 657.202 1658.17 656.591L1663.17 561.683C1663.19 561.238 1663.32 560.804 1663.53 560.413C1663.75 560.023 1664.05 559.686 1664.41 559.43C1664.77 559.183 1665.19 559.023 1665.62 558.965C1666.06 558.906 1666.5 558.95 1666.91 559.092L1732.75 581.624C1733.17 581.772 1733.54 582.013 1733.85 582.33C1734.15 582.647 1734.38 583.03 1734.51 583.45C1734.65 583.868 1734.68 584.314 1734.61 584.75C1734.54 585.185 1734.37 585.597 1734.11 585.951L1677.91 663.328C1677.66 663.702 1677.32 664.01 1676.92 664.225C1676.53 664.441 1676.08 664.558 1675.63 664.568ZM1663.92 654.766L1674.57 658.416L1727.32 585.816L1668.6 565.694L1663.92 654.766Z" fill="#313131"/>
<path d="M1665.9 682.503C1674.85 682.503 1682.1 675.249 1682.1 666.302C1682.1 657.354 1674.85 650.101 1665.9 650.101C1656.95 650.101 1649.7 657.354 1649.7 666.302C1649.7 675.249 1656.95 682.503 1665.9 682.503Z" fill="white"/>
<path d="M1665.88 685.319C1661.85 685.311 1657.93 684.024 1654.68 681.644C1651.43 679.264 1649.02 675.914 1647.8 672.076C1646.57 668.239 1646.6 664.112 1647.87 660.291C1649.15 656.469 1651.6 653.151 1654.88 650.813C1658.16 648.476 1662.1 647.241 1666.13 647.285C1670.15 647.33 1674.06 648.652 1677.29 651.061C1680.52 653.471 1682.9 656.842 1684.09 660.691C1685.28 664.54 1685.21 668.666 1683.9 672.476C1682.61 676.226 1680.18 679.479 1676.95 681.782C1673.71 684.084 1669.85 685.321 1665.88 685.319ZM1665.88 652.917C1663.1 652.939 1660.4 653.816 1658.13 655.429C1655.87 657.041 1654.16 659.311 1653.24 661.93C1652.39 664.431 1652.3 667.127 1652.98 669.679C1653.66 672.23 1655.08 674.523 1657.07 676.267C1659.05 678.01 1661.5 679.127 1664.12 679.476C1666.74 679.825 1669.4 679.39 1671.77 678.227C1674.14 677.063 1676.12 675.223 1677.44 672.939C1678.77 670.655 1679.39 668.029 1679.22 665.393C1679.06 662.758 1678.11 660.23 1676.51 658.13C1674.91 656.03 1672.72 654.451 1670.23 653.593C1668.82 653.144 1667.35 652.923 1665.88 652.94V652.917Z" fill="#313131"/>
<path d="M1641.72 684.404L1673.97 695.458C1679.05 697.201 1684.59 694.492 1686.33 689.406L1687.21 686.848C1688.95 681.763 1686.24 676.227 1681.15 674.484L1648.9 663.429C1643.82 661.686 1638.28 664.396 1636.54 669.481L1635.66 672.039C1633.92 677.125 1636.63 682.661 1641.72 684.404Z" fill="#313131"/>
<path d="M1677.03 698.884C1675.65 698.878 1674.28 698.649 1672.97 698.208L1640.73 687.144C1639.17 686.612 1637.73 685.777 1636.5 684.688C1635.26 683.598 1634.25 682.276 1633.53 680.796C1632.8 679.316 1632.38 677.708 1632.28 676.064C1632.17 674.42 1632.4 672.772 1632.93 671.214L1633.77 668.713C1634.85 665.565 1637.13 662.973 1640.12 661.502C1641.6 660.773 1643.21 660.346 1644.86 660.246C1646.51 660.145 1648.16 660.373 1649.72 660.916L1681.96 671.957C1685.12 673.038 1687.71 675.325 1689.17 678.317C1690.64 681.308 1690.86 684.758 1689.78 687.91L1688.9 690.457C1688.04 692.918 1686.44 695.051 1684.31 696.56C1682.18 698.07 1679.64 698.882 1677.03 698.884ZM1642.55 681.827L1674.8 692.868C1675.66 693.162 1676.57 693.285 1677.47 693.228C1678.38 693.171 1679.27 692.936 1680.08 692.536C1680.9 692.137 1681.63 691.58 1682.23 690.899C1682.83 690.217 1683.29 689.424 1683.59 688.564L1684.47 686.018C1684.77 685.158 1684.89 684.248 1684.84 683.339C1684.79 682.43 1684.55 681.542 1684.15 680.724C1683.75 679.906 1683.19 679.176 1682.51 678.577C1681.82 677.977 1681.03 677.519 1680.16 677.23L1647.92 666.166C1647.06 665.872 1646.15 665.749 1645.24 665.806C1644.34 665.863 1643.45 666.098 1642.63 666.498C1641.82 666.897 1641.09 667.454 1640.49 668.135C1639.88 668.817 1639.42 669.61 1639.13 670.47L1638.25 673.039C1637.66 674.775 1637.78 676.674 1638.59 678.32C1639.4 679.967 1640.82 681.227 1642.55 681.827Z" fill="#313131"/>
<path d="M1285.68 502.555L1324.89 422.068L1331.72 424.119L1316.51 512.74L1285.68 502.555Z" fill="white"/>
<path d="M1316.51 515.49C1316.21 515.489 1315.91 515.444 1315.63 515.355L1284.78 505.17C1284.4 505.035 1284.05 504.824 1283.76 504.549C1283.46 504.273 1283.23 503.94 1283.07 503.57C1282.92 503.214 1282.84 502.831 1282.84 502.443C1282.84 502.056 1282.92 501.673 1283.07 501.317L1322.34 420.852C1322.63 420.248 1323.13 419.768 1323.75 419.5C1324.37 419.231 1325.06 419.191 1325.7 419.388L1332.46 421.438C1333.12 421.637 1333.68 422.069 1334.05 422.653C1334.41 423.238 1334.55 423.935 1334.44 424.615L1319.28 513.237C1319.15 513.877 1318.8 514.452 1318.3 514.864C1317.79 515.275 1317.16 515.497 1316.51 515.49ZM1289.62 500.821L1314.41 508.978L1328.63 426.035L1326.49 425.381L1289.62 500.821Z" fill="#313131"/>
<path d="M1373.99 633.787C1367.4 654.198 1354.79 672.133 1337.8 685.23L1170 630.678C1165.3 614.627 1164.43 597.695 1167.47 581.248C1170.51 564.801 1177.37 549.298 1187.5 535.988C1197.63 522.679 1210.74 511.935 1225.79 504.622C1240.83 497.309 1257.38 493.631 1274.1 493.886C1290.83 494.141 1307.26 498.321 1322.07 506.089C1336.88 513.857 1349.66 524.996 1359.38 538.608C1369.1 552.221 1375.48 567.926 1378.02 584.458C1380.56 600.99 1379.18 617.887 1373.99 633.787Z" fill="#FFA620"/>
<path d="M1337.8 688.045C1337.5 688.044 1337.2 687.999 1336.92 687.91L1169.12 633.358C1168.68 633.217 1168.29 632.97 1167.97 632.64C1167.65 632.31 1167.42 631.907 1167.29 631.465C1161.1 610.339 1161.45 587.835 1168.28 566.909C1170.47 560.22 1173.28 553.754 1176.69 547.599C1189.03 525.379 1208.72 508.142 1232.38 498.84C1256.03 489.539 1282.19 488.751 1306.36 496.611C1330.53 504.472 1351.22 520.492 1364.88 541.929C1378.54 563.365 1384.33 588.884 1381.24 614.115C1380.41 621.096 1378.91 627.979 1376.74 634.665C1369.97 655.606 1357.02 674.01 1339.6 687.459C1339.08 687.849 1338.45 688.055 1337.8 688.045ZM1172.3 628.469L1337.24 682.097C1353.19 669.415 1365.04 652.314 1371.33 632.93C1376.35 617.517 1377.69 601.144 1375.25 585.119C1372.81 569.094 1366.66 553.861 1357.28 540.638C1347.91 527.414 1335.57 516.567 1321.26 508.962C1306.94 501.357 1291.05 497.205 1274.84 496.838C1258.64 496.471 1242.57 499.899 1227.93 506.849C1213.28 513.798 1200.47 524.076 1190.5 536.861C1180.54 549.647 1173.7 564.585 1170.54 580.484C1167.38 596.382 1167.98 612.799 1172.3 628.424V628.469Z" fill="#313131"/>
<path d="M1509.61 698.749C1506.31 708.907 1499.1 717.336 1489.58 722.183C1480.06 727.03 1469 727.897 1458.85 724.594L1048.93 591.313C1043.9 589.676 1039.24 587.065 1035.22 583.628C1031.2 580.192 1027.89 575.996 1025.49 571.282C1023.09 566.568 1021.64 561.428 1021.23 556.154C1020.82 550.88 1021.45 545.577 1023.08 540.546C1024.72 535.516 1027.33 530.857 1030.77 526.836C1034.21 522.815 1038.4 519.51 1043.11 517.11C1047.83 514.71 1052.97 513.262 1058.24 512.849C1063.52 512.435 1068.82 513.065 1073.85 514.701L1483.77 647.983C1493.92 651.289 1502.35 658.495 1507.2 668.015C1512.05 677.535 1512.91 688.59 1509.61 698.749Z" fill="#FFA620"/>
<path d="M1471.35 729.416C1466.82 729.413 1462.32 728.698 1458.01 727.298L1048.07 593.994C1042.69 592.245 1037.71 589.454 1033.41 585.779C1029.1 582.104 1025.57 577.618 1023 572.576C1020.43 567.534 1018.88 562.036 1018.44 556.396C1017.99 550.755 1018.67 545.082 1020.41 539.701C1022.16 534.32 1024.95 529.336 1028.63 525.034C1032.3 520.732 1036.79 517.196 1041.83 514.627C1046.87 512.059 1052.37 510.509 1058.01 510.065C1063.65 509.622 1069.33 510.293 1074.71 512.042L1484.62 645.324C1490 647.073 1494.99 649.866 1499.29 653.542C1503.59 657.218 1507.13 661.706 1509.7 666.748C1512.26 671.791 1513.81 677.29 1514.25 682.932C1514.7 688.573 1514.02 694.247 1512.27 699.628C1509.45 708.266 1503.98 715.795 1496.63 721.143C1489.28 726.491 1480.44 729.386 1471.35 729.416ZM1061.44 515.49C1052.52 515.493 1043.89 518.678 1037.11 524.472C1030.34 530.267 1025.85 538.29 1024.46 547.099C1023.07 555.908 1024.86 564.924 1029.53 572.525C1034.19 580.126 1041.42 585.813 1049.9 588.564L1459.81 721.845C1464.5 723.385 1469.44 723.985 1474.36 723.61C1479.27 723.236 1484.07 721.894 1488.46 719.662C1492.86 717.431 1496.77 714.353 1499.98 710.605C1503.18 706.858 1505.61 702.515 1507.13 697.825C1508.64 693.132 1509.2 688.189 1508.79 683.278C1508.38 678.368 1507 673.587 1504.74 669.208C1502.48 664.83 1499.38 660.94 1495.62 657.762C1491.85 654.583 1487.49 652.179 1482.8 650.686L1072.97 517.405C1069.25 516.168 1065.36 515.522 1061.44 515.49Z" fill="#313131"/>
<path d="M1234.29 610.782C1232.97 610.764 1231.68 610.544 1230.43 610.129C1228.08 609.363 1226.01 607.918 1224.48 605.976C1222.95 604.033 1222.03 601.682 1221.84 599.217C1221.64 596.752 1222.19 594.286 1223.39 592.129C1224.6 589.972 1226.42 588.221 1228.62 587.098C1230.83 585.974 1233.31 585.529 1235.77 585.818C1238.22 586.107 1240.54 587.117 1242.42 588.721C1244.3 590.325 1245.66 592.45 1246.34 594.829C1247.01 597.207 1246.97 599.732 1246.2 602.085C1245.39 604.607 1243.8 606.808 1241.66 608.37C1239.52 609.933 1236.94 610.777 1234.29 610.782ZM1234.29 591.382C1233.2 591.378 1232.13 591.641 1231.18 592.148C1229.91 592.723 1228.86 593.672 1228.16 594.867C1227.45 596.062 1227.13 597.444 1227.24 598.826C1227.35 600.209 1227.88 601.525 1228.76 602.595C1229.64 603.666 1230.83 604.439 1232.17 604.811C1233.03 605.087 1233.94 605.19 1234.85 605.112C1235.75 605.035 1236.64 604.78 1237.44 604.361C1238.25 603.942 1238.96 603.368 1239.55 602.672C1240.13 601.976 1240.57 601.171 1240.84 600.305C1241.13 599.447 1241.24 598.54 1241.17 597.638C1241.1 596.737 1240.85 595.858 1240.44 595.054C1239.86 593.921 1238.98 592.969 1237.89 592.305C1236.81 591.64 1235.56 591.29 1234.29 591.291V591.382Z" fill="#313131"/>
<path d="M1310.69 635.613C1309.37 635.611 1308.06 635.406 1306.8 635.004C1303.77 634.03 1301.23 631.952 1299.67 629.186C1298.11 626.419 1297.66 623.166 1298.39 620.077C1299.12 616.988 1301 614.289 1303.63 612.519C1306.27 610.748 1309.47 610.037 1312.61 610.527C1315.75 611.017 1318.59 612.671 1320.56 615.16C1322.53 617.65 1323.49 620.791 1323.25 623.957C1323.01 627.123 1321.58 630.081 1319.25 632.242C1316.92 634.402 1313.87 635.606 1310.69 635.613ZM1310.69 616.212C1309.6 616.22 1308.53 616.482 1307.56 616.978C1306.76 617.383 1306.04 617.944 1305.46 618.629C1304.87 619.314 1304.43 620.109 1304.16 620.966C1303.88 621.832 1303.77 622.744 1303.85 623.65C1303.93 624.556 1304.18 625.438 1304.6 626.245C1305.02 627.052 1305.59 627.768 1306.29 628.351C1306.99 628.934 1307.8 629.372 1308.67 629.641C1309.53 629.933 1310.44 630.047 1311.35 629.977C1312.26 629.907 1313.14 629.654 1313.95 629.233C1314.76 628.812 1315.48 628.232 1316.05 627.528C1316.63 626.824 1317.06 626.01 1317.32 625.135C1317.61 624.27 1317.73 623.355 1317.66 622.444C1317.59 621.532 1317.34 620.645 1316.92 619.834C1316.5 619.023 1315.92 618.306 1315.21 617.726C1314.51 617.146 1313.69 616.715 1312.81 616.46C1312.12 616.266 1311.39 616.183 1310.67 616.212H1310.69Z" fill="#313131"/>
<path d="M1269.32 625.383C1268.83 625.387 1268.34 625.26 1267.91 625.015C1267.47 624.77 1267.12 624.415 1266.87 623.986L1258.15 608.934C1257.95 608.598 1257.82 608.224 1257.78 607.836C1257.73 607.448 1257.76 607.055 1257.87 606.681C1257.97 606.323 1258.13 605.987 1258.36 605.693C1258.58 605.399 1258.86 605.152 1259.18 604.969L1274.23 596.248C1274.55 596.063 1274.91 595.942 1275.28 595.894C1275.64 595.846 1276.02 595.871 1276.38 595.967C1276.73 596.063 1277.07 596.229 1277.36 596.455C1277.66 596.682 1277.9 596.963 1278.09 597.285L1286.76 612.382C1286.96 612.717 1287.09 613.09 1287.14 613.478C1287.19 613.866 1287.16 614.26 1287.05 614.635C1286.85 615.351 1286.39 615.964 1285.75 616.348L1270.67 625.068C1270.26 625.282 1269.79 625.391 1269.32 625.383ZM1264.43 608.551L1270.34 618.736L1280.52 612.833L1274.62 602.648L1264.43 608.551Z" fill="#313131"/>
<path d="M1501.59 715.671C1501.29 715.673 1500.99 715.62 1500.71 715.513L1021.96 558.009C1021.25 557.776 1020.66 557.27 1020.32 556.602C1019.98 555.935 1019.92 555.16 1020.15 554.449C1020.39 553.738 1020.89 553.148 1021.56 552.81C1022.23 552.472 1023 552.413 1023.72 552.646L1502.47 710.173C1503.11 710.379 1503.66 710.807 1504.01 711.381C1504.36 711.954 1504.49 712.634 1504.39 713.299C1504.28 713.963 1503.94 714.568 1503.43 715.003C1502.92 715.438 1502.26 715.675 1501.59 715.671Z" fill="#313131"/>
<path d="M1371.15 569.884C1370.85 569.883 1370.55 569.837 1370.27 569.749L1208.53 517.36C1208.18 517.246 1207.85 517.064 1207.57 516.824C1207.29 516.584 1207.06 516.291 1206.89 515.961C1206.72 515.632 1206.62 515.272 1206.59 514.903C1206.56 514.534 1206.6 514.163 1206.72 513.811C1206.83 513.459 1207.01 513.133 1207.25 512.851C1207.49 512.569 1207.79 512.338 1208.11 512.169C1208.44 512.001 1208.8 511.899 1209.17 511.869C1209.54 511.84 1209.91 511.883 1210.26 511.997L1372.01 564.386C1372.64 564.591 1373.19 565.018 1373.54 565.589C1373.89 566.16 1374.03 566.838 1373.93 567.501C1373.82 568.164 1373.49 568.768 1372.98 569.205C1372.47 569.642 1371.82 569.883 1371.15 569.884Z" fill="#313131"/>
<path d="M1026.13 692.845C1025.52 692.848 1024.92 692.65 1024.44 692.281C1023.84 691.829 1023.44 691.158 1023.34 690.415C1023.23 689.672 1023.42 688.917 1023.87 688.316L1086.97 604.944C1087.42 604.347 1088.09 603.953 1088.83 603.849C1089.57 603.746 1090.32 603.941 1090.92 604.392C1091.52 604.844 1091.91 605.514 1092.02 606.255C1092.12 606.997 1091.92 607.749 1091.47 608.347L1028.38 691.718C1028.12 692.068 1027.78 692.352 1027.39 692.547C1027 692.743 1026.56 692.845 1026.13 692.845Z" fill="#313131"/>
<path d="M1121.94 715.672C1121.33 715.672 1120.75 715.474 1120.27 715.109C1119.67 714.66 1119.28 713.995 1119.17 713.257C1119.06 712.519 1119.24 711.768 1119.68 711.165L1178.27 632.413C1178.73 631.872 1179.39 631.527 1180.09 631.449C1180.8 631.37 1181.52 631.563 1182.09 631.99C1182.66 632.416 1183.05 633.043 1183.18 633.745C1183.3 634.447 1183.16 635.171 1182.77 635.771L1124.19 714.523C1123.93 714.875 1123.59 715.163 1123.2 715.362C1122.81 715.562 1122.38 715.668 1121.94 715.672Z" fill="#313131"/>
<path d="M1315 829.057C1314.45 829.059 1313.91 828.9 1313.45 828.6C1312.99 828.301 1312.63 827.873 1312.41 827.371C1312.19 826.868 1312.12 826.312 1312.21 825.771C1312.3 825.23 1312.55 824.727 1312.92 824.325L1322.07 814.456V681.039C1322.07 680.292 1322.37 679.576 1322.9 679.048C1323.43 678.519 1324.14 678.223 1324.89 678.223C1325.64 678.223 1326.35 678.519 1326.88 679.048C1327.41 679.576 1327.71 680.292 1327.71 681.039V815.56C1327.7 816.261 1327.44 816.936 1326.96 817.453L1317.07 828.156C1316.81 828.442 1316.49 828.67 1316.13 828.825C1315.77 828.981 1315.39 829.059 1315 829.057Z" fill="#313131"/>
<path d="M1430.48 850.103C1430.08 850.102 1429.69 850.019 1429.33 849.86C1428.97 849.701 1428.65 849.469 1428.38 849.179C1428.13 848.903 1427.94 848.581 1427.82 848.23C1427.7 847.88 1427.64 847.509 1427.66 847.138C1427.69 846.768 1427.78 846.405 1427.94 846.07C1428.1 845.736 1428.33 845.437 1428.61 845.191L1437.62 837.169L1430.86 716.529C1430.82 715.782 1431.07 715.048 1431.57 714.488C1432.06 713.928 1432.76 713.588 1433.51 713.543C1434.25 713.498 1434.99 713.752 1435.55 714.249C1436.11 714.745 1436.45 715.444 1436.49 716.191L1443.41 838.206C1443.44 838.627 1443.37 839.05 1443.21 839.44C1443.05 839.831 1442.8 840.18 1442.49 840.459L1432.53 849.472C1432.24 849.708 1431.92 849.886 1431.57 849.994C1431.21 850.102 1430.84 850.139 1430.48 850.103Z" fill="#313131"/>
<path d="M711.749 1461.37C711.048 1461.37 710.372 1461.11 709.852 1460.64C709.332 1460.17 709.005 1459.52 708.932 1458.82C708.729 1456.57 687.256 1223.56 677.499 1174.75C677.427 1174.39 677.429 1174.01 677.503 1173.65C677.578 1173.28 677.724 1172.94 677.934 1172.63C678.144 1172.32 678.412 1172.06 678.724 1171.85C679.036 1171.65 679.386 1171.51 679.752 1171.44C680.49 1171.3 681.253 1171.46 681.874 1171.88C682.494 1172.31 682.923 1172.96 683.065 1173.69C692.866 1222.79 714.385 1455.99 714.61 1458.35C714.645 1458.72 714.606 1459.09 714.496 1459.44C714.387 1459.8 714.209 1460.13 713.972 1460.41C713.736 1460.7 713.446 1460.93 713.118 1461.1C712.791 1461.28 712.433 1461.38 712.064 1461.42L711.749 1461.37Z" fill="#313131"/>
<path d="M455.462 1498.39C454.882 1498.4 454.314 1498.23 453.838 1497.89C453.361 1497.56 453 1497.09 452.803 1496.55L382.478 1303.69C382.349 1303.34 382.29 1302.97 382.304 1302.6C382.318 1302.24 382.405 1301.87 382.56 1301.54C382.715 1301.2 382.935 1300.9 383.207 1300.65C383.479 1300.4 383.798 1300.21 384.146 1300.08C384.857 1299.85 385.63 1299.92 386.296 1300.25C386.962 1300.59 387.469 1301.18 387.706 1301.89L457.332 1492.83L715.062 1486.07C715.435 1486.05 715.809 1486.1 716.159 1486.23C716.51 1486.36 716.831 1486.56 717.101 1486.82C717.371 1487.07 717.586 1487.39 717.731 1487.73C717.877 1488.07 717.95 1488.44 717.946 1488.82C717.958 1489.19 717.896 1489.56 717.764 1489.9C717.632 1490.25 717.432 1490.57 717.176 1490.84C716.92 1491.1 716.614 1491.32 716.274 1491.47C715.934 1491.62 715.568 1491.7 715.197 1491.7L455.462 1498.46V1498.39Z" fill="#313131"/>
<path d="M404.628 1686.83H402.735C304.267 1686.5 249.062 1565.4 231.959 1493.93C231.874 1493.57 231.86 1493.19 231.919 1492.83C231.977 1492.46 232.108 1492.11 232.303 1491.8C232.497 1491.48 232.752 1491.2 233.053 1490.99C233.353 1490.77 233.694 1490.61 234.055 1490.53C234.416 1490.44 234.79 1490.43 235.157 1490.49C235.523 1490.55 235.874 1490.68 236.19 1490.87C236.506 1491.07 236.781 1491.32 236.998 1491.62C237.215 1491.92 237.372 1492.26 237.457 1492.62C254.154 1562.47 307.782 1680.86 402.758 1681.2C509.383 1681.65 727.951 1649.29 730.204 1648.89C730.58 1648.81 730.967 1648.81 731.342 1648.89C731.717 1648.97 732.072 1649.12 732.385 1649.34C732.699 1649.56 732.964 1649.85 733.165 1650.17C733.365 1650.5 733.497 1650.86 733.552 1651.24C733.608 1651.62 733.585 1652.01 733.486 1652.38C733.387 1652.75 733.213 1653.09 732.975 1653.39C732.738 1653.69 732.442 1653.94 732.105 1654.13C731.768 1654.31 731.397 1654.42 731.015 1654.45C728.83 1654.86 512.402 1686.83 404.628 1686.83Z" fill="#313131"/>
<path d="M455.462 1498.39H424.344C423.597 1498.39 422.881 1498.1 422.352 1497.57C421.824 1497.04 421.527 1496.32 421.527 1495.58C421.527 1494.83 421.824 1494.11 422.352 1493.58C422.881 1493.06 423.597 1492.76 424.344 1492.76H455.462C456.209 1492.76 456.925 1493.06 457.453 1493.58C457.982 1494.11 458.278 1494.83 458.278 1495.58C458.278 1496.32 457.982 1497.04 457.453 1497.57C456.925 1498.1 456.209 1498.39 455.462 1498.39Z" fill="#313131"/>
<path d="M774.412 1271.4C773.889 1271.4 773.376 1271.25 772.931 1270.98C772.487 1270.7 772.127 1270.31 771.893 1269.84C771.659 1269.37 771.56 1268.85 771.607 1268.33C771.654 1267.81 771.845 1267.31 772.159 1266.89L793.407 1239.85C793.635 1239.56 793.919 1239.31 794.243 1239.12C794.567 1238.93 794.924 1238.81 795.294 1238.77C795.665 1238.72 796.041 1238.74 796.401 1238.84C796.762 1238.94 797.1 1239.1 797.396 1239.33C797.692 1239.56 797.94 1239.84 798.126 1240.17C798.312 1240.49 798.433 1240.85 798.481 1241.22C798.529 1241.59 798.504 1241.97 798.406 1242.33C798.309 1242.69 798.142 1243.03 797.914 1243.32L776.688 1270.36C776.411 1270.69 776.062 1270.96 775.668 1271.14C775.274 1271.32 774.845 1271.41 774.412 1271.4Z" fill="#313131"/>
<path d="M774.413 1646.79C773.985 1646.81 773.56 1646.72 773.17 1646.55C772.779 1646.37 772.434 1646.11 772.16 1645.78C771.439 1644.9 754.134 1623.7 749.492 1566.6C745.233 1515.36 758.798 1488.57 759.384 1487.44C759.728 1486.78 760.321 1486.28 761.033 1486.05C761.745 1485.83 762.517 1485.89 763.181 1486.24C763.844 1486.58 764.344 1487.17 764.57 1487.89C764.796 1488.6 764.73 1489.37 764.386 1490.03C764.251 1490.3 750.979 1516.67 755.103 1566.13C759.722 1621.47 776.329 1641.97 776.486 1642.18C776.834 1642.59 777.054 1643.1 777.119 1643.64C777.185 1644.18 777.093 1644.73 776.855 1645.21C776.617 1645.7 776.243 1646.11 775.777 1646.39C775.312 1646.67 774.776 1646.81 774.233 1646.79H774.413Z" fill="#313131"/>
<path d="M1044.17 1146.41C1039.89 1146.41 1008.46 1145.46 970.786 1119.03C930.227 1090.55 919.501 1063.17 919.073 1062.02C918.81 1061.32 918.835 1060.55 919.144 1059.87C919.452 1059.19 920.018 1058.66 920.718 1058.4C921.417 1058.13 922.192 1058.16 922.872 1058.47C923.553 1058.77 924.083 1059.34 924.346 1060.04C924.346 1060.31 934.936 1087.08 973.918 1114.41C1012 1141.14 1044.06 1140.77 1044.4 1140.77C1045.15 1140.76 1045.87 1141.04 1046.41 1141.56C1046.95 1142.07 1047.26 1142.78 1047.28 1143.52C1047.29 1143.89 1047.23 1144.26 1047.1 1144.6C1046.96 1144.95 1046.76 1145.26 1046.51 1145.53C1046.25 1145.79 1045.94 1146.01 1045.61 1146.15C1045.27 1146.3 1044.9 1146.38 1044.54 1146.39L1044.17 1146.41Z" fill="#313131"/>
<path d="M650.641 1697.63C649.99 1697.63 649.358 1697.41 648.852 1697C648.347 1696.59 648 1696.01 647.869 1695.37C646.142 1684.86 644.362 1674.34 642.529 1663.83C642.401 1663.09 642.571 1662.33 643.002 1661.72C643.433 1661.11 644.089 1660.69 644.827 1660.56C645.566 1660.43 646.324 1660.6 646.937 1661.03C647.55 1661.46 647.966 1662.12 648.095 1662.86C649.897 1673.28 651.67 1683.8 653.413 1694.41C653.531 1695.13 653.362 1695.87 652.941 1696.47C652.52 1697.08 651.881 1697.49 651.159 1697.63H650.641Z" fill="#313131"/>
<path d="M611.049 1494.31C610.404 1494.3 609.781 1494.07 609.282 1493.67C608.783 1493.26 608.437 1492.69 608.3 1492.06C553.253 1245.37 488.088 1068.06 487.434 1066.3C487.282 1065.95 487.203 1065.57 487.202 1065.19C487.201 1064.81 487.278 1064.43 487.428 1064.08C487.578 1063.73 487.798 1063.41 488.074 1063.15C488.351 1062.88 488.679 1062.68 489.037 1062.54C489.396 1062.41 489.777 1062.35 490.159 1062.37C490.541 1062.39 490.915 1062.49 491.259 1062.65C491.602 1062.82 491.908 1063.06 492.157 1063.35C492.406 1063.64 492.593 1063.98 492.707 1064.34C493.36 1066.12 558.66 1243.75 613.821 1490.82C613.899 1491.19 613.903 1491.57 613.832 1491.95C613.76 1492.32 613.616 1492.67 613.406 1492.99C613.196 1493.3 612.925 1493.57 612.609 1493.78C612.294 1493.99 611.939 1494.13 611.567 1494.2C611.398 1494.25 611.225 1494.29 611.049 1494.31Z" fill="#313131"/>
<path d="M510.193 1081.69C508.299 1081.69 506.447 1081.13 504.872 1080.08C503.297 1079.03 502.07 1077.53 501.345 1075.78C500.62 1074.03 500.431 1072.11 500.8 1070.25C501.17 1068.39 502.082 1066.69 503.421 1065.35C504.76 1064.01 506.467 1063.09 508.324 1062.73C510.182 1062.36 512.108 1062.55 513.857 1063.27C515.607 1063.99 517.103 1065.22 518.155 1066.8C519.207 1068.37 519.769 1070.22 519.769 1072.12C519.769 1074.66 518.76 1077.09 516.964 1078.89C515.168 1080.68 512.732 1081.69 510.193 1081.69ZM510.193 1068.17C509.412 1068.17 508.649 1068.41 508 1068.84C507.351 1069.27 506.845 1069.89 506.547 1070.61C506.25 1071.34 506.173 1072.13 506.327 1072.9C506.481 1073.66 506.859 1074.36 507.412 1074.91C507.966 1075.46 508.671 1075.84 509.437 1075.99C510.204 1076.14 510.997 1076.06 511.717 1075.75C512.437 1075.45 513.052 1074.94 513.482 1074.29C513.913 1073.64 514.14 1072.88 514.136 1072.09C514.133 1071.58 514.029 1071.07 513.829 1070.6C513.629 1070.12 513.338 1069.69 512.972 1069.33C512.605 1068.97 512.172 1068.68 511.695 1068.49C511.218 1068.29 510.707 1068.19 510.193 1068.2V1068.17Z" fill="#313131"/>
<path d="M556.905 1213.69C555.01 1213.69 553.157 1213.13 551.582 1212.07C550.007 1211.02 548.779 1209.52 548.055 1207.77C547.331 1206.02 547.142 1204.1 547.514 1202.24C547.885 1200.38 548.799 1198.67 550.141 1197.33C551.483 1196 553.191 1195.09 555.05 1194.72C556.909 1194.35 558.835 1194.54 560.585 1195.27C562.334 1196 563.828 1197.23 564.878 1198.81C565.928 1200.39 566.485 1202.24 566.481 1204.14C566.481 1205.39 566.233 1206.64 565.752 1207.8C565.27 1208.96 564.564 1210.01 563.675 1210.9C562.785 1211.79 561.729 1212.49 560.568 1212.97C559.406 1213.45 558.161 1213.69 556.905 1213.69ZM556.905 1200.17C556.125 1200.17 555.362 1200.4 554.714 1200.83C554.065 1201.27 553.56 1201.88 553.261 1202.6C552.963 1203.33 552.885 1204.12 553.037 1204.88C553.189 1205.65 553.565 1206.35 554.116 1206.9C554.668 1207.45 555.37 1207.83 556.135 1207.98C556.9 1208.13 557.693 1208.06 558.414 1207.76C559.134 1207.46 559.75 1206.95 560.183 1206.3C560.617 1205.66 560.848 1204.89 560.848 1204.11C560.848 1203.6 560.746 1203.09 560.547 1202.61C560.349 1202.13 560.058 1201.7 559.692 1201.33C559.325 1200.97 558.89 1200.68 558.412 1200.48C557.934 1200.29 557.421 1200.19 556.905 1200.19V1200.17Z" fill="#313131"/>
<path d="M589.555 1333.84C587.66 1333.84 585.808 1333.27 584.232 1332.22C582.657 1331.17 581.429 1329.67 580.705 1327.92C579.981 1326.17 579.793 1324.24 580.164 1322.38C580.536 1320.53 581.45 1318.82 582.791 1317.48C584.133 1316.14 585.841 1315.23 587.701 1314.86C589.56 1314.5 591.486 1314.69 593.235 1315.42C594.985 1316.15 596.479 1317.38 597.528 1318.96C598.578 1320.53 599.136 1322.39 599.131 1324.28C599.131 1325.54 598.883 1326.78 598.402 1327.94C597.92 1329.1 597.215 1330.16 596.325 1331.05C595.436 1331.93 594.38 1332.64 593.218 1333.12C592.056 1333.59 590.811 1333.84 589.555 1333.84ZM589.555 1320.32C588.775 1320.32 588.013 1320.55 587.364 1320.98C586.716 1321.41 586.21 1322.03 585.912 1322.75C585.613 1323.47 585.535 1324.26 585.687 1325.03C585.84 1325.79 586.215 1326.5 586.767 1327.05C587.318 1327.6 588.021 1327.98 588.786 1328.13C589.551 1328.28 590.343 1328.2 591.064 1327.9C591.784 1327.6 592.4 1327.1 592.834 1326.45C593.267 1325.8 593.498 1325.04 593.498 1324.26C593.498 1323.74 593.396 1323.23 593.198 1322.75C592.999 1322.28 592.708 1321.84 592.342 1321.48C591.975 1321.12 591.54 1320.83 591.062 1320.63C590.584 1320.44 590.072 1320.34 589.555 1320.34V1320.32Z" fill="#313131"/>
<path d="M621.032 1461.37C619.137 1461.37 617.285 1460.81 615.71 1459.75C614.134 1458.7 612.907 1457.2 612.183 1455.45C611.459 1453.7 611.27 1451.77 611.642 1449.92C612.013 1448.06 612.927 1446.35 614.269 1445.01C615.61 1443.68 617.319 1442.77 619.178 1442.4C621.037 1442.03 622.963 1442.22 624.713 1442.95C626.462 1443.68 627.956 1444.91 629.006 1446.49C630.056 1448.07 630.613 1449.92 630.609 1451.82C630.603 1454.35 629.591 1456.78 627.796 1458.57C626.001 1460.36 623.568 1461.37 621.032 1461.37ZM621.032 1447.85C620.253 1447.85 619.49 1448.08 618.842 1448.51C618.193 1448.95 617.688 1449.56 617.389 1450.28C617.091 1451 617.013 1451.8 617.165 1452.56C617.317 1453.33 617.693 1454.03 618.244 1454.58C618.796 1455.13 619.498 1455.51 620.263 1455.66C621.028 1455.81 621.821 1455.73 622.541 1455.44C623.262 1455.14 623.878 1454.63 624.311 1453.98C624.744 1453.34 624.976 1452.57 624.976 1451.79C624.97 1450.75 624.552 1449.75 623.813 1449.02C623.074 1448.28 622.074 1447.87 621.032 1447.87V1447.85Z" fill="#313131"/>
<path d="M386.872 1307.52L475.741 1495.06L455.462 1495.57L386.872 1307.52Z" fill="#313131"/>
<path d="M683.132 1191.47L724.434 1464.46L711.748 1458.55L683.132 1191.47Z" fill="#313131"/>
<path d="M1179.15 548.973L1184.94 539.419L1379.35 603.682L1378.45 613.777L1179.15 548.973Z" fill="#313131"/>
<path d="M1822.19 1331.02C1822.19 1422.41 1722.39 1496.5 1599.31 1496.5C1479.4 1496.5 1381.56 1426.15 1376.65 1338.01C1363.55 1320.34 1307.38 1338.01 1307.38 1338.01C1326.62 1298.35 1387.48 1279.42 1387.48 1279.42C1416.64 1213.26 1500.46 1165.49 1599.29 1165.49C1722.39 1165.54 1822.19 1239.63 1822.19 1331.02Z" fill="white"/>
<path d="M1599.31 1499.32C1478.34 1499.32 1379.53 1428.99 1373.99 1339.06C1363.4 1326.83 1323.18 1336.04 1308.33 1340.71C1307.8 1340.87 1307.24 1340.88 1306.72 1340.73C1306.19 1340.58 1305.72 1340.28 1305.36 1339.86C1305 1339.45 1304.77 1338.94 1304.7 1338.4C1304.63 1337.86 1304.71 1337.3 1304.95 1336.81C1323.22 1299.13 1376.6 1280.14 1385.55 1277.16C1416.46 1208.67 1502.2 1162.72 1599.4 1162.72C1723.85 1162.72 1825.09 1238.23 1825.09 1331.02C1825.09 1423.81 1723.76 1499.32 1599.31 1499.32ZM1352.56 1327.28C1363.71 1327.28 1373.87 1329.53 1378.92 1336.29C1379.25 1336.73 1379.43 1337.26 1379.46 1337.8C1381.72 1379.64 1405.6 1418.78 1446.5 1447.99C1487.73 1477.41 1542.01 1493.64 1599.31 1493.64C1720.65 1493.64 1819.37 1420.68 1819.37 1330.97C1819.37 1241.27 1720.65 1168.31 1599.31 1168.31C1503.75 1168.31 1419.68 1213.37 1390.1 1280.57C1389.92 1280.96 1389.66 1281.31 1389.33 1281.59C1388.99 1281.87 1388.6 1282.06 1388.18 1282.17C1385.03 1283.18 1333.92 1300.19 1313.15 1333.38C1322.16 1331 1338.2 1327.28 1352.56 1327.28Z" fill="#313131"/>
<path d="M1654.72 1343.12C1653.98 1343.12 1653.26 1342.82 1652.73 1342.29C1652.2 1341.77 1651.91 1341.05 1651.91 1340.3V1170.7C1651.91 1169.95 1652.2 1169.23 1652.73 1168.71C1653.26 1168.18 1653.98 1167.88 1654.72 1167.88C1655.47 1167.88 1656.19 1168.18 1656.72 1168.71C1657.24 1169.23 1657.54 1169.95 1657.54 1170.7V1340.3C1657.54 1341.05 1657.24 1341.77 1656.72 1342.29C1656.19 1342.82 1655.47 1343.12 1654.72 1343.12Z" fill="#313131"/>
<path d="M1515.36 1487.17C1514.62 1487.17 1513.91 1486.88 1513.38 1486.36C1512.85 1485.84 1512.55 1485.14 1512.54 1484.4L1510.63 1432.87C1510.6 1432.12 1510.87 1431.39 1511.38 1430.85C1511.89 1430.3 1512.59 1429.98 1513.34 1429.95C1514.09 1429.92 1514.82 1430.19 1515.36 1430.7C1515.91 1431.21 1516.23 1431.92 1516.26 1432.66L1518.17 1484.2C1518.19 1484.94 1517.92 1485.67 1517.41 1486.22C1516.9 1486.76 1516.2 1487.09 1515.45 1487.13L1515.36 1487.17Z" fill="#313131"/>
<path d="M1436.72 1409.61C1435.97 1409.61 1435.26 1409.32 1434.73 1408.79C1434.2 1408.26 1433.9 1407.54 1433.9 1406.8V1217.88C1433.9 1217.14 1434.2 1216.42 1434.73 1215.89C1435.26 1215.36 1435.97 1215.07 1436.72 1215.07C1437.47 1215.07 1438.18 1215.36 1438.71 1215.89C1439.24 1216.42 1439.54 1217.14 1439.54 1217.88V1406.8C1439.54 1407.54 1439.24 1408.26 1438.71 1408.79C1438.18 1409.32 1437.47 1409.61 1436.72 1409.61Z" fill="#313131"/>
<path d="M1466.87 1466.91C1466.12 1466.91 1465.4 1466.62 1464.88 1466.09C1464.35 1465.56 1464.05 1464.84 1464.05 1464.1V1418.65C1464.05 1417.9 1464.35 1417.19 1464.88 1416.66C1465.4 1416.13 1466.12 1415.83 1466.87 1415.83C1467.61 1415.83 1468.33 1416.13 1468.86 1416.66C1469.39 1417.19 1469.68 1417.9 1469.68 1418.65V1464.12C1469.68 1464.86 1469.38 1465.57 1468.85 1466.1C1468.32 1466.62 1467.61 1466.91 1466.87 1466.91Z" fill="#313131"/>
<path d="M1607.74 1499.18C1607.37 1499.18 1607 1499.11 1606.66 1498.97C1606.32 1498.83 1606.01 1498.62 1605.74 1498.36C1605.48 1498.1 1605.27 1497.79 1605.13 1497.45C1604.99 1497.1 1604.92 1496.74 1604.92 1496.36V1439.33C1604.92 1438.6 1605.21 1437.89 1605.73 1437.37C1606.24 1436.84 1606.94 1436.53 1607.67 1436.52L1769.39 1432.69L1769.73 1286.22L1654.25 1266.96C1653.53 1266.82 1652.89 1266.41 1652.47 1265.81C1652.05 1265.2 1651.88 1264.46 1652 1263.74C1652.14 1263.01 1652.56 1262.37 1653.16 1261.95C1653.77 1261.53 1654.51 1261.36 1655.24 1261.48L1773.09 1281.11C1773.73 1281.24 1774.3 1281.6 1774.71 1282.1C1775.12 1282.61 1775.34 1283.25 1775.34 1283.9L1774.98 1435.41C1774.98 1436.15 1774.69 1436.85 1774.18 1437.38C1773.67 1437.91 1772.97 1438.21 1772.23 1438.23L1610.54 1442.06V1496.32C1610.54 1496.69 1610.48 1497.06 1610.34 1497.41C1610.21 1497.76 1610 1498.07 1609.74 1498.34C1609.48 1498.61 1609.17 1498.82 1608.83 1498.96C1608.48 1499.11 1608.11 1499.18 1607.74 1499.18Z" fill="#313131"/>
<path d="M1654.72 1220.76H1570.68C1569.93 1220.76 1569.21 1220.47 1568.69 1219.94C1568.16 1219.41 1567.86 1218.69 1567.86 1217.95C1567.86 1217.2 1568.16 1216.48 1568.69 1215.96C1569.21 1215.43 1569.93 1215.13 1570.68 1215.13H1654.72C1655.47 1215.13 1656.19 1215.43 1656.72 1215.96C1657.24 1216.48 1657.54 1217.2 1657.54 1217.95C1657.54 1218.69 1657.24 1219.41 1656.72 1219.94C1656.19 1220.47 1655.47 1220.76 1654.72 1220.76Z" fill="#313131"/>
<path d="M1539.56 1355.76C1538.81 1355.76 1538.09 1355.46 1537.57 1354.93C1537.04 1354.41 1536.74 1353.69 1536.74 1352.94V1171.58C1536.74 1170.83 1537.04 1170.11 1537.57 1169.58C1538.09 1169.06 1538.81 1168.76 1539.56 1168.76C1540.3 1168.76 1541.02 1169.06 1541.55 1169.58C1542.08 1170.11 1542.37 1170.83 1542.37 1171.58V1352.94C1542.37 1353.69 1542.08 1354.41 1541.55 1354.93C1541.02 1355.46 1540.3 1355.76 1539.56 1355.76Z" fill="#313131"/>
<path d="M1647.15 1344.13C1646.48 1344.12 1645.84 1343.88 1645.33 1343.44C1644.83 1343 1644.5 1342.4 1644.4 1341.74C1644.3 1341.08 1644.43 1340.4 1644.79 1339.83C1645.14 1339.26 1645.68 1338.84 1646.32 1338.63L1659.23 1334.62C1659.92 1334.47 1660.65 1334.58 1661.26 1334.93C1661.88 1335.28 1662.33 1335.86 1662.54 1336.53C1662.75 1337.21 1662.7 1337.94 1662.4 1338.58C1662.09 1339.22 1661.56 1339.72 1660.9 1339.99L1647.99 1344.02C1647.72 1344.1 1647.43 1344.14 1647.15 1344.13Z" fill="#313131"/>
<path d="M1477.84 1396.84C1477.16 1396.85 1476.5 1396.61 1475.98 1396.17C1475.46 1395.73 1475.11 1395.12 1475.01 1394.44C1474.91 1393.77 1475.05 1393.08 1475.42 1392.5C1475.79 1391.93 1476.35 1391.51 1477.01 1391.32L1505.22 1382.53C1505.94 1382.32 1506.71 1382.39 1507.37 1382.74C1508.03 1383.09 1508.53 1383.69 1508.76 1384.4C1508.87 1384.75 1508.91 1385.12 1508.88 1385.49C1508.84 1385.86 1508.74 1386.22 1508.57 1386.54C1508.39 1386.87 1508.16 1387.16 1507.87 1387.39C1507.59 1387.63 1507.26 1387.81 1506.91 1387.91L1478.68 1396.7C1478.41 1396.79 1478.12 1396.84 1477.84 1396.84ZM1534.29 1379.26C1533.62 1379.26 1532.97 1379.01 1532.47 1378.57C1531.96 1378.13 1531.63 1377.53 1531.53 1376.87C1531.43 1376.21 1531.57 1375.53 1531.92 1374.96C1532.27 1374.39 1532.82 1373.97 1533.45 1373.76L1561.66 1364.98C1562.02 1364.86 1562.39 1364.82 1562.75 1364.86C1563.12 1364.89 1563.48 1364.99 1563.81 1365.17C1564.13 1365.34 1564.42 1365.57 1564.66 1365.86C1564.89 1366.14 1565.07 1366.47 1565.18 1366.82C1565.29 1367.18 1565.33 1367.55 1565.3 1367.92C1565.27 1368.29 1565.16 1368.65 1564.99 1368.98C1564.82 1369.31 1564.58 1369.6 1564.3 1369.83C1564.01 1370.07 1563.68 1370.25 1563.33 1370.36L1535.12 1379.13C1534.85 1379.22 1534.57 1379.26 1534.29 1379.26ZM1590.62 1361.71C1589.94 1361.72 1589.27 1361.48 1588.75 1361.04C1588.23 1360.6 1587.89 1359.99 1587.79 1359.31C1587.68 1358.64 1587.83 1357.95 1588.2 1357.38C1588.57 1356.8 1589.13 1356.38 1589.78 1356.19L1618 1347.42C1618.35 1347.29 1618.74 1347.22 1619.12 1347.24C1619.51 1347.25 1619.88 1347.35 1620.23 1347.52C1620.57 1347.68 1620.88 1347.92 1621.13 1348.21C1621.39 1348.5 1621.57 1348.84 1621.69 1349.21C1621.81 1349.57 1621.84 1349.96 1621.81 1350.34C1621.77 1350.72 1621.65 1351.09 1621.46 1351.43C1621.27 1351.76 1621.02 1352.06 1620.71 1352.29C1620.41 1352.52 1620.06 1352.69 1619.69 1352.79L1591.45 1361.57C1591.21 1361.65 1590.96 1361.7 1590.71 1361.71H1590.62Z" fill="#313131"/>
<path d="M1436.72 1409.61C1436.05 1409.6 1435.41 1409.36 1434.9 1408.92C1434.4 1408.48 1434.06 1407.88 1433.96 1407.22C1433.86 1406.56 1434 1405.88 1434.35 1405.31C1434.71 1404.74 1435.25 1404.32 1435.89 1404.11L1448.8 1400.1C1449.15 1399.99 1449.52 1399.95 1449.89 1399.98C1450.26 1400.02 1450.61 1400.12 1450.94 1400.29C1451.27 1400.47 1451.56 1400.7 1451.79 1400.98C1452.03 1401.27 1452.2 1401.6 1452.31 1401.95C1452.42 1402.3 1452.46 1402.68 1452.43 1403.05C1452.4 1403.41 1452.29 1403.77 1452.12 1404.1C1451.95 1404.43 1451.72 1404.72 1451.43 1404.96C1451.15 1405.2 1450.82 1405.38 1450.46 1405.49L1437.55 1409.5C1437.28 1409.58 1437 1409.62 1436.72 1409.61Z" fill="#313131"/>
<path d="M1653.39 1351.23C1659.94 1351.23 1665.25 1345.93 1665.25 1339.38C1665.25 1332.83 1659.94 1327.53 1653.39 1327.53C1646.85 1327.53 1641.54 1332.83 1641.54 1339.38C1641.54 1345.93 1646.85 1351.23 1653.39 1351.23Z" fill="#FFA620"/>
<path d="M1440.46 1418.65C1447 1418.65 1452.31 1413.34 1452.31 1406.8C1452.31 1400.25 1447 1394.95 1440.46 1394.95C1433.91 1394.95 1428.61 1400.25 1428.61 1406.8C1428.61 1413.34 1433.91 1418.65 1440.46 1418.65Z" fill="#FFA620"/>
<path d="M1653.39 1354.05C1650.49 1354.05 1647.66 1353.19 1645.24 1351.58C1642.83 1349.96 1640.95 1347.67 1639.84 1344.99C1638.73 1342.31 1638.44 1339.36 1639.01 1336.52C1639.57 1333.67 1640.97 1331.06 1643.02 1329.01C1645.07 1326.96 1647.69 1325.56 1650.53 1324.99C1653.38 1324.43 1656.33 1324.72 1659.01 1325.83C1661.69 1326.94 1663.98 1328.82 1665.59 1331.23C1667.2 1333.64 1668.06 1336.48 1668.06 1339.38C1668.06 1343.27 1666.51 1347 1663.76 1349.75C1661.01 1352.5 1657.28 1354.04 1653.39 1354.05ZM1653.39 1330.34C1651.61 1330.34 1649.87 1330.87 1648.39 1331.86C1646.9 1332.85 1645.75 1334.26 1645.07 1335.91C1644.38 1337.55 1644.2 1339.37 1644.55 1341.12C1644.9 1342.86 1645.76 1344.47 1647.02 1345.73C1648.28 1346.99 1649.89 1347.85 1651.63 1348.2C1653.38 1348.55 1655.19 1348.37 1656.84 1347.68C1658.49 1347 1659.9 1345.85 1660.89 1344.36C1661.88 1342.88 1662.41 1341.14 1662.41 1339.36C1662.41 1336.97 1661.46 1334.67 1659.77 1332.98C1658.08 1331.29 1655.78 1330.34 1653.39 1330.34Z" fill="#313131"/>
<path d="M1440.46 1421.47C1437.56 1421.47 1434.72 1420.61 1432.31 1418.99C1429.9 1417.38 1428.02 1415.09 1426.91 1412.41C1425.8 1409.73 1425.5 1406.78 1426.07 1403.94C1426.64 1401.09 1428.03 1398.48 1430.09 1396.43C1432.14 1394.37 1434.75 1392.98 1437.6 1392.41C1440.44 1391.84 1443.39 1392.14 1446.07 1393.25C1448.75 1394.36 1451.04 1396.24 1452.65 1398.65C1454.27 1401.06 1455.13 1403.9 1455.13 1406.8C1455.12 1410.69 1453.57 1414.41 1450.82 1417.16C1448.07 1419.91 1444.35 1421.46 1440.46 1421.47ZM1440.46 1397.76C1438.68 1397.76 1436.93 1398.29 1435.45 1399.28C1433.97 1400.27 1432.81 1401.68 1432.13 1403.33C1431.45 1404.97 1431.27 1406.79 1431.62 1408.53C1431.97 1410.28 1432.82 1411.89 1434.08 1413.15C1435.35 1414.41 1436.95 1415.27 1438.7 1415.62C1440.45 1415.96 1442.26 1415.78 1443.91 1415.1C1445.55 1414.42 1446.96 1413.26 1447.95 1411.78C1448.94 1410.3 1449.47 1408.56 1449.47 1406.78C1449.47 1405.59 1449.24 1404.42 1448.78 1403.33C1448.33 1402.23 1447.67 1401.24 1446.83 1400.4C1445.99 1399.56 1445 1398.9 1443.91 1398.45C1442.81 1398 1441.64 1397.76 1440.46 1397.76Z" fill="#313131"/>
</svg>
