<svg width="2000" height="2000" viewBox="0 0 2000 2000" fill="none" xmlns="http://www.w3.org/2000/svg">
<path d="M396.451 709.499C396.458 732.836 389.714 755.677 377.031 775.267C364.348 794.857 346.269 810.36 324.973 819.905C309.402 826.832 292.544 830.396 275.501 830.364C248.635 830.332 222.543 821.363 201.334 804.869C180.126 788.376 165.007 765.296 158.359 739.265C155.898 729.499 154.654 719.466 154.657 709.394C154.657 677.314 167.399 646.548 190.081 623.863C212.762 601.177 243.526 588.429 275.606 588.424C288.541 588.436 301.392 590.505 313.677 594.553C337.806 602.579 358.792 618.006 373.651 638.641C388.511 659.276 396.489 684.07 396.451 709.499Z" fill="#21A2FF"/>
<path d="M275.585 833.04C242.808 833.04 211.374 820.02 188.197 796.843C165.021 773.666 152 742.232 152 709.455C152 676.678 165.021 645.244 188.197 622.067C211.374 598.891 242.808 585.87 275.585 585.87C279.966 585.878 284.343 586.108 288.701 586.56C297.466 587.485 306.106 589.351 314.472 592.125C331.811 597.935 347.659 607.49 360.89 620.113C375.552 634.106 386.547 651.49 392.907 670.733C399.268 689.976 400.798 710.488 397.364 730.462C393.929 750.436 385.634 769.259 373.211 785.272C360.788 801.285 344.617 813.997 326.124 822.288C315.487 827.085 304.215 830.326 292.654 831.911C286.998 832.682 281.294 833.059 275.585 833.04ZM275.585 591.1C257.563 591.129 239.784 595.267 223.602 603.201C207.419 611.134 193.259 622.654 182.199 636.883C171.138 651.112 163.468 667.677 159.772 685.316C156.076 702.955 156.451 721.206 160.869 738.678C164.193 751.815 169.778 764.273 177.374 775.494C188.205 791.616 202.842 804.821 219.989 813.942C237.137 823.063 256.267 827.819 275.69 827.79C281.097 827.814 286.499 827.471 291.86 826.765C318.306 823.057 342.721 810.516 361.142 791.181C379.562 771.846 390.904 746.852 393.327 720.257C395.75 693.662 389.111 667.03 374.489 644.684C359.866 622.338 338.118 605.592 312.778 597.166C304.774 594.501 296.505 592.712 288.115 591.832C283.954 591.382 279.771 591.151 275.585 591.141V591.1Z" fill="#313131"/>
<path d="M244.208 687.806C240.223 687.806 236.327 686.624 233.014 684.41C229.701 682.195 227.119 679.048 225.595 675.366C224.071 671.684 223.673 667.632 224.452 663.724C225.231 659.816 227.152 656.227 229.971 653.41C232.79 650.594 236.382 648.677 240.291 647.902C244.2 647.127 248.251 647.529 251.931 649.057C255.612 650.585 258.756 653.17 260.967 656.486C263.178 659.801 264.356 663.698 264.352 667.683C264.341 673.02 262.214 678.135 258.438 681.907C254.662 685.679 249.545 687.801 244.208 687.806ZM244.208 652.768C241.258 652.768 238.374 653.643 235.922 655.282C233.469 656.921 231.557 659.25 230.428 661.975C229.299 664.701 229.004 667.699 229.58 670.593C230.155 673.486 231.576 676.143 233.661 678.229C235.747 680.315 238.405 681.735 241.298 682.311C244.191 682.886 247.19 682.591 249.915 681.462C252.641 680.333 254.97 678.422 256.609 675.969C258.248 673.516 259.122 670.633 259.122 667.683C259.117 663.729 257.544 659.939 254.748 657.143C251.952 654.347 248.162 652.774 244.208 652.768Z" fill="#313131"/>
<path d="M175.198 779.618C174.784 779.604 174.378 779.493 174.015 779.293C173.651 779.093 173.34 778.81 173.107 778.467C165.193 766.74 159.369 753.732 155.891 740.019C155.765 739.517 155.791 738.988 155.966 738.5C156.141 738.012 156.457 737.587 156.874 737.279C160.402 734.647 164.593 733.049 168.978 732.663C173.363 732.278 177.769 733.12 181.702 735.095C185.636 737.071 188.942 740.102 191.252 743.849C193.561 747.597 194.782 751.913 194.778 756.315C194.766 761.778 192.873 767.071 189.418 771.304C185.963 775.536 181.156 778.45 175.805 779.555C175.607 779.603 175.403 779.624 175.198 779.618ZM161.35 740.5C164.562 752.375 169.623 763.67 176.349 773.97C180.582 772.67 184.21 769.895 186.572 766.149C188.935 762.403 189.876 757.935 189.226 753.554C188.576 749.173 186.376 745.171 183.027 742.273C179.678 739.375 175.402 737.774 170.973 737.76C167.572 737.757 164.239 738.706 161.35 740.5Z" fill="#313131"/>
<path d="M372.458 652.789C359.384 652.789 348.736 644.422 348.736 634.277C348.845 631.289 349.729 628.381 351.303 625.839C352.876 623.298 355.084 621.209 357.71 619.78C358.203 619.476 358.782 619.344 359.357 619.405C359.932 619.466 360.471 619.715 360.89 620.115C369.411 628.225 376.723 637.517 382.603 647.706C382.8 648.045 382.917 648.425 382.946 648.816C382.975 649.208 382.915 649.601 382.77 649.965C382.629 650.335 382.405 650.666 382.114 650.935C381.824 651.203 381.476 651.401 381.097 651.513C378.295 652.361 375.384 652.791 372.458 652.789ZM358.798 625.386C357.365 626.399 356.184 627.727 355.346 629.268C354.508 630.81 354.036 632.523 353.966 634.277C353.966 641.598 362.333 647.56 372.458 647.56C373.725 647.557 374.991 647.459 376.244 647.267C371.322 639.304 365.465 631.958 358.798 625.386Z" fill="#313131"/>
<path d="M292.236 831.932C291.699 831.932 291.175 831.768 290.733 831.461C290.292 831.154 289.955 830.72 289.768 830.217C289.072 828.292 288.719 826.26 288.722 824.213C288.87 819.112 291.033 814.278 294.738 810.769C298.443 807.26 303.388 805.362 308.49 805.492C312.716 805.424 316.853 806.717 320.288 809.181C323.723 811.644 326.275 815.147 327.567 819.172C327.743 819.778 327.694 820.428 327.429 821.001C327.164 821.574 326.7 822.031 326.124 822.289C315.487 827.086 304.215 830.326 292.654 831.911L292.236 831.932ZM308.594 810.721C304.879 810.591 301.264 811.938 298.54 814.466C295.815 816.995 294.203 820.499 294.056 824.213C294.056 824.95 294.119 825.684 294.244 826.41C303.723 824.92 312.982 822.272 321.814 818.524C320.549 816.127 318.643 814.129 316.309 812.751C313.975 811.374 311.304 810.671 308.594 810.721Z" fill="#313131"/>
<path d="M184.507 643.208C181.657 643.214 178.827 642.733 176.14 641.785C175.76 641.649 175.418 641.427 175.138 641.137C174.859 640.847 174.65 640.496 174.529 640.112C174.411 639.725 174.384 639.316 174.449 638.917C174.514 638.518 174.67 638.14 174.905 637.811C180.469 630.006 186.92 622.873 194.129 616.558C194.558 616.187 195.095 615.965 195.66 615.923C196.225 615.882 196.789 616.023 197.267 616.328C199.325 617.516 201.047 619.21 202.269 621.249C203.492 623.287 204.175 625.603 204.254 627.979C204.275 636.409 195.405 643.208 184.507 643.208ZM181.474 637.748C182.478 637.899 183.492 637.976 184.507 637.978C192.393 637.978 199.045 633.397 199.045 627.979C199 626.81 198.706 625.665 198.183 624.619C197.66 623.572 196.92 622.65 196.012 621.913C190.691 626.734 185.824 632.035 181.474 637.748Z" fill="#313131"/>
<path d="M260.482 758.927C257.729 758.724 255.095 757.721 252.904 756.042C250.712 754.363 249.058 752.082 248.145 749.477C247.231 746.871 247.098 744.056 247.761 741.377C248.424 738.697 249.855 736.269 251.878 734.39C253.9 732.512 256.428 731.265 259.149 730.802C261.871 730.338 264.668 730.68 267.199 731.784C269.729 732.887 271.882 734.706 273.394 737.015C274.906 739.325 275.711 742.026 275.711 744.786C275.646 746.717 275.2 748.616 274.398 750.373C273.597 752.131 272.455 753.712 271.04 755.027C269.624 756.341 267.963 757.362 266.151 758.032C264.339 758.701 262.412 759.006 260.482 758.927ZM260.482 735.917C258.762 736.115 257.136 736.806 255.8 737.907C254.464 739.008 253.475 740.472 252.952 742.123C252.429 743.773 252.395 745.54 252.854 747.209C253.312 748.879 254.244 750.38 255.537 751.532C256.829 752.684 258.427 753.437 260.138 753.701C261.849 753.965 263.6 753.729 265.18 753.02C266.76 752.312 268.101 751.161 269.041 749.708C269.982 748.254 270.482 746.56 270.481 744.828C270.341 742.316 269.209 739.962 267.334 738.283C265.459 736.604 262.995 735.738 260.482 735.875V735.917Z" fill="#313131"/>
<path d="M306.921 720.418C304.835 720.271 302.837 719.518 301.174 718.252C299.51 716.985 298.252 715.26 297.556 713.289C296.859 711.317 296.754 709.185 297.252 707.155C297.751 705.124 298.832 703.283 300.362 701.859C301.893 700.434 303.806 699.487 305.868 699.136C307.929 698.784 310.048 699.041 311.964 699.878C313.881 700.714 315.511 702.091 316.656 703.841C317.8 705.592 318.408 707.638 318.405 709.729C318.296 712.668 317.026 715.444 314.873 717.448C312.72 719.452 309.86 720.52 306.921 720.418ZM306.921 704.248C305.871 704.393 304.885 704.836 304.08 705.526C303.276 706.215 302.686 707.122 302.383 708.137C302.079 709.152 302.074 710.234 302.368 711.252C302.662 712.27 303.243 713.182 304.041 713.879C304.839 714.576 305.821 715.028 306.869 715.183C307.918 715.337 308.988 715.186 309.954 714.749C310.919 714.311 311.738 713.606 312.313 712.715C312.888 711.825 313.194 710.789 313.196 709.729C313.089 708.171 312.368 706.719 311.191 705.691C310.015 704.664 308.479 704.145 306.921 704.248Z" fill="#313131"/>
<path d="M357.396 762.086C351.497 762.086 346.686 757.903 346.686 752.903C346.686 747.904 351.497 743.699 357.396 743.699C363.295 743.699 368.107 747.883 368.107 752.903C368.107 757.924 363.295 762.086 357.396 762.086ZM357.396 748.929C354.426 748.929 351.916 750.749 351.916 752.903C351.916 755.058 354.426 756.857 357.396 756.857C360.367 756.857 362.877 755.058 362.877 752.903C362.877 750.749 360.367 748.929 357.396 748.929Z" fill="#313131"/>
<path d="M302.151 602.335C293.512 602.335 286.337 596.645 285.814 589.408C285.791 589.022 285.849 588.637 285.986 588.276C286.123 587.915 286.336 587.588 286.609 587.316C286.882 587.047 287.211 586.842 287.573 586.715C287.935 586.588 288.32 586.543 288.701 586.584C297.466 587.508 306.106 589.374 314.472 592.148C314.872 592.282 315.234 592.509 315.529 592.811C315.824 593.113 316.042 593.481 316.167 593.884C316.282 594.29 316.3 594.717 316.22 595.131C316.14 595.545 315.964 595.935 315.706 596.269C314.037 598.221 311.955 599.777 309.611 600.826C307.267 601.875 304.719 602.391 302.151 602.335ZM292.131 592.294C293.278 593.858 294.792 595.115 296.539 595.954C298.287 596.793 300.214 597.188 302.151 597.105C304.26 597.127 306.345 596.654 308.239 595.725C302.956 594.205 297.574 593.059 292.131 592.294Z" fill="#313131"/>
<path d="M312.631 647.392C311.095 647.299 309.619 646.757 308.387 645.834C307.154 644.912 306.219 643.649 305.696 642.201C305.172 640.753 305.085 639.183 305.443 637.686C305.801 636.189 306.589 634.829 307.711 633.775C308.833 632.72 310.239 632.017 311.755 631.752C313.272 631.487 314.833 631.672 316.246 632.284C317.658 632.895 318.861 633.907 319.706 635.194C320.55 636.481 321 637.988 320.999 639.527C320.966 640.593 320.724 641.642 320.286 642.615C319.848 643.587 319.222 644.463 318.445 645.194C317.668 645.924 316.755 646.494 315.757 646.872C314.759 647.249 313.697 647.426 312.631 647.392ZM312.631 636.933C312.126 637.013 311.653 637.237 311.271 637.577C310.888 637.917 310.611 638.36 310.472 638.853C310.334 639.346 310.339 639.868 310.488 640.358C310.638 640.848 310.924 641.285 311.314 641.617C311.704 641.949 312.181 642.162 312.688 642.231C313.196 642.3 313.712 642.222 314.177 642.007C314.641 641.791 315.034 641.447 315.309 641.015C315.584 640.583 315.729 640.081 315.727 639.569C315.668 638.805 315.31 638.095 314.73 637.593C314.15 637.092 313.396 636.84 312.631 636.891V636.933Z" fill="#313131"/>
<path d="M558.915 878.439C598.311 858.018 628.153 837.422 625.57 832.438C622.986 827.453 588.954 839.966 549.558 860.388C510.161 880.809 480.319 901.404 482.903 906.389C485.487 911.374 519.518 898.86 558.915 878.439Z" fill="#313131"/>
<path d="M486.044 910.042C482.655 910.042 481.316 908.933 480.605 907.532C479.036 904.54 480.187 899.959 499.013 886.969C530.899 865.928 564.911 848.301 600.488 834.381C621.95 826.473 626.343 828.105 627.911 831.18C629.459 834.171 628.309 838.752 609.482 851.743C593.62 862.366 577.143 872.04 560.136 880.715C543.247 889.612 525.848 897.505 508.029 904.352C496.524 908.578 489.935 910.042 486.044 910.042ZM485.751 904.875C492.026 905.293 519.22 896.027 557.731 876.071C596.241 856.115 619.523 839.213 622.766 833.837C616.49 833.397 589.296 842.706 550.786 862.641C512.275 882.576 488.993 899.499 485.751 904.875Z" fill="#313131"/>
<path d="M1038.18 877.137C1038.18 877.137 985.76 971.395 1016.8 986.791C1061.51 1008.96 1164.55 875.61 1164.55 875.61L1106.6 664.336L995.885 695.211L1038.18 877.137Z" fill="white"/>
<path d="M1027.85 991.832C1023.62 991.888 1019.44 990.965 1015.63 989.134C1013.25 987.924 1011.15 986.229 1009.46 984.157C1007.78 982.085 1006.54 979.683 1005.84 977.106C996.993 948.636 1030.69 885.379 1035.4 876.698L993.332 695.839C993.183 695.183 993.291 694.494 993.633 693.915C993.976 693.335 994.527 692.908 995.173 692.722L1105.91 661.847C1106.26 661.742 1106.63 661.711 1106.99 661.754C1107.35 661.797 1107.69 661.914 1108.01 662.098C1108.31 662.266 1108.57 662.494 1108.79 662.767C1109 663.04 1109.15 663.353 1109.24 663.688L1167.06 874.878C1167.17 875.269 1167.19 875.682 1167.11 876.081C1167.04 876.481 1166.87 876.857 1166.62 877.179C1162.71 882.263 1077.42 991.832 1027.85 991.832ZM999.001 697.073L1040.73 876.531C1040.87 877.164 1040.78 877.827 1040.46 878.393C1040.08 879.083 1002.2 947.737 1010.84 975.558C1011.33 977.458 1012.22 979.232 1013.45 980.764C1014.67 982.296 1016.21 983.552 1017.95 984.448C1021.21 986.02 1024.8 986.801 1028.41 986.728C1072.49 986.728 1152.86 886.321 1161.77 875.025L1104.87 667.641L999.001 697.073Z" fill="#313131"/>
<path d="M1111.73 682.952L1127.27 739.097C1127.27 739.097 1107.13 742.653 1047.91 741.502L1111.73 682.952Z" fill="#313131"/>
<path d="M1070.56 744.349C1063.72 744.349 1056.17 744.349 1047.85 744.119C1047.3 744.109 1046.78 743.931 1046.34 743.61C1045.91 743.289 1045.58 742.84 1045.41 742.325C1045.24 741.811 1045.23 741.256 1045.39 740.738C1045.55 740.22 1045.87 739.764 1046.3 739.433L1112.17 688.226C1112.51 687.965 1112.91 687.791 1113.33 687.718C1113.75 687.645 1114.19 687.676 1114.6 687.807C1115 687.95 1115.37 688.188 1115.66 688.501C1115.96 688.814 1116.17 689.193 1116.29 689.606L1129.78 738.388C1129.88 738.741 1129.9 739.111 1129.84 739.473C1129.79 739.835 1129.66 740.182 1129.46 740.491C1129.26 740.8 1129.01 741.065 1128.7 741.268C1128.4 741.471 1128.05 741.609 1127.69 741.672C1127 741.797 1111.98 744.349 1070.56 744.349ZM1055.38 739.015C1096.52 739.559 1116.96 737.739 1123.95 736.923L1112.29 694.773L1055.38 739.015Z" fill="#313131"/>
<path d="M959.006 673.35C974.297 722.278 1001.6 756.04 1060.35 738.908C1101.27 726.985 1121.6 676.153 1106.37 627.267C1091.15 578.381 1045.71 548.991 1005.03 561.73C964.34 574.47 943.694 624.422 959.006 673.35Z" fill="white"/>
<path d="M1031.55 746.126C1017.21 746.428 1003.19 741.831 991.806 733.094C976.828 721.505 965.281 702.219 956.496 674.126C948.923 649.881 949.655 624.612 958.587 603.004C967.52 581.395 983.689 565.664 1004.19 559.263C1046.17 546.148 1093.13 576.312 1108.78 626.537C1117.36 653.981 1115.27 682.89 1103.05 705.859C1093.64 723.556 1078.74 736.19 1061.09 741.42C1051.52 744.406 1041.57 745.991 1031.55 746.126ZM1024.38 561.376C1018.05 561.371 1011.76 562.33 1005.72 564.221C986.89 570.141 971.766 584.595 963.399 604.949C955.031 625.302 954.278 649.484 961.495 672.578C975.908 718.598 998.499 740.918 1031.55 740.918C1041.06 740.774 1050.49 739.252 1059.56 736.399C1075.88 731.546 1089.66 719.811 1098.43 703.369C1109.97 681.635 1111.94 654.17 1103.76 628.064C1091.27 588.026 1058.01 561.376 1024.38 561.376Z" fill="#313131"/>
<path d="M955.45 658.561C955.45 658.561 948.798 616.453 951.015 587.439C953.337 557.087 971.494 457.578 1058.95 414.487C1197.91 346.063 1301.48 493.976 1415.8 478.434C1560.68 458.604 1644.56 322.635 1644.56 322.635C1644.56 322.635 1621.19 381.52 1628.66 470.339C1634.54 539.996 1681.94 587.188 1681.94 587.188C1681.94 587.188 1662.01 698.745 1495.91 705.878C1357.71 711.84 1325.79 622.477 1224.69 627.665C1144.09 631.849 1117.38 702.49 1117.38 702.49L1105.31 657.829C1105.31 657.829 1095.33 652.955 1095.14 652.432C1095.14 652.432 1111.73 617.582 1091.5 611.307C1072.95 605.533 1074.77 630.468 1074.77 630.468C1074.77 630.468 1047.95 570.265 985.216 592.125C940.765 607.583 955.45 658.561 955.45 658.561Z" fill="#313131"/>
<path d="M1483.05 708.787C1415.76 708.787 1373.9 685.421 1336.62 664.67C1302.78 645.844 1270.79 627.917 1224.75 630.281C1146.77 634.255 1120.03 702.721 1119.76 703.495C1119.57 704.015 1119.22 704.46 1118.75 704.765C1118.29 705.07 1117.74 705.219 1117.19 705.189C1116.64 705.16 1116.11 704.958 1115.69 704.613C1115.26 704.267 1114.95 703.795 1114.8 703.265L1103.03 659.734C1093.18 654.902 1093.01 654.483 1092.57 653.458C1092.42 653.128 1092.35 652.772 1092.35 652.412C1092.35 652.052 1092.42 651.696 1092.57 651.366C1092.57 651.157 1102.21 630.846 1097.38 619.801C1096.76 618.359 1095.82 617.076 1094.63 616.047C1093.44 615.019 1092.04 614.271 1090.52 613.86C1086.65 612.668 1083.74 612.898 1081.63 614.55C1077.28 618.002 1076.9 627.101 1077.11 630.364C1077.14 630.969 1076.96 631.564 1076.59 632.049C1076.23 632.534 1075.71 632.879 1075.13 633.025C1074.54 633.17 1073.92 633.108 1073.37 632.848C1072.83 632.588 1072.39 632.146 1072.13 631.599C1071.06 629.235 1045.5 573.864 985.823 594.657C960.491 603.484 955.408 624.319 955.429 639.694C956.621 650.488 957.792 658.039 957.813 658.207C957.895 658.853 957.733 659.507 957.358 660.04C956.983 660.573 956.423 660.946 955.787 661.088C955.15 661.229 954.485 661.128 953.919 660.804C953.354 660.48 952.93 659.956 952.73 659.336C951.313 653.718 950.541 647.956 950.429 642.162C948.693 627.185 946.852 604.991 948.191 587.252C949.195 574.366 960.637 459.922 1057.59 412.166C1139.4 371.877 1208.39 405.2 1275.14 437.414C1322.94 460.424 1368.08 482.284 1415.3 475.862C1557.41 456.513 1641.51 322.636 1642.32 321.255C1642.66 320.696 1643.2 320.284 1643.83 320.103C1644.46 319.921 1645.13 319.982 1645.72 320.274C1646.31 320.566 1646.76 321.067 1647 321.679C1647.23 322.291 1647.23 322.968 1646.99 323.577C1646.76 324.163 1623.98 383.006 1631.28 470.005C1636.99 537.864 1683.32 584.763 1683.8 585.223C1684.1 585.522 1684.32 585.891 1684.45 586.295C1684.57 586.7 1684.59 587.129 1684.51 587.545C1684.3 588.716 1679.12 616.496 1653.14 645.509C1629.31 672.159 1582.7 704.687 1496 708.41C1491.59 708.661 1487.28 708.787 1483.05 708.787ZM1233.03 624.821C1276.04 624.821 1306.79 641.995 1339.24 660.089C1380.07 682.89 1422.28 706.423 1495.81 703.285C1580.53 699.625 1625.9 668.122 1649.08 642.351C1671.08 617.834 1677.76 593.695 1679.1 587.963C1672.15 580.558 1631.47 534.663 1626.07 470.507C1620.92 409.426 1630.44 361.962 1636.9 338.262C1621.79 358.669 1604.84 377.658 1586.28 394.992C1550.36 428.461 1491.67 470.674 1416.15 480.966C1367.41 487.597 1321.58 465.466 1273.05 442.037C1207.45 410.493 1139.63 377.63 1060.12 416.768C965.762 463.248 954.592 574.973 953.63 587.566C952.98 598.094 953.05 608.654 953.839 619.173C958.023 607.271 966.704 595.766 984.296 589.637C1034.33 572.191 1062.55 605.618 1072.72 621.579C1073.3 617.273 1075.38 613.31 1078.6 610.387C1082.11 607.584 1086.71 607.061 1092.28 608.777C1094.51 609.404 1096.58 610.524 1098.33 612.055C1100.08 613.586 1101.46 615.489 1102.38 617.625C1107.17 628.607 1100.96 645.446 1098.45 651.387C1100.37 652.433 1103.61 654.065 1106.46 655.466C1106.79 655.633 1107.08 655.866 1107.32 656.15C1107.56 656.434 1107.73 656.764 1107.84 657.119L1118.13 694.981C1127.33 676.949 1158.19 628.544 1224.63 625.135C1227.43 624.905 1230.25 624.821 1233.03 624.821Z" fill="#313131"/>
<path d="M1005.49 685.547C1004.6 685.625 1003.71 685.404 1002.95 684.919C1002.01 684.292 1000.42 683.246 993.353 651.91C993.278 651.575 993.269 651.228 993.328 650.89C993.386 650.551 993.511 650.227 993.694 649.937C993.878 649.647 994.117 649.395 994.397 649.197C994.678 648.999 994.995 648.858 995.33 648.783C995.665 648.707 996.012 648.698 996.351 648.757C996.689 648.815 997.013 648.94 997.303 649.124C997.594 649.307 997.845 649.546 998.043 649.827C998.241 650.107 998.382 650.424 998.458 650.76C1001.22 663.018 1004.63 676.594 1006.05 680.317C1009.42 679.752 1012.74 678.898 1015.97 677.765C1016.62 677.576 1017.31 677.645 1017.91 677.959C1018.51 678.273 1018.97 678.807 1019.18 679.448C1019.39 680.09 1019.35 680.789 1019.06 681.4C1018.77 682.011 1018.25 682.485 1017.62 682.723C1013.73 684.252 1009.65 685.204 1005.49 685.547Z" fill="#313131"/>
<path d="M1024.42 701.571C1023.72 701.571 1023.06 701.296 1022.57 700.805C1022.08 700.315 1021.8 699.65 1021.8 698.956C1021.8 698.263 1022.08 697.598 1022.57 697.108C1023.06 696.617 1023.72 696.342 1024.42 696.342C1033.58 696.342 1035.34 686.866 1035.4 686.468C1035.51 685.783 1035.89 685.171 1036.46 684.767C1037.02 684.363 1037.73 684.2 1038.41 684.314C1039.1 684.427 1039.71 684.809 1040.11 685.374C1040.52 685.938 1040.68 686.641 1040.57 687.326C1039.75 692.242 1035.32 701.571 1024.42 701.571Z" fill="#313131"/>
<path d="M1086.5 635.448C1086.09 635.444 1085.68 635.341 1085.31 635.148C1084.94 634.955 1084.63 634.679 1084.39 634.34C1084.14 634.002 1083.99 633.611 1083.93 633.2C1083.87 632.789 1083.9 632.37 1084.03 631.976L1087.67 621.621C1087.79 621.297 1087.96 620.999 1088.19 620.743C1088.42 620.487 1088.7 620.279 1089.01 620.13C1089.32 619.982 1089.66 619.896 1090 619.877C1090.34 619.858 1090.69 619.907 1091.01 620.021C1091.33 620.135 1091.63 620.312 1091.89 620.541C1092.14 620.771 1092.35 621.048 1092.5 621.358C1092.65 621.668 1092.74 622.004 1092.76 622.347C1092.77 622.69 1092.72 623.034 1092.61 623.358L1090.67 628.901L1092.36 628.42C1092.69 628.324 1093.03 628.293 1093.38 628.331C1093.72 628.368 1094.05 628.472 1094.35 628.637C1094.65 628.803 1094.92 629.025 1095.13 629.293C1095.35 629.561 1095.51 629.868 1095.6 630.198C1095.7 630.528 1095.73 630.873 1095.69 631.214C1095.65 631.556 1095.55 631.886 1095.38 632.187C1095.22 632.488 1095 632.754 1094.73 632.969C1094.46 633.184 1094.15 633.344 1093.82 633.44L1087.23 635.344C1087 635.422 1086.75 635.457 1086.5 635.448Z" fill="#313131"/>
<path d="M1113.59 668.01L1114.06 667.167C1117.54 660.828 1115.22 652.867 1108.88 649.385L1108.04 648.922C1101.7 645.44 1093.74 647.756 1090.26 654.095L1089.79 654.938C1086.31 661.277 1088.63 669.238 1094.97 672.72L1095.81 673.183C1102.15 676.665 1110.11 674.349 1113.59 668.01Z" fill="#FFA620"/>
<path d="M1102.09 677.43C1099.45 677.435 1096.86 676.773 1094.56 675.506L1093.7 675.025C1090.04 673.027 1087.33 669.661 1086.15 665.665C1084.98 661.668 1085.43 657.369 1087.42 653.709L1087.9 652.851C1088.89 651.036 1090.22 649.432 1091.82 648.133C1093.43 646.834 1095.28 645.865 1097.26 645.281C1099.24 644.698 1101.31 644.512 1103.37 644.734C1105.42 644.957 1107.41 645.582 1109.22 646.576L1110.1 647.057C1111.91 648.042 1113.51 649.376 1114.81 650.981C1116.11 652.587 1117.08 654.432 1117.66 656.413C1118.24 658.393 1118.43 660.468 1118.21 662.521C1117.99 664.573 1117.36 666.562 1116.37 668.373L1115.91 669.23C1114.56 671.716 1112.56 673.79 1110.13 675.233C1107.69 676.676 1104.92 677.436 1102.09 677.43ZM1101.75 649.923C1100.75 649.929 1099.76 650.069 1098.8 650.341C1097.48 650.723 1096.24 651.363 1095.16 652.225C1094.09 653.086 1093.19 654.152 1092.53 655.362L1092.07 656.219C1091.4 657.427 1090.99 658.754 1090.84 660.124C1090.69 661.494 1090.81 662.879 1091.2 664.201C1091.59 665.523 1092.24 666.755 1093.1 667.826C1093.97 668.897 1095.04 669.787 1096.25 670.444L1097.13 670.925C1098.34 671.587 1099.66 672.005 1101.03 672.153C1102.4 672.302 1103.79 672.178 1105.11 671.789C1106.43 671.4 1107.66 670.754 1108.74 669.888C1109.81 669.022 1110.7 667.952 1111.35 666.741L1111.81 665.884C1112.48 664.676 1112.89 663.349 1113.04 661.979C1113.19 660.609 1113.07 659.224 1112.68 657.902C1112.29 656.58 1111.64 655.348 1110.78 654.277C1109.91 653.206 1108.84 652.316 1107.63 651.659L1106.77 651.178C1105.23 650.346 1103.5 649.914 1101.75 649.923Z" fill="#313131"/>
<path d="M1031.16 623.514L951.142 641.825C940.691 644.216 934.158 654.627 936.55 665.078L940.124 680.698C942.516 691.149 952.927 697.682 963.377 695.29L1043.39 676.979C1053.84 674.588 1060.38 664.177 1057.98 653.726L1054.41 638.106C1052.02 627.655 1041.61 621.122 1031.16 623.514Z" fill="white"/>
<path d="M958.964 698.494C953.983 698.478 949.155 696.775 945.265 693.664C941.376 690.554 938.654 686.217 937.544 681.362L934.05 665.694C932.749 659.997 933.763 654.016 936.87 649.066C939.976 644.116 944.921 640.601 950.617 639.295L1030.61 620.992C1036.31 619.691 1042.29 620.705 1047.24 623.811C1052.19 626.918 1055.7 631.863 1057.01 637.559L1060.58 653.185C1061.88 658.88 1060.86 664.855 1057.76 669.8C1054.65 674.746 1049.71 678.257 1044.02 679.563L964.005 697.867C962.354 698.267 960.663 698.478 958.964 698.494ZM1035.48 625.74C1034.21 625.735 1032.94 625.876 1031.7 626.159L951.684 644.462C949.536 644.955 947.507 645.867 945.713 647.147C943.919 648.426 942.395 650.047 941.229 651.917C940.062 653.786 939.277 655.868 938.917 658.042C938.558 660.216 938.631 662.44 939.133 664.586L942.689 680.191C943.182 682.338 944.095 684.368 945.374 686.162C946.653 687.956 948.274 689.48 950.144 690.646C952.014 691.812 954.095 692.598 956.269 692.957C958.443 693.317 960.667 693.244 962.813 692.742L1042.83 674.522C1044.97 674.029 1047 673.116 1048.8 671.837C1050.59 670.558 1052.11 668.937 1053.28 667.067C1054.45 665.198 1055.23 663.116 1055.59 660.942C1055.95 658.768 1055.88 656.544 1055.38 654.398L1051.8 638.793C1050.96 635.086 1048.89 631.773 1045.92 629.401C1042.95 627.029 1039.26 625.737 1035.46 625.74H1035.48Z" fill="#313131"/>
<path d="M1006.68 629.105L926.669 647.416C916.218 649.807 909.685 660.218 912.076 670.669L915.651 686.289C918.042 696.74 928.453 703.273 938.904 700.881L1018.92 682.57C1029.37 680.178 1035.9 669.767 1033.51 659.317L1029.94 643.697C1027.55 633.246 1017.13 626.713 1006.68 629.105Z" fill="white"/>
<path d="M934.49 704.101C929.522 704.063 924.712 702.351 920.836 699.243C916.961 696.134 914.247 691.81 913.132 686.969L909.576 671.364C908.928 668.544 908.843 665.624 909.324 662.771C909.805 659.918 910.844 657.188 912.38 654.737C913.917 652.285 915.921 650.16 918.279 648.484C920.637 646.807 923.302 645.611 926.122 644.965L1006.13 626.661C1011.81 625.404 1017.75 626.44 1022.66 629.543C1027.58 632.646 1031.06 637.565 1032.37 643.229L1035.94 658.834C1037.24 664.531 1036.22 670.509 1033.12 675.458C1030.01 680.406 1025.07 683.921 1019.38 685.232L939.384 703.536C937.779 703.905 936.137 704.094 934.49 704.101ZM1010.99 631.326C1009.72 631.328 1008.46 631.475 1007.22 631.765L927.21 650.069C925.062 650.562 923.033 651.474 921.239 652.753C919.444 654.033 917.92 655.654 916.754 657.523C915.588 659.393 914.803 661.475 914.443 663.649C914.084 665.823 914.157 668.047 914.659 670.192L918.236 685.797C918.729 687.945 919.641 689.974 920.92 691.769C922.2 693.563 923.821 695.087 925.691 696.253C927.56 697.419 929.642 698.205 931.816 698.564C933.99 698.924 936.214 698.85 938.359 698.348L1018.37 680.045C1020.52 679.552 1022.55 678.64 1024.34 677.36C1026.14 676.081 1027.66 674.46 1028.83 672.59C1029.99 670.721 1030.78 668.639 1031.14 666.465C1031.5 664.291 1031.42 662.067 1030.92 659.921L1027.37 644.316C1026.51 640.612 1024.43 637.305 1021.46 634.932C1018.49 632.559 1014.81 631.259 1011.01 631.242L1010.99 631.326Z" fill="#313131"/>
<path d="M938.234 666.406C937.633 666.403 937.051 666.194 936.586 665.813C936.121 665.432 935.802 664.903 935.682 664.314C935.531 663.637 935.653 662.929 936.021 662.342C936.389 661.754 936.974 661.336 937.648 661.176L1002.72 646.303C1003.06 646.228 1003.41 646.219 1003.75 646.277C1004.08 646.336 1004.41 646.46 1004.7 646.644C1004.99 646.828 1005.24 647.067 1005.44 647.347C1005.64 647.628 1005.78 647.945 1005.85 648.28C1005.93 648.615 1005.94 648.962 1005.88 649.3C1005.82 649.639 1005.7 649.963 1005.51 650.253C1005.33 650.544 1005.09 650.795 1004.81 650.993C1004.53 651.191 1004.21 651.332 1003.88 651.407L938.82 666.28C938.629 666.343 938.433 666.385 938.234 666.406Z" fill="#313131"/>
<path d="M942.208 683.895C941.563 683.899 940.939 683.664 940.456 683.236C939.974 682.808 939.666 682.216 939.594 681.575C939.521 680.933 939.688 680.288 940.062 679.762C940.437 679.237 940.993 678.869 941.623 678.728L1006.7 663.855C1007.04 663.75 1007.4 663.716 1007.76 663.757C1008.12 663.797 1008.46 663.911 1008.77 664.09C1009.08 664.27 1009.35 664.511 1009.57 664.8C1009.78 665.088 1009.93 665.418 1010.01 665.768C1010.09 666.118 1010.1 666.48 1010.04 666.833C1009.97 667.186 1009.83 667.522 1009.63 667.819C1009.43 668.117 1009.17 668.37 1008.87 668.562C1008.56 668.755 1008.23 668.883 1007.87 668.938L942.794 683.832C942.602 683.874 942.405 683.895 942.208 683.895Z" fill="#313131"/>
<path d="M627.179 862.013C614.043 824.528 575.114 733.429 527.127 699.876C493.135 676.113 466.13 670.716 459.561 682.555C459.561 682.555 437.869 681.886 439.187 695.692C439.187 695.692 416.846 696.362 420.779 709.498C420.779 709.498 357.271 700.441 354.698 711.59C350.033 731.964 478.45 740.311 478.45 773.006C478.45 778.549 425.234 760.832 420.779 788.486C419.022 799.447 473.472 794.405 490.876 823.9C501.733 842.308 519.136 906.046 519.136 906.046L591.367 922.446L627.179 862.013Z" fill="white"/>
<path d="M591.367 925.082H590.782L518.551 908.682C518.088 908.578 517.663 908.349 517.32 908.021C516.977 907.693 516.73 907.278 516.605 906.821C516.438 906.172 499.18 843.208 488.638 825.239C478.743 808.505 455.817 803.443 439.061 799.74C426.322 796.916 417.097 794.887 418.143 788.068C421.616 766.501 449.709 769.241 466.506 770.915C469.541 771.279 472.592 771.489 475.647 771.542C473.346 756.335 435.233 745.959 404.525 737.571C372.583 728.869 349.531 722.594 352.23 711.005C354.928 699.416 396.514 703.537 417.787 706.403C417.796 704.313 418.462 702.278 419.691 700.588C423.54 695.232 432.242 693.664 436.656 693.224C436.865 690.581 437.981 688.09 439.814 686.175C444.856 680.799 454.457 680.004 458.222 679.899C460.398 677.075 463.529 675.141 467.029 674.461C480.438 671.365 503.49 680.046 528.717 697.701C574.423 729.643 613.708 815.45 629.731 861.093C629.859 861.453 629.906 861.835 629.87 862.215C629.834 862.594 629.715 862.961 629.522 863.29L593.71 923.765C593.474 924.174 593.132 924.513 592.719 924.745C592.307 924.976 591.84 925.093 591.367 925.082ZM521.228 903.871L590.091 919.497L624.314 861.7C608.248 816.37 569.926 732.927 525.642 702.01C497.34 682.221 477.363 677.452 468.117 679.586C466.83 679.786 465.602 680.264 464.518 680.986C463.435 681.709 462.521 682.658 461.841 683.769C461.606 684.186 461.262 684.531 460.845 684.767C460.429 685.002 459.956 685.121 459.478 685.108C456.34 685.003 447.345 685.673 443.538 689.731C442.845 690.483 442.328 691.38 442.024 692.357C441.72 693.334 441.637 694.366 441.781 695.379C441.822 695.736 441.787 696.097 441.679 696.44C441.571 696.782 441.392 697.098 441.153 697.366C440.915 697.633 440.626 697.848 440.302 697.999C439.978 698.15 439.628 698.233 439.271 698.245C435.986 698.349 426.72 699.521 423.833 703.621C423.338 704.357 423.029 705.202 422.935 706.085C422.84 706.967 422.962 707.858 423.289 708.683C423.417 709.105 423.437 709.553 423.346 709.984C423.254 710.416 423.055 710.817 422.767 711.151C422.479 711.485 422.111 711.741 421.698 711.895C421.284 712.048 420.839 712.095 420.402 712.03C387.833 707.386 358.338 707.449 357.25 712.155C355.723 718.849 383.523 726.422 405.864 732.509C442.827 742.571 481.065 752.967 481.065 772.986C481.067 773.46 480.967 773.93 480.772 774.363C480.577 774.796 480.292 775.182 479.936 775.496C478.053 777.211 474.539 776.939 466.046 776.102C445.818 774.115 425.862 773.446 423.373 788.884C423.059 790.829 433.832 793.193 440.107 794.615C457.804 798.506 481.944 803.861 493.051 822.562C503.239 839.736 518.467 893.872 521.228 903.892V903.871Z" fill="#313131"/>
<path d="M454.164 719.246C453.931 719.242 453.698 719.206 453.474 719.141C453.307 719.141 436.509 714.539 420.381 712.092C419.711 711.97 419.115 711.591 418.72 711.036C418.325 710.482 418.162 709.795 418.265 709.121C418.369 708.448 418.731 707.842 419.275 707.432C419.818 707.022 420.5 706.84 421.176 706.925C437.597 709.414 454.645 714.058 454.855 714.1C455.473 714.26 456.012 714.641 456.369 715.172C456.726 715.702 456.876 716.345 456.791 716.979C456.706 717.612 456.392 718.193 455.908 718.611C455.424 719.028 454.804 719.254 454.164 719.246Z" fill="#313131"/>
<path d="M460.565 701.884C460.28 701.886 459.996 701.837 459.729 701.737C456.047 700.503 445.232 697.554 439.563 698.286C439.215 698.357 438.856 698.356 438.507 698.283C438.159 698.21 437.83 698.067 437.539 697.862C437.248 697.658 437.001 697.396 436.815 697.093C436.629 696.79 436.506 696.452 436.455 696.1C436.404 695.748 436.425 695.39 436.517 695.046C436.609 694.703 436.77 694.382 436.991 694.102C437.211 693.823 437.486 693.592 437.799 693.423C438.112 693.254 438.456 693.15 438.81 693.119C446.885 691.947 460.816 696.591 461.402 696.8C461.983 697.003 462.474 697.405 462.788 697.934C463.102 698.463 463.22 699.086 463.12 699.694C463.02 700.301 462.709 700.854 462.242 701.254C461.774 701.655 461.181 701.878 460.565 701.884Z" fill="#313131"/>
<path d="M478.45 688.978C478.202 688.984 477.955 688.949 477.718 688.873C477.593 688.873 465.523 685.38 459.478 685.171C459.134 685.158 458.797 685.078 458.484 684.936C458.172 684.793 457.89 684.59 457.656 684.338C457.422 684.087 457.24 683.792 457.12 683.47C457 683.148 456.945 682.805 456.957 682.462C456.969 682.118 457.049 681.781 457.192 681.468C457.335 681.156 457.538 680.874 457.789 680.64C458.041 680.406 458.336 680.224 458.658 680.104C458.98 679.984 459.322 679.929 459.666 679.941C466.267 680.669 472.791 681.978 479.162 683.853C479.764 684.029 480.283 684.415 480.625 684.942C480.966 685.469 481.106 686.101 481.02 686.723C480.933 687.344 480.626 687.914 480.155 688.328C479.683 688.742 479.078 688.973 478.45 688.978Z" fill="#313131"/>
<path d="M1164.55 875.61C1164.55 875.61 1338.17 907.678 1371.28 932.947C1406.97 960.245 1686.96 1255.09 1648.22 1365.41C1615.99 1457.33 1364.69 1444.17 1364.69 1444.17L1380 1616L1254.5 1595L1124.5 1561L999 1518L881.88 1467.51V1232.25C881.88 1232.25 746.685 1303.24 668.786 1292.22C584.401 1280.25 482.801 905.46 482.801 905.46C482.801 905.46 513.907 907.552 561.37 883.873C617.515 855.8 625.673 832.686 625.673 832.686L723.592 1069.84C723.592 1069.84 863.577 873.748 899.054 862.327C933.569 851.219 1034.02 859.21 1034.02 859.21L1038.2 877.137C1038.2 877.137 1006.36 939.892 1050.36 945.791C1094.35 951.69 1164.55 875.61 1164.55 875.61Z" fill="white"/>
<path d="M1379.11 1616.86C1378.46 1616.87 1377.83 1616.63 1377.35 1616.19C1376.87 1615.75 1376.56 1615.15 1376.5 1614.5L1362.1 1444.4C1362.06 1444.02 1362.1 1443.63 1362.22 1443.27C1362.34 1442.91 1362.55 1442.58 1362.81 1442.31C1363.08 1442.03 1363.41 1441.81 1363.77 1441.67C1364.13 1441.54 1364.52 1441.48 1364.9 1441.51C1367.39 1441.64 1614.52 1453.54 1645.82 1364.51C1665.92 1307.28 1596.99 1199.76 1535.64 1119.62C1466.32 1029.07 1386.93 948.092 1369.76 934.977C1339.13 911.569 1182.14 881.51 1165.53 878.393C1156.85 887.639 1097.78 948.699 1055.48 948.699C1053.67 948.708 1051.86 948.59 1050.06 948.343C1039.6 946.9 1032.09 942.256 1028.04 934.516C1017.85 915.083 1032.66 882.618 1035.48 876.761L1031.97 861.637C1017.97 860.612 930.954 854.797 899.912 864.775C865.668 875.799 727.189 1069.36 725.788 1071.3C725.518 1071.68 725.151 1071.98 724.726 1072.17C724.302 1072.36 723.834 1072.43 723.371 1072.38C722.908 1072.33 722.468 1072.16 722.094 1071.88C721.721 1071.6 721.429 1071.23 721.249 1070.8L625.359 838.753C619.774 847.308 604.023 865.465 562.605 886.216C523.759 905.628 495.917 907.971 486.316 908.139C496.775 945.373 591.66 1278.64 669.204 1289.62C745.409 1300.42 879.391 1230.64 880.73 1229.92C881.129 1229.72 881.575 1229.61 882.025 1229.63C882.475 1229.64 882.914 1229.77 883.299 1230C883.684 1230.24 884.002 1230.57 884.223 1230.96C884.443 1231.35 884.559 1231.8 884.558 1232.25V1467.51C884.558 1468.21 884.282 1468.87 883.792 1469.36C883.301 1469.85 882.636 1470.13 881.943 1470.13C881.249 1470.13 880.584 1469.85 880.094 1469.36C879.604 1468.87 879.328 1468.21 879.328 1467.51V1236.51C856.318 1248.19 739.908 1304.92 668.472 1294.81C583.293 1282.78 484.433 921.526 480.27 906.256C480.164 905.853 480.154 905.432 480.242 905.025C480.33 904.618 480.514 904.238 480.777 903.915C481.04 903.593 481.376 903.337 481.757 903.17C482.138 903.002 482.553 902.927 482.969 902.951C483.282 902.951 514.053 904.708 560.199 881.635C614.356 854.567 623.142 832.142 623.226 831.912C623.406 831.417 623.732 830.988 624.16 830.681C624.589 830.374 625.1 830.203 625.627 830.192C626.154 830.181 626.672 830.329 627.113 830.617C627.555 830.906 627.898 831.321 628.1 831.808L724.219 1064.59C744.552 1036.3 864.727 870.737 898.259 859.943C932.879 848.814 1030.04 856.387 1034.23 856.701C1034.79 856.758 1035.32 856.991 1035.74 857.367C1036.16 857.742 1036.45 858.241 1036.57 858.792L1040.75 876.698C1040.89 877.3 1040.81 877.929 1040.52 878.476C1040.36 878.832 1022.89 913.724 1032.62 932.299C1035.9 938.575 1041.82 942.152 1050.71 943.365C1092.86 949.096 1161.95 874.753 1162.65 874C1162.94 873.671 1163.32 873.425 1163.74 873.286C1164.16 873.147 1164.62 873.119 1165.05 873.205C1172.16 874.502 1339.74 905.691 1372.89 931.044C1405.07 955.644 1690.48 1253.29 1650.71 1366.46C1636.9 1405.41 1584.44 1430.84 1494.66 1441.76C1452.48 1446.59 1410.01 1448.28 1367.58 1446.83L1381.71 1613.94C1381.74 1614.28 1381.7 1614.62 1381.6 1614.95C1381.5 1615.28 1381.34 1615.58 1381.12 1615.85C1380.9 1616.11 1380.63 1616.33 1380.32 1616.49C1380.02 1616.65 1379.69 1616.75 1379.34 1616.78L1379.11 1616.86Z" fill="#313131"/>
<path d="M640.818 1446.51C717.725 1446.51 780.071 1384.16 780.071 1307.26C780.071 1230.35 717.725 1168 640.818 1168C563.911 1168 501.565 1230.35 501.565 1307.26C501.565 1384.16 563.911 1446.51 640.818 1446.51Z" fill="#FFA620"/>
<path d="M640.818 1449.13C612.758 1449.13 585.329 1440.81 561.998 1425.22C538.668 1409.63 520.484 1387.47 509.747 1361.54C499.01 1335.62 496.202 1307.09 501.678 1279.57C507.154 1252.05 520.667 1226.78 540.51 1206.94C560.352 1187.1 585.633 1173.59 613.154 1168.11C640.675 1162.64 669.2 1165.45 695.123 1176.2C721.046 1186.94 743.201 1205.12 758.787 1228.46C774.373 1251.79 782.69 1279.22 782.686 1307.28C782.641 1344.89 767.68 1380.95 741.083 1407.54C714.487 1434.13 678.428 1449.09 640.818 1449.13ZM640.818 1170.64C613.794 1170.64 587.376 1178.65 564.906 1193.67C542.436 1208.68 524.923 1230.02 514.581 1254.99C504.239 1279.96 501.533 1307.43 506.805 1333.94C512.078 1360.44 525.091 1384.79 544.2 1403.9C563.309 1423.01 587.656 1436.02 614.161 1441.29C640.666 1446.56 668.14 1443.86 693.107 1433.52C718.075 1423.17 739.414 1405.66 754.428 1383.19C769.442 1360.72 777.456 1334.3 777.456 1307.28C777.417 1271.05 763.009 1236.32 737.393 1210.7C711.777 1185.09 677.045 1170.68 640.818 1170.64Z" fill="#313131"/>
<path d="M496.858 1428.5C486.839 1428.5 478.639 1426.07 474.329 1419.67C465.607 1406.75 477.133 1382.02 506.816 1349.91C507.049 1349.66 507.33 1349.45 507.642 1349.31C507.955 1349.17 508.293 1349.08 508.636 1349.07C508.98 1349.06 509.323 1349.11 509.646 1349.23C509.969 1349.35 510.265 1349.53 510.518 1349.76C510.771 1350 510.975 1350.28 511.119 1350.59C511.263 1350.9 511.345 1351.24 511.358 1351.58C511.372 1351.93 511.317 1352.27 511.198 1352.59C511.079 1352.92 510.898 1353.21 510.665 1353.47C483.596 1382.75 471.631 1406.35 478.66 1416.74C485.353 1426.66 509.054 1425.22 543.653 1412.79C579.82 1399.78 623.791 1376.37 667.489 1346.86C764.466 1281.38 815.778 1216.91 802.851 1197.79C795.634 1187.1 770.009 1189.26 732.524 1203.73C732.202 1203.86 731.86 1203.92 731.515 1203.91C731.171 1203.9 730.832 1203.82 730.517 1203.68C730.203 1203.54 729.919 1203.34 729.681 1203.09C729.444 1202.84 729.259 1202.55 729.135 1202.23C729.011 1201.91 728.952 1201.56 728.961 1201.22C728.97 1200.88 729.046 1200.54 729.186 1200.22C729.326 1199.91 729.526 1199.62 729.776 1199.39C730.026 1199.15 730.32 1198.96 730.641 1198.84C771.766 1182.98 798.228 1181.6 807.202 1194.86C825.756 1222.37 752.229 1295.94 670.417 1351.21C626.363 1380.95 581.975 1404.57 545.431 1417.71C529.742 1423.35 511.501 1428.5 496.858 1428.5Z" fill="#313131"/>
<path d="M573.357 1242.52C572.939 1242.51 572.529 1242.4 572.165 1242.19C571.8 1241.99 571.491 1241.7 571.265 1241.35C571.073 1241.06 570.94 1240.74 570.873 1240.4C570.806 1240.07 570.806 1239.72 570.874 1239.38C570.943 1239.05 571.077 1238.73 571.27 1238.44C571.462 1238.16 571.709 1237.92 571.997 1237.73C586.25 1228.19 598.736 1216.25 608.897 1202.44C609.09 1202.15 609.338 1201.91 609.626 1201.72C609.914 1201.53 610.236 1201.4 610.574 1201.34C610.912 1201.27 611.259 1201.28 611.596 1201.35C611.932 1201.42 612.252 1201.55 612.536 1201.75C612.821 1201.94 613.064 1202.19 613.253 1202.48C613.441 1202.76 613.571 1203.09 613.635 1203.42C613.7 1203.76 613.696 1204.11 613.626 1204.45C613.556 1204.78 613.42 1205.1 613.227 1205.39C602.706 1219.79 589.726 1232.21 574.884 1242.1C574.431 1242.4 573.897 1242.54 573.357 1242.52Z" fill="#313131"/>
<path d="M524.805 1309.98C524.158 1309.99 523.53 1309.76 523.044 1309.33C522.557 1308.9 522.245 1308.31 522.17 1307.67C522.094 1307.03 522.26 1306.38 522.635 1305.85C523.01 1305.32 523.567 1304.95 524.199 1304.81C541.629 1299.94 557.809 1291.38 571.641 1279.71C572.163 1279.26 572.844 1279.03 573.534 1279.07C574.224 1279.12 574.867 1279.44 575.323 1279.96C575.778 1280.49 576.007 1281.17 575.959 1281.86C575.912 1282.56 575.594 1283.2 575.072 1283.66C560.654 1295.96 543.697 1304.93 525.412 1309.92C525.212 1309.96 525.009 1309.98 524.805 1309.98Z" fill="#313131"/>
<path d="M660.021 1260.34C659.47 1260.34 658.932 1260.17 658.484 1259.85C658.035 1259.53 657.699 1259.08 657.523 1258.56C657.347 1258.04 657.339 1257.47 657.503 1256.95C657.666 1256.42 657.991 1255.96 658.431 1255.63C674.685 1243.25 688.24 1213.25 688.386 1212.96C688.701 1212.39 689.219 1211.95 689.837 1211.75C690.454 1211.54 691.128 1211.57 691.726 1211.83C692.323 1212.09 692.801 1212.57 693.065 1213.16C693.33 1213.76 693.362 1214.43 693.156 1215.05C692.57 1216.33 678.931 1246.55 661.611 1259.75C661.157 1260.11 660.6 1260.32 660.021 1260.34Z" fill="#313131"/>
<path d="M552.71 1361.88C552.075 1361.87 551.462 1361.64 550.986 1361.22C550.51 1360.8 550.203 1360.22 550.124 1359.59C550.044 1358.96 550.197 1358.32 550.554 1357.79C550.91 1357.27 551.447 1356.89 552.062 1356.73C567.076 1352.34 581.267 1345.52 594.066 1336.52C594.623 1336.19 595.284 1336.08 595.921 1336.2C596.557 1336.33 597.124 1336.69 597.51 1337.21C597.896 1337.73 598.075 1338.38 598.01 1339.03C597.946 1339.67 597.643 1340.27 597.162 1340.71C583.85 1350.16 569.032 1357.29 553.338 1361.79C553.133 1361.85 552.922 1361.88 552.71 1361.88Z" fill="#313131"/>
<path d="M653.453 1338.01C652.866 1338.01 652.295 1337.82 651.833 1337.45C651.37 1337.09 651.043 1336.59 650.902 1336.02C650.762 1335.45 650.818 1334.85 651.061 1334.31C651.303 1333.78 651.718 1333.34 652.239 1333.07C670.083 1323.76 688.386 1298.91 688.574 1298.66C688.756 1298.34 689.004 1298.06 689.302 1297.84C689.6 1297.62 689.941 1297.47 690.302 1297.39C690.664 1297.31 691.038 1297.31 691.399 1297.39C691.761 1297.47 692.102 1297.62 692.4 1297.84C692.698 1298.06 692.946 1298.34 693.128 1298.66C693.309 1298.98 693.421 1299.34 693.455 1299.71C693.489 1300.08 693.444 1300.45 693.324 1300.8C693.204 1301.15 693.011 1301.47 692.758 1301.74C691.984 1302.8 673.555 1327.82 654.624 1337.72C654.26 1337.9 653.86 1338 653.453 1338.01Z" fill="#313131"/>
<path d="M619.063 1417.31C618.51 1417.3 617.973 1417.12 617.527 1416.8C617.081 1416.47 616.748 1416.01 616.574 1415.49C616.363 1414.83 616.424 1414.11 616.741 1413.5C617.059 1412.88 617.608 1412.42 618.268 1412.21C618.666 1412.08 657.866 1399.3 670.229 1386.94C670.728 1386.49 671.379 1386.26 672.047 1386.28C672.715 1386.3 673.349 1386.57 673.82 1387.05C674.292 1387.52 674.563 1388.16 674.58 1388.82C674.597 1389.49 674.357 1390.14 673.911 1390.64C660.669 1403.88 621.615 1416.64 619.879 1417.18C619.615 1417.27 619.34 1417.31 619.063 1417.31Z" fill="#313131"/>
<path d="M725.474 1343.26C724.924 1343.26 724.388 1343.08 723.943 1342.75C723.499 1342.43 723.169 1341.97 722.999 1341.45C722.83 1340.92 722.831 1340.36 723.001 1339.84C723.171 1339.31 723.502 1338.85 723.947 1338.53C737.603 1328.57 749.167 1316.03 757.981 1301.61C758.357 1301.1 758.907 1300.74 759.528 1300.6C760.149 1300.47 760.799 1300.56 761.355 1300.87C761.912 1301.18 762.337 1301.68 762.551 1302.27C762.766 1302.87 762.755 1303.53 762.52 1304.12C753.381 1319.26 741.287 1332.41 726.959 1342.78C726.525 1343.09 726.007 1343.25 725.474 1343.26Z" fill="#313131"/>
<path d="M697.255 1413.42C696.638 1413.42 696.041 1413.2 695.57 1412.8C695.099 1412.4 694.785 1411.85 694.682 1411.24C694.58 1410.63 694.695 1410 695.009 1409.47C695.323 1408.94 695.815 1408.54 696.398 1408.33C711.71 1402.96 731.248 1382.38 731.436 1382.17C731.672 1381.92 731.955 1381.71 732.269 1381.57C732.583 1381.43 732.922 1381.36 733.266 1381.35C733.609 1381.34 733.952 1381.4 734.273 1381.52C734.594 1381.64 734.888 1381.83 735.138 1382.06C735.388 1382.3 735.589 1382.58 735.73 1382.89C735.87 1383.21 735.948 1383.55 735.958 1383.89C735.967 1384.23 735.909 1384.58 735.787 1384.9C735.664 1385.22 735.479 1385.51 735.243 1385.76C734.406 1386.64 714.639 1407.46 698.134 1413.27C697.852 1413.37 697.555 1413.42 697.255 1413.42Z" fill="#313131"/>
<path d="M1401.26 1273.27C1401.25 1326.71 1382.33 1378.42 1347.87 1419.26C1313.4 1460.1 1265.61 1487.44 1212.93 1496.44C1160.25 1505.43 1106.09 1495.51 1060.02 1468.43C1013.96 1441.34 978.949 1398.84 961.197 1348.44C943.445 1298.03 944.091 1242.97 963.019 1193C981.947 1143.02 1017.94 1101.35 1064.63 1075.35C1111.32 1049.35 1165.7 1040.7 1218.15 1050.93C1270.6 1061.16 1317.75 1089.61 1351.24 1131.25C1383.63 1171.5 1401.28 1221.61 1401.26 1273.27Z" fill="white"/>
<path d="M1174.76 1502.43C1118.91 1502.42 1064.99 1482.01 1023.13 1445.03C981.28 1408.05 954.38 1357.05 947.494 1301.63C940.608 1246.21 954.21 1190.18 985.741 1144.08C1017.27 1097.99 1064.56 1065 1118.71 1051.33C1172.86 1037.65 1230.14 1044.24 1279.77 1069.84C1329.41 1095.44 1367.98 1138.3 1388.23 1190.35C1408.48 1242.39 1409.01 1300.05 1389.73 1352.46C1370.45 1404.88 1332.68 1448.44 1283.53 1474.96C1250.11 1492.99 1212.73 1502.43 1174.76 1502.43ZM1174.76 1049.4C1124.01 1049.41 1074.78 1066.66 1035.13 1098.33C995.476 1129.99 967.762 1174.19 956.529 1223.68C945.296 1273.16 951.212 1325 973.306 1370.68C995.4 1416.36 1032.36 1453.18 1078.13 1475.1C1123.89 1497.01 1175.75 1502.73 1225.19 1491.3C1274.63 1479.88 1318.72 1452 1350.24 1412.22C1381.75 1372.45 1398.81 1323.15 1398.63 1272.41C1398.44 1221.66 1381.02 1172.49 1349.21 1132.95C1328.28 1106.8 1301.73 1085.71 1271.53 1071.24C1241.32 1056.77 1208.25 1049.29 1174.76 1049.36V1049.4Z" fill="#313131"/>
<path d="M1351.24 1131.25C1338.82 1144.14 1319.62 1156.04 1294.91 1152.97C1247.43 1147.02 1265.23 1173.4 1252.05 1194.51C1238.87 1215.62 1199.94 1195.83 1174.76 1161.52C1149.57 1127.22 1123.44 1151.06 1088.49 1141.11C1064.79 1134.37 1065.67 1101.36 1050.33 1083.96C1097.4 1053.03 1154.29 1040.75 1209.92 1049.49C1265.55 1058.23 1315.94 1087.38 1351.24 1131.25Z" fill="#21A2FF"/>
<path d="M1282.36 1472.62C1255.35 1487.17 1225.66 1496.1 1195.1 1498.86C1164.54 1501.63 1133.74 1498.17 1104.55 1488.7C1118.38 1477.6 1127 1470.44 1135.93 1470.84C1150.45 1471.51 1166.91 1479.4 1178.15 1470.84C1189.38 1462.29 1207.16 1451.09 1221.68 1461.64C1231.09 1468.41 1261.69 1471.36 1282.36 1472.62Z" fill="#21A2FF"/>
<path d="M1137.29 1303.99C1140.6 1256.51 1137.96 1172.75 1084.54 1186.6C1031.11 1200.45 1055.52 1232.62 1036.42 1244.52C1017.33 1256.43 974.443 1268.37 979.045 1294.73C983.647 1321.08 1012.03 1317.74 1013.35 1338.26C1014.67 1358.78 1007.98 1358.09 1013.35 1367.94C1019.92 1379.99 1032.47 1362.67 1054.23 1378.4C1075.98 1394.13 1100.39 1417.33 1115.58 1375.77C1124.28 1352.31 1131.53 1328.34 1137.29 1303.99Z" fill="#21A2FF"/>
<path d="M1286.02 1258.71C1280.54 1275.67 1320.41 1280.82 1337.86 1263.37C1355.3 1245.92 1353.31 1229.48 1335.64 1226.28C1329.82 1225.24 1313.05 1224.19 1304.26 1239.54C1295.48 1254.9 1288.72 1250.36 1286.02 1258.71Z" fill="#21A2FF"/>
<path d="M1235.48 1205.83C1216.91 1205.83 1191.28 1188.44 1172.73 1163.07C1157.79 1142.74 1143.13 1143.95 1124.62 1145.5C1113.72 1146.4 1101.38 1147.42 1087.9 1143.61C1072.22 1139.16 1066.5 1124.29 1061 1109.89C1057.66 1101.15 1054.18 1092.11 1048.45 1085.69C1048.2 1085.41 1048.01 1085.08 1047.91 1084.72C1047.8 1084.35 1047.77 1083.97 1047.82 1083.6C1047.87 1083.23 1047.99 1082.87 1048.19 1082.55C1048.39 1082.23 1048.66 1081.96 1048.98 1081.76C1096.58 1050.47 1154.13 1038.04 1210.4 1046.88C1266.67 1055.73 1317.63 1085.22 1353.34 1129.6C1353.74 1130.09 1353.95 1130.72 1353.92 1131.35C1353.89 1131.99 1353.63 1132.59 1353.19 1133.05C1343.61 1142.99 1323.26 1159.12 1294.62 1155.54C1264.43 1151.75 1263.01 1160.91 1260.88 1174.76C1259.85 1181.37 1258.68 1188.84 1254.29 1195.87C1252.42 1198.89 1249.82 1201.38 1246.72 1203.12C1243.63 1204.85 1240.14 1205.77 1236.59 1205.78L1235.48 1205.83ZM1137.79 1139.51C1151.35 1139.51 1164.36 1142.95 1176.87 1159.97C1194.61 1184.13 1219.65 1201.2 1236.38 1200.58C1239.08 1200.6 1241.73 1199.93 1244.09 1198.62C1246.44 1197.32 1248.42 1195.42 1249.83 1193.13C1253.66 1187 1254.69 1180.39 1255.67 1173.99C1257.93 1159.58 1260.02 1145.96 1295.25 1150.37C1319.05 1153.34 1336.71 1142 1347.73 1131.08C1312.97 1088.77 1263.9 1060.66 1209.81 1052.09C1155.72 1043.51 1100.37 1055.07 1054.23 1084.56C1059.37 1091.36 1062.59 1099.81 1065.75 1108.03C1071.04 1121.82 1076.02 1134.85 1089.2 1138.57C1101.75 1142.13 1113.09 1141.19 1124.05 1140.29C1128.69 1139.89 1133.28 1139.51 1137.79 1139.51Z" fill="#313131"/>
<path d="M1174.76 1502.42C1150.68 1502.44 1126.75 1498.67 1103.84 1491.23C1103.38 1491.08 1102.97 1490.81 1102.66 1490.44C1102.35 1490.07 1102.14 1489.62 1102.07 1489.14C1101.98 1488.68 1102.02 1488.2 1102.19 1487.76C1102.35 1487.31 1102.64 1486.92 1103.01 1486.63L1104.14 1485.71C1117.59 1474.9 1126.46 1467.7 1136.08 1468.18C1140.83 1468.54 1145.55 1469.24 1150.2 1470.27C1160.26 1472.18 1169.76 1474 1176.6 1468.77C1183.77 1463.31 1205.57 1446.66 1223.25 1459.52C1229.92 1464.37 1250.96 1468.1 1282.51 1469.98C1283.08 1470 1283.63 1470.21 1284.07 1470.58C1284.5 1470.95 1284.81 1471.45 1284.93 1472.01C1285.06 1472.57 1284.99 1473.15 1284.75 1473.67C1284.51 1474.19 1284.1 1474.61 1283.59 1474.88C1250.15 1492.93 1212.76 1502.39 1174.76 1502.42ZM1110.1 1487.78C1164.06 1503.97 1222.13 1499.3 1272.8 1474.69C1244.79 1472.59 1227.12 1468.87 1220.17 1463.83C1207.16 1454.38 1190.88 1464.54 1179.78 1473.01C1171.08 1479.64 1159.97 1477.53 1149.22 1475.48C1144.81 1474.53 1140.34 1473.88 1135.85 1473.56C1128.76 1473.14 1121.14 1478.83 1110.1 1487.78Z" fill="#313131"/>
<path d="M1092.42 1402.02C1081.25 1402.02 1069.54 1393.25 1058.16 1384.74C1056.3 1383.36 1054.48 1382 1052.66 1380.68C1041.61 1372.65 1033.29 1373.78 1026.59 1374.7C1020.82 1375.49 1014.86 1376.31 1011.01 1369.26C1009.74 1367.3 1008.94 1365.08 1008.66 1362.76C1008.38 1360.45 1008.62 1358.1 1009.38 1355.89C1010.8 1350.21 1011.24 1344.32 1010.69 1338.49C1010.15 1330.12 1004.42 1326.36 997.035 1321.65C988.668 1316.27 979.045 1310.17 976.431 1295.25C972.561 1273.16 998.123 1260.8 1018.66 1250.88C1024.25 1248.32 1029.71 1245.47 1035 1242.35C1041.01 1238.58 1042.01 1232.48 1043.37 1224.74C1045.67 1210.74 1048.51 1193.36 1083.97 1184.11C1097.11 1180.7 1108.24 1182.71 1117.09 1190.05C1142.46 1211.14 1142.33 1270.63 1140.1 1304.2V1304.58C1134.29 1329.08 1126.99 1353.2 1118.24 1376.81C1113.15 1390.76 1106.65 1398.73 1098.36 1401.2C1096.44 1401.78 1094.43 1402.05 1092.42 1402.02ZM1034.06 1368.82C1041.93 1368.89 1049.55 1371.57 1055.73 1376.43C1057.57 1377.77 1059.41 1379.15 1061.28 1380.62C1073.58 1389.82 1086.38 1399.32 1096.63 1396.24C1103.22 1394.3 1108.59 1387.37 1113.07 1375.07C1121.7 1351.74 1128.92 1327.9 1134.7 1303.7C1136.52 1277.34 1138.05 1214.4 1113.63 1194.13C1106.06 1187.86 1096.75 1186.2 1085.18 1189.22C1053.01 1197.58 1050.59 1212.48 1048.43 1225.63C1047.13 1233.58 1045.8 1241.8 1037.78 1246.82C1032.32 1250.05 1026.7 1252.98 1020.94 1255.63C1001.01 1265.25 978.397 1276.19 981.577 1294.39C983.794 1306.94 992.036 1312.26 999.838 1317.4C1007.39 1322.24 1015.19 1327.21 1015.92 1338.32C1016.48 1344.63 1015.99 1350.99 1014.48 1357.15C1013.87 1358.73 1013.65 1360.43 1013.84 1362.12C1014.04 1363.8 1014.64 1365.41 1015.59 1366.81C1017.68 1370.51 1019.77 1370.41 1025.88 1369.57C1028.59 1369.13 1031.32 1368.86 1034.06 1368.78V1368.82Z" fill="#313131"/>
<path d="M1308.22 1276.82C1301.74 1277.04 1295.33 1275.52 1289.64 1272.43C1283.91 1268.92 1281.69 1263.62 1283.53 1257.91C1284.07 1256.18 1284.97 1254.58 1286.19 1253.23C1287.4 1251.88 1288.89 1250.81 1290.56 1250.09C1293.59 1248.35 1297.4 1246.2 1301.92 1238.25C1309.83 1224.42 1324.76 1221.66 1336.1 1223.61C1344.3 1225.09 1349.88 1229.34 1351.83 1235.55C1354.47 1243.92 1350.05 1254.78 1339.7 1265.13C1331.77 1273.14 1319.41 1276.82 1308.22 1276.82ZM1329.13 1228.33C1324.55 1228.15 1320 1229.22 1315.99 1231.45C1311.98 1233.67 1308.66 1236.96 1306.4 1240.95C1301.17 1250.13 1296.48 1252.79 1293.07 1254.73C1290.58 1256.16 1289.35 1256.83 1288.45 1259.63C1288.05 1260.88 1286.79 1264.71 1292.3 1268C1301.61 1273.66 1324.01 1273.48 1335.93 1261.55C1344.74 1252.75 1348.78 1243.67 1346.77 1237.25C1345.05 1231.77 1339.49 1229.67 1335.12 1228.88C1333.17 1228.55 1331.19 1228.39 1329.22 1228.4L1329.13 1228.33Z" fill="#313131"/>
<path d="M1275.31 1307.26C1237.66 1311.84 1184.61 1238.12 1178.15 1241.81C1159.88 1252.26 1197.62 1292.36 1188.06 1295.82C1178.5 1299.27 1144.82 1287.24 1121.81 1275.71C1098.8 1264.19 1075.02 1249.13 1069.01 1254.8C1062.17 1261.32 1087.84 1289.81 1118.82 1307.2C1118.82 1307.2 1037.72 1274.73 1031.42 1287.93C1025.32 1300.77 1084.54 1331.17 1084.54 1331.17C1084.54 1331.17 1038.03 1321.21 1033.77 1330.71C1029.77 1339.64 1065.94 1355.45 1065.94 1355.45C1065.94 1355.45 1055.65 1358.63 1054 1364.53C1050.94 1375.41 1113.19 1394.61 1153.17 1401.66C1190.05 1408.17 1273.43 1411.54 1273.43 1411.54L1311.08 1363.13L1275.31 1307.26Z" fill="white"/>
<path d="M1273.43 1414.21C1272.59 1414.21 1189.44 1410.76 1152.83 1404.32C1121.29 1398.76 1060.79 1382.21 1052.43 1369.03C1051.91 1368.29 1051.56 1367.45 1051.4 1366.57C1051.24 1365.69 1051.27 1364.78 1051.49 1363.91C1052.57 1360.04 1056.25 1357.23 1059.54 1355.54C1050.69 1351.35 1034.29 1342.51 1031.4 1335C1031.05 1334.18 1030.87 1333.29 1030.87 1332.4C1030.87 1331.51 1031.05 1330.63 1031.4 1329.81C1034.71 1322.45 1053.79 1323.64 1069.06 1325.85C1050.08 1315.02 1024.06 1297.72 1029.17 1286.99C1031.45 1282.2 1039.1 1278.25 1078.37 1290.29C1085.27 1292.39 1092.11 1294.71 1098.2 1296.86C1080.54 1283.52 1066.59 1267.99 1065.48 1259.21C1065.27 1258.13 1065.33 1257.01 1065.65 1255.96C1065.97 1254.9 1066.54 1253.95 1067.32 1253.16C1073.09 1247.64 1085.94 1254.04 1108.15 1265.71C1113.03 1268.31 1118.09 1270.99 1123.07 1273.5C1146.6 1285.25 1178.5 1296.3 1187.08 1293.54C1187.37 1291.34 1183.23 1283.6 1180.45 1278.43C1174.38 1267.12 1167.48 1254.29 1170.61 1245.91C1171.19 1244.4 1172.09 1243.04 1173.25 1241.93C1174.41 1240.82 1175.8 1239.97 1177.33 1239.46C1182.66 1237.37 1189.02 1244.32 1200.59 1256.85C1218.2 1275.92 1244.85 1304.77 1275.42 1304.77C1275.85 1304.77 1276.28 1304.87 1276.67 1305.08C1277.05 1305.29 1277.38 1305.59 1277.61 1305.96L1313.34 1361.88C1313.62 1362.33 1313.76 1362.87 1313.74 1363.41C1313.71 1363.94 1313.52 1364.46 1313.19 1364.89L1275.54 1413.29C1275.28 1413.6 1274.96 1413.84 1274.59 1414C1274.23 1414.16 1273.83 1414.23 1273.43 1414.21ZM1047.64 1329.24C1041.36 1329.24 1036.97 1330.04 1036.15 1331.84C1036.15 1331.84 1035.96 1332.26 1036.26 1333.01C1038.52 1338.85 1056.3 1348.45 1066.99 1353.13C1067.48 1353.34 1067.89 1353.7 1068.17 1354.15C1068.45 1354.6 1068.58 1355.13 1068.55 1355.66C1068.52 1356.2 1068.33 1356.71 1068 1357.13C1067.67 1357.55 1067.22 1357.86 1066.71 1358.03C1064.39 1358.74 1057.53 1361.63 1056.51 1365.31C1056.52 1365.64 1056.63 1365.96 1056.84 1366.23C1062.89 1375.83 1115.12 1392.35 1153.63 1399.15C1187.35 1405.09 1261.32 1408.46 1272.19 1408.92L1307.76 1363.05L1273.87 1309.98C1241.65 1309.12 1214.61 1279.86 1196.64 1260.38C1189.86 1253.06 1181.45 1243.94 1179.07 1244.36C1178.24 1244.61 1177.48 1245.04 1176.85 1245.63C1176.21 1246.22 1175.72 1246.94 1175.41 1247.75C1173.1 1253.9 1179.59 1266.13 1184.94 1275.94C1190.3 1285.75 1193.31 1291.78 1191.83 1295.61C1191.58 1296.25 1191.2 1296.84 1190.7 1297.32C1190.21 1297.8 1189.61 1298.16 1188.96 1298.39C1177.79 1302.43 1142.29 1289 1120.64 1278.16C1115.58 1275.63 1110.52 1272.95 1105.6 1270.34C1092.34 1263.31 1074.22 1253.6 1070.83 1256.85C1070.68 1257.08 1070.57 1257.34 1070.52 1257.61C1070.48 1257.89 1070.49 1258.17 1070.56 1258.44C1071.71 1267.64 1094.07 1290.5 1120.12 1305.08C1120.67 1305.43 1121.08 1305.96 1121.26 1306.58C1121.44 1307.2 1121.39 1307.87 1121.11 1308.46C1120.83 1309.04 1120.34 1309.51 1119.74 1309.76C1119.14 1310 1118.47 1310.02 1117.86 1309.81C1117.65 1309.81 1097.42 1301.65 1076.69 1295.17C1037.87 1283.27 1034.08 1288.49 1033.79 1289.12C1030.69 1295.63 1058.33 1314.85 1085.73 1328.87C1086.29 1329.16 1086.72 1329.65 1086.95 1330.23C1087.18 1330.82 1087.19 1331.47 1086.98 1332.07C1086.77 1332.67 1086.35 1333.17 1085.8 1333.48C1085.24 1333.79 1084.59 1333.88 1083.97 1333.74C1072.03 1331.09 1059.86 1329.58 1047.64 1329.24Z" fill="#313131"/>
<path d="M1139.24 1319.02C1138.9 1319.02 1138.57 1318.95 1138.25 1318.83C1137.71 1318.6 1125.08 1313.51 1117.61 1309.58C1116.99 1309.26 1116.54 1308.7 1116.33 1308.04C1116.13 1307.38 1116.2 1306.66 1116.52 1306.05C1116.84 1305.43 1117.4 1304.97 1118.06 1304.77C1118.73 1304.57 1119.44 1304.63 1120.06 1304.96C1127.27 1308.77 1140.07 1313.91 1140.2 1313.97C1140.76 1314.2 1141.23 1314.61 1141.52 1315.15C1141.81 1315.68 1141.91 1316.3 1141.79 1316.89C1141.68 1317.49 1141.36 1318.02 1140.9 1318.41C1140.43 1318.8 1139.84 1319.01 1139.24 1319.02Z" fill="#313131"/>
<path d="M1134.24 1351.23C1133.97 1351.23 1133.71 1351.19 1133.46 1351.1C1131.92 1350.62 1095.39 1339.33 1083.41 1333.59C1082.78 1333.3 1082.3 1332.76 1082.06 1332.11C1081.83 1331.46 1081.87 1330.74 1082.16 1330.11C1082.46 1329.48 1082.99 1329 1083.65 1328.77C1084.3 1328.53 1085.02 1328.57 1085.64 1328.87C1097.32 1334.45 1134.64 1346 1135.01 1346.1C1135.62 1346.28 1136.14 1346.67 1136.48 1347.21C1136.83 1347.74 1136.96 1348.38 1136.87 1349C1136.77 1349.63 1136.45 1350.2 1135.97 1350.61C1135.49 1351.02 1134.87 1351.24 1134.24 1351.23Z" fill="#313131"/>
<path d="M1134.24 1377.92C1134.03 1377.95 1133.82 1377.95 1133.61 1377.92C1131.37 1377.38 1078.57 1364.6 1064.81 1357.97C1064.48 1357.83 1064.18 1357.63 1063.93 1357.37C1063.68 1357.12 1063.49 1356.82 1063.36 1356.48C1063.23 1356.15 1063.18 1355.8 1063.19 1355.44C1063.2 1355.09 1063.29 1354.74 1063.45 1354.41C1063.6 1354.09 1063.82 1353.81 1064.09 1353.57C1064.36 1353.34 1064.67 1353.16 1065.01 1353.06C1065.35 1352.95 1065.71 1352.91 1066.06 1352.94C1066.41 1352.98 1066.76 1353.09 1067.07 1353.26C1080.35 1359.64 1134.3 1372.71 1134.84 1372.84C1135.48 1372.98 1136.03 1373.35 1136.41 1373.88C1136.78 1374.4 1136.95 1375.05 1136.87 1375.7C1136.8 1376.34 1136.49 1376.93 1136 1377.36C1135.51 1377.78 1134.89 1378.01 1134.24 1378.01V1377.92Z" fill="#313131"/>
<path d="M746.016 1133.32C745.479 1133.32 744.956 1133.16 744.516 1132.85C744.075 1132.54 743.738 1132.11 743.548 1131.61L721.144 1070.74C721.016 1070.41 720.957 1070.05 720.971 1069.7C720.984 1069.35 721.07 1069 721.223 1068.68C721.376 1068.36 721.592 1068.07 721.859 1067.84C722.126 1067.61 722.438 1067.43 722.776 1067.33C723.098 1067.21 723.442 1067.15 723.786 1067.16C724.13 1067.18 724.468 1067.26 724.781 1067.4C725.094 1067.54 725.376 1067.75 725.61 1068C725.843 1068.25 726.025 1068.55 726.144 1068.87L748.547 1129.73C748.667 1130.05 748.723 1130.39 748.71 1130.74C748.697 1131.08 748.617 1131.42 748.473 1131.73C748.329 1132.04 748.125 1132.33 747.872 1132.56C747.619 1132.79 747.322 1132.98 746.999 1133.09C746.688 1133.23 746.355 1133.31 746.016 1133.32Z" fill="#313131"/>
<path d="M881.88 1234.86C881.187 1234.86 880.521 1234.59 880.031 1234.1C879.541 1233.61 879.265 1232.94 879.265 1232.25V1084.36C879.265 1083.66 879.541 1083 880.031 1082.51C880.521 1082.02 881.187 1081.74 881.88 1081.74C882.574 1081.74 883.239 1082.02 883.729 1082.51C884.219 1083 884.495 1083.66 884.495 1084.36V1232.25C884.495 1232.94 884.219 1233.61 883.729 1234.1C883.239 1234.59 882.574 1234.86 881.88 1234.86Z" fill="#313131"/>
<path d="M1360.64 1443.85C1321.56 1441.91 1267.24 1438.94 1267.24 1438.94C1267.24 1438.94 1256.78 1411.58 1256.78 1365.33C1256.61 1318.3 1271.98 1290.02 1271.98 1290.02L1519.66 1262.3L1360.64 1443.85Z" fill="white"/>
<path d="M1364.69 1446.78H1364.57C1325.93 1444.84 1267.68 1441.66 1267.09 1441.64C1266.58 1441.6 1266.1 1441.43 1265.69 1441.13C1265.28 1440.83 1264.97 1440.41 1264.79 1439.94C1264.35 1438.81 1254.33 1411.6 1254.08 1365.43C1253.91 1318.28 1268.95 1290.13 1269.6 1288.87C1269.81 1288.49 1270.11 1288.17 1270.47 1287.93C1270.84 1287.7 1271.26 1287.56 1271.69 1287.53L1519.28 1259.77C1519.95 1259.74 1520.6 1259.96 1521.11 1260.39C1521.62 1260.82 1521.95 1261.43 1522.02 1262.09C1522.1 1262.75 1521.91 1263.42 1521.51 1263.95C1521.11 1264.49 1520.52 1264.85 1519.87 1264.96L1273.6 1292.55C1270.81 1298.37 1259.16 1324.98 1259.31 1365.41C1259.45 1404.49 1267.01 1430.07 1269.14 1436.53C1279.16 1437.1 1329.99 1439.86 1364.82 1441.59C1365.51 1441.61 1366.17 1441.9 1366.65 1442.41C1367.13 1442.91 1367.39 1443.58 1367.37 1444.27C1367.36 1444.97 1367.06 1445.62 1366.56 1446.1C1366.06 1446.58 1365.39 1446.84 1364.69 1446.82V1446.78Z" fill="#313131"/>
<path d="M493.24 944.493C492.586 944.455 491.969 944.174 491.513 943.704C491.056 943.234 490.793 942.61 490.775 941.955C490.756 941.301 490.984 940.663 491.414 940.168C491.843 939.673 492.442 939.358 493.093 939.284C521.826 936.532 549.837 928.668 575.804 916.065C619.732 894.163 638.559 868.099 638.684 867.848C638.852 867.506 639.092 867.205 639.387 866.966C639.683 866.726 640.028 866.554 640.397 866.461C640.766 866.369 641.151 866.358 641.525 866.429C641.898 866.501 642.252 866.653 642.561 866.876C642.87 867.098 643.126 867.385 643.313 867.717C643.499 868.049 643.611 868.417 643.64 868.797C643.669 869.176 643.615 869.557 643.482 869.914C643.349 870.27 643.139 870.593 642.868 870.86C642.094 871.969 623.205 898.221 578.021 920.75C551.42 933.663 522.72 941.704 493.282 944.493H493.24Z" fill="#313131"/>
<path d="M1303.26 1443.58C1302.65 1443.58 1302.07 1443.37 1301.6 1442.99C1301.13 1442.61 1300.81 1442.08 1300.68 1441.49C1300.68 1441.07 1292.32 1399.17 1292.51 1360.24C1292.75 1334.68 1297.13 1309.33 1305.47 1285.17C1305.6 1284.85 1305.78 1284.55 1306.02 1284.3C1306.26 1284.05 1306.54 1283.85 1306.86 1283.71C1307.17 1283.57 1307.51 1283.5 1307.86 1283.49C1308.2 1283.48 1308.54 1283.54 1308.86 1283.66C1309.18 1283.79 1309.48 1283.97 1309.73 1284.21C1309.98 1284.45 1310.18 1284.73 1310.32 1285.05C1310.46 1285.36 1310.53 1285.7 1310.54 1286.04C1310.55 1286.39 1310.49 1286.73 1310.37 1287.05C1302.26 1310.62 1298.02 1335.34 1297.82 1360.27C1297.71 1398.65 1305.83 1440.07 1305.91 1440.47C1305.98 1440.81 1305.98 1441.16 1305.91 1441.49C1305.84 1441.83 1305.7 1442.15 1305.51 1442.44C1305.32 1442.73 1305.07 1442.97 1304.78 1443.16C1304.49 1443.35 1304.16 1443.48 1303.82 1443.54L1303.26 1443.58Z" fill="#313131"/>
<path d="M881.88 1091.36L862.782 1241.64L881.88 1232.25V1091.36Z" fill="#313131"/>
<path d="M911.479 670.444C911.229 670.474 910.977 670.474 910.726 670.444C694.515 604.175 493.616 586.478 359.53 621.851C359.19 621.968 358.83 622.013 358.472 621.985C358.114 621.957 357.766 621.855 357.449 621.686C357.132 621.517 356.853 621.284 356.63 621.003C356.407 620.721 356.244 620.397 356.152 620.049C356.06 619.702 356.04 619.34 356.094 618.985C356.148 618.63 356.275 618.289 356.466 617.985C356.658 617.681 356.909 617.42 357.206 617.218C357.503 617.015 357.838 616.876 358.191 616.809C493.198 581.248 695.143 598.903 912.253 665.423C912.861 665.601 913.384 665.992 913.726 666.526C914.067 667.059 914.203 667.698 914.108 668.325C914.013 668.951 913.695 669.521 913.211 669.93C912.728 670.339 912.113 670.559 911.479 670.548V670.444Z" fill="#313131"/>
<path d="M513.133 1254.25C512.567 1254.25 512.015 1254.07 511.564 1253.73C300.018 1094.83 177.855 922.99 184.758 793.757C184.84 793.101 185.168 792.501 185.674 792.077C186.181 791.653 186.829 791.437 187.489 791.471C188.148 791.506 188.771 791.789 189.23 792.263C189.69 792.737 189.953 793.368 189.967 794.029C183.168 921.421 304.557 1091.7 514.702 1249.54C515.252 1249.96 515.615 1250.58 515.713 1251.27C515.811 1251.95 515.635 1252.65 515.225 1253.21C514.979 1253.53 514.663 1253.79 514.3 1253.97C513.938 1254.15 513.538 1254.25 513.133 1254.25Z" fill="#313131"/>
<path d="M1080.48 1382.08C1080.48 1382.08 1136.52 1402.5 1191.64 1406.39C1246.76 1410.28 1260.42 1410.99 1260.42 1410.99L1267.22 1439.02L1325.66 1442.16L1314.95 1451.16C1314.95 1451.16 1265.27 1447.35 1263.03 1446.72C1260.79 1446.09 1253.49 1416.66 1253.49 1416.66C1253.49 1416.66 1121.58 1412.48 1080.48 1382.08Z" fill="#313131"/>
<path d="M1400.88 1260.19L1401.26 1273.27L1514.41 1262.41L1400.88 1260.19Z" fill="#313131"/>
<path d="M746.016 671.658C769.26 671.658 788.103 652.814 788.103 629.57C788.103 606.326 769.26 587.482 746.016 587.482C722.772 587.482 703.928 606.326 703.928 629.57C703.928 652.814 722.772 671.658 746.016 671.658Z" fill="white"/>
<path d="M302.36 1081.66C316.201 1081.66 327.421 1070.44 327.421 1056.6C327.421 1042.75 316.201 1031.54 302.36 1031.54C288.52 1031.54 277.3 1042.75 277.3 1056.6C277.3 1070.44 288.52 1081.66 302.36 1081.66Z" fill="white"/>
<path d="M302.319 1084.27C296.839 1084.27 291.482 1082.65 286.924 1079.61C282.366 1076.57 278.813 1072.24 276.714 1067.18C274.615 1062.12 274.065 1056.55 275.133 1051.17C276.201 1045.8 278.839 1040.86 282.714 1036.99C286.588 1033.11 291.525 1030.48 296.9 1029.41C302.274 1028.34 307.844 1028.89 312.906 1030.99C317.968 1033.09 322.293 1036.64 325.335 1041.2C328.376 1045.76 329.998 1051.11 329.993 1056.59C329.982 1063.93 327.063 1070.96 321.875 1076.15C316.688 1081.34 309.655 1084.26 302.319 1084.27ZM302.319 1034.06C297.874 1034.06 293.529 1035.37 289.831 1037.84C286.134 1040.31 283.251 1043.81 281.548 1047.92C279.844 1052.02 279.396 1056.54 280.261 1060.9C281.125 1065.26 283.263 1069.27 286.404 1072.41C289.545 1075.55 293.548 1077.7 297.907 1078.56C302.266 1079.43 306.784 1078.99 310.89 1077.29C314.997 1075.59 318.507 1072.71 320.976 1069.01C323.446 1065.32 324.764 1060.98 324.764 1056.53C324.742 1050.59 322.369 1044.9 318.163 1040.7C313.957 1036.5 308.261 1034.14 302.319 1034.13V1034.06Z" fill="#313131"/>
<path d="M1515.79 1628.52C1503.61 1628.52 1491.17 1628.27 1478.45 1627.77C1294.12 1620.36 1072.63 1560.1 855.084 1458.06C817.431 1440.36 779.904 1421.47 743.799 1401.87C743.188 1401.54 742.734 1400.98 742.536 1400.32C742.338 1399.65 742.412 1398.94 742.742 1398.33C743.072 1397.71 743.631 1397.26 744.296 1397.06C744.961 1396.86 745.678 1396.94 746.288 1397.27C782.309 1416.83 819.648 1435.67 857.301 1453.33C1074.31 1555.08 1294.95 1615.17 1478.57 1622.54C1567.71 1626.11 1643.2 1617.04 1702.98 1595.59C1764.53 1573.51 1806.57 1539.12 1827.93 1493.64C1849.29 1448.16 1848.85 1393.8 1826.4 1332.36C1804.67 1272.7 1763.35 1208.94 1703.61 1142.61C1580.49 1006.14 1393.19 874.856 1176.18 773.172C1160.51 765.83 1144.55 758.53 1128.76 751.648C1128.43 751.517 1128.14 751.323 1127.89 751.077C1127.64 750.83 1127.44 750.536 1127.31 750.212C1127.18 749.888 1127.11 749.541 1127.12 749.191C1127.12 748.841 1127.19 748.495 1127.33 748.174C1127.47 747.853 1127.68 747.564 1127.93 747.323C1128.18 747.082 1128.48 746.894 1128.81 746.772C1129.14 746.649 1129.49 746.593 1129.84 746.608C1130.19 746.623 1130.53 746.707 1130.85 746.857C1146.68 753.823 1162.69 761.082 1178.4 768.445C1395.95 870.484 1583.92 1002.12 1707.48 1139.12C1831.57 1276.68 1876.04 1403.38 1832.68 1495.86C1792.37 1581.91 1680.46 1628.52 1515.79 1628.52Z" fill="#313131"/>
<path d="M1595.69 1056.89C1607.73 1056.89 1617.49 1047.13 1617.49 1035.09C1617.49 1023.05 1607.73 1013.29 1595.69 1013.29C1583.66 1013.29 1573.9 1023.05 1573.9 1035.09C1573.9 1047.13 1583.66 1056.89 1595.69 1056.89Z" fill="#FFA620"/>
<path d="M1681.94 1677.22C1720.05 1677.22 1750.95 1646.32 1750.95 1608.21C1750.95 1570.1 1720.05 1539.2 1681.94 1539.2C1643.83 1539.2 1612.93 1570.1 1612.93 1608.21C1612.93 1646.32 1643.83 1677.22 1681.94 1677.22Z" fill="white"/>
<path d="M1681.94 1679.83C1667.77 1679.83 1653.93 1675.63 1642.15 1667.76C1630.37 1659.89 1621.19 1648.71 1615.77 1635.62C1610.35 1622.53 1608.93 1608.13 1611.69 1594.24C1614.46 1580.34 1621.28 1567.58 1631.29 1557.56C1641.31 1547.55 1654.07 1540.73 1667.97 1537.96C1681.86 1535.2 1696.26 1536.62 1709.35 1542.04C1722.44 1547.46 1733.62 1556.64 1741.49 1568.42C1749.36 1580.2 1753.56 1594.04 1753.56 1608.21C1753.54 1627.2 1745.99 1645.4 1732.56 1658.83C1719.13 1672.26 1700.93 1679.81 1681.94 1679.83ZM1681.94 1541.77C1668.81 1541.77 1655.97 1545.67 1645.05 1552.96C1634.14 1560.26 1625.63 1570.63 1620.6 1582.76C1615.57 1594.89 1614.26 1608.24 1616.82 1621.12C1619.38 1634 1625.71 1645.83 1634.99 1655.12C1644.28 1664.4 1656.11 1670.73 1668.99 1673.29C1681.87 1675.85 1695.22 1674.53 1707.35 1669.51C1719.48 1664.48 1729.85 1655.97 1737.15 1645.06C1744.44 1634.14 1748.34 1621.3 1748.34 1608.17C1748.31 1590.57 1741.3 1573.7 1728.86 1561.27C1716.41 1548.83 1699.54 1541.83 1681.94 1541.82V1541.77Z" fill="#313131"/>
<path d="M746.016 674.251C737.174 674.251 728.53 671.629 721.179 666.716C713.827 661.803 708.097 654.821 704.715 646.651C701.332 638.482 700.448 629.492 702.174 620.82C703.901 612.148 708.16 604.183 714.414 597.932C720.668 591.681 728.635 587.426 737.308 585.703C745.981 583.981 754.969 584.869 763.137 588.255C771.305 591.642 778.285 597.375 783.195 604.729C788.104 612.083 790.723 620.728 790.718 629.57C790.707 641.42 785.993 652.782 777.612 661.16C769.23 669.537 757.866 674.246 746.016 674.251ZM746.016 590.097C738.211 590.105 730.583 592.428 724.098 596.77C717.612 601.112 712.559 607.28 709.578 614.493C706.597 621.707 705.821 629.642 707.349 637.296C708.876 644.951 712.639 651.98 718.161 657.496C723.683 663.012 730.717 666.768 738.372 668.287C746.028 669.807 753.963 669.023 761.173 666.034C768.383 663.045 774.546 657.986 778.881 651.495C783.217 645.005 785.531 637.375 785.531 629.57C785.528 624.384 784.504 619.249 782.516 614.458C780.529 609.667 777.618 605.315 773.948 601.65C770.279 597.984 765.924 595.078 761.131 593.095C756.339 591.113 751.202 590.094 746.016 590.097Z" fill="#313131"/>
<path d="M1595.69 1059.5C1590.86 1059.5 1586.14 1058.05 1582.13 1055.36C1578.12 1052.67 1574.99 1048.85 1573.15 1044.39C1571.31 1039.92 1570.83 1035.01 1571.78 1030.27C1572.73 1025.53 1575.06 1021.18 1578.48 1017.77C1581.9 1014.36 1586.26 1012.04 1591 1011.1C1595.74 1010.17 1600.65 1010.65 1605.11 1012.51C1609.57 1014.36 1613.38 1017.5 1616.06 1021.52C1618.74 1025.54 1620.17 1030.26 1620.17 1035.09C1620.16 1041.57 1617.57 1047.79 1612.98 1052.36C1608.4 1056.94 1602.18 1059.51 1595.69 1059.5ZM1595.69 1015.89C1591.9 1015.88 1588.18 1017.01 1585.02 1019.12C1581.86 1021.22 1579.4 1024.22 1577.94 1027.73C1576.48 1031.24 1576.1 1035.1 1576.84 1038.83C1577.58 1042.55 1579.4 1045.98 1582.09 1048.66C1584.77 1051.35 1588.19 1053.18 1591.92 1053.92C1595.65 1054.67 1599.51 1054.29 1603.02 1052.84C1606.53 1051.38 1609.53 1048.92 1611.64 1045.76C1613.75 1042.6 1614.88 1038.89 1614.88 1035.09C1614.87 1030 1612.85 1025.13 1609.25 1021.53C1605.66 1017.93 1600.78 1015.9 1595.69 1015.89Z" fill="#313131"/>
</svg>
